<svg width="393" height="395" viewBox="0 0 393 395" fill="none" xmlns="http://www.w3.org/2000/svg">
<g clip-path="url(#clip0_359_9295)">
<path d="M41.3969 267.268C11.051 179.302 -23.7042 84.0908 65.1079 53.4531C153.92 22.8153 323.835 -28.2733 354.181 59.6928C384.526 147.659 406.421 322.323 317.609 352.961C228.797 383.598 71.7428 355.234 41.3969 267.268Z" fill="white"/>
<path d="M76.6175 68.7999C73.2167 68.8215 72.818 65.6237 72.3959 63.2253L70.4491 65.4508C67.6347 68.735 62.0528 65.1267 64.3983 61.5832C59.1681 62.3394 57.198 54.8203 65.4771 54.4314C62.8737 53.243 59.9187 51.5361 61.6776 48.4896C63.7885 45.4431 66.8609 47.1716 69.3703 48.6409C68.6668 46.0265 67.9631 42.6774 71.7392 41.8996C75.5151 41.1218 76.2422 44.7301 76.6644 47.4093L78.5875 45.1837C81.6364 41.7052 87.3825 45.9616 84.3806 49.4403L82.6684 51.428C85.2249 50.6934 88.4615 50.8015 89.0947 53.7616C89.4934 55.4686 88.2268 57.3052 86.374 57.7157C90.0562 60.2004 86.2803 65.5156 82.3165 63.3982L79.6899 61.9938C80.5108 64.9322 80.9798 68.4973 76.6175 68.7999ZM72.9352 60.3733C73.1508 60.3741 73.3592 60.4435 73.5259 60.5693C73.6924 60.6953 73.8069 60.8701 73.8499 61.0647L74.8116 65.71C75.0695 67.1577 77.2742 67.5898 78.1185 66.3367C78.9862 65.5589 77.4853 61.4103 77.4618 60.4814C77.6495 57.3268 83.0905 62.9445 84.6385 62.0802C86.1863 61.756 86.4913 59.6602 85.0841 58.9905L83.3016 58.0398C83.1353 57.951 83.0023 57.8173 82.9212 57.6569C82.84 57.4963 82.8143 57.3166 82.8474 57.1421C82.8808 56.9677 82.9715 56.8067 83.1071 56.6814C83.2429 56.556 83.4172 56.4719 83.6066 56.4408C85.0138 56.2248 87.7109 56.0303 87.2653 54.0856C86.4913 50.8447 80.9095 54.6692 79.5491 53.1567C79.4514 53.0035 79.4057 52.8269 79.4183 52.6497C79.4308 52.4724 79.5009 52.3027 79.6194 52.1627L82.9263 48.3599C84.4275 46.6746 81.5193 44.514 80.0416 46.2641L76.852 49.9372C76.74 50.0628 76.5918 50.1565 76.4244 50.2081C76.2571 50.2595 76.0775 50.2664 75.906 50.2281C75.7346 50.1897 75.5783 50.1076 75.4553 49.9912C75.3322 49.8748 75.2473 49.7288 75.2103 49.5698C74.6005 48.1439 74.9287 43.0014 72.0909 43.5849C69.253 44.1683 71.575 48.6409 71.5984 50.1534C71.6302 50.3148 71.6116 50.4814 71.5445 50.6334C71.4775 50.7855 71.3647 50.9168 71.2195 51.0121C71.0744 51.1072 70.9027 51.1623 70.7248 51.1709C70.5469 51.1797 70.3699 51.1414 70.2146 51.0607L65.8055 48.7273C63.7651 47.6037 61.8886 50.5855 63.9525 51.6658L68.5729 54.1074C68.7392 54.1944 68.8726 54.3264 68.9552 54.4854C69.0377 54.6444 69.0655 54.8229 69.0349 54.9968C69.0044 55.1707 68.9168 55.332 68.7838 55.4587C68.651 55.5856 68.4792 55.672 68.2915 55.7062L63.249 56.5921C60.9036 56.9594 61.5838 60.3517 63.9291 59.8978L66.4622 59.4657C67.283 59.2929 67.9162 60.2651 67.3768 60.8485L66.1337 62.2746C64.6094 63.96 67.541 66.1207 68.995 64.392C69.4877 64.0463 72.2082 60.1788 72.9352 60.3733Z" fill="#D13535"/>
<path d="M289.151 51.6011C285.799 51.6442 285.33 48.3599 284.93 46.0265L283.008 48.252C280.169 51.5145 274.588 47.9278 276.933 44.3627C271.703 45.119 269.734 37.5998 278.011 37.2325C275.409 36.0226 272.477 34.3373 274.212 31.269C276.346 28.2225 279.419 29.951 281.929 31.4203C281.225 28.8059 280.522 25.4785 284.297 24.679C288.073 23.8796 288.801 27.5095 289.199 30.1888C290.934 27.9849 293.209 25.284 296.352 27.4447C299.495 29.6053 297.15 32.2413 295.204 34.2076C297.783 33.473 300.997 33.6026 301.652 36.541C301.831 37.3984 301.646 38.286 301.136 39.0214C300.625 39.7567 299.829 40.2841 298.909 40.4951C302.591 43.0016 298.838 48.3167 294.874 46.1993L292.224 44.7948C293.068 47.7118 293.539 51.2769 289.151 51.6011ZM285.471 43.1528C287.323 43.1744 286.501 48.9217 288.121 49.5916C289.738 50.2613 291.31 49.289 290.957 47.8631C291.005 47.1932 289.388 42.7855 290.372 42.3966C290.517 42.3015 290.691 42.2469 290.87 42.2394C291.049 42.2316 291.226 42.2711 291.38 42.3533L295.79 44.7085C296.213 44.9284 296.714 44.9859 297.183 44.8687C297.653 44.7515 298.053 44.4689 298.299 44.0818C299.377 42.4398 297.103 41.4242 295.861 40.8192C295.11 40.4519 295.32 39.3499 296.141 39.242C297.571 39.0042 300.269 38.8097 299.823 36.8652C299.05 33.6242 293.443 37.4701 292.083 35.9361C291.992 35.7813 291.95 35.6058 291.963 35.4298C291.975 35.2538 292.041 35.0846 292.154 34.9422L295.461 31.1611C296.962 29.4542 294.055 27.3151 292.599 29.0435L289.388 32.7383C289.273 32.864 289.123 32.9573 288.953 33.0075C288.786 33.0577 288.605 33.0628 288.433 33.0221C288.26 32.9814 288.105 32.8966 287.984 32.7774C287.862 32.6585 287.778 32.51 287.745 32.3494C287.159 30.9233 287.486 25.8026 284.65 26.3644C281.811 26.9261 284.109 31.4419 284.134 32.9544C284.166 33.116 284.147 33.2824 284.078 33.4345C284.012 33.5867 283.899 33.718 283.754 33.8131C283.61 33.9084 283.438 33.9635 283.259 33.9721C283.082 33.9807 282.905 33.9426 282.749 33.8619L278.34 31.5068C276.3 30.3833 274.424 33.3648 276.512 34.4452L281.131 36.8868C281.297 36.9756 281.43 37.1091 281.512 37.2697C281.592 37.4303 281.619 37.61 281.585 37.7845C281.552 37.9589 281.461 38.1197 281.326 38.2451C281.19 38.3706 281.015 38.4545 280.826 38.4858L275.784 39.3715C273.462 39.7388 274.142 43.1311 276.464 42.699L279.021 42.2453C279.842 42.0725 280.474 43.0447 279.912 43.6281L278.668 45.0542C277.167 46.7395 280.076 48.9001 281.554 47.1716C282.023 46.8259 284.766 42.9584 285.471 43.1528Z" fill="#D13535"/>
<path d="M175.918 74.8499C175.733 74.8531 175.552 74.7999 175.402 74.6986C175.199 74.5712 175.058 74.3753 175.009 74.153C174.961 73.9308 175.01 73.6998 175.144 73.5103L187.692 56.6139C187.83 56.4263 188.043 56.2962 188.284 56.2518C188.525 56.2074 188.776 56.252 188.982 56.3761C189.187 56.5075 189.329 56.7072 189.377 56.9329C189.425 57.1588 189.376 57.3931 189.24 57.5861L176.692 74.4826C176.605 74.5968 176.489 74.69 176.355 74.7539C176.22 74.818 176.07 74.8508 175.918 74.8499Z" fill="#CE9C5C"/>
<path d="M170.243 69.5345C170.023 69.5273 169.812 69.4489 169.648 69.313C169.484 69.1772 169.378 68.9926 169.347 68.7914C169.316 68.5903 169.363 68.3857 169.48 68.2135C169.597 68.0412 169.775 67.9122 169.985 67.8492L193.79 61.7128C193.913 61.6611 194.046 61.6342 194.181 61.634C194.316 61.634 194.449 61.6609 194.572 61.7127C194.695 61.7643 194.804 61.8399 194.892 61.934C194.98 62.0282 195.045 62.1386 195.082 62.2581C195.12 62.3775 195.129 62.5029 195.109 62.6258C195.089 62.7488 195.041 62.8664 194.967 62.9705C194.893 63.0745 194.796 63.1628 194.682 63.2292C194.568 63.2955 194.44 63.3385 194.306 63.355L170.501 69.5129L170.243 69.5345Z" fill="#CE9C5C"/>
<path d="M184.432 77.6588C184.216 77.662 184.005 77.5942 183.837 77.4677C183.67 77.341 183.557 77.1637 183.518 76.9673L178.944 54.5828C178.92 54.4707 178.921 54.3552 178.946 54.2434C178.971 54.1315 179.02 54.0253 179.089 53.9309C179.159 53.8363 179.249 53.7555 179.353 53.6932C179.456 53.6308 179.573 53.5879 179.695 53.5672C179.937 53.5293 180.186 53.5806 180.388 53.7099C180.589 53.8391 180.728 54.0362 180.774 54.2587L185.347 76.6432C185.388 76.8664 185.333 77.0956 185.192 77.2815C185.052 77.4673 184.838 77.5951 184.596 77.637L184.432 77.6588Z" fill="#CE9C5C"/>
<path d="M191.374 72.1705C191.182 72.1737 190.993 72.1207 190.835 72.0192L172.494 60.4813C172.291 60.3539 172.149 60.1581 172.101 59.9357C172.053 59.7135 172.101 59.4826 172.236 59.2929C172.379 59.1038 172.595 58.9735 172.841 58.9291C173.086 58.8847 173.34 58.9299 173.55 59.0552L191.89 70.6149C192.045 70.7212 192.16 70.8692 192.22 71.0384C192.28 71.2076 192.282 71.3896 192.226 71.5598C192.17 71.73 192.057 71.8801 191.905 71.9892C191.753 72.0986 191.567 72.1619 191.374 72.1705Z" fill="#CE9C5C"/>
<path d="M338.568 113.569L339.248 117.588L336.692 119.684L304.701 146.022C302.918 147.47 300.55 147.038 299.424 145.007L287.486 123.53C286.385 121.52 286.994 118.798 288.823 117.48L325.738 91.1628C327.216 90.104 329.234 90.6875 330.242 92.4592L340.327 110.263L340.984 111.387C341.992 113.18 339.999 112.381 338.568 113.569Z" fill="#EFDCC4"/>
<path d="M306.272 148.507C304.514 148.485 302.988 147.535 302.121 145.979L290.183 124.502C288.777 121.974 289.528 118.668 291.873 116.983L328.788 90.6658C330.969 89.0669 333.994 90.0824 335.213 92.3511L345.767 110.954C345.845 111.094 345.891 111.245 345.904 111.401C345.917 111.556 345.898 111.713 345.845 111.861C345.794 112.01 345.71 112.147 345.599 112.266C345.491 112.385 345.355 112.483 345.205 112.553C342.742 114.649 333.783 91.8542 331.485 92.2863C331.289 92.2439 331.083 92.2451 330.887 92.2902C330.693 92.3353 330.51 92.4229 330.359 92.5455L293.444 118.862C292.082 119.835 291.638 121.909 292.482 123.422L304.396 144.899C305.099 146.173 306.53 146.541 307.68 145.568L339.669 119.23C339.795 119.126 339.941 119.047 340.101 118.996C340.261 118.945 340.429 118.924 340.597 118.934C340.766 118.944 340.93 118.985 341.081 119.054C341.231 119.124 341.366 119.22 341.475 119.338C341.593 119.451 341.685 119.584 341.742 119.73C341.801 119.877 341.827 120.033 341.818 120.188C341.81 120.344 341.766 120.497 341.692 120.636C341.616 120.776 341.511 120.901 341.382 121.002C339.787 121.693 307.985 150.019 306.272 148.507Z" fill="#452D34"/>
<path d="M307.726 125.042C308.877 127.138 308.336 129.968 306.459 131.394C304.585 132.82 302.051 132.302 300.878 130.163C299.706 128.024 300.293 125.172 302.215 123.767C304.139 122.363 306.554 122.968 307.726 125.042Z" fill="white"/>
<path d="M304.162 133.382C296.54 133.188 297.876 120.656 305.381 121.931C311.643 123.227 310.588 133.317 304.162 133.382ZM304.419 124.199C301.042 124.372 300.457 130.163 303.764 130.984C306.555 131.286 307.774 127.613 306.578 125.582C306.084 124.74 305.358 124.221 304.419 124.199Z" fill="#452D34"/>
<path d="M314.317 120.051C314.809 120.937 314.597 122.104 313.824 122.687C313.05 123.27 311.995 123.033 311.502 122.147C311.01 121.261 311.244 120.073 312.018 119.511C312.791 118.949 313.824 119.165 314.317 120.051Z" fill="white"/>
<path d="M312.887 124.199C308.666 124.134 309.298 117.328 313.497 118.063C316.945 118.733 316.452 124.199 312.887 124.199ZM312.933 120.375C312.465 120.505 312.371 121.563 312.865 121.823C313.356 121.715 313.474 120.613 312.933 120.375Z" fill="#452D34"/>
<path d="M278.317 117.242C279.559 112.921 275.877 109.572 271.187 110.738C275.877 109.572 277.214 104.969 273.766 101.793C277.214 104.969 282.209 103.716 283.453 99.3734C282.209 103.716 285.868 107.065 290.558 105.898C285.868 107.065 284.531 111.667 287.979 114.822C284.531 111.667 279.559 112.921 278.317 117.242Z" fill="#CE9C5C"/>
<path d="M278.318 118.43C278.119 118.429 277.925 118.386 277.748 118.306C277.571 118.226 277.415 118.109 277.293 117.966C277.173 117.823 277.087 117.656 277.045 117.479C277.003 117.301 277.005 117.117 277.051 116.94C278.129 113.59 275.151 110.89 271.54 111.884C269.943 112.294 269.217 109.982 270.86 109.593C272.5 109.204 273.885 108.102 274.283 106.698C275.361 103.868 271.328 102.506 272.852 100.972C274.376 99.4382 276.041 103.263 279.091 102.247C282.35 101.642 281.554 97.796 283.781 98.2283C286.01 98.6604 283.194 101.901 285.68 103.868C287.862 106.158 291.098 103.587 291.803 105.596C291.889 105.9 291.841 106.222 291.67 106.494C291.498 106.765 291.216 106.963 290.889 107.044C287.229 107.865 286.151 111.603 288.894 113.979C290.09 115.06 288.262 116.788 287.088 115.665C285.917 114.541 284.156 114.001 282.655 114.368C279.466 115.038 280.24 118.344 278.318 118.43ZM275.432 109.68C276.357 109.974 277.199 110.457 277.895 111.093C278.588 111.729 279.118 112.502 279.443 113.353C280.175 112.757 281.047 112.324 281.99 112.088C282.935 111.852 283.924 111.819 284.884 111.992C284.696 111.108 284.726 110.195 284.974 109.324C285.221 108.452 285.68 107.643 286.315 106.957C285.395 106.659 284.558 106.174 283.867 105.538C283.177 104.903 282.651 104.132 282.328 103.284C281.587 103.875 280.71 104.304 279.763 104.54C278.819 104.775 277.826 104.811 276.862 104.645C277.056 105.529 277.028 106.443 276.78 107.315C276.533 108.188 276.072 108.996 275.432 109.68Z" fill="#452D34"/>
<path d="M342.226 112.597C342.367 112.618 342.392 112.597 342.344 112.597H342.226Z" fill="#452D34"/>
<path d="M353.931 125.82C353.837 125.841 353.789 125.885 353.789 125.906L353.883 125.842L353.931 125.82Z" fill="#452D34"/>
<path d="M340.022 114.368V114.303H339.999L340.022 114.368Z" fill="#452D34"/>
<path d="M347.434 100.475C349.966 103.608 351.679 106.504 352.265 110.004V109.853C352.382 110.546 352.406 111.25 352.336 111.948C352.311 113.331 354.681 113.353 354.681 111.948C354.729 104.04 348.16 95.9595 340.679 92.4376C333.995 89.8663 332.612 94.7279 336.012 94.0797C339.765 92.8697 344.807 97.4288 347.434 100.475Z" fill="#452D34"/>
<path d="M264.127 151.683L258.218 133.166C261.451 135.085 263.828 138.011 264.914 141.411C266 144.811 265.72 148.457 264.127 151.683Z" fill="#CE9C5C"/>
<path d="M218.205 158.489C218.003 156.56 217.39 154.686 216.401 152.974C215.41 151.263 214.065 149.748 212.44 148.516C210.816 147.284 208.943 146.359 206.931 145.794C204.918 145.229 202.803 145.035 200.709 145.223C198.059 145.46 196.441 145.676 194.775 146.606C195.244 148.421 197.731 149.652 197.989 151.575C198.153 152.699 197.871 154.708 196.675 154.578C195.878 155.659 200.451 172.62 200.92 172.879C202.586 173.83 202.257 174.176 204.321 173.981C213.117 173.203 219.074 166.613 218.205 158.489Z" fill="#CE9C5C"/>
<path d="M262.86 133.339C258.427 92.2215 190.648 105.942 198.669 146.843C200.006 148.442 201.858 147.362 202.257 145.698C198.903 107.044 254.651 98.4658 262.86 133.339Z" fill="#D13535"/>
<path d="M269.827 144.056C269.408 140.008 267.325 136.26 264.011 133.577C264.03 133.499 264.039 133.419 264.034 133.339C259.999 91.0764 191.046 105.207 197.097 144.488C192.688 146.433 195.01 148.399 196.675 151.618C195.502 153.196 194.33 154.665 195.315 156.112C196.3 157.56 195.315 158.856 196.065 160.283C198.012 164.453 198.739 168.601 199.161 171.086C199.419 174.651 201.319 174.521 204.087 174.737C228.877 175.256 228.033 141.204 203.407 142.695C203.687 133.145 207.228 123.854 215.344 118.128C227.212 109.55 247.357 110.933 256.646 122.514C259.039 125.517 260.913 128.607 261.5 131.913C259.903 131.012 258.149 130.369 256.316 130.012C256.147 129.963 255.968 129.948 255.791 129.966C255.613 129.985 255.444 130.037 255.29 130.119C255.135 130.201 255.002 130.312 254.897 130.444C254.79 130.576 254.716 130.727 254.678 130.887C254.638 131.047 254.636 131.213 254.67 131.373C254.705 131.534 254.773 131.687 254.874 131.822C254.975 131.957 255.107 132.071 255.257 132.157C255.41 132.244 255.577 132.3 255.754 132.323C258.799 132.934 261.551 134.421 263.618 136.569C265.683 138.717 266.954 141.415 267.247 144.272C267.447 146.047 267.259 147.84 266.695 149.547C266.131 151.254 265.201 152.84 263.963 154.211C263.746 154.456 263.641 154.77 263.672 155.085C263.702 155.4 263.866 155.691 264.127 155.896C264.363 156.062 264.651 156.152 264.948 156.156C265.14 156.155 265.329 156.115 265.504 156.041C265.678 155.966 265.832 155.858 265.956 155.724C267.405 154.11 268.493 152.249 269.158 150.246C269.823 148.244 270.05 146.14 269.827 144.056ZM203.43 145.115C207.44 144.812 211.85 145.936 214.664 148.204C226.673 157.236 216.822 175.04 201.952 172.036C201.272 168.536 200.85 164.647 198.434 159.332C197.965 157.906 198.622 156.501 197.519 154.902C200.263 150.84 199.536 151.791 197.168 147.297C197.273 147.198 197.391 147.111 197.519 147.038C198.974 150.279 203.782 148.269 203.43 145.115ZM200.732 146.281H200.709C200.686 146.325 200.662 146.325 200.592 146.389C200.521 146.454 200.521 146.433 200.521 146.454C200.521 146.46 200.519 146.465 200.515 146.469C200.51 146.473 200.504 146.476 200.498 146.476C200.504 146.476 200.51 146.473 200.515 146.469C200.519 146.465 200.521 146.46 200.521 146.454C200.401 146.51 200.266 146.531 200.132 146.516C199.998 146.501 199.873 146.449 199.771 146.368C199.748 146.238 199.701 146.065 199.677 145.914C200.136 145.744 200.606 145.6 201.084 145.482C200.967 145.72 200.873 146.022 200.732 146.26C200.592 146.498 200.756 146.238 200.732 146.281ZM216.353 114.865C205.893 120.548 201.108 132.604 201.037 143.04C200.464 143.166 199.9 143.325 199.349 143.516C196.98 115.297 232.746 98.7035 254.84 117.588C244.591 109.464 228.29 107.865 216.353 114.865Z" fill="#452D34"/>
<path d="M200.521 146.455L200.593 146.389C200.577 146.389 200.553 146.411 200.521 146.455Z" fill="#452D34"/>
<path d="M256.411 196.885C256.387 196.95 256.387 197.036 256.364 197.122L256.482 196.388C256.375 197.094 256.169 197.783 255.87 198.44L256.152 197.792C255.817 198.533 255.375 199.231 254.84 199.866L255.308 199.305C254.546 200.196 253.664 200.995 252.681 201.681L253.268 201.27C251.477 202.502 249.521 203.519 247.452 204.296L248.155 204.015C243.77 205.721 239.102 206.693 234.41 207.299L235.186 207.19C230.589 207.731 225.922 207.969 221.325 207.45L222.098 207.536C220.738 207.364 219.353 207.125 218.088 206.628L218.791 206.909C215.227 204.166 210.935 208.378 214.734 211.014C220.27 213.803 227.07 213.218 233.145 212.808C242.69 211.706 253.643 209.805 259.953 202.524C266.401 194.314 257.255 191.527 256.411 196.885Z" fill="#D13535"/>
<path d="M336.294 145.158C347.714 142.37 352.429 141.593 368.564 136.364C369.052 136.204 369.566 136.135 370.083 136.16C370.599 136.186 371.104 136.306 371.568 136.513C372.033 136.72 372.449 137.01 372.792 137.367C373.133 137.723 373.395 138.139 373.561 138.589C374.944 142.349 374.405 148.507 371.871 150.365C366.478 154.384 345.228 159.461 339.389 156.912C336.997 155.875 330.992 146.454 336.294 145.158Z" fill="#D13535"/>
<path d="M109.64 220.305C110.718 221.019 111.07 222.725 111 223.331C110.959 223.536 110.904 223.738 110.836 223.936C110.837 223.919 110.846 223.903 110.859 223.892C110.851 223.901 110.844 223.912 110.84 223.922C110.836 223.935 110.835 223.945 110.836 223.957C110.789 224.043 110.789 224.043 110.789 224.001C110.743 224.099 110.688 224.192 110.625 224.282C106.872 227.264 101.079 220.76 100.587 216.309C100.477 215.549 100.461 214.78 100.54 214.019V214.084C100.68 212.989 101.124 211.948 101.83 211.058C102.288 210.523 102.834 210.056 103.448 209.675C104.761 208.984 103.565 207.104 102.275 207.817C95.028 212.095 98.3349 222.315 104.597 226.011C110.859 229.705 116.441 224.108 111.586 219.031C109.686 216.957 107.81 219.486 109.64 220.305Z" fill="#452D34"/>
<path d="M110.836 223.957L110.789 224.022L110.836 223.978V223.957Z" fill="#452D34"/>
<path d="M100.539 214.019C100.563 213.933 100.563 213.868 100.539 214.019V214.019Z" fill="#452D34"/>
<path d="M100.797 227.566C100.936 227.767 101.061 227.976 101.172 228.192C100.961 227.804 101.266 228.366 101.266 228.452C101.266 228.538 101.36 228.905 101.407 229.013V229.185C101.43 229.473 101.43 229.763 101.407 230.051C101.243 230.763 101.243 230.763 100.891 231.304C100.539 231.844 100.75 231.476 100.352 231.693C99.8676 231.836 99.3568 231.888 98.8505 231.844C97.8656 231.671 97.8656 231.649 97.0447 231.195L96.7866 231.023C93.0576 228.171 91.8614 222.574 93.5971 218.924C94.2537 217.713 94.8635 217.086 95.8486 216.46C96.282 216.197 96.746 215.979 97.2322 215.812C98.6865 215.423 98.0532 213.327 96.599 213.715C88.5311 216.33 89.1643 226.853 94.2303 231.8C99.2962 236.748 106.356 232.773 102.955 226.658C101.923 224.433 98.8975 225.751 100.797 227.566Z" fill="#452D34"/>
<path d="M116.769 216.611L116.91 216.439C117.003 216.416 117.168 216.33 117.027 216.374H116.957C116.277 216.569 115.549 216.546 114.353 216.439C112.524 216.244 109.663 215.293 108.208 213.478L108.326 213.587C107.953 213.159 107.646 212.687 107.411 212.181C107.599 212.527 107.434 212.225 107.388 212.116C107.194 211.65 107.061 211.165 106.989 210.668V210.626H106.965V210.54C106.879 209.793 106.887 209.038 106.989 208.292C107.012 208.097 106.989 208.357 106.989 208.378C107.059 207.429 107.974 205.895 106.496 205.484C106.198 205.416 105.883 205.458 105.617 205.598C105.351 205.739 105.153 205.969 105.066 206.241C102.72 213.047 108.208 218.75 115.667 218.685C120.615 218.966 119.044 214.645 116.769 216.611Z" fill="#452D34"/>
<path d="M106.989 210.692C107.012 210.518 106.966 210.496 106.966 210.562C106.962 210.599 106.97 210.637 106.989 210.671V210.692Z" fill="#452D34"/>
<path d="M210.818 287.567C210.56 286.293 210.419 282.534 210.724 281.128C211.029 279.724 208.8 279.206 208.45 280.546C207.253 289.879 211.404 298.933 214.711 307.576C215.626 309.887 216.565 312.199 217.455 314.533C217.542 314.803 217.74 315.033 218.007 315.175C218.274 315.316 218.588 315.356 218.885 315.289C219.472 315.116 219.918 314.533 219.706 313.948C216.47 305.263 212.248 296.728 210.818 287.567Z" fill="#452D34"/>
<path d="M249.938 170.459C246.044 170.459 243.558 167.348 242.644 165.922C242.472 165.661 242.381 165.362 242.381 165.058C242.381 164.753 242.472 164.454 242.644 164.193C242.821 163.935 243.072 163.725 243.37 163.588C243.669 163.451 244 163.392 244.332 163.416L245.387 163.523C248.37 163.785 251.372 163.284 254.066 162.076L255.051 161.644C255.344 161.507 255.672 161.449 256 161.475C256.327 161.502 256.64 161.613 256.903 161.795C257.164 161.98 257.368 162.225 257.489 162.506C257.613 162.787 257.653 163.094 257.608 163.394C257.255 165.252 255.941 169.638 251.087 170.373C250.708 170.433 250.323 170.462 249.938 170.459ZM245.787 165.922C246.888 167.154 248.53 168.363 250.664 168.039C252.799 167.715 254.112 165.965 254.676 164.431C251.885 165.579 248.837 166.091 245.787 165.922Z" fill="#452D34"/>
<path d="M231.854 146.195L231.715 146.152C229.884 146.065 228.501 148.096 229.345 149.587C230.189 151.078 233.146 151.51 234.06 149.739C234.975 147.967 233.403 146.13 231.854 146.195Z" fill="#452D34"/>
<path d="M254.395 140.556L253.855 140.469C248.413 140.966 252.425 147.988 255.966 144.272C257.349 142.716 255.896 140.793 254.395 140.556Z" fill="#452D34"/>
<path d="M233.691 140.412C231.628 140.724 220.984 142.524 221.64 144.895C221.717 145.08 221.842 145.245 222.005 145.374C222.168 145.503 222.365 145.592 222.575 145.634C222.715 145.727 222.879 145.788 223.05 145.811C223.223 145.833 223.398 145.817 223.561 145.765C227.129 144.832 230.667 143.75 234.127 142.51C235.38 142.149 235.012 140.304 233.691 140.412Z" fill="#452D34"/>
<path d="M257.192 137.564C257.196 137.521 257.224 137.458 257.229 137.393C257.255 136.832 256.812 136.236 256.155 136.231C255.496 136.226 249.745 136.346 247.153 137.218L247.128 137.216C245.65 137.715 245.119 138.413 246.942 139.37C250.075 139.34 253.211 139.244 256.319 138.952C257.13 138.838 257.377 138.141 257.192 137.564Z" fill="#452D34"/>
<path d="M244.027 145.914C245.81 148.356 245.833 150.603 249.679 151.51C249.953 151.597 250.208 151.728 250.429 151.899C250.218 151.618 250.57 152.137 250.664 152.137C250.759 152.137 250.525 151.921 250.641 152.115L250.759 152.31C250.734 152.31 250.664 152.05 250.734 152.266C250.776 152.379 250.809 152.495 250.829 152.612C250.875 152.763 250.829 152.396 250.829 152.547V153.066C250.852 152.936 250.852 152.893 250.829 152.979C250.786 153.33 250.629 153.661 250.384 153.93L250.454 153.844C250.454 153.952 249.727 154.47 249.961 154.297C249.658 154.514 249.326 154.695 248.976 154.838H249.046C247.452 155.14 247.898 157.344 249.492 156.977C254.276 155.551 254.464 150.062 249.281 149.09C248.993 148.98 248.717 148.842 248.46 148.68L248.578 148.744C247.381 147.859 247.052 145.72 245.692 144.423C244.332 143.127 242.971 144.942 244.027 145.936V145.914Z" fill="#452D34"/>
<path d="M212.787 177.071C211.966 175.883 211.686 172.123 209.785 172.49C209.223 172.663 208.755 173.247 208.964 173.808C211.662 180.766 214.969 187.529 217.079 194.659C217.455 196.02 219.729 195.458 219.331 194.098C217.666 188.262 215.039 182.71 212.787 177.071Z" fill="#452D34"/>
<path d="M251.064 195.567C251.148 195.819 251.322 196.039 251.556 196.193C252.002 197.769 252.049 200.73 253.901 200.407C255.802 199.607 253.831 197.036 253.76 195.632C253.76 193.708 250.712 193.492 251.064 195.567ZM251.345 195.632L251.44 195.825C251.398 195.765 251.367 195.7 251.345 195.632Z" fill="#452D34"/>
<path d="M225.922 204.273C225.836 203.648 225.844 203.017 225.945 202.394C226.977 200.017 224.725 199.261 223.927 200.816C223.131 202.373 222.99 207.385 225.592 207.213C227.305 206.651 225.874 204.9 225.922 204.273Z" fill="#452D34"/>
<path d="M238.516 199.521C238.725 200.133 238.874 200.763 238.962 201.4C238.939 201.314 238.939 201.205 238.914 201.119C239.173 202.113 238.539 203.971 240.204 204.057C242.455 203.669 241.002 200.342 240.768 198.936C240.533 197.532 238.093 198.159 238.516 199.521Z" fill="#452D34"/>
<path d="M340.445 145.352C340.245 145.248 340.014 145.201 339.786 145.216C339.557 145.23 339.336 145.307 339.155 145.436C338.972 145.565 338.835 145.74 338.759 145.941C338.685 146.141 338.675 146.357 338.732 146.562C339.155 147.988 339.296 150.365 340.75 151.121C342.296 151.359 342.392 149.933 342.039 149.479C341.241 148.269 341.477 146.217 340.445 145.352Z" fill="#452D34"/>
<path d="M351.303 143.386C352.006 144.574 351.796 147.859 353.837 147.578C355.806 146.757 353.673 144.207 353.555 142.803C353.437 141.398 350.88 142.025 351.303 143.386Z" fill="#452D34"/>
<path d="M363.242 139.518C363.015 139.467 362.779 139.477 362.56 139.548C362.339 139.618 362.149 139.746 362.006 139.916C361.865 140.085 361.779 140.289 361.762 140.503C361.743 140.716 361.792 140.93 361.905 141.117C362.187 141.701 362.373 142.111 362.701 142.868C363.031 143.624 363.242 145.914 364.907 145.59C365.469 145.417 365.915 144.834 365.703 144.272C365 142.889 364.673 140.275 363.242 139.518Z" fill="#452D34"/>
<path d="M335.73 152.504C335.543 152.244 335.659 152.44 335.73 152.504V152.504Z" fill="#452D34"/>
<path d="M375.929 174.219C375.108 165.447 373.256 156.761 370.723 148.269C374.03 143.905 374.194 131.891 366.078 133.058L365.423 133.253C364.391 130.919 359.394 119.1 356.439 115.449L356.346 115.492C355.384 114.152 353.93 114.757 354.165 116.032C355.268 118.863 356.557 123.616 353.93 125.82H353.953C353.907 125.82 353.812 125.906 353.789 125.906C353.511 126.087 353.212 126.239 352.898 126.36H352.968C347.903 128.024 339.178 118.949 340.092 114.282L340.374 113.85C340.609 113.572 340.877 113.318 341.171 113.094L341.077 113.18C341.412 112.918 341.805 112.726 342.226 112.618H342.203C344.782 112.597 346.706 113.915 348.442 115.773C348.794 116.378 349.545 116.961 350.318 116.507C353.227 113.612 340.092 106.396 337.77 113.871C336.528 124.48 356.628 136.018 357.799 122.406C359.817 126.187 361.575 130.012 363.194 133.944C363.194 133.947 363.194 133.95 363.196 133.952C363.198 133.955 363.198 133.957 363.202 133.959C363.204 133.961 363.206 133.963 363.21 133.964C363.211 133.965 363.215 133.966 363.217 133.966C357.519 135.737 351.82 137.531 346.004 138.957C342.251 139.886 338.498 140.75 334.745 141.658C333.949 139 331.133 128.261 328.295 129.428C327.78 129.731 327.521 130.401 327.874 130.897C329.821 133.728 330.617 136.213 331.602 139.216C332.025 139.929 332.048 141.312 332.448 142.284C331.392 142.803 330.405 144.013 330.36 144.92C330.101 148.615 332.211 152.591 335.191 155.097C336.833 164.582 338.334 175.515 338.662 184.46C322.62 186.686 306.437 188.566 291.004 193.534C286.408 194.766 282.045 196.862 277.237 197.316C272.312 197.402 263.729 198.245 260.633 194.075C258.686 190.747 257.817 185.519 252.47 186.276C252.495 185.756 252.213 184.871 252.19 184.244C273.907 176.163 267.247 154.859 259.741 135.564C261.288 135.305 263.048 134.765 262.86 133.339C257.162 89.2614 193.274 97.9041 184.831 129.882C190.319 133.879 194.517 142.435 195.901 152.223C196.065 153.39 193.392 153.217 194.048 154.233C193.884 155.464 192.969 157.647 196.933 156.977C196.276 154.643 195.62 154.881 197.918 152.05C198.598 151.143 195.057 147.448 195.924 146.713C202.187 141.55 213.726 143.861 218.205 149.933C226.227 147.945 225.171 143.71 224.421 139.972C223.647 132.648 227.189 123.659 235.138 128.694C236.007 129.579 236.944 129.688 237.32 128.542C238.609 126.036 243.301 123.465 245.201 125.669C248.226 129.234 252.775 136.45 257.396 135.932C266.051 154.967 272.29 185.217 239.43 183.402C238.282 183.423 236.241 182.689 236.123 184.309C236.357 186.772 247.687 185.303 249.843 184.849C249.913 185.433 250.079 186.037 250.173 186.621C240.04 189.58 229.791 192.866 219.19 193.903H219.144C218.98 193.924 219.003 193.838 219.144 193.88C216.822 192.736 214.804 194.184 214.593 196.474C213.772 199.651 213.351 202.804 212.998 206.176C211.661 219.463 200.099 212.873 191.914 212.311C190.46 211.944 189.803 214.061 191.281 214.386C207.956 217.108 212.154 217.411 214.077 212.116C217.267 214.04 226.789 215.163 228.642 215.121C233.195 215.231 237.735 214.647 242.08 213.392C248.344 211.793 262.227 205.181 262.109 198.052C263.298 198.636 264.611 198.975 265.955 199.045C272.594 200.017 279.513 199.931 285.75 197.446C302.215 191.871 319.454 188.847 336.856 187.032C337.515 186.988 338.166 186.888 338.803 186.729C338.78 188.673 338.803 190.986 340.21 191.028C340.795 191.007 341.453 190.553 341.382 189.949C341.171 188.199 341.148 186.448 341.054 184.698C341.121 184.251 341.098 183.797 340.984 183.359C340.936 182.365 339.601 163.135 337.629 156.156C345.487 157.711 361.529 153.93 368.683 149.76C373.396 167.218 377.712 186.858 369.456 203.863C363.57 213.996 352.006 220.997 340.75 225.34C330.337 229.403 318.116 232.039 307.492 233.357C304.701 233.703 301.888 233.984 299.072 234.135C297.571 234.135 297.525 236.339 299.072 236.295L299.823 236.251C304.678 256.021 319.665 313.475 335.027 323.975C336.317 324.666 337.536 322.808 336.199 322.116C335.833 321.948 335.488 321.746 335.168 321.511C333.244 320.086 330.992 316.974 329.398 314.231C319.242 295.907 313.285 275.879 307.351 256.13C305.452 249.475 303.694 242.799 302.145 236.058C317.766 234.675 333.362 231.304 347.457 224.865C371.005 214.235 378.627 197.662 375.929 174.219ZM245.364 210C236.357 213.694 224.373 214.019 215.414 210.323C215.174 210.202 214.924 210.102 214.663 210.021C215.414 206.779 215.883 202.134 217.29 195.674L217.643 195.632C220.175 196.734 223.202 195.523 225.829 195.156C232.277 193.859 238.657 192.26 244.966 190.49C250.009 189.322 255.004 185.605 257.137 192.239C257.473 193.206 257.947 194.129 258.545 194.982C258.564 195.117 258.612 195.247 258.69 195.361C258.766 195.477 258.869 195.577 258.991 195.653L259.177 195.783L259.343 195.977V196.019L259.389 196.063L259.53 196.279C259.614 196.504 259.677 196.736 259.718 196.971C260.258 202.545 251.978 207.343 245.364 210ZM369.574 145.828C368.237 149.868 351.983 153.368 346.167 154.081C343.822 154.341 339.601 154.751 337.183 153.844L337.324 153.887L337.183 153.822L336.949 153.693C336.501 153.334 336.094 152.936 335.73 152.504H335.753C333.642 150.127 332.143 146.238 332.752 144.942C332.83 144.721 332.977 144.526 333.173 144.38H333.103L333.198 144.337C333.191 144.337 333.185 144.339 333.181 144.343C333.177 144.347 333.173 144.353 333.173 144.358L333.267 144.294L333.455 144.186L333.573 144.142C333.693 144.12 333.812 144.083 333.924 144.034C344.923 141.506 355.83 138.698 366.479 135.132C366.816 135.061 367.164 135.039 367.509 135.068L368.189 135.24C368.193 135.24 368.197 135.241 368.199 135.242C368.203 135.243 368.204 135.245 368.206 135.247C368.208 135.249 368.21 135.251 368.212 135.254C368.212 135.256 368.214 135.259 368.214 135.262C368.26 135.284 368.307 135.305 368.307 135.284C368.484 135.369 368.656 135.463 368.824 135.564L368.869 135.608C369.039 135.748 369.195 135.9 369.34 136.062H369.363C369.492 136.219 369.595 136.394 369.667 136.58C369.967 137.334 370.17 138.117 370.277 138.914C370.652 141.355 370.277 144.229 369.574 145.828Z" fill="#452D34"/>
<path d="M217.783 146.325C219.847 146.389 222.38 144.423 221.675 142.435C220.831 141.29 219.448 142.133 219.353 143.3L219.471 143.041C219.382 143.248 219.264 143.445 219.119 143.624L219.307 143.408C219.136 143.602 218.938 143.776 218.721 143.926L218.955 143.753C218.753 143.901 218.534 144.024 218.298 144.121L218.58 144.013C218.353 144.096 218.117 144.154 217.877 144.186L218.204 144.142C216.446 143.883 215.977 146.173 217.783 146.325Z" fill="white"/>
<path d="M220.645 136.105C220.837 134.685 221.239 133.297 221.841 131.978C222.422 130.773 223.154 129.634 224.023 128.585C224.327 128.153 226.179 126.425 226.577 126.187C227.172 125.759 227.817 125.396 228.501 125.107C228.29 125.193 228.454 125.128 228.501 125.128C228.998 124.931 229.532 124.822 230.073 124.804C231.574 124.804 231.574 122.622 230.073 122.644C223.247 123.4 219.051 130.336 218.3 136.105C218.275 137.487 220.62 137.509 220.645 136.105Z" fill="white"/>
<path d="M226.648 107.735L227.564 107.584L227.259 107.627C228.337 107.325 229.697 107.973 230.635 107.303C230.76 107.186 230.854 107.045 230.911 106.89C230.968 106.735 230.985 106.57 230.962 106.408C230.94 106.245 230.879 106.09 230.781 105.953C230.682 105.816 230.553 105.702 230.4 105.617C229.017 105.185 227.446 105.401 226.038 105.661C224.632 105.92 225.194 108.102 226.648 107.735Z" fill="white"/>
<path d="M242.879 123.119C243.111 123.031 243.357 122.973 243.607 122.946L243.302 122.989C243.58 122.946 243.866 122.946 244.146 122.989L243.841 122.946C244.066 122.966 244.289 123.017 244.496 123.097C244.614 123.119 244.826 123.249 244.473 123.076C245.108 123.378 244.942 123.27 245.388 123.681C245.458 123.746 245.529 123.897 245.342 123.616C245.974 125.129 248.344 124.308 247.569 122.817C246.795 121.326 243.254 119.943 241.566 121.542C241.025 122.32 241.917 123.422 242.879 123.119Z" fill="white"/>
<path d="M89.9384 161.968C89.9333 161.888 89.9411 161.808 89.9618 161.73V161.881C89.9988 161.653 90.0616 161.428 90.1495 161.212C90.9 159.656 92.7058 158.532 94.3711 157.301C95.6376 156.372 97.8657 154.967 99.695 154.254C100.047 154.06 102.369 153.476 102.721 153.476C103.584 153.372 104.458 153.365 105.324 153.455C106.262 153.606 107.693 154.211 108.091 152.979C108.068 149.695 99.1321 151.726 97.3027 152.936C93.6909 155.14 88.2262 157.625 87.6164 161.968C87.593 163.351 89.9384 163.372 89.9618 161.968H89.9384Z" fill="#452D34"/>
<path d="M140.738 169.184C139.214 168.255 136.962 169.574 137.127 171.216C137.291 172.858 139.706 174.176 141.208 172.901C142.708 171.626 142.005 169.768 140.738 169.184Z" fill="#452D34"/>
<path d="M173.902 169.833C172.378 168.904 170.15 170.2 170.291 171.864C170.431 173.527 172.894 174.824 174.371 173.527C175.849 172.231 175.192 170.416 173.902 169.833Z" fill="#452D34"/>
<path d="M181.172 180.118C181.735 181.803 176.833 183.747 179.038 183.704C179.65 183.701 180.259 183.614 180.844 183.445C183.705 182.624 185.441 180.226 184.714 178.108C183.986 175.991 181.102 174.91 178.24 175.731C176.853 176.098 175.655 176.91 174.863 178.022C174.23 178.972 180.844 179.102 181.172 180.118Z" fill="#D13535"/>
<path d="M139.351 180.603C140.023 178.459 138.236 176.101 135.362 175.337C132.487 174.572 129.612 175.69 128.94 177.834C128.269 179.978 130.054 182.336 132.929 183.101C135.804 183.865 138.679 182.747 139.351 180.603Z" fill="#D13535"/>
<path d="M162.387 187.636C149.464 188.09 153.568 176.812 159.455 177.611C166.608 178.562 173.761 180.074 179.672 181.392C181.267 181.738 181.243 183.834 179.625 184.158L162.387 187.636Z" fill="#CE9C5C"/>
<path d="M180 178.151C173.597 176.725 166.725 175.278 159.665 174.327C157.555 174.046 155.444 174.932 154.037 176.704C152.629 178.475 152.16 181.111 153.169 183.034C153.849 184.331 155.725 186.513 160.862 186.728H161.307C162.136 186.727 162.962 186.641 163.77 186.471L179.929 183.229C180.558 183.105 181.122 182.787 181.528 182.327C181.933 181.867 182.155 181.293 182.157 180.701C182.178 180.111 181.973 179.532 181.579 179.067C181.184 178.601 180.626 178.277 180 178.151ZM162.925 178.972V179.016V178.972ZM163.207 184.158C162.476 184.306 161.727 184.371 160.979 184.352C158.164 184.223 156.218 183.402 155.491 182.019C154.764 180.636 155.139 179.34 156.101 178.108C157.062 176.876 157.883 176.66 158.892 176.66H159.29L161.073 176.92C159.337 181.241 163.301 181.306 162.925 178.994C162.949 179.08 162.949 179.145 162.972 179.232C162.953 179.132 162.945 179.031 162.949 178.929C163.195 178.406 163.361 177.853 163.441 177.287C167.147 177.87 170.806 178.583 174.324 179.34V179.512L174.253 179.729C174.223 179.798 174.184 179.863 174.136 179.923C173.222 180.982 173.831 181.76 174.676 181.825L168.601 183.056C168.976 181.781 169.563 180.334 168.202 179.772C166.115 179.534 166.655 182.3 166.115 183.553L163.207 184.158ZM179.39 180.895L175.496 181.673C175.942 181.457 176.341 181.025 176.528 180.312C176.594 180.166 176.641 180.014 176.669 179.858L179.39 180.463C179.46 180.463 179.577 180.506 179.577 180.679C179.581 180.705 179.578 180.731 179.571 180.756C179.563 180.78 179.55 180.803 179.533 180.823C179.515 180.843 179.494 180.86 179.469 180.873C179.444 180.885 179.418 180.893 179.39 180.895Z" fill="#452D34"/>
<path d="M54.7583 188.782C53.1166 189.452 51.6859 190.489 49.9973 191.051C46.9249 192.088 43.3835 191.267 40.6863 189.538C37.9892 187.81 36.0895 185.26 34.4946 182.624C28.8889 173.218 27.0619 162.293 29.3349 151.77C30.7421 145.309 34.0256 138.806 40.1001 135.327C46.1744 131.848 55.3447 132.561 59.1676 138.136C62.9906 143.71 59.9416 151.618 59.449 158.424C59.4113 158.809 59.4627 159.197 59.6002 159.562C59.7378 159.927 59.958 160.261 60.2464 160.542C62.0758 162.27 64.7965 160.196 67.1886 159.483C71.5979 158.144 76.1244 162.378 76.3355 166.635C76.5465 170.891 73.826 174.781 70.9413 178.108C68.9433 180.427 66.7973 182.635 64.5149 184.72C62.1226 186.858 61.6068 186.081 58.2764 186.362C57.948 186.383 55.0399 188.673 54.7583 188.782Z" fill="#D13535"/>
<path d="M89.3518 227.89C79.3138 220.305 65.5231 199.909 61.3953 188.111C61.2782 187.615 61.2077 187.355 61.1608 187.118C65.2417 186.232 68.3375 184.309 71.5038 180.895C75.8895 176.272 81.2134 171.194 81.3074 164.69C81.4011 158.187 73.8725 153.412 67.3761 157.431C67.118 157.539 66.0392 157.863 65.5701 157.798L65.3591 157.755H65.2886L65.2183 157.711L65.0072 157.603C65.0072 157.582 65.0072 157.582 64.9838 157.582L64.7727 157.366C64.6855 157.268 64.6144 157.159 64.5616 157.042C64.5616 157.036 64.5592 157.03 64.5548 157.026C64.5504 157.022 64.5443 157.02 64.5382 157.02C64.5443 157.02 64.5504 157.022 64.5548 157.026C64.5592 157.03 64.5616 157.036 64.5616 157.042H64.5382C64.5392 157.03 64.5376 157.018 64.5336 157.007C64.5296 156.996 64.5232 156.986 64.5148 156.977C64.446 156.849 64.406 156.709 64.3974 156.566C64.4075 156.602 64.4153 156.638 64.4209 156.674C64.3506 155.68 64.5616 154.686 64.6788 153.693C66.3205 145.612 68.572 133.858 57.0331 130.509C31.9379 125.366 26.9423 158.208 33.9315 174.046C36.8631 181.997 44.0633 193.319 54.8753 189.517C56.2825 188.954 57.5255 188.134 58.8859 187.55H58.9796C61.2311 196.95 67.6575 205.203 73.0517 213.327C77.2733 218.945 81.5184 224.779 87.2411 229.186C88.7186 230.742 91.017 229.424 89.3518 227.89ZM53.7731 187.573C53.1936 187.796 52.5874 187.955 51.9671 188.047C51.2966 188.111 50.6207 188.111 49.9501 188.047C49.9032 188.047 49.4811 188.004 49.7859 188.047C48.9155 187.897 48.0603 187.682 47.2296 187.399C46.2923 187.018 45.4099 186.532 44.6028 185.951C41.4601 183.747 38.7159 179.124 37.1445 175.667C35.4972 172.019 34.3624 168.192 33.7673 164.28C32.618 155.032 33.7205 145.525 39.6776 137.984C40.2169 137.25 42.3278 135.284 43.0313 134.852C45.0943 133.337 47.5685 132.373 50.1846 132.064C52.6943 131.74 55.5321 132.151 57.2676 132.842C60.0115 133.966 61.5596 135.348 62.7791 137.855C63.9987 140.361 63.8814 144.402 63.4358 147.016C62.9902 150.084 62.2396 153.152 62.052 156.264C62.1459 160.11 66.2737 160.715 69.3226 158.986C70.425 158.511 70.9409 158.208 72.1371 157.992C72.5044 157.967 72.8735 157.975 73.2393 158.014C74.412 158.208 74.9281 158.446 75.9835 159.137L76.3351 159.418C76.6401 159.699 76.9449 159.98 77.2265 160.283C77.5078 160.585 77.2499 160.326 77.2733 160.347C77.734 160.896 78.1127 161.499 78.3992 162.141V162.076C78.4929 162.378 78.6571 162.724 78.7274 163.048C78.7979 163.372 78.8448 163.502 78.8916 163.718V163.74C79.1261 165.728 78.7508 167.24 77.93 169.163C75.4205 174.024 70.8236 178.778 66.1329 182.71C64.2972 183.985 62.1446 184.817 59.871 185.13C59.3052 185.108 58.7421 185.212 58.2292 185.433L57.9477 185.519C56.6109 186.06 54.8284 187.183 53.7731 187.573Z" fill="#452D34"/>
<path d="M64.5395 156.999C64.5156 156.912 64.5156 156.912 64.5156 156.934C64.5242 156.943 64.5308 156.953 64.535 156.964C64.5391 156.976 64.5407 156.988 64.5395 156.999Z" fill="#452D34"/>
<path d="M260.187 240.293C260.89 241.804 261.149 243.468 261.946 244.938C263.399 247.639 266.567 249.301 269.827 249.756C273.086 250.21 276.37 249.584 279.489 248.675C290.586 245.424 300.084 238.677 306.321 229.619C310.119 224.043 312.605 217.237 310.822 210.863C309.041 204.489 301.84 199.196 294.921 200.795C288.002 202.394 284.25 210.065 279.537 215.316C279.268 215.614 278.936 215.858 278.561 216.033C278.186 216.207 277.774 216.309 277.355 216.33C274.728 216.416 274.33 213.197 273.134 211.144C270.928 207.406 264.502 207.58 261.149 210.518C257.795 213.457 256.858 218.015 256.457 222.273C256.164 225.217 256.071 228.176 256.177 231.132C256.294 234.199 257.256 233.961 259.46 236.274C259.694 236.511 260.069 240.012 260.187 240.293Z" fill="#D13535"/>
<path d="M197.449 256.907C196.939 256.277 196.506 255.595 196.159 254.877C195.362 253.083 194.963 250.145 196.183 247.595L196.136 247.702C196.369 247.176 196.668 246.676 197.027 246.212C197.801 245.024 195.761 243.922 194.987 245.11C191.797 249.519 192.665 256 196.91 259.543C197.989 260.537 199.654 259.003 198.575 258.01C198.164 257.674 197.787 257.306 197.449 256.907Z" fill="#452D34"/>
<path d="M270.976 206.672C271.093 206.889 271.023 206.737 270.976 206.672V206.672Z" fill="#452D34"/>
<path d="M309.253 203.324C306.203 198.613 300.034 195.242 294.007 196.646C287.979 198.052 283.71 203.863 280.474 207.752C279.418 208.898 278.247 210.605 277.121 211.144C276.816 211.253 276.136 211.318 275.784 211.037C275.431 210.756 275.245 210.496 274.915 209.826C273.461 202.762 265.862 200.709 259.905 204.944C253.339 209.589 250.946 229.445 256.412 235.063C242.526 245.672 219.074 250.793 201.225 250.21C197.989 249.54 197.731 251.937 199.654 252.283C220.011 253.039 240.486 248.417 257.326 237.353C267.223 265.205 325.154 225.016 309.253 203.324ZM307.399 220.305C302.918 229.749 293.304 237.722 282.96 241.718C276.932 243.857 268.819 246.514 262.978 242.474C262.392 242.108 261.008 240.725 260.608 239.666C260.094 239.04 259.976 236.576 259.248 235.258C258.522 233.94 257.419 232.946 256.762 231.283C254.606 225.556 256.107 216.72 258.263 210.712C259.109 208.898 260.845 206.392 263.354 205.505L263.235 205.57C263.954 205.279 264.712 205.082 265.487 204.988L265.346 205.03C265.826 204.954 266.316 204.931 266.802 204.965C266.965 204.923 267.903 205.095 267.411 204.988C267.971 205.07 268.522 205.209 269.053 205.398C269.053 205.391 269.049 205.386 269.046 205.382C269.042 205.379 269.036 205.375 269.029 205.375C269.469 205.57 269.892 205.793 270.295 206.046L270.202 206.002C270.488 206.197 270.747 206.421 270.975 206.672H270.953C271.175 206.939 271.364 207.229 271.515 207.536C271.562 207.624 271.703 208.011 271.585 207.666C275.151 218.599 280.287 211.858 284.836 206.046C287.229 202.955 291.639 198.871 295.579 198.569C302.404 197.771 308.525 203.734 309.275 209.633C309.767 213.543 308.923 216.85 307.399 220.305Z" fill="#452D34"/>
<path d="M269.053 205.398C269.311 205.504 269.146 205.419 269.053 205.398V205.398Z" fill="#452D34"/>
<path d="M180.656 124.913C170.829 111.711 134.312 111.041 122.632 114.585C94.1601 123.227 92.1899 142.219 92.3541 146.994C92.3541 146.994 100.657 138.503 105.253 135.629C109.85 132.756 116.019 128.737 123.899 126.468C131.779 124.199 143.013 121.844 151.926 121.369C167.827 120.505 180.656 124.913 180.656 124.913Z" fill="#D13535"/>
<path d="M204.133 292.904C223.177 266.869 216.165 228.301 188.491 209.719C202.68 195.307 206.76 171.777 195.902 154.816C201.015 105.51 94.5362 98.8979 91.9798 149.976C87.3126 155.918 83.3725 174.629 94.4893 174.565C91.6749 219.312 153.193 244.008 186.708 211.469C236.053 244.83 208.591 319.847 147.353 319.005C96.7174 320.107 64.7738 264.772 92.7302 226.248C92.9139 225.981 92.9748 225.658 92.9002 225.351C92.8253 225.042 92.6209 224.775 92.3317 224.605C92.0423 224.436 91.692 224.38 91.3579 224.449C91.0235 224.517 90.7326 224.707 90.5492 224.973C76.7351 244.959 76.055 271.946 89.7752 291.802C74.3428 305.349 66.0638 323.327 65.8528 343.875C65.8495 344.031 65.8808 344.187 65.9444 344.333C66.008 344.478 66.1031 344.61 66.2235 344.721C66.3439 344.833 66.4873 344.919 66.6452 344.979C66.8032 345.036 66.9723 345.066 67.1426 345.063C67.4808 345.063 67.8054 344.94 68.0466 344.722C68.2877 344.505 68.4264 344.208 68.4325 343.896C68.6436 324.17 76.524 306.885 91.2058 293.833C115.738 329.679 177.327 330.284 202.657 294.914C216.87 308.396 224.562 326.265 224.351 345.365C224.351 345.681 224.486 345.982 224.728 346.205C224.97 346.428 225.3 346.553 225.641 346.553C225.808 346.556 225.976 346.528 226.132 346.47C226.288 346.414 226.431 346.328 226.551 346.219C226.671 346.111 226.766 345.981 226.831 345.839C226.898 345.695 226.93 345.542 226.93 345.388C227.165 325.488 219.074 306.885 204.133 292.904ZM101.15 132.518C118.553 112.834 155.163 112.705 177.139 125.431C148.268 118.755 114.612 126.446 94.4893 147.146C95.0522 142.414 97.5148 136.753 101.15 132.518ZM91.9798 171.885C89.0481 169.4 89.6344 165.144 89.9628 161.838C91.2058 149.501 103.167 141.571 113.744 135.5C138.347 122.622 193.861 114.908 194.682 152.958C182.322 151.208 169.822 144.207 156.5 145.288C136.752 146.087 118.271 155.097 104.692 168.018C101.267 170.243 95.7323 173.959 91.9798 171.885ZM148.245 224.022C119.608 224.605 94.9583 200.47 97.0927 174.197C101.432 173.117 106.24 170.027 109.312 167.175C136.87 142.198 164.685 145.331 193.111 155.118C212.601 184.676 185.371 225.059 148.245 224.022Z" fill="#452D34"/>
<path d="M150.167 251.83C149.885 261.142 134.852 261.012 134.781 251.7C134.711 242.388 150.097 242.518 150.167 251.83Z" fill="#CE9C5C"/>
<path d="M149.745 288.41C149.487 297.724 134.43 297.594 134.359 288.28C134.641 278.968 149.698 279.098 149.745 288.41Z" fill="#CE9C5C"/>
<path d="M139.636 259.263C127.722 258.982 127.816 242.864 139.73 242.711C151.503 243.08 151.433 259.003 139.636 259.263ZM139.636 245.089C131.263 245.196 131.193 256.67 139.566 256.886C143.013 256.972 146.086 254.206 146.039 251.03C146.156 247.855 143.107 245.024 139.636 245.089Z" fill="#452D34"/>
<path d="M139.238 295.842C131.405 296.06 127.206 286.53 132.952 281.648C138.323 276.483 148.526 280.46 148.221 287.653C148.19 289.831 147.23 291.911 145.55 293.443C143.869 294.975 141.602 295.837 139.238 295.842ZM139.238 281.669C130.865 281.778 130.795 293.271 139.168 293.466C147.54 293.661 147.681 281.799 139.238 281.669Z" fill="#452D34"/>
</g>
<defs>
<clipPath id="clip0_359_9295">
<rect width="393" height="394.103" fill="white"/>
</clipPath>
</defs>
</svg>
