<svg width="428" height="421" viewBox="0 0 428 421" fill="none" xmlns="http://www.w3.org/2000/svg">
<g clip-path="url(#clip0_359_9187)">
<path d="M58.6422 270.599C30.5722 189.23 -1.57651 101.159 80.575 72.8194C162.727 44.4794 319.898 -2.77778 347.968 78.5912C376.038 159.96 396.291 321.525 314.14 349.865C231.988 378.205 86.7123 351.968 58.6422 270.599Z" fill="white"/>
<path d="M131.124 115.369C129.778 113.523 135.433 114.76 134.009 112.738C130.695 108.026 127.712 103.747 127.712 103.747C126.506 102.063 124.866 100.745 122.968 99.935C121.07 99.125 118.988 98.8547 116.949 99.1531C114.157 99.5976 111.468 100.549 109.013 101.96C104.275 104.709 100.512 108.871 97.4118 113.405C95.2475 116.586 93.2977 120.434 94.2531 124.164C94.7015 125.93 95.7545 127.442 96.7878 128.934L125.001 169.611C125.001 169.611 128.687 174.028 135.218 171.613C141.321 169.375 146.995 165.92 151.597 161.326C155.73 157.203 159.22 151.294 157.465 145.699C156.802 143.52 155.399 141.675 154.034 139.849C151.713 136.787 147.404 130.406 145.104 127.344L136.018 124.36L131.124 115.369Z" fill="#CE9C5C"/>
<path d="M101.214 133.175C102.013 131.918 102.852 130.72 103.729 129.562C108.76 122.986 116.071 117.234 124.046 113.877C126.548 112.825 129.13 111.978 131.767 111.344C132.013 111.267 132.221 111.098 132.348 110.872C132.474 110.646 132.511 110.379 132.45 110.127C132.138 108.184 125.294 111.442 123.948 111.796C119.083 113.786 114.542 116.499 110.475 119.845C106.199 123.34 102.506 127.502 99.537 132.173C98.8936 133.253 100.57 134.274 101.214 133.175Z" fill="white"/>
<path d="M116.383 153.807C116.923 152.705 117.529 151.636 118.197 150.607C118.528 150.097 118.879 149.606 119.249 149.115L119.483 148.801C119.347 148.978 119.503 148.762 119.522 148.742L119.678 148.546L120.224 147.859C121.804 145.997 123.553 144.288 125.45 142.755L125.801 142.48L125.996 142.323C125.84 142.441 125.957 142.362 125.976 142.342L126.756 141.753L128.258 140.693C129.369 139.947 130.519 139.241 131.689 138.593C132.859 137.945 134.048 137.317 135.277 136.747L137.129 135.884L137.538 135.707L137.772 135.609L137.87 135.569L138.806 135.177C140.21 134.608 141.633 134.078 143.056 133.587C143.739 133.351 144.441 133.076 145.143 132.88L145.63 132.762C145.669 132.762 145.942 132.703 145.689 132.762C145.796 132.729 145.908 132.715 146.02 132.723H146.293L146.527 132.782C146.624 132.821 146.624 132.821 146.508 132.782L146.644 132.86C147.093 133.116 147.736 132.978 147.97 132.507C148.099 132.28 148.134 132.011 148.069 131.758C148.003 131.505 147.842 131.287 147.619 131.152C146.274 130.367 144.772 130.917 143.407 131.368C142.043 131.82 140.795 132.291 139.488 132.801C136.867 133.796 134.308 134.95 131.826 136.257C127.244 138.691 122.935 141.812 119.483 145.739C117.579 147.869 115.966 150.246 114.687 152.806C114.472 153.258 114.55 153.886 115.038 154.141C115.525 154.396 116.13 154.278 116.383 153.787V153.807Z" fill="white"/>
<path d="M107.901 142.715C108.42 141.695 109.027 140.723 109.715 139.81C109.598 139.987 109.715 139.829 109.734 139.79L109.871 139.633C109.949 139.524 110.034 139.419 110.124 139.319C110.3 139.083 110.495 138.868 110.709 138.632C110.924 138.396 111.47 137.788 111.879 137.395C113.478 135.805 115.213 134.372 116.948 132.919C118.684 131.467 120.302 130.073 122.037 128.698L122.349 128.443C122.388 128.424 122.505 128.345 122.349 128.463L122.544 128.306L123.207 127.795L124.553 126.833C125.45 126.186 126.405 125.597 127.36 125.027L128.998 124.164L129.817 123.791L130.032 123.692H130.09L130.519 123.516C131.649 123.069 132.817 122.727 134.009 122.495C134.257 122.426 134.467 122.262 134.595 122.037C134.723 121.813 134.757 121.547 134.692 121.297C134.615 121.049 134.447 120.84 134.222 120.713C133.998 120.585 133.733 120.549 133.483 120.61C129.037 121.435 125.079 123.928 121.531 126.657C119.717 128.051 117.962 129.543 116.208 131.015C114.453 132.487 112.678 133.92 111.021 135.511C109.364 137.101 107.395 139.378 106.225 141.734C106.096 141.961 106.06 142.23 106.126 142.483C106.192 142.736 106.353 142.954 106.576 143.088C107.024 143.324 107.668 143.226 107.901 142.735V142.715Z" fill="#D13535"/>
<path d="M159.415 142.107C157.933 137.12 153.878 133.548 151.167 129.248C150.192 128.325 148.379 124.183 146.975 124.988C146.566 125.224 146.293 125.911 146.624 126.323C149.432 130.073 152.045 133.901 154.891 137.611C141.341 139.457 130.324 150.45 125.352 163.132C117.027 151.844 108.233 138.338 99.7904 126.5C97.9576 123.81 95.4813 121.023 95.8713 117.528C98.2891 105.651 117.339 87.8846 127.945 100.704C131.357 105.612 134.789 110.52 138.279 115.369C138.903 116.468 140.619 115.467 139.956 114.387C130.597 102.589 126.892 87.2565 108.935 97.5629C102.189 101.784 90.4899 114.053 94.9354 122.593C104.704 137.258 114.999 152.06 125.255 166.332C125.567 167.353 126.21 167.765 126.737 167.706C137.265 175.068 163.315 154.73 159.415 142.107ZM127.36 165.822C125.645 163.309 131.026 156.477 132.488 154.2C138.123 147.172 146.624 139.457 156.042 139.712L156.159 139.771C164.426 151.628 137.792 172.673 127.36 165.822Z" fill="#452D34"/>
<path d="M109.15 93.6367C109.15 93.5974 109.091 93.3422 109.15 93.5777C109.062 92.887 109.062 92.1877 109.15 91.4968C109.111 91.752 109.15 91.4773 109.169 91.438C109.278 90.8141 109.448 90.2026 109.676 89.6123C109.949 88.5129 111.548 87.5509 110.67 86.5104C108.214 84.8614 106.634 92.5373 107.278 94.1471C107.59 95.3839 109.481 94.8538 109.15 93.6367Z" fill="#CE9C5C"/>
<path d="M97.0609 101.018C93.8978 100.067 90.498 100.319 87.5069 101.725C86.5709 102.333 84.3093 102.962 84.9137 104.434C85.1671 104.827 85.8106 105.121 86.2395 104.787C87.0032 104.214 87.8271 103.727 88.6963 103.335C89.6777 102.926 90.7061 102.642 91.7574 102.491C92.0889 102.392 94.4091 102.392 94.7991 102.51C95.3874 102.592 95.9679 102.723 96.5344 102.903C97.7433 103.256 98.2698 101.352 97.0609 101.018Z" fill="#CE9C5C"/>
<path d="M95.3451 95.9532L96.3589 96.0317C96.4759 96.0513 96.4565 96.0513 96.3199 96.0317C97.2018 96.1677 98.0654 96.4048 98.8936 96.7384C99.1861 96.8366 100.804 97.7788 101.019 97.9948C101.425 98.3224 101.809 98.6766 102.169 99.0549C103.047 99.9777 104.451 98.5838 103.554 97.6808C101.401 95.4183 98.4549 94.0937 95.3451 93.9901C94.0777 93.9901 94.0777 95.9532 95.3451 95.9532Z" fill="#CE9C5C"/>
<path d="M141.282 115.918C135.394 108.733 126.21 113.955 132.859 121.984C136.056 126.284 145.065 131.702 148.262 124.792C149.861 120.885 147.638 117.764 145.181 115.722C144.987 115.369 144.753 115.035 144.538 114.682L144.675 115.172C144.129 107.83 137.85 99.8795 131.435 96.6011C125.508 94.0488 124.767 99.3691 127.828 98.0145C127.848 97.9948 127.555 98.1127 127.692 98.0734C127.893 97.9939 128.103 97.9346 128.316 97.8967H128.199C128.457 97.861 128.719 97.8544 128.979 97.877C129.076 97.8967 129.408 97.9555 129.018 97.877C132.605 98.5248 136.018 102.216 138.221 104.984C140.424 107.752 141.73 110.206 142.471 113.19C142.555 113.539 142.62 113.893 142.666 114.25C142.686 114.348 142.647 114.073 142.647 114.093C142.413 116.291 144.753 117.823 145.747 119.118C146.254 119.805 146.702 120.512 146.819 121.121C146.839 121.199 146.8 121.239 146.819 121.062C146.855 121.533 146.842 122.007 146.78 122.475C146.761 122.652 146.8 122.475 146.8 122.436C146.717 123.064 146.573 123.682 146.371 124.281C146.429 124.222 146.429 124.144 146.371 124.281C146.252 124.541 146.101 124.785 145.922 125.008C145.279 125.852 144.07 126.264 142.51 126.048C141.34 126.009 138.201 124.419 137.226 123.516C134.731 121.494 132.371 118.843 132.469 116.232C132.605 115.722 133.327 114.78 133.99 114.505C134.653 114.23 134.633 114.367 135.238 114.426C135.355 114.426 135.16 114.407 135.16 114.407C135.717 114.494 136.26 114.653 136.778 114.878C137.343 115.094 138.63 115.879 139.196 116.488C140.443 118.431 142.198 117.371 141.282 115.899V115.918Z" fill="#452D34"/>
<path d="M179.478 69.0972C175.622 67.9784 171.527 67.9988 167.682 69.1562C167.449 69.2711 167.208 69.3695 166.961 69.4506C166.688 69.5488 166.446 69.7182 166.259 69.9414L166.22 69.9807C165.984 70.2696 165.847 70.6278 165.83 71.0016C165.759 72.0835 165.463 73.1384 164.963 74.0986C164.463 75.0588 163.768 75.9029 162.925 76.5769C162.496 76.8518 162.203 77.3425 162.418 77.8725C163.178 79.1879 165.596 77.8333 166.844 77.9118C171.523 77.1265 177.938 77.6958 180.453 82.427C181.175 84.6259 182.169 86.3534 184.411 84.4295L188.896 81.3866C196.403 77.6173 183.359 69.8825 179.478 69.0972ZM189.286 78.6186V78.6578C187.629 80.1302 184.996 81.6222 182.813 83.1535C180.902 76.4002 172.771 75.0653 166.103 75.988C167.048 74.565 167.619 72.9235 167.76 71.2176C175.618 68.6261 184.723 71.3943 189.305 78.4223C189.315 78.4608 189.322 78.5002 189.325 78.5401C189.325 78.5596 189.325 78.5793 189.305 78.5793C189.286 78.5793 189.325 78.5596 189.286 78.6186Z" fill="#EFDCC4"/>
<path d="M189.324 78.5019V78.4419C189.324 78.4619 189.344 78.5019 189.324 78.5019Z" fill="#CE9C5C"/>
<path d="M182.969 83.4283C182.989 83.4481 182.989 83.4481 182.989 83.4678C182.987 83.4527 182.98 83.4384 182.969 83.4283Z" fill="#CE9C5C"/>
<path d="M189.324 78.5215C189.324 78.4815 189.324 78.4616 189.344 78.4616L189.324 78.5215Z" fill="#CE9C5C"/>
<path d="M189.286 78.6389C189.286 78.6191 189.305 78.5992 189.305 78.5597C189.305 78.5202 189.266 78.6191 189.286 78.6389Z" fill="#CE9C5C"/>
<path d="M81.4425 158.499C81.4621 158.519 81.4621 158.499 81.4229 158.401C81.4387 158.431 81.4456 158.465 81.4425 158.499Z" fill="#D13535"/>
<path d="M85.7129 148.174L85.7727 148.134L85.7129 148.174Z" fill="#D13535"/>
<path d="M87.8579 163.348C87.312 162.897 86.7076 163.368 86.1226 163.446C83.315 163.76 81.6771 160.835 81.4235 158.401C81.323 157.494 81.3295 156.578 81.4431 155.672C81.4235 155.81 81.4235 155.77 81.4431 155.653C81.5859 154.675 81.8478 153.719 82.223 152.806C82.223 152.811 82.221 152.816 82.2173 152.82C82.2137 152.824 82.2087 152.826 82.2035 152.826C82.2425 152.728 82.262 152.669 82.223 152.806C82.9792 150.99 84.1799 149.396 85.7132 148.173H85.6936C85.7717 148.114 85.8107 148.114 85.7717 148.134C86.3547 147.674 86.9895 147.286 87.663 146.975C88.6378 146.347 87.9554 145.15 87 145.012H87.039C86.4403 144.747 85.8716 144.418 85.3426 144.031L85.4402 144.109C84.1923 143.481 83.0224 140.438 81.7745 140.988C73.917 143.795 69.5104 153.258 72.513 161.13C74.5408 167.039 80.0783 170.474 85.2842 173.282C85.4584 173.385 85.6602 173.431 85.8615 173.413C86.0627 173.396 86.2537 173.315 86.4078 173.184C86.5619 173.052 86.6717 172.876 86.7219 172.679C86.7721 172.482 86.7603 172.274 86.688 172.084C86.727 170.357 88.9109 164.192 87.8579 163.348ZM84.3288 163.191C84.3288 163.186 84.3268 163.181 84.3231 163.177C84.3195 163.173 84.3145 163.171 84.3092 163.171C84.3145 163.171 84.3195 163.173 84.3231 163.177C84.3268 163.181 84.3288 163.186 84.3288 163.191ZM78.9668 144.757L78.8888 144.816L78.9668 144.757ZM82.7885 169.591C81.7196 168.945 80.6848 168.244 79.6883 167.49C75.6717 164.663 72.786 159.049 73.6635 153.788C74.0016 151.423 74.9496 149.19 76.4127 147.309C77.5045 145.817 79.7663 143.913 81.8331 143.069C82.7105 144.286 83.7829 145.444 85.0892 146.19C81.3456 148.801 79.0449 153.513 79.4543 158.107C79.6104 161.66 82.1061 165.704 86.0252 165.409C85.6742 167.216 85.2842 169.022 84.9332 170.847L82.7885 169.591Z" fill="#D13535"/>
<path d="M143.485 82.5449C142.312 80.5685 141.693 78.3097 141.691 76.0075C141.688 75.8566 141.65 75.7084 141.581 75.574C141.512 75.4398 141.414 75.323 141.294 75.2324C141.174 75.1417 141.035 75.0795 140.888 75.0506C140.74 75.0218 140.589 75.0268 140.443 75.0653C137.07 75.9683 133.502 78.5793 132.527 82.0148C132.56 82.2402 132.673 82.446 132.845 82.594C133.017 82.7419 133.237 82.8222 133.463 82.8197C136.49 82.5446 139.539 82.9468 142.393 83.9976C143.193 84.2528 143.934 83.2516 143.485 82.5449ZM141.789 77.6763C141.808 77.7548 141.789 77.7351 141.789 77.6763V77.6763ZM135.296 80.778C135.869 80.002 136.545 79.3084 137.304 78.7168H137.285C138.056 78.139 138.903 77.6701 139.8 77.3229C139.935 78.7378 140.269 80.126 140.794 81.4455C138.996 80.9979 137.149 80.7737 135.296 80.778Z" fill="#D13535"/>
<path d="M108.916 175.127C106.605 174.364 104.107 174.399 101.818 175.225C99.8685 176.305 102.228 179.132 102.91 180.467C103.749 181.389 105.113 184.432 106.439 184.177C106.6 184.127 106.746 184.038 106.865 183.919C106.984 183.799 107.072 183.652 107.122 183.49C107.941 181.115 108.759 178.72 109.598 176.324C109.773 175.814 109.383 175.284 108.916 175.127ZM105.835 181.232C104.821 179.858 103.807 178.445 103.183 176.835C104.561 176.479 106.002 176.445 107.395 176.737C106.868 178.248 106.361 179.74 105.835 181.232Z" fill="#D13535"/>
<path d="M186.323 106.142C184.1 103.688 182.17 100.252 179.693 98.1322C179.342 97.3274 178.094 97.4648 177.88 98.3089L174.429 109.047C174.195 109.774 174.936 110.461 175.638 110.265L185.64 107.359C186.128 107.202 186.498 106.652 186.323 106.142ZM179.264 100.351L183.612 105.887L176.866 107.85L179.264 100.351Z" fill="#CE9C5C"/>
<path d="M139.313 273.403C139.098 272.46 136.817 272.421 135.842 271.399C134.984 270.929 134.613 269.573 133.561 269.613C132.508 269.653 132.683 271.243 132.235 272.028C131.954 272.66 131.615 273.266 131.221 273.833C128.413 276.582 124.903 278.683 120.945 279.134C119.527 279.302 118.094 279.302 116.675 279.134H116.714C115.954 279.115 114.999 278.526 114.433 279.272C114.219 279.547 114.121 280.057 114.355 280.351C114.652 280.747 114.912 281.167 115.135 281.608C115.696 282.821 115.9 284.17 115.72 285.495C115.727 285.487 115.732 285.477 115.736 285.468C115.739 285.458 115.74 285.446 115.739 285.436C115.657 285.937 115.533 286.43 115.369 286.909C115.35 286.968 115.213 287.281 115.311 287.027C113.907 290.657 126.463 286.477 127.867 285.849C132.859 283.629 140.658 280.057 139.313 273.403ZM137.577 275.247C136.251 281.961 123.519 285.868 117.514 286.437C117.923 284.691 118.82 281.098 117.046 281.136C124.748 280.941 130.09 279.291 134.126 272.479C133.463 273.638 136.271 274.049 137.558 274.442C137.593 274.709 137.6 274.98 137.577 275.247ZM137.577 274.502C137.597 274.679 137.577 274.521 137.558 274.482C137.56 274.482 137.563 274.483 137.565 274.483C137.568 274.485 137.57 274.486 137.571 274.487C137.573 274.489 137.575 274.492 137.576 274.493C137.577 274.496 137.577 274.499 137.577 274.502Z" fill="#CE9C5C"/>
<path d="M133.814 238.576C133.307 237.111 132.466 235.788 131.359 234.711C130.252 233.633 128.909 232.832 127.438 232.372V232.334H127.399C126.814 232.235 126.385 231.843 125.762 231.803H125.605C125.177 232.49 125.079 233.648 124.67 234.277C123.745 236.466 122.629 238.568 121.335 240.559C120.945 241.148 121.452 242.09 122.174 242.031C123.929 241.835 134.399 240.814 133.814 238.576ZM124.728 239.813L124.026 239.891C125.082 238.071 126.001 236.175 126.775 234.218C126.99 234.296 127.224 234.355 127.438 234.454C127.653 234.552 127.789 234.571 127.536 234.493C128.177 234.758 128.78 235.108 129.33 235.533H129.349C129.898 235.957 130.389 236.453 130.811 237.006C131.099 237.389 131.353 237.796 131.572 238.223C129.337 238.937 127.048 239.469 124.728 239.813Z" fill="#CE9C5C"/>
<path d="M190.221 149.626C187.414 149.645 187.063 146.74 186.731 144.561L185.113 146.583C182.773 149.547 178.133 146.288 180.063 143.049C175.715 143.756 174.096 136.924 180.96 136.571C178.795 135.491 176.358 133.94 177.821 131.152C179.575 128.404 182.13 129.955 184.216 131.31C183.631 128.915 183.046 125.891 186.185 125.165C189.324 124.439 189.929 127.756 190.26 130.19C191.196 129.111 192.327 127.05 193.945 127.01C196.578 126.637 198.41 129.975 196.695 132.036L195.252 133.822C200.731 131.859 202.622 138.024 198.351 139.535C201.394 141.812 198.274 146.642 194.979 144.718L192.776 143.442C193.478 146.092 193.867 149.331 190.221 149.626ZM187.18 141.969C187.358 141.974 187.529 142.038 187.667 142.152C187.805 142.266 187.901 142.423 187.94 142.598L188.739 146.818C188.934 148.134 190.787 148.526 191.489 147.388C192.21 146.681 190.962 142.892 190.943 142.048C190.921 141.903 190.939 141.754 190.997 141.619C191.055 141.484 191.149 141.368 191.269 141.284C191.388 141.201 191.529 141.152 191.675 141.145C191.821 141.138 191.966 141.172 192.093 141.243L195.759 143.363C197.455 144.384 198.995 141.675 197.279 140.693L195.798 139.849C195.174 139.515 195.349 138.514 196.051 138.396L197.884 138.043C199.17 137.847 199.581 135.962 198.449 135.275C197.533 134.117 191.664 137.376 192.737 134.51C193.127 133.763 196.11 130.897 195.798 129.935C195.7 128.6 193.887 128.07 193.088 129.13L190.436 132.487C190.339 132.6 190.213 132.683 190.071 132.728C189.93 132.773 189.779 132.777 189.636 132.74C189.492 132.704 189.361 132.627 189.258 132.52C189.155 132.413 189.083 132.28 189.051 132.134C188.564 130.838 188.837 126.186 186.478 126.696C184.118 127.207 186.049 131.31 186.049 132.684C185.776 135.962 180.648 128.973 179.166 131.938C179.064 132.112 178.998 132.304 178.97 132.504C178.943 132.704 178.954 132.907 179.005 133.102C179.056 133.297 179.145 133.481 179.266 133.641C179.387 133.802 179.539 133.937 179.712 134.038L183.553 136.276C183.694 136.353 183.808 136.472 183.878 136.617C183.948 136.763 183.971 136.926 183.943 137.085C183.914 137.244 183.837 137.39 183.722 137.502C183.606 137.615 183.458 137.687 183.3 137.709C182.52 138.004 178.542 138.22 178.152 139.162C177.372 140.242 178.386 141.832 179.692 141.538L181.798 141.125C182.481 140.968 183.007 141.852 182.559 142.382L181.525 143.677C180.258 145.228 182.676 147.191 183.904 145.601C184.294 145.287 186.575 141.773 187.18 141.969Z" fill="#D13535"/>
<path d="M102.111 229.212C99.2835 229.231 98.952 226.326 98.6011 224.147L97.0022 226.169C94.643 229.153 90.0025 225.875 91.9522 222.635C87.6042 223.342 85.9664 216.49 92.8491 216.157C90.6849 215.078 88.2282 213.527 89.6905 210.738C91.4649 207.991 94.019 209.542 96.1053 210.895C95.5203 208.501 94.9354 205.477 98.0746 204.751C101.214 204.025 101.818 207.342 102.15 209.777L103.768 207.735C106.303 204.594 111.06 208.442 108.565 211.622L107.141 213.409C109.286 212.74 111.957 212.859 112.503 215.548C112.646 216.324 112.489 217.125 112.065 217.79C111.641 218.453 110.982 218.929 110.222 219.122C113.283 221.399 110.163 226.227 106.849 224.303L104.665 223.027C105.328 225.736 105.796 228.859 102.111 229.212ZM99.0496 221.556C99.2286 221.556 99.402 221.619 99.5404 221.734C99.679 221.848 99.7742 222.007 99.8099 222.184L100.609 226.404C100.96 228.368 104.002 227.778 103.612 225.816L102.813 221.634C103.086 218.356 108.233 225.344 109.715 222.381C110.612 220.908 108.72 219.984 107.687 219.435C107.063 219.101 107.239 218.081 107.921 217.982C109.11 217.787 111.353 217.609 110.982 215.823C110.339 212.878 105.679 216.373 104.548 214.979C104.471 214.842 104.435 214.685 104.446 214.528C104.456 214.372 104.512 214.221 104.606 214.096L107.356 210.64C108.604 209.109 106.205 207.145 104.977 208.717L102.306 212.073C102.211 212.188 102.087 212.273 101.946 212.318C101.806 212.364 101.655 212.368 101.512 212.332C101.369 212.295 101.24 212.217 101.139 212.11C101.038 212.001 100.969 211.866 100.941 211.72C100.453 210.425 100.726 205.772 98.367 206.283C96.0078 206.793 97.9187 210.895 97.9381 212.27C97.9646 212.417 97.949 212.568 97.8933 212.706C97.8375 212.845 97.7437 212.964 97.6232 213.05C97.5024 213.137 97.3598 213.187 97.2119 213.194C97.0638 213.202 96.9168 213.168 96.7877 213.095L93.1221 210.954C91.4257 209.953 89.866 212.643 91.6012 213.624L95.4424 215.863C95.5794 215.94 95.6888 216.061 95.7552 216.205C95.8215 216.349 95.8417 216.511 95.8129 216.667C95.7815 216.822 95.7057 216.964 95.5948 217.075C95.4838 217.187 95.3426 217.263 95.1889 217.296L90.9968 218.1C89.0665 218.454 89.632 221.535 91.5623 221.124L93.6876 220.711C94.37 220.555 94.8965 221.438 94.4285 221.967L93.3951 223.264C92.1473 224.815 94.565 226.777 95.7933 225.187C96.1833 224.874 98.4451 221.359 99.0496 221.556Z" fill="#D13535"/>
<path d="M238.693 83.6835C238.593 83.6836 238.492 83.6632 238.398 83.6233C238.305 83.5836 238.22 83.5256 238.149 83.4524C238.079 83.3792 238.023 83.2924 237.985 83.1973C237.949 83.1021 237.931 83.0005 237.933 82.8982V64.3072C237.931 64.2051 237.949 64.1034 237.985 64.0082C238.023 63.913 238.079 63.8263 238.149 63.7531C238.22 63.68 238.305 63.6218 238.398 63.5821C238.492 63.5424 238.593 63.522 238.693 63.522C238.901 63.522 239.099 63.6047 239.245 63.752C239.391 63.8992 239.473 64.0989 239.473 64.3072V82.8982C239.473 83.1065 239.391 83.3063 239.245 83.4536C239.099 83.6007 238.901 83.6835 238.693 83.6835Z" fill="#CE9C5C"/>
<path d="M232.103 82.3878C231.916 82.3913 231.733 82.3209 231.596 82.1915C231.44 82.0581 231.342 81.8677 231.323 81.6619C231.306 81.4563 231.368 81.2515 231.498 81.0921L244.719 65.2495C244.852 65.0918 245.04 64.9931 245.244 64.9748C245.449 64.9564 245.652 65.0199 245.811 65.1513C245.963 65.2876 246.058 65.4772 246.077 65.6815C246.094 65.8859 246.034 66.0895 245.909 66.2507L232.688 82.1129C232.615 82.1971 232.525 82.2652 232.424 82.3125C232.323 82.3599 232.215 82.3854 232.103 82.3878Z" fill="#CE9C5C"/>
<path d="M245.966 81.7793C245.864 81.779 245.763 81.7578 245.668 81.7174C245.575 81.6769 245.49 81.6179 245.42 81.5438L230.893 66.9183C230.82 66.8452 230.762 66.7581 230.721 66.6621C230.682 66.5659 230.661 66.4629 230.661 66.3588C230.661 66.2546 230.682 66.1515 230.721 66.0554C230.762 65.9594 230.82 65.8724 230.893 65.7992C231.039 65.6554 231.235 65.5749 231.439 65.5749C231.644 65.5749 231.839 65.6554 231.985 65.7992L246.512 80.4444C246.585 80.5156 246.642 80.6012 246.683 80.6956C246.723 80.7899 246.743 80.8915 246.743 80.994C246.743 81.0966 246.723 81.198 246.683 81.2925C246.642 81.3869 246.585 81.4723 246.512 81.5438C246.441 81.6179 246.356 81.6769 246.263 81.7174C246.169 81.7578 246.067 81.779 245.966 81.7793Z" fill="#CE9C5C"/>
<path d="M247.935 74.3782H229.47C229.369 74.3809 229.269 74.363 229.174 74.3256C229.079 74.2884 228.993 74.2324 228.921 74.161C228.848 74.0897 228.79 74.0044 228.75 73.9102C228.711 73.816 228.69 73.7148 228.69 73.6125C228.69 73.4044 228.774 73.2046 228.92 73.0573C229.066 72.91 229.264 72.8274 229.47 72.8274H247.935C248.142 72.8274 248.341 72.91 248.487 73.0573C248.633 73.2046 248.716 73.4044 248.716 73.6125C248.716 73.7148 248.695 73.816 248.656 73.9102C248.617 74.0044 248.558 74.0897 248.485 74.161C248.414 74.2324 248.327 74.2884 248.233 74.3256C248.138 74.363 248.037 74.3809 247.935 74.3782Z" fill="#CE9C5C"/>
<path d="M314.502 206.027C314.294 206.027 314.096 205.944 313.95 205.797C313.804 205.65 313.721 205.45 313.721 205.242V186.631C313.721 186.423 313.804 186.223 313.95 186.076C314.096 185.928 314.294 185.846 314.502 185.846C314.708 185.846 314.906 185.928 315.052 186.076C315.198 186.223 315.281 186.423 315.281 186.631V205.242C315.281 205.45 315.198 205.65 315.052 205.797C314.906 205.944 314.708 206.027 314.502 206.027Z" fill="#CE9C5C"/>
<path d="M307.892 204.711C307.709 204.71 307.531 204.648 307.385 204.535C307.232 204.398 307.137 204.207 307.122 204.001C307.107 203.795 307.175 203.592 307.308 203.435L320.507 187.573C320.573 187.495 320.655 187.43 320.747 187.383C320.837 187.336 320.938 187.308 321.04 187.299C321.142 187.291 321.245 187.303 321.342 187.335C321.44 187.367 321.531 187.418 321.608 187.485C321.687 187.552 321.751 187.634 321.798 187.726C321.845 187.818 321.872 187.918 321.881 188.021C321.889 188.124 321.877 188.228 321.845 188.326C321.814 188.424 321.763 188.515 321.696 188.594L308.496 204.436C308.42 204.521 308.327 204.589 308.223 204.637C308.118 204.685 308.005 204.71 307.892 204.711Z" fill="#CE9C5C"/>
<path d="M321.756 204.103C321.653 204.103 321.553 204.082 321.458 204.041C321.364 204.001 321.28 203.942 321.21 203.867L306.683 189.242C306.57 189.091 306.516 188.904 306.529 188.715C306.542 188.527 306.623 188.349 306.756 188.216C306.888 188.082 307.065 188.001 307.252 187.988C307.439 187.974 307.624 188.029 307.775 188.143L322.321 202.768C322.464 202.915 322.544 203.112 322.544 203.318C322.544 203.523 322.464 203.72 322.321 203.867C322.246 203.944 322.159 204.003 322.062 204.044C321.964 204.083 321.861 204.104 321.756 204.103Z" fill="#CE9C5C"/>
<path d="M323.724 196.722H305.259C305.053 196.722 304.855 196.639 304.709 196.492C304.561 196.344 304.479 196.144 304.479 195.937C304.479 195.728 304.561 195.528 304.709 195.381C304.855 195.234 305.053 195.152 305.259 195.152H323.724C323.931 195.152 324.13 195.234 324.276 195.381C324.422 195.528 324.503 195.728 324.503 195.937C324.503 196.144 324.422 196.344 324.276 196.492C324.13 196.639 323.931 196.722 323.724 196.722Z" fill="#CE9C5C"/>
<path d="M281.434 241.56C280.596 251.337 275.837 260.268 273.439 269.692C269.228 285.908 273.03 303.026 269.13 319.281C268.838 320.518 270.729 321.048 271.021 319.811C274.843 304.027 271.412 287.497 274.96 271.695C277.184 262.075 281.94 253.162 283.207 243.307C283.286 242.718 283.345 242.149 283.383 241.56C283.403 240.323 281.453 240.284 281.434 241.56Z" fill="#452D34"/>
<path d="M313.429 223.107C309.398 223.724 305.276 223.138 301.574 221.418C295.588 218.572 291.318 212.996 285.722 209.424C278.138 204.555 268.837 203.71 259.888 203.004H259.829C259.458 202.984 259.342 201.099 259.4 200.354C259.458 199.607 259.517 198.744 259.127 198.076C258.737 197.408 258.308 197.173 257.82 196.82C255.559 195.249 253.278 193.66 250.665 192.814C249.3 192.363 247.876 192.147 246.551 191.637C243.197 190.322 240.819 187.338 238.167 184.923C235.514 182.508 232.513 180.172 229.276 180.958C228.962 181.036 228.633 181.036 228.321 180.958L227.717 180.801C226.214 180.526 224.576 181.645 224.284 183.176C224.167 183.843 224.265 184.57 223.934 185.178C223.602 185.787 223.25 185.865 222.842 186.16C221.593 187.004 220.443 188.084 219.819 189.458C219.194 190.832 219.371 192.285 219.995 193.502C220.087 193.673 220.212 193.824 220.363 193.945C220.513 194.067 220.687 194.157 220.872 194.209C221.171 194.299 221.431 194.49 221.606 194.752C221.78 195.014 221.859 195.328 221.827 195.641C221.672 197.232 222.939 198.959 224.148 200.216C228.417 204.711 233.078 209.403 239.122 210.66C240.585 210.954 242.105 211.053 243.451 211.68C244.796 212.31 245.635 213.212 246.784 213.86C247.889 214.44 249.123 214.72 250.367 214.675C251.611 214.631 252.823 214.262 253.883 213.605L254.642 213.095C254.854 212.967 255.084 212.874 255.325 212.82C260.531 211.995 265.99 213.762 270.084 217.119C274.18 220.475 277.065 225.52 278.469 230.762C279.503 234.611 279.853 238.753 281.979 242.13C285.468 247.704 292.819 249.551 299.332 249.039C303.368 248.705 307.403 247.626 310.855 245.486C316.217 242.13 319.669 236.063 320.292 229.78C320.39 228.86 320.278 227.928 319.965 227.057C319.651 226.185 319.143 225.398 318.482 224.755C317.819 224.111 317.02 223.627 316.144 223.342C315.268 223.055 314.34 222.976 313.429 223.107Z" fill="#D13535"/>
<path d="M225.299 184.609C227.079 188.08 229.525 191.16 232.498 193.671C235.469 196.182 238.907 198.072 242.613 199.234C243.86 199.548 244.347 197.723 243.139 197.349C242.282 197.074 241.442 196.78 240.623 196.428C238.471 195.49 236.442 194.289 234.579 192.854C233.234 191.873 230.641 189.262 229.685 187.927C228.658 186.577 227.752 185.138 226.975 183.627C226.312 182.528 224.694 183.47 225.299 184.609Z" fill="white"/>
<path d="M291.298 240.206C292.803 241.326 294.515 242.136 296.331 242.587C298.149 243.038 300.036 243.124 301.886 242.836C302.393 242.777 302.705 242.09 302.568 241.639C302.488 241.398 302.323 241.195 302.104 241.067C301.885 240.941 301.626 240.9 301.379 240.951C300.284 241.092 299.176 241.085 298.084 240.932C295.982 240.635 293.989 239.803 292.292 238.517C291.181 237.87 290.227 239.499 291.298 240.206Z" fill="white"/>
<path d="M297.031 233.472C298.44 234.84 300.156 235.846 302.032 236.406C303.908 236.967 305.891 237.064 307.814 236.691C309.041 236.338 308.535 234.512 307.287 234.806L306.799 234.886C306.682 234.905 306.878 234.886 306.878 234.886C305.064 235.161 302.88 234.748 301.555 234.158C300.381 233.683 299.313 232.976 298.416 232.078C297.48 231.195 296.154 232.529 297.031 233.472Z" fill="white"/>
<path d="M303.212 227.896C304.664 228.712 306.268 229.214 307.922 229.373C309.578 229.532 311.247 229.344 312.825 228.819C313.78 228.387 316.491 227.661 315.749 226.227C315.616 226.004 315.4 225.841 315.149 225.775C314.897 225.708 314.63 225.745 314.405 225.875C313.098 226.737 311.947 227.131 310.309 227.386C309.94 227.445 308.4 227.524 307.581 227.367C307.735 227.445 307.697 227.386 307.619 227.367C307.191 227.312 306.767 227.227 306.351 227.111L305.201 226.718C305.026 226.64 305.182 226.718 305.221 226.718C304.48 226.404 303.446 225.56 302.862 226.561C302.796 226.671 302.752 226.795 302.735 226.921C302.716 227.049 302.723 227.178 302.757 227.303C302.789 227.428 302.846 227.545 302.925 227.646C303.004 227.749 303.101 227.833 303.212 227.896Z" fill="white"/>
<path d="M267.218 157.243C266.945 154.867 266.341 152.551 265.834 150.215C265.717 149.645 265.601 149.056 265.503 148.467L265.444 148.134C265.449 148.08 265.443 148.027 265.425 147.977C265.425 147.937 265.418 147.897 265.405 147.859C265.404 147.812 265.396 147.766 265.386 147.721C265.389 147.662 265.382 147.602 265.367 147.545C265.363 147.406 265.35 147.269 265.328 147.132C265.224 146.082 265.217 145.024 265.307 143.972C265.323 143.914 265.331 143.855 265.328 143.795C265.344 143.758 265.35 143.717 265.347 143.677C265.364 143.538 265.389 143.4 265.425 143.265C265.463 142.971 265.542 142.696 265.601 142.401C265.659 142.107 265.757 141.871 265.853 141.596C265.951 141.322 265.951 141.38 265.991 141.263L266.03 141.164L266.147 140.909C266.223 140.776 266.268 140.628 266.278 140.474C266.288 140.321 266.264 140.168 266.205 140.026C266.155 139.887 266.072 139.762 265.963 139.663C265.855 139.564 265.723 139.493 265.58 139.457C261.21 138.824 256.769 138.891 252.42 139.653C251.465 139.829 250.529 140.026 249.612 140.261C249.69 139.358 249.787 138.475 249.865 137.572C249.944 136.669 250.06 135.727 250.1 134.804C250.158 133.037 249.925 131.211 248.774 129.817C248.66 129.677 248.536 129.546 248.403 129.425C248.091 129.15 247.78 129.13 247.409 129.052L246.025 128.757C245.089 128.541 244.172 128.286 243.236 128.011C242.301 127.737 241.423 127.403 240.527 127.03L239.902 126.775H239.843L239.727 126.735L239.337 126.559L238.03 125.95C236.096 125.001 234.244 123.891 232.492 122.632C232.329 122.53 232.136 122.482 231.945 122.497C231.752 122.511 231.568 122.586 231.421 122.711C231.267 122.826 231.152 122.985 231.089 123.167C231.026 123.349 231.019 123.546 231.07 123.732C231.129 124.007 231.187 124.262 231.225 124.537C231.232 124.545 231.238 124.554 231.241 124.564C231.244 124.574 231.245 124.585 231.245 124.595V124.713C231.267 124.85 231.28 124.987 231.283 125.125C231.283 125.381 231.283 125.656 231.264 125.93C231.245 126.205 231.245 126.068 231.245 126.127V126.087C231.206 126.244 231.187 126.402 231.148 126.539L231.031 126.932L230.972 127.147C230.939 127.203 230.913 127.262 230.894 127.324H230.875C230.85 127.4 230.818 127.472 230.777 127.54L230.543 127.972C230.445 128.109 230.368 128.247 230.27 128.365C230.231 128.435 230.185 128.5 230.133 128.561L230.074 128.64C229.842 128.92 229.587 129.183 229.315 129.425L228.788 129.876L228.749 129.916L228.652 129.974L228.34 130.21C227.892 130.524 227.423 130.799 226.956 131.074C226.787 131.169 226.651 131.314 226.566 131.49C226.483 131.666 226.455 131.863 226.487 132.055C226.527 132.389 226.8 132.801 227.19 132.86C228.165 133.017 229.178 133.057 230.172 133.135L231.342 133.214L229.374 133.999C228.496 134.333 227.579 134.627 226.741 135.059C225.903 135.491 225.299 136.198 225.318 137.14C225.322 137.399 225.427 137.645 225.608 137.829C225.791 138.012 226.036 138.116 226.293 138.122L226.741 138.161H226.898L227.15 138.2L228.261 138.455C228.963 138.652 229.647 138.887 230.348 139.142C231.733 139.672 233.117 140.222 234.541 140.634C237.504 141.459 240.565 141.832 243.607 142.048C244.933 142.146 246.278 142.205 247.624 142.244C247.599 144.338 247.922 146.422 248.579 148.408C249.241 150.372 250.236 152.237 250.782 154.239C250.861 154.514 250.919 154.789 250.977 155.064L251.036 155.476H251.055C251.052 155.542 251.058 155.608 251.074 155.672C251.094 155.947 251.113 156.222 251.113 156.497C251.113 156.772 251.094 156.811 251.094 156.948C251.094 157.086 251.074 157.066 251.074 157.125C251.074 157.184 251.036 157.478 251.074 157.243C250.996 157.675 251.113 158.126 251.523 158.342C254.474 160.03 257.353 161.836 260.161 163.76C260.308 163.846 260.476 163.892 260.648 163.892C260.819 163.892 260.987 163.846 261.136 163.76C261.281 163.672 261.4 163.548 261.486 163.401C261.571 163.253 261.618 163.087 261.622 162.916C261.857 160.678 262.072 158.46 262.305 156.222C263.418 156.893 264.571 157.497 265.757 158.028C265.906 158.11 266.074 158.154 266.243 158.154C266.414 158.154 266.582 158.11 266.731 158.028C266.872 157.95 266.992 157.837 267.077 157.7C267.163 157.562 267.211 157.405 267.218 157.243ZM230.172 128.541C230.168 128.541 230.162 128.543 230.159 128.547C230.155 128.551 230.153 128.556 230.153 128.561C230.193 128.502 230.251 128.424 230.172 128.541ZM241.871 139.987L240.779 139.869L240.233 139.79H239.785C238.312 139.603 236.852 139.314 235.418 138.926C233.974 138.534 232.59 138.004 231.187 137.474C230.257 137.114 229.307 136.812 228.34 136.571L228.476 136.512L229.08 136.296L230.348 135.785L235.32 133.822C235.503 133.773 235.668 133.671 235.793 133.527C235.917 133.384 235.998 133.207 236.023 133.017C236.055 132.825 236.027 132.627 235.944 132.452C235.859 132.276 235.723 132.13 235.554 132.036C234.618 131.584 233.488 131.545 232.454 131.427L230.289 131.251C230.977 130.677 231.58 130.009 232.083 129.268C232.812 128.153 233.212 126.853 233.234 125.518C236.475 127.604 240.003 129.198 243.704 130.249C244.86 130.578 246.031 130.846 247.213 131.054L247.311 131.172L247.351 131.211C247.37 131.231 247.409 131.27 247.409 131.29L247.486 131.388C247.565 131.515 247.637 131.646 247.701 131.781L247.78 131.918C247.78 131.938 247.78 131.938 247.799 131.957V132.016C247.803 132.016 247.809 132.018 247.812 132.022C247.816 132.026 247.818 132.031 247.818 132.036C247.935 132.325 248.014 132.629 248.053 132.939C248.075 133.002 248.088 133.068 248.091 133.135C248.091 133.155 248.091 133.174 248.111 133.174C248.114 133.345 248.127 133.516 248.149 133.685C248.228 135.098 248.014 136.531 247.876 137.945L247.643 140.36L244.153 140.203L241.871 139.987ZM250.665 148.526C250.284 147.494 249.996 146.43 249.806 145.346C249.768 145.169 249.748 145.012 249.71 144.836V144.718C249.694 144.667 249.688 144.614 249.69 144.561C249.652 144.227 249.612 143.913 249.593 143.599C249.573 143.285 249.554 142.735 249.573 142.303C250.509 142.048 251.465 141.832 252.42 141.636L253.979 141.38L254.35 141.322H254.584L255.365 141.223C257.461 140.988 259.574 140.929 261.681 141.047L263.436 141.184L263.944 141.243C262.618 145.189 263.671 149.449 264.567 153.434L264.976 155.378C264.982 155.444 264.995 155.51 265.015 155.574C263.977 155.032 262.968 154.436 261.993 153.787C261.84 153.705 261.669 153.662 261.497 153.662C261.323 153.662 261.152 153.705 260.999 153.787C260.856 153.877 260.739 154.001 260.657 154.149C260.575 154.296 260.532 154.463 260.532 154.632C260.297 156.85 260.082 159.049 259.848 161.267C257.626 159.775 255.344 158.362 253.024 157.027C253.078 156.157 253.007 155.284 252.81 154.435C252.577 153.415 252.258 152.416 251.855 151.451C251.465 150.47 251.036 149.508 250.665 148.526Z" fill="#D13535"/>
<path d="M231.245 126.068C231.245 125.97 231.264 125.832 231.245 126.068V126.068Z" fill="#D13535"/>
<path d="M247.799 131.957C247.799 131.918 247.78 131.898 247.78 131.859C247.777 131.893 247.783 131.927 247.799 131.957Z" fill="#D13535"/>
<path d="M259.419 171.692C262.247 173.026 267.94 173.871 268.642 169.709C268.662 165.92 264.528 167.314 266.595 169.12H266.614L266.516 169.041C266.516 169.061 266.595 169.12 266.634 169.159C266.672 169.198 266.537 168.982 266.614 169.12C266.693 169.257 266.653 169.375 266.634 169.139C266.651 169.227 266.677 169.312 266.712 169.395C266.731 169.473 266.693 169.277 266.693 169.277C266.693 169.277 266.693 169.885 266.712 169.552C266.712 169.591 266.595 170.042 266.634 169.885C266.672 169.728 266.595 169.925 266.576 169.984C266.556 170.042 266.497 170.062 266.516 170.082C265.757 171.024 262.579 170.965 260.59 170.062C259.654 169.375 258.152 170.671 259.419 171.692Z" fill="#452D34"/>
<path d="M262.287 175.441C261.05 175.518 259.814 175.323 258.66 174.872C258.089 174.634 257.552 174.324 257.06 173.949C255.989 173.282 254.994 174.97 256.086 175.637C257.178 176.678 262.929 178.739 263.261 176.423C263.242 175.912 262.832 175.402 262.287 175.441Z" fill="#452D34"/>
<path d="M244.758 123.673C245.654 122.789 244.27 121.376 243.372 122.299C230.289 136.374 212.995 166.371 231.362 177.404C231.07 178.288 230.562 179.387 231.675 179.76C232.415 179.956 232.922 179.23 233.176 178.366C235.885 179.662 239.239 180.604 243.314 181.134C244.562 181.154 244.581 179.191 243.314 179.171C241.19 178.935 237.309 177.974 235.281 177.051C213.677 167.353 231.421 141.125 240.858 128.345C242.086 126.755 243.372 125.165 244.758 123.673Z" fill="#452D34"/>
<path d="M262.014 181.409C261.233 182.94 253.687 193.698 255.755 194.209C256.203 194.445 256.847 194.346 257.099 193.855C258.64 190.773 260.336 187.77 262.15 184.825L263.69 182.391C264.353 181.311 262.656 180.31 262.014 181.409Z" fill="#452D34"/>
<path d="M243.178 143.069C239.045 142.892 231.323 140.87 232.357 147.721C232.542 148.337 232.869 148.901 233.309 149.368C233.748 149.834 234.29 150.192 234.892 150.411C236.49 150.666 236.315 148.683 235.457 148.546C235.258 148.466 235.074 148.353 234.91 148.212C235.125 148.408 234.756 148.075 234.697 147.996C234.639 147.918 234.443 147.761 234.618 147.937C234.17 147.25 234.151 147.132 234.151 146.386C234.17 146.269 234.151 146.288 234.151 146.445C234.151 146.602 234.404 145.621 234.268 145.935C234.521 145.385 234.579 145.366 234.989 144.973C234.989 144.993 234.794 145.11 234.97 144.993L235.146 144.894L235.379 144.757C235.535 144.659 235.36 144.777 235.34 144.757C235.566 144.67 235.801 144.61 236.042 144.58C238.42 144.6 240.8 144.894 243.178 145.032C244.446 145.052 244.446 143.069 243.178 143.069Z" fill="#452D34"/>
<path d="M242.086 158.95L241.755 159.088H241.832C241.384 159.264 240.921 159.402 240.448 159.5L240 159.579C239.883 159.598 240.077 159.579 240.077 159.579C238.723 159.747 237.347 159.565 236.081 159.049C235.5 158.793 234.95 158.471 234.443 158.087C233.195 156.477 231.538 157.576 232.474 158.931C235.183 161.66 239.629 162.386 243.062 160.658C244.154 160.03 243.178 158.322 242.086 158.97V158.95Z" fill="#452D34"/>
<path d="M252.576 147.898C250.997 149.783 253.98 152.237 255.501 150.293C257.022 148.35 254.077 145.974 252.576 147.898Z" fill="#452D34"/>
<path d="M240.175 136.119C238.595 138.004 241.58 140.438 243.081 138.514C244.581 136.59 241.677 134.176 240.175 136.119Z" fill="#452D34"/>
<path d="M260.473 150.489C260.584 150.372 260.663 150.225 260.697 150.066C260.732 149.906 260.722 149.74 260.667 149.586C260.024 147.623 256.866 140.536 254.214 142.637C251.561 144.737 255.715 147.329 257.12 148.86C257.762 149.253 258.445 150.274 259.186 150.647C259.292 150.75 259.426 150.82 259.572 150.848C259.717 150.876 259.867 150.861 260.005 150.804C260.13 150.753 260.247 150.687 260.355 150.607L260.434 150.548C260.434 150.529 260.453 150.509 260.473 150.489Z" fill="#452D34"/>
<path d="M241.228 130.465C241.041 130.375 240.83 130.344 240.626 130.375C240.42 130.407 240.23 130.5 240.077 130.642C239.988 130.736 239.921 130.85 239.883 130.976C239.864 131.015 239.843 131.035 239.843 131.074C239.795 131.256 239.798 131.449 239.854 131.63C239.909 131.81 240.013 131.972 240.156 132.095C241.033 133.606 243.451 135.648 244.035 136.394C244.933 137.317 246.395 138.455 247.584 137.356C248.189 136.708 248.676 135.511 247.993 134.745C247.311 133.979 243.412 130.819 241.228 130.465Z" fill="#452D34"/>
<path d="M240.215 126.068C245.382 127.422 249.067 116.213 251.368 120.375C251.612 120.81 251.707 121.313 251.641 121.808C248.911 142.48 279.933 133.371 271.45 145.523L271.294 145.758C268.507 150.921 270.71 152.531 272.29 154.141C272.532 154.384 272.719 154.678 272.836 155.002C272.953 155.326 272.998 155.672 272.966 156.016C272.934 156.359 272.827 156.692 272.653 156.989C272.478 157.285 272.242 157.54 271.957 157.733C263.067 163.878 274.103 165.291 272.269 170.808C269.716 177.659 258.231 172.084 262.325 181.664C262.47 182.015 262.697 182.326 262.988 182.567C270.612 188.83 282.778 184.982 288.297 177.385C288.472 177.139 288.697 176.932 288.954 176.777C289.213 176.621 289.5 176.521 289.798 176.481C299.079 175.029 306.762 162.052 304.734 154.475C301.691 143.206 315.126 117.96 284.183 111.089C280.985 110.363 274.414 101.097 266.089 100.724C263.452 100.44 260.786 100.718 258.263 101.54C255.741 102.362 253.418 103.709 251.445 105.494C251.216 105.7 250.947 105.857 250.655 105.955C250.365 106.053 250.055 106.089 249.749 106.063C247.039 105.887 244.017 107.418 242.203 109.322L241.989 109.577C241.399 110.443 241.168 111.507 241.346 112.542C241.425 112.999 241.368 113.469 241.186 113.895C241.002 114.321 240.698 114.683 240.313 114.937C236.511 117.646 234.346 125.989 239.746 126.009C239.905 126.009 240.062 126.029 240.215 126.068Z" fill="#452D34"/>
<path d="M242.71 119.707C242.71 119.648 242.691 119.589 242.691 119.531L242.73 119.805C242.691 119.585 242.691 119.359 242.73 119.138L242.691 119.393C242.729 119.144 242.795 118.901 242.887 118.667L242.789 118.902C242.889 118.674 243.014 118.457 243.16 118.254L243.003 118.451L243.471 117.98L243.276 118.137C243.453 118.007 243.643 117.895 243.841 117.803L243.627 117.901C245.732 116.763 243.081 114.407 241.228 117.666C239.377 120.924 242.691 122.122 242.71 119.707Z" fill="white"/>
<path d="M260.121 106.79C260.602 106.463 261.111 106.181 261.643 105.946L261.526 105.985C262.987 105.317 265.036 105.219 266.126 105.376C266.985 105.497 267.823 105.727 268.623 106.063C268.721 106.103 268.7 106.083 268.564 106.024C269.294 106.341 269.982 106.75 270.611 107.241L270.534 107.143C271.001 107.595 271.566 108.066 271.957 108.616C271.879 108.498 271.86 108.498 271.937 108.576C272.229 109.047 272.814 109.361 273.342 109.028C273.867 108.694 274.004 108.125 273.692 107.693C271.138 104.179 266.518 102.648 262.345 103.668C261.174 104.081 258.133 104.728 258.796 106.436C259.069 106.868 259.673 107.104 260.121 106.79Z" fill="white"/>
<path d="M292.47 121.494C292.997 121.6 293.512 121.758 294.01 121.965C294.068 121.985 294.166 122.004 293.97 121.945C294.66 122.233 295.308 122.609 295.901 123.064C295.959 123.123 295.92 123.104 295.823 123.025C296.444 123.521 297.012 124.08 297.52 124.694C297.987 125.243 298.65 126.539 298.748 126.794C299.075 127.559 299.298 128.365 299.41 129.189C299.352 128.914 299.41 129.17 299.41 129.229C299.488 129.887 299.488 130.553 299.41 131.211C299.391 131.329 299.429 131.251 299.41 131.152C299.273 131.722 299.371 132.468 300.054 132.625C300.736 132.782 301.146 132.487 301.243 131.938C301.984 127.658 299.859 123.241 296.251 120.944C295.14 120.394 292.566 118.628 291.786 120.296C291.688 120.787 291.942 121.396 292.47 121.494Z" fill="white"/>
<path d="M254.721 124.87C251.659 128.541 256.203 132.114 259.849 132.291C261.057 132.625 261.584 130.721 260.355 130.387C259.127 130.053 257.295 129.68 256.691 129.15C256.489 128.994 256.307 128.816 256.144 128.62C256.397 128.915 255.813 128.169 255.871 128.07C255.988 128.404 255.696 127.56 255.696 127.422C255.734 127.835 255.696 127.089 255.715 126.991C255.734 126.892 255.657 127.187 255.715 127.01C255.774 126.834 255.911 126.362 255.774 126.716C255.793 126.657 256.124 126.127 255.93 126.441C257.06 125.597 255.813 123.908 254.721 124.87Z" fill="white"/>
<path d="M279.464 115.388C279.835 115.859 280.049 116.547 280.654 116.743C280.798 116.778 280.95 116.78 281.096 116.749C281.242 116.717 281.379 116.653 281.497 116.56C281.616 116.468 281.712 116.35 281.778 116.215C281.845 116.08 281.88 115.932 281.881 115.781C281.746 115.094 281.219 114.25 280.575 113.955C279.932 113.661 279.015 114.682 279.464 115.388Z" fill="white"/>
<path d="M274.705 144.62C272.035 146.386 271.528 150.607 273.809 152.924C275.369 153.964 275.914 151.864 274.978 151.314C274.861 151.098 274.667 150.784 274.55 150.548C274.609 150.686 274.609 150.705 274.569 150.607C274.453 150.304 274.374 149.988 274.336 149.665C274.267 148.97 274.368 148.27 274.628 147.623C274.472 147.976 274.726 147.427 274.765 147.368C274.803 147.309 275.232 146.642 275.018 146.975C275.172 146.767 275.349 146.576 275.545 146.406C275.641 146.347 275.622 146.347 275.505 146.445C276.791 145.876 275.993 143.952 274.705 144.62Z" fill="white"/>
<path d="M299.275 154.318C299.976 154.985 300.697 156.811 300.736 157.596C300.811 158.156 300.818 158.723 300.755 159.284C300.736 159.481 300.755 159.245 300.755 159.245C300.676 159.782 300.539 160.309 300.346 160.816C300.288 160.953 300.328 160.776 300.346 160.776C300.152 161.233 299.91 161.667 299.625 162.072L299.548 162.19C299.202 162.625 298.811 163.021 298.377 163.368C298.279 163.446 298.397 163.407 298.416 163.348C297.986 163.678 297.521 163.961 297.032 164.192C295.667 164.428 295.959 166.469 297.343 166.155C299.265 165.442 300.86 164.045 301.828 162.229C303.408 159.265 302.881 155.417 300.638 152.924C299.761 152.021 298.377 153.395 299.275 154.318Z" fill="white"/>
<path d="M269.891 182.921C273.809 184.295 279.172 184.02 281.354 179.937C281.979 178.857 280.302 177.856 279.678 178.955C279.543 179.199 279.394 179.435 279.23 179.662C278.937 180.113 277.728 181.016 277.221 181.173C275.916 181.782 274.18 181.762 273.011 181.625C272.13 181.499 271.261 181.295 270.416 181.016C269.207 180.663 268.682 182.567 269.891 182.921Z" fill="white"/>
<path d="M288.999 171.142C287.478 170.121 284.826 172.084 285.977 173.733C286.619 174.401 287.73 173.812 287.653 172.909L287.613 173.183C287.622 173.096 287.641 173.01 287.672 172.928L287.575 173.164C287.615 173.066 287.667 172.974 287.73 172.889L287.575 173.085C287.644 172.992 287.73 172.912 287.828 172.85L287.634 172.987C287.733 172.909 287.845 172.85 287.965 172.811L287.73 172.909C287.834 172.855 287.946 172.822 288.063 172.811L287.809 172.85C287.911 172.83 288.018 172.83 288.121 172.85L287.848 172.811L288.121 172.889L287.886 172.791C288.978 173.576 290.168 171.849 288.999 171.142Z" fill="white"/>
<path d="M287.186 141.047C287.394 141.076 287.597 141.135 287.79 141.223L287.555 141.106C287.774 141.211 287.983 141.336 288.18 141.479L287.984 141.322C288.168 141.484 288.338 141.661 288.491 141.852L288.335 141.655C288.475 141.837 288.593 142.035 288.687 142.244L288.589 142.009C288.676 142.222 288.736 142.447 288.764 142.676L288.726 142.421C288.608 143.775 290.694 143.913 290.694 142.558C290.617 140.791 288.803 138.711 286.951 139.26C286.229 139.653 286.386 140.87 287.186 141.047Z" fill="white"/>
<path d="M260.104 201.983L260.063 202.043C260.123 201.983 260.123 201.983 260.104 201.983Z" fill="#452D34"/>
<path d="M311.791 220.162C292.001 220.417 292.489 199.842 260.239 199.901C262.131 192.619 251.601 190.047 246.668 188.476C240.565 185.885 236.628 176.325 228.691 177.875C225.748 176.697 222.92 179.544 223.213 182.057C223.182 182.26 223.109 182.454 222.999 182.626C220.95 184.138 218.611 185.905 218.494 188.712C209.739 181.488 198.158 178.994 188.994 172.359C187.063 170.965 183.827 173.674 183.105 174.636C174.195 169.179 165.187 161.444 161.112 151.589C160.429 150.529 159.961 146.877 158.44 147.25C157.972 147.407 157.544 147.957 157.758 148.467C162.243 162.013 173.512 171.829 185.757 178.366C184.158 180.82 182.247 182.94 180.005 184.256C178.913 184.884 179.888 186.611 180.98 185.964C185.055 183.51 188.019 179.367 189.345 174.832C198.625 181.468 210.772 184.02 219.137 191.716C219.497 192.394 220.095 192.911 220.814 193.169C220.6 196.938 224.929 200.176 227.58 202.885C230.231 205.595 233.585 207.853 237.27 209.03C239.045 209.619 240.936 209.639 242.691 210.268C246.941 212.956 250.217 215.352 255.092 211.701C265.036 209.855 273.966 217.629 276.871 226.738C278.665 231.881 278.645 237.849 282.369 242.149C288.335 248.726 298.572 249.02 306.508 246.428C317.758 244.72 330.452 218.729 311.791 220.162ZM220.775 193.089L220.814 193.129C220.795 193.148 220.795 193.11 220.775 193.089ZM220.814 193.188H220.833C220.912 193.326 220.854 193.227 220.814 193.188ZM249.3 211.504C248.313 211.375 247.375 210.997 246.572 210.404C242.184 206.694 236.628 208.343 231.461 203.651C228.282 200.747 223.953 197.624 222.784 193.993C222.999 192.128 221.848 191.225 220.971 191.029C219.586 188.967 220.99 186.454 222.823 185.198C226.586 183.372 223.797 180.427 226.976 179.583C226.976 179.603 226.976 179.603 226.957 179.603C235.633 179.034 236.861 183.745 243.1 188.633C245.459 190.656 248.931 190.989 251.562 192.029C253.513 192.835 256.105 194.64 257.685 195.779C259.81 197.016 257.022 204.516 256.145 206.262C256.105 206.262 254.507 212.387 249.3 211.504ZM319.24 228.211C317.642 244.858 294.458 252.063 283.441 240.382C280.633 236.712 280.498 231.961 279.21 227.68C276.579 217.747 267.667 208.874 256.983 209.502C258.29 207.087 258.582 204.398 260.064 202.042L260.22 201.865C295.667 202.73 288.512 223.518 316.335 222.322C318.615 223.401 319.688 225.64 319.24 228.211Z" fill="#452D34"/>
<path d="M173.493 201.238C173.824 202.434 175.716 201.924 175.365 200.707C173.668 196.428 174.916 190.95 177.022 186.867C177.295 186.533 177.704 186.062 178.153 185.865L178.387 185.806C178.737 185.767 179.09 185.767 179.44 185.806C179.108 185.806 179.44 185.806 179.537 185.826L180.005 185.964L180.064 186.003L180.025 185.964L180.493 186.238C180.473 186.238 180.766 186.454 180.863 186.572C180.874 186.582 180.881 186.596 180.883 186.611H180.902C180.913 186.621 180.92 186.636 180.922 186.651C181.044 186.843 181.149 187.047 181.234 187.259C181.359 187.568 181.444 187.891 181.487 188.221C181.567 188.789 181.554 189.366 181.448 189.929C180.983 190.085 180.538 190.296 180.122 190.557C177.841 192.54 178.465 196.858 179.596 199.745C180.181 201.826 182.364 201.473 181.779 199.706C180.376 197.429 180.083 193.305 181.312 192.088L181.682 191.892C182.345 191.657 182.384 191.696 183.203 191.735H183.3C183.513 191.776 183.722 191.835 183.924 191.912C186.459 193.639 187.551 201.179 188.682 204.594C188.75 204.843 188.913 205.055 189.136 205.183C189.359 205.312 189.623 205.348 189.871 205.281C191.528 204.673 189.579 201.452 189.501 200.138C188.604 196.604 187.18 190.282 183.476 189.694C184.061 185.61 179.986 181.763 176.203 184.845C173.005 188.516 171.66 196.703 173.493 201.238ZM183.944 191.932H183.963C184.1 191.99 184.022 191.971 183.944 191.932ZM181.487 188.221C181.494 188.229 181.499 188.238 181.503 188.249C181.506 188.259 181.507 188.269 181.506 188.28C181.506 188.359 181.506 188.437 181.487 188.221Z" fill="#452D34"/>
<path d="M171.094 202.336C171.601 202.022 171.659 201.512 171.445 201.001C170.704 199.412 170.372 196.407 170.646 194.896C170.834 193.699 171.154 192.526 171.601 191.401C172.225 189.772 173.785 187.573 174.35 187.122C175.696 186.062 173.941 183.725 171.874 186.984C169.788 189.792 168.54 193.286 168.618 196.799C168.735 198.096 169.086 203.298 171.094 202.336Z" fill="#452D34"/>
<path d="M272.054 254.831C271.118 254.516 270.689 255.852 270.612 256.126C270.035 257.443 269.309 258.688 268.448 259.837C265.503 263.724 260.395 267.414 256.574 270.477C250.177 275.346 243.139 281.255 235.418 282.158C233.018 282.481 230.589 282.502 228.184 282.217C233.488 276.681 231.46 252.535 227.696 245.937C226.761 244.111 225.357 242.306 223.349 241.658C230.679 237.398 236.646 231.056 243.334 225.854C244.875 224.677 247.214 222.871 249.32 221.967C249.947 221.704 250.601 221.513 251.27 221.398C251.27 221.379 251.289 221.379 251.309 221.379H251.328C251.865 221.31 252.41 221.31 252.947 221.379C253.921 221.556 254.409 221.713 255.15 222.263C255.325 222.439 256.163 223.401 256.924 222.635C257.104 222.448 257.204 222.198 257.204 221.938C257.204 221.678 257.104 221.428 256.924 221.241C254.702 218.945 251.075 218.964 248.326 220.259C240.896 224.147 234.793 231.018 228.38 235.847C225.454 238.124 222.354 240.225 218.961 241.736L218.844 241.815C218.38 242.084 218.006 242.487 217.773 242.974C217.643 243.265 217.63 243.594 217.733 243.895C217.417 243.809 217.119 243.663 216.856 243.465C209.864 235.937 203.469 227.869 197.728 219.338C197.884 218.626 198.099 217.931 198.372 217.256C198.765 216.383 199.248 215.554 199.815 214.782C199.815 214.778 199.816 214.772 199.818 214.767C199.819 214.763 199.822 214.758 199.826 214.754C199.829 214.751 199.834 214.748 199.838 214.747C199.844 214.744 199.848 214.744 199.854 214.744V214.704C200.682 213.69 201.616 212.768 202.641 211.955C204.534 211.013 203.792 209.187 202.33 209.777C199.951 211.485 197.826 213.585 196.656 216.333C196.578 216.589 196.441 216.883 196.305 217.216C195.057 215.214 193.614 212.603 193.029 211.151C192.766 210.547 192.551 209.924 192.386 209.286C192.054 208.088 190.163 208.579 190.495 209.816C192.717 216.49 197.241 222.106 201.257 227.739C205.82 233.669 210.382 239.635 215.608 244.976C215.754 245.096 215.91 245.201 216.076 245.29C216.117 245.37 216.17 245.442 216.232 245.506C217.363 246.724 218.513 247.881 219.566 249.158C219.656 249.249 219.764 249.323 219.884 249.373C220.002 249.423 220.129 249.448 220.258 249.448C220.388 249.448 220.515 249.423 220.633 249.373C220.753 249.323 220.859 249.249 220.95 249.158C221.633 248.352 220.599 247.154 219.488 246.055C220.585 245.997 221.674 245.846 222.744 245.603C223.309 245.427 224.207 245.349 224.714 244.957C227.248 247.763 228.203 253.614 228.77 257.206C229.568 263.292 229.743 272.538 228.321 277.78H228.282C225.42 278.358 222.484 278.477 219.586 278.133C216.524 277.799 212.625 276.798 210.168 275.738C206.931 274.345 203.909 272.421 201.121 270.261C183.144 255.458 169.144 230.135 165.323 207.166C164.913 204.005 164.738 200.785 165.147 197.605C165.186 196.898 165.888 194.052 166.278 193.246C166.665 192.331 167.162 191.467 167.76 190.675C168.228 190.047 169.417 188.889 170.392 188.398C171.367 187.907 170.49 186.081 169.398 186.71C165.518 189.32 163.685 193.305 163.081 197.84C161.677 196.879 160.175 195.798 159.103 194.955C152.318 189.674 146.488 183.294 141.282 176.481C139.371 174.028 136.953 170.651 134.984 167.804C134.341 166.705 132.644 167.706 133.307 168.786C141.457 180.663 150.738 192.147 162.886 200.079C162.515 208.54 165.771 218.395 168.014 224.932C172.089 235.003 177.158 245.368 183.69 254.537C183.105 263.92 182.325 273.285 181.253 282.628C180.473 291.541 180.18 300.552 181.409 309.446C181.721 310.644 183.612 310.153 183.3 308.915C180.98 291.738 184.626 274.266 185.503 256.99C191.899 265.412 199.619 272.616 209.017 277.348C212.917 278.958 217.11 280.018 221.341 280.253C221.185 280.49 221.164 280.823 221.36 281.216C221.589 281.624 221.903 281.979 222.28 282.256C222.656 282.534 223.087 282.728 223.544 282.825C223.601 282.941 223.684 283.044 223.785 283.125C223.886 283.206 224.003 283.265 224.128 283.296C235.788 287.046 246.376 281.216 255.209 273.952C261.253 268.985 268.565 264.705 272.133 257.441C272.523 256.637 273.321 255.242 272.054 254.831Z" fill="#452D34"/>
<path d="M182.207 226.758C186.45 226.758 189.89 223.295 189.89 219.023C189.89 214.751 186.45 211.288 182.207 211.288C177.965 211.288 174.525 214.751 174.525 219.023C174.525 223.295 177.965 226.758 182.207 226.758Z" fill="#EFDCC4"/>
<path d="M195.155 217.688C195.018 217.216 194.472 216.824 193.965 217C193.458 217.178 192.113 217.668 190.923 218.179C190.76 216.39 190.052 214.697 188.896 213.33C190.631 212.761 192.932 212.073 192.561 210.954C192.425 210.503 191.879 210.052 191.372 210.268L187.336 211.857C186.228 211.054 184.949 210.522 183.6 210.304C182.252 210.088 180.871 210.191 179.57 210.607C178.268 211.023 177.081 211.739 176.104 212.701C175.126 213.66 174.386 214.838 173.941 216.137C171.776 216.373 168.286 218.513 167.331 219.199C166.376 219.887 167.233 221.556 168.325 220.908C169.866 219.808 171.328 218.925 172.966 218.454C173.133 218.376 173.31 218.323 173.492 218.297C173.473 218.532 173.453 218.767 173.453 219.023C173.452 220.797 173.99 222.53 174.994 223.99L169.846 226.542C168.754 227.17 169.729 228.878 170.841 228.25C172.654 227.308 174.487 226.424 176.3 225.52C177.46 226.592 178.886 227.327 180.427 227.65C181.968 227.974 183.567 227.874 185.056 227.359C186.544 226.845 187.868 225.936 188.887 224.728C189.906 223.52 190.582 222.057 190.845 220.496C191.469 220.162 192.054 219.73 192.308 219.73C193.224 219.141 195.408 219.199 195.155 217.688ZM182.208 225.678C180.895 225.682 179.611 225.293 178.518 224.562C177.424 223.83 176.572 222.788 176.067 221.566C175.563 220.346 175.43 219.002 175.686 217.706C175.941 216.409 176.573 215.219 177.501 214.284C178.429 213.349 179.612 212.712 180.9 212.457C182.188 212.199 183.522 212.333 184.734 212.84C185.946 213.349 186.982 214.207 187.709 215.307C188.435 216.408 188.821 217.701 188.818 219.023C188.824 219.273 188.811 219.521 188.779 219.768C188.755 219.858 188.742 219.951 188.74 220.043C188.494 221.612 187.702 223.039 186.504 224.072C185.307 225.104 183.784 225.675 182.208 225.678Z" fill="#452D34"/>
<path d="M184.567 216.628C183.713 216.628 182.876 216.865 182.149 217.315C181.603 215.862 180.804 214.115 179.575 214.645C179.166 214.92 178.932 215.529 179.224 215.98C179.708 216.706 180.126 217.475 180.472 218.278C180.862 220.064 181.954 220.377 182.851 219.199C183.031 219.029 183.243 218.895 183.475 218.807H183.494C183.712 218.711 183.942 218.647 184.177 218.611C184.313 218.591 184.255 218.611 184.196 218.611C185.659 218.826 186.127 216.805 184.567 216.628Z" fill="#D13535"/>
<path d="M142.861 155.24C143.701 155.194 144.543 155.227 145.377 155.338C146.234 155.417 148.399 156.065 149.588 157.105C149.296 156.889 149.471 157.007 149.549 157.066C150.163 157.563 150.719 158.13 151.206 158.754C151.245 158.813 151.362 158.99 151.148 158.695C155.593 164.977 155.262 173.615 157.758 181.095C158.986 185.375 162.086 189.654 166.883 189.831C167.682 189.909 169.008 190.008 169.008 188.869C168.93 187.259 166.571 188.3 164.738 187.357C156.217 183.176 159.278 165.606 152.61 157.419C150.368 154.396 146.527 153.042 142.861 153.277C141.613 153.297 141.594 155.24 142.861 155.24Z" fill="#D13535"/>
<path d="M188.233 192.854C188.583 189.831 186.556 186.788 183.397 186.729C182.715 186.611 181.779 186.847 181.798 187.691C181.818 188.535 182.812 188.712 183.572 188.712C183.768 188.732 183.26 188.653 183.475 188.692C183.836 188.748 184.19 188.847 184.528 188.987C184.946 189.171 185.314 189.453 185.6 189.811C185.756 189.988 185.483 189.615 185.6 189.811C185.749 190.004 185.874 190.215 185.971 190.439C186.029 190.557 185.932 190.498 185.932 190.361C186.077 190.708 186.181 191.07 186.244 191.441C186.244 191.519 186.244 191.657 186.224 191.382C186.292 191.869 186.312 192.363 186.283 192.854C186.263 194.13 188.213 194.13 188.233 192.854Z" fill="#D13535"/>
<path d="M149.1 245.8L148.476 245.742C148.418 245.742 148.106 245.702 148.34 245.742C147.541 245.662 146.039 245.173 145.649 244.995C144.59 244.526 143.588 243.934 142.666 243.228C139.858 241.03 136.934 236.888 136.485 233.02C136.284 231.39 136.297 229.739 136.524 228.112C138.591 212.859 152.571 202.159 166.259 195.956C169.183 194.64 175.169 192.795 177.372 193.698C178.464 194.346 179.478 192.619 178.367 192.01C177.255 191.401 175.579 191.441 174.155 191.617C161.521 194.012 149.724 202.1 141.535 211.917C135.315 219.73 131.104 232.137 137.792 240.873C139.936 243.817 142.881 246.35 146.449 247.332C147.316 247.564 148.204 247.708 149.1 247.763C150.368 247.763 150.368 245.82 149.1 245.8Z" fill="#D13535"/>
</g>
<defs>
<clipPath id="clip0_359_9187">
<rect width="428" height="429.202" fill="white" transform="translate(0 -9)"/>
</clipPath>
</defs>
</svg>
