<svg width="492" height="423" viewBox="0 0 492 423" fill="none" xmlns="http://www.w3.org/2000/svg">
<path d="M51.0436 259.044C21.7156 179.292 92.4902 90.3073 185.889 60.0822C279.287 29.8572 404.345 60.9727 433.673 140.725C463.001 220.477 428.408 319.539 335.01 349.764C241.611 379.989 80.3716 338.796 51.0436 259.044Z" fill="white"/>
<path d="M369.616 179.013C366.014 179.063 365.511 175.297 365.107 172.578L363.017 175.147C359.969 178.913 353.999 174.748 356.493 170.658C350.876 171.555 348.785 162.851 357.677 162.427C354.856 161.055 351.707 159.084 353.596 155.543C355.484 152.001 359.213 154.021 361.858 155.717C361.103 152.675 360.347 148.858 364.401 147.936C368.457 147.013 369.238 151.203 369.692 154.296C370.875 152.949 372.336 150.33 374.427 150.28C377.827 149.781 380.195 154.071 377.979 156.665L376.115 158.935C383.193 156.441 385.636 164.272 380.119 166.193C384.074 169.086 380.02 175.222 375.762 172.778L372.916 171.156C373.797 174.598 374.401 178.564 369.616 179.013ZM365.686 169.286C365.919 169.282 366.145 169.36 366.326 169.506C366.505 169.653 366.627 169.857 366.669 170.084L367.702 175.446C368.13 177.916 372.085 177.192 371.58 174.698L370.547 169.385C370.514 169.199 370.534 169.007 370.605 168.831C370.677 168.656 370.8 168.504 370.954 168.394C371.11 168.284 371.295 168.221 371.487 168.211C371.678 168.201 371.868 168.245 372.034 168.338L376.77 171.057C378.961 172.354 380.951 168.912 378.734 167.665L376.82 166.567C376.637 166.47 376.49 166.319 376.4 166.134C376.309 165.949 376.28 165.741 376.317 165.539C376.354 165.337 376.453 165.152 376.602 165.009C376.751 164.867 376.943 164.775 377.148 164.746L379.515 164.297C381.178 164.023 381.707 161.653 380.246 160.756C379.062 159.309 371.481 163.449 372.865 159.808C373.395 158.86 377.223 155.219 376.82 153.972C376.693 152.3 374.351 151.627 373.318 152.974L369.892 157.239C369.772 157.384 369.609 157.492 369.429 157.55C369.247 157.608 369.052 157.613 368.867 157.566C368.684 157.519 368.515 157.421 368.385 157.284C368.255 157.147 368.167 156.975 368.13 156.79C367.475 155.144 367.827 149.233 364.779 149.881C364.267 149.984 363.815 150.282 363.523 150.711C363.231 151.141 363.122 151.667 363.219 152.176L364.225 157.488C363.873 161.653 357.249 152.774 355.335 156.54C355.203 156.761 355.117 157.006 355.081 157.26C355.045 157.514 355.061 157.772 355.126 158.02C355.192 158.268 355.307 158.501 355.463 158.705C355.619 158.909 355.815 159.08 356.04 159.209L361.002 162.028C361.808 162.452 361.58 163.724 360.699 163.873C359.817 164.023 354.528 164.522 354.025 165.719C353.017 167.091 354.326 169.111 356.014 168.737L358.734 168.213C359.615 168.014 360.296 169.136 359.716 169.809L358.382 171.456C356.745 173.401 359.868 175.895 361.455 173.9C361.958 173.501 364.906 169.036 365.686 169.286Z" fill="#D13535"/>
<path d="M316.72 106.158C316.452 106.158 316.195 106.053 316.007 105.866C315.817 105.679 315.712 105.425 315.712 105.161V81.5158C315.718 81.2555 315.828 81.0081 316.016 80.8263C316.205 80.6446 316.457 80.5428 316.72 80.543C316.98 80.543 317.23 80.6454 317.415 80.8279C317.598 81.0103 317.702 81.2577 317.702 81.5158V105.161C317.705 105.29 317.683 105.419 317.635 105.54C317.586 105.661 317.514 105.772 317.422 105.865C317.332 105.957 317.222 106.031 317.101 106.082C316.98 106.132 316.85 106.158 316.72 106.158Z" fill="#CE9C5C"/>
<path d="M308.181 104.487C307.944 104.485 307.713 104.406 307.526 104.263C307.323 104.093 307.196 103.851 307.173 103.59C307.15 103.328 307.231 103.068 307.399 102.866L324.477 82.7128C324.651 82.5111 324.899 82.3859 325.166 82.3649C325.432 82.3438 325.696 82.4286 325.9 82.6006C326.105 82.7727 326.23 83.0177 326.252 83.282C326.273 83.5463 326.188 83.808 326.015 84.0098L308.935 104.138C308.842 104.245 308.726 104.331 308.596 104.391C308.466 104.451 308.323 104.484 308.181 104.487Z" fill="#CE9C5C"/>
<path d="M326.09 103.714C325.959 103.713 325.829 103.687 325.706 103.635C325.585 103.584 325.477 103.509 325.385 103.415L306.619 84.8331C306.503 84.7473 306.408 84.6379 306.339 84.5125C306.271 84.3869 306.229 84.2481 306.219 84.1056C306.208 83.963 306.229 83.82 306.28 83.6861C306.33 83.5521 306.41 83.4305 306.511 83.3294C306.613 83.2284 306.736 83.1502 306.872 83.1002C307.006 83.0502 307.152 83.0296 307.296 83.0398C307.439 83.0499 307.579 83.0905 307.706 83.159C307.833 83.2273 307.943 83.322 308.03 83.4362L326.795 102.018C326.89 102.109 326.965 102.217 327.016 102.337C327.068 102.457 327.094 102.586 327.094 102.716C327.094 102.847 327.068 102.975 327.016 103.095C326.965 103.215 326.89 103.324 326.795 103.415C326.705 103.51 326.595 103.586 326.474 103.637C326.353 103.689 326.222 103.715 326.09 103.714Z" fill="#CE9C5C"/>
<path d="M328.634 94.3359H304.78C304.512 94.3359 304.256 94.2307 304.067 94.0436C303.879 93.8565 303.771 93.6028 303.771 93.3381C303.771 93.0736 303.879 92.8198 304.067 92.6327C304.256 92.4456 304.512 92.3405 304.78 92.3405H328.634C328.9 92.3405 329.157 92.4456 329.345 92.6327C329.535 92.8198 329.641 93.0736 329.641 93.3381C329.641 93.6028 329.535 93.8565 329.345 94.0436C329.157 94.2307 328.9 94.3359 328.634 94.3359Z" fill="#CE9C5C"/>
<path d="M153.774 139.73C153.507 139.73 153.251 139.625 153.062 139.438C152.873 139.25 152.767 138.997 152.767 138.732V115.112C152.767 114.848 152.873 114.594 153.062 114.407C153.251 114.22 153.507 114.115 153.774 114.115C153.905 114.115 154.035 114.141 154.156 114.191C154.277 114.241 154.386 114.315 154.478 114.408C154.569 114.501 154.641 114.611 154.689 114.732C154.737 114.853 154.76 114.982 154.757 115.112V138.732C154.76 138.862 154.737 138.991 154.689 139.112C154.641 139.233 154.569 139.343 154.478 139.436C154.386 139.529 154.277 139.603 154.156 139.653C154.035 139.704 153.905 139.73 153.774 139.73Z" fill="#CE9C5C"/>
<path d="M145.235 138.084C144.993 138.083 144.76 137.994 144.58 137.834C144.378 137.665 144.251 137.423 144.228 137.161C144.204 136.9 144.286 136.64 144.454 136.437L161.532 116.309C161.711 116.14 161.947 116.041 162.195 116.033C162.443 116.025 162.685 116.107 162.875 116.265C163.066 116.422 163.191 116.643 163.226 116.886C163.262 117.129 163.206 117.377 163.069 117.582L145.991 137.71C145.902 137.825 145.788 137.919 145.657 137.984C145.526 138.048 145.382 138.083 145.235 138.084Z" fill="#CE9C5C"/>
<path d="M163.143 137.31C163.012 137.31 162.881 137.283 162.76 137.232C162.639 137.18 162.53 137.105 162.438 137.011L143.673 118.429C143.577 118.337 143.502 118.226 143.45 118.104C143.399 117.982 143.372 117.851 143.372 117.719C143.372 117.586 143.399 117.455 143.45 117.333C143.502 117.211 143.577 117.101 143.673 117.008C143.861 116.825 144.114 116.723 144.378 116.723C144.642 116.723 144.895 116.825 145.083 117.008L163.849 135.614C163.943 135.705 164.018 135.814 164.07 135.934C164.121 136.054 164.147 136.183 164.147 136.313C164.147 136.443 164.121 136.572 164.07 136.692C164.018 136.812 163.943 136.92 163.849 137.011C163.758 137.107 163.649 137.182 163.528 137.234C163.406 137.285 163.276 137.311 163.143 137.31Z" fill="#CE9C5C"/>
<path d="M165.688 127.907H141.835C141.704 127.911 141.573 127.888 141.451 127.841C141.329 127.793 141.218 127.722 141.124 127.632C141.03 127.541 140.955 127.432 140.904 127.313C140.853 127.193 140.827 127.065 140.827 126.935C140.827 126.67 140.933 126.416 141.122 126.229C141.311 126.042 141.567 125.937 141.835 125.937H165.688C165.956 125.937 166.212 126.042 166.401 126.229C166.59 126.416 166.696 126.67 166.696 126.935C166.696 127.065 166.67 127.193 166.619 127.313C166.568 127.432 166.493 127.541 166.399 127.632C166.305 127.722 166.194 127.793 166.072 127.841C165.95 127.888 165.819 127.911 165.688 127.907Z" fill="#CE9C5C"/>
<path d="M175.839 260.049C176.721 258.577 177.452 257.031 176.368 255.685C161.759 237.402 150.953 222.761 150.953 222.761C147.25 218.172 147.578 211.462 151.91 207.472C153.051 206.425 154.397 205.622 155.865 205.114C157.332 204.605 158.89 204.402 160.441 204.517C161.992 204.632 163.502 205.062 164.877 205.78C166.252 206.499 167.463 207.491 168.434 208.694L172.036 213.183C173.271 214.73 175.073 215.729 177.049 215.967C179.025 216.207 181.016 215.663 182.59 214.455L182.691 214.355C184.26 213.148 185.285 211.375 185.545 209.424C185.804 207.473 185.276 205.499 184.076 203.93L179.013 197.32C170.096 186.221 153.85 184.151 142.389 192.432C130.046 201.361 127.93 218.646 137.452 230.493L166.066 264.164C167.149 265.487 167.603 265.661 169.265 265.162C171.86 264.388 174.479 262.319 175.839 260.049Z" fill="#D13535"/>
<path d="M206.443 291.351L211.859 298.109C213.094 299.642 213.678 301.59 213.485 303.543C213.292 305.495 212.338 307.294 210.826 308.561C210.796 308.606 210.752 308.641 210.7 308.659C209.923 309.319 209.019 309.815 208.043 310.12C207.068 310.424 206.04 310.531 205.022 310.432C204.004 310.335 203.016 310.035 202.117 309.55C201.219 309.066 200.429 308.406 199.793 307.613L194.68 301.253C193.597 299.906 194.101 298.709 194.73 297.086C196.066 293.57 199.113 291.725 201.859 290.802C203.622 290.178 205.285 289.88 206.443 291.351Z" fill="#D13535"/>
<path d="M134.227 211.712C137.703 212.934 141.255 213.881 144.756 215.054C147.325 215.876 149.768 212.759 148.307 210.489C146.015 207.945 141.053 207.721 137.905 206.349C136.494 205.9 134.882 205.102 133.471 206.025C131.103 207.322 131.607 211.039 134.227 211.712Z" fill="#CE9C5C"/>
<path d="M145.865 238.624C149.542 238.076 153.069 236.305 155.915 233.985C158.963 230.692 153.925 226.553 151.028 229.919L151.658 229.445C150.24 230.467 148.7 231.313 147.074 231.964L147.804 231.64C146.959 232.045 146.06 232.331 145.134 232.488L145.965 232.364C141.784 232.288 141.709 238.624 145.865 238.624Z" fill="#CE9C5C"/>
<path d="M161.91 257.504C164.631 257.256 171.28 253.289 171.306 250.372C171.331 248.725 169.845 247.204 168.157 247.254C166.47 247.304 165.537 248.7 164.278 249.573L164.908 249.075C163.749 249.973 162.49 250.87 161.13 251.444L161.885 251.144C161.645 251.253 161.391 251.329 161.13 251.368L161.961 251.27C157.83 251.22 157.805 257.53 161.91 257.504Z" fill="#CE9C5C"/>
<path d="M203.546 305.493C205.864 303.872 209.617 302.425 209.969 299.307C209.995 297.661 208.508 296.14 206.821 296.19C205.133 296.24 204.126 297.661 202.866 298.559L203.496 298.061C202.035 299.432 199.516 299.88 198.912 301.975C198.106 304.569 201.179 306.914 203.546 305.493Z" fill="#CE9C5C"/>
<path d="M156.57 189.738C156.041 193.579 155.915 197.47 155.386 201.311L155.512 200.488C154.605 203.107 157.729 205.626 160.122 204.129C162.515 202.633 161.86 193.878 162.741 190.686L162.615 191.534C163.824 187.543 157.678 185.722 156.57 189.738Z" fill="#CE9C5C"/>
<path d="M164.756 267.532C163.623 267.532 162.817 267.008 161.835 265.785L133.195 232.114C130.78 229.133 129.002 225.695 127.972 222.012C126.941 218.329 126.679 214.477 127.2 210.689C128.913 195.849 143.774 184.725 158.661 186.994C170.223 188.591 175.663 195.051 182.011 203.855C188.736 213.383 175.436 223.633 167.779 214.804C164.706 211.113 162.616 206.998 157.15 206.624C148.51 205.925 143.396 216.026 148.888 222.711C148.988 222.836 159.87 237.526 174.278 255.585C176.066 257.828 174.58 260.298 173.85 261.496C171.986 264.564 168.359 267.258 164.756 267.532ZM135.361 230.393L163.976 264.014C164.404 264.588 164.706 264.812 164.706 264.788C167.175 264.564 170.172 262.269 171.482 260.099C172.515 258.378 172.49 257.754 172.112 257.28C157.93 239.521 147.15 224.98 146.671 224.332C139.769 215.802 146.369 203.007 157.376 203.905C163.799 204.379 166.369 208.594 169.945 213.083C170.958 214.377 172.447 215.219 174.086 215.425C175.725 215.631 177.38 215.183 178.686 214.181C179.992 213.178 180.842 211.704 181.05 210.08C181.258 208.457 180.806 206.819 179.794 205.526L174.756 198.917C152.54 173.626 115.286 203.431 135.361 230.393Z" fill="#452D34"/>
<path d="M202.614 312.602C197.123 313.1 193.446 306.34 190.423 302.874C187.199 298.335 193.37 291.525 198.232 290.254C199.466 289.804 202.388 288.807 204.352 291.251L209.768 297.985C214.604 303.622 209.944 312.75 202.614 312.602ZM201.053 292.423C197.501 292.797 193.698 295.465 192.791 298.483C192.161 300.106 192.086 300.504 192.615 301.153C194.856 303.448 198.181 309.882 201.985 309.808C207.325 310.456 211.153 303.822 207.602 299.706C206.896 299.182 202.136 291.975 201.053 292.423Z" fill="#452D34"/>
<path d="M370.8 218.146C361.681 209.717 347.198 210.763 339.112 220.167L289.869 277.184C296.04 277.158 301.783 277.334 306.191 277.408L347.501 229.645C350.648 226.003 356.115 225.206 360.044 228.024C361.069 228.765 361.928 229.705 362.569 230.79C363.21 231.873 363.618 233.076 363.77 234.323C363.921 235.57 363.811 236.835 363.448 238.038C363.084 239.241 362.474 240.357 361.657 241.318L358.558 244.908C357.506 246.136 356.983 247.722 357.1 249.326C357.218 250.932 357.968 252.426 359.187 253.489L359.288 253.564C360.511 254.62 362.105 255.154 363.722 255.051C365.341 254.948 366.853 254.217 367.928 253.015L372.514 247.952C380.095 239.173 379.264 225.953 370.8 218.146Z" fill="#EFDCC4"/>
<path d="M361.303 253.089C362.663 253.639 365.761 254.536 366.038 252.417C366.014 250.946 364.452 251.244 363.419 251.17L363.746 251.22C363.29 251.153 362.842 251.037 362.412 250.87L362.713 250.996C361.303 250.022 359.817 252.217 361.303 253.089Z" fill="#CE9C5C"/>
<path d="M368.532 250.471C371.858 247.75 374.324 244.14 375.636 240.071C375.862 238.624 377.424 235.98 375.535 235.182C373.419 234.858 373.973 237.676 373.344 238.948C372.807 240.801 371.982 242.559 370.9 244.161C369.774 245.889 368.37 247.422 366.743 248.7C365.585 249.797 367.349 251.594 368.532 250.471Z" fill="#CE9C5C"/>
<path d="M372.11 228.498C372.764 229.42 373.294 231.242 373.369 231.99C373.118 234.458 375.586 235.058 375.964 232.963C375.838 231.292 375.082 225.778 372.563 226.777C372.275 226.948 372.067 227.224 371.983 227.545C371.897 227.868 371.943 228.208 372.11 228.498Z" fill="#CE9C5C"/>
<path d="M368.532 224.407C369.365 224.782 370.397 225.779 371.279 225.03C372.916 223.659 370.195 221.988 368.835 222.138C367.475 222.286 367.576 223.907 368.532 224.407Z" fill="#CE9C5C"/>
<path d="M310.119 278.855C305.661 278.781 299.792 278.681 293.646 278.731C292.512 278.755 291.807 277.308 292.589 276.46L339.313 222.236C341.394 219.834 343.945 217.87 346.809 216.464C349.674 215.058 352.796 214.24 355.989 214.057C376.114 212.66 387.978 236.853 374.829 251.818C374.855 251.843 370.245 256.881 370.245 256.906C368.916 258.412 367.037 259.331 365.022 259.465C363.007 259.598 361.022 258.933 359.502 257.618C357.982 256.301 357.054 254.441 356.919 252.446C356.784 250.45 357.455 248.484 358.784 246.979L361.858 243.413C362.556 242.595 363.076 241.644 363.388 240.618C363.7 239.592 363.796 238.515 363.671 237.452C362.99 230.767 354.15 228.298 349.843 233.511L311.178 278.357C311.048 278.511 310.887 278.635 310.704 278.722C310.522 278.808 310.323 278.853 310.119 278.855ZM296.643 275.961L309.491 276.087L347.727 231.714C353.545 224.706 365.534 228.124 366.416 237.127C367.121 242.14 363.948 245.333 360.9 248.75C360.056 249.706 359.629 250.955 359.713 252.223C359.798 253.491 360.388 254.673 361.353 255.509C362.318 256.347 363.581 256.769 364.861 256.684C366.14 256.601 367.335 256.016 368.18 255.06L372.739 250.022C384.401 237.053 373.695 215.404 356.139 216.799C353.324 216.957 350.568 217.676 348.04 218.914C345.513 220.153 343.264 221.886 341.429 224.007L296.643 275.961Z" fill="#452D34"/>
<path d="M347.978 200.238C336.644 195.1 323.244 200.612 318.557 212.086L291.479 278.356C296.19 278.281 300.875 278.281 305.107 278.331L329.566 218.446C331.379 214.007 336.316 211.537 340.926 212.984C342.136 213.36 343.255 213.981 344.212 214.807C345.169 215.632 345.941 216.646 346.483 217.782C347.026 218.918 347.324 220.153 347.36 221.409C347.396 222.665 347.17 223.915 346.694 225.08L344.93 229.445C344.312 230.937 344.315 232.611 344.938 234.102C345.56 235.593 346.752 236.779 348.256 237.401H348.382C349.878 238.026 351.564 238.036 353.07 237.435C354.575 236.832 355.778 235.662 356.417 234.184L359.138 227.949C361.214 222.794 361.214 217.046 359.138 211.89C357.061 206.735 353.068 202.564 347.978 200.238Z" fill="#D13535"/>
<path d="M350.094 227.201C353.293 226.701 357.701 227.65 359.943 224.832C360.8 223.435 360.296 221.364 358.811 220.565C357.323 219.768 355.838 220.541 354.326 220.715L355.183 220.591C352.79 221.14 349.843 220.241 347.853 221.888C345.862 223.535 347.374 227.325 350.094 227.201Z" fill="white"/>
<path d="M346.165 211.338C346.719 209.542 347.123 207.696 347.853 205.925L347.525 206.674C347.762 206.116 348.067 205.588 348.433 205.102L347.954 205.726C351.858 202.957 347.954 197.445 344.225 200.563C342.186 202.059 339.061 209.841 340.397 212.086C341.731 214.331 345.486 213.931 346.165 211.338Z" fill="white"/>
<path d="M329.868 209.841H329.768L330.599 209.941H330.447L331.203 210.241L330.977 210.115L331.606 210.589C331.37 210.372 331.159 210.13 330.977 209.866L331.456 210.489C329.516 208.594 328.936 205.102 326.292 204.055C324.704 203.606 322.816 204.628 322.412 206.249C322.084 209.542 325.31 212.41 327.097 214.954C331.808 219.244 336.165 210.763 329.868 209.866V209.841Z" fill="white"/>
<path d="M323.721 223.859C320.875 223.709 317.5 221.314 314.905 222.536C312.312 223.759 313.042 227.525 315.636 228.224C318.23 228.922 321.631 230.643 324.477 229.545C326.819 228.298 326.342 224.457 323.721 223.859Z" fill="white"/>
<path d="M316.366 241.368C313.521 241.118 310.523 238.798 307.752 239.995C306.291 240.819 305.711 242.865 306.619 244.286C307.053 244.97 307.725 245.475 308.508 245.707C311.279 246.207 314.327 248.226 317.122 247.054C319.465 245.807 318.986 241.966 316.366 241.368Z" fill="white"/>
<path d="M308.936 257.406C307.329 257.48 305.718 257.406 304.125 257.18L304.956 257.306C296.694 254.512 297.072 265.062 303.521 262.643L301.934 263.067H302.009L301.179 262.941C304.352 263.241 308.357 264.738 311.179 262.743C313.143 260.896 311.656 257.306 308.936 257.406Z" fill="white"/>
<path d="M303.771 270.075C302.249 270.135 300.725 270.068 299.213 269.876L300.044 269.976C294.05 267.93 291.958 273.866 296.366 275.663C299.414 275.987 303.318 277.334 305.988 275.389C307.979 273.568 306.492 269.976 303.771 270.075Z" fill="white"/>
<path d="M288.684 278.781C288.458 278.775 288.238 278.716 288.039 278.608C287.841 278.5 287.672 278.347 287.546 278.163C287.421 277.976 287.341 277.763 287.315 277.541C287.291 277.319 287.32 277.093 287.399 276.884L314.477 210.615C315.686 207.683 317.477 205.022 319.745 202.79C322.012 200.557 324.71 198.799 327.676 197.62C346.014 189.838 365.484 209.516 357.626 227.549C355.284 233.287 352.84 240.569 344.956 237.702C343.122 236.933 341.665 235.485 340.899 233.667C340.131 231.849 340.114 229.804 340.85 227.974C342.135 224.882 344.352 220.741 342.436 217.423C339.742 211.313 330.423 211.712 328.054 217.997L303.596 277.882C303.487 278.138 303.307 278.358 303.073 278.513C302.84 278.669 302.568 278.752 302.286 278.755C297.248 278.705 292.791 278.705 288.684 278.781ZM336.266 198.717C328.03 198.642 320.069 204.03 317.048 211.637L290.75 276.011C294.024 275.961 297.526 275.961 301.379 275.987L325.486 216.975C328.659 208.52 341.329 208.02 344.956 216.251C349.314 224.382 338.028 231.016 346.115 235.232C351.883 237.402 353.269 230.143 355.057 226.503C360.648 213.657 350.32 198.493 336.266 198.717Z" fill="#452D34"/>
<path d="M283.999 213.507H284.125C285.694 213.922 287.365 213.712 288.779 212.918C290.193 212.125 291.235 210.813 291.681 209.268L292.967 204.728C293.32 203.522 293.921 202.402 294.731 201.435C295.54 200.468 296.542 199.677 297.673 199.108C298.804 198.54 300.04 198.208 301.305 198.132C302.572 198.056 303.84 198.238 305.032 198.667C309.566 200.338 311.958 205.277 310.623 209.891L291.681 276.61C296.19 276.536 300.574 276.56 304.654 276.61L323.268 211.537C326.669 199.665 319.515 187.169 307.349 184.326C296.089 181.707 284.553 188.341 281.38 199.465L279.666 206.05C279.25 207.608 279.472 209.265 280.283 210.662C281.094 212.059 282.429 213.081 283.999 213.507Z" fill="#CE9C5C"/>
<path d="M289.667 188.441C287.048 189.065 286.518 192.881 288.911 194.153C289.494 194.437 290.05 194.771 290.574 195.15C291.306 195.746 291.973 196.414 292.563 197.146C292.589 197.171 292.614 197.196 292.614 197.221C293.042 199.54 296.316 200.662 298.081 198.842C301.757 195.5 293.168 187.618 289.667 188.441Z" fill="#D13535"/>
<path d="M311.378 198.991C312.179 197.65 313.061 196.358 314.024 195.125L313.545 195.749C315.107 193.729 318.432 191.209 315.887 188.616C311.681 185.074 308.029 193.105 305.938 195.849C303.898 199.39 309.262 202.508 311.378 198.991Z" fill="#D13535"/>
<path d="M309.944 220.341C312.765 221.214 316.745 224.083 319.617 222.761C320.333 222.339 320.853 221.656 321.066 220.858C321.278 220.061 321.164 219.212 320.75 218.496C319.063 216.351 315.763 216.426 313.471 215.104L314.227 215.428C310.296 212.584 305.914 217.399 309.944 220.341Z" fill="#D13535"/>
<path d="M303.571 244.386C305.51 245.782 307.903 246.331 310.245 246.431L309.414 246.305L309.918 246.431L309.163 246.131L309.39 246.257L308.759 245.757L308.885 245.907L308.407 245.258C308.432 245.308 308.458 245.333 308.458 245.383L308.155 244.634C308.684 247.304 312.638 247.928 313.949 245.508C315.661 242.265 312.009 239.771 308.961 240.095L309.818 240.195C309.062 240.095 308.325 239.894 307.626 239.597L308.357 239.921C303.899 236.305 299.566 241.268 303.571 244.386Z" fill="#D13535"/>
<path d="M298.306 265.487C301.253 265.611 304.806 267.332 307.575 266.259C309.943 265.012 309.465 261.146 306.821 260.548C304.175 259.949 301.429 259.451 298.735 259.401C295.41 259.649 295.083 264.762 298.306 265.487Z" fill="#D13535"/>
<path d="M288.887 278.781C288.674 278.775 288.464 278.723 288.275 278.628C288.086 278.532 287.921 278.394 287.793 278.226C287.664 278.058 287.575 277.864 287.534 277.658C287.491 277.451 287.497 277.238 287.551 277.034L306.393 211.137C307.525 207.147 305.459 202.957 301.657 201.56C297.854 200.164 292.513 202.483 291.405 206.723L290.12 211.237C289.505 213.068 288.204 214.595 286.487 215.507C284.771 216.419 282.767 216.646 280.886 216.143C279.006 215.639 277.392 214.442 276.373 212.798C275.355 211.153 275.011 209.185 275.41 207.297C275.435 207.297 277.122 200.737 277.122 200.712C282.513 181.532 309.188 177.891 319.314 195.275C320.934 198.002 321.98 201.025 322.392 204.162C322.802 207.299 322.569 210.486 321.707 213.533L303.345 277.732C303.265 278.022 303.093 278.278 302.849 278.458C302.608 278.64 302.312 278.735 302.009 278.731C297.149 278.705 292.866 278.705 288.887 278.781ZM298.936 198.343C305.837 198.218 311.078 205.227 309.063 211.886L290.724 276.011C293.899 275.961 297.274 275.961 300.977 275.987L319.037 212.784C319.797 210.092 320.004 207.277 319.644 204.505C319.286 201.733 318.368 199.061 316.947 196.647C308.18 181.407 284.378 184.575 279.792 201.436L278.105 207.995C277.771 209.223 277.942 210.53 278.583 211.631C279.223 212.734 280.279 213.539 281.518 213.869C282.757 214.199 284.079 214.03 285.192 213.396C286.304 212.762 287.116 211.716 287.45 210.489L288.735 205.975C289.919 201.56 294.352 198.268 298.936 198.343Z" fill="#452D34"/>
<path d="M220.423 218.422L220.625 218.646L220.121 217.997C220.387 218.341 220.607 218.719 220.776 219.12L220.449 218.372C220.978 219.618 221.129 220.965 221.507 222.262C221.758 223.164 222.113 224.035 222.565 224.856C223.052 225.657 223.609 226.418 224.227 227.125C226.066 229.321 228.282 231.192 230.575 232.887C232.641 234.4 234.852 235.712 237.174 236.803C239.727 238.026 242.392 239.003 245.134 239.721C250.368 241.112 255.822 241.501 261.205 240.868C264.004 240.566 266.766 239.972 269.441 239.098C272.363 238.1 275.184 236.827 277.476 234.734C278.601 233.75 279.502 232.543 280.121 231.192C280.368 230.673 280.577 230.14 280.75 229.595C280.905 228.954 281.023 228.304 281.104 227.649C281.2 226.887 281.208 226.118 281.128 225.354C280.949 223.526 280.577 221.72 280.02 219.967C279.516 218.396 279.038 216.775 278.206 215.328C277.755 214.54 277.195 213.819 276.544 213.183C275.943 212.603 275.141 212.272 274.303 212.26C273.469 212.266 272.672 212.598 272.083 213.181C271.494 213.765 271.16 214.554 271.154 215.378C271.177 216.207 271.509 216.996 272.086 217.597L272.69 218.246L272.187 217.623C272.634 218.202 272.998 218.84 273.27 219.518L272.967 218.77C273.38 219.814 273.734 220.88 274.024 221.962C274.411 223.135 274.698 224.336 274.881 225.554L274.78 224.732C274.915 225.7 274.924 226.68 274.806 227.649L274.907 226.827C274.805 227.501 274.627 228.162 274.378 228.796L274.679 228.048C274.418 228.654 274.079 229.224 273.672 229.745L274.176 229.121C273.624 229.801 272.989 230.413 272.286 230.942L272.917 230.467C271.732 231.346 270.437 232.067 269.063 232.613L269.818 232.314C266.922 233.497 263.882 234.302 260.776 234.708L261.607 234.584C258.071 235.044 254.489 235.044 250.952 234.584L251.783 234.684C248.142 234.203 244.584 233.24 241.204 231.814L241.96 232.138C238.848 230.839 235.919 229.145 233.245 227.101L233.874 227.599C231.82 226.072 229.967 224.295 228.358 222.312L228.836 222.935C228.357 222.318 227.951 221.649 227.627 220.94L227.955 221.688C227.502 220.615 227.3 219.444 227.023 218.296C226.866 217.629 226.646 216.978 226.368 216.351C226.009 215.492 225.507 214.699 224.882 214.007C224.378 213.433 223.396 213.083 222.665 213.083C221.825 213.09 221.021 213.421 220.423 214.007C219.895 214.605 219.466 215.378 219.517 216.201C219.547 217.023 219.868 217.81 220.423 218.422Z" fill="#CE9C5C"/>
<path d="M263.722 302.35C267.018 296.105 268.008 288.915 266.517 282.023C264.68 277.632 258.734 279.778 260.8 285.614L260.674 284.767C260.989 287.142 260.989 289.548 260.674 291.925L260.775 291.077C260.457 293.449 259.831 295.772 258.91 297.985L259.213 297.237C255.485 302.7 260.951 306.042 263.722 302.35Z" fill="#CE9C5C"/>
<path d="M162.439 289.056C162.388 305.143 179.869 315.868 194.932 313.674C200.7 313.524 199.113 305.768 193.698 307.613L194.529 307.489C192.171 307.792 189.782 307.782 187.426 307.463L188.257 307.563C185.708 307.237 183.216 306.564 180.852 305.568L181.607 305.892C179.451 304.996 177.419 303.831 175.562 302.425L176.217 302.924C174.639 301.732 173.224 300.339 172.01 298.783L172.514 299.432C171.443 298.049 170.547 296.541 169.844 294.943L170.172 295.691C169.497 294.093 169.031 292.417 168.786 290.702L168.912 291.525C168.61 289.954 169.088 288.059 167.804 286.836C165.94 284.891 162.338 286.362 162.439 289.056Z" fill="#CE9C5C"/>
<path d="M234.529 150.754C232.816 149.756 230.347 151.328 230.524 153.323C230.7 155.318 233.445 156.964 235.158 155.393C236.871 154.196 236.342 151.303 234.529 150.754Z" fill="#452D34"/>
<path d="M259.844 150.754C258.106 149.756 255.636 151.328 255.814 153.323C255.99 155.318 258.761 156.964 260.473 155.393C262.186 154.196 261.657 151.303 259.844 150.754Z" fill="#452D34"/>
<path d="M247.627 154.296C247.701 154.489 247.752 154.69 247.778 154.894C247.677 159.983 247.451 159.833 250.574 163.474C250.599 163.649 250.725 163.799 250.725 163.973C250.725 163.474 250.675 164.672 250.725 164.123C250.71 164.306 250.659 164.484 250.574 164.647C250.776 164.297 250.373 164.996 250.297 165.071C250.221 165.145 250.02 165.32 249.97 165.395C249.919 165.47 250.146 165.27 249.995 165.345L249.617 165.594C249.567 165.619 249.264 165.744 249.541 165.644C248.66 165.944 248.307 165.944 247.325 165.869C245.687 165.844 245.687 168.363 247.325 168.363C253.017 168.887 255.234 163.424 250.776 159.808C250.927 160.057 250.826 159.883 250.776 159.833L250.448 159.259C250.473 159.284 250.524 159.484 250.448 159.259C250.378 159.055 250.319 158.847 250.272 158.636C250.272 158.561 250.196 158.361 250.272 158.611C250.095 156.965 250.549 155.269 250.07 153.647C249.592 152.026 247.199 152.749 247.627 154.296Z" fill="#452D34"/>
<path d="M234.982 139.58C247.853 143.396 272.714 137.086 278.407 146.04C280.121 148.709 284.955 141.6 284.955 141.6C284.955 141.6 290.145 122.595 275.056 109.326C263.949 99.5485 249.868 99.3242 242.412 102.542C234.957 105.759 239.566 101.768 225.183 104.238C209.894 106.857 204.201 134.791 207.048 144.169C207.375 145.217 213.597 146.763 214.932 145.865C216.267 144.968 214.856 143.496 219.717 142.224C225.889 140.628 227.501 126.735 228.886 126.91C230.272 127.084 227.727 137.435 234.982 139.58Z" fill="#452D34"/>
<path d="M262.464 198.118C263.793 198.277 265.131 198.36 266.468 198.368C278.988 198.368 283.194 190.785 285.158 181.906C287.476 171.331 285.158 155.717 285.158 155.717L281.682 159.234L279.063 160.556L271.682 177.043L266.468 183.128L264 187.867L262.791 193.803L262.464 198.118Z" fill="#452D34"/>
<path d="M207.048 154.745C207.048 154.745 204.227 170.707 206.947 181.856C209.113 190.711 214.428 197.445 223.597 198.368C227.803 198.792 230.448 198.567 230.448 198.567L227.98 185.273L223.143 179.736L217.577 171.331L214.63 161.329L214.025 158.985L207.678 153.972L206.897 152.126L207.048 154.745Z" fill="#452D34"/>
<path d="M254.478 149.482L254.579 149.407C254.87 149.199 255.182 149.024 255.511 148.883C255.41 148.908 255.386 148.933 255.485 148.883C256.018 148.701 256.567 148.567 257.124 148.484C257.425 148.409 259.616 148.31 259.869 148.384C261.002 148.459 262.312 149.208 262.866 149.607C264.024 150.754 265.813 148.983 264.63 147.861C263.014 146.544 260.98 145.837 258.886 145.865C256.696 145.915 254.403 146.24 252.715 147.711C251.531 148.833 253.32 150.604 254.478 149.482Z" fill="#452D34"/>
<path d="M229.189 148.659C229.466 148.434 228.988 148.784 229.29 148.584C229.583 148.38 229.895 148.205 230.222 148.06H230.171C230.7 147.866 231.249 147.732 231.809 147.661C232.136 147.586 234.328 147.462 234.579 147.561C235.688 147.636 237.023 148.36 237.552 148.784C238.71 149.906 240.524 148.135 239.34 147.013C237.712 145.701 235.671 144.995 233.572 145.017C231.406 145.067 229.088 145.392 227.401 146.863C226.242 147.986 228.03 149.756 229.189 148.634V148.659Z" fill="#452D34"/>
<path d="M268.328 168.322C271.806 167.289 273.945 164.205 273.106 161.435C272.266 158.664 268.765 157.255 265.288 158.288C261.81 159.321 259.673 162.405 260.511 165.176C261.351 167.947 264.85 169.355 268.328 168.322Z" fill="#D13535"/>
<path d="M233.135 165.948C233.974 163.177 231.836 160.094 228.358 159.061C224.88 158.027 221.38 159.436 220.541 162.207C219.701 164.977 221.84 168.061 225.318 169.094C228.795 170.127 232.295 168.719 233.135 165.948Z" fill="#D13535"/>
<path d="M247.426 183.553C241.406 184.301 233.496 172.703 240.171 172.877C244.91 174.417 250.022 174.408 254.756 172.852C261.354 172.678 253.748 184.276 247.426 183.553ZM240.877 175.92C243.647 182.43 251.431 182.28 254.075 175.895C249.758 177.076 245.199 177.085 240.877 175.92Z" fill="#452D34"/>
<path d="M212.514 149.183C212.741 146.339 210.272 145.965 209.895 147.985C210.121 149.507 209.995 153.223 212.262 152.949C214.151 152.275 212.439 150.205 212.464 148.858C212.489 148.958 212.489 149.058 212.514 149.183Z" fill="#452D34"/>
<path d="M281.431 149.058C281.501 149.279 281.559 149.504 281.607 149.731C281.631 149.947 281.631 150.165 281.607 150.38C281.556 150.555 281.53 150.729 281.481 150.904C280.448 152.3 282.589 153.897 283.547 152.375C284.503 150.854 284.453 147.736 282.538 146.714C281.53 146.389 280.523 147.661 281.128 148.559L281.431 149.058Z" fill="#452D34"/>
<path d="M288.03 239.323C287.375 238.598 286.997 237.526 286.065 237.127C285.134 236.729 284 238.076 284.629 238.948C288.382 243.936 291.153 246.855 293.748 252.541C294.121 253.471 294.416 254.432 294.629 255.41C295.057 256.956 297.501 256.283 297.072 254.736C295.31 248.176 291.909 244.81 288.03 239.323Z" fill="#452D34"/>
<path d="M304.227 226.951C302.661 224.6 300.682 222.547 298.382 220.89C296.947 219.668 283.748 211.612 283.37 214.854C283.292 215.172 283.339 215.507 283.504 215.79C283.668 216.073 283.936 216.282 284.252 216.376C285.259 216.751 286.241 217.123 287.25 217.547C290.12 218.696 294.857 221.24 297.224 223.111C298.639 224.209 299.924 225.465 301.052 226.851C301.757 227.674 302.412 229.421 303.772 228.672C304.302 228.322 304.604 227.549 304.227 226.951Z" fill="#452D34"/>
<path d="M270.776 213.158L271.732 213.283C273.741 213.561 275.735 213.943 277.702 214.43C279.264 214.854 279.97 212.434 278.383 212.012C276.795 211.587 269.315 209.891 265.939 210.389C265.184 208.668 264.125 204.703 263.999 203.157C263.521 200.189 263.747 195.574 264.1 193.404C264.276 190.636 265.386 187.817 265.485 185.074C269.642 181.295 273.022 176.756 275.435 171.705C277.225 168.084 278.577 164.266 279.465 160.332C279.748 160.434 280.049 160.468 280.347 160.431C287.476 158.336 292.69 145.841 285.083 141.501C283.646 140.727 282.035 140.902 280.725 141.625V140.253C280.851 139.43 280.422 138.433 279.465 138.483C277.199 138.458 278.533 144.094 278.205 145.716C278.256 148.809 278.205 152.924 277.803 155.543C277.203 159.857 276.034 164.075 274.327 168.088C272.727 171.807 270.672 175.317 268.205 178.539C266.805 180.29 265.274 181.932 263.622 183.453C263.53 183.499 263.452 183.568 263.395 183.652C260.77 186.011 257.775 187.932 254.529 189.339C253.345 189.937 249.189 190.985 248.105 191.11C240.65 191.858 233.849 188.765 228.483 183.752C228.38 183.589 228.231 183.459 228.055 183.378C224.313 179.714 221.319 175.37 219.239 170.583C218.156 168.263 216.796 163.3 216.519 160.806C216.116 159.733 216.494 157.164 216.166 155.593C216.569 153.622 215.965 150.106 216.216 148.933C216.191 145.067 216.166 141.176 216.191 137.31C216.216 135.714 213.673 135.689 213.673 137.31V141.251C210.876 140.278 207.552 142.748 206.292 145.242C205.562 147.063 205.713 149.133 206.116 151.003C207.073 154.994 209.995 158.536 213.874 160.007C214.882 169.336 219.541 178.664 226.292 185.124C227.148 188.142 228.181 192.257 228.509 194.676C229.088 198.318 228.458 201.835 227.249 204.927C226.268 207.253 224.698 209.289 222.69 210.839C208.761 217.897 194.983 228.372 187.627 242.865C186.544 245.058 178.03 261.62 181.179 261.994C181.503 262.079 181.847 262.035 182.139 261.872C182.431 261.71 182.647 261.44 182.741 261.122C183.723 258.004 185.26 253.838 186.318 251.344C188.736 245.558 192.338 239.297 195.94 234.708C201.355 227.824 207.854 222.262 215.486 217.747C218.584 216.076 221.582 214.605 224.126 212.71C226.645 223.609 235.083 233.311 246.241 236.005C260.372 239.273 282.866 236.453 272.916 216.925C272.488 216.251 271.708 214.58 270.776 213.158ZM280.952 144.668C281.29 144.224 281.731 143.865 282.235 143.621L282.336 143.571L282.664 143.496H282.841C283.17 143.489 283.498 143.558 283.798 143.695C284.628 144.094 284.679 144.194 285.334 144.868L285.461 145.017C285.435 145.017 285.41 144.968 285.36 144.893C285.592 145.21 285.803 145.544 285.989 145.89C286.342 146.838 286.241 147.985 286.116 149.382C285.941 150.521 285.628 151.635 285.184 152.699C284.789 153.552 284.307 154.362 283.747 155.119C282.795 156.295 281.579 157.235 280.196 157.862L279.944 157.912C280.543 154.546 280.805 151.129 280.725 147.711V145.017C280.814 144.911 280.891 144.793 280.952 144.668ZM210.6 154.62C208.786 152.176 208.081 149.981 208.383 147.013C208.433 146.289 208.987 145.416 210.322 144.344L210.196 144.444C211.028 143.82 211.254 143.72 212.086 143.521C212.917 143.321 212.413 143.471 212.892 143.621L213.194 143.795C213.332 143.919 213.495 144.013 213.673 144.07C213.673 147.911 213.698 151.752 213.673 155.593C213.673 156.116 213.673 156.665 213.698 157.214C212.516 156.54 211.467 155.662 210.6 154.62ZM271.455 230.093C270.271 231.49 269.416 232.038 267.627 232.837C266.544 233.337 263.345 234.059 261.481 234.259C258.684 234.658 253.974 234.832 250.549 234.334C237.854 232.987 228.458 222.312 226.292 211.037C226.296 210.978 226.288 210.919 226.267 210.863C228.431 208.703 229.911 205.964 230.524 202.982C231.934 198.019 230.952 192.881 229.667 187.992C231.831 189.61 234.203 190.935 236.72 191.933C245.788 195.774 255.032 193.105 262.514 187.518C261.154 194.976 260.297 202.658 263.068 209.866C263.797 211.662 267.551 220.89 269.844 219.593C270.372 219.244 270.725 218.446 270.297 217.872C269.111 216.293 268.049 214.625 267.122 212.884H267.223L267.35 213.008C269.717 215.354 272.336 221.04 272.69 224.033C273.118 226.527 272.362 228.972 271.455 230.093Z" fill="#452D34"/>
<path d="M221.859 220.665C220.977 221.888 217.4 224.532 220.524 225.256C221.456 225.256 223.899 222.462 224.025 221.564C224.151 220.665 222.614 219.867 221.859 220.665Z" fill="#452D34"/>
<path d="M231.858 232.513C231.663 233.29 231.401 234.049 231.078 234.782C231.13 234.688 231.172 234.587 231.203 234.484C230.851 235.606 229.239 237.127 230.7 238.076C232.967 238.973 233.672 234.658 234.276 233.187C234.881 231.714 232.287 230.967 231.858 232.513Z" fill="#452D34"/>
<path d="M251.104 239.845C251.859 241.292 251.683 245.683 253.899 245.258C256.116 244.834 253.648 240.819 253.547 239.197C253.446 237.576 250.675 238.3 251.104 239.845Z" fill="#452D34"/>
<path d="M270.473 236.305C269.416 236.255 268.761 237.726 269.592 238.424C270.145 238.898 270.652 239.424 271.103 239.995L270.901 239.747C271.859 240.644 272.136 243.237 273.925 242.365C275.712 241.492 271.984 236.503 270.473 236.305Z" fill="#452D34"/>
<path d="M281.354 225.928C279.893 226.178 276.946 225.056 276.669 227.175C276.675 227.504 276.81 227.818 277.045 228.051C277.279 228.283 277.596 228.416 277.928 228.422H281.354C282.991 228.422 282.991 225.904 281.354 225.928Z" fill="#452D34"/>
<path d="M277.601 215.428C275.033 215.08 274.378 217.523 276.518 217.947C279.944 218.57 280.473 215.004 277.601 215.428Z" fill="#452D34"/>
<path d="M251.154 105.809L251.934 105.684C251.96 105.684 252.136 105.659 251.985 105.684H252.06L252.514 105.634C253.034 105.585 253.563 105.56 254.101 105.56C254.63 105.535 255.158 105.56 255.687 105.585L256.443 105.659H256.997C258.051 105.83 259.095 106.063 260.121 106.358L261.631 106.906L261.783 106.981C261.732 106.956 261.582 106.881 261.809 106.981L262.136 107.131L262.943 107.505C264.05 108.054 265.107 108.677 266.191 109.326C266.481 109.491 266.827 109.535 267.15 109.449C267.474 109.362 267.75 109.152 267.917 108.864C268.083 108.577 268.128 108.235 268.04 107.914C267.953 107.594 267.741 107.321 267.45 107.156C265.461 105.959 263.395 104.836 261.178 104.088C257.728 102.955 254.044 102.715 250.473 103.39C250.154 103.477 249.882 103.686 249.717 103.971C249.552 104.256 249.507 104.594 249.592 104.911C249.691 105.226 249.908 105.492 250.198 105.654C250.488 105.816 250.83 105.862 251.154 105.784V105.809Z" fill="white"/>
<path d="M270.297 111.745C270.757 112.293 271.273 112.794 271.833 113.242C271.942 113.361 272.081 113.447 272.237 113.491C272.387 113.557 272.551 113.591 272.714 113.591C272.88 113.591 273.043 113.557 273.193 113.491C273.349 113.447 273.488 113.361 273.597 113.242C273.718 113.125 273.814 112.986 273.88 112.831C273.944 112.677 273.977 112.511 273.975 112.344L273.925 112.019C273.876 111.807 273.761 111.615 273.597 111.471C273.042 111.017 272.528 110.516 272.059 109.974C271.952 109.855 271.812 109.769 271.657 109.725C271.51 109.644 271.346 109.602 271.178 109.602C271.011 109.602 270.846 109.644 270.699 109.725C270.542 109.761 270.399 109.849 270.297 109.974C270.176 110.086 270.08 110.221 270.014 110.371C269.95 110.521 269.917 110.684 269.919 110.847L269.969 111.196C270.025 111.406 270.138 111.597 270.297 111.745Z" fill="white"/>
<path d="M213.673 190.337C215.607 192.483 218.154 193.996 220.977 194.676C221.298 194.761 221.639 194.716 221.927 194.553C222.214 194.389 222.425 194.12 222.514 193.803C222.592 193.486 222.544 193.151 222.38 192.868C222.216 192.585 221.948 192.375 221.632 192.282C221.004 192.132 220.389 191.931 219.793 191.683C219.945 191.758 219.869 191.733 219.768 191.683L219.567 191.584C219.411 191.519 219.259 191.444 219.113 191.359C218.82 191.225 218.534 191.075 218.257 190.91L217.501 190.411L217.073 190.112C217.174 190.162 217.199 190.187 217.098 190.112L216.897 189.963C216.388 189.537 215.908 189.079 215.461 188.591C215.033 188.092 214.126 188.117 213.673 188.591C213.448 188.827 213.322 189.139 213.322 189.464C213.322 189.788 213.448 190.101 213.673 190.337Z" fill="white"/>
<path d="M233.194 105.086C231.498 104.651 229.711 104.72 228.055 105.285C227.451 105.51 226.947 106.158 227.174 106.832C227.4 107.505 228.055 107.929 228.735 107.705C229.238 107.511 229.762 107.377 230.297 107.306L229.969 107.356C230.639 107.281 231.315 107.281 231.985 107.356L231.632 107.306L232.514 107.48C232.837 107.559 233.179 107.512 233.469 107.35C233.759 107.188 233.976 106.922 234.075 106.607C234.201 105.959 233.874 105.235 233.194 105.086Z" fill="white"/>
<path d="M234.075 135.29L234.856 135.989C235.206 136.258 235.577 136.5 235.965 136.712C236.106 136.8 236.264 136.856 236.43 136.878C236.595 136.899 236.763 136.885 236.922 136.837C237.081 136.811 237.229 136.742 237.35 136.637C237.484 136.546 237.596 136.427 237.677 136.288C237.844 135.992 237.889 135.643 237.803 135.315C237.712 135.003 237.505 134.735 237.224 134.567C236.924 134.408 236.637 134.224 236.368 134.018L236.645 134.218C236.367 134.004 236.106 133.771 235.864 133.519C235.752 133.405 235.614 133.319 235.461 133.27C235.315 133.19 235.148 133.155 234.982 133.17C234.808 133.152 234.632 133.186 234.478 133.27C234.326 133.319 234.187 133.405 234.075 133.519C233.957 133.637 233.865 133.777 233.804 133.932C233.743 134.086 233.716 134.252 233.723 134.417C233.726 134.742 233.852 135.053 234.075 135.29Z" fill="white"/>
<path d="M240.171 138.533C241.542 138.98 242.988 139.158 244.428 139.056C244.76 139.05 245.077 138.917 245.312 138.684C245.547 138.452 245.681 138.138 245.688 137.809C245.663 137.161 245.134 136.512 244.428 136.562C243.714 136.612 242.996 136.587 242.287 136.487L242.64 136.537C242.033 136.455 241.435 136.321 240.851 136.138C240.689 136.08 240.515 136.055 240.342 136.066C240.17 136.077 240.001 136.122 239.847 136.201C239.692 136.279 239.556 136.388 239.447 136.521C239.337 136.654 239.256 136.808 239.209 136.973C239.162 137.138 239.15 137.311 239.174 137.481C239.198 137.651 239.256 137.814 239.347 137.96C239.437 138.107 239.557 138.233 239.699 138.332C239.841 138.43 240.002 138.499 240.171 138.533Z" fill="white"/>
<path d="M285.461 169.111L283.369 165.495C283.349 165.454 283.339 165.409 283.339 165.364C283.34 165.319 283.352 165.274 283.375 165.235C283.397 165.195 283.429 165.162 283.467 165.137C283.507 165.113 283.551 165.099 283.596 165.096H284.276C284.321 165.097 284.365 165.087 284.405 165.065C284.445 165.044 284.478 165.013 284.501 164.975C284.524 164.936 284.537 164.893 284.537 164.848C284.537 164.804 284.526 164.76 284.503 164.721L282.639 161.529C282.618 161.492 282.606 161.451 282.606 161.408C282.604 161.366 282.615 161.324 282.635 161.286C282.655 161.249 282.684 161.217 282.72 161.194C282.757 161.171 282.798 161.158 282.841 161.155H283.345C283.389 161.156 283.433 161.146 283.473 161.125C283.513 161.103 283.547 161.072 283.57 161.034C283.593 160.996 283.605 160.952 283.605 160.908C283.605 160.863 283.594 160.819 283.571 160.781L281.253 156.815C281.233 156.773 281.201 156.737 281.161 156.712C281.12 156.687 281.074 156.674 281.027 156.674C280.979 156.674 280.933 156.687 280.894 156.712C280.854 156.737 280.822 156.773 280.8 156.815L278.508 160.781C278.485 160.819 278.475 160.863 278.475 160.908C278.475 160.952 278.487 160.996 278.51 161.034C278.533 161.072 278.567 161.103 278.606 161.125C278.646 161.146 278.69 161.156 278.735 161.155H279.214C279.258 161.153 279.302 161.164 279.342 161.185C279.382 161.206 279.416 161.238 279.439 161.276C279.462 161.314 279.474 161.358 279.474 161.402C279.474 161.447 279.463 161.49 279.44 161.529L277.577 164.721C277.554 164.76 277.541 164.804 277.543 164.848C277.543 164.893 277.555 164.936 277.578 164.975C277.601 165.013 277.635 165.044 277.675 165.065C277.713 165.087 277.759 165.097 277.803 165.096H278.482C278.528 165.099 278.573 165.113 278.611 165.137C278.651 165.162 278.683 165.195 278.704 165.235C278.727 165.274 278.739 165.319 278.741 165.364C278.741 165.409 278.73 165.454 278.71 165.495L276.594 169.111C276.571 169.15 276.559 169.194 276.561 169.238C276.561 169.283 276.573 169.326 276.596 169.364C276.619 169.403 276.652 169.434 276.692 169.455C276.731 169.476 276.775 169.487 276.821 169.485H285.259C285.302 169.483 285.343 169.469 285.38 169.446C285.415 169.423 285.444 169.391 285.465 169.354C285.485 169.316 285.494 169.274 285.494 169.232C285.493 169.189 285.482 169.148 285.461 169.111Z" fill="#EFDCC4"/>
<path d="M281.027 157.388C281.499 157.388 281.884 157.009 281.884 156.54C281.884 156.072 281.499 155.692 281.027 155.692C280.554 155.692 280.17 156.072 280.17 156.54C280.17 157.009 280.554 157.388 281.027 157.388Z" fill="#CE9C5C"/>
<path d="M217.124 168.213L215.033 164.597C215.011 164.56 215 164.518 214.999 164.476C214.998 164.434 215.008 164.392 215.029 164.354C215.049 164.317 215.078 164.285 215.114 164.262C215.15 164.239 215.192 164.225 215.234 164.223H215.915C215.96 164.224 216.004 164.214 216.044 164.192C216.083 164.171 216.116 164.14 216.139 164.102C216.162 164.063 216.175 164.02 216.175 163.975C216.175 163.931 216.164 163.887 216.141 163.848L214.277 160.656C214.256 160.616 214.246 160.571 214.247 160.525C214.248 160.48 214.26 160.436 214.282 160.396C214.305 160.357 214.337 160.323 214.375 160.299C214.414 160.274 214.458 160.26 214.504 160.257H215.008C215.051 160.254 215.092 160.241 215.128 160.218C215.164 160.195 215.193 160.163 215.214 160.125C215.234 160.088 215.244 160.046 215.243 160.003C215.243 159.961 215.231 159.919 215.209 159.883L212.917 155.917C212.892 155.881 212.858 155.852 212.818 155.831C212.779 155.811 212.735 155.8 212.69 155.8C212.646 155.8 212.602 155.811 212.563 155.831C212.523 155.852 212.489 155.881 212.464 155.917L210.172 159.883C210.15 159.919 210.138 159.961 210.138 160.003C210.137 160.046 210.147 160.088 210.167 160.125C210.187 160.163 210.217 160.195 210.253 160.218C210.289 160.241 210.33 160.254 210.373 160.257H210.877C210.922 160.26 210.967 160.274 211.005 160.299C211.044 160.323 211.076 160.357 211.099 160.396C211.121 160.436 211.133 160.48 211.134 160.525C211.135 160.571 211.124 160.616 211.103 160.656L209.24 163.848C209.217 163.887 209.205 163.931 209.206 163.975C209.206 164.02 209.219 164.063 209.242 164.102C209.265 164.14 209.298 164.171 209.337 164.192C209.377 164.214 209.421 164.224 209.466 164.223H210.146C210.189 164.225 210.23 164.239 210.267 164.262C210.303 164.285 210.332 164.317 210.352 164.354C210.372 164.392 210.383 164.434 210.382 164.476C210.381 164.518 210.369 164.56 210.348 164.597L208.257 168.213C208.236 168.254 208.226 168.298 208.227 168.344C208.228 168.389 208.24 168.434 208.262 168.473C208.285 168.513 208.317 168.546 208.355 168.57C208.394 168.595 208.438 168.609 208.484 168.612H216.897C216.943 168.609 216.987 168.595 217.026 168.57C217.064 168.546 217.096 168.513 217.119 168.473C217.141 168.434 217.153 168.389 217.154 168.344C217.155 168.298 217.145 168.254 217.124 168.213Z" fill="#EFDCC4"/>
<path d="M212.69 156.516C213.163 156.516 213.547 156.136 213.547 155.668C213.547 155.199 213.163 154.819 212.69 154.819C212.217 154.819 211.834 155.199 211.834 155.668C211.834 156.136 212.217 156.516 212.69 156.516Z" fill="#CE9C5C"/>
<path d="M174.981 278.805H174.856C174.931 278.854 174.981 278.829 174.981 278.805Z" fill="#452D34"/>
<path d="M173.975 281.621C173.95 281.45 173.925 281.523 173.975 281.621V281.621Z" fill="#452D34"/>
<path d="M167.375 271.471C167.376 271.458 167.374 271.445 167.37 271.431C167.366 271.419 167.359 271.407 167.35 271.397C167.34 271.401 167.332 271.407 167.327 271.416C167.323 271.427 167.322 271.437 167.325 271.446C167.329 271.456 167.336 271.464 167.345 271.468C167.354 271.473 167.365 271.474 167.375 271.471Z" fill="#452D34"/>
<path d="M176.897 291.449C176.897 291.424 176.897 291.35 176.872 291.326V291.449H176.897Z" fill="#452D34"/>
<path d="M177.55 292.672H177.575L177.451 292.598L177.526 292.647L177.55 292.672Z" fill="#452D34"/>
<path d="M193.446 280.6C195.813 282.546 194.403 286.936 192.916 288.557C189.39 292.673 182.942 294.569 178.08 292.922L177.577 292.673C177.602 292.698 177.602 292.722 177.551 292.673C177.501 292.623 177.451 292.623 177.451 292.598C177.325 292.473 177.123 292.149 177.325 292.473C177.096 292.173 176.949 291.822 176.897 291.451C176.871 291.451 176.871 291.425 176.871 291.401C176.846 291.301 176.871 291.326 176.871 291.351C176.859 291.176 176.859 291.001 176.871 290.827C176.871 290.799 176.88 290.774 176.897 290.752C176.926 290.548 176.977 290.348 177.048 290.154C177.048 290.146 177.05 290.14 177.055 290.136C177.06 290.131 177.066 290.128 177.073 290.128C177.15 289.963 177.243 289.804 177.35 289.655L177.652 289.355C178.131 289.081 179.163 288.681 178.836 287.634C175.813 283.22 168.861 297.038 182.69 296.015C189.566 295.465 197.627 290.827 197.249 283.12C196.418 277.11 191.909 277.807 193.446 280.6Z" fill="#452D34"/>
<path d="M217.476 266.159C217.099 269.876 216.746 273.592 216.469 277.308C216.015 282.321 215.89 287.51 215.512 292.398C214.935 290.41 214.079 288.513 212.968 286.762C211.683 284.941 209.995 283.444 207.829 282.821C206.267 282.371 205.562 284.766 207.149 285.215C208.257 285.389 210.121 286.986 210.474 287.584C213.648 292.149 214.353 297.336 213.9 303.048C211.431 312.202 205.613 318.287 190.323 316.566C174.429 314.671 158.837 301.975 164.857 286.388C162.565 295.965 172.615 309.584 195.461 308.585C197.88 308.461 190.298 300.529 190.298 300.529H190.222C191.406 299.532 191.205 298.459 188.963 298.533C183.044 302.175 175.739 297.811 171.23 291.999C169.013 289.205 166.746 284.791 166.243 280.6C165.814 278.257 166.217 276.261 166.646 274.69C168.484 276.211 171.079 276.76 173.799 276.56C171.557 277.608 170.575 280.7 171.834 282.92C175.311 289.255 188.585 285.539 191.96 280.626C193.824 277.957 193.371 274.514 191.532 272.145C195.739 269.427 197.905 262.469 192.54 259.849C189.013 258.302 184.907 259.301 181.18 259.575C180.273 259.799 180.122 260.698 180.449 261.346C179.693 261.396 178.938 261.446 178.207 261.42C176.595 261.42 176.57 263.914 178.207 263.914C179.844 263.914 181.054 263.716 182.464 263.866H182.439C182.614 263.888 182.784 263.938 182.943 264.014C182.968 263.99 183.018 264.014 183.069 264.04H183.094L183.295 264.164L183.421 264.288C184.227 265.661 184.429 267.008 183.799 268.803C182.212 272.645 173.17 274.914 169.593 273.668C169.201 273.527 168.835 273.325 168.51 273.068C168.358 272.843 167.93 272.669 167.829 272.395L167.905 272.519C167.773 272.347 167.655 272.163 167.552 271.971L167.502 271.871C167.437 271.747 167.395 271.612 167.376 271.472C167.367 271.462 167.36 271.45 167.356 271.438C167.351 271.424 167.35 271.41 167.351 271.397C167.326 271.298 167.351 271.322 167.351 271.372C167.345 271.297 167.354 271.221 167.376 271.148L167.452 270.774L167.754 270.3C167.876 270.133 168.02 269.982 168.182 269.851H168.233C168.459 269.676 168.711 269.601 168.938 269.451L169.366 269.327C171.054 269.427 171.23 266.833 169.492 266.833C166.822 266.883 164.58 269.427 164.882 271.871C163.522 275.239 163.321 278.805 163.976 282.271C150.5 306.116 184.504 325.172 204.252 317.739C204.328 321.431 204.378 325.097 204.429 328.788C204.781 330.335 203.572 334.151 205.764 334.351C206.096 334.343 206.412 334.21 206.647 333.978C206.882 333.745 207.017 333.431 207.023 333.103C206.947 328.988 206.897 324.873 206.822 320.757C206.62 319.784 207.023 317.889 206.796 316.592C210.49 314.629 213.409 311.493 215.083 307.687C215.537 307.039 215.94 306.066 216.192 304.645C216.578 303.239 216.847 301.804 216.998 300.354C218.862 289.055 218.509 277.482 219.995 266.109C220.02 264.588 217.502 264.538 217.476 266.159ZM184.101 261.795C187.401 261.446 191.91 260.996 193.094 263.816C193.176 264.025 193.235 264.241 193.27 264.464V264.538C193.27 264.688 193.245 265.087 193.245 265.187C193.159 265.746 192.998 266.291 192.766 266.808C192.504 267.408 192.174 267.977 191.784 268.505C191.784 268.529 191.759 268.529 191.759 268.554C191.759 268.579 191.784 268.529 191.784 268.505C191.734 268.529 191.683 268.629 191.734 268.579C191.152 269.31 190.423 269.913 189.593 270.35C188.585 269.698 187.419 269.329 186.217 269.277C187.174 267.058 186.872 264.538 184.555 262.019L184.101 261.795ZM174.555 279.029L174.857 278.855H174.882C174.958 278.805 174.983 278.805 174.983 278.829L175.159 278.781C176.62 278.805 176.897 276.81 175.739 276.361C179.341 275.663 182.917 273.816 184.983 271.347C185.092 271.495 185.237 271.613 185.404 271.692C185.571 271.771 185.755 271.807 185.94 271.797L186.343 271.847H186.394C186.79 271.916 187.178 272.025 187.552 272.171H187.577C187.965 272.344 188.336 272.553 188.686 272.793H188.736C189.083 273.063 189.396 273.374 189.668 273.716L189.618 273.618C189.853 273.968 190.064 274.334 190.247 274.714C190.409 275.134 190.528 275.569 190.6 276.011V276.286C190.629 276.636 190.621 276.985 190.575 277.334C190.51 277.716 190.408 278.091 190.273 278.457V278.505C190.078 278.94 189.833 279.35 189.542 279.728H189.517C189.19 280.093 188.836 280.435 188.459 280.75C187.813 281.217 187.121 281.618 186.394 281.947L186.217 282.023C182.414 283.194 178.459 285.015 174.907 282.746L174.706 282.596C174.63 282.546 174.227 282.023 174.328 282.173C174.196 281.999 174.078 281.815 173.976 281.623V281.673C173.9 281.449 173.824 281.224 173.774 281.024C173.724 280.824 173.824 280.626 173.799 280.476C173.85 280.05 174.015 279.644 174.278 279.303L174.555 279.029Z" fill="#452D34"/>
<path d="M271.883 285.265C272.186 282.845 267.878 283.394 266.291 283.12C264.704 282.845 264.654 285.613 266.291 285.613C267.059 285.622 267.824 285.682 268.583 285.789L268.256 285.739C269.44 285.763 271.354 286.886 271.883 285.265Z" fill="#452D34"/>
<path d="M269.666 294.519C269.113 294.369 267.778 293.87 267.677 293.82C266.743 293.416 265.841 292.94 264.982 292.398C263.597 291.575 262.312 293.744 263.722 294.543C265.358 295.588 267.14 296.387 269.012 296.912C270.574 297.362 271.253 294.943 269.666 294.519Z" fill="#452D34"/>
<path d="M261.958 302.2L266.895 303.772C267.217 303.856 267.558 303.812 267.845 303.648C268.133 303.484 268.344 303.215 268.433 302.898C268.835 300.729 264.1 300.629 262.614 299.782C261.052 299.332 260.371 301.751 261.958 302.2Z" fill="#452D34"/>
<path d="M244.654 295.391C246.468 295.465 246.493 292.623 244.68 292.648C238.458 292.323 230.045 291.201 229.818 285.839C230.02 284.767 231.279 284.392 232.287 284.267C234.075 284.068 233.723 281.299 231.934 281.549C228.131 282.023 227.274 284.342 227.098 285.315C226.77 293.246 236.544 294.993 244.654 295.391Z" fill="#452D34"/>
<path d="M247.274 289.406C248.861 289.456 249.163 287.036 247.627 286.686C242.791 285.465 238.509 282.92 236.544 281.075C233.899 278.581 234.075 274.839 237.753 275.487C239.516 275.737 239.894 272.969 238.106 272.769C234.302 272.295 232.892 274.316 232.438 275.213C230.096 282.871 239.466 287.236 247.274 289.406Z" fill="#452D34"/>
<path d="M328.634 256.607C327.802 255.235 325.661 256.457 326.468 257.878C343.394 283.744 337.45 308.461 304.804 312.876C288.432 314.821 270.473 311.179 257.576 300.48C260.699 294.743 261.606 288.033 261.681 281.599C261.707 281.549 261.707 281.499 261.732 281.474L261.934 281.349L262.085 281.299C279.693 276.96 298.709 279.055 316.795 278.829C317.601 278.929 318.533 278.481 318.507 277.582C318.155 275.389 315.057 276.635 313.495 276.286C299.238 276.087 284.931 275.737 270.725 277.06C264.302 277.758 261.404 278.407 260.095 279.628C259.446 279.493 258.849 279.172 258.383 278.705C254.428 274.814 249.063 270.126 245.889 269.901C240.221 269.327 237.904 273.542 240.901 278.107C243.823 281.623 244.881 283.12 246.443 283.494C251.808 282.123 239.844 277.01 242.866 273.043C248.534 270.35 253.42 279.978 259.062 282.097C258.785 284.866 259.567 289.33 256.392 297.236C256.317 297.885 255.535 298.783 255.082 299.682C253.521 299.98 245.511 301.227 232.614 299.182C230.221 298.808 229.239 297.386 229.289 296.514C229.34 295.641 230.171 295.565 230.675 295.541C230.871 295.555 231.067 295.526 231.251 295.458C231.435 295.391 231.603 295.285 231.742 295.149C231.882 295.012 231.991 294.847 232.062 294.667C232.132 294.485 232.163 294.291 232.153 294.097C232.142 293.903 232.089 293.713 231.999 293.541C231.909 293.369 231.782 293.217 231.628 293.096C231.474 292.975 231.296 292.888 231.106 292.841C230.915 292.794 230.717 292.788 230.524 292.822C227.879 292.947 226.619 294.693 226.519 296.364C226.393 298.659 228.282 301.277 232.161 301.901C236.883 302.666 241.658 303.068 246.443 303.098C252.035 303.098 255.284 302.45 255.889 302.325C266.115 310.731 279.339 315.219 292.69 315.844C292.664 318.762 292.664 321.705 292.664 324.647C292.639 326.244 295.184 326.244 295.184 324.647C295.184 321.729 295.184 318.812 295.208 315.918C302.257 315.988 309.272 314.944 315.989 312.826C343.042 304.421 342.614 276.735 328.634 256.607Z" fill="#452D34"/>
</svg>
