<svg width="535" height="459" viewBox="0 0 535 459" fill="none" xmlns="http://www.w3.org/2000/svg">
<path d="M45.6506 277.826C13.1012 189.315 91.6496 90.556 195.307 57.0111C298.964 23.4662 437.758 57.9994 470.307 146.511C502.856 235.023 464.464 344.966 360.807 378.511C257.15 412.056 78.1999 366.338 45.6506 277.826Z" fill="white"/>
<path d="M218.335 186.99C214.523 187.044 213.99 183.019 213.537 180.114L211.351 182.859C208.126 186.91 201.782 182.459 204.447 178.088C198.503 179.021 196.264 169.745 205.674 169.265C202.715 167.799 199.356 165.693 201.356 161.935C203.781 158.177 207.273 160.309 210.125 162.122C209.325 158.87 208.526 154.765 212.817 153.805C217.108 152.846 217.935 157.297 218.388 160.602L220.6 157.857C224.065 153.565 230.569 158.816 227.157 163.108L225.212 165.56C232.781 162.868 235.234 171.291 229.423 173.317C233.608 176.382 229.343 182.939 224.812 180.327L221.826 178.594C222.786 182.219 223.319 186.591 218.335 186.99ZM214.15 176.595C216.255 176.622 215.323 183.712 217.162 184.512C219.001 185.311 220.787 184.165 220.387 182.406C220.44 181.58 218.601 176.115 219.721 175.662C219.887 175.545 220.083 175.478 220.286 175.468C220.489 175.459 220.69 175.508 220.867 175.609L225.878 178.488C226.114 178.627 226.375 178.718 226.646 178.755C226.918 178.793 227.194 178.777 227.459 178.707C227.724 178.638 227.973 178.517 228.191 178.351C228.409 178.185 228.592 177.978 228.73 177.741C229.956 175.716 227.37 174.463 225.958 173.716C225.105 173.263 225.345 171.904 226.278 171.744C227.904 171.478 230.969 171.238 230.463 168.839C229.583 164.84 223.212 169.558 221.666 167.666C221.561 167.48 221.512 167.267 221.527 167.054C221.541 166.841 221.617 166.637 221.746 166.466L225.505 161.775C227.211 159.696 223.932 157.031 222.253 159.163L218.601 163.721C218.474 163.876 218.305 163.991 218.115 164.055C217.925 164.119 217.721 164.127 217.526 164.08C217.331 164.032 217.154 163.931 217.014 163.787C216.874 163.644 216.777 163.464 216.735 163.268C216.069 161.509 216.442 155.165 213.217 155.884C209.992 156.604 212.604 162.122 212.631 163.987C212.667 164.187 212.645 164.392 212.569 164.58C212.493 164.767 212.365 164.929 212.2 165.047C212.035 165.164 211.84 165.232 211.638 165.243C211.435 165.254 211.234 165.206 211.058 165.107L206.047 162.228C203.728 160.842 201.595 164.521 203.968 165.827L209.219 168.865C209.403 168.975 209.551 169.138 209.641 169.333C209.731 169.528 209.761 169.746 209.725 169.958C209.681 170.17 209.577 170.366 209.426 170.521C209.275 170.677 209.083 170.787 208.872 170.838L203.141 171.93C200.503 172.384 201.275 176.569 203.914 176.009L206.82 175.476C207.031 175.441 207.248 175.472 207.442 175.562C207.635 175.653 207.798 175.8 207.907 175.984C208.016 176.168 208.068 176.38 208.054 176.594C208.041 176.808 207.964 177.012 207.833 177.181L206.42 178.941C204.714 181.02 208.019 183.685 209.698 181.553C210.232 181.126 213.323 176.355 214.15 176.595Z" fill="#D13535"/>
<path d="M247.467 80.3717C243.629 80.425 243.123 76.3735 242.669 73.4947L240.457 76.2402C237.259 80.265 230.915 75.8403 233.58 71.4424C227.636 72.3753 225.397 63.0994 234.806 62.6462C231.848 61.1536 228.489 59.0746 230.488 55.2896C232.887 51.5313 236.379 53.6637 239.231 55.4761C238.431 52.2243 237.632 48.1461 241.923 47.1599C246.215 46.1737 247.068 50.6517 247.521 53.9569C248.8 52.5175 250.319 49.7187 252.532 49.6655C256.13 49.1324 258.661 53.7169 256.29 56.4625L254.344 58.9146C257.25 58.0083 260.928 58.1683 261.647 61.7933C261.851 62.8473 261.643 63.9391 261.07 64.8456C260.495 65.7523 259.595 66.4053 258.555 66.6712C262.74 69.7631 258.448 76.3201 253.944 73.708L250.959 71.9754C251.892 75.5739 252.425 79.9718 247.467 80.3717ZM243.283 69.9496C245.388 69.9763 244.455 77.0665 246.295 77.8661C248.134 78.6658 249.92 77.5197 249.52 75.7605C249.573 74.9342 247.734 69.4965 248.853 69.0167C249.02 68.8995 249.216 68.8323 249.419 68.8229C249.622 68.8133 249.823 68.8621 250 68.9634L255.011 71.8688C255.494 72.1332 256.061 72.2005 256.592 72.0564C257.124 71.9123 257.579 71.5681 257.863 71.0958C259.063 69.0701 256.503 67.8173 255.064 67.0709C254.238 66.6178 254.451 65.2585 255.41 65.1252C257.009 64.832 260.074 64.5922 259.569 62.1932C258.715 58.1949 252.345 62.9395 250.799 61.0469C250.688 60.8581 250.636 60.6403 250.651 60.4216C250.665 60.2029 250.744 59.9937 250.879 59.821L254.637 55.1563C256.343 53.0772 253.038 50.4119 251.386 52.5442L247.734 57.1022C247.605 57.2571 247.434 57.3723 247.242 57.4343C247.05 57.4962 246.845 57.5024 246.649 57.4522C246.454 57.402 246.277 57.2973 246.139 57.1505C246 57.0035 245.906 56.8203 245.868 56.6224C245.175 54.8632 245.548 48.546 242.323 49.2389C241.781 49.3486 241.303 49.6672 240.994 50.1263C240.684 50.5851 240.568 51.1472 240.67 51.6913L241.763 57.3686C241.8 57.5679 241.778 57.7733 241.702 57.9609C241.626 58.1485 241.498 58.3106 241.333 58.4279C241.168 58.5454 240.973 58.6134 240.77 58.6241C240.568 58.6347 240.367 58.5877 240.191 58.4881L235.179 55.5828C232.861 54.1967 230.728 57.875 233.1 59.2079L238.325 62.2199C238.512 62.3287 238.662 62.4907 238.757 62.6853C238.852 62.8798 238.887 63.0981 238.858 63.3127C238.823 63.5291 238.723 63.7299 238.57 63.8871C238.418 64.0446 238.22 64.1511 238.005 64.1922L232.274 65.2851C229.609 65.7383 230.382 69.923 233.047 69.39L235.926 68.8301C236.139 68.7891 236.36 68.8143 236.559 68.9022C236.757 68.9902 236.924 69.1369 237.038 69.3224C237.151 69.508 237.204 69.7237 237.191 69.9406C237.179 70.1575 237.1 70.3652 236.965 70.5361L235.553 72.2953C233.847 74.3744 237.152 77.0399 238.805 74.9074C239.364 74.481 242.456 69.7098 243.283 69.9496Z" fill="#D13535"/>
<path d="M133.412 130.109C133.129 130.109 132.858 129.997 132.658 129.797C132.458 129.597 132.346 129.326 132.346 129.043V103.801C132.346 103.518 132.458 103.247 132.658 103.047C132.858 102.847 133.129 102.735 133.412 102.735C133.695 102.735 133.966 102.847 134.166 103.047C134.366 103.247 134.478 103.518 134.478 103.801V129.043C134.478 129.326 134.366 129.597 134.166 129.797C133.966 129.997 133.695 130.109 133.412 130.109Z" fill="#CE9C5C"/>
<path d="M124.377 128.35C124.254 128.352 124.131 128.329 124.017 128.284C123.903 128.238 123.798 128.17 123.71 128.084C123.496 127.902 123.362 127.644 123.337 127.365C123.312 127.085 123.398 126.807 123.577 126.591L141.622 105.081C141.812 104.899 142.062 104.794 142.324 104.785C142.586 104.776 142.842 104.864 143.044 105.033C143.245 105.201 143.377 105.438 143.415 105.697C143.453 105.957 143.393 106.221 143.248 106.44L125.203 127.977C125.1 128.095 124.973 128.189 124.83 128.253C124.688 128.318 124.533 128.351 124.377 128.35Z" fill="#CE9C5C"/>
<path d="M143.354 127.524C143.214 127.528 143.075 127.502 142.946 127.447C142.817 127.391 142.702 127.309 142.608 127.204L122.724 107.346C122.528 107.147 122.419 106.879 122.419 106.6C122.419 106.321 122.528 106.053 122.724 105.854C122.823 105.753 122.941 105.673 123.072 105.618C123.202 105.564 123.342 105.536 123.483 105.536C123.625 105.536 123.765 105.564 123.895 105.618C124.025 105.673 124.144 105.753 124.243 105.854L144.101 125.711C144.296 125.911 144.406 126.179 144.406 126.458C144.406 126.737 144.296 127.005 144.101 127.204C144.004 127.305 143.888 127.385 143.76 127.44C143.632 127.495 143.494 127.523 143.354 127.524Z" fill="#CE9C5C"/>
<path d="M146.047 117.502H120.778C120.495 117.502 120.224 117.389 120.024 117.19C119.824 116.989 119.712 116.718 119.712 116.436C119.712 116.153 119.824 115.882 120.024 115.682C120.224 115.482 120.495 115.369 120.778 115.369H146.047C146.329 115.369 146.601 115.482 146.801 115.682C147.001 115.882 147.113 116.153 147.113 116.436C147.113 116.718 147.001 116.989 146.801 117.19C146.601 117.389 146.329 117.502 146.047 117.502Z" fill="#CE9C5C"/>
<path d="M343.851 266.475C337.294 270.339 326.525 287.479 325.325 295.022C325.299 296.728 327.991 296.728 327.991 295.022C327.988 294.896 327.997 294.772 328.018 294.65C328.018 294.435 327.965 294.996 327.965 294.889C328.185 293.769 328.535 292.678 329.005 291.637C329.085 291.424 329.005 291.664 328.952 291.744C331.536 285.826 335.748 279.216 339.24 274.631C340.44 272.979 342.971 270.259 343.904 269.567C344.304 269.253 344.744 268.994 345.211 268.793C346.703 267.968 345.344 265.648 343.851 266.475Z" fill="#452D34"/>
<path d="M257.97 330.499C259.017 338.325 259.267 346.238 258.717 354.116C258.712 354.291 258.743 354.467 258.809 354.63C258.875 354.794 258.974 354.941 259.098 355.065C259.223 355.191 259.372 355.289 259.535 355.355C259.698 355.42 259.872 355.452 260.048 355.449C263.06 355.529 261.195 338.496 261.195 335.696C260.742 334.044 261.461 329.246 259.303 329.166C258.662 329.193 257.863 329.754 257.97 330.499Z" fill="#452D34"/>
<path d="M286.517 145.409C289.955 144.823 292.033 146.342 292.781 149.141C293.526 151.94 291.181 155.351 287.477 156.338C286.73 156.543 285.958 156.633 285.184 156.604C284.864 152.846 285.45 149.114 286.517 145.409Z" fill="#D13535"/>
<path d="M329.648 159.538C330.785 156.664 328.812 153.187 325.239 151.773C321.667 150.358 317.849 151.542 316.71 154.416C315.572 157.29 317.546 160.767 321.119 162.182C324.69 163.596 328.51 162.412 329.648 159.538Z" fill="#D13535"/>
<path d="M199.489 235.982C201.035 236.115 201.915 232.784 200.316 232.384C198.716 231.983 202.741 230.757 202.741 228.705C202.741 226.653 201.008 224.734 198.983 224.521C198.023 224.413 196.424 224.734 196.264 225.666C197.197 224.494 194.132 233.263 191.546 233.689C190.453 233.875 192.506 234.33 192.506 234.33L199.489 235.982Z" fill="#D13535"/>
<path d="M256.37 324.182C256.404 324.331 256.402 324.484 256.365 324.633C256.329 324.78 256.26 324.917 256.16 325.032C256.063 325.149 255.939 325.242 255.8 325.302C255.661 325.362 255.509 325.389 255.357 325.382L251.332 325.169C249.467 325.062 247.121 323.277 246.748 321.436C246.534 320.371 247.228 319.251 248.161 318.639C248.542 318.39 248.954 318.193 249.387 318.051C249.482 318.021 249.565 317.962 249.625 317.884C249.686 317.804 249.72 317.707 249.722 317.607C249.725 317.508 249.697 317.41 249.642 317.327C249.586 317.244 249.507 317.181 249.413 317.146H249.387C248.817 316.96 248.298 316.645 247.873 316.223C247.447 315.802 247.126 315.288 246.934 314.72C246.055 311.974 249.44 311.148 250.426 312L255.117 312.801C255.144 316.585 255.411 320.131 256.157 323.168C256.237 323.463 256.317 323.836 256.37 324.182Z" fill="#D13535"/>
<path d="M289.556 201.97C288.808 199.812 288.569 197.199 290.516 196.027C292.461 194.854 295.394 195.893 296.192 198.026C296.831 196.106 298.938 194.8 300.964 195.04C301.967 195.189 302.891 195.669 303.592 196.403C304.292 197.136 304.727 198.083 304.83 199.092C305.151 198.109 305.783 197.257 306.629 196.662C307.476 196.068 308.491 195.763 309.526 195.793C310.559 195.823 311.557 196.186 312.368 196.828C313.177 197.471 313.76 198.358 314.024 199.358C314.308 198.447 314.873 197.648 315.638 197.076C316.401 196.505 317.327 196.189 318.281 196.174C319.235 196.159 320.171 196.446 320.952 196.994C321.733 197.542 322.322 198.323 322.635 199.225C323.22 197.572 324.687 196.08 326.446 195.973C328.205 195.867 329.964 197.706 329.404 199.358C329.884 196.506 333.402 195.387 336.228 196C340.333 196.933 340.44 205.062 340.333 205.809C339.987 207.941 339.107 208.821 337.135 209.7C335.163 210.58 333.002 210.767 330.871 210.9C319.115 211.645 307.228 210.713 295.846 207.781C294.22 207.382 291.075 206.421 289.556 201.97Z" fill="#D13535"/>
<path d="M347.05 159.003C351.528 158.123 359.259 152.179 353.82 147.888C350.834 146.129 349.129 150.1 352.327 150.127C351.795 150.207 352.407 150.127 352.407 150.154C352.407 150.18 352.354 150.127 352.46 150.18C351.954 149.914 352.941 150.5 352.487 150.18C352.567 150.234 352.968 150.713 352.702 150.394C352.835 150.474 352.915 150.713 352.995 150.873C352.808 150.42 353.074 151.113 353.048 151.167C352.995 150.687 353.048 151.38 353.021 151.46C353.074 151.033 352.915 151.94 352.835 152.019C352.995 151.7 352.514 152.606 352.407 152.713C351.917 153.296 351.363 153.824 350.755 154.285C349.913 154.913 349.001 155.44 348.037 155.858C347.49 156.085 346.929 156.272 346.358 156.418C344.677 156.871 345.398 159.456 347.05 159.003Z" fill="#452D34"/>
<path d="M301.765 155.298C301.124 155.458 301.097 155.511 300.405 155.458L299.658 155.245C299.226 155.073 298.848 154.787 298.566 154.419C298.032 153.619 298.005 153.299 298.032 152.286C298.058 152.153 298.325 151.247 298.191 151.646L298.539 151.033L298.646 150.927C298.905 150.652 299.18 150.394 299.471 150.154L299.604 150.047L306.642 145.089C307.201 144.689 307.521 143.917 307.121 143.277C306.722 142.637 305.895 142.371 305.283 142.797C300.751 146.262 290.596 150.713 297.659 157.164C299.125 158.31 303.603 158.976 303.39 156.231C303.176 155.565 302.457 155.058 301.765 155.298Z" fill="#452D34"/>
<path d="M316.264 165.08C315.25 166.493 313.358 167.746 312.318 168.172C311.418 168.535 310.479 168.794 309.519 168.945C308.679 169.052 307.829 169.052 306.988 168.945H306.855C306.244 168.861 305.646 168.709 305.069 168.492C303.416 168.012 302.696 170.598 304.348 171.078C309.253 172.73 316.237 170.891 318.529 166.04C318.582 164.921 316.983 164.201 316.264 165.08Z" fill="#452D34"/>
<path d="M321.318 144.727C322.638 144.181 323.263 142.668 322.718 141.349C322.171 140.03 320.659 139.403 319.339 139.95C318.02 140.496 317.393 142.009 317.94 143.328C318.487 144.647 319.999 145.274 321.318 144.727Z" fill="#452D34"/>
<path d="M298.539 140.771C299.966 140.771 301.124 139.614 301.124 138.186C301.124 136.758 299.966 135.6 298.539 135.6C297.11 135.6 295.953 136.758 295.953 138.186C295.953 139.614 297.11 140.771 298.539 140.771Z" fill="#452D34"/>
<path d="M329.484 137.279C327.805 135.787 318.955 130.349 317.623 133.361C317.488 134.028 317.836 134.854 318.555 134.987C321.495 135.551 324.276 136.742 326.711 138.479C327.018 138.684 327.311 138.906 327.592 139.145C328.818 140.372 330.737 138.479 329.484 137.279Z" fill="#452D34"/>
<path d="M300.831 130.109C300.731 129.775 300.507 129.491 300.204 129.318C299.9 129.144 299.544 129.094 299.205 129.176C296.831 129.919 294.565 130.968 292.461 132.295C290.995 133.175 292.328 135.467 293.821 134.587C295.03 133.825 296.294 133.157 297.605 132.588C298.752 131.922 301.23 131.948 300.831 130.109Z" fill="#452D34"/>
<path d="M207.352 301.393C205.407 300.94 204.154 300.592 202.208 300.086C141.968 284.253 96.8951 257.146 101.533 239.554C104.119 229.718 121.657 224.681 147.113 225.133L155.456 225.613C156.548 225.666 154.789 233.716 159.667 233.955C164.545 234.197 164.065 227.185 165.211 227.292L168.41 227.239C169.956 227.398 168.437 232.757 172.035 233.263C176.833 233.902 176.326 228.625 177.899 228.838L180.591 228.678C181.63 228.865 176.7 233.795 182.963 235.342C189.867 237.021 188.481 230.384 189.893 230.65C190.587 230.783 194.478 233.849 195.171 233.984C197.543 234.463 202.821 235.501 205.14 236.009C205.886 236.169 206.393 236.568 207.139 236.754C209.511 237.289 216.228 238.114 218.707 238.726C220.546 239.181 217.028 235.823 218.974 236.355C279.186 252.188 324.26 279.296 319.649 296.888C315.783 311.601 277.908 314.879 230.648 306.404C230.648 306.404 222.945 296.888 219.24 296.941C217.135 296.968 212.843 302.593 212.843 302.593L207.352 301.393Z" fill="#EFDCC4"/>
<path d="M213.723 304.751L208.552 303.418C179.232 295.715 152.551 285.16 133.413 273.751C115.048 262.771 105.692 252.055 107.718 244.351C109.93 235.929 129.388 230.65 156.122 231.184C156.509 231.184 156.881 231.034 157.16 230.766C157.438 230.498 157.601 230.132 157.615 229.745C157.619 229.551 157.584 229.362 157.514 229.182C157.443 229.003 157.338 228.838 157.205 228.699C157.071 228.561 156.911 228.451 156.735 228.373C156.558 228.297 156.368 228.256 156.176 228.252C142.928 227.986 131.174 229.131 122.164 231.557C112.222 234.223 106.252 238.38 104.892 243.606C103.613 248.404 105.532 253.787 110.596 259.625C115.261 264.982 122.431 270.579 131.92 276.257C151.271 287.825 178.219 298.487 207.806 306.244C209.778 306.776 211.058 307.096 213.03 307.577C213.14 307.619 213.259 307.637 213.377 307.63C213.707 307.628 214.027 307.518 214.287 307.316C214.548 307.112 214.734 306.83 214.816 306.51C214.904 306.132 214.838 305.734 214.634 305.404C214.429 305.074 214.101 304.84 213.723 304.751Z" fill="#452D34"/>
<path d="M322.555 286.305C317.89 280.948 310.719 275.35 301.23 269.674C281.852 258.106 254.904 247.443 225.318 239.66C213.376 236.541 199.676 233.529 189.573 231.797C189.383 231.763 189.187 231.768 188.998 231.811C188.809 231.854 188.631 231.932 188.472 232.044C188.314 232.155 188.179 232.296 188.075 232.461C187.971 232.624 187.901 232.805 187.868 232.997C187.834 233.187 187.839 233.382 187.881 233.572C187.924 233.76 188.003 233.939 188.114 234.097C188.225 234.257 188.367 234.392 188.53 234.495C188.694 234.6 188.876 234.669 189.067 234.703C199.116 236.382 212.71 239.394 224.571 242.513C253.891 250.216 280.599 260.77 299.71 272.178C318.076 283.16 327.459 293.876 325.432 301.579C323.726 307.976 314.184 312.375 298.512 313.947C282.839 315.52 261.035 314.107 237.792 309.922C237.603 309.884 237.407 309.884 237.218 309.922C237.029 309.961 236.849 310.037 236.69 310.147C236.531 310.255 236.395 310.396 236.292 310.559C236.188 310.722 236.118 310.905 236.086 311.095C236.016 311.477 236.1 311.871 236.32 312.19C236.54 312.51 236.877 312.73 237.259 312.801C254.478 315.919 270.79 317.519 284.651 317.519C289.376 317.54 294.101 317.318 298.805 316.853C316.024 315.146 326.206 310.108 328.258 302.325C329.511 297.527 327.592 292.143 322.555 286.305Z" fill="#452D34"/>
<path d="M120.911 242.326C118.832 250.243 133.599 259.492 146.339 265.863C163.772 274.578 187.708 283.133 213.749 289.985C239.791 296.835 264.846 301.153 284.278 302.138C286.836 302.271 289.476 302.351 292.14 302.351C304.268 302.351 316.291 300.646 318.023 294.142C320.101 286.252 305.335 276.976 292.568 270.605C275.162 261.917 251.226 253.335 225.184 246.483C199.143 239.633 174.087 235.315 154.629 234.33C140.396 233.609 122.99 234.41 120.911 242.326ZM291.261 273.245C299.577 277.404 305.921 281.348 310.08 284.974C314.237 288.599 315.73 291.29 315.171 293.396C314.611 295.502 311.652 297.207 306.588 298.248C301.523 299.288 293.713 299.687 284.438 299.206C265.194 298.221 240.351 293.956 214.496 287.159C188.641 280.363 164.891 271.859 147.646 263.25C139.329 259.091 133.012 255.147 128.854 251.522C124.696 247.896 123.177 245.205 123.736 243.072C124.296 240.94 127.281 239.261 132.346 238.221C136.131 237.448 140.955 237.047 146.686 237.047C149.112 237.047 151.724 237.127 154.496 237.262C173.74 238.247 198.583 242.539 224.438 249.336C250.293 256.132 274.015 264.609 291.261 273.245Z" fill="#452D34"/>
<path d="M187.707 239.527C185.015 239.314 182.59 240.594 182.296 242.379L181.417 248.029C181.363 248.404 180.804 248.617 180.297 248.484L179.951 248.404C179.631 248.324 179.391 248.082 179.418 247.843C179.498 245.551 178.032 243.311 175.18 241.898C171.101 239.9 165.291 240.354 161.746 242.938C157.694 245.897 157.827 250.589 162.145 253.255C164.864 254.907 168.356 255.253 171.661 254.559C171.829 254.52 172.003 254.52 172.17 254.563C172.338 254.604 172.492 254.685 172.621 254.801C172.887 255.147 172.701 255.573 172.221 255.706L164.411 257.999C161.719 258.798 160.28 261.065 161.266 263.117C162.252 265.195 165.344 266.235 168.143 265.408L173.847 263.702C176.672 262.85 179.924 263.489 181.95 265.302L199.915 281.268C202.074 282.894 205.966 282.175 208.445 279.722C210.897 277.297 211.084 274.099 208.898 272.579L198.636 265.541L199.995 264.208L211.563 269.753C214.015 270.927 217.72 269.86 219.72 267.462C221.692 265.089 221.266 262.29 218.867 261.225L195.757 252.854C193.171 251.922 191.599 250.056 191.812 248.162L192.319 243.178C192.505 241.339 190.426 239.713 187.707 239.527Z" fill="#D13535"/>
<path d="M200.502 283.346C197.277 284.653 181.098 267.568 178.672 266.129C177.046 264.689 174.274 264.155 171.982 264.849L166.251 266.555C156.735 268.953 153.243 257.651 163.372 255.839C155.855 254.774 151.644 246.483 158.601 241.499C164.039 237.422 175.074 238.034 178.086 244.857L178.539 241.898C179.098 237.342 187.788 236.435 190.507 240.086C192.319 241.792 190.986 245.977 190.96 248.056C190.826 249.229 192.053 250.535 193.945 251.228L217.055 259.599C217.781 259.879 218.429 260.332 218.945 260.916C219.46 261.5 219.826 262.201 220.013 262.957C221.266 268.58 213.136 273.192 208.632 270.82L203.168 268.207C205.22 269.833 209.591 271.646 209.565 274.791C210.071 279.243 204.714 283.534 200.502 283.346ZM198.53 279.882C200.929 281.775 206.979 278.575 206.633 275.057C206.579 272.579 195.278 267.728 194.878 265.435C194.691 264.476 196.131 263.516 196.637 262.93C196.852 262.712 197.129 262.566 197.43 262.513C197.731 262.462 198.041 262.504 198.316 262.636L209.911 268.181C212.31 269.487 217.668 266.928 217.161 263.623C218.068 262.13 193.492 254.559 192.932 253.974C189.68 252.8 187.761 250.349 188.028 247.736C187.948 247.204 188.961 242.326 188.241 241.98C187.228 240.246 181.684 240.381 181.444 242.353C181.071 243.551 180.991 248.723 179.658 249.336C178.325 249.95 175.5 249.389 175.633 247.523C175.18 241.126 164.412 240.594 160.307 243.872C157.108 246.137 157.215 249.708 160.627 251.735C162.866 253.122 165.931 253.521 169.05 252.854C170.596 252.454 172.302 253.814 171.822 255.413C170.836 258.665 158.921 257.625 160.28 262.21C160.867 263.489 163.132 264.423 165.425 263.729C170.196 262.13 176.513 259.998 180.618 263.942L198.53 279.882Z" fill="#452D34"/>
<path d="M163.426 248.537C163.689 248.537 163.947 248.459 164.166 248.311C164.385 248.166 164.556 247.956 164.657 247.713C164.758 247.47 164.784 247.202 164.733 246.943C164.681 246.686 164.554 246.448 164.368 246.261C164.182 246.075 163.944 245.947 163.685 245.896C163.427 245.844 163.159 245.871 162.915 245.972C162.672 246.073 162.464 246.244 162.317 246.464C162.171 246.682 162.093 246.939 162.093 247.204C162.1 247.555 162.242 247.891 162.491 248.138C162.739 248.386 163.074 248.53 163.426 248.537Z" fill="white"/>
<path d="M167.664 245.365C167.927 245.365 168.185 245.287 168.404 245.139C168.623 244.994 168.794 244.784 168.895 244.541C168.996 244.298 169.022 244.03 168.971 243.771C168.92 243.514 168.793 243.276 168.606 243.089C168.42 242.903 168.182 242.775 167.924 242.724C167.665 242.672 167.397 242.699 167.154 242.8C166.91 242.901 166.702 243.072 166.556 243.292C166.409 243.51 166.331 243.767 166.331 244.032C166.338 244.383 166.481 244.717 166.729 244.966C166.978 245.214 167.312 245.358 167.664 245.365Z" fill="white"/>
<path d="M165.984 252.295C165.66 252.298 165.344 252.192 165.088 251.995C164.832 251.796 164.65 251.517 164.572 251.201C164.474 250.827 164.529 250.429 164.723 250.095C164.918 249.76 165.237 249.517 165.611 249.416C168.65 248.617 170.569 246.483 170.569 245.392C170.569 245.003 170.723 244.63 170.998 244.355C171.273 244.08 171.646 243.925 172.035 243.925C172.229 243.922 172.421 243.957 172.6 244.028C172.78 244.101 172.943 244.209 173.08 244.346C173.217 244.483 173.325 244.646 173.397 244.825C173.469 245.005 173.505 245.198 173.501 245.392C173.501 248.162 170.382 251.201 166.358 252.268L165.984 252.295Z" fill="white"/>
<path d="M209.832 243.498C207.14 243.285 204.714 244.564 204.448 246.35L203.541 252.002C203.488 252.374 202.955 252.587 202.449 252.454L202.102 252.374C201.959 252.357 201.827 252.293 201.725 252.192C201.624 252.09 201.559 251.957 201.542 251.815C201.649 249.522 200.183 247.284 197.331 245.871C193.226 243.872 187.442 244.325 183.897 246.911C179.845 249.868 179.952 254.533 184.297 257.226C186.989 258.878 190.507 259.224 193.786 258.532C193.957 258.491 194.136 258.491 194.308 258.534C194.479 258.575 194.638 258.656 194.772 258.772C195.039 259.118 194.852 259.545 194.345 259.679L186.536 261.97C183.87 262.771 182.431 265.036 183.39 267.087C184.377 269.168 187.495 270.206 190.294 269.381L195.998 267.675C198.797 266.821 202.075 267.462 204.101 269.274L222.04 285.24C224.225 286.866 228.09 286.146 230.596 283.694C233.048 281.268 233.208 278.043 231.049 276.55L220.787 269.514L222.12 268.181L233.714 273.724C236.167 274.897 239.845 273.832 241.871 271.433C243.843 269.061 243.417 266.262 240.991 265.195L217.882 256.826C215.296 255.893 213.75 254 213.937 252.135L214.47 247.151C214.656 245.312 212.551 243.686 209.832 243.498Z" fill="#CE9C5C"/>
<path d="M226.97 286.573C223.718 287.878 207.566 270.794 205.14 269.354C203.514 267.888 200.742 267.354 198.423 268.048L192.719 269.753C183.203 272.178 179.711 260.877 189.84 259.064C182.324 257.999 178.112 249.682 185.042 244.724C190.507 240.647 201.542 241.233 204.554 248.082L205.007 245.124C205.567 240.567 214.229 239.633 216.975 243.311C218.761 245.017 217.454 249.202 217.428 251.281C217.294 252.454 218.521 253.761 220.413 254.426L243.523 262.797C244.247 263.083 244.892 263.541 245.403 264.13C245.913 264.72 246.274 265.422 246.455 266.182C247.734 271.805 239.604 276.417 235.1 274.045L229.636 271.433C231.688 273.032 236.059 274.871 236.033 278.016C236.539 282.468 231.155 286.76 226.97 286.573ZM224.998 283.08C226.57 284.227 229.636 283.561 231.581 281.641C233.021 280.176 233.874 278.016 232.221 276.763L221.959 269.727C221.784 269.603 221.638 269.443 221.532 269.256C221.426 269.072 221.361 268.864 221.344 268.651C221.326 268.438 221.355 268.223 221.429 268.021C221.503 267.82 221.62 267.638 221.772 267.489C222.519 266.821 223.585 265.195 224.784 265.863L236.353 271.379C238.192 272.26 241.177 271.379 242.75 269.487C243.923 268.101 244.136 266.342 242.457 265.541L219.4 257.199C216.148 256.026 214.229 253.574 214.496 250.961L215.029 245.977C214.816 244.698 213.59 244.192 211.75 243.952C209.911 243.712 207.992 244.751 207.912 245.578C207.432 246.938 207.539 251.975 206.073 252.587C204.607 253.202 201.915 252.534 202.101 250.669C201.515 244.298 190.826 243.792 186.695 247.151C183.523 249.442 183.763 253.04 187.148 255.014C189.387 256.347 192.479 256.746 195.571 256.052C198.663 255.36 199.462 259.357 196.77 260.078L188.881 262.396C184.056 264.075 187.814 268.314 191.893 266.954L197.703 265.222C200.902 264.182 205.193 265.302 207.086 267.167L224.998 283.08Z" fill="#452D34"/>
<path d="M189.893 251.762C190.157 251.762 190.415 251.684 190.634 251.537C190.853 251.391 191.024 251.182 191.125 250.938C191.225 250.695 191.252 250.427 191.2 250.168C191.149 249.911 191.022 249.673 190.836 249.487C190.649 249.3 190.412 249.172 190.153 249.121C189.895 249.069 189.627 249.096 189.383 249.197C189.14 249.298 188.932 249.469 188.785 249.689C188.639 249.907 188.561 250.165 188.561 250.429C188.567 250.78 188.71 251.116 188.958 251.363C189.207 251.611 189.542 251.755 189.893 251.762Z" fill="white"/>
<path d="M194.132 248.59C194.395 248.59 194.653 248.512 194.872 248.365C195.091 248.219 195.262 248.01 195.363 247.766C195.464 247.523 195.49 247.255 195.439 246.996C195.387 246.739 195.26 246.501 195.074 246.315C194.888 246.128 194.65 246 194.392 245.949C194.133 245.897 193.865 245.924 193.622 246.025C193.378 246.126 193.17 246.297 193.024 246.517C192.877 246.735 192.799 246.993 192.799 247.257C192.806 247.608 192.948 247.944 193.197 248.191C193.445 248.439 193.78 248.583 194.132 248.59Z" fill="white"/>
<path d="M192.453 255.52C192.1 255.516 191.76 255.383 191.496 255.149C191.233 254.914 191.062 254.593 191.017 254.242C190.972 253.892 191.054 253.537 191.249 253.244C191.444 252.949 191.739 252.735 192.08 252.641C195.118 251.842 197.037 249.708 197.037 248.617C197.037 248.228 197.192 247.855 197.467 247.58C197.742 247.305 198.114 247.151 198.503 247.151C198.697 247.147 198.889 247.183 199.069 247.254C199.248 247.326 199.411 247.435 199.548 247.571C199.685 247.708 199.793 247.871 199.865 248.051C199.938 248.23 199.973 248.423 199.969 248.617C199.969 251.388 196.824 254.426 192.826 255.466C192.707 255.511 192.579 255.529 192.453 255.52Z" fill="white"/>
<path d="M232.994 247.284C230.302 247.071 227.877 248.35 227.584 250.163L226.704 255.786C226.651 256.159 226.091 256.373 225.584 256.267L225.238 256.159C224.891 256.079 224.678 255.839 224.705 255.6C224.785 253.308 223.319 251.068 220.467 249.682C216.388 247.656 210.578 248.109 207.033 250.695C202.981 253.654 203.114 258.346 207.432 261.01C210.151 262.664 213.643 263.01 216.948 262.316C217.118 262.275 217.295 262.277 217.463 262.323C217.631 262.371 217.784 262.46 217.908 262.582C218.174 262.904 217.988 263.33 217.508 263.463L209.698 265.754C207.006 266.555 205.567 268.846 206.553 270.873C207.539 272.952 210.631 273.992 213.43 273.165L219.134 271.459C221.959 270.607 225.211 271.246 227.237 273.058L245.202 289.025C247.361 290.651 251.253 289.958 253.732 287.479C256.184 285.054 256.37 281.855 254.185 280.363L243.923 273.325L245.282 271.992L256.85 277.51C259.303 278.683 263.007 277.643 265.006 275.217C266.98 272.845 266.552 270.046 264.154 268.98L241.044 260.61C238.432 259.679 236.886 257.811 237.073 255.919L237.606 250.935C237.792 249.096 235.713 247.47 232.994 247.284Z" fill="#D13535"/>
<path d="M250.48 292.756C247.254 294.089 231.075 277.004 228.649 275.565C227.024 274.099 224.278 273.564 221.959 274.258L216.228 275.964C206.713 278.389 203.248 267.061 213.35 265.275C205.833 264.182 201.622 255.892 208.578 250.908C214.016 246.831 225.078 247.443 228.063 254.293L228.543 251.334C229.076 246.778 237.765 245.844 240.484 249.522C242.297 251.228 240.964 255.387 240.937 257.465C240.804 258.665 242.03 259.945 243.923 260.637L267.033 269.008C267.757 269.292 268.403 269.745 268.918 270.329C269.431 270.913 269.8 271.612 269.992 272.366C271.243 278.016 263.114 282.628 258.609 280.229L253.145 277.617C255.224 279.243 259.569 281.081 259.542 284.227C260.048 288.678 254.691 292.97 250.48 292.756ZM248.507 289.291C250.906 291.21 256.956 287.984 256.61 284.466C256.583 281.989 245.255 277.137 244.856 274.844C244.669 273.912 246.108 272.952 246.641 272.34C246.854 272.127 247.126 271.985 247.422 271.933C247.717 271.88 248.022 271.919 248.294 272.045L259.888 277.59C262.315 278.896 267.645 276.337 267.139 273.058C268.045 271.539 243.469 263.969 242.936 263.383C239.658 262.21 237.739 259.785 238.005 257.172C237.952 256.613 238.938 251.735 238.245 251.388C237.232 249.682 231.661 249.788 231.422 251.789C231.048 252.987 230.995 258.133 229.662 258.745C228.33 259.357 225.504 258.825 225.611 256.933C225.158 250.536 214.389 250.003 210.311 253.281C207.086 255.573 207.193 259.144 210.604 261.171C212.843 262.529 215.909 262.93 219.027 262.263C220.6 261.89 222.306 263.25 221.799 264.849C220.813 268.101 208.898 267.034 210.258 271.646C210.844 272.899 213.11 273.832 215.402 273.165C220.173 271.539 226.491 269.407 230.595 273.351L248.507 289.291Z" fill="#452D34"/>
<path d="M213.403 257.946C213.667 257.946 213.924 257.866 214.144 257.721C214.363 257.573 214.533 257.366 214.634 257.123C214.735 256.879 214.762 256.611 214.71 256.352C214.659 256.095 214.532 255.857 214.345 255.671C214.159 255.484 213.921 255.356 213.663 255.305C213.404 255.253 213.137 255.28 212.893 255.381C212.649 255.482 212.441 255.653 212.295 255.873C212.148 256.091 212.07 256.349 212.07 256.613C212.077 256.965 212.22 257.298 212.468 257.547C212.717 257.795 213.052 257.939 213.403 257.946Z" fill="white"/>
<path d="M217.641 254.801C217.995 254.801 218.334 254.659 218.584 254.41C218.834 254.16 218.974 253.821 218.974 253.468C218.974 253.115 218.834 252.776 218.584 252.525C218.334 252.275 217.995 252.135 217.641 252.135C217.288 252.135 216.949 252.275 216.699 252.525C216.449 252.776 216.309 253.115 216.309 253.468C216.315 253.819 216.458 254.153 216.706 254.402C216.955 254.65 217.29 254.794 217.641 254.801Z" fill="white"/>
<path d="M215.962 261.73C215.639 261.729 215.326 261.622 215.07 261.423C214.815 261.226 214.632 260.949 214.549 260.637C214.452 260.262 214.506 259.865 214.701 259.529C214.896 259.196 215.215 258.953 215.589 258.851C218.628 258.053 220.573 255.919 220.573 254.801C220.573 254.412 220.728 254.038 221.003 253.764C221.278 253.489 221.651 253.335 222.039 253.335C222.428 253.335 222.801 253.489 223.076 253.764C223.351 254.038 223.505 254.412 223.505 254.801C223.505 257.598 220.36 260.61 216.335 261.677L215.962 261.73Z" fill="white"/>
<path d="M342.785 161.215C350.861 167.133 360.243 158.23 360.35 149.647C360.377 147.941 357.686 147.915 357.686 149.647C357.686 150.687 357.045 153.139 356.672 153.912C356.232 154.961 355.668 155.955 354.993 156.871C354.468 157.531 353.878 158.138 353.234 158.683C352.141 159.616 350.275 160.203 349.476 160.282C348.725 160.416 347.959 160.416 347.21 160.282C347.502 160.362 347.316 160.309 347.263 160.309C346.663 160.215 346.074 160.063 345.504 159.856C345.397 159.803 345.184 159.723 345.397 159.803L344.865 159.51C344.623 159.376 344.918 159.563 344.891 159.563C343.771 157.99 341.478 159.723 342.785 161.215Z" fill="#452D34"/>
<path d="M167.663 232.25H167.53L166.383 232.116L165.291 232.063C165.098 232.051 164.91 232.001 164.737 231.916C164.564 231.831 164.409 231.713 164.281 231.568C164.154 231.424 164.056 231.256 163.994 231.073C163.931 230.89 163.906 230.696 163.918 230.505C163.93 230.311 163.98 230.123 164.065 229.951C164.15 229.777 164.269 229.622 164.413 229.495C164.558 229.367 164.727 229.269 164.909 229.207C165.092 229.145 165.285 229.12 165.477 229.131L166.49 229.184H166.703L167.796 229.292C167.989 229.308 168.177 229.363 168.348 229.452C168.52 229.543 168.672 229.665 168.796 229.814C168.92 229.962 169.013 230.134 169.07 230.318C169.127 230.505 169.147 230.698 169.129 230.892C169.096 231.259 168.928 231.602 168.657 231.852C168.386 232.104 168.032 232.246 167.663 232.25Z" fill="#452D34"/>
<path d="M180.191 233.609H180.005C178.752 233.449 178.272 233.37 178.006 233.263L176.7 233.103C176.311 233.061 175.955 232.865 175.71 232.56C175.465 232.257 175.351 231.866 175.393 231.477C175.436 231.089 175.631 230.732 175.936 230.487C176.241 230.242 176.631 230.128 177.019 230.171C178.459 230.331 178.805 230.384 179.072 230.49C179.51 230.595 179.956 230.666 180.405 230.703C180.789 230.769 181.133 230.98 181.367 231.293C181.6 231.605 181.704 231.996 181.657 232.384C181.595 232.727 181.414 233.038 181.146 233.261C180.878 233.487 180.54 233.609 180.191 233.609Z" fill="#452D34"/>
<path d="M292.382 202.13C283.399 209.726 269.165 207.701 259.037 213.406C250.533 217.962 243.63 225.107 238.326 233.077C237.366 234.889 231.475 242.832 234.514 243.739C235.927 244.059 236.22 242.619 236.593 241.632C242.964 228.385 254.772 215.618 269.538 212.393C278.148 211.086 287.291 209.673 294.274 204.023C295.501 202.85 293.633 200.931 292.382 202.13Z" fill="#452D34"/>
<path d="M271.137 236.355C269.005 238.726 255.838 249.362 260.102 252.135C261.382 252.507 261.889 250.855 261.969 250.509C262.315 249.602 263.462 248.003 263.728 247.656C266.472 244.192 269.859 241.339 273.004 238.247C274.229 237.047 272.364 235.128 271.137 236.355Z" fill="#452D34"/>
<path d="M410.168 133.654C413.553 105.774 379.594 85.676 357.284 100.15C342.225 88.8746 298.35 77.6262 289.103 121.846C287.45 131.149 286.25 140.558 285.237 149.94C283.105 163.241 285.716 181.26 297.312 188.59C297.285 188.74 297.285 188.893 297.312 189.043C297.536 190.318 297.633 191.613 297.605 192.908C292.887 189.949 288.089 194.72 290.569 200.211C291.634 203.489 294.247 206.129 297.658 206.874C304.801 208.502 333.856 214.178 341.905 207.249C346.543 214.498 354.165 219.216 360.804 224.495C374.583 234.09 381.326 250.456 380.607 267.034C380.554 268.527 379.835 275.778 379.727 276.923C373.758 339.11 316.61 352.117 264.473 330.792C261.674 329.433 258.475 328.501 256.21 326.261C256.183 326.207 256.183 326.181 256.157 326.154C255.944 325.675 255.65 325.196 255.437 324.77C255.464 324.796 255.437 324.77 255.41 324.688C255.011 323.729 254.744 321.678 254.664 321.117C254.024 319.224 255.011 313.12 253.251 312.774C244.962 309.336 240.564 315.76 245.202 318.852C243.922 319.784 243.203 321.09 243.229 322.476C235.153 320.265 227.689 316.479 220.653 311.228C216.761 308.402 211.777 302.859 213.722 300.406C213.97 300.129 214.237 299.872 214.522 299.634C218.654 296.542 222.678 300.086 225.477 303.498C226.168 304.394 226.766 305.36 227.263 306.377C227.476 308.429 230.355 308.402 230.035 306.244C227.663 298.7 215.748 290.438 210.87 300.273C210.391 303.418 211.936 306.563 214.575 309.496C211.164 308.748 206.392 306.723 203.94 304.751C203.127 304.125 202.385 303.409 201.728 302.619C201.301 301.899 200.475 301.18 199.595 301.712C198.716 302.245 198.716 302.939 199.116 303.551C202.634 308.349 208.605 310.802 214.229 312.135C215.135 312.242 216.654 312.668 217.747 312.508C225.69 319.065 238.325 324.235 244.375 325.542H244.615C245.08 326.01 245.599 326.422 246.161 326.768C248.533 328.314 251.545 327.727 254.264 328.021C254.264 328.048 254.264 328.048 254.291 328.075C255.891 329.914 258.395 330.925 260.582 331.939C293.553 347.452 341.852 348.652 365.948 320.052C365.655 332.418 364.215 344.84 365.36 357.181C365.894 358.993 368.559 357.98 367.893 356.221C367.068 345.454 368.159 334.605 368.452 323.836C368.292 322.636 368.933 318.905 368.694 316.532C371.945 311.951 374.539 306.936 376.395 301.632C377.356 300.512 380.687 290.704 382.074 281.028C382.42 278.442 383.114 270.02 383.22 268.341C384.498 248.324 375.676 230.304 358.297 219.242C354.059 215.99 349.421 212.526 345.77 208.074C344.951 207.073 344.22 206.003 343.584 204.875C343.924 203.938 344.041 202.935 343.931 201.944C343.931 198.292 342.651 195.094 340.466 193.414V193.361C340.386 191.545 340.466 189.725 340.705 187.923C341.146 185.023 341.932 182.186 343.05 179.474C343.238 179.021 343.664 178.114 344.09 177.235C345.583 177.368 347.555 176.808 348.941 176.649C367.653 174.329 373.064 146.529 369.705 124.912C372.158 122.806 375.543 119.581 380.634 115.076C380.773 114.941 380.943 114.844 381.129 114.792C381.316 114.741 381.513 114.738 381.701 114.783C383.327 115.263 375.011 117.982 375.889 128.244C378.156 154.552 364.934 167.266 360.644 190.003C354.353 223.215 397.213 243.098 407.396 216.257C410.035 209.301 408.835 201.464 404.49 195.413C390.656 176.249 387.138 171.264 403.665 149.461C407.183 144.855 409.426 139.403 410.168 133.654ZM227.29 306.43C227.343 306.537 227.396 306.803 227.263 306.404L227.29 306.43ZM225.424 303.445C225.431 303.445 225.438 303.448 225.443 303.454C225.448 303.457 225.45 303.464 225.45 303.471C225.29 303.258 225.371 303.365 225.424 303.445ZM245.948 321.837C245.946 321.857 245.937 321.876 245.921 321.891C245.937 321.876 245.946 321.857 245.948 321.837ZM249.093 325.142C249.173 325.142 249.067 325.089 248.987 325.116L248.107 324.849C247.307 324.502 246.241 323.516 245.975 322.876C245.975 322.876 245.895 322.689 245.921 322.716C245.948 322.743 245.761 322.263 245.841 322.476C245.921 322.689 245.841 322.343 245.841 322.21L245.921 321.917H245.948C246.089 321.615 246.299 321.349 246.561 321.143C247.361 320.584 248.32 320.451 249.413 320.185C250.506 319.917 250.693 317.891 249.413 317.625C248.669 317.505 247.938 317.318 247.227 317.066L246.961 316.933L246.481 316.638C246.39 316.535 246.292 316.436 246.188 316.345L246.081 316.186C246.089 316.14 246.08 316.092 246.055 316.053C246.055 315.946 246.081 315.813 246.081 315.68C246.105 315.552 246.14 315.428 246.188 315.307C246.217 315.241 246.253 315.179 246.294 315.119L246.481 314.933L246.774 314.773C247.012 314.673 247.264 314.611 247.521 314.586L248.054 314.533L249.413 314.613C250.152 314.72 250.883 314.879 251.599 315.092C251.705 318.506 251.732 322.077 252.851 325.302C251.599 325.222 250.319 325.275 249.093 325.142ZM246.055 316.079C246.081 316.106 246.081 316.106 246.081 316.132C246.081 316.125 246.078 316.118 246.073 316.113C246.068 316.109 246.062 316.106 246.055 316.106V316.079ZM367.866 356.114C367.866 356.008 367.84 355.901 367.866 356.114V356.114ZM341.291 203.489C341.291 203.063 341.318 203.329 341.291 203.489V203.489ZM340.998 204.529V204.583L340.918 204.769C340.466 205.569 339.053 206.262 338.76 206.368C324.926 209.221 310.399 207.355 297.019 203.864C294.167 202.69 292.541 199.332 292.647 196.453C292.647 196.426 292.674 196.32 292.674 196.266C292.708 195.961 292.823 195.669 293.004 195.421C293.187 195.173 293.432 194.978 293.712 194.854C293.606 194.827 294.646 194.64 294.965 194.667H295.072C295.526 194.725 295.958 194.894 296.329 195.159C296.701 195.424 297.001 195.777 297.206 196.186C297.262 196.354 297.353 196.509 297.472 196.64C297.449 196.763 297.44 196.888 297.445 197.013C297.419 198.745 300.111 198.745 300.111 197.013C300.093 196.488 300.111 195.962 300.164 195.44C300.191 195.387 300.244 195.333 300.244 195.307C300.59 194.924 301.015 194.619 301.487 194.413C301.961 194.206 302.472 194.102 302.988 194.107C304.135 194.187 305.149 195.094 305.601 196.133C305.69 196.394 305.761 196.662 305.814 196.933C305.841 198.425 308.161 198.612 308.454 197.093C309.359 194.747 312.451 194.427 313.731 195.6C314.215 195.959 314.601 196.436 314.851 196.986C315.224 199.065 317.488 198.612 317.623 197.359C317.996 196.586 318.156 196.48 318.688 195.946C319.223 195.413 319.728 195.387 319.356 195.547C319.659 195.433 319.97 195.344 320.288 195.28C320.572 195.262 320.857 195.271 321.141 195.307C320.793 195.307 321.088 195.307 321.221 195.333C322.009 195.497 322.71 195.942 323.193 196.586C323.334 196.781 323.458 196.986 323.566 197.199C323.641 197.5 323.813 197.768 324.058 197.96C324.301 198.151 324.603 198.255 324.913 198.255C325.222 198.255 325.524 198.151 325.767 197.96C326.012 197.768 326.184 197.5 326.259 197.199C326.765 196.027 328.071 194.667 329.484 195.2L329.324 195.147C329.404 195.12 329.83 195.413 329.883 195.467C330.006 195.575 330.121 195.691 330.229 195.813C330.332 195.949 330.402 196.105 330.434 196.272C330.465 196.438 330.46 196.609 330.418 196.773C329.937 198.505 332.682 199.145 333.002 197.359C333.055 197.093 333.295 196.56 333.108 196.933C333.274 196.562 333.51 196.227 333.802 195.946L334.042 195.787C334.262 195.629 334.495 195.486 334.734 195.36C340.413 192.988 341.959 200.131 340.998 204.529ZM314.423 196.346L314.505 196.4L314.423 196.346ZM318.608 196.08C318.608 196.044 318.635 196.018 318.688 196C318.742 195.982 318.715 196.009 318.608 196.08ZM329.777 195.413L329.857 195.493C329.83 195.467 329.803 195.467 329.777 195.413ZM348.941 162.975C344.037 164.787 343.292 169.692 342.278 174.01C342.173 174.428 342.129 174.858 342.145 175.289C339.372 180.513 337.747 186.377 337.773 192.295C336.121 192.082 334.228 192.535 332.15 193.921C330.497 191.922 326.951 192.055 324.872 194.454C322.634 192.188 318.608 192.215 316.37 194.481C314.157 191.868 309.92 191.682 307.44 193.974C305.868 191.762 302.749 191.015 300.324 192.055C300.324 191.398 300.298 190.758 300.244 190.136C302.531 191.101 304.962 191.678 307.44 191.842C309.893 192.401 325.7 191.495 324.793 188.243C324.698 187.905 324.477 187.617 324.171 187.443C323.868 187.268 323.506 187.22 323.167 187.31C316.022 189.443 308.507 190.536 301.123 187.55C279.56 177.288 289.103 141.811 291.714 122.593C301.176 122.886 313.252 109.612 314.104 108.572C315.437 107.16 317.943 108.013 318.289 109.932C321.301 126.751 344.49 149.594 351.315 146.049C356.805 142.61 358.191 148.395 357.951 149.754C358.404 150.953 358.75 150.687 359.923 150.367C358.297 157.59 356.006 159.963 348.941 162.975Z" fill="#452D34"/>
<path d="M336.922 142.85C333.697 138.239 330.498 133.575 327.353 128.91L324.687 124.912C324.207 124.192 323.22 124.005 322.608 124.645L312.585 134.561L310.48 136.666L310.133 136.587C309.317 136.528 308.497 136.538 307.68 136.613C307.647 136.482 307.592 136.356 307.521 136.24C305.21 131.772 302.62 127.454 299.764 123.312C299.659 123.141 299.519 122.995 299.35 122.885C299.183 122.775 298.994 122.703 298.795 122.675C298.596 122.647 298.394 122.663 298.202 122.723C298.01 122.782 297.833 122.884 297.685 123.019C295.268 124.974 292.843 126.893 290.408 128.777L283.798 133.974L282.465 134.987C282.259 135.199 282.127 135.474 282.094 135.768C282.06 136.063 282.124 136.36 282.278 136.613L291.634 149.967C291.665 150.1 291.72 150.227 291.794 150.34C291.963 150.604 292.213 150.805 292.508 150.911C292.802 151.017 293.124 151.023 293.42 150.927L293.686 150.793C293.796 150.719 293.896 150.629 293.981 150.527C297.423 148.051 300.708 145.362 303.816 142.477C304.721 141.624 305.628 140.771 306.482 139.892C306.603 139.767 306.702 139.623 306.775 139.465L307.6 139.305C308.211 139.225 308.825 139.199 309.439 139.225C309.448 139.294 309.475 139.359 309.519 139.412C311.694 143.627 314.34 147.579 317.409 151.193C318.263 152.206 319.168 153.192 320.075 154.152C320.608 154.685 321.408 154.605 321.967 154.152L323.274 153.086L323.62 152.819L323.806 152.659L324.447 152.18C325.352 151.486 326.286 150.82 327.246 150.154C329.112 148.874 331.057 147.648 333.029 146.529C334.149 145.889 335.296 145.276 336.441 144.69C336.746 144.506 336.966 144.211 337.057 143.868C337.145 143.524 337.097 143.159 336.922 142.85ZM295.019 146.449H294.993L294.833 146.555L294.46 146.875L293.768 147.382L293.314 147.701L285.237 136.187L288.116 133.921L295.713 127.95L298.324 125.871C300.804 129.585 303.081 133.428 305.149 137.386C305.053 137.484 304.981 137.603 304.936 137.733L304.615 137.972C301.59 140.987 298.385 143.818 295.019 146.449ZM323.327 149.701L321.142 151.38C320.634 150.847 320.128 150.287 319.649 149.727L318.503 148.368C318.343 148.155 318.156 147.941 317.997 147.701L317.73 147.382L317.596 147.195C316.197 145.357 314.898 143.444 313.705 141.464C313.172 140.558 312.665 139.652 312.159 138.719L321.648 129.336L323.327 127.657C326.153 131.895 328.979 136.08 331.882 140.265C332.523 141.198 333.162 142.131 333.83 143.037C330.17 144.996 326.659 147.224 323.327 149.701Z" fill="#CE9C5C"/>
<path d="M229.822 241.073C223.399 238.38 217.455 234.756 211.564 231.105C210.418 230.677 208.578 228.918 207.113 228.518C207.113 225.666 204.207 223.002 201.568 223.135C201.471 222.373 201.182 221.649 200.73 221.03C200.278 220.41 199.677 219.915 198.983 219.588C198.896 219.523 198.796 219.478 198.69 219.455C198.13 216.951 196.744 214.737 194.292 213.885C186.455 211.833 179.525 219.777 178.938 227.425C178.565 225.56 176.033 225.373 176.273 227.879C176.246 227.853 176.22 227.532 176.246 227.746C176.273 227.984 176.273 228.226 176.246 228.465C176.06 229.399 175.926 229.692 175.34 230.57H175.313V230.624C175.112 230.874 174.889 231.106 174.647 231.318H174.594C174.409 231.458 174.212 231.582 174.007 231.69H173.954C173.901 231.744 173.847 231.744 173.847 231.717L173.474 231.85H173.368C173.314 231.85 173.288 231.85 173.314 231.824H173.021C167.93 230.57 169.556 221.161 172.755 217.297C174.301 215.165 176.78 213.779 178.459 213.592C180.138 213.406 180.351 213.539 181.524 213.832C183.177 214.285 183.896 211.7 182.244 211.246C173.208 208.768 166.438 219.029 167.104 227.159C167.77 235.288 177.366 237.448 178.912 228.545C178.906 230.336 179.336 232.102 180.165 233.689C183.07 238.593 189.201 236.621 190.453 231.584C191.573 228.385 188.454 227.159 187.974 229.692C188.028 229.798 187.948 230.464 187.974 230.544C187.919 230.826 187.839 231.103 187.734 231.371H187.761V231.424L187.708 231.531C187.553 231.859 187.366 232.171 187.148 232.464C186.909 232.764 186.641 233.041 186.349 233.29H186.242L185.602 233.662H185.629C185.602 233.662 185.576 233.662 185.576 233.689H185.522C185.469 233.716 185.442 233.689 185.442 233.689L185.042 233.796H184.643L184.456 233.742L184.189 233.662C183.595 233.389 183.074 232.977 182.67 232.464C182.643 232.438 182.617 232.438 182.617 232.411C180.884 230.118 181.684 225.799 182.67 223.481C183.219 222.198 183.927 220.989 184.776 219.883V219.936L184.829 219.856C185.451 219.061 186.167 218.344 186.962 217.723L186.828 217.829C189.147 215.804 192.426 215.724 194.105 216.363H194.132C194.398 216.631 194.665 216.924 194.905 217.217C195.267 217.695 195.571 218.213 195.811 218.763C196.075 219.397 196.262 220.059 196.371 220.735C196.464 221.568 196.464 222.409 196.371 223.241V223.321C196.289 223.935 196.155 224.541 195.971 225.134C195.518 226.759 198.05 227.478 198.53 225.879C198.77 226.786 200.049 227.319 200.795 226.52C200.974 226.275 201.135 226.016 201.275 225.746C201.329 225.693 201.408 225.693 201.648 225.639H202.208C203.088 225.879 203.328 226.041 203.994 226.786C204.134 226.999 204.259 227.221 204.367 227.452C204.367 227.478 204.394 227.478 204.394 227.505C204.475 227.72 204.529 227.943 204.554 228.172C204.58 228.279 204.554 228.412 204.58 228.545L204.5 228.731C203.914 229.878 200.609 231.078 202.181 232.997C202.405 233.219 202.695 233.359 203.008 233.396V233.662C202.981 233.822 202.901 233.955 202.874 234.117C202.824 234.182 202.78 234.255 202.741 234.33L202.688 234.41C202.332 234.41 201.99 234.548 201.736 234.798C201.482 235.047 201.335 235.386 201.329 235.743C202.235 239.048 206.126 235.689 205.673 233.396C205.668 232.869 205.52 232.354 205.247 231.903C205.656 231.587 206.024 231.22 206.34 230.812C213.989 234.995 221.24 240.754 229.609 243.258C230.569 243.258 230.862 241.552 229.822 241.073ZM175.26 230.703C175.262 230.684 175.271 230.664 175.287 230.65C175.271 230.664 175.262 230.684 175.26 230.703ZM182.697 232.81L182.59 232.651L182.697 232.81ZM193.998 216.551C193.652 216.337 193.839 216.417 193.998 216.551V216.551ZM198.983 223.88V224.173C198.93 224.386 198.85 224.574 198.796 224.761C198.798 224.775 198.796 224.789 198.791 224.803C198.787 224.818 198.779 224.83 198.77 224.841V224.894C198.85 224.413 198.93 223.907 198.983 223.401C198.99 223.492 199.008 223.58 199.036 223.667C198.876 223.108 199.009 223.747 198.983 223.88ZM203.114 233.689H203.061L203.328 233.742L203.114 233.689ZM204.42 228.944C204.447 228.918 204.447 228.865 204.474 228.838C204.447 228.865 204.447 228.918 204.42 228.944Z" fill="#452D34"/>
<path d="M173.447 231.903C173.395 231.886 173.339 231.886 173.287 231.903H173.447Z" fill="#452D34"/>
<path d="M185.549 233.822L185.389 233.875H185.522C185.515 233.872 185.51 233.867 185.507 233.859C185.505 233.852 185.505 233.843 185.509 233.836C185.512 233.829 185.518 233.824 185.526 233.822C185.533 233.819 185.542 233.819 185.549 233.822Z" fill="#452D34"/>
<path d="M186.296 233.369C186.272 233.369 186.248 233.377 186.228 233.391C186.209 233.405 186.195 233.427 186.188 233.45L186.242 233.396L186.296 233.369Z" fill="#452D34"/>
<path d="M187.708 231.477C187.681 231.477 187.654 231.584 187.654 231.61L187.708 231.504V231.477Z" fill="#452D34"/>
<path d="M163.719 228.652C163.659 228.987 163.57 229.317 163.453 229.638H163.479L163.426 229.692C163.399 229.772 163.399 229.745 163.399 229.718C162.813 230.918 162.36 231.397 161.294 231.983L160.734 232.143H160.521C159.828 232.17 158.788 231.371 158.442 230.918C155.376 226.493 158.708 218.71 162.84 215.777C164.759 214.524 165.958 214.125 168.304 214.311C168.848 214.395 169.384 214.528 169.903 214.711C171.529 215.192 172.275 212.606 170.596 212.126C161.694 209.167 154.364 219.082 154.603 227.212C154.843 235.341 164.039 237.981 166.278 229.425C167.158 225.693 163.16 225.772 163.719 228.652Z" fill="#452D34"/>
<path d="M163.452 229.638L163.398 229.746C163.414 229.732 163.423 229.712 163.425 229.692L163.452 229.638Z" fill="#452D34"/>
<path d="M371.305 133.468C372.904 134.454 374.53 135.467 376.369 135.84C378.21 136.213 380.341 135.76 381.488 134.294C382.633 132.828 382.58 130.589 382.021 128.75C381.461 126.911 380.528 125.152 380.235 123.232C379.942 121.313 380.421 118.914 380.315 116.755C380.049 110.971 375.464 106.227 370.4 103.401C368.934 102.602 367.361 101.829 366.48 100.416C365.602 99.0034 365.708 98.1771 365.415 97.0574C364.926 95.1765 364.049 93.4182 362.842 91.8945C361.635 90.371 360.124 89.1154 358.404 88.2082C356.885 87.4085 355.046 86.9021 353.473 87.5418C350.754 88.6347 350.221 92.233 350.568 95.1383C351.288 101.696 354.513 108.439 357.685 114.223C363.388 124.672 371.305 133.468 371.305 133.468Z" fill="#EFDCC4"/>
<path d="M354.302 90.154L354.194 90.2347C354.194 90.2884 354.194 90.2616 354.302 90.154Z" fill="#452D34"/>
<path d="M382.421 123.952C383.541 112.464 379.568 107.426 369.493 101.855C366.774 99.7496 368.694 94.7652 362.324 89.6742C355.526 83.8902 348.729 88.1816 350.195 96.8177C351.236 104.388 354.78 111.398 358.538 117.982C362.187 124.112 366.38 129.901 371.066 135.281C371.14 135.39 371.231 135.489 371.332 135.574L371.572 135.733C375.198 138.426 381.648 140.105 384.073 135.12C385.805 131.309 383.115 127.657 382.421 123.952ZM381.968 133.015C381.947 133.046 381.938 133.084 381.941 133.121C381.888 133.308 381.861 133.495 381.808 133.681C381.776 133.741 381.75 133.804 381.728 133.868C381.489 134.534 381.302 134.561 380.848 135.041C380.395 135.52 378.69 135.814 377.916 135.68C376.05 135.387 374.717 134.534 373.065 133.521C364.243 123.099 355.313 110.225 352.835 96.6844C352.54 94.0189 352.649 91.7 354.193 90.234L354.301 90.154C354.313 90.1375 354.329 90.124 354.347 90.1147C354.365 90.1055 354.386 90.1007 354.408 90.1007L354.754 89.9142C354.848 89.8678 354.945 89.8322 355.047 89.8075L355.473 89.7008C355.801 89.6611 356.131 89.6611 356.459 89.7008C359.072 90.154 361.337 92.1265 362.75 93.8323C363.336 94.5254 364.296 96.3645 364.429 96.6578C366.241 104.628 367.921 103.668 373.652 107.586C374.983 108.616 376.183 109.807 377.223 111.131C377.543 111.451 378.69 113.317 379.062 114.223C379.703 115.609 380.076 117.982 379.836 120.007C378.956 123.899 381.141 128.324 381.941 131.469C381.989 131.983 381.998 132.499 381.968 133.015Z" fill="#452D34"/>
<path d="M357.899 96.6045C357.872 96.5245 357.899 96.3113 357.872 96.258C357.846 96.2046 357.846 96.6045 357.899 96.3113C357.952 96.018 357.739 96.5511 357.872 96.3379L358.032 96.0981C358.085 96.018 358.059 96.0447 357.926 96.2046L358.059 96.0713L358.245 95.9114L358.165 95.9648H358.245L358.378 95.8847C358.511 95.8049 358.485 95.8315 358.298 95.9114L358.538 95.8315H358.511C358.565 95.8581 358.724 95.8049 358.804 95.8049C358.886 95.8049 358.565 95.7248 358.831 95.8049L359.072 95.8847C359.338 95.9648 358.857 95.7514 359.072 95.8847L359.392 96.0713C359.605 96.178 359.179 95.8847 359.392 96.0713C359.537 96.1909 359.672 96.3249 359.791 96.4712C359.871 96.5511 359.844 96.5245 359.738 96.3911C359.757 96.4462 359.795 96.493 359.844 96.5245C359.878 96.6098 359.924 96.6904 359.977 96.7644C360.024 96.8392 360.061 96.9197 360.084 97.0042V96.9244L360.164 97.0843C360.249 97.2776 360.295 97.4861 360.297 97.6974C360.27 97.5374 360.27 97.5106 360.297 97.6706C360.293 97.7339 360.302 97.7977 360.324 97.8573V98.257C360.32 98.489 360.302 98.7203 360.27 98.95C360.276 99.0309 360.267 99.112 360.244 99.19L360.164 99.5364C360.111 99.8031 360.057 100.069 359.977 100.336C359.915 100.508 359.889 100.692 359.901 100.875C359.912 101.058 359.962 101.236 360.045 101.399C360.128 101.563 360.246 101.707 360.388 101.823C360.53 101.939 360.693 102.024 360.87 102.074C361.046 102.124 361.231 102.136 361.413 102.111C361.595 102.086 361.768 102.024 361.925 101.928C362.081 101.833 362.218 101.706 362.322 101.556C362.427 101.406 362.5 101.235 362.537 101.056C363.096 99.0833 363.309 96.7378 362.029 94.9786C361.458 94.1492 360.622 93.5384 359.658 93.246C359.179 93.112 358.675 93.0831 358.183 93.1612C357.69 93.2395 357.221 93.423 356.806 93.6992C355.874 94.3389 355.126 95.405 355.26 96.6045C355.313 97.2975 355.82 97.9638 356.593 97.9372C357.366 97.9106 357.979 97.3507 357.926 96.6045H357.899Z" fill="#D13535"/>
<path d="M367.681 110.891C367.814 110.678 367.627 110.971 367.601 110.945C367.574 110.918 367.707 110.865 367.707 110.838L367.84 110.731C367.814 110.785 367.574 110.918 367.76 110.811L367.867 110.758C368 110.678 367.947 110.785 367.76 110.785L368.053 110.705C368.266 110.651 367.947 110.731 367.92 110.705H368.561C368.534 110.731 368.213 110.651 368.454 110.705L368.774 110.785L369.093 110.891H369.014L369.147 110.945C369.353 111.05 369.55 111.175 369.732 111.318C369.732 111.344 369.519 111.131 369.679 111.265L369.812 111.371L370.027 111.611L370.134 111.744C370.134 111.744 369.945 111.478 370.107 111.664L370.32 111.984L370.613 112.544C370.719 112.757 370.56 112.491 370.56 112.464L370.639 112.624C370.666 112.731 370.719 112.864 370.746 112.997C370.815 113.197 370.868 113.402 370.906 113.61C370.906 113.61 370.906 113.743 370.932 113.77C370.959 113.797 370.879 113.423 370.906 113.663C370.927 113.787 370.936 113.912 370.932 114.037C370.959 114.249 370.959 114.464 370.932 114.676C370.938 114.793 370.929 114.909 370.906 115.023C370.906 115.183 370.852 115.103 370.932 114.916C370.911 114.985 370.902 115.057 370.906 115.129L370.746 115.769C370.723 115.879 370.687 115.987 370.639 116.089C370.634 116.146 370.616 116.2 370.586 116.249C370.56 116.302 370.453 116.516 370.56 116.329C370.666 116.142 370.56 116.302 370.56 116.356L370.453 116.542C370.407 116.666 370.343 116.782 370.267 116.889L370.08 117.208L369.972 117.342C369.839 117.555 370.107 117.182 369.999 117.315L369.493 117.875L369.2 118.115C369.2 118.115 369.466 117.928 369.253 118.061L369.04 118.221C368.481 118.595 368.16 119.394 368.588 120.034C369.014 120.674 369.786 120.913 370.4 120.514C371.422 119.808 372.253 118.859 372.817 117.751C373.38 116.643 373.657 115.412 373.625 114.17C373.545 111.584 372.106 109.026 369.519 108.253C368.802 108.026 368.039 107.999 367.308 108.173C366.509 108.378 365.817 108.872 365.362 109.559C364.961 110.145 365.256 111.078 365.842 111.398C366.152 111.567 366.514 111.612 366.857 111.523C367.198 111.434 367.492 111.217 367.681 110.918V110.891Z" fill="#D13535"/>
<path d="M373.09 124.752L373.385 124.618L373.064 124.752L373.758 124.565L373.412 124.618C373.667 124.592 373.926 124.592 374.184 124.618L373.838 124.565C374.12 124.617 374.397 124.697 374.663 124.805L374.343 124.672L374.769 124.885C374.878 124.965 375.037 125.152 374.743 124.858L374.931 125.018L375.091 125.205C375.224 125.365 374.878 124.912 375.064 125.178L375.304 125.605L375.171 125.285C375.261 125.535 375.323 125.794 375.357 126.058V125.711C375.384 125.977 375.384 126.245 375.357 126.511V126.164C375.32 126.419 375.258 126.669 375.171 126.911L375.304 126.591L375.117 126.964L375.011 127.124L375.117 126.964L375.064 127.071C374.816 127.318 374.672 127.653 374.663 128.004C374.661 128.178 374.697 128.352 374.764 128.512C374.833 128.673 374.936 128.817 375.064 128.936C375.543 129.416 376.45 129.523 376.93 128.936C377.448 128.392 377.792 127.705 377.915 126.964C378.076 126.2 378.021 125.406 377.755 124.672C377.487 123.917 377.002 123.257 376.363 122.774C375.724 122.291 374.958 122.005 374.157 121.953C373.325 121.877 372.489 122.053 371.759 122.459C371.454 122.642 371.234 122.937 371.143 123.281C371.054 123.625 371.102 123.99 371.278 124.299C371.461 124.597 371.754 124.811 372.093 124.896C372.432 124.981 372.79 124.929 373.09 124.752Z" fill="#D13535"/>
<path d="M359.125 104.761C357.552 107.293 359.098 111.105 362.029 111.771C362.723 111.931 363.522 111.558 363.681 110.838C363.772 110.499 363.724 110.138 363.55 109.833C363.374 109.529 363.087 109.306 362.75 109.212L362.403 109.105C362.162 109.026 362.696 109.239 362.483 109.159L362.324 109.079L362.029 108.865C361.816 108.759 362.27 109.079 362.109 108.946L361.949 108.812L361.709 108.546C361.66 108.514 361.622 108.467 361.603 108.412C361.869 108.732 361.709 108.572 361.656 108.492C361.585 108.392 361.521 108.285 361.47 108.172L361.39 108.013C361.363 107.959 361.23 107.719 361.337 107.959C361.443 108.199 361.363 107.959 361.337 107.906C361.307 107.857 361.289 107.803 361.283 107.746C361.235 107.625 361.2 107.5 361.177 107.373C361.177 107.32 361.15 107.08 361.177 107.346C361.204 107.613 361.177 107.373 361.177 107.32V106.76C361.204 106.493 361.124 107.026 361.15 106.893L361.23 106.52C361.26 106.471 361.278 106.417 361.283 106.36C361.363 106.093 361.177 106.573 361.257 106.467L361.443 106.093C361.621 105.786 361.667 105.421 361.575 105.078C361.482 104.736 361.257 104.444 360.95 104.268C360.643 104.091 360.277 104.043 359.934 104.136C359.592 104.228 359.301 104.453 359.125 104.761Z" fill="#D13535"/>
<path d="M319.088 105.054C319.625 105.532 320.116 106.058 320.555 106.627L320.368 106.36C320.903 107.082 321.359 107.86 321.728 108.679L321.595 108.386C321.628 108.497 321.673 108.604 321.728 108.706C321.826 109.032 322.031 109.315 322.314 109.505C322.635 109.667 323.002 109.714 323.354 109.638C323.993 109.425 324.554 108.679 324.287 107.986C323.593 106.14 322.459 104.493 320.982 103.188C320.721 102.942 320.381 102.8 320.022 102.788C319.848 102.786 319.674 102.821 319.513 102.89C319.353 102.958 319.207 103.06 319.088 103.188C318.636 103.668 318.529 104.574 319.088 105.054Z" fill="white"/>
<path d="M326.046 117.448C329.082 123.868 333.432 129.58 338.814 134.214C340.378 135.557 342.014 136.812 343.718 137.973C344.027 138.149 344.391 138.197 344.735 138.108C345.08 138.018 345.374 137.797 345.557 137.493C345.721 137.182 345.761 136.82 345.673 136.48C345.584 136.14 345.373 135.845 345.078 135.654L342.944 134.161L342.705 133.974C342.652 133.921 342.385 133.708 342.625 133.894L342.119 133.494L341.106 132.668C339.774 131.563 338.51 130.38 337.321 129.123C336.146 127.9 335.035 126.619 333.99 125.285C333.963 125.258 333.723 124.965 333.91 125.232C333.862 125.133 333.8 125.043 333.723 124.965L333.322 124.432L332.577 123.392C332.062 122.682 331.581 121.962 331.137 121.233C330.101 119.577 329.165 117.859 328.338 116.089C328.045 115.476 327.085 115.263 326.526 115.609C325.967 115.956 325.727 116.755 326.046 117.448Z" fill="white"/>
<path d="M296.885 118.328C298.01 118.243 299.098 117.9 300.069 117.327C301.04 116.754 301.866 115.966 302.483 115.023C302.576 114.872 302.638 114.705 302.666 114.53C302.693 114.355 302.686 114.176 302.643 114.005C302.601 113.833 302.524 113.671 302.419 113.529C302.313 113.387 302.182 113.267 302.029 113.177C301.876 113.087 301.708 113.028 301.532 113.003C301.358 112.979 301.179 112.99 301.008 113.035C300.836 113.08 300.676 113.159 300.536 113.267C300.396 113.375 300.279 113.51 300.192 113.663L299.95 114.01C300.192 113.637 299.95 114.01 299.871 114.116L299.258 114.703C299.205 114.73 298.992 114.889 299.205 114.73C299.418 114.57 299.178 114.73 299.152 114.783L298.806 114.996L298.032 115.396L298.351 115.236C297.875 115.443 297.373 115.586 296.858 115.662L297.206 115.609L296.885 115.662C296.532 115.671 296.193 115.803 295.927 116.036C295.683 116.296 295.55 116.639 295.554 116.995C295.58 117.662 296.14 118.381 296.885 118.328Z" fill="white"/>
<path d="M389.857 105.987L391.057 106.333L391.643 106.547L391.936 106.653C392.069 106.707 392.042 106.707 391.883 106.653L392.069 106.733C392.827 107.056 393.558 107.44 394.256 107.879L395.268 108.572L395.454 108.706C395.481 108.732 395.775 108.946 395.507 108.759L396.068 109.212C396.702 109.748 397.298 110.327 397.854 110.945C398.147 111.238 398.413 111.558 398.679 111.878L398.866 112.117C398.894 112.171 399.107 112.437 398.921 112.171L399.347 112.757C399.858 113.487 400.33 114.243 400.759 115.023L401.345 116.169C401.453 116.377 401.551 116.59 401.638 116.809L401.798 117.128L401.878 117.368C402.226 118.221 402.545 119.101 402.811 120.007C403.078 120.914 403.397 122.06 403.61 123.073C403.718 123.632 403.825 124.165 403.905 124.699C403.963 124.971 404.008 125.247 404.038 125.525C404.064 125.631 404.064 125.738 404.091 125.871C404.091 125.925 404.118 126.005 404.118 126.085C404.198 126.778 404.677 127.471 405.451 127.417C406.223 127.364 406.89 126.831 406.782 126.085C406.25 122.006 405.264 117.982 403.397 114.303C401.709 110.95 399.206 108.072 396.121 105.934C394.433 104.776 392.557 103.919 390.576 103.401C390.408 103.354 390.23 103.341 390.054 103.362C389.88 103.383 389.71 103.439 389.557 103.526C389.403 103.612 389.268 103.728 389.16 103.867C389.052 104.006 388.972 104.165 388.924 104.334C388.878 104.504 388.863 104.681 388.885 104.856C388.906 105.031 388.961 105.2 389.048 105.354C389.135 105.507 389.25 105.642 389.391 105.751C389.529 105.859 389.687 105.94 389.857 105.987Z" fill="white"/>
<path d="M401.425 139.918C401.425 140.158 401.425 140.425 401.399 140.691V140.345C401.353 140.787 401.236 141.219 401.053 141.624L401.186 141.304C401.017 141.723 400.792 142.117 400.52 142.477L400.733 142.211C400.57 142.418 400.391 142.614 400.199 142.797C400.075 142.919 399.977 143.064 399.91 143.224C399.842 143.384 399.807 143.556 399.807 143.73C399.807 143.904 399.842 144.076 399.91 144.236C399.977 144.396 400.075 144.541 400.199 144.663C400.453 144.909 400.792 145.046 401.145 145.046C401.498 145.046 401.839 144.909 402.093 144.663C402.732 144.052 403.238 143.315 403.579 142.498C403.918 141.681 404.083 140.803 404.065 139.918C404.038 139.199 403.477 138.532 402.732 138.586C402.379 138.586 402.04 138.726 401.789 138.976C401.539 139.226 401.399 139.565 401.399 139.918H401.425Z" fill="white"/>
<path d="M385.885 224.548C390.123 225.959 395.054 224.628 398.226 221.536C399.121 220.662 399.859 219.643 400.411 218.523C400.732 217.909 400.599 217.057 399.932 216.711C399.266 216.363 398.439 216.525 398.12 217.19C397.907 217.629 397.656 218.048 397.374 218.443L397.159 218.736C397.106 218.816 397.133 218.869 397.213 218.683L397.106 218.816L396.627 219.349L395.56 220.336L395.613 220.282L395.454 220.389L395.214 220.575L394.548 221.001C394.138 221.255 393.71 221.479 393.269 221.669C393.162 221.722 393.162 221.775 393.322 221.642L393.162 221.722L392.869 221.828L392.122 222.068C391.659 222.194 391.186 222.292 390.709 222.361C390.469 222.414 390.977 222.334 390.656 222.388H388.364C388.364 222.388 388.178 222.388 388.178 222.361H388.231C387.681 222.26 387.139 222.127 386.605 221.962C386.437 221.912 386.261 221.898 386.087 221.915C385.913 221.935 385.744 221.988 385.592 222.072C385.437 222.157 385.302 222.27 385.192 222.407C385.082 222.544 385.001 222.7 384.953 222.869C384.869 223.209 384.919 223.571 385.091 223.879C385.265 224.186 385.549 224.415 385.885 224.521V224.548Z" fill="white"/>
</svg>
