<svg width="47" height="46" viewBox="0 0 47 46" fill="none" xmlns="http://www.w3.org/2000/svg">
<path d="M7.32685 33.3058C4.35759 24.6986 9.01185 8.95726 17.7019 5.95944C26.3919 2.96162 37.9167 8.52162 40.886 17.1289C43.8552 25.7361 41.9764 35.0614 33.2863 38.0592C24.5963 41.0571 10.2961 41.9131 7.32685 33.3058Z" fill="white"/>
<path d="M24 37.1251C21.4041 37.1251 18.8665 36.3553 16.7081 34.9131C14.5498 33.4709 12.8675 31.4211 11.8741 29.0228C10.8807 26.6245 10.6208 23.9855 11.1272 21.4395C11.6336 18.8935 12.8837 16.5549 14.7192 14.7193C16.5548 12.8837 18.8934 11.6337 21.4394 11.1273C23.9854 10.6208 26.6244 10.8808 29.0227 11.8742C31.421 12.8676 33.4709 14.5498 34.913 16.7082C36.3552 18.8666 37.125 21.4042 37.125 24.0001C37.125 27.481 35.7422 30.8194 33.2808 33.2808C30.8194 35.7423 27.481 37.1251 24 37.1251ZM24 12.7501C21.775 12.7501 19.5999 13.4099 17.7498 14.646C15.8998 15.8822 14.4578 17.6392 13.6064 19.6949C12.7549 21.7506 12.5321 24.0126 12.9662 26.1948C13.4003 28.3771 14.4717 30.3817 16.0451 31.955C17.6184 33.5284 19.623 34.5998 21.8052 35.0339C23.9875 35.468 26.2495 35.2452 28.3052 34.3937C30.3609 33.5422 32.1179 32.1003 33.354 30.2502C34.5902 28.4002 35.25 26.2251 35.25 24.0001C35.25 21.0164 34.0647 18.1549 31.955 16.0451C29.8452 13.9353 26.9837 12.7501 24 12.7501Z" fill="#83601B"/>
<path d="M28.3031 29.6251L23.0625 24.3845V15.5626H24.9375V23.6063L29.625 28.3032L28.3031 29.6251Z" fill="#83601B"/>
</svg>
