<svg width="24" height="24" viewBox="0 0 24 24" fill="none" xmlns="http://www.w3.org/2000/svg">
<g clip-path="url(#clip0_85_16464)">
<path d="M3.28292 10.94C3.00202 11.2212 2.84424 11.6025 2.84424 12C2.84424 12.3975 3.00202 12.7787 3.28292 13.06L8.93892 18.719C9.22031 19.0004 9.60197 19.1584 9.99992 19.1584C10.3979 19.1584 10.7795 19.0004 11.0609 18.719C11.3423 18.4376 11.5004 18.0559 11.5004 17.658C11.5004 17.26 11.3423 16.8784 11.0609 16.597L7.96492 13.5L19.4999 13.5C19.8977 13.5 20.2793 13.3419 20.5606 13.0606C20.8419 12.7793 20.9999 12.3978 20.9999 12C20.9999 11.6021 20.8419 11.2206 20.5606 10.9393C20.2793 10.658 19.8977 10.5 19.4999 10.5L7.96492 10.5L11.0609 7.40397C11.2003 7.26463 11.3108 7.09922 11.3862 6.91718C11.4616 6.73513 11.5004 6.54001 11.5004 6.34297C11.5004 6.14592 11.4616 5.9508 11.3862 5.76876C11.3108 5.58671 11.2003 5.4213 11.0609 5.28197C10.9216 5.14263 10.7562 5.03211 10.5741 4.9567C10.3921 4.8813 10.197 4.84249 9.99992 4.84249C9.80287 4.84249 9.60776 4.8813 9.42571 4.9567C9.24366 5.03211 9.07825 5.14263 8.93892 5.28197L3.28292 10.94Z" fill="black"/>
</g>
<defs>
<clipPath id="clip0_85_16464">
<rect width="24" height="24" fill="white" transform="translate(0 24) rotate(-90)"/>
</clipPath>
</defs>
</svg>
