<svg width="44" height="45" viewBox="0 0 44 45" fill="none" xmlns="http://www.w3.org/2000/svg">
<path d="M33.7527 15.0255C32.9734 13.5934 31.9222 12.1121 30.2911 11.3714C29.1856 10.894 27.3188 10.6645 26.8477 12.0304C25.4339 15.1241 25.3977 17.2306 29.8199 16.9011C31.3967 16.9673 34.967 17.5263 33.7527 15.0255ZM27.7539 15.0903V15.0579C27.7562 15.0579 27.7585 15.0579 27.7607 15.0593C27.763 15.0593 27.7649 15.0607 27.7666 15.0621C27.7683 15.0649 27.7697 15.0663 27.7706 15.0677C27.7714 15.0705 27.7719 15.072 27.7719 15.0748L27.7539 15.0903ZM27.7539 15.0903C27.7539 15.0945 27.7519 15.0987 27.7484 15.1029C27.745 15.1057 27.7405 15.1072 27.7357 15.1072C27.7176 15.0748 27.7357 15.0748 27.7539 15.0903ZM27.8626 15.1902H27.8444C27.8444 15.1902 27.772 15.1733 27.7539 15.1241V15.0748C27.7661 15.0537 27.7723 15.0311 27.7719 15.0086C28.2976 15.0903 28.8775 15.0086 29.2038 14.7776C29.5299 14.5481 29.3488 13.347 28.5693 13.3625H28.2432C28.3337 13.1161 28.4245 12.8696 28.5332 12.6063H28.7687C30.2731 12.8203 31.1974 14.1862 31.9041 15.3043L27.8626 15.1902ZM32.6291 15.3536C32.6473 15.3705 32.6653 15.3536 32.6291 15.3536V15.3536Z" fill="#452D34"/>
<path d="M22.9961 8.41178L22.7836 8.65271C22.5617 8.81271 22.383 9.04989 22.2699 9.33602C21.3134 11.1826 23.0848 13.6241 24.6788 12.8542C27.3711 11.5798 25.5114 6.5407 22.9961 8.41178Z" fill="#452D34"/>
<path d="M28.9962 7.32951L28.7835 7.52225C28.5582 7.64573 28.3782 7.83699 28.2699 8.06739C27.3135 9.54616 29.0847 11.4993 30.6789 10.8834C33.3712 9.86238 31.5113 5.83267 28.9962 7.32951Z" fill="#452D34"/>
<path d="M42.524 15.9698C41.9403 15.1698 39.7149 12.0842 38.2008 11.6754C34.2791 -2.46896 16.0016 -5.4615 7.86609 12.2528C7.78336 12.3482 7.69174 12.4341 7.59247 12.512C5.64073 13.6826 1.88305 13.6461 0.6974 16.3785C-0.0140523 17.643 0.587985 19.6868 1.93784 20.0208C1.81016 22.6976 3.52479 24.2961 5.64073 24.8162C5.75015 25.6719 5.85957 26.4894 6.02378 27.2703C3.25117 26.7311 -0.415356 28.8131 0.405515 31.5456C0.423777 31.5647 0.423777 31.5822 0.405515 31.6204C0.411134 31.6522 0.404578 31.6856 0.387252 31.7126C-0.743611 33.3302 0.770453 35.6348 2.75871 36.0992C5.36711 36.9358 9.23421 36.1183 11.0583 36.9549L11.7332 37.5498H11.7514L12.2987 37.976C11.0217 38.5152 9.9274 39.5936 9.89087 40.9503C10.0551 41.6946 11.2225 41.8791 11.569 41.1729C11.9157 40.4667 11.8974 40.5049 12.3899 40.0405C12.5901 39.9053 12.7971 39.7812 13.0102 39.6683C13.0053 39.6683 13.0006 39.6699 12.9972 39.6731C12.9938 39.6763 12.9919 39.681 12.9919 39.6858C12.9919 39.681 12.9938 39.6763 12.9972 39.6731C13.0006 39.6699 13.0053 39.6683 13.0102 39.6683H13.0283C13.1378 39.6301 13.083 39.6683 13.0283 39.6858C13.2649 39.5952 13.5092 39.5268 13.758 39.4822C13.1559 40.2997 12.8094 41.3781 13.3567 42.1956C13.9039 43.0132 15.0348 42.1591 14.9254 41.2668C14.9619 41.1554 14.9801 41.0441 15.0165 40.9312C15.0661 40.8548 15.1088 40.7737 15.1442 40.691C15.199 40.9137 15.2538 41.1554 15.2901 41.3972C15.3479 41.9093 15.3418 42.4279 15.272 42.94C14.9619 43.7575 16.494 44.7802 17.0413 43.3853C17.2108 42.2815 17.1485 41.1539 16.859 40.0771C17.6438 40.2632 18.4436 40.3745 19.2486 40.4111C18.4241 41.3702 17.9931 42.6139 18.0446 43.8879C18.081 44.3699 18.4459 44.8359 18.9567 44.8168C19.8139 44.7977 19.9235 43.9436 19.8869 43.2549C19.9282 42.9957 19.9954 42.7396 20.0875 42.4931C20.2066 42.2338 20.3469 41.9857 20.5071 41.7503H20.5254C20.6891 41.5451 20.8723 41.359 21.0726 41.192L21.3462 41.0059C21.0615 42.0907 21.0117 43.2263 21.2003 44.3333C21.5468 45.5786 23.371 44.909 22.9514 43.7193C22.9119 43.4617 22.8998 43.2008 22.9149 42.94C22.9088 42.6967 22.9212 42.4549 22.9514 42.2147V42.1766C23.0029 41.8823 23.0699 41.5912 23.152 41.3034L23.4622 41.2286C23.9679 41.5229 24.37 41.9714 24.6113 42.5121C24.7207 43.1436 25.1585 43.8132 25.87 43.5905C26.0988 43.5205 26.2928 43.3647 26.4116 43.1531C26.5306 42.9416 26.5652 42.6919 26.5084 42.4565C26.2228 41.3352 25.5321 40.3665 24.5749 39.7431C30.412 37.9585 35.8478 32.7353 37.9637 24.6683L38.0184 24.5013C39.6419 24.743 41.2653 23.6837 41.8308 22.1219C42.3559 22.0662 42.8492 21.8387 43.2353 21.4713C44.8405 19.8729 43.582 17.4935 42.524 15.9698ZM2.4303 18.2553L2.39377 18.2188L2.4303 18.2553ZM2.21146 17.8466C2.22973 17.8657 2.22973 17.8832 2.22973 17.9213C2.23238 17.8943 2.22598 17.8688 2.21146 17.8466ZM2.50335 20.0399L2.77682 20.0033C2.73623 20.0272 2.69097 20.0447 2.64383 20.051C2.59684 20.0574 2.54893 20.0526 2.50335 20.0399ZM1.90131 33.3858C1.87244 33.3142 1.85386 33.2395 1.84653 33.1631C1.84653 33.1075 1.82842 33.0693 1.82842 33.0136V32.9771C1.8459 32.9421 1.85823 32.9039 1.86479 32.8657C2.1932 32.2884 2.37567 31.5822 2.12015 30.9508C2.10205 30.9317 2.10205 30.876 2.10205 30.8569V30.7281L2.15667 30.5786C2.1932 30.5229 2.30262 30.3002 2.33914 30.2637C2.37551 30.2255 2.33914 30.2446 2.35741 30.2255C2.47229 30.0712 2.60731 29.9344 2.75871 29.8167C2.74045 29.8167 2.74045 29.7976 2.79508 29.7801H2.8316C2.94914 29.699 3.07089 29.6243 3.19638 29.5559L3.43364 29.427C4.32521 29.0326 5.33214 29.0056 6.24261 29.3523C6.34812 29.4557 6.47191 29.5384 6.60755 29.5941C7.14512 31.4311 7.97723 33.1632 9.07 34.7234C6.13319 34.4451 2.88639 35.0956 1.90131 33.3858ZM12.3533 40.0771L12.3899 40.0405C12.3716 40.058 12.3716 40.0771 12.3533 40.0771ZM28.9162 35.4678C28.4601 35.9131 25.9065 37.4368 25.3775 37.5864C23.2068 38.5709 20.5619 38.8683 18.7377 38.609C17.8987 38.5343 16.1293 37.976 15.7828 37.809C14.9801 37.5116 13.4478 36.5271 13.1378 36.2471L12.9919 36.1358C12.8402 35.9799 12.6753 35.8368 12.4993 35.7095C11.9013 35.1529 11.3462 34.5501 10.8394 33.9059C8.92406 31.3404 7.99377 28.7209 7.51957 25.4858C7.49132 25.3204 7.47899 25.1518 7.48305 24.9848C8.67057 24.953 9.8261 24.5856 10.8212 23.9239C11.7514 24.9466 13.7945 25.0023 15.0348 24.2038C15.8357 23.8253 16.5546 23.2893 17.1496 22.626C17.7448 21.9628 18.204 21.1835 18.5006 20.3373C19.9235 16.062 16.2022 15.3002 16.7859 17.7718C16.8374 17.8291 16.8694 17.9007 16.8771 17.977C16.9158 18.0724 16.9464 18.1726 16.9684 18.2744C17.0596 19.779 16.3846 20.9322 15.1442 21.9914C14.8253 22.2316 14.483 22.4368 14.1228 22.6054C13.806 22.7406 13.4758 22.8408 13.1378 22.9028H12.6088L12.3899 22.828L12.2987 22.7724L12.2256 22.7167L12.171 22.6419V22.5863C12.171 22.5672 12.1893 22.5672 12.1893 22.5497C12.4993 21.4157 10.8212 20.9131 10.4199 21.9914H10.3833L10.2557 22.1219C10.2557 22.1409 10.2193 22.1584 10.201 22.1775C9.67204 22.5863 8.48639 22.9028 7.46479 23.0889H7.31884C6.99683 23.1064 6.67419 23.1064 6.35218 23.0889L5.71363 22.9394L5.51305 22.8646C4.94754 22.661 4.4003 22.0853 4.25435 21.8992C4.10841 21.7131 4.0903 21.6384 3.99899 21.5079C3.93968 21.3059 3.89098 21.1023 3.85305 20.8956C3.85305 19.5945 3.87131 17.8657 2.37567 18.1631C2.36599 18.1631 2.35662 18.1583 2.34976 18.1519C2.34289 18.1456 2.33914 18.1361 2.33914 18.1249L2.30262 18.0517C2.29778 18.0517 2.2931 18.0486 2.28966 18.0454C2.28639 18.0422 2.28436 18.0374 2.28436 18.0327C2.26532 17.95 2.24096 17.8704 2.21146 17.7909C2.2085 17.7161 2.21459 17.6414 2.22973 17.5682C2.25142 17.4426 2.28186 17.3169 2.32088 17.1961C2.28435 17.2326 2.30262 17.2326 2.32088 17.1961C2.33914 17.1595 2.33914 17.1595 2.33914 17.1404C2.33914 17.1213 2.50335 16.8621 2.53972 16.8239L2.57624 16.7682C2.73514 16.5599 2.91885 16.3722 3.12349 16.2115C3.08696 16.229 3.0687 16.229 3.0687 16.2481C3.21574 16.1479 3.36808 16.0541 3.52479 15.9698L3.74363 15.8759C10.6752 13.8512 8.26739 13.9244 12.098 8.53416C13.1071 7.21722 14.271 6.03071 15.5638 5.00325C16.2387 4.44498 18.0264 3.27436 19.2303 2.80993C21.8022 1.56456 26.1436 1.41505 28.6974 2.64292C29.6227 3.07077 30.5027 3.59405 31.324 4.20322C32.1874 4.90463 32.9706 5.70306 33.6588 6.58261C35.5194 8.962 36.5956 12.2703 36.924 14.8548C37.453 19.111 36.8693 22.9203 35.264 26.8806C34.0055 29.9281 31.78 33.2363 28.9162 35.4678ZM12.1528 22.5672C12.1345 22.5497 12.1528 22.5497 12.1528 22.5672V22.5672ZM12.1528 22.661V22.6801V22.661ZM12.1345 22.6054V22.5672C12.1356 22.5815 12.1421 22.5958 12.1528 22.6054H12.1345ZM16.8771 17.9404V17.9022C16.8813 17.915 16.8813 17.9277 16.8771 17.9404ZM42.1408 19.892C42.1045 19.9842 42.1227 19.9095 42.1408 19.8538C42.1145 19.9126 42.0839 19.9683 42.0497 20.0208C42.0132 20.059 41.9768 20.1146 41.9403 20.1321L41.7578 20.226H41.6484C40.7911 19.612 40.0797 20.6538 40.1891 21.0801C40.1746 21.2598 40.1315 21.4364 40.0614 21.6018C39.9317 21.8642 39.7519 22.098 39.5324 22.2889L39.2042 22.494C39.0514 22.5545 38.8922 22.599 38.7298 22.6229H38.4379C38.9967 19.8983 39.1016 17.0958 38.7481 14.3331C40.335 15.8203 41.7578 17.7543 42.1774 19.3337V19.6677C42.1591 19.7059 42.1591 19.7981 42.1408 19.8363V19.892Z" fill="#452D34"/>
<path d="M29.6281 31.9061C32.6507 28.0524 32.805 23.1786 29.9728 21.0206C27.1406 18.8626 22.3944 20.2387 19.3719 24.0939C16.3493 27.9476 16.195 32.8214 19.0272 34.9794C21.8594 37.1374 26.6056 35.7613 29.6281 31.9061Z" fill="#D13535"/>
</svg>
