<svg width="44" height="45" viewBox="0 0 44 45" fill="none" xmlns="http://www.w3.org/2000/svg">
<path d="M10.2473 15.0255C11.0266 13.5934 12.0778 12.1121 13.7089 11.3714C14.8144 10.894 16.6812 10.6645 17.1523 12.0304C18.5661 15.1241 18.6023 17.2306 14.1801 16.9011C12.6033 16.9673 9.03297 17.5263 10.2473 15.0255ZM16.2461 15.0903V15.0579C16.2438 15.0579 16.2415 15.0579 16.2393 15.0593C16.237 15.0593 16.2351 15.0607 16.2334 15.0621C16.2317 15.0649 16.2303 15.0663 16.2294 15.0677C16.2286 15.0705 16.2281 15.072 16.2281 15.0748L16.2461 15.0903ZM16.2461 15.0903C16.2461 15.0945 16.2481 15.0987 16.2516 15.1029C16.255 15.1057 16.2595 15.1072 16.2643 15.1072C16.2824 15.0748 16.2643 15.0748 16.2461 15.0903ZM16.1374 15.1902H16.1556C16.1556 15.1902 16.228 15.1733 16.2461 15.1241V15.0748C16.2339 15.0537 16.2277 15.0311 16.2281 15.0086C15.7024 15.0903 15.1225 15.0086 14.7962 14.7776C14.4701 14.5481 14.6512 13.347 15.4307 13.3625H15.7568C15.6663 13.1161 15.5755 12.8696 15.4668 12.6063H15.2313C13.7269 12.8203 12.8026 14.1862 12.0959 15.3043L16.1374 15.1902ZM11.3709 15.3536C11.3527 15.3705 11.3347 15.3536 11.3709 15.3536V15.3536Z" fill="#452D34"/>
<path d="M21.0039 8.41178L21.2164 8.65271C21.4383 8.81271 21.617 9.04989 21.7301 9.33602C22.6866 11.1826 20.9152 13.6241 19.3212 12.8542C16.6289 11.5798 18.4886 6.5407 21.0039 8.41178Z" fill="#452D34"/>
<path d="M13.0038 8.32951L13.2165 8.52225C13.4418 8.64573 13.6218 8.83699 13.7301 9.06739C14.6865 10.5462 12.9153 12.4993 11.3211 11.8834C8.62885 10.8624 10.4887 6.83267 13.0038 8.32951Z" fill="#452D34"/>
<path d="M1.47596 15.9698C2.05973 15.1698 4.2851 12.0842 5.79916 11.6754C9.72089 -2.46896 27.9984 -5.4615 36.1339 12.2528C36.2166 12.3482 36.3083 12.4341 36.4075 12.512C38.3593 13.6826 42.1169 13.6461 43.3026 16.3785C44.0141 17.643 43.412 19.6868 42.0622 20.0208C42.1898 22.6976 40.4752 24.2961 38.3593 24.8162C38.2498 25.6719 38.1404 26.4894 37.9762 27.2703C40.7488 26.7311 44.4154 28.8131 43.5945 31.5456C43.5762 31.5647 43.5762 31.5822 43.5945 31.6204C43.5889 31.6522 43.5954 31.6856 43.6127 31.7126C44.7436 33.3302 43.2295 35.6348 41.2413 36.0992C38.6329 36.9358 34.7658 36.1183 32.9417 36.9549L32.2668 37.5498H32.2486L31.7013 37.976C32.9783 38.5152 34.0726 39.5936 34.1091 40.9503C33.9449 41.6946 32.7775 41.8791 32.431 41.1729C32.0843 40.4667 32.1026 40.5049 31.6101 40.0405C31.4099 39.9053 31.2029 39.7812 30.9898 39.6683C30.9947 39.6683 30.9994 39.6699 31.0028 39.6731C31.0062 39.6763 31.0081 39.681 31.0081 39.6858C31.0081 39.681 31.0062 39.6763 31.0028 39.6731C30.9994 39.6699 30.9947 39.6683 30.9898 39.6683H30.9717C30.8622 39.6301 30.917 39.6683 30.9717 39.6858C30.7351 39.5952 30.4908 39.5268 30.242 39.4822C30.8441 40.2997 31.1906 41.3781 30.6433 42.1956C30.0961 43.0132 28.9652 42.1591 29.0746 41.2668C29.0381 41.1554 29.0199 41.0441 28.9835 40.9312C28.9339 40.8548 28.8912 40.7737 28.8558 40.691C28.801 40.9137 28.7462 41.1554 28.7099 41.3972C28.6521 41.9093 28.6582 42.4279 28.728 42.94C29.0381 43.7575 27.506 44.7802 26.9587 43.3853C26.7892 42.2815 26.8515 41.1539 27.141 40.0771C26.3562 40.2632 25.5564 40.3745 24.7514 40.4111C25.5759 41.3702 26.0069 42.6139 25.9554 43.8879C25.919 44.3699 25.5541 44.8359 25.0433 44.8168C24.1861 44.7977 24.0765 43.9436 24.1131 43.2549C24.0718 42.9957 24.0046 42.7396 23.9125 42.4931C23.7934 42.2338 23.6531 41.9857 23.4929 41.7503H23.4746C23.3109 41.5451 23.1277 41.359 22.9274 41.192L22.6538 41.0059C22.9385 42.0907 22.9883 43.2263 22.7997 44.3333C22.4532 45.5786 20.629 44.909 21.0486 43.7193C21.0881 43.4617 21.1002 43.2008 21.0851 42.94C21.0912 42.6967 21.0788 42.4549 21.0486 42.2147V42.1766C20.9971 41.8823 20.9301 41.5912 20.848 41.3034L20.5378 41.2286C20.0321 41.5229 19.63 41.9714 19.3887 42.5121C19.2793 43.1436 18.8415 43.8132 18.13 43.5905C17.9012 43.5205 17.7072 43.3647 17.5884 43.1531C17.4694 42.9416 17.4348 42.6919 17.4916 42.4565C17.7772 41.3352 18.4679 40.3665 19.4251 39.7431C13.588 37.9585 8.15219 32.7353 6.03625 24.6683L5.98162 24.5013C4.35815 24.743 2.73466 23.6837 2.16916 22.1219C1.64407 22.0662 1.15084 21.8387 0.764671 21.4713C-0.840546 19.8729 0.417992 17.4935 1.47596 15.9698ZM41.5697 18.2553L41.6062 18.2188L41.5697 18.2553ZM41.7885 17.8466C41.7703 17.8657 41.7703 17.8832 41.7703 17.9213C41.7676 17.8943 41.774 17.8688 41.7885 17.8466ZM41.4967 20.0399L41.2232 20.0033C41.2638 20.0272 41.309 20.0447 41.3562 20.051C41.4032 20.0574 41.4511 20.0526 41.4967 20.0399ZM42.0987 33.3858C42.1276 33.3142 42.1461 33.2395 42.1535 33.1631C42.1535 33.1075 42.1716 33.0693 42.1716 33.0136V32.9771C42.1541 32.9421 42.1418 32.9039 42.1352 32.8657C41.8068 32.2884 41.6243 31.5822 41.8798 30.9508C41.898 30.9317 41.898 30.876 41.898 30.8569V30.7281L41.8433 30.5786C41.8068 30.5229 41.6974 30.3002 41.6609 30.2637C41.6245 30.2255 41.6609 30.2446 41.6426 30.2255C41.5277 30.0712 41.3927 29.9344 41.2413 29.8167C41.2596 29.8167 41.2596 29.7976 41.2049 29.7801H41.1684C41.0509 29.699 40.9291 29.6243 40.8036 29.5559L40.5664 29.427C39.6748 29.0326 38.6679 29.0056 37.7574 29.3523C37.6519 29.4557 37.5281 29.5384 37.3925 29.5941C36.8549 31.4311 36.0228 33.1632 34.93 34.7234C37.8668 34.4451 41.1136 35.0956 42.0987 33.3858ZM31.6467 40.0771L31.6101 40.0405C31.6284 40.058 31.6284 40.0771 31.6467 40.0771ZM15.0838 35.4678C15.5399 35.9131 18.0935 37.4368 18.6225 37.5864C20.7932 38.5709 23.4381 38.8683 25.2623 38.609C26.1013 38.5343 27.8707 37.976 28.2172 37.809C29.0199 37.5116 30.5522 36.5271 30.8622 36.2471L31.0081 36.1358C31.1598 35.9799 31.3247 35.8368 31.5007 35.7095C32.0987 35.1529 32.6538 34.5501 33.1606 33.9059C35.0759 31.3404 36.0062 28.7209 36.4804 25.4858C36.5087 25.3204 36.521 25.1518 36.517 24.9848C35.3294 24.953 34.1739 24.5856 33.1788 23.9239C32.2486 24.9466 30.2055 25.0023 28.9652 24.2038C28.1643 23.8253 27.4454 23.2893 26.8504 22.626C26.2552 21.9628 25.796 21.1835 25.4994 20.3373C24.0765 16.062 27.7978 15.3002 27.2141 17.7718C27.1626 17.8291 27.1306 17.9007 27.1229 17.977C27.0842 18.0724 27.0536 18.1726 27.0316 18.2744C26.9404 19.779 27.6154 20.9322 28.8558 21.9914C29.1747 22.2316 29.517 22.4368 29.8772 22.6054C30.194 22.7406 30.5242 22.8408 30.8622 22.9028H31.3912L31.6101 22.828L31.7013 22.7724L31.7744 22.7167L31.829 22.6419V22.5863C31.829 22.5672 31.8107 22.5672 31.8107 22.5497C31.5007 21.4157 33.1788 20.9131 33.5801 21.9914H33.6167L33.7443 22.1219C33.7443 22.1409 33.7807 22.1584 33.799 22.1775C34.328 22.5863 35.5136 22.9028 36.5352 23.0889H36.6812C37.0032 23.1064 37.3258 23.1064 37.6478 23.0889L38.2864 22.9394L38.4869 22.8646C39.0525 22.661 39.5997 22.0853 39.7456 21.8992C39.8916 21.7131 39.9097 21.6384 40.001 21.5079C40.0603 21.3059 40.109 21.1023 40.147 20.8956C40.147 19.5945 40.1287 17.8657 41.6243 18.1631C41.634 18.1631 41.6434 18.1583 41.6502 18.1519C41.6571 18.1456 41.6609 18.1361 41.6609 18.1249L41.6974 18.0517C41.7022 18.0517 41.7069 18.0486 41.7103 18.0454C41.7136 18.0422 41.7156 18.0374 41.7156 18.0327C41.7347 17.95 41.759 17.8704 41.7885 17.7909C41.7915 17.7161 41.7854 17.6414 41.7703 17.5682C41.7486 17.4426 41.7181 17.3169 41.6791 17.1961C41.7156 17.2326 41.6974 17.2326 41.6791 17.1961C41.6609 17.1595 41.6609 17.1595 41.6609 17.1404C41.6609 17.1213 41.4967 16.8621 41.4603 16.8239L41.4238 16.7682C41.2649 16.5599 41.0811 16.3722 40.8765 16.2115C40.913 16.229 40.9313 16.229 40.9313 16.2481C40.7843 16.1479 40.6319 16.0541 40.4752 15.9698L40.2564 15.8759C33.3248 13.8512 35.7326 13.9244 31.902 8.53416C30.8929 7.21722 29.729 6.03071 28.4362 5.00325C27.7613 4.44498 25.9736 3.27436 24.7697 2.80993C22.1978 1.56456 17.8564 1.41505 15.3026 2.64292C14.3773 3.07077 13.4973 3.59405 12.676 4.20322C11.8126 4.90463 11.0294 5.70306 10.3412 6.58261C8.4806 8.962 7.40437 12.2703 7.07596 14.8548C6.54697 19.111 7.13075 22.9203 8.73597 26.8806C9.99451 29.9281 12.22 33.2363 15.0838 35.4678ZM31.8472 22.5672C31.8655 22.5497 31.8472 22.5497 31.8472 22.5672V22.5672ZM31.8472 22.661V22.6801V22.661ZM31.8655 22.6054V22.5672C31.8644 22.5815 31.8579 22.5958 31.8472 22.6054H31.8655ZM27.1229 17.9404V17.9022C27.1187 17.915 27.1187 17.9277 27.1229 17.9404ZM1.85916 19.892C1.89553 19.9842 1.87727 19.9095 1.85916 19.8538C1.88554 19.9126 1.91613 19.9683 1.95031 20.0208C1.98684 20.059 2.02322 20.1146 2.05974 20.1321L2.24221 20.226H2.35162C3.20887 19.612 3.92031 20.6538 3.8109 21.0801C3.82541 21.2598 3.8685 21.4364 3.93858 21.6018C4.06829 21.8642 4.2481 22.098 4.46756 22.2889L4.79582 22.494C4.94863 22.5545 5.10784 22.599 5.27018 22.6229H5.56206C5.00326 19.8983 4.89837 17.0958 5.25191 14.3331C3.66496 15.8203 2.2422 17.7543 1.82264 19.3337V19.6677C1.8409 19.7059 1.8409 19.7981 1.85916 19.8363V19.892Z" fill="#452D34"/>
<path d="M14.3719 31.9061C11.3493 28.0524 11.195 23.1786 14.0272 21.0206C16.8594 18.8626 21.6056 20.2387 24.6281 24.0939C27.6507 27.9476 27.805 32.8214 24.9728 34.9794C22.1406 37.1374 17.3944 35.7613 14.3719 31.9061Z" fill="#D13535"/>
</svg>
