<svg width="556" height="425" viewBox="0 0 556 425" fill="none" xmlns="http://www.w3.org/2000/svg">
<path d="M78.0447 262.044C48.7167 182.292 119.492 93.3073 212.89 63.0825C306.288 32.8576 431.346 63.9729 460.674 143.725C490.002 223.477 455.409 322.539 362.011 352.764C268.613 382.989 107.373 341.796 78.0447 262.044Z" fill="white"/>
<path d="M377.616 172.013C374.014 172.063 373.511 168.297 373.107 165.578L371.017 168.147C367.969 171.913 361.999 167.748 364.493 163.658C358.876 164.555 356.785 155.851 365.677 155.427C362.856 154.055 359.707 152.084 361.596 148.543C363.484 145.001 367.213 147.021 369.858 148.717C369.103 145.675 368.347 141.858 372.401 140.936C376.457 140.013 377.238 144.203 377.692 147.296C378.875 145.949 380.336 143.33 382.427 143.28C385.827 142.781 388.195 147.071 385.979 149.665L384.115 151.935C391.193 149.441 393.636 157.272 388.119 159.193C392.074 162.086 388.02 168.222 383.762 165.778L380.916 164.156C381.797 167.598 382.401 171.564 377.616 172.013ZM373.686 162.286C373.919 162.282 374.145 162.36 374.326 162.506C374.505 162.653 374.627 162.857 374.669 163.084L375.702 168.446C376.13 170.916 380.085 170.192 379.58 167.698L378.547 162.385C378.514 162.199 378.534 162.007 378.605 161.831C378.677 161.656 378.8 161.504 378.954 161.394C379.11 161.284 379.295 161.221 379.487 161.211C379.678 161.201 379.868 161.245 380.034 161.338L384.77 164.057C386.961 165.354 388.951 161.912 386.734 160.665L384.82 159.567C384.637 159.47 384.49 159.319 384.4 159.134C384.309 158.949 384.28 158.741 384.317 158.539C384.354 158.337 384.453 158.152 384.602 158.009C384.751 157.867 384.943 157.775 385.148 157.746L387.515 157.297C389.178 157.023 389.707 154.653 388.246 153.756C387.062 152.309 379.481 156.449 380.865 152.808C381.395 151.86 385.223 148.219 384.82 146.972C384.693 145.3 382.351 144.627 381.318 145.974L377.892 150.239C377.772 150.384 377.609 150.492 377.429 150.55C377.247 150.608 377.052 150.613 376.867 150.566C376.684 150.519 376.515 150.421 376.385 150.284C376.255 150.147 376.167 149.975 376.13 149.79C375.475 148.144 375.827 142.233 372.779 142.881C372.267 142.984 371.815 143.282 371.523 143.711C371.231 144.141 371.122 144.667 371.219 145.176L372.225 150.488C371.873 154.653 365.249 145.774 363.335 149.54C363.203 149.761 363.117 150.006 363.081 150.26C363.045 150.514 363.061 150.772 363.126 151.02C363.192 151.268 363.307 151.501 363.463 151.705C363.619 151.909 363.815 152.08 364.04 152.209L369.002 155.028C369.808 155.452 369.58 156.724 368.699 156.873C367.817 157.023 362.528 157.522 362.025 158.719C361.017 160.091 362.326 162.111 364.014 161.737L366.734 161.213C367.615 161.014 368.296 162.136 367.716 162.809L366.382 164.456C364.745 166.401 367.868 168.895 369.455 166.9C369.958 166.501 372.906 162.036 373.686 162.286Z" fill="#D13535"/>
<path d="M324.72 99.1581C324.452 99.1581 324.195 99.053 324.007 98.8659C323.817 98.6788 323.712 98.425 323.712 98.1605V74.5158C323.718 74.2555 323.828 74.0081 324.016 73.8263C324.205 73.6446 324.457 73.5428 324.72 73.543C324.98 73.543 325.23 73.6454 325.415 73.8279C325.598 74.0103 325.702 74.2577 325.702 74.5158V98.1605C325.705 98.2903 325.683 98.4194 325.635 98.5403C325.586 98.6614 325.514 98.7715 325.422 98.8645C325.332 98.9574 325.222 99.0313 325.101 99.0818C324.98 99.1322 324.85 99.1581 324.72 99.1581Z" fill="#CE9C5C"/>
<path d="M316.181 97.487C315.944 97.4852 315.713 97.4064 315.526 97.2625C315.323 97.093 315.196 96.8512 315.173 96.5899C315.15 96.3284 315.231 96.0682 315.399 95.8658L332.477 75.7128C332.651 75.5111 332.899 75.3859 333.166 75.3649C333.432 75.3438 333.696 75.4286 333.9 75.6006C334.105 75.7727 334.23 76.0177 334.252 76.282C334.273 76.5463 334.188 76.808 334.015 77.0098L316.935 97.1378C316.842 97.2448 316.726 97.3311 316.596 97.3913C316.466 97.4514 316.323 97.484 316.181 97.487Z" fill="#CE9C5C"/>
<path d="M334.09 96.7139C333.959 96.7134 333.829 96.6868 333.706 96.6353C333.585 96.5839 333.477 96.5088 333.385 96.4147L314.619 77.8331C314.503 77.7473 314.408 77.6379 314.339 77.5125C314.271 77.3869 314.229 77.2481 314.219 77.1056C314.208 76.963 314.229 76.82 314.28 76.6861C314.33 76.5521 314.41 76.4305 314.511 76.3294C314.613 76.2284 314.736 76.1502 314.872 76.1002C315.006 76.0502 315.152 76.0296 315.296 76.0398C315.439 76.0499 315.579 76.0905 315.706 76.159C315.833 76.2273 315.943 76.322 316.03 76.4362L334.795 95.0179C334.89 95.1086 334.965 95.2171 335.016 95.3371C335.068 95.4571 335.094 95.586 335.094 95.7163C335.094 95.8466 335.068 95.9755 335.016 96.0955C334.965 96.2155 334.89 96.3239 334.795 96.4147C334.705 96.51 334.595 96.5859 334.474 96.6374C334.353 96.6889 334.222 96.715 334.09 96.7139Z" fill="#CE9C5C"/>
<path d="M336.634 87.3359H312.78C312.512 87.3359 312.256 87.2307 312.067 87.0436C311.879 86.8565 311.771 86.6028 311.771 86.3381C311.771 86.0736 311.879 85.8198 312.067 85.6327C312.256 85.4456 312.512 85.3405 312.78 85.3405H336.634C336.9 85.3405 337.157 85.4456 337.345 85.6327C337.535 85.8198 337.641 86.0736 337.641 86.3381C337.641 86.6028 337.535 86.8565 337.345 87.0436C337.157 87.2307 336.9 87.3359 336.634 87.3359Z" fill="#CE9C5C"/>
<path d="M161.774 132.73C161.507 132.73 161.251 132.625 161.062 132.438C160.873 132.25 160.767 131.997 160.767 131.732V108.112C160.767 107.848 160.873 107.594 161.062 107.407C161.251 107.22 161.507 107.115 161.774 107.115C161.905 107.115 162.035 107.141 162.156 107.191C162.277 107.241 162.386 107.315 162.478 107.408C162.569 107.501 162.641 107.611 162.689 107.732C162.737 107.853 162.76 107.982 162.757 108.112V131.732C162.76 131.862 162.737 131.991 162.689 132.112C162.641 132.233 162.569 132.343 162.478 132.436C162.386 132.529 162.277 132.603 162.156 132.653C162.035 132.704 161.905 132.73 161.774 132.73Z" fill="#CE9C5C"/>
<path d="M153.235 131.084C152.993 131.083 152.76 130.994 152.58 130.834C152.378 130.665 152.251 130.423 152.228 130.161C152.204 129.9 152.286 129.64 152.454 129.437L169.532 109.309C169.711 109.14 169.947 109.041 170.195 109.033C170.443 109.025 170.685 109.107 170.875 109.265C171.066 109.422 171.191 109.643 171.226 109.886C171.262 110.129 171.206 110.377 171.069 110.582L153.991 130.71C153.902 130.825 153.788 130.919 153.657 130.984C153.526 131.048 153.382 131.083 153.235 131.084Z" fill="#CE9C5C"/>
<path d="M171.143 130.31C171.012 130.31 170.881 130.283 170.76 130.232C170.639 130.18 170.53 130.105 170.438 130.011L151.673 111.429C151.577 111.337 151.502 111.226 151.45 111.104C151.399 110.982 151.372 110.851 151.372 110.719C151.372 110.586 151.399 110.455 151.45 110.333C151.502 110.211 151.577 110.101 151.673 110.008C151.861 109.825 152.114 109.723 152.378 109.723C152.642 109.723 152.895 109.825 153.083 110.008L171.849 128.614C171.943 128.705 172.018 128.814 172.07 128.934C172.121 129.054 172.147 129.183 172.147 129.313C172.147 129.443 172.121 129.572 172.07 129.692C172.018 129.812 171.943 129.92 171.849 130.011C171.758 130.107 171.649 130.182 171.528 130.234C171.406 130.285 171.276 130.311 171.143 130.31Z" fill="#CE9C5C"/>
<path d="M173.688 120.907H149.835C149.704 120.911 149.573 120.888 149.451 120.841C149.329 120.793 149.218 120.722 149.124 120.632C149.03 120.541 148.955 120.432 148.904 120.313C148.853 120.193 148.827 120.065 148.827 119.935C148.827 119.67 148.933 119.416 149.122 119.229C149.311 119.042 149.567 118.937 149.835 118.937H173.688C173.956 118.937 174.212 119.042 174.401 119.229C174.59 119.416 174.696 119.67 174.696 119.935C174.696 120.065 174.67 120.193 174.619 120.313C174.568 120.432 174.493 120.541 174.399 120.632C174.305 120.722 174.194 120.793 174.072 120.841C173.95 120.888 173.819 120.911 173.688 120.907Z" fill="#CE9C5C"/>
<path d="M183.839 253.049C184.721 251.577 185.452 250.031 184.368 248.685C169.759 230.402 158.953 215.761 158.953 215.761C155.25 211.172 155.578 204.462 159.91 200.472C161.051 199.425 162.397 198.622 163.865 198.114C165.332 197.605 166.89 197.402 168.441 197.517C169.992 197.632 171.502 198.062 172.877 198.78C174.252 199.499 175.463 200.491 176.434 201.694L180.036 206.183C181.271 207.73 183.073 208.729 185.049 208.967C187.025 209.207 189.016 208.663 190.59 207.455L190.691 207.355C192.26 206.148 193.285 204.375 193.545 202.424C193.804 200.473 193.276 198.499 192.076 196.93L187.013 190.32C178.096 179.221 161.85 177.151 150.389 185.432C138.046 194.361 135.93 211.646 145.452 223.493L174.066 257.164C175.149 258.487 175.603 258.661 177.265 258.162C179.86 257.388 182.479 255.319 183.839 253.049Z" fill="#D13535"/>
<path d="M214.443 284.351L219.859 291.109C221.094 292.642 221.678 294.59 221.485 296.543C221.292 298.495 220.338 300.294 218.826 301.561C218.796 301.606 218.752 301.641 218.7 301.659C217.923 302.319 217.019 302.815 216.043 303.12C215.068 303.424 214.04 303.531 213.022 303.432C212.004 303.335 211.016 303.035 210.117 302.55C209.219 302.066 208.429 301.406 207.793 300.613L202.68 294.253C201.597 292.906 202.101 291.709 202.73 290.086C204.066 286.57 207.113 284.725 209.859 283.802C211.622 283.178 213.285 282.88 214.443 284.351Z" fill="#D13535"/>
<path d="M142.227 204.712C145.703 205.934 149.255 206.881 152.756 208.054C155.325 208.876 157.768 205.759 156.307 203.489C154.015 200.945 149.053 200.721 145.905 199.349C144.494 198.9 142.882 198.102 141.471 199.025C139.103 200.322 139.607 204.039 142.227 204.712Z" fill="#CE9C5C"/>
<path d="M153.865 231.624C157.542 231.076 161.069 229.305 163.915 226.985C166.963 223.692 161.925 219.553 159.028 222.919L159.658 222.445C158.24 223.467 156.7 224.313 155.074 224.964L155.804 224.64C154.959 225.045 154.06 225.331 153.134 225.488L153.965 225.364C149.784 225.288 149.709 231.624 153.865 231.624Z" fill="#CE9C5C"/>
<path d="M169.91 250.504C172.631 250.256 179.28 246.289 179.306 243.372C179.331 241.725 177.845 240.204 176.157 240.254C174.47 240.304 173.537 241.7 172.278 242.573L172.908 242.075C171.749 242.973 170.49 243.87 169.13 244.444L169.885 244.144C169.645 244.253 169.391 244.329 169.13 244.368L169.961 244.27C165.83 244.22 165.805 250.53 169.91 250.504Z" fill="#CE9C5C"/>
<path d="M211.546 298.493C213.864 296.872 217.617 295.425 217.969 292.307C217.995 290.661 216.508 289.14 214.821 289.19C213.133 289.24 212.126 290.661 210.866 291.559L211.496 291.061C210.035 292.432 207.516 292.88 206.912 294.975C206.106 297.569 209.179 299.914 211.546 298.493Z" fill="#CE9C5C"/>
<path d="M164.57 182.738C164.041 186.579 163.915 190.47 163.386 194.311L163.512 193.488C162.605 196.107 165.729 198.626 168.122 197.129C170.515 195.633 169.86 186.878 170.741 183.686L170.615 184.534C171.824 180.543 165.678 178.722 164.57 182.738Z" fill="#CE9C5C"/>
<path d="M172.756 260.532C171.623 260.532 170.817 260.008 169.835 258.785L141.195 225.114C138.78 222.133 137.002 218.695 135.972 215.012C134.941 211.329 134.679 207.477 135.2 203.689C136.913 188.849 151.774 177.725 166.661 179.994C178.223 181.591 183.663 188.051 190.011 196.855C196.736 206.383 183.436 216.633 175.779 207.804C172.706 204.113 170.616 199.998 165.15 199.624C156.51 198.925 151.396 209.026 156.888 215.711C156.988 215.836 167.87 230.526 182.278 248.585C184.066 250.828 182.58 253.298 181.85 254.496C179.986 257.564 176.359 260.258 172.756 260.532ZM143.361 223.393L171.976 257.014C172.404 257.588 172.706 257.812 172.706 257.788C175.175 257.564 178.172 255.269 179.482 253.099C180.515 251.378 180.49 250.754 180.112 250.28C165.93 232.521 155.15 217.98 154.671 217.332C147.769 208.802 154.369 196.007 165.376 196.905C171.799 197.379 174.369 201.594 177.945 206.083C178.958 207.377 180.447 208.219 182.086 208.425C183.725 208.631 185.38 208.183 186.686 207.181C187.992 206.178 188.842 204.704 189.05 203.08C189.258 201.457 188.806 199.819 187.794 198.526L182.756 191.917C160.54 166.626 123.286 196.431 143.361 223.393Z" fill="#452D34"/>
<path d="M210.614 305.602C205.123 306.1 201.446 299.34 198.423 295.874C195.199 291.335 201.37 284.525 206.232 283.254C207.466 282.804 210.388 281.807 212.352 284.251L217.768 290.985C222.604 296.622 217.944 305.75 210.614 305.602ZM209.053 285.423C205.501 285.797 201.698 288.465 200.791 291.483C200.161 293.106 200.086 293.504 200.615 294.153C202.856 296.448 206.181 302.882 209.985 302.808C215.325 303.456 219.153 296.822 215.602 292.706C214.896 292.182 210.136 284.975 209.053 285.423Z" fill="#452D34"/>
<path d="M378.8 211.146C369.681 202.717 355.198 203.763 347.112 213.167L297.869 270.184C304.04 270.158 309.783 270.334 314.191 270.408L355.501 222.645C358.648 219.003 364.115 218.206 368.044 221.024C369.069 221.765 369.928 222.705 370.569 223.79C371.21 224.873 371.618 226.076 371.77 227.323C371.921 228.57 371.811 229.835 371.448 231.038C371.084 232.241 370.474 233.357 369.657 234.318L366.558 237.908C365.506 239.136 364.983 240.722 365.1 242.326C365.218 243.932 365.968 245.426 367.187 246.489L367.288 246.564C368.511 247.62 370.105 248.154 371.722 248.051C373.341 247.948 374.853 247.217 375.928 246.015L380.514 240.952C388.095 232.173 387.264 218.953 378.8 211.146Z" fill="#EFDCC4"/>
<path d="M369.303 246.089C370.663 246.639 373.761 247.536 374.038 245.417C374.014 243.946 372.452 244.244 371.419 244.17L371.746 244.22C371.29 244.153 370.842 244.037 370.412 243.87L370.713 243.996C369.303 243.022 367.817 245.217 369.303 246.089Z" fill="#CE9C5C"/>
<path d="M376.532 243.471C379.858 240.75 382.324 237.14 383.636 233.071C383.862 231.624 385.424 228.98 383.535 228.182C381.419 227.858 381.973 230.676 381.344 231.948C380.807 233.801 379.982 235.559 378.9 237.161C377.774 238.889 376.37 240.422 374.743 241.7C373.585 242.797 375.349 244.594 376.532 243.471Z" fill="#CE9C5C"/>
<path d="M380.11 221.498C380.764 222.42 381.294 224.242 381.369 224.99C381.118 227.458 383.586 228.058 383.964 225.963C383.838 224.292 383.082 218.778 380.563 219.777C380.275 219.948 380.067 220.224 379.983 220.545C379.897 220.868 379.943 221.208 380.11 221.498Z" fill="#CE9C5C"/>
<path d="M376.532 217.407C377.365 217.782 378.397 218.779 379.279 218.03C380.916 216.659 378.195 214.988 376.835 215.138C375.475 215.286 375.576 216.907 376.532 217.407Z" fill="#CE9C5C"/>
<path d="M318.119 271.855C313.661 271.781 307.792 271.681 301.646 271.731C300.512 271.755 299.807 270.308 300.589 269.46L347.313 215.236C349.394 212.834 351.945 210.87 354.809 209.464C357.674 208.058 360.796 207.24 363.989 207.057C384.114 205.66 395.978 229.853 382.829 244.818C382.855 244.843 378.245 249.881 378.245 249.906C376.916 251.412 375.037 252.331 373.022 252.465C371.007 252.598 369.022 251.933 367.502 250.618C365.982 249.301 365.054 247.441 364.919 245.446C364.784 243.45 365.455 241.484 366.784 239.979L369.858 236.413C370.556 235.595 371.076 234.644 371.388 233.618C371.7 232.592 371.796 231.515 371.671 230.452C370.99 223.767 362.15 221.298 357.843 226.511L319.178 271.357C319.048 271.511 318.887 271.635 318.704 271.722C318.522 271.808 318.323 271.853 318.119 271.855ZM304.643 268.961L317.491 269.087L355.727 224.714C361.545 217.706 373.534 221.124 374.416 230.127C375.121 235.14 371.948 238.333 368.9 241.75C368.056 242.706 367.629 243.955 367.713 245.223C367.798 246.491 368.388 247.673 369.353 248.509C370.318 249.347 371.581 249.769 372.861 249.684C374.14 249.601 375.335 249.016 376.18 248.06L380.739 243.022C392.401 230.053 381.695 208.404 364.139 209.799C361.324 209.957 358.568 210.676 356.04 211.914C353.513 213.153 351.264 214.886 349.429 217.007L304.643 268.961Z" fill="#452D34"/>
<path d="M355.978 193.238C344.644 188.1 331.244 193.612 326.557 205.086L299.479 271.356C304.19 271.281 308.875 271.281 313.107 271.331L337.566 211.446C339.379 207.007 344.316 204.537 348.926 205.984C350.136 206.36 351.255 206.981 352.212 207.807C353.169 208.632 353.941 209.646 354.483 210.782C355.026 211.918 355.324 213.153 355.36 214.409C355.396 215.665 355.17 216.915 354.694 218.08L352.93 222.445C352.312 223.937 352.315 225.611 352.938 227.102C353.56 228.593 354.752 229.779 356.256 230.401H356.382C357.878 231.026 359.564 231.036 361.07 230.435C362.575 229.832 363.778 228.662 364.417 227.184L367.138 220.949C369.214 215.794 369.214 210.046 367.138 204.89C365.061 199.735 361.068 195.564 355.978 193.238Z" fill="#D13535"/>
<path d="M358.094 220.201C361.293 219.701 365.701 220.65 367.943 217.832C368.8 216.435 368.296 214.364 366.811 213.565C365.323 212.768 363.838 213.541 362.326 213.715L363.183 213.591C360.79 214.14 357.843 213.241 355.853 214.888C353.862 216.535 355.374 220.325 358.094 220.201Z" fill="white"/>
<path d="M354.165 204.338C354.719 202.542 355.123 200.696 355.853 198.925L355.525 199.674C355.762 199.116 356.067 198.588 356.433 198.102L355.954 198.726C359.858 195.957 355.954 190.445 352.225 193.563C350.186 195.059 347.061 202.841 348.397 205.086C349.731 207.331 353.486 206.931 354.165 204.338Z" fill="white"/>
<path d="M337.868 202.841H337.768L338.599 202.941H338.447L339.203 203.241L338.977 203.115L339.606 203.589C339.37 203.372 339.159 203.13 338.977 202.866L339.456 203.489C337.516 201.594 336.936 198.102 334.292 197.055C332.704 196.606 330.816 197.628 330.412 199.249C330.084 202.542 333.31 205.41 335.097 207.954C339.808 212.244 344.165 203.763 337.868 202.866V202.841Z" fill="white"/>
<path d="M331.721 216.859C328.875 216.709 325.5 214.314 322.905 215.536C320.312 216.759 321.042 220.525 323.636 221.224C326.23 221.922 329.631 223.643 332.477 222.545C334.819 221.298 334.342 217.457 331.721 216.859Z" fill="white"/>
<path d="M324.366 234.368C321.521 234.118 318.523 231.798 315.752 232.995C314.291 233.819 313.711 235.865 314.619 237.286C315.053 237.97 315.725 238.475 316.508 238.707C319.279 239.207 322.327 241.226 325.122 240.054C327.465 238.807 326.986 234.966 324.366 234.368Z" fill="white"/>
<path d="M316.936 250.406C315.329 250.48 313.718 250.406 312.125 250.18L312.956 250.306C304.694 247.512 305.072 258.062 311.521 255.643L309.934 256.067H310.009L309.179 255.941C312.352 256.241 316.357 257.738 319.179 255.743C321.143 253.896 319.656 250.306 316.936 250.406Z" fill="white"/>
<path d="M311.771 263.075C310.249 263.135 308.725 263.068 307.213 262.876L308.044 262.976C302.05 260.93 299.958 266.866 304.366 268.663C307.414 268.987 311.318 270.334 313.988 268.389C315.979 266.568 314.492 262.976 311.771 263.075Z" fill="white"/>
<path d="M296.684 271.781C296.458 271.775 296.238 271.716 296.039 271.608C295.841 271.5 295.672 271.347 295.546 271.163C295.421 270.976 295.341 270.763 295.315 270.541C295.291 270.319 295.32 270.093 295.399 269.884L322.477 203.615C323.686 200.683 325.477 198.022 327.745 195.79C330.012 193.557 332.71 191.799 335.676 190.62C354.014 182.838 373.484 202.516 365.626 220.549C363.284 226.287 360.84 233.569 352.956 230.702C351.122 229.933 349.665 228.485 348.899 226.667C348.131 224.849 348.114 222.804 348.85 220.974C350.135 217.882 352.352 213.741 350.436 210.423C347.742 204.313 338.423 204.712 336.054 210.997L311.596 270.882C311.487 271.138 311.307 271.358 311.073 271.513C310.84 271.669 310.568 271.752 310.286 271.755C305.248 271.705 300.791 271.705 296.684 271.781ZM344.266 191.717C336.03 191.642 328.069 197.03 325.048 204.637L298.75 269.011C302.024 268.961 305.526 268.961 309.379 268.987L333.486 209.975C336.659 201.52 349.329 201.02 352.956 209.251C357.314 217.382 346.028 224.016 354.115 228.232C359.883 230.402 361.269 223.143 363.057 219.503C368.648 206.657 358.32 191.493 344.266 191.717Z" fill="#452D34"/>
<path d="M291.999 206.507H292.125C293.694 206.922 295.365 206.712 296.779 205.918C298.193 205.125 299.235 203.813 299.681 202.268L300.967 197.728C301.32 196.522 301.921 195.402 302.731 194.435C303.54 193.468 304.542 192.677 305.673 192.108C306.804 191.54 308.04 191.208 309.305 191.132C310.572 191.056 311.84 191.238 313.032 191.667C317.566 193.338 319.958 198.277 318.623 202.891L299.681 269.61C304.19 269.536 308.574 269.56 312.654 269.61L331.268 204.537C334.669 192.665 327.515 180.169 315.349 177.326C304.089 174.707 292.553 181.341 289.38 192.465L287.666 199.05C287.25 200.608 287.472 202.265 288.283 203.662C289.094 205.059 290.429 206.081 291.999 206.507Z" fill="#CE9C5C"/>
<path d="M297.667 181.441C295.048 182.065 294.518 185.881 296.911 187.153C297.494 187.437 298.05 187.771 298.574 188.15C299.306 188.746 299.973 189.414 300.563 190.146C300.589 190.171 300.614 190.196 300.614 190.221C301.042 192.54 304.316 193.662 306.081 191.842C309.757 188.5 301.168 180.618 297.667 181.441Z" fill="#D13535"/>
<path d="M319.378 191.991C320.179 190.65 321.061 189.358 322.024 188.125L321.545 188.749C323.107 186.729 326.432 184.209 323.887 181.616C319.681 178.074 316.029 186.105 313.938 188.849C311.898 192.39 317.262 195.508 319.378 191.991Z" fill="#D13535"/>
<path d="M317.944 213.341C320.765 214.214 324.745 217.083 327.617 215.761C328.333 215.339 328.853 214.656 329.066 213.858C329.278 213.061 329.164 212.212 328.75 211.496C327.063 209.351 323.763 209.426 321.471 208.104L322.227 208.428C318.296 205.584 313.914 210.399 317.944 213.341Z" fill="#D13535"/>
<path d="M311.571 237.386C313.51 238.782 315.903 239.331 318.245 239.431L317.414 239.305L317.918 239.431L317.163 239.131L317.39 239.257L316.759 238.757L316.885 238.907L316.407 238.258C316.432 238.308 316.458 238.333 316.458 238.383L316.155 237.634C316.684 240.304 320.638 240.928 321.949 238.508C323.661 235.265 320.009 232.771 316.961 233.095L317.818 233.195C317.062 233.095 316.325 232.894 315.626 232.597L316.357 232.921C311.899 229.305 307.566 234.268 311.571 237.386Z" fill="#D13535"/>
<path d="M306.306 258.487C309.253 258.611 312.806 260.332 315.575 259.259C317.943 258.012 317.465 254.146 314.821 253.548C312.175 252.949 309.429 252.451 306.735 252.401C303.41 252.649 303.083 257.762 306.306 258.487Z" fill="#D13535"/>
<path d="M296.887 271.781C296.674 271.775 296.464 271.723 296.275 271.628C296.086 271.532 295.921 271.394 295.793 271.226C295.664 271.058 295.575 270.864 295.534 270.658C295.491 270.451 295.497 270.238 295.551 270.034L314.393 204.137C315.525 200.147 313.459 195.957 309.657 194.56C305.854 193.164 300.513 195.483 299.405 199.723L298.12 204.237C297.505 206.068 296.204 207.595 294.487 208.507C292.771 209.419 290.767 209.646 288.886 209.143C287.006 208.639 285.392 207.442 284.373 205.798C283.355 204.153 283.011 202.185 283.41 200.297C283.435 200.297 285.122 193.737 285.122 193.712C290.513 174.532 317.188 170.891 327.314 188.275C328.934 191.002 329.98 194.025 330.392 197.162C330.802 200.299 330.569 203.486 329.707 206.533L311.345 270.732C311.265 271.022 311.093 271.278 310.849 271.458C310.608 271.64 310.312 271.735 310.009 271.731C305.149 271.705 300.866 271.705 296.887 271.781ZM306.936 191.343C313.837 191.218 319.078 198.227 317.063 204.886L298.724 269.011C301.899 268.961 305.274 268.961 308.977 268.987L327.037 205.784C327.797 203.092 328.004 200.277 327.644 197.505C327.286 194.733 326.368 192.061 324.947 189.647C316.18 174.407 292.378 177.575 287.792 194.436L286.105 200.995C285.771 202.223 285.942 203.53 286.583 204.631C287.223 205.734 288.279 206.539 289.518 206.869C290.757 207.199 292.079 207.03 293.192 206.396C294.304 205.762 295.116 204.716 295.45 203.489L296.735 198.975C297.919 194.56 302.352 191.268 306.936 191.343Z" fill="#452D34"/>
<path d="M228.423 211.422L228.625 211.646L228.121 210.997C228.387 211.341 228.607 211.719 228.776 212.12L228.449 211.372C228.978 212.618 229.129 213.965 229.507 215.262C229.758 216.164 230.113 217.035 230.565 217.856C231.052 218.657 231.609 219.418 232.227 220.125C234.066 222.321 236.282 224.192 238.575 225.887C240.641 227.4 242.852 228.712 245.174 229.803C247.727 231.026 250.392 232.003 253.134 232.721C258.368 234.112 263.822 234.501 269.205 233.868C272.004 233.566 274.766 232.972 277.441 232.098C280.363 231.1 283.184 229.827 285.476 227.734C286.601 226.75 287.502 225.543 288.121 224.192C288.368 223.673 288.577 223.14 288.75 222.595C288.905 221.954 289.023 221.304 289.104 220.649C289.2 219.887 289.208 219.118 289.128 218.354C288.949 216.526 288.577 214.72 288.02 212.967C287.516 211.396 287.038 209.775 286.206 208.328C285.755 207.54 285.195 206.819 284.544 206.183C283.943 205.603 283.141 205.272 282.303 205.26C281.469 205.266 280.672 205.598 280.083 206.181C279.494 206.765 279.16 207.554 279.154 208.378C279.177 209.207 279.509 209.996 280.086 210.597L280.69 211.246L280.187 210.623C280.634 211.202 280.998 211.84 281.27 212.518L280.967 211.77C281.38 212.814 281.734 213.88 282.024 214.962C282.411 216.135 282.698 217.336 282.881 218.554L282.78 217.732C282.915 218.7 282.924 219.68 282.806 220.649L282.907 219.827C282.805 220.501 282.627 221.162 282.378 221.796L282.679 221.048C282.418 221.654 282.079 222.224 281.672 222.745L282.176 222.121C281.624 222.801 280.989 223.413 280.286 223.942L280.917 223.467C279.732 224.346 278.437 225.067 277.063 225.613L277.818 225.314C274.922 226.497 271.882 227.302 268.776 227.708L269.607 227.584C266.071 228.044 262.489 228.044 258.952 227.584L259.783 227.684C256.142 227.203 252.584 226.24 249.204 224.814L249.96 225.138C246.848 223.839 243.919 222.145 241.245 220.101L241.874 220.599C239.82 219.072 237.967 217.295 236.358 215.312L236.836 215.935C236.357 215.318 235.951 214.649 235.627 213.94L235.955 214.688C235.502 213.615 235.3 212.444 235.023 211.296C234.866 210.629 234.646 209.978 234.368 209.351C234.009 208.492 233.507 207.699 232.882 207.007C232.378 206.433 231.396 206.083 230.665 206.083C229.825 206.09 229.021 206.421 228.423 207.007C227.895 207.605 227.466 208.378 227.517 209.201C227.547 210.023 227.868 210.81 228.423 211.422Z" fill="#CE9C5C"/>
<path d="M271.722 295.35C275.018 289.105 276.008 281.915 274.517 275.023C272.68 270.632 266.734 272.778 268.8 278.614L268.674 277.767C268.989 280.142 268.989 282.548 268.674 284.925L268.775 284.077C268.457 286.449 267.831 288.772 266.91 290.985L267.213 290.237C263.485 295.7 268.951 299.042 271.722 295.35Z" fill="#CE9C5C"/>
<path d="M170.439 282.056C170.388 298.143 187.869 308.868 202.932 306.674C208.7 306.524 207.113 298.768 201.698 300.613L202.529 300.489C200.171 300.792 197.782 300.782 195.426 300.463L196.257 300.563C193.708 300.237 191.216 299.564 188.852 298.568L189.607 298.892C187.451 297.996 185.419 296.831 183.562 295.425L184.217 295.924C182.639 294.732 181.224 293.339 180.01 291.783L180.514 292.432C179.443 291.049 178.547 289.541 177.844 287.943L178.172 288.691C177.497 287.093 177.031 285.417 176.786 283.702L176.912 284.525C176.61 282.954 177.088 281.059 175.804 279.836C173.94 277.891 170.338 279.362 170.439 282.056Z" fill="#CE9C5C"/>
<path d="M242.529 143.754C240.816 142.756 238.347 144.328 238.524 146.323C238.7 148.318 241.445 149.964 243.158 148.393C244.871 147.196 244.342 144.303 242.529 143.754Z" fill="#452D34"/>
<path d="M267.844 143.754C266.106 142.756 263.636 144.328 263.814 146.323C263.99 148.318 266.761 149.964 268.473 148.393C270.186 147.196 269.657 144.303 267.844 143.754Z" fill="#452D34"/>
<path d="M255.627 147.296C255.701 147.489 255.752 147.69 255.778 147.894C255.677 152.983 255.451 152.833 258.574 156.474C258.599 156.649 258.725 156.799 258.725 156.973C258.725 156.474 258.675 157.672 258.725 157.123C258.71 157.306 258.659 157.484 258.574 157.647C258.776 157.297 258.373 157.996 258.297 158.071C258.221 158.145 258.02 158.32 257.97 158.395C257.919 158.47 258.146 158.27 257.995 158.345L257.617 158.594C257.567 158.619 257.264 158.744 257.541 158.644C256.66 158.944 256.307 158.944 255.325 158.869C253.687 158.844 253.687 161.363 255.325 161.363C261.017 161.887 263.234 156.424 258.776 152.808C258.927 153.057 258.826 152.883 258.776 152.833L258.448 152.259C258.473 152.284 258.524 152.484 258.448 152.259C258.378 152.055 258.319 151.847 258.272 151.636C258.272 151.561 258.196 151.361 258.272 151.611C258.095 149.965 258.549 148.269 258.07 146.647C257.592 145.026 255.199 145.749 255.627 147.296Z" fill="#452D34"/>
<path d="M242.982 132.58C255.853 136.396 280.714 130.086 286.407 139.04C288.121 141.709 292.955 134.6 292.955 134.6C292.955 134.6 298.145 115.595 283.056 102.326C271.949 92.5485 257.868 92.3242 250.412 95.5416C242.957 98.7591 247.566 94.7685 233.183 97.2376C217.894 99.8566 212.201 127.791 215.048 137.169C215.375 138.217 221.597 139.763 222.932 138.865C224.267 137.968 222.856 136.496 227.717 135.224C233.889 133.628 235.501 119.735 236.886 119.91C238.272 120.084 235.727 130.435 242.982 132.58Z" fill="#452D34"/>
<path d="M270.464 191.118C271.793 191.277 273.131 191.36 274.468 191.368C286.988 191.368 291.194 183.785 293.158 174.906C295.476 164.331 293.158 148.717 293.158 148.717L289.682 152.234L287.063 153.556L279.682 170.043L274.468 176.128L272 180.867L270.791 186.803L270.464 191.118Z" fill="#452D34"/>
<path d="M215.048 147.745C215.048 147.745 212.227 163.707 214.947 174.856C217.113 183.711 222.428 190.445 231.597 191.368C235.803 191.792 238.448 191.567 238.448 191.567L235.98 178.273L231.143 172.736L225.577 164.331L222.63 154.329L222.025 151.985L215.678 146.972L214.897 145.126L215.048 147.745Z" fill="#452D34"/>
<path d="M262.478 142.482L262.579 142.407C262.87 142.199 263.182 142.024 263.511 141.883C263.41 141.908 263.386 141.933 263.485 141.883C264.018 141.701 264.567 141.567 265.124 141.484C265.425 141.409 267.616 141.31 267.869 141.384C269.002 141.459 270.312 142.208 270.866 142.607C272.024 143.754 273.813 141.983 272.63 140.861C271.014 139.544 268.98 138.837 266.886 138.865C264.696 138.915 262.403 139.24 260.715 140.711C259.531 141.833 261.32 143.604 262.478 142.482Z" fill="#452D34"/>
<path d="M237.189 141.659C237.466 141.434 236.988 141.784 237.29 141.584C237.583 141.38 237.895 141.205 238.222 141.06H238.171C238.7 140.866 239.249 140.732 239.809 140.661C240.136 140.586 242.328 140.462 242.579 140.561C243.688 140.636 245.023 141.36 245.552 141.784C246.71 142.906 248.524 141.135 247.34 140.013C245.712 138.701 243.671 137.995 241.572 138.017C239.406 138.067 237.088 138.392 235.401 139.863C234.242 140.986 236.03 142.756 237.189 141.634V141.659Z" fill="#452D34"/>
<path d="M276.328 161.322C279.806 160.289 281.945 157.205 281.106 154.435C280.266 151.664 276.765 150.255 273.288 151.288C269.81 152.321 267.673 155.405 268.511 158.176C269.351 160.947 272.85 162.355 276.328 161.322Z" fill="#D13535"/>
<path d="M241.135 158.948C241.974 156.177 239.836 153.094 236.358 152.061C232.88 151.027 229.38 152.436 228.541 155.207C227.701 157.977 229.84 161.061 233.318 162.094C236.795 163.127 240.295 161.719 241.135 158.948Z" fill="#D13535"/>
<path d="M255.426 176.553C249.406 177.301 241.496 165.703 248.171 165.877C252.91 167.417 258.022 167.408 262.756 165.852C269.354 165.678 261.748 177.276 255.426 176.553ZM248.877 168.92C251.647 175.43 259.431 175.28 262.075 168.895C257.758 170.076 253.199 170.085 248.877 168.92Z" fill="#452D34"/>
<path d="M220.514 142.183C220.741 139.339 218.272 138.965 217.895 140.985C218.121 142.507 217.995 146.223 220.262 145.949C222.151 145.275 220.439 143.205 220.464 141.858C220.489 141.958 220.489 142.058 220.514 142.183Z" fill="#452D34"/>
<path d="M289.431 142.058C289.501 142.279 289.559 142.504 289.607 142.731C289.631 142.947 289.631 143.165 289.607 143.38C289.556 143.555 289.53 143.729 289.481 143.904C288.448 145.3 290.589 146.897 291.547 145.375C292.503 143.854 292.453 140.736 290.538 139.714C289.53 139.389 288.523 140.661 289.128 141.559L289.431 142.058Z" fill="#452D34"/>
<path d="M296.03 232.323C295.375 231.598 294.997 230.526 294.065 230.127C293.134 229.729 292 231.076 292.629 231.948C296.382 236.936 299.153 239.855 301.748 245.541C302.121 246.471 302.416 247.432 302.629 248.41C303.057 249.956 305.501 249.283 305.072 247.736C303.31 241.176 299.909 237.81 296.03 232.323Z" fill="#452D34"/>
<path d="M312.227 219.951C310.661 217.6 308.682 215.547 306.382 213.89C304.947 212.668 291.748 204.612 291.37 207.854C291.292 208.172 291.339 208.507 291.504 208.79C291.668 209.073 291.936 209.282 292.252 209.376C293.259 209.751 294.241 210.123 295.25 210.547C298.12 211.696 302.857 214.24 305.224 216.111C306.639 217.209 307.924 218.465 309.052 219.851C309.757 220.674 310.412 222.421 311.772 221.672C312.302 221.322 312.604 220.549 312.227 219.951Z" fill="#452D34"/>
<path d="M278.776 206.158L279.732 206.283C281.741 206.561 283.735 206.943 285.702 207.43C287.264 207.854 287.97 205.434 286.383 205.012C284.795 204.587 277.315 202.891 273.939 203.389C273.184 201.668 272.125 197.703 271.999 196.157C271.521 193.189 271.747 188.574 272.1 186.404C272.276 183.636 273.386 180.817 273.485 178.074C277.642 174.295 281.022 169.756 283.435 164.705C285.225 161.084 286.577 157.266 287.465 153.332C287.748 153.434 288.049 153.468 288.347 153.431C295.476 151.336 300.69 138.841 293.083 134.501C291.646 133.727 290.035 133.902 288.725 134.625V133.253C288.851 132.43 288.422 131.433 287.465 131.483C285.199 131.458 286.533 137.094 286.205 138.716C286.256 141.809 286.205 145.924 285.803 148.543C285.203 152.857 284.034 157.075 282.327 161.088C280.727 164.807 278.672 168.317 276.205 171.539C274.805 173.29 273.274 174.932 271.622 176.453C271.53 176.499 271.452 176.568 271.395 176.652C268.77 179.011 265.775 180.932 262.529 182.339C261.345 182.937 257.189 183.985 256.105 184.11C248.65 184.858 241.849 181.765 236.483 176.752C236.38 176.589 236.231 176.459 236.055 176.378C232.313 172.714 229.319 168.37 227.239 163.583C226.156 161.263 224.796 156.3 224.519 153.806C224.116 152.733 224.494 150.164 224.166 148.593C224.569 146.622 223.965 143.106 224.216 141.933C224.191 138.067 224.166 134.176 224.191 130.31C224.216 128.714 221.673 128.689 221.673 130.31V134.251C218.876 133.278 215.552 135.748 214.292 138.242C213.562 140.063 213.713 142.133 214.116 144.003C215.073 147.994 217.995 151.536 221.874 153.007C222.882 162.336 227.541 171.664 234.292 178.124C235.148 181.142 236.181 185.257 236.509 187.676C237.088 191.318 236.458 194.835 235.249 197.927C234.268 200.253 232.698 202.289 230.69 203.839C216.761 210.897 202.983 221.372 195.627 235.865C194.544 238.058 186.03 254.62 189.179 254.994C189.503 255.079 189.847 255.035 190.139 254.872C190.431 254.71 190.647 254.44 190.741 254.122C191.723 251.004 193.26 246.838 194.318 244.344C196.736 238.558 200.338 232.297 203.94 227.708C209.355 220.824 215.854 215.262 223.486 210.747C226.584 209.076 229.582 207.605 232.126 205.71C234.645 216.609 243.083 226.311 254.241 229.005C268.372 232.273 290.866 229.453 280.916 209.925C280.488 209.251 279.708 207.58 278.776 206.158ZM288.952 137.668C289.29 137.224 289.731 136.865 290.235 136.621L290.336 136.571L290.664 136.496H290.841C291.17 136.489 291.498 136.558 291.798 136.695C292.628 137.094 292.679 137.194 293.334 137.868L293.461 138.017C293.435 138.017 293.41 137.968 293.36 137.893C293.592 138.21 293.803 138.544 293.989 138.89C294.342 139.838 294.241 140.985 294.116 142.382C293.941 143.521 293.628 144.635 293.184 145.699C292.789 146.552 292.307 147.362 291.747 148.119C290.795 149.295 289.579 150.235 288.196 150.862L287.944 150.912C288.543 147.546 288.805 144.129 288.725 140.711V138.017C288.814 137.911 288.891 137.793 288.952 137.668ZM218.6 147.62C216.786 145.176 216.081 142.981 216.383 140.013C216.433 139.289 216.987 138.416 218.322 137.344L218.196 137.444C219.028 136.82 219.254 136.72 220.086 136.521C220.917 136.321 220.413 136.471 220.892 136.621L221.194 136.795C221.332 136.919 221.495 137.013 221.673 137.07C221.673 140.911 221.698 144.752 221.673 148.593C221.673 149.116 221.673 149.665 221.698 150.214C220.516 149.54 219.467 148.662 218.6 147.62ZM279.455 223.093C278.271 224.49 277.416 225.038 275.627 225.837C274.544 226.337 271.345 227.059 269.481 227.259C266.684 227.658 261.974 227.832 258.549 227.334C245.854 225.987 236.458 215.312 234.292 204.037C234.296 203.978 234.288 203.919 234.267 203.863C236.431 201.703 237.911 198.964 238.524 195.982C239.934 191.019 238.952 185.881 237.667 180.992C239.831 182.61 242.203 183.935 244.72 184.933C253.788 188.774 263.032 186.105 270.514 180.518C269.154 187.976 268.297 195.658 271.068 202.866C271.797 204.662 275.551 213.89 277.844 212.593C278.372 212.244 278.725 211.446 278.297 210.872C277.111 209.293 276.049 207.625 275.122 205.884H275.223L275.35 206.008C277.717 208.354 280.336 214.04 280.69 217.033C281.118 219.527 280.362 221.972 279.455 223.093Z" fill="#452D34"/>
<path d="M229.859 213.665C228.977 214.888 225.4 217.532 228.524 218.256C229.456 218.256 231.899 215.462 232.025 214.564C232.151 213.665 230.614 212.867 229.859 213.665Z" fill="#452D34"/>
<path d="M239.858 225.513C239.663 226.29 239.401 227.049 239.078 227.782C239.13 227.688 239.172 227.587 239.203 227.484C238.851 228.606 237.239 230.127 238.7 231.076C240.967 231.973 241.672 227.658 242.276 226.187C242.881 224.714 240.287 223.967 239.858 225.513Z" fill="#452D34"/>
<path d="M259.104 232.845C259.859 234.292 259.683 238.683 261.899 238.258C264.116 237.834 261.648 233.819 261.547 232.197C261.446 230.576 258.675 231.3 259.104 232.845Z" fill="#452D34"/>
<path d="M278.473 229.305C277.416 229.255 276.761 230.726 277.592 231.424C278.145 231.898 278.652 232.424 279.103 232.995L278.901 232.747C279.859 233.644 280.136 236.237 281.925 235.365C283.712 234.492 279.984 229.503 278.473 229.305Z" fill="#452D34"/>
<path d="M289.354 218.928C287.893 219.178 284.946 218.056 284.669 220.175C284.675 220.504 284.81 220.818 285.045 221.051C285.279 221.283 285.596 221.416 285.928 221.422H289.354C290.991 221.422 290.991 218.904 289.354 218.928Z" fill="#452D34"/>
<path d="M285.601 208.428C283.033 208.08 282.378 210.523 284.518 210.947C287.944 211.57 288.473 208.004 285.601 208.428Z" fill="#452D34"/>
<path d="M259.154 98.8089L259.934 98.6843C259.96 98.6843 260.136 98.6593 259.985 98.6843H260.06L260.514 98.6344C261.034 98.5846 261.563 98.5596 262.101 98.5596C262.63 98.5346 263.158 98.5596 263.687 98.5846L264.443 98.6593H264.997C266.051 98.8298 267.095 99.0632 268.121 99.3577L269.631 99.9064L269.783 99.9812C269.732 99.9563 269.582 99.8814 269.809 99.9812L270.136 100.131L270.943 100.505C272.05 101.054 273.107 101.677 274.191 102.326C274.481 102.491 274.827 102.535 275.15 102.449C275.474 102.362 275.75 102.152 275.917 101.864C276.083 101.577 276.128 101.235 276.04 100.914C275.953 100.594 275.741 100.321 275.45 100.156C273.461 98.9586 271.395 97.8363 269.178 97.0881C265.728 95.955 262.044 95.7146 258.473 96.3896C258.154 96.4772 257.882 96.6861 257.717 96.9709C257.552 97.2558 257.507 97.5936 257.592 97.911C257.691 98.226 257.908 98.4915 258.198 98.6537C258.488 98.8159 258.83 98.8624 259.154 98.7841V98.8089Z" fill="white"/>
<path d="M278.297 104.745C278.757 105.293 279.273 105.794 279.833 106.242C279.942 106.361 280.081 106.447 280.237 106.491C280.387 106.557 280.551 106.591 280.714 106.591C280.88 106.591 281.043 106.557 281.193 106.491C281.349 106.447 281.488 106.361 281.597 106.242C281.718 106.125 281.814 105.986 281.88 105.831C281.944 105.677 281.977 105.511 281.975 105.344L281.925 105.019C281.876 104.807 281.761 104.615 281.597 104.471C281.042 104.017 280.528 103.516 280.059 102.974C279.952 102.855 279.812 102.769 279.657 102.725C279.51 102.644 279.346 102.602 279.178 102.602C279.011 102.602 278.846 102.644 278.699 102.725C278.542 102.761 278.399 102.849 278.297 102.974C278.176 103.086 278.08 103.221 278.014 103.371C277.95 103.521 277.917 103.684 277.919 103.847L277.969 104.196C278.025 104.406 278.138 104.597 278.297 104.745Z" fill="white"/>
<path d="M221.673 183.337C223.607 185.483 226.154 186.996 228.977 187.676C229.298 187.761 229.639 187.716 229.927 187.553C230.214 187.389 230.425 187.12 230.514 186.803C230.592 186.486 230.544 186.151 230.38 185.868C230.216 185.585 229.948 185.375 229.632 185.282C229.004 185.132 228.389 184.931 227.793 184.683C227.945 184.758 227.869 184.733 227.768 184.683L227.567 184.584C227.411 184.519 227.259 184.444 227.113 184.359C226.82 184.225 226.534 184.075 226.257 183.91L225.501 183.411L225.073 183.112C225.174 183.162 225.199 183.187 225.098 183.112L224.897 182.963C224.388 182.537 223.908 182.079 223.461 181.591C223.033 181.092 222.126 181.117 221.673 181.591C221.448 181.827 221.322 182.139 221.322 182.464C221.322 182.788 221.448 183.101 221.673 183.337Z" fill="white"/>
<path d="M241.194 98.0858C239.498 97.6511 237.711 97.7205 236.055 98.2853C235.451 98.5098 234.947 99.1582 235.174 99.8317C235.4 100.505 236.055 100.929 236.735 100.705C237.238 100.511 237.762 100.377 238.297 100.306L237.969 100.356C238.639 100.281 239.315 100.281 239.985 100.356L239.632 100.306L240.514 100.48C240.837 100.559 241.179 100.512 241.469 100.35C241.759 100.188 241.976 99.9221 242.075 99.6073C242.201 98.9587 241.874 98.2354 241.194 98.0858Z" fill="white"/>
<path d="M242.075 128.29L242.856 128.989C243.206 129.258 243.577 129.5 243.965 129.712C244.106 129.8 244.264 129.856 244.43 129.878C244.595 129.899 244.763 129.885 244.922 129.837C245.081 129.811 245.229 129.742 245.35 129.637C245.484 129.546 245.596 129.427 245.677 129.288C245.844 128.992 245.889 128.643 245.803 128.315C245.712 128.003 245.505 127.735 245.224 127.567C244.924 127.408 244.637 127.224 244.368 127.018L244.645 127.218C244.367 127.004 244.106 126.771 243.864 126.519C243.752 126.405 243.614 126.319 243.461 126.27C243.315 126.19 243.148 126.155 242.982 126.17C242.808 126.152 242.632 126.186 242.478 126.27C242.326 126.319 242.187 126.405 242.075 126.519C241.957 126.637 241.865 126.777 241.804 126.932C241.743 127.086 241.716 127.252 241.723 127.417C241.726 127.742 241.852 128.053 242.075 128.29Z" fill="white"/>
<path d="M248.171 131.533C249.542 131.98 250.988 132.158 252.428 132.056C252.76 132.05 253.077 131.917 253.312 131.684C253.547 131.452 253.681 131.138 253.688 130.809C253.663 130.161 253.134 129.512 252.428 129.562C251.714 129.612 250.996 129.587 250.287 129.487L250.64 129.537C250.033 129.455 249.435 129.321 248.851 129.138C248.689 129.08 248.515 129.055 248.342 129.066C248.17 129.077 248.001 129.122 247.847 129.201C247.692 129.279 247.556 129.388 247.447 129.521C247.337 129.654 247.256 129.808 247.209 129.973C247.162 130.138 247.15 130.311 247.174 130.481C247.198 130.651 247.256 130.814 247.347 130.96C247.437 131.107 247.557 131.233 247.699 131.332C247.841 131.43 248.002 131.499 248.171 131.533Z" fill="white"/>
<path d="M293.461 162.111L291.369 158.495C291.349 158.454 291.339 158.409 291.339 158.364C291.34 158.319 291.352 158.274 291.375 158.235C291.397 158.195 291.429 158.162 291.467 158.137C291.507 158.113 291.551 158.099 291.596 158.096H292.276C292.321 158.097 292.365 158.087 292.405 158.065C292.445 158.044 292.478 158.013 292.501 157.975C292.524 157.936 292.537 157.893 292.537 157.848C292.537 157.804 292.526 157.76 292.503 157.721L290.639 154.529C290.618 154.492 290.606 154.451 290.606 154.408C290.604 154.366 290.615 154.324 290.635 154.286C290.655 154.249 290.684 154.217 290.72 154.194C290.757 154.171 290.798 154.158 290.841 154.155H291.345C291.389 154.156 291.433 154.146 291.473 154.125C291.513 154.103 291.547 154.072 291.57 154.034C291.593 153.996 291.605 153.952 291.605 153.908C291.605 153.863 291.594 153.819 291.571 153.781L289.253 149.815C289.233 149.773 289.201 149.737 289.161 149.712C289.12 149.687 289.074 149.674 289.027 149.674C288.979 149.674 288.933 149.687 288.894 149.712C288.854 149.737 288.822 149.773 288.8 149.815L286.508 153.781C286.485 153.819 286.475 153.863 286.475 153.908C286.475 153.952 286.487 153.996 286.51 154.034C286.533 154.072 286.567 154.103 286.606 154.125C286.646 154.146 286.69 154.156 286.735 154.155H287.214C287.258 154.153 287.302 154.164 287.342 154.185C287.382 154.206 287.416 154.238 287.439 154.276C287.462 154.314 287.474 154.358 287.474 154.402C287.474 154.447 287.463 154.49 287.44 154.529L285.577 157.721C285.554 157.76 285.541 157.804 285.543 157.848C285.543 157.893 285.555 157.936 285.578 157.975C285.601 158.013 285.635 158.044 285.675 158.065C285.713 158.087 285.759 158.097 285.803 158.096H286.482C286.528 158.099 286.573 158.113 286.611 158.137C286.651 158.162 286.683 158.195 286.704 158.235C286.727 158.274 286.739 158.319 286.741 158.364C286.741 158.409 286.73 158.454 286.71 158.495L284.594 162.111C284.571 162.15 284.559 162.194 284.561 162.238C284.561 162.283 284.573 162.326 284.596 162.364C284.619 162.403 284.652 162.434 284.692 162.455C284.731 162.476 284.775 162.487 284.821 162.485H293.259C293.302 162.483 293.343 162.469 293.38 162.446C293.415 162.423 293.444 162.391 293.465 162.354C293.485 162.316 293.494 162.274 293.494 162.232C293.493 162.189 293.482 162.148 293.461 162.111Z" fill="#EFDCC4"/>
<path d="M289.027 150.388C289.499 150.388 289.884 150.009 289.884 149.54C289.884 149.072 289.499 148.692 289.027 148.692C288.554 148.692 288.17 149.072 288.17 149.54C288.17 150.009 288.554 150.388 289.027 150.388Z" fill="#CE9C5C"/>
<path d="M225.124 161.213L223.033 157.597C223.011 157.56 223 157.518 222.999 157.476C222.998 157.434 223.008 157.392 223.029 157.354C223.049 157.317 223.078 157.285 223.114 157.262C223.15 157.239 223.192 157.225 223.234 157.223H223.915C223.96 157.224 224.004 157.214 224.044 157.192C224.083 157.171 224.116 157.14 224.139 157.102C224.162 157.063 224.175 157.02 224.175 156.975C224.175 156.931 224.164 156.887 224.141 156.848L222.277 153.656C222.256 153.616 222.246 153.571 222.247 153.525C222.248 153.48 222.26 153.436 222.282 153.396C222.305 153.357 222.337 153.323 222.375 153.299C222.414 153.274 222.458 153.26 222.504 153.257H223.008C223.051 153.254 223.092 153.241 223.128 153.218C223.164 153.195 223.193 153.163 223.214 153.125C223.234 153.088 223.244 153.046 223.243 153.003C223.243 152.961 223.231 152.919 223.209 152.883L220.917 148.917C220.892 148.881 220.858 148.852 220.818 148.831C220.779 148.811 220.735 148.8 220.69 148.8C220.646 148.8 220.602 148.811 220.563 148.831C220.523 148.852 220.489 148.881 220.464 148.917L218.172 152.883C218.15 152.919 218.138 152.961 218.138 153.003C218.137 153.046 218.147 153.088 218.167 153.125C218.187 153.163 218.217 153.195 218.253 153.218C218.289 153.241 218.33 153.254 218.373 153.257H218.877C218.922 153.26 218.967 153.274 219.005 153.299C219.044 153.323 219.076 153.357 219.099 153.396C219.121 153.436 219.133 153.48 219.134 153.525C219.135 153.571 219.124 153.616 219.103 153.656L217.24 156.848C217.217 156.887 217.205 156.931 217.206 156.975C217.206 157.02 217.219 157.063 217.242 157.102C217.265 157.14 217.298 157.171 217.337 157.192C217.377 157.214 217.421 157.224 217.466 157.223H218.146C218.189 157.225 218.23 157.239 218.267 157.262C218.303 157.285 218.332 157.317 218.352 157.354C218.372 157.392 218.383 157.434 218.382 157.476C218.381 157.518 218.369 157.56 218.348 157.597L216.257 161.213C216.236 161.254 216.226 161.298 216.227 161.344C216.228 161.389 216.24 161.434 216.262 161.473C216.285 161.513 216.317 161.546 216.355 161.57C216.394 161.595 216.438 161.609 216.484 161.612H224.897C224.943 161.609 224.987 161.595 225.026 161.57C225.064 161.546 225.096 161.513 225.119 161.473C225.141 161.434 225.153 161.389 225.154 161.344C225.155 161.298 225.145 161.254 225.124 161.213Z" fill="#EFDCC4"/>
<path d="M220.69 149.516C221.163 149.516 221.547 149.136 221.547 148.668C221.547 148.199 221.163 147.819 220.69 147.819C220.217 147.819 219.834 148.199 219.834 148.668C219.834 149.136 220.217 149.516 220.69 149.516Z" fill="#CE9C5C"/>
<path d="M182.981 271.805H182.856C182.931 271.854 182.981 271.829 182.981 271.805Z" fill="#452D34"/>
<path d="M181.975 274.621C181.95 274.45 181.925 274.523 181.975 274.621V274.621Z" fill="#452D34"/>
<path d="M175.375 264.471C175.376 264.458 175.374 264.445 175.37 264.431C175.366 264.419 175.359 264.407 175.35 264.397C175.34 264.401 175.332 264.407 175.327 264.416C175.323 264.427 175.322 264.437 175.325 264.446C175.329 264.456 175.336 264.464 175.345 264.468C175.354 264.473 175.365 264.474 175.375 264.471Z" fill="#452D34"/>
<path d="M184.897 284.449C184.897 284.424 184.897 284.35 184.872 284.326V284.449H184.897Z" fill="#452D34"/>
<path d="M185.55 285.672H185.575L185.451 285.598L185.526 285.647L185.55 285.672Z" fill="#452D34"/>
<path d="M201.446 273.6C203.813 275.546 202.403 279.936 200.916 281.557C197.39 285.673 190.942 287.569 186.08 285.922L185.577 285.673C185.602 285.698 185.602 285.722 185.551 285.673C185.501 285.623 185.451 285.623 185.451 285.598C185.325 285.473 185.123 285.149 185.325 285.473C185.096 285.173 184.949 284.822 184.897 284.451C184.871 284.451 184.871 284.425 184.871 284.401C184.846 284.301 184.871 284.326 184.871 284.351C184.859 284.176 184.859 284.001 184.871 283.827C184.871 283.799 184.88 283.774 184.897 283.752C184.926 283.548 184.977 283.348 185.048 283.154C185.048 283.146 185.05 283.14 185.055 283.136C185.06 283.131 185.066 283.128 185.073 283.128C185.15 282.963 185.243 282.804 185.35 282.655L185.652 282.355C186.131 282.081 187.163 281.681 186.836 280.634C183.813 276.22 176.861 290.038 190.69 289.015C197.566 288.465 205.627 283.827 205.249 276.12C204.418 270.11 199.909 270.807 201.446 273.6Z" fill="#452D34"/>
<path d="M225.476 259.159C225.099 262.876 224.746 266.592 224.469 270.308C224.015 275.321 223.89 280.51 223.512 285.398C222.935 283.41 222.079 281.513 220.968 279.762C219.683 277.941 217.995 276.444 215.829 275.821C214.267 275.371 213.562 277.766 215.149 278.215C216.257 278.389 218.121 279.986 218.474 280.584C221.648 285.149 222.353 290.336 221.9 296.048C219.431 305.202 213.613 311.287 198.323 309.566C182.429 307.671 166.837 294.975 172.857 279.388C170.565 288.965 180.615 302.584 203.461 301.585C205.88 301.461 198.298 293.529 198.298 293.529H198.222C199.406 292.532 199.205 291.459 196.963 291.533C191.044 295.175 183.739 290.811 179.23 284.999C177.013 282.205 174.746 277.791 174.243 273.6C173.814 271.257 174.217 269.261 174.646 267.69C176.484 269.211 179.079 269.76 181.799 269.56C179.557 270.608 178.575 273.7 179.834 275.92C183.311 282.255 196.585 278.539 199.96 273.626C201.824 270.957 201.371 267.514 199.532 265.145C203.739 262.427 205.905 255.469 200.54 252.849C197.013 251.302 192.907 252.301 189.18 252.575C188.273 252.799 188.122 253.698 188.449 254.346C187.693 254.396 186.938 254.446 186.207 254.42C184.595 254.42 184.57 256.914 186.207 256.914C187.844 256.914 189.054 256.716 190.464 256.866H190.439C190.614 256.888 190.784 256.938 190.943 257.014C190.968 256.99 191.018 257.014 191.069 257.04H191.094L191.295 257.164L191.421 257.288C192.227 258.661 192.429 260.008 191.799 261.803C190.212 265.645 181.17 267.914 177.593 266.668C177.201 266.527 176.835 266.325 176.51 266.068C176.358 265.843 175.93 265.669 175.829 265.395L175.905 265.519C175.773 265.347 175.655 265.163 175.552 264.971L175.502 264.871C175.437 264.747 175.395 264.612 175.376 264.472C175.367 264.462 175.36 264.45 175.356 264.438C175.351 264.424 175.35 264.41 175.351 264.397C175.326 264.298 175.351 264.322 175.351 264.372C175.345 264.297 175.354 264.221 175.376 264.148L175.452 263.774L175.754 263.3C175.876 263.133 176.02 262.982 176.182 262.851H176.233C176.459 262.676 176.711 262.601 176.938 262.451L177.366 262.327C179.054 262.427 179.23 259.833 177.492 259.833C174.822 259.883 172.58 262.427 172.882 264.871C171.522 268.239 171.321 271.805 171.976 275.271C158.5 299.116 192.504 318.172 212.252 310.739C212.328 314.431 212.378 318.097 212.429 321.788C212.781 323.335 211.572 327.151 213.764 327.351C214.096 327.343 214.412 327.21 214.647 326.978C214.882 326.745 215.017 326.431 215.023 326.103C214.947 321.988 214.897 317.873 214.822 313.757C214.62 312.784 215.023 310.889 214.796 309.592C218.49 307.629 221.409 304.493 223.083 300.687C223.537 300.039 223.94 299.066 224.192 297.645C224.578 296.239 224.847 294.804 224.998 293.354C226.862 282.055 226.509 270.482 227.995 259.109C228.02 257.588 225.502 257.538 225.476 259.159ZM192.101 254.795C195.401 254.446 199.91 253.996 201.094 256.816C201.176 257.025 201.235 257.241 201.27 257.464V257.538C201.27 257.688 201.245 258.087 201.245 258.187C201.159 258.746 200.998 259.291 200.766 259.808C200.504 260.408 200.174 260.977 199.784 261.505C199.784 261.529 199.759 261.529 199.759 261.554C199.759 261.579 199.784 261.529 199.784 261.505C199.734 261.529 199.683 261.629 199.734 261.579C199.152 262.31 198.423 262.913 197.593 263.35C196.585 262.698 195.419 262.329 194.217 262.277C195.174 260.058 194.872 257.538 192.555 255.019L192.101 254.795ZM182.555 272.029L182.857 271.855H182.882C182.958 271.805 182.983 271.805 182.983 271.829L183.159 271.781C184.62 271.805 184.897 269.81 183.739 269.361C187.341 268.663 190.917 266.816 192.983 264.347C193.092 264.495 193.237 264.613 193.404 264.692C193.571 264.771 193.755 264.807 193.94 264.797L194.343 264.847H194.394C194.79 264.916 195.178 265.025 195.552 265.171H195.577C195.965 265.344 196.336 265.553 196.686 265.793H196.736C197.083 266.063 197.396 266.374 197.668 266.716L197.618 266.618C197.853 266.968 198.064 267.334 198.247 267.714C198.409 268.134 198.528 268.569 198.6 269.011V269.286C198.629 269.636 198.621 269.985 198.575 270.334C198.51 270.716 198.408 271.091 198.273 271.457V271.505C198.078 271.94 197.833 272.35 197.542 272.728H197.517C197.19 273.093 196.836 273.435 196.459 273.75C195.813 274.217 195.121 274.618 194.394 274.947L194.217 275.023C190.414 276.194 186.459 278.015 182.907 275.746L182.706 275.596C182.63 275.546 182.227 275.023 182.328 275.173C182.196 274.999 182.078 274.815 181.976 274.623V274.673C181.9 274.449 181.824 274.224 181.774 274.024C181.724 273.824 181.824 273.626 181.799 273.476C181.85 273.05 182.015 272.644 182.278 272.303L182.555 272.029Z" fill="#452D34"/>
<path d="M279.883 278.265C280.186 275.845 275.878 276.394 274.291 276.12C272.704 275.845 272.654 278.613 274.291 278.613C275.059 278.622 275.824 278.682 276.583 278.789L276.256 278.739C277.44 278.763 279.354 279.886 279.883 278.265Z" fill="#452D34"/>
<path d="M277.666 287.519C277.113 287.369 275.778 286.87 275.677 286.82C274.743 286.416 273.841 285.94 272.982 285.398C271.597 284.575 270.312 286.744 271.722 287.543C273.358 288.588 275.14 289.387 277.012 289.912C278.574 290.362 279.253 287.943 277.666 287.519Z" fill="#452D34"/>
<path d="M269.958 295.2L274.895 296.772C275.217 296.856 275.558 296.812 275.845 296.648C276.133 296.484 276.344 296.215 276.433 295.898C276.835 293.729 272.1 293.629 270.614 292.782C269.052 292.332 268.371 294.751 269.958 295.2Z" fill="#452D34"/>
<path d="M252.654 288.391C254.468 288.465 254.493 285.623 252.68 285.648C246.458 285.323 238.045 284.201 237.818 278.839C238.02 277.767 239.279 277.392 240.287 277.267C242.075 277.068 241.723 274.299 239.934 274.549C236.131 275.023 235.274 277.342 235.098 278.315C234.77 286.246 244.544 287.993 252.654 288.391Z" fill="#452D34"/>
<path d="M255.274 282.406C256.861 282.456 257.163 280.036 255.627 279.686C250.791 278.465 246.509 275.92 244.544 274.075C241.899 271.581 242.075 267.839 245.753 268.487C247.516 268.737 247.894 265.969 246.106 265.769C242.302 265.295 240.892 267.316 240.438 268.213C238.096 275.871 247.466 280.236 255.274 282.406Z" fill="#452D34"/>
<path d="M336.634 249.607C335.802 248.235 333.661 249.457 334.468 250.878C351.394 276.744 345.45 301.461 312.804 305.876C296.432 307.821 278.473 304.179 265.576 293.48C268.699 287.743 269.606 281.033 269.681 274.599C269.707 274.549 269.707 274.499 269.732 274.474L269.934 274.349L270.085 274.299C287.693 269.96 306.709 272.055 324.795 271.829C325.601 271.929 326.533 271.481 326.507 270.582C326.155 268.389 323.057 269.635 321.495 269.286C307.238 269.087 292.931 268.737 278.725 270.06C272.302 270.758 269.404 271.407 268.095 272.628C267.446 272.493 266.849 272.172 266.383 271.705C262.428 267.814 257.063 263.126 253.889 262.901C248.221 262.327 245.904 266.542 248.901 271.107C251.823 274.623 252.881 276.12 254.443 276.494C259.808 275.123 247.844 270.01 250.866 266.043C256.534 263.35 261.42 272.978 267.062 275.097C266.785 277.866 267.567 282.33 264.392 290.236C264.317 290.885 263.535 291.783 263.082 292.682C261.521 292.98 253.511 294.227 240.614 292.182C238.221 291.808 237.239 290.386 237.289 289.514C237.34 288.641 238.171 288.565 238.675 288.541C238.871 288.555 239.067 288.526 239.251 288.458C239.435 288.391 239.603 288.285 239.742 288.149C239.882 288.012 239.991 287.847 240.062 287.667C240.132 287.485 240.163 287.291 240.153 287.097C240.142 286.903 240.089 286.713 239.999 286.541C239.909 286.369 239.782 286.217 239.628 286.096C239.474 285.975 239.296 285.888 239.106 285.841C238.915 285.794 238.717 285.788 238.524 285.822C235.879 285.947 234.619 287.693 234.519 289.364C234.393 291.659 236.282 294.277 240.161 294.901C244.883 295.666 249.658 296.068 254.443 296.098C260.035 296.098 263.284 295.45 263.889 295.325C274.115 303.731 287.339 308.219 300.69 308.844C300.664 311.762 300.664 314.705 300.664 317.647C300.639 319.244 303.184 319.244 303.184 317.647C303.184 314.729 303.184 311.812 303.208 308.918C310.257 308.988 317.272 307.944 323.989 305.826C351.042 297.421 350.614 269.735 336.634 249.607Z" fill="#452D34"/>
</svg>
