<svg width="556" height="425" viewBox="0 0 556 425" fill="none" xmlns="http://www.w3.org/2000/svg">
<path d="M122.642 300.599C94.5722 219.23 62.4235 131.159 144.575 102.819C226.727 74.4794 383.898 27.2222 411.968 108.591C440.038 189.96 460.291 351.525 378.14 379.865C295.988 408.205 150.712 381.968 122.642 300.599Z" fill="white"/>
<path d="M195.124 145.369C193.778 143.523 199.433 144.76 198.009 142.738C194.695 138.026 191.712 133.747 191.712 133.747C190.506 132.063 188.866 130.745 186.968 129.935C185.07 129.125 182.988 128.855 180.949 129.153C178.157 129.598 175.468 130.549 173.013 131.96C168.275 134.709 164.512 138.871 161.412 143.405C159.248 146.586 157.298 150.434 158.253 154.164C158.702 155.93 159.754 157.442 160.788 158.934L189.001 199.611C189.001 199.611 192.687 204.028 199.218 201.613C205.321 199.375 210.995 195.92 215.597 191.326C219.73 187.203 223.22 181.294 221.465 175.699C220.802 173.52 219.399 171.675 218.034 169.849C215.713 166.787 211.404 160.406 209.104 157.344L200.018 154.36L195.124 145.369Z" fill="#CE9C5C"/>
<path d="M165.214 163.175C166.013 161.918 166.852 160.72 167.729 159.562C172.76 152.986 180.071 147.234 188.046 143.877C190.548 142.825 193.13 141.978 195.767 141.344C196.013 141.267 196.221 141.098 196.348 140.872C196.474 140.646 196.511 140.379 196.45 140.127C196.138 138.184 189.294 141.442 187.948 141.796C183.083 143.786 178.542 146.499 174.475 149.845C170.199 153.34 166.506 157.502 163.537 162.173C162.894 163.253 164.57 164.274 165.214 163.175Z" fill="white"/>
<path d="M180.383 183.807C180.923 182.705 181.529 181.636 182.197 180.607C182.528 180.097 182.879 179.606 183.249 179.115L183.483 178.801C183.347 178.978 183.503 178.762 183.522 178.742L183.678 178.546L184.224 177.859C185.804 175.997 187.553 174.288 189.45 172.755L189.801 172.48L189.996 172.323C189.84 172.441 189.957 172.362 189.976 172.342L190.756 171.754L192.258 170.693C193.369 169.947 194.519 169.241 195.689 168.593C196.859 167.945 198.048 167.317 199.277 166.747L201.129 165.884L201.538 165.707L201.772 165.609L201.87 165.57L202.806 165.177C204.21 164.608 205.633 164.078 207.056 163.587C207.739 163.351 208.441 163.076 209.143 162.88L209.63 162.762C209.669 162.762 209.942 162.703 209.689 162.762C209.796 162.729 209.908 162.716 210.02 162.723H210.293L210.527 162.782C210.624 162.821 210.624 162.821 210.508 162.782L210.644 162.86C211.093 163.116 211.736 162.978 211.97 162.507C212.099 162.28 212.134 162.011 212.069 161.758C212.003 161.505 211.842 161.287 211.619 161.152C210.274 160.367 208.772 160.917 207.407 161.368C206.043 161.82 204.795 162.291 203.488 162.802C200.867 163.796 198.308 164.95 195.826 166.257C191.244 168.691 186.935 171.812 183.483 175.739C181.579 177.869 179.966 180.246 178.687 182.806C178.472 183.258 178.55 183.886 179.038 184.141C179.525 184.396 180.13 184.278 180.383 183.788V183.807Z" fill="white"/>
<path d="M171.901 172.715C172.42 171.695 173.027 170.723 173.715 169.81C173.598 169.987 173.715 169.83 173.734 169.79L173.871 169.633C173.949 169.524 174.034 169.419 174.124 169.319C174.3 169.084 174.495 168.868 174.709 168.632C174.924 168.396 175.47 167.788 175.879 167.395C177.478 165.805 179.213 164.372 180.948 162.919C182.684 161.467 184.302 160.073 186.037 158.699L186.349 158.443C186.388 158.424 186.505 158.345 186.349 158.463L186.544 158.306L187.207 157.796L188.553 156.834C189.45 156.186 190.405 155.597 191.36 155.027L192.998 154.164L193.817 153.791L194.032 153.692H194.09L194.519 153.516C195.649 153.069 196.817 152.727 198.009 152.495C198.257 152.426 198.467 152.262 198.595 152.037C198.723 151.813 198.757 151.547 198.692 151.297C198.615 151.05 198.447 150.841 198.222 150.713C197.998 150.585 197.733 150.549 197.483 150.61C193.037 151.435 189.079 153.928 185.531 156.657C183.717 158.051 181.962 159.543 180.208 161.015C178.453 162.487 176.678 163.92 175.021 165.511C173.364 167.101 171.395 169.378 170.225 171.734C170.096 171.961 170.06 172.23 170.126 172.483C170.192 172.736 170.353 172.954 170.576 173.088C171.024 173.324 171.668 173.226 171.901 172.735V172.715Z" fill="#D13535"/>
<path d="M223.415 172.107C221.933 167.12 217.878 163.548 215.167 159.248C214.192 158.325 212.379 154.183 210.975 154.988C210.566 155.224 210.293 155.911 210.624 156.323C213.432 160.073 216.045 163.901 218.891 167.611C205.341 169.457 194.324 180.45 189.352 193.132C181.027 181.844 172.233 168.338 163.79 156.5C161.958 153.81 159.481 151.023 159.871 147.528C162.289 135.651 181.339 117.885 191.945 130.704C195.357 135.612 198.789 140.52 202.279 145.369C202.903 146.468 204.619 145.467 203.956 144.387C194.597 132.589 190.892 117.256 172.935 127.563C166.189 131.784 154.49 144.053 158.935 152.593C168.704 167.258 178.999 182.06 189.255 196.332C189.567 197.353 190.21 197.765 190.737 197.706C201.265 205.068 227.315 184.73 223.415 172.107ZM191.36 195.822C189.645 193.309 195.026 186.477 196.488 184.2C202.123 177.172 210.624 169.457 220.042 169.712L220.159 169.771C228.426 181.628 201.792 202.673 191.36 195.822Z" fill="#452D34"/>
<path d="M173.15 123.637C173.15 123.597 173.091 123.342 173.15 123.578C173.062 122.887 173.062 122.188 173.15 121.497C173.111 121.752 173.15 121.477 173.169 121.438C173.278 120.814 173.448 120.203 173.676 119.612C173.949 118.513 175.548 117.551 174.67 116.51C172.214 114.861 170.634 122.537 171.278 124.147C171.59 125.384 173.481 124.854 173.15 123.637Z" fill="#CE9C5C"/>
<path d="M161.061 131.018C157.898 130.067 154.498 130.319 151.507 131.725C150.571 132.333 148.309 132.962 148.914 134.434C149.167 134.827 149.811 135.121 150.24 134.787C151.003 134.214 151.827 133.727 152.696 133.335C153.678 132.926 154.706 132.642 155.757 132.491C156.089 132.392 158.409 132.392 158.799 132.51C159.387 132.592 159.968 132.723 160.534 132.903C161.743 133.256 162.27 131.352 161.061 131.018Z" fill="#CE9C5C"/>
<path d="M159.345 125.953L160.359 126.032C160.476 126.051 160.456 126.051 160.32 126.032C161.202 126.168 162.065 126.405 162.894 126.738C163.186 126.837 164.804 127.779 165.019 127.995C165.425 128.323 165.809 128.677 166.169 129.055C167.047 129.978 168.451 128.584 167.554 127.681C165.401 125.418 162.455 124.094 159.345 123.99C158.078 123.99 158.078 125.953 159.345 125.953Z" fill="#CE9C5C"/>
<path d="M205.282 145.918C199.394 138.733 190.21 143.955 196.859 151.984C200.056 156.284 209.065 161.702 212.262 154.792C213.861 150.885 211.638 147.764 209.181 145.722C208.987 145.369 208.753 145.035 208.538 144.682L208.675 145.172C208.129 137.83 201.85 129.88 195.435 126.601C189.508 124.049 188.767 129.369 191.828 128.015C191.848 127.995 191.555 128.113 191.692 128.073C191.893 127.994 192.103 127.935 192.316 127.897H192.199C192.457 127.861 192.719 127.854 192.979 127.877C193.076 127.897 193.408 127.956 193.018 127.877C196.605 128.525 200.018 132.216 202.221 134.984C204.424 137.752 205.73 140.206 206.471 143.19C206.555 143.539 206.62 143.893 206.666 144.25C206.686 144.348 206.647 144.073 206.647 144.093C206.413 146.291 208.753 147.823 209.747 149.118C210.254 149.806 210.702 150.512 210.819 151.121C210.839 151.199 210.8 151.239 210.819 151.062C210.855 151.533 210.842 152.007 210.78 152.475C210.761 152.652 210.8 152.475 210.8 152.436C210.717 153.064 210.573 153.682 210.371 154.282C210.429 154.223 210.429 154.144 210.371 154.282C210.252 154.541 210.101 154.785 209.922 155.008C209.279 155.852 208.07 156.264 206.51 156.048C205.34 156.009 202.201 154.419 201.226 153.516C198.731 151.494 196.371 148.844 196.469 146.233C196.605 145.722 197.327 144.78 197.99 144.505C198.653 144.23 198.633 144.368 199.238 144.426C199.355 144.426 199.16 144.407 199.16 144.407C199.717 144.495 200.26 144.653 200.778 144.878C201.343 145.094 202.63 145.879 203.196 146.488C204.443 148.431 206.198 147.371 205.282 145.899V145.918Z" fill="#452D34"/>
<path d="M243.478 99.0973C239.622 97.9785 235.527 97.9989 231.682 99.1562C231.449 99.2712 231.208 99.3695 230.961 99.4507C230.688 99.5489 230.446 99.7182 230.259 99.9415L230.22 99.9808C229.984 100.27 229.847 100.628 229.83 101.002C229.759 102.084 229.463 103.138 228.963 104.099C228.463 105.059 227.768 105.903 226.925 106.577C226.496 106.852 226.203 107.343 226.418 107.873C227.178 109.188 229.596 107.833 230.844 107.912C235.523 107.127 241.938 107.696 244.453 112.427C245.175 114.626 246.169 116.353 248.411 114.43L252.896 111.387C260.403 107.617 247.359 99.8826 243.478 99.0973ZM253.286 108.619V108.658C251.629 110.13 248.996 111.622 246.813 113.154C244.902 106.4 236.771 105.065 230.103 105.988C231.048 104.565 231.619 102.924 231.76 101.218C239.618 98.6262 248.723 101.394 253.305 108.422C253.315 108.461 253.322 108.5 253.325 108.54C253.325 108.56 253.325 108.579 253.305 108.579C253.286 108.579 253.325 108.56 253.286 108.619Z" fill="#EFDCC4"/>
<path d="M253.324 108.502V108.442C253.324 108.462 253.344 108.502 253.324 108.502Z" fill="#CE9C5C"/>
<path d="M246.969 113.428C246.989 113.448 246.989 113.448 246.989 113.468C246.987 113.453 246.98 113.438 246.969 113.428Z" fill="#CE9C5C"/>
<path d="M253.324 108.522C253.324 108.482 253.324 108.462 253.344 108.462L253.324 108.522Z" fill="#CE9C5C"/>
<path d="M253.286 108.639C253.286 108.619 253.305 108.599 253.305 108.56C253.305 108.52 253.266 108.619 253.286 108.639Z" fill="#CE9C5C"/>
<path d="M145.443 188.499C145.462 188.519 145.462 188.499 145.423 188.401C145.439 188.431 145.446 188.465 145.443 188.499Z" fill="#D13535"/>
<path d="M149.713 178.174L149.773 178.134L149.713 178.174Z" fill="#D13535"/>
<path d="M151.858 193.348C151.312 192.897 150.708 193.368 150.123 193.446C147.315 193.76 145.677 190.835 145.424 188.401C145.323 187.494 145.33 186.578 145.443 185.672C145.424 185.81 145.424 185.77 145.443 185.653C145.586 184.675 145.848 183.719 146.223 182.806C146.223 182.811 146.221 182.816 146.217 182.82C146.214 182.824 146.209 182.826 146.203 182.826C146.242 182.728 146.262 182.669 146.223 182.806C146.979 180.99 148.18 179.396 149.713 178.173H149.694C149.772 178.114 149.811 178.114 149.772 178.134C150.355 177.674 150.99 177.286 151.663 176.975C152.638 176.347 151.955 175.15 151 175.012H151.039C150.44 174.747 149.872 174.418 149.343 174.031L149.44 174.109C148.192 173.481 147.022 170.438 145.775 170.988C137.917 173.795 133.51 183.258 136.513 191.13C138.541 197.039 144.078 200.474 149.284 203.282C149.458 203.385 149.66 203.431 149.862 203.413C150.063 203.396 150.254 203.315 150.408 203.184C150.562 203.052 150.672 202.876 150.722 202.679C150.772 202.482 150.76 202.274 150.688 202.084C150.727 200.357 152.911 194.192 151.858 193.348ZM148.329 193.191C148.329 193.186 148.327 193.181 148.323 193.177C148.319 193.173 148.314 193.171 148.309 193.171C148.314 193.171 148.319 193.173 148.323 193.177C148.327 193.181 148.329 193.186 148.329 193.191ZM142.967 174.757L142.889 174.816L142.967 174.757ZM146.789 199.591C145.72 198.945 144.685 198.244 143.688 197.49C139.672 194.663 136.786 189.049 137.664 183.788C138.002 181.423 138.95 179.19 140.413 177.309C141.504 175.817 143.766 173.913 145.833 173.069C146.711 174.286 147.783 175.444 149.089 176.19C145.346 178.801 143.045 183.513 143.454 188.107C143.61 191.66 146.106 195.704 150.025 195.41C149.674 197.216 149.284 199.022 148.933 200.847L146.789 199.591Z" fill="#D13535"/>
<path d="M207.485 112.545C206.312 110.568 205.693 108.31 205.691 106.008C205.688 105.857 205.65 105.708 205.581 105.574C205.512 105.44 205.414 105.323 205.294 105.232C205.174 105.142 205.035 105.08 204.888 105.051C204.74 105.022 204.589 105.027 204.443 105.065C201.07 105.968 197.502 108.579 196.527 112.015C196.56 112.24 196.673 112.446 196.845 112.594C197.017 112.742 197.237 112.822 197.463 112.82C200.49 112.545 203.539 112.947 206.393 113.998C207.193 114.253 207.934 113.252 207.485 112.545ZM205.789 107.676C205.808 107.755 205.789 107.735 205.789 107.676V107.676ZM199.296 110.778C199.869 110.002 200.545 109.308 201.304 108.717H201.285C202.056 108.139 202.903 107.67 203.8 107.323C203.935 108.738 204.269 110.126 204.794 111.445C202.996 110.998 201.149 110.774 199.296 110.778Z" fill="#D13535"/>
<path d="M172.916 205.127C170.605 204.364 168.107 204.399 165.818 205.225C163.869 206.305 166.228 209.132 166.91 210.467C167.749 211.389 169.113 214.432 170.439 214.177C170.6 214.127 170.746 214.038 170.865 213.919C170.984 213.799 171.072 213.652 171.122 213.49C171.941 211.115 172.759 208.72 173.598 206.324C173.773 205.814 173.383 205.284 172.916 205.127ZM169.835 211.232C168.821 209.858 167.807 208.445 167.183 206.835C168.561 206.479 170.002 206.445 171.395 206.737C170.868 208.248 170.361 209.74 169.835 211.232Z" fill="#D13535"/>
<path d="M250.323 136.142C248.1 133.688 246.17 130.252 243.693 128.132C243.342 127.327 242.094 127.465 241.88 128.309L238.429 139.047C238.195 139.774 238.936 140.461 239.638 140.265L249.64 137.359C250.128 137.202 250.498 136.652 250.323 136.142ZM243.264 130.351L247.612 135.887L240.866 137.85L243.264 130.351Z" fill="#CE9C5C"/>
<path d="M203.313 303.403C203.098 302.46 200.817 302.421 199.842 301.399C198.984 300.929 198.613 299.573 197.561 299.613C196.508 299.653 196.683 301.243 196.235 302.028C195.954 302.66 195.615 303.266 195.221 303.833C192.413 306.582 188.903 308.683 184.945 309.134C183.527 309.302 182.094 309.302 180.675 309.134H180.714C179.954 309.115 178.999 308.526 178.433 309.272C178.219 309.547 178.121 310.057 178.355 310.351C178.652 310.747 178.912 311.167 179.135 311.608C179.696 312.821 179.9 314.17 179.72 315.495C179.727 315.487 179.732 315.477 179.736 315.468C179.739 315.458 179.74 315.446 179.739 315.436C179.657 315.937 179.533 316.43 179.369 316.909C179.35 316.968 179.213 317.281 179.311 317.027C177.907 320.657 190.463 316.477 191.867 315.849C196.859 313.629 204.658 310.057 203.313 303.403ZM201.577 305.247C200.251 311.961 187.519 315.868 181.514 316.437C181.923 314.691 182.82 311.098 181.046 311.136C188.748 310.941 194.09 309.291 198.126 302.479C197.463 303.638 200.271 304.049 201.558 304.442C201.593 304.709 201.6 304.98 201.577 305.247ZM201.577 304.502C201.597 304.679 201.577 304.521 201.558 304.482C201.56 304.482 201.563 304.483 201.565 304.483C201.568 304.484 201.57 304.486 201.571 304.487C201.573 304.489 201.575 304.492 201.576 304.493C201.577 304.496 201.577 304.499 201.577 304.502Z" fill="#CE9C5C"/>
<path d="M197.814 268.576C197.307 267.111 196.466 265.788 195.359 264.711C194.252 263.633 192.909 262.832 191.438 262.372V262.334H191.399C190.814 262.235 190.385 261.843 189.762 261.803H189.605C189.177 262.49 189.079 263.648 188.67 264.277C187.745 266.466 186.629 268.568 185.335 270.559C184.945 271.148 185.452 272.09 186.174 272.031C187.929 271.835 198.399 270.814 197.814 268.576ZM188.728 269.813L188.026 269.891C189.082 268.071 190.001 266.175 190.775 264.218C190.99 264.296 191.224 264.355 191.438 264.454C191.653 264.552 191.789 264.571 191.536 264.493C192.177 264.758 192.78 265.108 193.33 265.533H193.349C193.898 265.957 194.389 266.453 194.811 267.006C195.099 267.389 195.353 267.796 195.572 268.223C193.337 268.937 191.048 269.469 188.728 269.813Z" fill="#CE9C5C"/>
<path d="M254.221 179.626C251.414 179.645 251.063 176.74 250.731 174.561L249.113 176.583C246.773 179.547 242.133 176.288 244.063 173.049C239.715 173.756 238.096 166.924 244.96 166.571C242.795 165.491 240.358 163.94 241.821 161.152C243.575 158.404 246.13 159.955 248.216 161.31C247.631 158.915 247.046 155.891 250.185 155.165C253.324 154.439 253.929 157.756 254.26 160.19C255.196 159.111 256.327 157.05 257.945 157.01C260.578 156.637 262.41 159.975 260.695 162.036L259.252 163.822C264.731 161.859 266.622 168.024 262.351 169.535C265.394 171.812 262.274 176.642 258.979 174.718L256.776 173.442C257.478 176.092 257.867 179.331 254.221 179.626ZM251.18 171.969C251.358 171.974 251.529 172.038 251.667 172.152C251.805 172.266 251.901 172.423 251.94 172.598L252.739 176.818C252.934 178.134 254.787 178.526 255.489 177.388C256.21 176.681 254.962 172.892 254.943 172.048C254.921 171.903 254.939 171.754 254.997 171.619C255.055 171.484 255.149 171.368 255.269 171.284C255.388 171.2 255.529 171.152 255.675 171.145C255.821 171.138 255.966 171.172 256.093 171.243L259.759 173.363C261.455 174.384 262.995 171.675 261.279 170.693L259.798 169.849C259.174 169.515 259.349 168.514 260.051 168.396L261.884 168.043C263.17 167.847 263.581 165.962 262.449 165.275C261.533 164.117 255.664 167.376 256.737 164.509C257.127 163.763 260.11 160.897 259.798 159.935C259.7 158.6 257.887 158.07 257.088 159.13L254.436 162.487C254.339 162.6 254.213 162.683 254.071 162.728C253.93 162.773 253.779 162.777 253.636 162.74C253.492 162.704 253.361 162.627 253.258 162.52C253.155 162.413 253.083 162.28 253.051 162.134C252.564 160.838 252.837 156.186 250.478 156.696C248.118 157.207 250.049 161.31 250.049 162.684C249.776 165.962 244.648 158.973 243.166 161.938C243.064 162.112 242.998 162.304 242.97 162.504C242.943 162.704 242.954 162.907 243.005 163.102C243.056 163.297 243.145 163.481 243.266 163.641C243.387 163.802 243.539 163.937 243.712 164.038L247.553 166.276C247.694 166.353 247.808 166.472 247.878 166.617C247.948 166.763 247.971 166.926 247.943 167.085C247.914 167.244 247.837 167.39 247.722 167.502C247.606 167.615 247.458 167.687 247.3 167.709C246.52 168.004 242.542 168.22 242.152 169.162C241.372 170.242 242.386 171.832 243.692 171.538L245.798 171.125C246.481 170.968 247.007 171.852 246.559 172.382L245.525 173.677C244.258 175.228 246.676 177.191 247.904 175.601C248.294 175.287 250.575 171.773 251.18 171.969Z" fill="#D13535"/>
<path d="M166.111 259.212C163.283 259.231 162.952 256.326 162.601 254.148L161.002 256.169C158.643 259.153 154.003 255.875 155.952 252.635C151.604 253.342 149.966 246.49 156.849 246.157C154.685 245.078 152.228 243.527 153.691 240.738C155.465 237.991 158.019 239.542 160.105 240.895C159.52 238.501 158.935 235.477 162.075 234.751C165.214 234.025 165.818 237.342 166.15 239.777L167.768 237.735C170.303 234.594 175.06 238.442 172.565 241.622L171.141 243.409C173.286 242.74 175.957 242.859 176.503 245.548C176.646 246.324 176.489 247.125 176.065 247.79C175.641 248.453 174.982 248.929 174.222 249.122C177.283 251.399 174.163 256.228 170.849 254.303L168.665 253.027C169.328 255.737 169.796 258.859 166.111 259.212ZM163.05 251.556C163.229 251.556 163.402 251.619 163.54 251.734C163.679 251.848 163.774 252.007 163.81 252.184L164.609 256.404C164.96 258.368 168.002 257.778 167.612 255.816L166.813 251.634C167.086 248.356 172.233 255.344 173.715 252.381C174.612 250.908 172.72 249.984 171.687 249.435C171.063 249.101 171.239 248.081 171.921 247.982C173.11 247.787 175.353 247.609 174.982 245.823C174.339 242.879 169.679 246.373 168.548 244.979C168.471 244.842 168.435 244.685 168.446 244.528C168.456 244.372 168.512 244.221 168.606 244.096L171.356 240.64C172.604 239.109 170.205 237.145 168.977 238.717L166.306 242.073C166.211 242.188 166.087 242.273 165.946 242.318C165.806 242.364 165.655 242.368 165.512 242.332C165.369 242.295 165.24 242.217 165.139 242.11C165.038 242.001 164.969 241.866 164.941 241.72C164.453 240.425 164.726 235.773 162.367 236.283C160.008 236.793 161.919 240.895 161.938 242.27C161.965 242.417 161.949 242.568 161.893 242.707C161.837 242.845 161.744 242.964 161.623 243.05C161.502 243.137 161.36 243.187 161.212 243.195C161.064 243.202 160.917 243.168 160.788 243.095L157.122 240.954C155.426 239.953 153.866 242.643 155.601 243.624L159.442 245.863C159.579 245.94 159.689 246.061 159.755 246.205C159.822 246.349 159.842 246.511 159.813 246.667C159.782 246.823 159.706 246.964 159.595 247.075C159.484 247.187 159.343 247.263 159.189 247.296L154.997 248.1C153.067 248.454 153.632 251.535 155.562 251.124L157.688 250.711C158.37 250.555 158.896 251.438 158.429 251.967L157.395 253.264C156.147 254.815 158.565 256.777 159.793 255.187C160.183 254.874 162.445 251.359 163.05 251.556Z" fill="#D13535"/>
<path d="M302.693 113.683C302.593 113.684 302.492 113.663 302.398 113.623C302.305 113.584 302.22 113.526 302.149 113.452C302.079 113.379 302.023 113.292 301.985 113.197C301.949 113.102 301.931 113.001 301.933 112.898V94.3072C301.931 94.2051 301.949 94.1034 301.985 94.0082C302.023 93.913 302.079 93.8263 302.149 93.7531C302.22 93.68 302.305 93.6218 302.398 93.5821C302.492 93.5424 302.593 93.522 302.693 93.522C302.901 93.522 303.099 93.6047 303.245 93.752C303.391 93.8992 303.473 94.0989 303.473 94.3072V112.898C303.473 113.106 303.391 113.306 303.245 113.454C303.099 113.601 302.901 113.683 302.693 113.683Z" fill="#CE9C5C"/>
<path d="M296.103 112.388C295.916 112.391 295.733 112.321 295.596 112.192C295.44 112.058 295.342 111.868 295.323 111.662C295.306 111.456 295.368 111.252 295.498 111.092L308.719 95.2495C308.852 95.0918 309.04 94.9932 309.244 94.9748C309.449 94.9564 309.652 95.0199 309.811 95.1513C309.963 95.2876 310.058 95.4772 310.077 95.6816C310.094 95.8859 310.034 96.0895 309.909 96.2508L296.688 112.113C296.615 112.197 296.525 112.265 296.424 112.313C296.323 112.36 296.215 112.385 296.103 112.388Z" fill="#CE9C5C"/>
<path d="M309.966 111.779C309.864 111.779 309.763 111.758 309.668 111.717C309.575 111.677 309.49 111.618 309.42 111.544L294.893 96.9183C294.82 96.8452 294.762 96.758 294.721 96.662C294.682 96.5659 294.661 96.4629 294.661 96.3588C294.661 96.2546 294.682 96.1515 294.721 96.0554C294.762 95.9594 294.82 95.8724 294.893 95.7992C295.039 95.6554 295.235 95.5748 295.439 95.5748C295.644 95.5748 295.839 95.6554 295.985 95.7992L310.512 110.444C310.585 110.516 310.642 110.601 310.683 110.696C310.723 110.79 310.743 110.891 310.743 110.994C310.743 111.097 310.723 111.198 310.683 111.293C310.642 111.387 310.585 111.472 310.512 111.544C310.441 111.618 310.356 111.677 310.263 111.717C310.169 111.758 310.067 111.779 309.966 111.779Z" fill="#CE9C5C"/>
<path d="M311.935 104.378H293.47C293.369 104.381 293.269 104.363 293.174 104.326C293.079 104.288 292.993 104.232 292.921 104.161C292.848 104.09 292.79 104.004 292.75 103.91C292.711 103.816 292.69 103.715 292.69 103.613C292.69 103.404 292.774 103.205 292.92 103.057C293.066 102.91 293.264 102.827 293.47 102.827H311.935C312.142 102.827 312.341 102.91 312.487 103.057C312.633 103.205 312.716 103.404 312.716 103.613C312.716 103.715 312.695 103.816 312.656 103.91C312.617 104.004 312.558 104.09 312.485 104.161C312.414 104.232 312.327 104.288 312.233 104.326C312.138 104.363 312.037 104.381 311.935 104.378Z" fill="#CE9C5C"/>
<path d="M378.502 236.027C378.294 236.027 378.096 235.944 377.95 235.797C377.804 235.65 377.721 235.45 377.721 235.242V216.631C377.721 216.423 377.804 216.223 377.95 216.076C378.096 215.928 378.294 215.846 378.502 215.846C378.708 215.846 378.906 215.928 379.052 216.076C379.198 216.223 379.281 216.423 379.281 216.631V235.242C379.281 235.45 379.198 235.65 379.052 235.797C378.906 235.944 378.708 236.027 378.502 236.027Z" fill="#CE9C5C"/>
<path d="M371.892 234.711C371.709 234.71 371.531 234.648 371.385 234.535C371.232 234.398 371.137 234.207 371.122 234.001C371.107 233.795 371.175 233.592 371.308 233.435L384.507 217.573C384.573 217.495 384.655 217.43 384.747 217.383C384.837 217.336 384.938 217.308 385.04 217.299C385.142 217.291 385.245 217.303 385.342 217.335C385.44 217.367 385.531 217.418 385.608 217.485C385.687 217.552 385.751 217.634 385.798 217.726C385.845 217.818 385.872 217.918 385.881 218.021C385.889 218.124 385.877 218.228 385.845 218.326C385.814 218.424 385.763 218.515 385.696 218.594L372.496 234.436C372.42 234.521 372.327 234.589 372.223 234.638C372.118 234.685 372.005 234.71 371.892 234.711Z" fill="#CE9C5C"/>
<path d="M385.756 234.103C385.653 234.103 385.553 234.082 385.458 234.041C385.364 234.001 385.28 233.942 385.21 233.867L370.683 219.242C370.57 219.091 370.516 218.904 370.529 218.715C370.542 218.527 370.623 218.349 370.756 218.216C370.888 218.082 371.065 218.001 371.252 217.988C371.439 217.974 371.624 218.029 371.775 218.143L386.321 232.768C386.464 232.915 386.544 233.112 386.544 233.318C386.544 233.523 386.464 233.72 386.321 233.867C386.246 233.944 386.159 234.003 386.062 234.044C385.964 234.083 385.861 234.104 385.756 234.103Z" fill="#CE9C5C"/>
<path d="M387.724 226.722H369.259C369.053 226.722 368.855 226.639 368.709 226.492C368.561 226.344 368.479 226.144 368.479 225.937C368.479 225.728 368.561 225.528 368.709 225.381C368.855 225.234 369.053 225.152 369.259 225.152H387.724C387.931 225.152 388.13 225.234 388.276 225.381C388.422 225.528 388.503 225.728 388.503 225.937C388.503 226.144 388.422 226.344 388.276 226.492C388.13 226.639 387.931 226.722 387.724 226.722Z" fill="#CE9C5C"/>
<path d="M345.434 271.56C344.596 281.337 339.837 290.268 337.439 299.692C333.228 315.908 337.03 333.026 333.13 349.281C332.838 350.518 334.729 351.048 335.021 349.811C338.843 334.027 335.412 317.497 338.96 301.695C341.184 292.075 345.94 283.162 347.207 273.307C347.286 272.718 347.345 272.149 347.383 271.56C347.403 270.323 345.453 270.284 345.434 271.56Z" fill="#452D34"/>
<path d="M377.429 253.107C373.398 253.724 369.276 253.138 365.574 251.418C359.588 248.572 355.318 242.996 349.722 239.424C342.138 234.555 332.837 233.71 323.888 233.004H323.829C323.458 232.984 323.342 231.099 323.4 230.354C323.458 229.607 323.517 228.744 323.127 228.076C322.737 227.408 322.308 227.173 321.82 226.82C319.559 225.249 317.278 223.66 314.665 222.814C313.3 222.363 311.876 222.147 310.551 221.637C307.197 220.322 304.819 217.338 302.167 214.923C299.514 212.508 296.513 210.172 293.276 210.958C292.962 211.036 292.633 211.036 292.321 210.958L291.717 210.801C290.214 210.526 288.576 211.645 288.284 213.176C288.167 213.843 288.265 214.57 287.934 215.178C287.602 215.787 287.25 215.865 286.842 216.16C285.593 217.004 284.443 218.084 283.819 219.458C283.194 220.832 283.371 222.285 283.995 223.502C284.087 223.673 284.212 223.824 284.363 223.945C284.513 224.067 284.687 224.157 284.872 224.209C285.171 224.299 285.431 224.49 285.606 224.752C285.78 225.014 285.859 225.328 285.827 225.641C285.672 227.232 286.939 228.959 288.148 230.216C292.417 234.711 297.078 239.403 303.122 240.66C304.585 240.954 306.105 241.053 307.451 241.68C308.796 242.31 309.635 243.212 310.784 243.86C311.889 244.44 313.123 244.72 314.367 244.675C315.611 244.631 316.823 244.262 317.883 243.605L318.642 243.095C318.854 242.967 319.084 242.874 319.325 242.82C324.531 241.995 329.99 243.762 334.084 247.119C338.18 250.475 341.065 255.52 342.469 260.762C343.503 264.611 343.853 268.753 345.979 272.13C349.468 277.704 356.819 279.551 363.332 279.039C367.368 278.705 371.403 277.626 374.855 275.486C380.217 272.13 383.669 266.063 384.292 259.781C384.39 258.86 384.278 257.928 383.965 257.057C383.651 256.185 383.143 255.398 382.482 254.755C381.819 254.111 381.02 253.627 380.144 253.342C379.268 253.055 378.34 252.976 377.429 253.107Z" fill="#D13535"/>
<path d="M289.299 214.609C291.079 218.08 293.525 221.16 296.498 223.671C299.469 226.182 302.907 228.073 306.613 229.234C307.86 229.548 308.347 227.723 307.139 227.349C306.282 227.074 305.442 226.78 304.623 226.428C302.471 225.49 300.442 224.289 298.579 222.854C297.234 221.873 294.641 219.262 293.685 217.927C292.658 216.577 291.752 215.138 290.975 213.627C290.312 212.528 288.694 213.47 289.299 214.609Z" fill="white"/>
<path d="M355.298 270.206C356.803 271.326 358.515 272.136 360.331 272.587C362.149 273.038 364.036 273.124 365.886 272.836C366.393 272.777 366.705 272.09 366.568 271.639C366.488 271.398 366.323 271.195 366.104 271.067C365.885 270.941 365.626 270.9 365.379 270.951C364.284 271.092 363.176 271.085 362.084 270.932C359.982 270.635 357.989 269.803 356.292 268.517C355.181 267.87 354.227 269.499 355.298 270.206Z" fill="white"/>
<path d="M361.031 263.472C362.44 264.84 364.156 265.846 366.032 266.406C367.908 266.967 369.891 267.064 371.814 266.691C373.041 266.338 372.535 264.512 371.287 264.806L370.799 264.886C370.682 264.905 370.878 264.886 370.878 264.886C369.064 265.161 366.88 264.748 365.555 264.158C364.381 263.683 363.313 262.976 362.416 262.078C361.48 261.195 360.154 262.529 361.031 263.472Z" fill="white"/>
<path d="M367.212 257.896C368.664 258.712 370.268 259.214 371.922 259.373C373.578 259.532 375.247 259.344 376.825 258.819C377.78 258.387 380.491 257.661 379.749 256.227C379.616 256.004 379.4 255.841 379.149 255.775C378.897 255.709 378.63 255.745 378.405 255.875C377.098 256.738 375.947 257.131 374.309 257.386C373.94 257.445 372.4 257.524 371.581 257.367C371.735 257.445 371.697 257.386 371.619 257.367C371.191 257.312 370.767 257.227 370.351 257.111L369.201 256.718C369.026 256.641 369.182 256.718 369.221 256.718C368.48 256.404 367.446 255.56 366.862 256.561C366.796 256.671 366.752 256.795 366.735 256.921C366.716 257.049 366.723 257.179 366.757 257.303C366.789 257.428 366.846 257.545 366.925 257.646C367.004 257.749 367.101 257.833 367.212 257.896Z" fill="white"/>
<path d="M331.218 187.243C330.945 184.867 330.341 182.551 329.834 180.215C329.717 179.645 329.601 179.056 329.503 178.467L329.444 178.134C329.449 178.08 329.443 178.027 329.425 177.977C329.425 177.937 329.418 177.897 329.405 177.859C329.404 177.812 329.396 177.766 329.386 177.721C329.389 177.662 329.382 177.602 329.367 177.545C329.363 177.406 329.35 177.269 329.328 177.132C329.224 176.082 329.217 175.024 329.307 173.972C329.323 173.914 329.331 173.855 329.328 173.795C329.344 173.758 329.35 173.717 329.347 173.677C329.364 173.538 329.389 173.4 329.425 173.265C329.463 172.971 329.542 172.696 329.601 172.401C329.659 172.107 329.757 171.871 329.853 171.596C329.951 171.322 329.951 171.38 329.991 171.263L330.03 171.164L330.147 170.909C330.223 170.776 330.268 170.628 330.278 170.474C330.288 170.321 330.264 170.168 330.205 170.026C330.155 169.887 330.072 169.762 329.963 169.663C329.855 169.564 329.723 169.493 329.58 169.457C325.21 168.824 320.769 168.891 316.42 169.653C315.465 169.829 314.529 170.026 313.612 170.261C313.69 169.358 313.787 168.475 313.865 167.572C313.944 166.669 314.06 165.727 314.1 164.804C314.158 163.037 313.925 161.211 312.774 159.817C312.66 159.677 312.536 159.546 312.403 159.425C312.091 159.15 311.78 159.13 311.409 159.052L310.025 158.757C309.089 158.541 308.172 158.286 307.236 158.011C306.301 157.737 305.423 157.403 304.527 157.03L303.902 156.775H303.843L303.727 156.735L303.337 156.559L302.03 155.95C300.096 155.001 298.244 153.891 296.492 152.632C296.329 152.53 296.136 152.482 295.945 152.497C295.752 152.511 295.568 152.586 295.421 152.711C295.267 152.826 295.152 152.985 295.089 153.167C295.026 153.349 295.019 153.546 295.07 153.732C295.129 154.007 295.187 154.262 295.225 154.537C295.232 154.545 295.238 154.554 295.241 154.564C295.244 154.574 295.245 154.585 295.245 154.595V154.713C295.267 154.85 295.28 154.987 295.283 155.126C295.283 155.381 295.283 155.656 295.264 155.93C295.245 156.205 295.245 156.068 295.245 156.127V156.087C295.206 156.244 295.187 156.402 295.148 156.539L295.031 156.932L294.972 157.148C294.939 157.203 294.913 157.262 294.894 157.324H294.875C294.85 157.4 294.818 157.472 294.777 157.54L294.543 157.972C294.445 158.109 294.368 158.247 294.27 158.365C294.231 158.435 294.185 158.5 294.133 158.561L294.074 158.64C293.842 158.92 293.587 159.183 293.315 159.425L292.788 159.876L292.749 159.916L292.652 159.974L292.34 160.21C291.892 160.524 291.423 160.799 290.956 161.074C290.787 161.169 290.651 161.314 290.566 161.49C290.483 161.666 290.455 161.863 290.487 162.055C290.527 162.389 290.8 162.801 291.19 162.86C292.165 163.017 293.178 163.057 294.172 163.135L295.342 163.214L293.374 163.999C292.496 164.333 291.579 164.627 290.741 165.059C289.903 165.491 289.299 166.198 289.318 167.14C289.322 167.399 289.427 167.646 289.608 167.829C289.791 168.012 290.036 168.117 290.293 168.122L290.741 168.161H290.898L291.15 168.2L292.261 168.455C292.963 168.652 293.647 168.887 294.348 169.142C295.733 169.672 297.117 170.222 298.541 170.634C301.504 171.459 304.565 171.832 307.607 172.048C308.933 172.146 310.278 172.205 311.624 172.244C311.599 174.338 311.922 176.422 312.579 178.408C313.241 180.372 314.236 182.237 314.782 184.239C314.861 184.514 314.919 184.789 314.977 185.064L315.036 185.476H315.055C315.052 185.542 315.058 185.608 315.074 185.672C315.094 185.947 315.113 186.222 315.113 186.497C315.113 186.772 315.094 186.811 315.094 186.948C315.094 187.086 315.074 187.066 315.074 187.125C315.074 187.184 315.036 187.478 315.074 187.243C314.996 187.675 315.113 188.126 315.523 188.342C318.474 190.03 321.353 191.836 324.161 193.76C324.308 193.847 324.476 193.892 324.648 193.892C324.819 193.892 324.987 193.847 325.136 193.76C325.281 193.672 325.4 193.548 325.486 193.401C325.571 193.253 325.618 193.087 325.622 192.916C325.857 190.678 326.072 188.46 326.305 186.222C327.418 186.893 328.571 187.497 329.757 188.028C329.906 188.11 330.074 188.154 330.243 188.154C330.414 188.154 330.582 188.11 330.731 188.028C330.872 187.95 330.992 187.837 331.077 187.7C331.163 187.562 331.211 187.405 331.218 187.243ZM294.172 158.541C294.168 158.541 294.162 158.543 294.159 158.547C294.155 158.551 294.153 158.556 294.153 158.561C294.193 158.502 294.251 158.424 294.172 158.541ZM305.871 169.987L304.779 169.869L304.233 169.79H303.785C302.312 169.603 300.852 169.314 299.418 168.926C297.974 168.534 296.59 168.004 295.187 167.474C294.257 167.114 293.307 166.812 292.34 166.571L292.476 166.512L293.08 166.296L294.348 165.785L299.32 163.822C299.503 163.773 299.668 163.671 299.793 163.527C299.917 163.384 299.998 163.207 300.023 163.017C300.055 162.825 300.027 162.628 299.944 162.452C299.859 162.276 299.723 162.131 299.554 162.036C298.618 161.584 297.488 161.545 296.454 161.427L294.289 161.251C294.977 160.677 295.58 160.009 296.083 159.268C296.812 158.153 297.212 156.853 297.234 155.518C300.475 157.604 304.003 159.198 307.704 160.249C308.86 160.578 310.031 160.846 311.213 161.054L311.311 161.172L311.351 161.211C311.37 161.231 311.409 161.27 311.409 161.29L311.486 161.388C311.565 161.515 311.637 161.646 311.701 161.781L311.78 161.918C311.78 161.938 311.78 161.938 311.799 161.957V162.016C311.803 162.016 311.809 162.018 311.812 162.022C311.816 162.026 311.818 162.031 311.818 162.036C311.935 162.325 312.014 162.629 312.053 162.939C312.075 163.002 312.088 163.068 312.091 163.135C312.091 163.155 312.091 163.175 312.111 163.175C312.114 163.345 312.127 163.516 312.149 163.685C312.228 165.098 312.014 166.531 311.876 167.945L311.643 170.36L308.153 170.203L305.871 169.987ZM314.665 178.526C314.284 177.495 313.996 176.43 313.806 175.346C313.768 175.169 313.748 175.012 313.71 174.836V174.718C313.694 174.667 313.688 174.614 313.69 174.561C313.652 174.227 313.612 173.913 313.593 173.599C313.573 173.285 313.554 172.735 313.573 172.303C314.509 172.048 315.465 171.832 316.42 171.636L317.979 171.38L318.35 171.322H318.584L319.365 171.223C321.461 170.988 323.574 170.929 325.681 171.047L327.436 171.184L327.944 171.243C326.618 175.189 327.671 179.449 328.567 183.434L328.976 185.378C328.982 185.444 328.995 185.51 329.015 185.574C327.977 185.033 326.968 184.436 325.993 183.787C325.84 183.705 325.669 183.662 325.497 183.662C325.323 183.662 325.152 183.705 324.999 183.787C324.856 183.877 324.739 184.001 324.657 184.149C324.575 184.297 324.532 184.463 324.532 184.632C324.297 186.85 324.082 189.049 323.848 191.267C321.626 189.775 319.344 188.362 317.024 187.027C317.078 186.157 317.007 185.284 316.81 184.435C316.577 183.415 316.258 182.417 315.855 181.451C315.465 180.47 315.036 179.508 314.665 178.526Z" fill="#D13535"/>
<path d="M295.245 156.068C295.245 155.97 295.264 155.832 295.245 156.068V156.068Z" fill="#D13535"/>
<path d="M311.799 161.957C311.799 161.918 311.78 161.899 311.78 161.859C311.777 161.893 311.783 161.927 311.799 161.957Z" fill="#D13535"/>
<path d="M323.419 201.692C326.247 203.026 331.94 203.871 332.642 199.709C332.662 195.92 328.528 197.314 330.595 199.12H330.614L330.516 199.041C330.516 199.061 330.595 199.12 330.634 199.159C330.672 199.198 330.537 198.982 330.614 199.12C330.693 199.257 330.653 199.375 330.634 199.14C330.651 199.227 330.677 199.313 330.712 199.395C330.731 199.473 330.693 199.277 330.693 199.277C330.693 199.277 330.693 199.885 330.712 199.552C330.712 199.591 330.595 200.043 330.634 199.885C330.672 199.728 330.595 199.925 330.576 199.984C330.556 200.043 330.497 200.062 330.516 200.082C329.757 201.024 326.579 200.965 324.59 200.062C323.654 199.375 322.152 200.671 323.419 201.692Z" fill="#452D34"/>
<path d="M326.287 205.441C325.05 205.518 323.814 205.323 322.66 204.872C322.089 204.634 321.552 204.324 321.06 203.949C319.989 203.282 318.994 204.97 320.086 205.637C321.178 206.678 326.929 208.739 327.261 206.423C327.242 205.912 326.832 205.402 326.287 205.441Z" fill="#452D34"/>
<path d="M308.758 153.673C309.654 152.789 308.27 151.376 307.372 152.299C294.289 166.374 276.995 196.371 295.362 207.404C295.07 208.288 294.562 209.387 295.675 209.76C296.415 209.956 296.922 209.23 297.176 208.366C299.885 209.662 303.239 210.604 307.314 211.134C308.562 211.154 308.581 209.191 307.314 209.171C305.19 208.935 301.309 207.974 299.281 207.051C277.677 197.353 295.421 171.125 304.858 158.345C306.086 156.755 307.372 155.165 308.758 153.673Z" fill="#452D34"/>
<path d="M326.014 211.409C325.233 212.94 317.687 223.698 319.755 224.209C320.203 224.445 320.847 224.346 321.099 223.855C322.64 220.773 324.336 217.77 326.15 214.825L327.69 212.391C328.353 211.311 326.656 210.31 326.014 211.409Z" fill="#452D34"/>
<path d="M307.178 173.069C303.045 172.892 295.323 170.87 296.357 177.721C296.542 178.337 296.869 178.901 297.309 179.368C297.748 179.834 298.29 180.192 298.892 180.411C300.49 180.666 300.315 178.683 299.457 178.546C299.258 178.466 299.074 178.353 298.91 178.212C299.125 178.408 298.756 178.075 298.697 177.996C298.639 177.918 298.443 177.761 298.618 177.937C298.17 177.25 298.151 177.132 298.151 176.386C298.17 176.269 298.151 176.288 298.151 176.445C298.151 176.602 298.404 175.621 298.268 175.935C298.521 175.385 298.579 175.366 298.989 174.973C298.989 174.993 298.794 175.11 298.97 174.993L299.146 174.894L299.379 174.757C299.535 174.659 299.36 174.777 299.34 174.757C299.566 174.67 299.801 174.61 300.042 174.58C302.42 174.6 304.8 174.894 307.178 175.032C308.446 175.052 308.446 173.069 307.178 173.069Z" fill="#452D34"/>
<path d="M306.086 188.951L305.755 189.088H305.832C305.384 189.264 304.921 189.402 304.448 189.5L304 189.579C303.883 189.598 304.077 189.579 304.077 189.579C302.723 189.747 301.347 189.565 300.081 189.049C299.5 188.793 298.95 188.471 298.443 188.087C297.195 186.477 295.538 187.576 296.474 188.931C299.183 191.66 303.629 192.386 307.062 190.659C308.154 190.03 307.178 188.322 306.086 188.97V188.951Z" fill="#452D34"/>
<path d="M316.576 177.898C314.997 179.783 317.98 182.237 319.501 180.293C321.022 178.35 318.077 175.974 316.576 177.898Z" fill="#452D34"/>
<path d="M304.175 166.119C302.595 168.004 305.58 170.438 307.081 168.514C308.581 166.59 305.677 164.176 304.175 166.119Z" fill="#452D34"/>
<path d="M324.473 180.489C324.584 180.372 324.663 180.225 324.697 180.066C324.732 179.906 324.722 179.741 324.667 179.586C324.024 177.623 320.866 170.536 318.214 172.637C315.561 174.738 319.715 177.329 321.12 178.86C321.762 179.253 322.445 180.274 323.186 180.647C323.292 180.75 323.426 180.82 323.572 180.848C323.717 180.876 323.867 180.861 324.005 180.804C324.13 180.753 324.247 180.687 324.355 180.607L324.434 180.548C324.434 180.529 324.453 180.509 324.473 180.489Z" fill="#452D34"/>
<path d="M305.228 160.465C305.041 160.375 304.83 160.344 304.626 160.375C304.42 160.407 304.23 160.5 304.077 160.642C303.988 160.736 303.921 160.851 303.883 160.976C303.864 161.015 303.843 161.035 303.843 161.074C303.795 161.256 303.798 161.449 303.854 161.63C303.909 161.81 304.013 161.972 304.156 162.095C305.033 163.607 307.451 165.648 308.035 166.394C308.933 167.317 310.395 168.455 311.584 167.356C312.189 166.708 312.676 165.511 311.993 164.745C311.311 163.979 307.412 160.819 305.228 160.465Z" fill="#452D34"/>
<path d="M304.215 156.068C309.382 157.422 313.067 146.213 315.368 150.375C315.612 150.81 315.707 151.313 315.641 151.808C312.911 172.48 343.933 163.371 335.45 175.523L335.294 175.758C332.507 180.921 334.71 182.531 336.29 184.141C336.532 184.384 336.719 184.678 336.836 185.002C336.953 185.326 336.998 185.672 336.966 186.016C336.934 186.359 336.827 186.692 336.653 186.989C336.478 187.285 336.242 187.54 335.957 187.733C327.067 193.878 338.103 195.291 336.269 200.808C333.716 207.659 322.231 202.084 326.325 211.664C326.47 212.015 326.697 212.326 326.988 212.567C334.612 218.83 346.778 214.982 352.297 207.385C352.472 207.139 352.697 206.932 352.954 206.777C353.213 206.621 353.5 206.521 353.798 206.481C363.079 205.029 370.762 192.052 368.734 184.475C365.691 173.206 379.126 147.96 348.183 141.089C344.985 140.363 338.414 131.097 330.089 130.724C327.452 130.44 324.786 130.718 322.263 131.54C319.741 132.362 317.418 133.709 315.445 135.494C315.216 135.7 314.947 135.857 314.655 135.955C314.365 136.053 314.055 136.089 313.749 136.063C311.039 135.887 308.017 137.418 306.203 139.322L305.989 139.577C305.399 140.443 305.168 141.507 305.346 142.542C305.425 142.999 305.368 143.469 305.186 143.895C305.002 144.321 304.698 144.683 304.313 144.937C300.511 147.646 298.346 155.989 303.746 156.009C303.905 156.009 304.062 156.029 304.215 156.068Z" fill="#452D34"/>
<path d="M306.71 149.707C306.71 149.648 306.691 149.59 306.691 149.531L306.73 149.805C306.691 149.585 306.691 149.359 306.73 149.138L306.691 149.393C306.729 149.144 306.795 148.901 306.887 148.667L306.789 148.902C306.889 148.674 307.014 148.457 307.16 148.254L307.003 148.451L307.471 147.98L307.276 148.137C307.453 148.007 307.643 147.895 307.841 147.803L307.627 147.901C309.732 146.763 307.081 144.407 305.228 147.666C303.377 150.924 306.691 152.122 306.71 149.707Z" fill="white"/>
<path d="M324.121 136.79C324.602 136.463 325.111 136.181 325.643 135.946L325.526 135.985C326.987 135.317 329.036 135.219 330.126 135.376C330.985 135.497 331.823 135.727 332.623 136.063C332.721 136.103 332.7 136.083 332.564 136.024C333.294 136.341 333.982 136.75 334.611 137.241L334.534 137.143C335.001 137.595 335.566 138.066 335.957 138.616C335.879 138.498 335.86 138.498 335.937 138.576C336.229 139.047 336.814 139.361 337.342 139.028C337.867 138.694 338.004 138.125 337.692 137.693C335.138 134.179 330.518 132.648 326.345 133.668C325.174 134.081 322.133 134.728 322.796 136.436C323.069 136.868 323.673 137.104 324.121 136.79Z" fill="white"/>
<path d="M356.47 151.494C356.997 151.6 357.512 151.758 358.01 151.965C358.068 151.985 358.166 152.004 357.97 151.945C358.66 152.233 359.308 152.609 359.901 153.064C359.959 153.123 359.92 153.104 359.823 153.025C360.444 153.521 361.012 154.08 361.52 154.694C361.987 155.243 362.65 156.539 362.748 156.794C363.075 157.559 363.298 158.365 363.41 159.189C363.352 158.914 363.41 159.17 363.41 159.229C363.488 159.887 363.488 160.553 363.41 161.211C363.391 161.329 363.429 161.251 363.41 161.152C363.273 161.722 363.371 162.468 364.054 162.625C364.736 162.782 365.146 162.487 365.243 161.938C365.984 157.658 363.859 153.241 360.251 150.944C359.14 150.394 356.566 148.628 355.786 150.296C355.688 150.787 355.942 151.396 356.47 151.494Z" fill="white"/>
<path d="M318.721 154.87C315.659 158.541 320.203 162.114 323.849 162.291C325.057 162.625 325.584 160.721 324.355 160.387C323.127 160.053 321.295 159.68 320.691 159.15C320.489 158.994 320.307 158.816 320.144 158.62C320.397 158.915 319.813 158.169 319.871 158.07C319.988 158.404 319.696 157.56 319.696 157.422C319.734 157.835 319.696 157.089 319.715 156.991C319.734 156.892 319.657 157.187 319.715 157.01C319.774 156.834 319.911 156.362 319.774 156.716C319.793 156.657 320.124 156.127 319.93 156.441C321.06 155.597 319.813 153.908 318.721 154.87Z" fill="white"/>
<path d="M343.464 145.388C343.835 145.859 344.049 146.547 344.654 146.743C344.798 146.778 344.95 146.78 345.096 146.749C345.242 146.717 345.379 146.653 345.497 146.56C345.616 146.468 345.712 146.35 345.778 146.215C345.845 146.08 345.88 145.932 345.881 145.781C345.746 145.094 345.219 144.25 344.575 143.955C343.932 143.661 343.015 144.682 343.464 145.388Z" fill="white"/>
<path d="M338.705 174.62C336.035 176.386 335.528 180.607 337.809 182.924C339.369 183.964 339.914 181.864 338.978 181.314C338.861 181.098 338.667 180.784 338.55 180.548C338.609 180.686 338.609 180.705 338.569 180.607C338.453 180.304 338.374 179.988 338.336 179.665C338.267 178.971 338.368 178.27 338.628 177.623C338.472 177.977 338.726 177.427 338.765 177.368C338.803 177.309 339.232 176.642 339.018 176.975C339.172 176.767 339.349 176.576 339.545 176.406C339.641 176.347 339.622 176.347 339.505 176.445C340.791 175.876 339.993 173.952 338.705 174.62Z" fill="white"/>
<path d="M363.275 184.318C363.976 184.985 364.697 186.811 364.736 187.596C364.811 188.156 364.818 188.723 364.755 189.284C364.736 189.481 364.755 189.245 364.755 189.245C364.676 189.782 364.539 190.309 364.346 190.816C364.288 190.953 364.328 190.776 364.346 190.776C364.152 191.233 363.91 191.667 363.625 192.072L363.548 192.19C363.202 192.625 362.811 193.021 362.377 193.368C362.279 193.446 362.397 193.407 362.416 193.348C361.986 193.678 361.521 193.961 361.032 194.192C359.667 194.428 359.959 196.469 361.343 196.155C363.265 195.442 364.86 194.045 365.828 192.229C367.408 189.265 366.881 185.417 364.638 182.924C363.761 182.021 362.377 183.395 363.275 184.318Z" fill="white"/>
<path d="M333.891 212.921C337.809 214.295 343.172 214.02 345.354 209.937C345.979 208.857 344.302 207.856 343.678 208.955C343.543 209.199 343.394 209.435 343.23 209.662C342.937 210.113 341.728 211.016 341.221 211.173C339.916 211.782 338.18 211.762 337.011 211.625C336.13 211.499 335.261 211.295 334.416 211.016C333.207 210.663 332.682 212.567 333.891 212.921Z" fill="white"/>
<path d="M352.999 201.142C351.478 200.121 348.826 202.084 349.977 203.733C350.619 204.401 351.73 203.812 351.653 202.909L351.613 203.184C351.622 203.096 351.641 203.01 351.672 202.928L351.575 203.164C351.615 203.066 351.667 202.974 351.73 202.889L351.575 203.085C351.644 202.992 351.73 202.912 351.828 202.85L351.634 202.987C351.733 202.91 351.845 202.85 351.965 202.811L351.73 202.909C351.834 202.856 351.946 202.822 352.063 202.811L351.809 202.85C351.911 202.83 352.018 202.83 352.121 202.85L351.848 202.811L352.121 202.889L351.886 202.791C352.978 203.576 354.168 201.849 352.999 201.142Z" fill="white"/>
<path d="M351.186 171.047C351.394 171.076 351.597 171.135 351.79 171.223L351.555 171.106C351.774 171.211 351.983 171.336 352.18 171.479L351.984 171.322C352.168 171.484 352.338 171.661 352.491 171.852L352.335 171.655C352.475 171.837 352.593 172.035 352.687 172.244L352.589 172.009C352.676 172.222 352.736 172.447 352.764 172.676L352.726 172.421C352.608 173.775 354.694 173.913 354.694 172.558C354.617 170.792 352.803 168.711 350.951 169.26C350.229 169.653 350.386 170.87 351.186 171.047Z" fill="white"/>
<path d="M324.104 231.983L324.063 232.043C324.123 231.983 324.123 231.983 324.104 231.983Z" fill="#452D34"/>
<path d="M375.791 250.162C356.001 250.417 356.489 229.843 324.239 229.901C326.131 222.619 315.601 220.047 310.668 218.477C304.565 215.885 300.628 206.325 292.691 207.875C289.748 206.698 286.92 209.544 287.213 212.057C287.182 212.26 287.109 212.454 286.999 212.626C284.95 214.138 282.611 215.905 282.494 218.712C273.739 211.488 262.158 208.994 252.994 202.359C251.063 200.965 247.827 203.674 247.105 204.636C238.195 199.179 229.187 191.444 225.112 181.589C224.429 180.529 223.961 176.877 222.44 177.25C221.972 177.408 221.544 177.957 221.758 178.468C226.243 192.013 237.512 201.829 249.757 208.366C248.158 210.82 246.247 212.94 244.005 214.256C242.913 214.884 243.888 216.612 244.98 215.964C249.055 213.51 252.019 209.368 253.345 204.833C262.625 211.468 274.772 214.02 283.137 221.716C283.497 222.394 284.095 222.912 284.814 223.169C284.6 226.938 288.929 230.176 291.58 232.885C294.231 235.595 297.585 237.853 301.27 239.03C303.045 239.62 304.936 239.639 306.691 240.268C310.941 242.956 314.217 245.353 319.092 241.701C329.036 239.855 337.966 247.63 340.871 256.738C342.665 261.881 342.645 267.849 346.369 272.149C352.335 278.726 362.572 279.02 370.508 276.428C381.758 274.72 394.452 248.729 375.791 250.162ZM284.775 223.089L284.814 223.129C284.795 223.148 284.795 223.11 284.775 223.089ZM284.814 223.188H284.833C284.912 223.326 284.854 223.228 284.814 223.188ZM313.3 241.504C312.313 241.375 311.375 240.997 310.572 240.405C306.184 236.694 300.628 238.344 295.461 233.651C292.282 230.747 287.953 227.624 286.784 223.993C286.999 222.128 285.848 221.225 284.971 221.029C283.586 218.967 284.99 216.454 286.823 215.198C290.586 213.372 287.797 210.428 290.976 209.583C290.976 209.603 290.976 209.603 290.957 209.603C299.633 209.034 300.861 213.745 307.1 218.634C309.459 220.656 312.931 220.989 315.562 222.03C317.513 222.835 320.105 224.64 321.685 225.779C323.81 227.016 321.022 234.516 320.145 236.262C320.105 236.262 318.507 242.388 313.3 241.504ZM383.24 258.211C381.642 274.858 358.458 282.063 347.441 270.382C344.633 266.712 344.498 261.961 343.21 257.68C340.579 247.747 331.667 238.874 320.983 239.502C322.29 237.087 322.582 234.398 324.064 232.042L324.22 231.865C359.667 232.73 352.512 253.518 380.335 252.322C382.615 253.401 383.688 255.64 383.24 258.211Z" fill="#452D34"/>
<path d="M237.493 231.238C237.824 232.434 239.716 231.924 239.365 230.707C237.668 226.428 238.916 220.95 241.022 216.867C241.295 216.533 241.704 216.062 242.153 215.865L242.387 215.807C242.737 215.767 243.09 215.767 243.44 215.807C243.108 215.807 243.44 215.807 243.537 215.826L244.005 215.964L244.064 216.003L244.025 215.964L244.493 216.238C244.473 216.238 244.766 216.454 244.863 216.572C244.874 216.582 244.881 216.596 244.883 216.611H244.902C244.913 216.621 244.92 216.636 244.922 216.651C245.044 216.843 245.149 217.047 245.234 217.259C245.359 217.568 245.444 217.891 245.487 218.221C245.567 218.789 245.554 219.366 245.448 219.929C244.983 220.085 244.538 220.296 244.122 220.557C241.841 222.54 242.465 226.858 243.596 229.745C244.181 231.826 246.364 231.473 245.779 229.706C244.376 227.429 244.083 223.305 245.312 222.088L245.682 221.892C246.345 221.657 246.384 221.696 247.203 221.735H247.3C247.513 221.776 247.722 221.835 247.924 221.912C250.459 223.639 251.551 231.179 252.682 234.594C252.75 234.843 252.913 235.055 253.136 235.183C253.359 235.312 253.623 235.348 253.871 235.282C255.528 234.673 253.579 231.452 253.501 230.138C252.604 226.604 251.18 220.283 247.476 219.694C248.061 215.61 243.986 211.763 240.203 214.845C237.005 218.516 235.66 226.703 237.493 231.238ZM247.944 221.932H247.963C248.1 221.991 248.022 221.971 247.944 221.932ZM245.487 218.221C245.494 218.229 245.499 218.238 245.503 218.249C245.506 218.259 245.507 218.27 245.506 218.28C245.506 218.359 245.506 218.437 245.487 218.221Z" fill="#452D34"/>
<path d="M235.094 232.335C235.601 232.022 235.659 231.512 235.445 231.001C234.704 229.412 234.372 226.407 234.646 224.896C234.834 223.699 235.154 222.526 235.601 221.401C236.225 219.772 237.785 217.573 238.35 217.122C239.696 216.062 237.941 213.725 235.874 216.984C233.788 219.792 232.54 223.286 232.618 226.799C232.735 228.096 233.086 233.298 235.094 232.335Z" fill="#452D34"/>
<path d="M336.054 284.831C335.118 284.516 334.689 285.852 334.612 286.126C334.035 287.443 333.309 288.688 332.448 289.837C329.503 293.724 324.395 297.414 320.574 300.477C314.177 305.346 307.139 311.255 299.418 312.158C297.018 312.481 294.589 312.502 292.184 312.217C297.488 306.681 295.46 282.535 291.696 275.937C290.761 274.111 289.357 272.306 287.349 271.658C294.679 267.398 300.646 261.056 307.334 255.854C308.875 254.677 311.214 252.871 313.32 251.967C313.947 251.704 314.601 251.513 315.27 251.398C315.27 251.379 315.289 251.379 315.309 251.379H315.328C315.865 251.31 316.41 251.31 316.947 251.379C317.921 251.556 318.409 251.713 319.15 252.263C319.325 252.439 320.163 253.401 320.924 252.635C321.104 252.448 321.204 252.198 321.204 251.938C321.204 251.678 321.104 251.428 320.924 251.241C318.702 248.945 315.075 248.964 312.326 250.259C304.896 254.147 298.793 261.018 292.38 265.847C289.454 268.124 286.354 270.225 282.961 271.736L282.844 271.815C282.38 272.084 282.006 272.487 281.773 272.974C281.643 273.265 281.63 273.594 281.733 273.895C281.417 273.809 281.119 273.663 280.856 273.465C273.864 265.937 267.469 257.869 261.728 249.337C261.884 248.626 262.099 247.931 262.372 247.256C262.765 246.383 263.248 245.554 263.815 244.782C263.815 244.778 263.816 244.772 263.818 244.767C263.819 244.763 263.822 244.758 263.826 244.754C263.829 244.751 263.834 244.748 263.838 244.747C263.844 244.744 263.848 244.744 263.854 244.744V244.704C264.682 243.69 265.616 242.768 266.641 241.955C268.534 241.013 267.792 239.187 266.33 239.777C263.951 241.485 261.826 243.585 260.656 246.333C260.578 246.589 260.441 246.883 260.305 247.216C259.057 245.214 257.614 242.603 257.029 241.151C256.766 240.547 256.551 239.924 256.386 239.286C256.054 238.088 254.163 238.579 254.495 239.816C256.717 246.49 261.241 252.106 265.257 257.739C269.82 263.669 274.382 269.635 279.608 274.976C279.754 275.096 279.91 275.201 280.076 275.29C280.117 275.37 280.17 275.442 280.232 275.506C281.363 276.724 282.513 277.88 283.566 279.158C283.656 279.249 283.764 279.323 283.884 279.373C284.002 279.423 284.129 279.448 284.258 279.448C284.388 279.448 284.515 279.423 284.633 279.373C284.753 279.323 284.859 279.249 284.95 279.158C285.633 278.352 284.599 277.154 283.488 276.055C284.585 275.997 285.674 275.846 286.744 275.603C287.309 275.427 288.207 275.349 288.714 274.957C291.248 277.763 292.203 283.613 292.77 287.206C293.568 293.292 293.743 302.538 292.321 307.78H292.282C289.42 308.358 286.484 308.477 283.586 308.133C280.524 307.799 276.625 306.798 274.168 305.738C270.931 304.345 267.909 302.421 265.121 300.261C247.144 285.458 233.144 260.135 229.323 237.166C228.913 234.005 228.738 230.785 229.147 227.605C229.186 226.898 229.888 224.052 230.278 223.246C230.665 222.331 231.162 221.467 231.76 220.675C232.228 220.047 233.417 218.889 234.392 218.398C235.367 217.907 234.49 216.081 233.398 216.71C229.518 219.32 227.685 223.305 227.081 227.84C225.677 226.879 224.175 225.798 223.103 224.955C216.318 219.674 210.488 213.294 205.282 206.481C203.371 204.028 200.953 200.651 198.984 197.804C198.341 196.705 196.644 197.706 197.307 198.786C205.457 210.663 214.738 222.147 226.886 230.079C226.515 238.54 229.771 248.395 232.014 254.932C236.089 265.003 241.158 275.368 247.69 284.537C247.105 293.92 246.325 303.285 245.253 312.628C244.473 321.541 244.18 330.552 245.409 339.446C245.721 340.644 247.612 340.153 247.3 338.915C244.98 321.738 248.626 304.266 249.503 286.99C255.899 295.412 263.619 302.616 273.017 307.348C276.917 308.958 281.11 310.018 285.341 310.253C285.185 310.489 285.164 310.823 285.36 311.216C285.589 311.624 285.903 311.979 286.28 312.256C286.656 312.534 287.087 312.728 287.544 312.825C287.601 312.941 287.684 313.044 287.785 313.125C287.886 313.206 288.003 313.265 288.128 313.296C299.788 317.046 310.376 311.216 319.209 303.952C325.253 298.985 332.565 294.705 336.133 287.441C336.523 286.637 337.321 285.242 336.054 284.831Z" fill="#452D34"/>
<path d="M246.207 256.758C250.45 256.758 253.89 253.295 253.89 249.023C253.89 244.751 250.45 241.288 246.207 241.288C241.965 241.288 238.525 244.751 238.525 249.023C238.525 253.295 241.965 256.758 246.207 256.758Z" fill="#EFDCC4"/>
<path d="M259.155 247.688C259.018 247.216 258.472 246.824 257.965 247C257.458 247.178 256.113 247.668 254.923 248.179C254.76 246.39 254.052 244.697 252.896 243.33C254.631 242.761 256.932 242.073 256.561 240.954C256.425 240.503 255.879 240.052 255.372 240.268L251.336 241.857C250.228 241.054 248.949 240.522 247.6 240.304C246.252 240.088 244.871 240.191 243.57 240.607C242.268 241.023 241.081 241.739 240.104 242.701C239.126 243.66 238.386 244.838 237.941 246.137C235.776 246.373 232.286 248.513 231.331 249.199C230.376 249.887 231.233 251.556 232.325 250.908C233.866 249.808 235.328 248.925 236.966 248.454C237.133 248.376 237.31 248.323 237.492 248.297C237.473 248.532 237.453 248.767 237.453 249.023C237.452 250.797 237.99 252.53 238.994 253.99L233.846 256.542C232.754 257.17 233.729 258.878 234.841 258.25C236.654 257.308 238.487 256.425 240.3 255.52C241.46 256.592 242.886 257.327 244.427 257.65C245.968 257.974 247.567 257.874 249.056 257.359C250.544 256.845 251.868 255.936 252.887 254.728C253.906 253.52 254.582 252.057 254.845 250.496C255.469 250.162 256.054 249.73 256.308 249.73C257.224 249.141 259.408 249.199 259.155 247.688ZM246.208 255.678C244.895 255.682 243.611 255.293 242.518 254.562C241.424 253.83 240.572 252.788 240.067 251.566C239.563 250.346 239.43 249.002 239.686 247.706C239.941 246.409 240.573 245.219 241.501 244.284C242.429 243.349 243.612 242.712 244.9 242.457C246.188 242.199 247.522 242.333 248.734 242.84C249.946 243.349 250.982 244.207 251.709 245.307C252.435 246.408 252.821 247.702 252.818 249.023C252.824 249.273 252.811 249.521 252.779 249.768C252.755 249.858 252.742 249.951 252.74 250.043C252.494 251.612 251.702 253.039 250.504 254.073C249.307 255.104 247.784 255.675 246.208 255.678Z" fill="#452D34"/>
<path d="M248.567 246.628C247.713 246.628 246.876 246.865 246.149 247.315C245.603 245.862 244.804 244.115 243.575 244.645C243.166 244.92 242.932 245.529 243.224 245.98C243.708 246.706 244.126 247.475 244.472 248.278C244.862 250.064 245.954 250.377 246.851 249.199C247.031 249.029 247.243 248.895 247.475 248.807H247.494C247.712 248.711 247.942 248.647 248.177 248.611C248.313 248.591 248.255 248.611 248.196 248.611C249.659 248.826 250.127 246.805 248.567 246.628Z" fill="#D13535"/>
<path d="M206.861 185.24C207.701 185.194 208.543 185.227 209.377 185.338C210.234 185.417 212.399 186.065 213.588 187.105C213.296 186.889 213.471 187.007 213.549 187.066C214.163 187.563 214.719 188.13 215.206 188.754C215.245 188.813 215.362 188.99 215.148 188.695C219.593 194.977 219.262 203.615 221.758 211.095C222.986 215.375 226.086 219.654 230.883 219.831C231.682 219.91 233.008 220.008 233.008 218.869C232.93 217.259 230.571 218.3 228.738 217.357C220.217 213.176 223.278 195.606 216.61 187.419C214.368 184.396 210.527 183.042 206.861 183.277C205.613 183.297 205.594 185.24 206.861 185.24Z" fill="#D13535"/>
<path d="M252.233 222.854C252.583 219.831 250.556 216.788 247.397 216.729C246.715 216.611 245.779 216.847 245.798 217.691C245.818 218.535 246.812 218.712 247.572 218.712C247.768 218.732 247.26 218.653 247.475 218.692C247.836 218.748 248.19 218.847 248.528 218.987C248.946 219.171 249.314 219.453 249.6 219.811C249.756 219.988 249.483 219.615 249.6 219.811C249.749 220.004 249.874 220.215 249.971 220.439C250.029 220.557 249.932 220.498 249.932 220.361C250.077 220.708 250.181 221.07 250.244 221.441C250.244 221.519 250.244 221.657 250.224 221.382C250.292 221.869 250.312 222.363 250.283 222.854C250.263 224.13 252.213 224.13 252.233 222.854Z" fill="#D13535"/>
<path d="M213.1 275.8L212.476 275.742C212.418 275.742 212.106 275.702 212.34 275.742C211.541 275.662 210.039 275.173 209.649 274.995C208.59 274.526 207.588 273.934 206.666 273.228C203.858 271.03 200.934 266.888 200.485 263.02C200.284 261.39 200.297 259.739 200.524 258.112C202.591 242.859 216.571 232.159 230.259 225.956C233.183 224.64 239.169 222.795 241.372 223.698C242.464 224.346 243.478 222.619 242.367 222.01C241.255 221.401 239.579 221.441 238.155 221.617C225.521 224.012 213.724 232.1 205.535 241.917C199.315 249.73 195.104 262.137 201.792 270.873C203.936 273.817 206.881 276.35 210.449 277.332C211.316 277.564 212.204 277.709 213.1 277.763C214.368 277.763 214.368 275.82 213.1 275.8Z" fill="#D13535"/>
</svg>
