<svg width="556" height="425" viewBox="0 0 556 425" fill="none" xmlns="http://www.w3.org/2000/svg">
<path d="M110.397 302.268C80.051 214.302 45.2958 119.091 134.108 88.4531C222.92 57.8153 392.835 6.72669 423.181 94.6928C453.526 182.659 475.421 357.323 386.609 387.961C297.797 418.598 140.743 390.234 110.397 302.268Z" fill="white"/>
<path d="M160.07 97.9365C157.25 97.956 156.919 95.077 156.569 92.9178L154.954 94.9214C152.62 97.8781 147.99 94.6296 149.936 91.4394C145.598 92.1202 143.964 85.3509 150.83 85.0007C148.671 83.9309 146.22 82.3942 147.679 79.6515C149.43 76.9088 151.978 78.4649 154.059 79.7877C153.476 77.434 152.892 74.4189 156.024 73.7186C159.156 73.0183 159.759 76.2668 160.109 78.6789L161.704 76.6753C164.233 73.5435 168.999 77.3755 166.509 80.5074L165.089 82.2969C167.209 81.6355 169.894 81.7328 170.419 84.3978C170.749 85.9345 169.699 87.588 168.162 87.9576C171.216 90.1945 168.084 94.9797 164.797 93.0734L162.618 91.8091C163.299 94.4545 163.688 97.6641 160.07 97.9365ZM157.016 90.3502C157.195 90.3509 157.368 90.4134 157.506 90.5266C157.644 90.6401 157.739 90.7974 157.775 90.9727L158.572 95.1548C158.786 96.4581 160.615 96.8471 161.315 95.719C162.035 95.0187 160.79 91.2838 160.77 90.4475C160.926 87.6074 165.439 92.665 166.723 91.8869C168.007 91.595 168.26 89.7082 167.092 89.1053L165.614 88.2494C165.476 88.1694 165.366 88.049 165.298 87.9046C165.231 87.7601 165.21 87.5983 165.237 87.4412C165.265 87.2842 165.34 87.1393 165.453 87.0265C165.565 86.9135 165.71 86.8378 165.867 86.8098C167.034 86.6153 169.271 86.4403 168.901 84.6895C168.26 81.7717 163.63 85.2148 162.502 83.8532C162.421 83.7153 162.383 83.5563 162.393 83.3967C162.404 83.2372 162.462 83.0844 162.56 82.9583L165.303 79.5347C166.548 78.0175 164.136 76.0723 162.91 77.6479L160.265 80.9547C160.172 81.0678 160.049 81.1522 159.91 81.1986C159.771 81.2449 159.622 81.2511 159.48 81.2166C159.338 81.182 159.208 81.1081 159.106 81.0033C159.004 80.8986 158.934 80.7671 158.903 80.624C158.397 79.3402 158.67 74.7105 156.316 75.2359C153.962 75.7611 155.888 79.7877 155.907 81.1493C155.934 81.2947 155.918 81.4446 155.863 81.5815C155.807 81.7185 155.714 81.8366 155.593 81.9224C155.473 82.0081 155.33 82.0577 155.183 82.0654C155.035 82.0733 154.888 82.0389 154.76 81.9662L151.103 79.8654C149.41 78.8539 147.854 81.5383 149.566 82.511L153.398 84.7091C153.536 84.7874 153.647 84.9063 153.715 85.0494C153.784 85.1926 153.807 85.3532 153.781 85.5098C153.756 85.6664 153.683 85.8116 153.573 85.9257C153.463 86.0399 153.32 86.1176 153.165 86.1485L148.982 86.946C147.037 87.2767 147.601 90.3307 149.546 89.9221L151.647 89.5331C152.328 89.3775 152.853 90.2528 152.406 90.778L151.375 92.0619C150.111 93.5792 152.542 95.5245 153.748 93.9682C154.157 93.6569 156.413 90.1751 157.016 90.3502Z" fill="#D13535"/>
<path d="M336.344 82.4527C333.564 82.4916 333.175 79.5347 332.843 77.434L331.249 79.4376C328.895 82.3748 324.265 79.1458 326.21 75.9361C321.873 76.617 320.24 69.8476 327.105 69.5169C324.946 68.4277 322.515 66.9104 323.954 64.1481C325.724 61.4054 328.272 62.9615 330.355 64.2843C329.77 61.9305 329.187 58.9349 332.319 58.2152C335.45 57.4955 336.054 60.7634 336.384 63.1756C337.823 61.1914 339.71 58.7599 342.317 60.7051C344.924 62.6502 342.979 65.0234 341.364 66.7936C343.503 66.1322 346.169 66.249 346.712 68.8944C346.861 69.6662 346.708 70.4654 346.284 71.1274C345.861 71.7894 345.2 72.2642 344.437 72.4541C347.491 74.7107 344.379 79.4959 341.091 77.5896L338.893 76.3251C339.593 78.9513 339.983 82.1609 336.344 82.4527ZM333.292 74.8469C334.828 74.8663 334.147 80.0405 335.49 80.6436C336.831 81.2465 338.135 80.3712 337.842 79.0874C337.882 78.4844 336.54 74.5162 337.357 74.1661C337.477 74.0804 337.621 74.0313 337.77 74.0245C337.918 74.0175 338.065 74.0531 338.193 74.127L341.851 76.2474C342.202 76.4454 342.617 76.4972 343.006 76.3917C343.396 76.2861 343.728 76.0317 343.932 75.6832C344.826 74.2049 342.939 73.2906 341.909 72.746C341.287 72.4153 341.461 71.4232 342.142 71.326C343.328 71.1119 345.565 70.9369 345.196 69.1862C344.554 66.2684 339.904 69.7308 338.776 68.3498C338.7 68.2104 338.666 68.0524 338.677 67.8939C338.686 67.7355 338.741 67.5832 338.835 67.455L341.577 64.0509C342.822 62.5142 340.411 60.5884 339.204 62.1445L336.54 65.4709C336.446 65.584 336.321 65.668 336.18 65.7132C336.041 65.7584 335.891 65.763 335.749 65.7263C335.605 65.6897 335.477 65.6134 335.376 65.5061C335.275 65.399 335.205 65.2653 335.178 65.1207C334.692 63.8368 334.964 59.2267 332.611 59.7325C330.257 60.2382 332.162 64.3037 332.183 65.6653C332.21 65.8109 332.194 65.9607 332.137 66.0976C332.082 66.2346 331.988 66.3528 331.868 66.4384C331.748 66.5242 331.606 66.5738 331.458 66.5816C331.311 66.5893 331.164 66.555 331.034 66.4824L327.378 64.3622C325.686 63.3506 324.13 66.0349 325.861 67.0076L329.693 69.2057C329.83 69.2856 329.941 69.4058 330.009 69.5504C330.075 69.695 330.097 69.8568 330.069 70.0138C330.042 70.1709 329.966 70.3156 329.854 70.4286C329.742 70.5415 329.596 70.6171 329.44 70.6452L325.258 71.4426C323.332 71.7733 323.896 74.8273 325.822 74.4383L327.942 74.0299C328.623 73.8742 329.148 74.7496 328.682 75.2748L327.65 76.5587C326.405 78.0759 328.817 80.0211 330.043 78.4649C330.432 78.1537 332.707 74.6718 333.292 74.8469Z" fill="#D13535"/>
<path d="M242.43 103.383C242.276 103.386 242.126 103.338 242.002 103.247C241.833 103.132 241.716 102.956 241.676 102.756C241.636 102.556 241.676 102.348 241.788 102.177L252.195 86.9657C252.31 86.7968 252.486 86.6797 252.686 86.6397C252.886 86.5998 253.094 86.6399 253.265 86.7516C253.435 86.8699 253.553 87.0497 253.593 87.2529C253.633 87.4563 253.592 87.6672 253.479 87.841L243.072 103.053C243 103.155 242.904 103.239 242.792 103.297C242.68 103.355 242.556 103.384 242.43 103.383Z" fill="#CE9C5C"/>
<path d="M237.723 98.5979C237.541 98.5914 237.366 98.5208 237.23 98.3985C237.094 98.2762 237.006 98.11 236.98 97.9289C236.955 97.7479 236.994 97.5636 237.091 97.4086C237.187 97.2535 237.335 97.1374 237.509 97.0806L257.253 91.5562C257.355 91.5096 257.466 91.4854 257.577 91.4852C257.689 91.4852 257.8 91.5094 257.902 91.556C258.003 91.6025 258.094 91.6706 258.167 91.7553C258.24 91.8401 258.294 91.9395 258.325 92.0471C258.356 92.1545 258.364 92.2675 258.347 92.3781C258.331 92.4888 258.291 92.5947 258.229 92.6884C258.168 92.7821 258.088 92.8616 257.993 92.9213C257.898 92.981 257.792 93.0197 257.681 93.0346L237.937 98.5785L237.723 98.5979Z" fill="#CE9C5C"/>
<path d="M249.491 105.912C249.311 105.915 249.136 105.854 248.997 105.74C248.859 105.626 248.765 105.466 248.732 105.29L244.939 85.1371C244.919 85.0362 244.92 84.9322 244.941 84.8315C244.961 84.7307 245.002 84.6352 245.06 84.5501C245.118 84.465 245.192 84.3923 245.278 84.3362C245.364 84.28 245.461 84.2414 245.562 84.2228C245.763 84.1886 245.969 84.2348 246.136 84.3512C246.304 84.4675 246.419 84.6449 246.456 84.8453L250.25 104.998C250.284 105.199 250.238 105.405 250.121 105.572C250.005 105.74 249.827 105.855 249.627 105.892L249.491 105.912Z" fill="#CE9C5C"/>
<path d="M255.249 100.971C255.089 100.974 254.933 100.926 254.802 100.835L239.59 90.4475C239.421 90.3328 239.304 90.1565 239.264 89.9563C239.224 89.7563 239.264 89.5483 239.376 89.3775C239.494 89.2074 239.674 89.09 239.877 89.05C240.081 89.01 240.292 89.0508 240.465 89.1636L255.677 99.5706C255.805 99.6663 255.901 99.7995 255.951 99.9519C256.001 100.104 256.002 100.268 255.955 100.421C255.909 100.575 255.816 100.71 255.689 100.808C255.563 100.906 255.409 100.963 255.249 100.971Z" fill="#CE9C5C"/>
<path d="M377.331 138.241L377.895 141.86L375.775 143.746L349.242 167.459C347.763 168.762 345.799 168.373 344.865 166.544L334.963 147.209C334.05 145.4 334.556 142.949 336.072 141.762L366.69 118.069C367.916 117.116 369.589 117.642 370.425 119.237L378.789 135.265L379.334 136.277C380.17 137.891 378.518 137.172 377.331 138.241Z" fill="#EFDCC4"/>
<path d="M350.545 169.695C349.087 169.676 347.821 168.82 347.103 167.42L337.201 148.084C336.035 145.808 336.657 142.832 338.602 141.315L369.219 117.622C371.028 116.183 373.538 117.097 374.549 119.139L383.302 135.888C383.367 136.013 383.405 136.149 383.416 136.289C383.427 136.43 383.411 136.57 383.367 136.704C383.324 136.838 383.255 136.962 383.163 137.068C383.073 137.175 382.961 137.263 382.836 137.327C380.793 139.214 373.362 118.692 371.457 119.081C371.294 119.043 371.123 119.044 370.961 119.084C370.799 119.125 370.648 119.204 370.523 119.314L339.906 143.007C338.776 143.883 338.408 145.75 339.108 147.112L348.989 166.447C349.572 167.595 350.759 167.925 351.713 167.05L378.244 143.338C378.349 143.245 378.47 143.173 378.603 143.127C378.736 143.081 378.875 143.063 379.014 143.072C379.154 143.081 379.29 143.118 379.415 143.18C379.54 143.242 379.652 143.329 379.742 143.435C379.84 143.537 379.916 143.657 379.963 143.789C380.012 143.92 380.034 144.06 380.027 144.201C380.02 144.341 379.984 144.478 379.922 144.604C379.859 144.73 379.772 144.842 379.665 144.933C378.342 145.555 351.966 171.057 350.545 169.695Z" fill="#452D34"/>
<path d="M351.751 148.57C352.705 150.457 352.256 153.006 350.7 154.289C349.145 155.573 347.044 155.106 346.071 153.181C345.099 151.255 345.586 148.687 347.18 147.423C348.776 146.158 350.779 146.703 351.751 148.57Z" fill="white"/>
<path d="M348.794 156.079C342.473 155.904 343.58 144.622 349.806 145.769C354.999 146.937 354.124 156.021 348.794 156.079ZM349.008 147.812C346.206 147.968 345.721 153.181 348.464 153.92C350.779 154.192 351.79 150.885 350.798 149.057C350.389 148.298 349.787 147.831 349.008 147.812Z" fill="#452D34"/>
<path d="M357.218 144.077C357.625 144.875 357.45 145.925 356.808 146.45C356.167 146.975 355.292 146.761 354.882 145.964C354.475 145.166 354.669 144.096 355.311 143.591C355.952 143.085 356.808 143.279 357.218 144.077Z" fill="white"/>
<path d="M356.032 147.812C352.53 147.753 353.055 141.626 356.537 142.287C359.397 142.89 358.988 147.812 356.032 147.812ZM356.07 144.369C355.681 144.485 355.603 145.439 356.013 145.672C356.42 145.575 356.518 144.583 356.07 144.369Z" fill="#452D34"/>
<path d="M327.359 141.548C328.389 137.658 325.335 134.643 321.445 135.693C325.335 134.643 326.444 130.499 323.585 127.64C326.444 130.499 330.587 129.371 331.619 125.461C330.587 129.371 333.622 132.386 337.512 131.336C333.622 132.386 332.513 136.53 335.373 139.37C332.513 136.53 328.389 137.658 327.359 141.548Z" fill="#CE9C5C"/>
<path d="M327.359 142.618C327.195 142.617 327.034 142.578 326.887 142.506C326.74 142.434 326.61 142.329 326.509 142.2C326.41 142.071 326.339 141.921 326.304 141.761C326.269 141.601 326.271 141.435 326.309 141.276C327.203 138.261 324.733 135.829 321.738 136.724C320.414 137.094 319.812 135.012 321.174 134.662C322.534 134.312 323.683 133.32 324.013 132.056C324.907 129.507 321.562 128.282 322.826 126.901C324.09 125.52 325.471 128.963 328.001 128.048C330.704 127.504 330.044 124.041 331.891 124.43C333.739 124.819 331.404 127.737 333.466 129.507C335.275 131.569 337.959 129.254 338.544 131.064C338.615 131.337 338.576 131.628 338.433 131.872C338.291 132.116 338.057 132.294 337.786 132.367C334.75 133.106 333.856 136.471 336.131 138.611C337.124 139.584 335.607 141.14 334.634 140.128C333.662 139.117 332.202 138.631 330.957 138.961C328.312 139.564 328.953 142.54 327.359 142.618ZM324.966 134.74C325.733 135.005 326.432 135.44 327.008 136.012C327.584 136.585 328.023 137.281 328.293 138.047C328.9 137.51 329.623 137.121 330.405 136.909C331.189 136.696 332.009 136.666 332.805 136.821C332.649 136.025 332.674 135.204 332.88 134.42C333.085 133.635 333.466 132.907 333.992 132.289C333.229 132.02 332.535 131.584 331.962 131.012C331.39 130.439 330.954 129.746 330.685 128.982C330.071 129.514 329.344 129.9 328.558 130.112C327.775 130.325 326.952 130.357 326.152 130.208C326.313 131.004 326.29 131.826 326.084 132.611C325.879 133.397 325.496 134.125 324.966 134.74Z" fill="#452D34"/>
<path d="M380.364 137.366C380.482 137.385 380.502 137.366 380.463 137.366H380.364Z" fill="#452D34"/>
<path d="M390.072 149.271C389.995 149.29 389.955 149.329 389.955 149.349L390.033 149.29L390.072 149.271Z" fill="#452D34"/>
<path d="M378.537 138.961V138.903H378.518L378.537 138.961Z" fill="#452D34"/>
<path d="M384.685 126.453C386.785 129.274 388.205 131.881 388.692 135.032V134.896C388.788 135.52 388.809 136.153 388.75 136.782C388.73 138.027 390.695 138.047 390.695 136.782C390.735 129.663 385.287 122.388 379.082 119.217C373.538 116.902 372.391 121.279 375.211 120.696C378.324 119.606 382.506 123.711 384.685 126.453Z" fill="#452D34"/>
<path d="M315.59 172.555L310.688 155.885C313.37 157.612 315.342 160.246 316.242 163.307C317.143 166.368 316.911 169.651 315.59 172.555Z" fill="#CE9C5C"/>
<path d="M277.502 178.683C277.334 176.945 276.826 175.258 276.005 173.718C275.184 172.177 274.068 170.813 272.721 169.704C271.373 168.595 269.82 167.762 268.151 167.253C266.481 166.745 264.727 166.57 262.991 166.739C260.793 166.953 259.45 167.147 258.069 167.984C258.458 169.618 260.52 170.727 260.734 172.458C260.871 173.469 260.637 175.278 259.645 175.162C258.984 176.134 262.777 191.404 263.166 191.638C264.547 192.494 264.275 192.805 265.987 192.63C273.282 191.929 278.222 185.997 277.502 178.683Z" fill="#CE9C5C"/>
<path d="M314.539 156.04C310.862 119.023 254.646 131.375 261.298 168.198C262.407 169.637 263.944 168.665 264.275 167.167C261.493 132.367 307.73 124.644 314.539 156.04Z" fill="#D13535"/>
<path d="M320.317 165.688C319.97 162.044 318.243 158.67 315.493 156.254C315.509 156.184 315.517 156.112 315.512 156.04C312.166 117.992 254.977 130.713 259.996 166.077C256.339 167.828 258.264 169.598 259.645 172.497C258.673 173.917 257.7 175.239 258.517 176.543C259.334 177.846 258.517 179.013 259.14 180.297C260.754 184.051 261.357 187.786 261.708 190.023C261.921 193.233 263.497 193.116 265.793 193.311C286.353 193.777 285.654 163.121 265.229 164.463C265.461 155.865 268.398 147.501 275.129 142.346C284.973 134.623 301.681 135.868 309.385 146.295C311.37 148.998 312.924 151.78 313.411 154.756C312.087 153.945 310.632 153.366 309.112 153.045C308.971 153.001 308.823 152.987 308.676 153.004C308.529 153.02 308.388 153.067 308.26 153.141C308.132 153.215 308.022 153.315 307.935 153.434C307.846 153.553 307.785 153.689 307.753 153.833C307.72 153.977 307.718 154.126 307.747 154.271C307.775 154.416 307.832 154.553 307.916 154.674C307.999 154.796 308.108 154.899 308.233 154.976C308.36 155.054 308.499 155.105 308.646 155.126C311.171 155.676 313.454 157.014 315.168 158.948C316.881 160.882 317.935 163.311 318.178 165.883C318.344 167.481 318.187 169.095 317.72 170.632C317.252 172.169 316.481 173.597 315.454 174.831C315.274 175.051 315.187 175.334 315.212 175.617C315.237 175.901 315.373 176.163 315.59 176.348C315.786 176.497 316.024 176.579 316.271 176.582C316.43 176.581 316.587 176.545 316.732 176.478C316.876 176.411 317.004 176.314 317.107 176.193C318.309 174.74 319.211 173.064 319.763 171.261C320.314 169.459 320.502 167.564 320.317 165.688ZM265.248 166.642C268.574 166.369 272.231 167.381 274.565 169.423C284.525 177.554 276.355 193.583 264.022 190.879C263.458 187.728 263.108 184.226 261.104 179.441C260.715 178.157 261.26 176.893 260.346 175.453C262.622 171.796 262.019 172.652 260.054 168.606C260.141 168.517 260.239 168.438 260.346 168.373C261.552 171.291 265.54 169.482 265.248 166.642ZM263.011 167.692H262.991C262.972 167.731 262.952 167.731 262.894 167.789C262.836 167.848 262.836 167.828 262.836 167.848C262.836 167.853 262.834 167.858 262.83 167.861C262.826 167.865 262.821 167.867 262.816 167.867C262.821 167.867 262.826 167.865 262.83 167.861C262.834 167.858 262.836 167.853 262.836 167.848C262.736 167.898 262.623 167.917 262.513 167.903C262.402 167.889 262.298 167.843 262.213 167.77C262.194 167.653 262.155 167.497 262.135 167.361C262.516 167.208 262.906 167.078 263.303 166.972C263.205 167.186 263.127 167.459 263.011 167.672C262.894 167.887 263.03 167.653 263.011 167.692ZM275.967 139.409C267.291 144.524 263.322 155.379 263.264 164.774C262.788 164.887 262.321 165.03 261.863 165.202C259.898 139.798 289.562 124.858 307.887 141.86C299.387 134.545 285.867 133.106 275.967 139.409Z" fill="#452D34"/>
<path d="M262.835 167.849L262.895 167.789C262.881 167.789 262.861 167.809 262.835 167.849Z" fill="#452D34"/>
<path d="M309.191 213.249C309.17 213.308 309.17 213.385 309.151 213.463L309.249 212.802C309.161 213.437 308.99 214.058 308.742 214.649L308.976 214.066C308.698 214.733 308.331 215.362 307.887 215.934L308.276 215.428C307.644 216.231 306.912 216.95 306.097 217.568L306.584 217.198C305.099 218.307 303.476 219.222 301.76 219.922L302.343 219.669C298.706 221.205 294.835 222.08 290.943 222.625L291.586 222.527C287.774 223.014 283.903 223.229 280.09 222.761L280.732 222.838C279.604 222.684 278.455 222.469 277.406 222.022L277.989 222.274C275.033 219.805 271.473 223.597 274.623 225.97C279.215 228.481 284.856 227.954 289.894 227.585C297.81 226.592 306.895 224.881 312.128 218.326C317.476 210.935 309.891 208.426 309.191 213.249Z" fill="#D13535"/>
<path d="M375.445 166.68C384.917 164.171 388.828 163.471 402.21 158.763C402.615 158.619 403.041 158.557 403.469 158.58C403.898 158.603 404.316 158.711 404.702 158.898C405.087 159.084 405.432 159.345 405.716 159.666C405.999 159.987 406.217 160.361 406.355 160.767C407.502 164.152 407.054 169.696 404.953 171.368C400.48 174.986 382.855 179.558 378.012 177.262C376.028 176.329 371.048 167.848 375.445 166.68Z" fill="#D13535"/>
<path d="M187.458 234.334C188.353 234.977 188.645 236.513 188.586 237.058C188.552 237.243 188.507 237.425 188.45 237.603C188.451 237.588 188.458 237.573 188.47 237.564C188.463 237.572 188.457 237.581 188.454 237.591C188.451 237.602 188.449 237.611 188.45 237.622C188.411 237.7 188.411 237.7 188.411 237.662C188.373 237.75 188.328 237.834 188.275 237.915C185.163 240.599 180.358 234.744 179.95 230.737C179.859 230.053 179.846 229.361 179.911 228.675V228.733C180.027 227.747 180.395 226.81 180.981 226.009C181.361 225.527 181.814 225.107 182.323 224.764C183.412 224.142 182.42 222.45 181.35 223.091C175.339 226.943 178.082 236.143 183.276 239.471C188.47 242.797 193.099 237.758 189.073 233.187C187.497 231.32 185.941 233.597 187.458 234.334Z" fill="#452D34"/>
<path d="M188.45 237.622L188.411 237.681L188.45 237.641V237.622Z" fill="#452D34"/>
<path d="M179.911 228.675C179.931 228.598 179.931 228.539 179.911 228.675V228.675Z" fill="#452D34"/>
<path d="M180.125 240.871C180.24 241.053 180.344 241.241 180.436 241.435C180.261 241.086 180.514 241.591 180.514 241.669C180.514 241.746 180.592 242.076 180.631 242.174V242.329C180.65 242.588 180.65 242.849 180.631 243.108C180.494 243.75 180.494 243.75 180.203 244.236C179.911 244.723 180.086 244.391 179.755 244.587C179.354 244.715 178.93 244.762 178.51 244.723C177.693 244.567 177.693 244.548 177.013 244.138L176.798 243.984C173.706 241.416 172.713 236.377 174.153 233.091C174.698 232.001 175.203 231.437 176.02 230.873C176.38 230.636 176.765 230.44 177.168 230.29C178.374 229.939 177.849 228.052 176.643 228.402C169.951 230.756 170.477 240.229 174.678 244.683C178.88 249.137 184.735 245.559 181.914 240.054C181.058 238.051 178.549 239.237 180.125 240.871Z" fill="#452D34"/>
<path d="M193.372 231.009L193.489 230.854C193.567 230.833 193.703 230.756 193.586 230.795H193.528C192.964 230.971 192.361 230.95 191.369 230.854C189.851 230.678 187.478 229.822 186.272 228.188L186.369 228.286C186.06 227.901 185.805 227.476 185.611 227.021C185.766 227.332 185.63 227.06 185.591 226.962C185.431 226.542 185.32 226.106 185.261 225.659V225.621H185.241V225.543C185.17 224.87 185.176 224.191 185.261 223.519C185.28 223.344 185.261 223.578 185.261 223.597C185.319 222.742 186.078 221.361 184.852 220.991C184.605 220.93 184.344 220.968 184.123 221.094C183.902 221.22 183.738 221.427 183.666 221.672C181.72 227.8 186.272 232.935 192.458 232.876C196.562 233.129 195.259 229.239 193.372 231.009Z" fill="#452D34"/>
<path d="M185.261 225.68C185.28 225.523 185.241 225.504 185.241 225.562C185.238 225.596 185.245 225.631 185.261 225.661V225.68Z" fill="#452D34"/>
<path d="M271.375 294.889C271.161 293.742 271.045 290.358 271.297 289.092C271.55 287.828 269.702 287.362 269.411 288.568C268.419 296.97 271.861 305.122 274.604 312.903C275.363 314.984 276.142 317.065 276.879 319.166C276.952 319.409 277.116 319.616 277.338 319.744C277.559 319.871 277.82 319.907 278.066 319.847C278.553 319.691 278.922 319.166 278.747 318.64C276.063 310.821 272.561 303.137 271.375 294.889Z" fill="#452D34"/>
<path d="M303.822 189.459C300.592 189.459 298.53 186.658 297.772 185.374C297.63 185.14 297.554 184.87 297.554 184.596C297.554 184.321 297.63 184.052 297.772 183.818C297.919 183.585 298.127 183.396 298.374 183.273C298.622 183.15 298.897 183.096 299.172 183.118L300.047 183.215C302.521 183.45 305.011 182.999 307.245 181.912L308.062 181.522C308.306 181.399 308.577 181.347 308.849 181.371C309.121 181.395 309.38 181.495 309.598 181.659C309.815 181.825 309.984 182.046 310.085 182.299C310.187 182.552 310.221 182.828 310.183 183.098C309.89 184.771 308.8 188.72 304.774 189.381C304.46 189.435 304.141 189.461 303.822 189.459ZM300.379 185.374C301.292 186.483 302.654 187.572 304.424 187.28C306.195 186.988 307.283 185.413 307.751 184.032C305.436 185.066 302.908 185.526 300.379 185.374Z" fill="#452D34"/>
<path d="M288.822 167.614L288.707 167.575C287.189 167.497 286.042 169.326 286.742 170.668C287.442 172.01 289.894 172.399 290.652 170.804C291.41 169.209 290.107 167.556 288.822 167.614Z" fill="#452D34"/>
<path d="M307.518 162.537L307.07 162.459C302.556 162.907 305.884 169.229 308.821 165.883C309.968 164.482 308.763 162.751 307.518 162.537Z" fill="#452D34"/>
<path d="M290.347 162.407C288.635 162.689 279.807 164.309 280.351 166.444C280.415 166.611 280.519 166.759 280.654 166.875C280.789 166.991 280.952 167.071 281.126 167.109C281.242 167.193 281.379 167.247 281.52 167.268C281.664 167.288 281.809 167.274 281.945 167.227C284.904 166.387 287.838 165.413 290.707 164.296C291.747 163.972 291.441 162.31 290.347 162.407Z" fill="#452D34"/>
<path d="M309.837 159.844C309.84 159.805 309.864 159.748 309.869 159.69C309.89 159.184 309.522 158.648 308.977 158.643C308.431 158.639 303.661 158.747 301.511 159.532L301.49 159.531C300.264 159.979 299.824 160.608 301.336 161.47C303.934 161.442 306.536 161.357 309.113 161.094C309.786 160.991 309.991 160.363 309.837 159.844Z" fill="#452D34"/>
<path d="M298.92 167.361C300.398 169.559 300.417 171.582 303.607 172.399C303.835 172.477 304.047 172.596 304.23 172.749C304.055 172.497 304.347 172.964 304.424 172.964C304.503 172.964 304.309 172.769 304.405 172.944L304.503 173.119C304.483 173.119 304.424 172.886 304.483 173.08C304.517 173.181 304.544 173.286 304.562 173.391C304.6 173.528 304.562 173.197 304.562 173.333V173.8C304.581 173.683 304.581 173.644 304.562 173.722C304.525 174.037 304.396 174.335 304.192 174.578L304.25 174.5C304.25 174.597 303.647 175.064 303.841 174.909C303.59 175.103 303.315 175.267 303.024 175.395H303.083C301.76 175.667 302.13 177.651 303.453 177.321C307.42 176.037 307.576 171.096 303.277 170.221C303.039 170.121 302.81 169.997 302.596 169.851L302.694 169.909C301.702 169.112 301.429 167.186 300.3 166.019C299.172 164.852 298.044 166.486 298.92 167.381V167.361Z" fill="#452D34"/>
<path d="M273.008 195.411C272.327 194.342 272.095 190.957 270.518 191.288C270.052 191.443 269.663 191.968 269.837 192.474C272.074 198.738 274.817 204.826 276.568 211.246C276.879 212.47 278.766 211.965 278.436 210.74C277.055 205.487 274.876 200.488 273.008 195.411Z" fill="#452D34"/>
<path d="M304.756 212.063C304.825 212.29 304.969 212.488 305.164 212.627C305.533 214.046 305.573 216.711 307.109 216.42C308.685 215.7 307.05 213.385 306.992 212.121C306.992 210.39 304.464 210.195 304.756 212.063ZM304.988 212.121L305.067 212.295C305.032 212.241 305.007 212.183 304.988 212.121Z" fill="#452D34"/>
<path d="M283.903 219.901C283.832 219.339 283.838 218.77 283.922 218.209C284.778 216.07 282.911 215.389 282.249 216.789C281.588 218.19 281.471 222.702 283.63 222.548C285.05 222.042 283.863 220.465 283.903 219.901Z" fill="#452D34"/>
<path d="M294.348 215.622C294.522 216.174 294.645 216.741 294.718 217.315C294.699 217.237 294.699 217.139 294.679 217.062C294.893 217.956 294.367 219.629 295.748 219.707C297.616 219.358 296.41 216.362 296.216 215.096C296.022 213.832 293.998 214.396 294.348 215.622Z" fill="#452D34"/>
<path d="M378.888 166.855C378.722 166.762 378.53 166.719 378.341 166.732C378.151 166.746 377.968 166.815 377.818 166.931C377.666 167.047 377.552 167.205 377.489 167.385C377.428 167.566 377.42 167.76 377.467 167.945C377.818 169.229 377.935 171.368 379.14 172.049C380.423 172.263 380.502 170.979 380.21 170.571C379.548 169.482 379.744 167.634 378.888 166.855Z" fill="#452D34"/>
<path d="M387.894 165.085C388.477 166.155 388.303 169.112 389.995 168.859C391.629 168.12 389.859 165.825 389.761 164.56C389.663 163.296 387.543 163.86 387.894 165.085Z" fill="#452D34"/>
<path d="M397.795 161.603C397.607 161.557 397.411 161.566 397.23 161.63C397.046 161.693 396.889 161.808 396.77 161.961C396.653 162.114 396.582 162.297 396.568 162.489C396.552 162.682 396.593 162.874 396.686 163.043C396.92 163.568 397.075 163.938 397.347 164.619C397.62 165.299 397.795 167.361 399.176 167.07C399.642 166.914 400.012 166.389 399.837 165.883C399.254 164.638 398.982 162.284 397.795 161.603Z" fill="#452D34"/>
<path d="M374.978 173.294C374.822 173.06 374.919 173.236 374.978 173.294V173.294Z" fill="#452D34"/>
<path d="M408.318 192.844C407.637 184.946 406.102 177.126 404 169.482C406.743 165.552 406.879 154.737 400.148 155.787L399.605 155.962C398.748 153.861 394.604 143.221 392.153 139.934L392.076 139.973C391.278 138.767 390.073 139.311 390.267 140.459C391.182 143.007 392.251 147.287 390.073 149.271H390.092C390.054 149.271 389.975 149.349 389.956 149.349C389.725 149.512 389.477 149.649 389.216 149.757H389.275C385.073 151.255 377.837 143.085 378.595 138.883L378.829 138.494C379.024 138.244 379.246 138.016 379.49 137.814L379.412 137.891C379.69 137.656 380.016 137.483 380.365 137.386H380.346C382.485 137.366 384.081 138.553 385.521 140.226C385.813 140.77 386.435 141.295 387.077 140.887C389.49 138.28 378.595 131.783 376.669 138.514C375.639 148.065 392.31 158.452 393.282 146.197C394.955 149.601 396.413 153.045 397.756 156.585C397.756 156.587 397.756 156.59 397.758 156.592C397.759 156.595 397.759 156.597 397.762 156.599C397.764 156.6 397.766 156.602 397.769 156.603C397.77 156.604 397.773 156.604 397.775 156.604C393.049 158.199 388.322 159.814 383.498 161.098C380.386 161.934 377.273 162.712 374.16 163.529C373.5 161.137 371.165 151.469 368.81 152.519C368.384 152.792 368.169 153.395 368.461 153.842C370.076 156.39 370.736 158.627 371.553 161.331C371.904 161.973 371.923 163.218 372.255 164.093C371.38 164.56 370.561 165.65 370.523 166.467C370.308 169.793 372.059 173.372 374.53 175.629C375.892 184.168 377.137 194.011 377.409 202.064C364.104 204.068 350.682 205.76 337.882 210.233C334.069 211.342 330.451 213.229 326.463 213.638C322.379 213.716 315.26 214.474 312.692 210.72C311.077 207.724 310.357 203.017 305.922 203.698C305.942 203.231 305.708 202.434 305.689 201.869C323.701 194.594 318.178 175.415 311.953 158.044C313.236 157.81 314.695 157.324 314.539 156.04C309.813 116.358 256.825 124.139 249.822 152.928C254.374 156.526 257.856 164.23 259.004 173.041C259.14 174.092 256.922 173.936 257.467 174.85C257.331 175.959 256.572 177.924 259.86 177.321C259.315 175.22 258.77 175.434 260.677 172.886C261.241 172.069 258.303 168.742 259.023 168.081C264.217 163.432 273.788 165.513 277.502 170.98C284.156 169.19 283.28 165.377 282.658 162.012C282.016 155.418 284.954 147.326 291.547 151.858C292.267 152.655 293.045 152.753 293.356 151.722C294.426 149.465 298.317 147.151 299.892 149.135C302.402 152.344 306.175 158.841 310.008 158.374C317.186 175.512 322.36 202.745 295.107 201.111C294.154 201.13 292.462 200.469 292.364 201.928C292.558 204.145 301.954 202.823 303.743 202.414C303.801 202.939 303.939 203.483 304.016 204.01C295.612 206.673 287.112 209.631 278.319 210.565H278.281C278.145 210.584 278.164 210.507 278.281 210.544C276.355 209.514 274.682 210.818 274.507 212.88C273.826 215.74 273.476 218.579 273.184 221.614C272.075 233.576 262.486 227.643 255.697 227.138C254.491 226.807 253.946 228.713 255.172 229.005C269.002 231.456 272.484 231.729 274.078 226.962C276.725 228.694 284.622 229.705 286.159 229.667C289.935 229.767 293.7 229.241 297.304 228.111C302.499 226.672 314.015 220.718 313.917 214.3C314.902 214.826 315.991 215.131 317.107 215.194C322.613 216.07 328.351 215.992 333.524 213.755C347.18 208.735 361.478 206.013 375.911 204.379C376.458 204.34 376.998 204.25 377.526 204.106C377.507 205.857 377.526 207.939 378.693 207.977C379.178 207.958 379.724 207.549 379.665 207.005C379.49 205.43 379.471 203.853 379.393 202.278C379.449 201.876 379.43 201.467 379.335 201.072C379.295 200.177 378.188 182.865 376.552 176.582C383.07 177.982 396.375 174.578 402.308 170.824C406.217 186.541 409.797 204.223 402.95 219.531C398.067 228.654 388.477 234.957 379.141 238.868C370.504 242.525 360.369 244.898 351.557 246.085C349.242 246.396 346.909 246.649 344.573 246.785C343.328 246.785 343.29 248.769 344.573 248.73L345.196 248.69C349.223 266.489 361.653 318.214 374.394 327.667C375.464 328.289 376.475 326.616 375.366 325.993C375.063 325.842 374.777 325.66 374.511 325.448C372.915 324.165 371.048 321.364 369.725 318.895C361.302 302.398 356.362 284.367 351.44 266.587C349.865 260.596 348.406 254.585 347.122 248.517C360.078 247.272 373.013 244.236 384.704 238.439C404.234 228.869 410.556 213.949 408.318 192.844ZM300.028 225.057C292.558 228.383 282.618 228.675 275.188 225.347C274.989 225.238 274.782 225.148 274.565 225.076C275.188 222.157 275.576 217.975 276.744 212.159L277.036 212.121C279.136 213.114 281.647 212.023 283.825 211.693C289.174 210.525 294.465 209.086 299.698 207.492C303.88 206.441 308.023 203.095 309.793 209.067C310.071 209.938 310.464 210.769 310.96 211.537C310.976 211.658 311.016 211.775 311.08 211.878C311.144 211.982 311.229 212.072 311.33 212.14L311.485 212.257L311.622 212.433V212.47L311.66 212.51L311.777 212.704C311.847 212.907 311.899 213.115 311.934 213.327C312.381 218.345 305.514 222.665 300.028 225.057ZM403.048 167.284C401.938 170.921 388.458 174.072 383.634 174.714C381.689 174.948 378.188 175.317 376.183 174.5L376.3 174.539L376.183 174.481L375.988 174.364C375.617 174.041 375.279 173.683 374.977 173.294H374.996C373.246 171.155 372.002 167.653 372.508 166.486C372.572 166.287 372.694 166.112 372.857 165.98H372.798L372.877 165.941C372.871 165.941 372.866 165.943 372.863 165.947C372.86 165.951 372.857 165.956 372.857 165.961L372.934 165.902L373.091 165.805L373.189 165.766C373.288 165.746 373.386 165.713 373.479 165.669C382.602 163.393 391.648 160.864 400.48 157.655C400.76 157.59 401.049 157.571 401.335 157.596L401.899 157.752C401.902 157.752 401.905 157.753 401.907 157.753C401.91 157.754 401.911 157.756 401.913 157.758C401.915 157.759 401.916 157.762 401.918 157.764C401.918 157.766 401.919 157.769 401.919 157.772C401.957 157.791 401.997 157.81 401.997 157.791C402.144 157.868 402.286 157.952 402.425 158.044L402.463 158.083C402.604 158.209 402.733 158.346 402.853 158.491H402.872C402.98 158.633 403.065 158.791 403.125 158.958C403.373 159.637 403.542 160.342 403.631 161.059C403.942 163.257 403.631 165.844 403.048 167.284Z" fill="#452D34"/>
<path d="M277.153 167.731C278.864 167.789 280.966 166.019 280.381 164.23C279.681 163.199 278.534 163.957 278.455 165.008L278.553 164.774C278.479 164.961 278.381 165.138 278.261 165.299L278.417 165.105C278.275 165.28 278.111 165.437 277.931 165.572L278.125 165.416C277.957 165.549 277.776 165.66 277.58 165.747L277.814 165.65C277.626 165.724 277.43 165.776 277.231 165.805L277.502 165.766C276.044 165.533 275.655 167.595 277.153 167.731Z" fill="white"/>
<path d="M279.526 158.53C279.686 157.252 280.019 156.002 280.518 154.815C281 153.73 281.607 152.705 282.328 151.761C282.58 151.371 284.116 149.815 284.446 149.601C284.939 149.216 285.475 148.889 286.042 148.629C285.867 148.707 286.003 148.648 286.042 148.648C286.455 148.471 286.897 148.372 287.346 148.356C288.591 148.356 288.591 146.392 287.346 146.411C281.684 147.092 278.204 153.336 277.581 158.53C277.561 159.775 279.506 159.794 279.526 158.53Z" fill="white"/>
<path d="M284.505 132.989L285.265 132.853L285.012 132.892C285.906 132.62 287.034 133.203 287.812 132.6C287.916 132.495 287.993 132.368 288.041 132.228C288.088 132.089 288.102 131.94 288.083 131.794C288.064 131.648 288.014 131.508 287.933 131.385C287.851 131.262 287.744 131.159 287.617 131.083C286.47 130.694 285.167 130.888 283.999 131.122C282.833 131.355 283.299 133.32 284.505 132.989Z" fill="white"/>
<path d="M297.967 146.839C298.16 146.76 298.363 146.708 298.57 146.684L298.318 146.723C298.548 146.684 298.785 146.684 299.017 146.723L298.765 146.684C298.951 146.701 299.136 146.747 299.308 146.82C299.406 146.839 299.582 146.956 299.289 146.8C299.815 147.073 299.678 146.975 300.048 147.345C300.106 147.404 300.165 147.54 300.01 147.287C300.534 148.648 302.5 147.909 301.857 146.567C301.215 145.225 298.278 143.98 296.878 145.419C296.429 146.12 297.169 147.112 297.967 146.839Z" fill="white"/>
<path d="M171.118 181.814C171.114 181.742 171.121 181.67 171.138 181.6V181.736C171.168 181.53 171.221 181.328 171.293 181.133C171.916 179.733 173.414 178.721 174.795 177.613C175.845 176.776 177.693 175.512 179.211 174.87C179.502 174.695 181.428 174.169 181.72 174.169C182.436 174.076 183.161 174.069 183.879 174.15C184.657 174.286 185.844 174.831 186.174 173.722C186.155 170.765 178.744 172.594 177.226 173.683C174.231 175.667 169.698 177.904 169.193 181.814C169.173 183.059 171.118 183.079 171.138 181.814H171.118Z" fill="#452D34"/>
<path d="M213.252 188.311C211.987 187.475 210.12 188.662 210.256 190.14C210.392 191.618 212.396 192.805 213.641 191.657C214.886 190.509 214.302 188.837 213.252 188.311Z" fill="#452D34"/>
<path d="M240.758 188.895C239.493 188.058 237.645 189.226 237.762 190.723C237.879 192.221 239.921 193.388 241.147 192.221C242.372 191.054 241.828 189.42 240.758 188.895Z" fill="#452D34"/>
<path d="M246.788 198.154C247.254 199.671 243.189 201.422 245.018 201.383C245.526 201.38 246.03 201.301 246.515 201.15C248.889 200.411 250.328 198.251 249.725 196.345C249.122 194.439 246.729 193.466 244.356 194.205C243.206 194.535 242.212 195.267 241.555 196.267C241.03 197.123 246.515 197.24 246.788 198.154Z" fill="#D13535"/>
<path d="M212.1 198.591C212.658 196.661 211.176 194.538 208.792 193.85C206.408 193.162 204.023 194.168 203.466 196.099C202.909 198.029 204.39 200.151 206.774 200.84C209.159 201.528 211.543 200.521 212.1 198.591Z" fill="#D13535"/>
<path d="M231.206 204.923C220.488 205.332 223.892 195.178 228.775 195.898C234.708 196.754 240.641 198.115 245.543 199.302C246.865 199.613 246.846 201.5 245.504 201.792L231.206 204.923Z" fill="#CE9C5C"/>
<path d="M245.814 196.384C240.504 195.1 234.804 193.797 228.949 192.941C227.199 192.688 225.448 193.486 224.281 195.081C223.114 196.676 222.725 199.049 223.561 200.78C224.125 201.947 225.681 203.911 229.941 204.106H230.311C230.998 204.104 231.683 204.027 232.354 203.874L245.756 200.955C246.278 200.844 246.746 200.558 247.082 200.143C247.418 199.729 247.602 199.213 247.604 198.679C247.621 198.148 247.451 197.627 247.124 197.208C246.797 196.789 246.334 196.497 245.814 196.384ZM231.653 197.123V197.162V197.123ZM231.887 201.792C231.28 201.925 230.659 201.984 230.039 201.967C227.704 201.85 226.09 201.111 225.487 199.866C224.884 198.621 225.195 197.454 225.993 196.345C226.79 195.236 227.471 195.042 228.307 195.042H228.638L230.116 195.275C228.677 199.166 231.964 199.224 231.653 197.143C231.673 197.22 231.673 197.279 231.692 197.357C231.676 197.267 231.669 197.175 231.673 197.084C231.877 196.613 232.014 196.115 232.081 195.606C235.155 196.131 238.189 196.773 241.107 197.454V197.609L241.049 197.804C241.024 197.866 240.991 197.925 240.951 197.979C240.193 198.932 240.698 199.632 241.399 199.691L236.361 200.8C236.672 199.652 237.158 198.349 236.03 197.843C234.299 197.629 234.746 200.119 234.299 201.247L231.887 201.792ZM245.309 198.854L242.08 199.555C242.449 199.36 242.78 198.971 242.935 198.329C242.99 198.198 243.029 198.061 243.052 197.921L245.309 198.465C245.367 198.465 245.464 198.504 245.464 198.66C245.467 198.683 245.465 198.706 245.459 198.728C245.452 198.751 245.441 198.771 245.427 198.79C245.413 198.808 245.395 198.823 245.374 198.834C245.354 198.845 245.332 198.852 245.309 198.854Z" fill="#452D34"/>
<path d="M141.94 205.954C140.579 206.558 139.392 207.492 137.991 207.997C135.443 208.931 132.506 208.192 130.269 206.635C128.032 205.079 126.456 202.784 125.134 200.411C120.484 191.943 118.969 182.107 120.854 172.633C122.021 166.817 124.745 160.962 129.783 157.83C134.821 154.698 142.427 155.34 145.597 160.359C148.768 165.377 146.239 172.497 145.831 178.624C145.799 178.971 145.842 179.32 145.956 179.648C146.07 179.977 146.253 180.278 146.492 180.53C148.009 182.087 150.266 180.219 152.25 179.577C155.907 178.371 159.661 182.184 159.836 186.016C160.011 189.848 157.755 193.349 155.362 196.345C153.705 198.433 151.925 200.421 150.032 202.297C148.048 204.223 147.62 203.523 144.858 203.776C144.586 203.795 142.174 205.856 141.94 205.954Z" fill="#D13535"/>
<path d="M170.632 241.163C162.306 234.335 150.869 215.972 147.445 205.351C147.348 204.904 147.289 204.67 147.251 204.457C150.635 203.659 153.203 201.928 155.829 198.854C159.466 194.692 163.882 190.12 163.96 184.265C164.038 178.41 157.794 174.111 152.405 177.729C152.191 177.827 151.297 178.118 150.908 178.06L150.733 178.021H150.674L150.616 177.982L150.441 177.885C150.441 177.865 150.441 177.865 150.421 177.865L150.246 177.671C150.174 177.583 150.115 177.485 150.071 177.379C150.071 177.374 150.069 177.369 150.065 177.366C150.062 177.362 150.057 177.36 150.052 177.36C150.057 177.36 150.062 177.362 150.065 177.366C150.069 177.369 150.071 177.374 150.071 177.379H150.052C150.052 177.369 150.051 177.358 150.048 177.348C150.045 177.338 150.039 177.329 150.032 177.321C149.975 177.205 149.942 177.08 149.935 176.951C149.943 176.983 149.95 177.016 149.954 177.049C149.896 176.154 150.071 175.259 150.168 174.364C151.53 167.089 153.397 156.507 143.827 153.492C123.013 148.862 118.87 178.43 124.667 192.688C127.098 199.846 133.07 210.039 142.037 206.617C143.204 206.109 144.235 205.372 145.364 204.845H145.441C147.309 213.308 152.639 220.739 157.113 228.052C160.614 233.11 164.135 238.362 168.881 242.329C170.107 243.731 172.013 242.544 170.632 241.163ZM141.123 204.866C140.642 205.067 140.14 205.21 139.625 205.293C139.069 205.351 138.509 205.351 137.952 205.293C137.914 205.293 137.563 205.255 137.816 205.293C137.094 205.158 136.385 204.964 135.696 204.71C134.919 204.367 134.187 203.929 133.517 203.406C130.911 201.422 128.635 197.259 127.331 194.147C125.965 190.863 125.024 187.418 124.53 183.896C123.577 175.57 124.492 167.011 129.432 160.222C129.88 159.561 131.63 157.791 132.214 157.402C133.925 156.039 135.977 155.171 138.147 154.893C140.228 154.601 142.582 154.97 144.021 155.593C146.297 156.604 147.581 157.849 148.593 160.106C149.604 162.362 149.507 166 149.137 168.353C148.768 171.116 148.145 173.878 147.99 176.679C148.068 180.141 151.491 180.686 154.02 179.13C154.934 178.702 155.362 178.43 156.354 178.235C156.659 178.213 156.965 178.219 157.268 178.255C158.241 178.43 158.669 178.644 159.544 179.266L159.836 179.519C160.089 179.772 160.342 180.025 160.575 180.297C160.809 180.569 160.595 180.336 160.614 180.355C160.996 180.849 161.31 181.392 161.548 181.97V181.912C161.626 182.184 161.762 182.495 161.82 182.787C161.879 183.079 161.917 183.195 161.956 183.39V183.409C162.151 185.199 161.84 186.561 161.159 188.292C159.077 192.669 155.265 196.948 151.374 200.488C149.852 201.636 148.066 202.385 146.181 202.667C145.711 202.647 145.244 202.74 144.819 202.939L144.586 203.017C143.477 203.504 141.998 204.515 141.123 204.866Z" fill="#452D34"/>
<path d="M150.052 177.342C150.032 177.262 150.032 177.262 150.032 177.282C150.039 177.29 150.045 177.3 150.048 177.31C150.052 177.32 150.053 177.331 150.052 177.342Z" fill="#452D34"/>
<path d="M312.322 252.329C312.905 253.689 313.12 255.187 313.781 256.511C314.986 258.943 317.614 260.439 320.317 260.848C323.02 261.258 325.744 260.694 328.331 259.875C337.534 256.949 345.412 250.874 350.585 242.719C353.736 237.7 355.798 231.573 354.319 225.834C352.841 220.095 346.869 215.33 341.13 216.77C335.392 218.209 332.279 225.115 328.37 229.842C328.148 230.111 327.873 230.331 327.561 230.489C327.25 230.645 326.909 230.737 326.561 230.756C324.382 230.833 324.052 227.935 323.06 226.087C321.23 222.721 315.901 222.878 313.12 225.523C310.338 228.169 309.56 232.272 309.229 236.106C308.985 238.757 308.908 241.421 308.996 244.081C309.093 246.843 309.891 246.628 311.719 248.711C311.913 248.924 312.224 252.076 312.322 252.329Z" fill="#D13535"/>
<path d="M260.287 267.287C259.864 266.72 259.505 266.105 259.217 265.459C258.555 263.844 258.225 261.199 259.236 258.903L259.197 259C259.391 258.526 259.639 258.076 259.937 257.658C260.579 256.589 258.886 255.597 258.244 256.666C255.599 260.635 256.319 266.47 259.839 269.66C260.734 270.554 262.115 269.173 261.22 268.279C260.88 267.977 260.567 267.646 260.287 267.287Z" fill="#452D34"/>
<path d="M321.27 222.061C321.368 222.256 321.309 222.12 321.27 222.061V222.061Z" fill="#452D34"/>
<path d="M353.017 219.046C350.488 214.806 345.371 211.77 340.372 213.034C335.373 214.3 331.832 219.531 329.148 223.033C328.273 224.064 327.301 225.602 326.367 226.087C326.114 226.185 325.55 226.243 325.258 225.99C324.966 225.738 324.811 225.504 324.538 224.9C323.332 218.541 317.029 216.692 312.089 220.505C306.643 224.687 304.658 242.563 309.191 247.621C297.674 257.172 278.223 261.782 263.42 261.258C260.735 260.654 260.521 262.812 262.116 263.124C279 263.805 295.982 259.643 309.949 249.682C318.158 274.757 366.205 238.575 353.017 219.046ZM351.48 234.334C347.764 242.836 339.789 250.014 331.21 253.612C326.211 255.538 319.482 257.93 314.637 254.293C314.151 253.963 313.004 252.718 312.672 251.765C312.245 251.201 312.147 248.983 311.544 247.796C310.942 246.609 310.027 245.715 309.482 244.217C307.693 239.062 308.938 231.106 310.727 225.698C311.428 224.064 312.868 221.808 314.949 221.01L314.851 221.069C315.446 220.806 316.075 220.629 316.718 220.544L316.601 220.582C316.999 220.514 317.405 220.494 317.808 220.524C317.944 220.486 318.722 220.641 318.314 220.544C318.778 220.618 319.235 220.743 319.676 220.914C319.676 220.908 319.673 220.903 319.67 220.9C319.666 220.896 319.662 220.893 319.655 220.893C320.02 221.069 320.371 221.269 320.706 221.497L320.629 221.457C320.866 221.633 321.081 221.835 321.27 222.061H321.251C321.436 222.301 321.592 222.562 321.717 222.838C321.757 222.917 321.874 223.267 321.776 222.955C324.734 232.799 328.993 226.73 332.766 221.497C334.751 218.715 338.408 215.038 341.676 214.766C347.337 214.047 352.414 219.416 353.036 224.726C353.444 228.247 352.744 231.223 351.48 234.334Z" fill="#452D34"/>
<path d="M319.676 220.914C319.89 221.011 319.753 220.933 319.676 220.914V220.914Z" fill="#452D34"/>
<path d="M246.36 148.454C238.209 136.569 207.922 135.966 198.235 139.156C174.62 146.937 172.986 164.035 173.122 168.334C173.122 168.334 180.008 160.689 183.821 158.102C187.634 155.515 192.749 151.897 199.285 149.854C205.821 147.812 215.139 145.692 222.531 145.264C235.719 144.486 246.36 148.454 246.36 148.454Z" fill="#D13535"/>
<path d="M265.831 299.694C281.626 276.255 275.81 241.533 252.857 224.804C264.625 211.829 268.01 190.646 259.004 175.375C263.245 130.986 174.932 125.033 172.811 171.018C168.94 176.368 165.673 193.213 174.893 193.155C172.559 233.44 223.582 255.674 251.379 226.379C292.305 256.413 269.528 323.95 218.738 323.192C176.741 324.184 150.247 274.367 173.434 239.684C173.586 239.444 173.637 239.153 173.575 238.877C173.513 238.599 173.343 238.359 173.103 238.205C172.863 238.054 172.573 238.003 172.296 238.065C172.018 238.126 171.777 238.297 171.625 238.537C160.168 256.53 159.603 280.826 170.983 298.702C158.183 310.898 151.317 327.084 151.142 345.582C151.139 345.723 151.165 345.863 151.218 345.995C151.271 346.126 151.349 346.244 151.449 346.344C151.549 346.445 151.668 346.522 151.799 346.576C151.93 346.628 152.07 346.655 152.212 346.652C152.492 346.652 152.761 346.541 152.961 346.345C153.161 346.149 153.276 345.882 153.281 345.601C153.456 327.842 159.992 312.281 172.17 300.53C192.516 332.802 243.598 333.347 264.606 301.503C276.395 313.641 282.775 329.729 282.6 346.924C282.6 347.208 282.712 347.48 282.912 347.68C283.113 347.881 283.386 347.993 283.669 347.993C283.808 347.996 283.947 347.971 284.077 347.919C284.206 347.868 284.325 347.791 284.424 347.693C284.524 347.595 284.603 347.478 284.657 347.35C284.712 347.221 284.739 347.083 284.739 346.944C284.933 329.029 278.223 312.281 265.831 299.694ZM180.417 155.301C194.851 137.58 225.216 137.463 243.442 148.921C219.497 142.91 191.583 149.835 174.893 168.47C175.36 164.21 177.402 159.113 180.417 155.301ZM172.811 190.743C170.38 188.506 170.866 184.674 171.139 181.698C172.17 170.59 182.09 163.451 190.863 157.985C211.268 146.392 257.312 139.447 257.992 173.703C247.741 172.127 237.373 165.825 226.324 166.797C209.946 167.517 194.617 175.628 183.355 187.261C180.514 189.264 175.924 192.61 172.811 190.743ZM219.477 237.681C195.726 238.205 175.282 216.477 177.052 192.824C180.651 191.852 184.638 189.07 187.187 186.502C210.043 164.015 233.113 166.836 256.689 175.648C272.854 202.258 250.27 238.615 219.477 237.681Z" fill="#452D34"/>
<path d="M221.071 262.716C220.838 271.099 208.369 270.983 208.311 262.599C208.252 254.216 221.013 254.333 221.071 262.716Z" fill="#CE9C5C"/>
<path d="M220.721 295.648C220.508 304.033 208.019 303.916 207.961 295.531C208.194 287.148 220.683 287.265 220.721 295.648Z" fill="#CE9C5C"/>
<path d="M212.337 269.407C202.456 269.154 202.533 254.644 212.415 254.506C222.18 254.838 222.122 269.173 212.337 269.407ZM212.337 256.647C205.393 256.744 205.335 267.074 212.279 267.268C215.138 267.345 217.687 264.855 217.648 261.995C217.745 259.137 215.216 256.589 212.337 256.647Z" fill="#452D34"/>
<path d="M212.007 302.339C205.51 302.535 202.028 293.956 206.794 289.56C211.249 284.91 219.71 288.491 219.457 294.967C219.432 296.928 218.636 298.8 217.242 300.179C215.849 301.559 213.968 302.335 212.007 302.339ZM212.007 289.579C205.063 289.677 205.004 300.025 211.949 300.2C218.893 300.375 219.01 289.696 212.007 289.579Z" fill="#452D34"/>
</svg>
