<svg width="556" height="425" viewBox="0 0 556 425" fill="none" xmlns="http://www.w3.org/2000/svg">
<path d="M61.6506 279.826C29.1012 191.315 107.65 92.556 211.307 59.0111C314.964 25.4662 453.758 59.9994 486.307 148.511C518.856 237.023 480.464 346.966 376.807 380.511C273.15 414.056 94.1999 368.338 61.6506 279.826Z" fill="white"/>
<path d="M233.027 191.979C229.215 192.033 228.682 188.008 228.229 185.103L226.043 187.848C222.818 191.899 216.474 187.448 219.14 183.077C213.196 184.01 210.957 174.734 220.366 174.254C217.407 172.788 214.049 170.682 216.048 166.924C218.473 163.166 221.965 165.298 224.817 167.111C224.018 163.859 223.218 159.754 227.509 158.794C231.801 157.835 232.627 162.286 233.08 165.591L235.293 162.846C238.758 158.554 245.261 163.805 241.85 168.097L239.904 170.549C247.474 167.857 249.926 176.28 244.115 178.306C248.3 181.371 244.035 187.928 239.504 185.316L236.519 183.583C237.478 187.208 238.011 191.579 233.027 191.979ZM228.842 181.584C230.948 181.611 230.015 188.701 231.854 189.5C233.693 190.3 235.479 189.154 235.079 187.395C235.133 186.568 233.293 181.104 234.413 180.651C234.579 180.534 234.775 180.467 234.978 180.457C235.181 180.448 235.383 180.497 235.559 180.598L240.57 183.477C240.806 183.616 241.068 183.706 241.339 183.744C241.61 183.782 241.886 183.766 242.151 183.696C242.416 183.627 242.665 183.506 242.883 183.34C243.101 183.174 243.285 182.967 243.422 182.73C244.648 180.704 242.063 179.452 240.65 178.705C239.797 178.252 240.037 176.893 240.97 176.733C242.596 176.466 245.661 176.226 245.155 173.828C244.275 169.829 237.905 174.547 236.359 172.655C236.253 172.469 236.205 172.256 236.219 172.043C236.233 171.83 236.31 171.625 236.439 171.455L240.197 166.764C241.903 164.685 238.624 162.02 236.945 164.152L233.293 168.71C233.166 168.865 232.998 168.98 232.808 169.044C232.617 169.107 232.413 169.116 232.218 169.069C232.024 169.021 231.846 168.92 231.706 168.776C231.566 168.633 231.47 168.453 231.428 168.257C230.761 166.498 231.135 160.154 227.909 160.873C224.684 161.593 227.296 167.111 227.323 168.976C227.359 169.176 227.338 169.381 227.261 169.569C227.185 169.756 227.057 169.918 226.892 170.036C226.727 170.153 226.532 170.221 226.33 170.232C226.128 170.243 225.927 170.195 225.75 170.096L220.739 167.217C218.42 165.831 216.288 169.51 218.66 170.816L223.911 173.854C224.096 173.964 224.243 174.127 224.333 174.322C224.424 174.517 224.453 174.735 224.417 174.947C224.373 175.159 224.269 175.355 224.118 175.51C223.967 175.666 223.775 175.776 223.565 175.827L217.834 176.919C215.195 177.373 215.968 181.557 218.607 180.998L221.512 180.465C221.723 180.43 221.94 180.461 222.134 180.551C222.328 180.642 222.49 180.789 222.599 180.973C222.709 181.157 222.76 181.369 222.747 181.583C222.733 181.797 222.656 182.001 222.525 182.17L221.112 183.93C219.406 186.009 222.712 188.674 224.391 186.542C224.924 186.115 228.016 181.344 228.842 181.584Z" fill="#D13535"/>
<path d="M262.16 85.3607C258.321 85.4139 257.815 81.3625 257.362 78.4836L255.149 81.2292C251.951 85.254 245.607 80.8293 248.273 76.4314C242.329 77.3643 240.09 68.0883 249.499 67.6352C246.54 66.1426 243.182 64.0635 245.181 60.2785C247.58 56.5203 251.071 58.6526 253.923 60.4651C253.124 57.2133 252.324 53.135 256.616 52.1488C260.907 51.1626 261.76 55.6406 262.213 58.9458C263.493 57.5065 265.012 54.7077 267.224 54.6544C270.823 54.1214 273.354 58.7059 270.982 61.4514L269.037 63.9036C271.943 62.9973 275.621 63.1572 276.339 66.7823C276.544 67.8363 276.336 68.9281 275.763 69.8346C275.187 70.7412 274.288 71.3943 273.247 71.6602C277.433 74.752 273.141 81.3091 268.637 78.697L265.651 76.9644C266.584 80.5629 267.117 84.9608 262.16 85.3607ZM257.975 74.9386C260.081 74.9652 259.148 82.0554 260.987 82.8551C262.826 83.6547 264.612 82.5086 264.212 80.7494C264.266 79.9231 262.426 74.4854 263.546 74.0057C263.712 73.8885 263.908 73.8212 264.111 73.8118C264.314 73.8022 264.516 73.851 264.692 73.9524L269.703 76.8577C270.186 77.1222 270.754 77.1895 271.284 77.0453C271.817 76.9012 272.271 76.557 272.555 76.0847C273.755 74.0591 271.195 72.8063 269.756 72.0599C268.93 71.6067 269.143 70.2474 270.103 70.1141C271.701 69.8209 274.767 69.5811 274.261 67.1822C273.407 63.1838 267.038 67.9284 265.492 66.0359C265.38 65.847 265.329 65.6292 265.343 65.4106C265.357 65.1919 265.437 64.9826 265.572 64.8099L269.33 60.1452C271.036 58.0661 267.731 55.4008 266.078 57.5331L262.426 62.0911C262.297 62.2461 262.127 62.3613 261.935 62.4232C261.743 62.4852 261.537 62.4914 261.342 62.4412C261.146 62.3909 260.969 62.2862 260.831 62.1394C260.693 61.9924 260.599 61.8093 260.56 61.6114C259.867 59.8522 260.241 53.5349 257.015 54.2279C256.473 54.3376 255.995 54.6562 255.686 55.1152C255.377 55.5741 255.261 56.1362 255.363 56.6802L256.456 62.3576C256.492 62.5569 256.471 62.7623 256.394 62.9499C256.318 63.1375 256.19 63.2996 256.025 63.4169C255.86 63.5344 255.665 63.6024 255.463 63.613C255.26 63.6237 255.059 63.5766 254.883 63.4771L249.872 60.5717C247.553 59.1856 245.421 62.864 247.793 64.1968L253.017 67.2088C253.204 67.3176 253.355 67.4797 253.45 67.6742C253.545 67.8688 253.58 68.0871 253.55 68.3017C253.516 68.5181 253.415 68.7188 253.263 68.8761C253.11 69.0335 252.913 69.14 252.697 69.1812L246.967 70.2741C244.301 70.7272 245.074 74.912 247.74 74.3789L250.618 73.8191C250.832 73.7781 251.052 73.8033 251.251 73.8912C251.45 73.9792 251.617 74.1258 251.73 74.3113C251.843 74.497 251.897 74.7126 251.884 74.9295C251.871 75.1464 251.792 75.3541 251.658 75.525L250.245 77.2843C248.539 79.3633 251.844 82.0288 253.497 79.8963C254.057 79.47 257.149 74.6988 257.975 74.9386Z" fill="#D13535"/>
<path d="M148.104 135.098C147.822 135.098 147.55 134.986 147.35 134.786C147.15 134.586 147.038 134.315 147.038 134.032V108.79C147.038 108.507 147.15 108.236 147.35 108.036C147.55 107.836 147.822 107.724 148.104 107.724C148.387 107.724 148.658 107.836 148.858 108.036C149.058 108.236 149.171 108.507 149.171 108.79V134.032C149.171 134.315 149.058 134.586 148.858 134.786C148.658 134.986 148.387 135.098 148.104 135.098Z" fill="#CE9C5C"/>
<path d="M139.069 133.339C138.946 133.341 138.824 133.318 138.709 133.272C138.595 133.227 138.491 133.159 138.403 133.072C138.189 132.891 138.054 132.633 138.03 132.354C138.005 132.074 138.091 131.796 138.269 131.58L156.315 110.069C156.504 109.888 156.754 109.783 157.016 109.774C157.278 109.765 157.535 109.853 157.736 110.022C157.937 110.19 158.07 110.426 158.107 110.686C158.145 110.946 158.086 111.21 157.941 111.429L139.895 132.966C139.792 133.084 139.665 133.178 139.523 133.242C139.38 133.307 139.225 133.34 139.069 133.339Z" fill="#CE9C5C"/>
<path d="M158.047 132.513C157.907 132.517 157.767 132.491 157.638 132.436C157.509 132.38 157.394 132.297 157.301 132.193L137.416 112.335C137.221 112.136 137.111 111.868 137.111 111.589C137.111 111.31 137.221 111.042 137.416 110.842C137.515 110.742 137.634 110.662 137.764 110.607C137.894 110.552 138.034 110.524 138.176 110.524C138.317 110.524 138.457 110.552 138.587 110.607C138.718 110.662 138.836 110.742 138.935 110.842L158.793 130.7C158.988 130.899 159.098 131.167 159.098 131.447C159.098 131.726 158.988 131.994 158.793 132.193C158.697 132.294 158.581 132.374 158.453 132.429C158.324 132.484 158.186 132.512 158.047 132.513Z" fill="#CE9C5C"/>
<path d="M160.739 122.491H135.47C135.188 122.491 134.917 122.378 134.717 122.178C134.517 121.978 134.404 121.707 134.404 121.424C134.404 121.142 134.517 120.87 134.717 120.671C134.917 120.47 135.188 120.358 135.47 120.358H160.739C161.022 120.358 161.293 120.47 161.493 120.671C161.693 120.87 161.805 121.142 161.805 121.424C161.805 121.707 161.693 121.978 161.493 122.178C161.293 122.378 161.022 122.491 160.739 122.491Z" fill="#CE9C5C"/>
<path d="M358.543 271.464C351.987 275.328 341.218 292.468 340.018 300.011C339.991 301.717 342.684 301.717 342.684 300.011C342.68 299.885 342.689 299.761 342.71 299.639C342.71 299.424 342.657 299.985 342.657 299.878C342.877 298.758 343.227 297.666 343.697 296.626C343.777 296.413 343.697 296.653 343.644 296.733C346.228 290.815 350.441 284.205 353.932 279.62C355.132 277.968 357.663 275.248 358.597 274.556C358.996 274.242 359.436 273.983 359.903 273.782C361.396 272.957 360.036 270.637 358.543 271.464Z" fill="#452D34"/>
<path d="M272.662 335.488C273.709 343.314 273.96 351.227 273.409 359.105C273.404 359.28 273.436 359.456 273.502 359.619C273.567 359.783 273.667 359.93 273.791 360.054C273.915 360.18 274.064 360.278 274.228 360.343C274.391 360.409 274.565 360.441 274.741 360.438C277.753 360.517 275.887 343.485 275.887 340.685C275.435 339.033 276.153 334.235 273.995 334.155C273.354 334.182 272.555 334.743 272.662 335.488Z" fill="#452D34"/>
<path d="M301.209 150.398C304.647 149.812 306.726 151.331 307.473 154.13C308.219 156.929 305.874 160.34 302.169 161.326C301.422 161.532 300.65 161.621 299.876 161.593C299.557 157.835 300.142 154.103 301.209 150.398Z" fill="#D13535"/>
<path d="M344.34 164.527C345.478 161.653 343.504 158.176 339.931 156.762C336.36 155.347 332.542 156.531 331.402 159.405C330.264 162.279 332.238 165.756 335.811 167.17C339.382 168.585 343.202 167.401 344.34 164.527Z" fill="#D13535"/>
<path d="M214.182 240.971C215.727 241.104 216.607 237.773 215.008 237.373C213.409 236.972 217.433 235.746 217.433 233.694C217.433 231.642 215.701 229.723 213.675 229.51C212.716 229.402 211.116 229.723 210.956 230.655C211.889 229.483 208.824 238.252 206.238 238.678C205.146 238.864 207.198 239.319 207.198 239.319L214.182 240.971Z" fill="#D13535"/>
<path d="M271.062 329.171C271.096 329.32 271.094 329.473 271.057 329.622C271.021 329.769 270.952 329.906 270.853 330.021C270.755 330.138 270.631 330.231 270.492 330.291C270.353 330.351 270.201 330.378 270.05 330.371L266.025 330.158C264.159 330.051 261.813 328.266 261.44 326.425C261.227 325.36 261.92 324.24 262.853 323.628C263.234 323.379 263.646 323.182 264.079 323.04C264.174 323.01 264.258 322.951 264.318 322.873C264.378 322.793 264.412 322.696 264.415 322.596C264.418 322.497 264.39 322.399 264.334 322.316C264.279 322.232 264.199 322.17 264.106 322.135H264.079C263.509 321.948 262.991 321.634 262.565 321.212C262.139 320.791 261.818 320.276 261.627 319.708C260.747 316.963 264.132 316.137 265.119 316.989L269.81 317.79C269.836 321.574 270.103 325.12 270.849 328.157C270.929 328.452 271.009 328.825 271.062 329.171Z" fill="#D13535"/>
<path d="M304.248 206.959C303.501 204.8 303.261 202.188 305.208 201.015C307.154 199.843 310.086 200.882 310.885 203.014C311.524 201.095 313.631 199.789 315.656 200.029C316.659 200.178 317.584 200.658 318.285 201.392C318.984 202.125 319.419 203.072 319.522 204.081C319.843 203.098 320.475 202.246 321.322 201.651C322.168 201.057 323.184 200.752 324.219 200.782C325.252 200.811 326.249 201.175 327.06 201.817C327.87 202.46 328.452 203.347 328.716 204.347C329 203.436 329.565 202.637 330.33 202.065C331.093 201.494 332.02 201.178 332.973 201.163C333.928 201.148 334.863 201.435 335.644 201.983C336.425 202.531 337.015 203.312 337.327 204.214C337.913 202.561 339.379 201.069 341.138 200.962C342.897 200.856 344.656 202.695 344.097 204.347C344.576 201.495 348.094 200.376 350.92 200.989C355.026 201.922 355.132 210.051 355.026 210.798C354.679 212.93 353.799 213.81 351.827 214.689C349.855 215.569 347.695 215.756 345.563 215.889C333.807 216.634 321.92 215.702 310.539 212.77C308.913 212.371 305.768 211.41 304.248 206.959Z" fill="#D13535"/>
<path d="M361.742 163.992C366.221 163.112 373.951 157.168 368.512 152.877C365.527 151.118 363.821 155.089 367.02 155.116C366.487 155.196 367.099 155.116 367.099 155.143C367.099 155.169 367.046 155.116 367.153 155.169C366.647 154.903 367.634 155.489 367.179 155.169C367.259 155.223 367.66 155.702 367.394 155.382C367.527 155.463 367.607 155.702 367.687 155.862C367.501 155.409 367.767 156.102 367.74 156.155C367.687 155.676 367.74 156.369 367.714 156.449C367.767 156.022 367.607 156.928 367.527 157.008C367.687 156.689 367.206 157.595 367.099 157.702C366.61 158.285 366.056 158.813 365.447 159.274C364.606 159.902 363.693 160.429 362.729 160.847C362.183 161.074 361.622 161.261 361.05 161.406C359.369 161.86 360.09 164.445 361.742 163.992Z" fill="#452D34"/>
<path d="M316.457 160.287C315.816 160.447 315.79 160.5 315.097 160.447L314.35 160.234C313.919 160.062 313.541 159.776 313.258 159.407C312.724 158.608 312.697 158.288 312.724 157.275C312.751 157.142 313.017 156.235 312.884 156.635L313.232 156.022L313.338 155.916C313.597 155.641 313.873 155.383 314.164 155.143L314.297 155.036L321.335 150.078C321.894 149.678 322.213 148.905 321.814 148.266C321.414 147.626 320.587 147.359 319.975 147.786C315.443 151.251 305.289 155.702 312.351 162.153C313.818 163.299 318.296 163.965 318.083 161.22C317.868 160.554 317.149 160.047 316.457 160.287Z" fill="#452D34"/>
<path d="M330.956 170.069C329.943 171.482 328.051 172.735 327.01 173.161C326.111 173.524 325.172 173.783 324.211 173.934C323.372 174.041 322.522 174.041 321.68 173.934H321.547C320.936 173.849 320.338 173.697 319.761 173.481C318.109 173.001 317.388 175.587 319.041 176.067C323.945 177.719 330.93 175.88 333.221 171.029C333.274 169.909 331.675 169.19 330.956 170.069Z" fill="#452D34"/>
<path d="M336.01 149.716C337.331 149.17 337.955 147.657 337.41 146.338C336.864 145.019 335.351 144.392 334.031 144.939C332.712 145.485 332.085 146.998 332.632 148.317C333.179 149.636 334.691 150.262 336.01 149.716Z" fill="#452D34"/>
<path d="M313.232 145.76C314.659 145.76 315.816 144.603 315.816 143.175C315.816 141.747 314.659 140.589 313.232 140.589C311.803 140.589 310.646 141.747 310.646 143.175C310.646 144.603 311.803 145.76 313.232 145.76Z" fill="#452D34"/>
<path d="M344.176 142.268C342.497 140.776 333.647 135.338 332.316 138.35C332.181 139.017 332.529 139.843 333.248 139.976C336.187 140.54 338.968 141.731 341.404 143.468C341.711 143.673 342.004 143.895 342.284 144.134C343.511 145.36 345.429 143.468 344.176 142.268Z" fill="#452D34"/>
<path d="M315.523 135.098C315.424 134.764 315.2 134.48 314.896 134.307C314.593 134.133 314.236 134.082 313.897 134.165C311.524 134.908 309.257 135.956 307.154 137.284C305.688 138.163 307.021 140.456 308.513 139.576C309.722 138.814 310.986 138.146 312.298 137.577C313.444 136.911 315.922 136.937 315.523 135.098Z" fill="#452D34"/>
<path d="M222.045 306.382C220.099 305.929 218.846 305.581 216.9 305.075C156.661 289.242 111.588 262.135 116.226 244.542C118.811 234.707 136.35 229.67 161.805 230.122L170.148 230.602C171.241 230.655 169.482 238.705 174.36 238.944C179.237 239.186 178.757 232.174 179.904 232.281L183.102 232.228C184.648 232.387 183.129 237.746 186.727 238.252C191.525 238.891 191.019 233.614 192.591 233.827L195.283 233.667C196.323 233.853 191.392 238.784 197.656 240.33C204.559 242.01 203.173 235.373 204.586 235.639C205.279 235.772 209.17 238.838 209.863 238.973C212.236 239.452 217.513 240.49 219.832 240.998C220.579 241.158 221.085 241.557 221.832 241.743C224.204 242.278 230.921 243.103 233.4 243.715C235.239 244.17 231.72 240.811 233.666 241.344C293.878 257.177 338.953 284.285 334.341 301.877C330.475 316.59 292.6 319.868 245.341 311.393C245.341 311.393 237.638 301.877 233.933 301.93C231.827 301.957 227.535 307.582 227.535 307.582L222.045 306.382Z" fill="#EFDCC4"/>
<path d="M228.416 309.74L223.245 308.407C193.924 300.703 167.243 290.149 148.105 278.74C129.74 267.759 120.384 257.044 122.41 249.34C124.622 240.918 144.08 235.639 170.815 236.173C171.202 236.173 171.573 236.022 171.852 235.754C172.13 235.486 172.294 235.121 172.307 234.734C172.311 234.54 172.277 234.35 172.206 234.171C172.136 233.992 172.031 233.827 171.897 233.688C171.763 233.55 171.604 233.44 171.427 233.362C171.251 233.285 171.061 233.245 170.868 233.241C157.621 232.975 145.866 234.12 136.857 236.546C126.914 239.212 120.944 243.369 119.584 248.595C118.305 253.393 120.224 258.776 125.289 264.614C129.953 269.971 137.123 275.568 146.612 281.246C165.964 292.814 192.912 303.476 222.498 311.233C224.471 311.765 225.75 312.085 227.723 312.566C227.833 312.608 227.951 312.626 228.069 312.619C228.399 312.617 228.719 312.507 228.98 312.305C229.24 312.101 229.426 311.819 229.508 311.499C229.596 311.121 229.531 310.723 229.326 310.393C229.121 310.063 228.794 309.829 228.416 309.74Z" fill="#452D34"/>
<path d="M337.247 291.294C332.582 285.937 325.411 280.339 315.922 274.662C296.544 263.095 269.597 252.432 240.01 244.649C228.069 241.53 214.368 238.518 204.266 236.786C204.075 236.752 203.88 236.757 203.691 236.8C203.502 236.842 203.323 236.921 203.164 237.032C203.006 237.144 202.871 237.284 202.768 237.45C202.664 237.613 202.593 237.794 202.56 237.986C202.527 238.175 202.531 238.371 202.574 238.561C202.616 238.749 202.695 238.928 202.806 239.086C202.918 239.246 203.059 239.381 203.223 239.484C203.386 239.588 203.569 239.658 203.759 239.691C213.808 241.37 227.402 244.383 239.264 247.501C268.584 255.205 295.291 265.759 314.403 277.167C332.769 288.149 342.151 298.865 340.124 306.568C338.418 312.965 328.876 317.364 313.205 318.936C297.531 320.509 275.727 319.096 252.484 314.911C252.295 314.873 252.1 314.873 251.911 314.911C251.721 314.95 251.542 315.026 251.383 315.136C251.223 315.244 251.088 315.384 250.984 315.548C250.88 315.711 250.81 315.894 250.778 316.084C250.708 316.465 250.792 316.859 251.012 317.179C251.232 317.498 251.57 317.719 251.951 317.79C269.17 320.908 285.483 322.508 299.344 322.508C304.069 322.529 308.794 322.307 313.497 321.842C330.717 320.134 340.898 315.097 342.95 307.314C344.203 302.516 342.284 297.132 337.247 291.294Z" fill="#452D34"/>
<path d="M135.603 247.315C133.524 255.232 148.291 264.481 161.032 270.852C178.464 279.567 202.4 288.122 228.442 294.974C254.483 301.824 279.538 306.142 298.971 307.127C301.529 307.26 304.168 307.34 306.832 307.34C318.961 307.34 330.983 305.634 332.715 299.131C334.794 291.241 320.028 281.965 307.26 275.594C289.854 266.906 265.918 258.324 239.876 251.472C213.835 244.622 188.78 240.304 169.322 239.319C155.088 238.598 137.682 239.399 135.603 247.315ZM305.954 278.234C314.27 282.393 320.613 286.337 324.772 289.963C328.929 293.588 330.422 296.278 329.863 298.385C329.304 300.491 326.345 302.196 321.281 303.236C316.215 304.277 308.405 304.676 299.131 304.195C279.886 303.21 255.043 298.944 229.188 292.148C203.333 285.352 179.584 276.847 162.338 268.239C154.022 264.08 147.705 260.136 143.546 256.511C139.388 252.885 137.869 250.194 138.429 248.061C138.988 245.929 141.974 244.25 147.038 243.209C150.823 242.437 155.648 242.036 161.379 242.036C163.804 242.036 166.416 242.116 169.188 242.251C188.433 243.236 213.275 247.528 239.13 254.325C264.985 261.121 288.708 269.598 305.954 278.234Z" fill="#452D34"/>
<path d="M202.4 244.516C199.708 244.303 197.282 245.583 196.989 247.368L196.109 253.018C196.056 253.393 195.496 253.606 194.99 253.472L194.643 253.393C194.323 253.313 194.083 253.071 194.11 252.832C194.19 250.54 192.724 248.3 189.872 246.887C185.794 244.889 179.983 245.343 176.438 247.927C172.386 250.886 172.52 255.578 176.838 258.244C179.557 259.896 183.048 260.242 186.354 259.548C186.521 259.509 186.696 259.509 186.863 259.552C187.03 259.593 187.184 259.674 187.313 259.79C187.58 260.136 187.393 260.562 186.913 260.695L179.104 262.988C176.411 263.787 174.972 266.054 175.958 268.106C176.944 270.184 180.036 271.224 182.835 270.397L188.539 268.691C191.365 267.839 194.617 268.478 196.642 270.291L214.607 286.257C216.767 287.883 220.658 287.164 223.137 284.711C225.589 282.286 225.776 279.088 223.59 277.568L213.328 270.53L214.687 269.197L226.256 274.742C228.708 275.916 232.413 274.849 234.412 272.451C236.384 270.078 235.958 267.278 233.559 266.213L210.449 257.843C207.864 256.911 206.291 255.045 206.505 253.151L207.011 248.167C207.198 246.328 205.118 244.702 202.4 244.516Z" fill="#D13535"/>
<path d="M215.195 288.335C211.969 289.642 195.79 272.557 193.364 271.118C191.738 269.678 188.966 269.144 186.674 269.838L180.943 271.544C171.427 273.942 167.936 262.64 178.065 260.828C170.548 259.763 166.336 251.472 173.293 246.488C178.731 242.411 189.766 243.023 192.778 249.846L193.231 246.887C193.791 242.331 202.48 241.424 205.199 245.075C207.011 246.781 205.679 250.966 205.652 253.045C205.519 254.218 206.745 255.524 208.638 256.217L231.747 264.588C232.474 264.868 233.122 265.321 233.637 265.905C234.152 266.489 234.518 267.19 234.706 267.946C235.958 273.569 227.829 278.181 223.324 275.809L217.86 273.196C219.912 274.822 224.284 276.634 224.257 279.78C224.764 284.231 219.406 288.523 215.195 288.335ZM213.222 284.87C215.621 286.764 221.672 283.564 221.325 280.046C221.272 277.568 209.97 272.717 209.57 270.424C209.384 269.465 210.823 268.505 211.329 267.919C211.544 267.701 211.821 267.555 212.122 267.502C212.423 267.451 212.733 267.493 213.009 267.625L224.604 273.17C227.003 274.476 232.36 271.917 231.854 268.612C232.76 267.119 208.184 259.548 207.625 258.963C204.373 257.789 202.454 255.338 202.72 252.725C202.64 252.193 203.653 247.315 202.933 246.969C201.92 245.235 196.376 245.37 196.136 247.342C195.763 248.54 195.683 253.712 194.351 254.325C193.018 254.939 190.192 254.378 190.326 252.512C189.873 246.115 179.104 245.583 174.999 248.861C171.801 251.126 171.907 254.697 175.319 256.724C177.558 258.111 180.623 258.51 183.742 257.843C185.288 257.443 186.994 258.803 186.514 260.402C185.528 263.654 173.613 262.614 174.973 267.199C175.559 268.478 177.825 269.412 180.117 268.718C184.888 267.119 191.205 264.987 195.31 268.931L213.222 284.87Z" fill="#452D34"/>
<path d="M178.118 253.526C178.382 253.526 178.639 253.448 178.858 253.3C179.078 253.155 179.248 252.945 179.349 252.702C179.45 252.459 179.477 252.191 179.425 251.932C179.374 251.674 179.247 251.437 179.06 251.25C178.874 251.064 178.636 250.936 178.378 250.885C178.119 250.833 177.851 250.86 177.608 250.961C177.364 251.062 177.156 251.232 177.01 251.453C176.863 251.671 176.785 251.928 176.785 252.193C176.792 252.544 176.935 252.88 177.183 253.126C177.432 253.375 177.767 253.519 178.118 253.526Z" fill="white"/>
<path d="M182.356 250.354C182.62 250.354 182.877 250.276 183.097 250.128C183.316 249.983 183.487 249.773 183.587 249.53C183.688 249.287 183.715 249.019 183.663 248.76C183.612 248.502 183.485 248.265 183.299 248.078C183.112 247.892 182.875 247.764 182.616 247.713C182.358 247.661 182.09 247.688 181.846 247.789C181.603 247.89 181.395 248.06 181.248 248.281C181.102 248.499 181.023 248.756 181.023 249.021C181.03 249.372 181.173 249.706 181.421 249.954C181.67 250.203 182.005 250.347 182.356 250.354Z" fill="white"/>
<path d="M180.677 257.283C180.353 257.287 180.037 257.18 179.78 256.983C179.524 256.785 179.342 256.506 179.264 256.19C179.167 255.816 179.221 255.418 179.416 255.084C179.61 254.749 179.93 254.506 180.304 254.404C183.342 253.606 185.261 251.472 185.261 250.38C185.261 249.992 185.416 249.619 185.691 249.344C185.966 249.069 186.339 248.914 186.727 248.914C186.921 248.911 187.113 248.946 187.293 249.017C187.472 249.09 187.635 249.198 187.772 249.335C187.909 249.472 188.017 249.635 188.089 249.814C188.162 249.994 188.197 250.187 188.193 250.38C188.193 253.151 185.075 256.19 181.05 257.257L180.677 257.283Z" fill="white"/>
<path d="M224.524 248.487C221.832 248.274 219.406 249.553 219.14 251.339L218.234 256.991C218.181 257.363 217.647 257.576 217.141 257.443L216.794 257.363C216.652 257.346 216.519 257.282 216.418 257.18C216.316 257.079 216.252 256.946 216.235 256.804C216.341 254.511 214.875 252.273 212.023 250.86C207.918 248.861 202.134 249.314 198.589 251.9C194.538 254.857 194.644 259.522 198.989 262.214C201.681 263.867 205.2 264.213 208.478 263.521C208.65 263.48 208.829 263.48 209 263.523C209.171 263.563 209.331 263.645 209.464 263.76C209.731 264.107 209.544 264.534 209.038 264.667L201.228 266.959C198.562 267.759 197.123 270.024 198.083 272.076C199.069 274.157 202.188 275.195 204.986 274.37L210.691 272.664C213.489 271.81 216.768 272.451 218.794 274.263L236.732 290.229C238.918 291.855 242.783 291.134 245.288 288.683C247.74 286.257 247.9 283.032 245.741 281.539L235.479 274.503L236.812 273.17L248.407 278.713C250.859 279.886 254.537 278.821 256.563 276.421C258.536 274.05 258.109 271.251 255.684 270.184L232.574 261.815C229.989 260.881 228.442 258.989 228.629 257.124L229.162 252.139C229.349 250.301 227.243 248.675 224.524 248.487Z" fill="#CE9C5C"/>
<path d="M241.663 291.562C238.411 292.867 222.258 275.783 219.832 274.343C218.206 272.877 215.434 272.343 213.115 273.037L207.411 274.742C197.895 277.167 194.404 265.866 204.533 264.053C197.016 262.988 192.804 254.671 199.735 249.713C205.199 245.636 216.234 246.222 219.246 253.071L219.699 250.112C220.259 245.556 228.922 244.622 231.667 248.3C233.453 250.006 232.147 254.191 232.12 256.27C231.987 257.443 233.213 258.75 235.106 259.415L258.215 267.786C258.94 268.072 259.585 268.53 260.095 269.119C260.606 269.708 260.966 270.411 261.147 271.171C262.427 276.794 254.297 281.406 249.792 279.034L244.328 276.422C246.381 278.021 250.752 279.86 250.725 283.005C251.232 287.457 245.847 291.749 241.663 291.562ZM239.69 288.069C241.263 289.216 244.328 288.55 246.274 286.63C247.713 285.165 248.566 283.005 246.914 281.752L236.652 274.716C236.477 274.592 236.331 274.432 236.224 274.245C236.118 274.061 236.054 273.853 236.036 273.64C236.018 273.427 236.047 273.212 236.121 273.01C236.196 272.809 236.313 272.627 236.465 272.477C237.211 271.81 238.277 270.184 239.477 270.852L251.045 276.368C252.884 277.249 255.869 276.368 257.442 274.476C258.615 273.09 258.828 271.331 257.149 270.53L234.093 262.188C230.841 261.015 228.922 258.563 229.188 255.95L229.721 250.966C229.508 249.686 228.282 249.181 226.443 248.941C224.604 248.701 222.684 249.74 222.604 250.567C222.125 251.927 222.231 256.964 220.765 257.576C219.299 258.19 216.607 257.523 216.794 255.658C216.207 249.287 205.519 248.781 201.387 252.14C198.215 254.431 198.455 258.029 201.84 260.003C204.079 261.336 207.171 261.735 210.263 261.041C213.355 260.349 214.155 264.346 211.463 265.067L203.573 267.385C198.749 269.064 202.507 273.303 206.585 271.943L212.396 270.211C215.594 269.171 219.886 270.291 221.778 272.156L239.69 288.069Z" fill="#452D34"/>
<path d="M204.586 256.751C204.849 256.751 205.107 256.673 205.326 256.526C205.545 256.38 205.716 256.171 205.817 255.927C205.918 255.684 205.944 255.416 205.893 255.157C205.841 254.9 205.714 254.662 205.528 254.475C205.342 254.289 205.104 254.161 204.846 254.11C204.587 254.058 204.319 254.085 204.075 254.186C203.832 254.287 203.624 254.458 203.477 254.678C203.331 254.896 203.253 255.153 203.253 255.418C203.26 255.769 203.402 256.105 203.651 256.352C203.899 256.6 204.234 256.744 204.586 256.751Z" fill="white"/>
<path d="M208.824 253.579C209.088 253.579 209.345 253.501 209.564 253.354C209.784 253.208 209.954 252.999 210.055 252.755C210.156 252.512 210.183 252.244 210.131 251.985C210.08 251.728 209.953 251.49 209.766 251.303C209.58 251.117 209.343 250.989 209.084 250.938C208.825 250.886 208.558 250.913 208.314 251.014C208.071 251.115 207.862 251.286 207.716 251.506C207.569 251.724 207.491 251.981 207.491 252.246C207.498 252.597 207.641 252.933 207.889 253.18C208.138 253.428 208.473 253.572 208.824 253.579Z" fill="white"/>
<path d="M207.145 260.509C206.792 260.505 206.452 260.372 206.189 260.138C205.925 259.903 205.755 259.582 205.709 259.231C205.664 258.881 205.747 258.526 205.942 258.233C206.137 257.938 206.432 257.724 206.772 257.629C209.811 256.831 211.73 254.697 211.73 253.606C211.73 253.217 211.884 252.844 212.159 252.569C212.434 252.294 212.807 252.139 213.196 252.139C213.389 252.136 213.581 252.171 213.761 252.242C213.94 252.315 214.103 252.423 214.24 252.56C214.377 252.697 214.485 252.86 214.557 253.039C214.63 253.219 214.665 253.412 214.662 253.606C214.662 256.376 211.516 259.415 207.518 260.455C207.399 260.5 207.272 260.517 207.145 260.509Z" fill="white"/>
<path d="M247.687 252.273C244.995 252.06 242.569 253.339 242.276 255.152L241.396 260.775C241.343 261.148 240.783 261.362 240.277 261.256L239.93 261.148C239.584 261.068 239.37 260.828 239.397 260.589C239.477 258.297 238.011 256.057 235.159 254.671C231.081 252.645 225.27 253.098 221.725 255.684C217.674 258.643 217.807 263.334 222.125 265.999C224.844 267.653 228.335 267.999 231.641 267.305C231.81 267.264 231.987 267.266 232.155 267.312C232.323 267.36 232.477 267.449 232.6 267.571C232.867 267.893 232.68 268.319 232.2 268.452L224.39 270.743C221.698 271.544 220.259 273.835 221.245 275.862C222.232 277.941 225.323 278.981 228.122 278.154L233.826 276.448C236.652 275.596 239.904 276.235 241.929 278.047L259.895 294.014C262.054 295.639 265.945 294.947 268.424 292.468C270.877 290.043 271.063 286.844 268.877 285.352L258.615 278.314L259.975 276.981L271.542 282.499C273.995 283.672 277.7 282.632 279.698 280.206C281.672 277.834 281.244 275.035 278.846 273.968L255.736 265.599C253.124 264.667 251.578 262.8 251.765 260.908L252.298 255.924C252.485 254.085 250.406 252.459 247.687 252.273Z" fill="#D13535"/>
<path d="M265.172 297.745C261.947 299.078 245.767 281.993 243.342 280.554C241.716 279.088 238.971 278.553 236.652 279.247L230.921 280.953C221.405 283.378 217.94 272.05 228.042 270.264C220.525 269.171 216.314 260.881 223.271 255.897C228.708 251.82 239.77 252.432 242.756 259.282L243.235 256.323C243.768 251.767 252.458 250.833 255.176 254.511C256.989 256.217 255.656 260.375 255.63 262.454C255.497 263.654 256.723 264.934 258.615 265.626L281.725 273.997C282.449 274.281 283.095 274.733 283.61 275.317C284.123 275.901 284.492 276.601 284.684 277.355C285.935 283.005 277.806 287.616 273.301 285.218L267.838 282.606C269.917 284.231 274.261 286.07 274.235 289.216C274.741 293.667 269.384 297.959 265.172 297.745ZM263.2 294.28C265.599 296.199 271.649 292.973 271.302 289.455C271.276 286.977 259.948 282.126 259.548 279.833C259.361 278.901 260.801 277.941 261.334 277.329C261.546 277.116 261.818 276.974 262.114 276.922C262.41 276.869 262.714 276.908 262.986 277.034L274.581 282.579C277.007 283.885 282.338 281.326 281.832 278.047C282.737 276.528 258.162 268.958 257.629 268.372C254.35 267.199 252.431 264.774 252.698 262.161C252.644 261.602 253.631 256.724 252.938 256.376C251.925 254.671 246.354 254.777 246.114 256.778C245.741 257.976 245.688 263.121 244.355 263.734C243.022 264.346 240.197 263.814 240.303 261.921C239.85 255.524 229.082 254.992 225.003 258.27C221.778 260.562 221.885 264.133 225.297 266.16C227.536 267.518 230.601 267.919 233.72 267.252C235.292 266.879 236.998 268.239 236.492 269.838C235.505 273.09 223.591 272.023 224.95 276.634C225.536 277.888 227.802 278.821 230.094 278.154C234.866 276.528 241.183 274.396 245.288 278.34L263.2 294.28Z" fill="#452D34"/>
<path d="M228.095 262.935C228.359 262.935 228.617 262.855 228.836 262.71C229.055 262.562 229.226 262.355 229.327 262.111C229.428 261.868 229.454 261.6 229.402 261.341C229.351 261.084 229.224 260.846 229.038 260.66C228.851 260.473 228.614 260.345 228.355 260.294C228.097 260.242 227.829 260.269 227.585 260.37C227.342 260.471 227.134 260.642 226.987 260.862C226.841 261.08 226.763 261.338 226.763 261.602C226.769 261.954 226.912 262.287 227.16 262.536C227.409 262.784 227.744 262.928 228.095 262.935Z" fill="white"/>
<path d="M232.334 259.79C232.687 259.79 233.026 259.648 233.276 259.399C233.526 259.149 233.666 258.81 233.666 258.457C233.666 258.103 233.526 257.764 233.276 257.514C233.026 257.264 232.687 257.124 232.334 257.124C231.98 257.124 231.641 257.264 231.391 257.514C231.141 257.764 231.001 258.103 231.001 258.457C231.008 258.808 231.15 259.142 231.399 259.39C231.647 259.639 231.982 259.783 232.334 259.79Z" fill="white"/>
<path d="M230.654 266.719C230.331 266.717 230.018 266.611 229.763 266.412C229.507 266.215 229.324 265.938 229.242 265.626C229.144 265.251 229.199 264.854 229.393 264.518C229.588 264.185 229.907 263.941 230.281 263.84C233.32 263.041 235.266 260.908 235.266 259.79C235.266 259.401 235.42 259.026 235.695 258.753C235.97 258.478 236.343 258.323 236.732 258.323C237.12 258.323 237.493 258.478 237.768 258.753C238.043 259.026 238.198 259.401 238.198 259.79C238.198 262.587 235.053 265.599 231.028 266.666L230.654 266.719Z" fill="white"/>
<path d="M357.477 166.204C365.553 172.122 374.936 163.219 375.042 154.636C375.069 152.93 372.378 152.904 372.378 154.636C372.378 155.676 371.737 158.128 371.365 158.901C370.924 159.95 370.36 160.944 369.685 161.86C369.16 162.52 368.571 163.127 367.926 163.672C366.833 164.605 364.967 165.191 364.169 165.271C363.418 165.404 362.651 165.404 361.902 165.271C362.195 165.351 362.009 165.298 361.955 165.298C361.355 165.204 360.766 165.052 360.196 164.845C360.09 164.792 359.877 164.712 360.09 164.792L359.557 164.499C359.316 164.365 359.61 164.552 359.584 164.552C358.464 162.979 356.171 164.712 357.477 166.204Z" fill="#452D34"/>
<path d="M182.355 237.238H182.222L181.076 237.105L179.983 237.052C179.791 237.04 179.602 236.99 179.429 236.905C179.256 236.819 179.101 236.702 178.974 236.557C178.846 236.413 178.748 236.244 178.686 236.062C178.624 235.879 178.598 235.685 178.61 235.494C178.623 235.3 178.673 235.112 178.758 234.94C178.843 234.766 178.961 234.611 179.106 234.484C179.25 234.356 179.419 234.258 179.602 234.196C179.784 234.134 179.977 234.109 180.17 234.12L181.183 234.173H181.396L182.489 234.281C182.681 234.297 182.869 234.352 183.041 234.441C183.212 234.532 183.364 234.654 183.488 234.803C183.612 234.95 183.705 235.123 183.763 235.307C183.82 235.494 183.84 235.687 183.821 235.881C183.788 236.248 183.62 236.591 183.349 236.841C183.079 237.093 182.724 237.235 182.355 237.238Z" fill="#452D34"/>
<path d="M194.884 238.598H194.697C193.444 238.438 192.965 238.358 192.698 238.252L191.392 238.092C191.003 238.05 190.647 237.854 190.402 237.549C190.157 237.246 190.043 236.855 190.086 236.466C190.128 236.078 190.323 235.721 190.628 235.476C190.933 235.231 191.323 235.117 191.712 235.16C193.151 235.32 193.498 235.373 193.764 235.479C194.203 235.584 194.648 235.655 195.097 235.692C195.481 235.758 195.826 235.969 196.059 236.282C196.292 236.594 196.396 236.985 196.35 237.373C196.287 237.716 196.106 238.027 195.839 238.25C195.571 238.476 195.233 238.598 194.884 238.598Z" fill="#452D34"/>
<path d="M307.074 207.119C298.091 214.715 283.857 212.69 273.729 218.395C265.226 222.951 258.322 230.096 253.018 238.065C252.058 239.878 246.168 247.821 249.206 248.728C250.619 249.047 250.912 247.608 251.285 246.621C257.656 233.374 269.464 220.607 284.23 217.381C292.841 216.075 301.984 214.662 308.966 209.012C310.193 207.839 308.326 205.92 307.074 207.119Z" fill="#452D34"/>
<path d="M285.829 241.344C283.698 243.715 270.531 254.351 274.794 257.124C276.074 257.496 276.582 255.844 276.662 255.498C277.008 254.591 278.154 252.991 278.421 252.645C281.165 249.181 284.551 246.328 287.697 243.236C288.922 242.036 287.056 240.117 285.829 241.344Z" fill="#452D34"/>
<path d="M424.861 138.643C428.246 110.763 394.286 90.665 371.976 105.139C356.917 93.8635 313.043 82.6152 303.795 126.835C302.142 136.138 300.943 145.547 299.929 154.929C297.797 168.23 300.408 186.249 312.004 193.579C311.978 193.729 311.978 193.882 312.004 194.032C312.228 195.307 312.326 196.602 312.297 197.897C307.579 194.938 302.781 199.709 305.261 205.2C306.326 208.478 308.939 211.118 312.351 211.863C319.493 213.491 348.548 219.167 356.598 212.238C361.236 219.487 368.858 224.205 375.496 229.483C389.275 239.079 396.019 255.445 395.3 272.023C395.247 273.516 394.528 280.767 394.419 281.912C388.45 344.099 331.302 357.106 279.165 335.781C276.366 334.421 273.167 333.49 270.902 331.25C270.876 331.196 270.876 331.17 270.849 331.143C270.636 330.664 270.343 330.185 270.129 329.759C270.156 329.785 270.129 329.759 270.103 329.677C269.703 328.718 269.436 326.666 269.356 326.106C268.717 324.213 269.703 318.109 267.944 317.763C259.654 314.325 255.256 320.749 259.894 323.841C258.615 324.773 257.895 326.079 257.922 327.465C249.845 325.254 242.382 321.468 235.345 316.217C231.453 313.391 226.469 307.848 228.415 305.395C228.662 305.118 228.929 304.861 229.214 304.623C233.346 301.531 237.371 305.075 240.17 308.487C240.86 309.383 241.459 310.349 241.955 311.366C242.169 313.418 245.047 313.391 244.727 311.233C242.355 303.689 230.44 295.426 225.563 305.262C225.083 308.407 226.629 311.552 229.268 314.485C225.856 313.737 221.085 311.712 218.632 309.74C217.819 309.114 217.077 308.398 216.42 307.608C215.994 306.888 215.167 306.169 214.288 306.701C213.408 307.234 213.408 307.928 213.808 308.54C217.326 313.338 223.297 315.791 228.921 317.124C229.828 317.231 231.347 317.657 232.44 317.497C240.383 324.054 253.017 329.224 259.068 330.531H259.308C259.772 330.999 260.291 331.411 260.854 331.757C263.226 333.303 266.238 332.716 268.957 333.01C268.957 333.037 268.957 333.037 268.983 333.064C270.583 334.902 273.088 335.914 275.274 336.928C308.245 352.441 356.544 353.641 380.64 325.041C380.347 337.407 378.908 349.828 380.053 362.17C380.587 363.982 383.251 362.969 382.585 361.21C381.76 350.443 382.852 339.594 383.145 328.825C382.985 327.625 383.626 323.894 383.386 321.521C386.638 316.939 389.231 311.925 391.088 306.621C392.048 305.501 395.38 295.693 396.766 286.017C397.112 283.431 397.806 275.009 397.913 273.33C399.191 253.313 390.369 235.293 372.99 224.231C368.751 220.979 364.113 217.515 360.462 213.063C359.644 212.062 358.912 210.992 358.277 209.864C358.616 208.927 358.733 207.924 358.623 206.933C358.623 203.281 357.343 200.083 355.158 198.403V198.35C355.078 196.534 355.158 194.714 355.398 192.912C355.838 190.012 356.624 187.175 357.743 184.463C357.931 184.01 358.357 183.103 358.783 182.224C360.276 182.357 362.248 181.797 363.634 181.637C382.346 179.318 387.756 151.518 384.398 129.901C386.851 127.795 390.236 124.57 395.326 120.065C395.465 119.93 395.635 119.833 395.822 119.781C396.008 119.73 396.205 119.727 396.393 119.772C398.019 120.252 389.703 122.971 390.582 133.232C392.849 159.541 379.627 172.255 375.336 194.991C369.046 228.204 411.905 248.087 422.088 221.246C424.728 214.289 423.528 206.453 419.182 200.402C405.348 181.238 401.83 176.253 418.357 154.45C421.875 149.844 424.119 144.392 424.861 138.643ZM241.982 311.419C242.035 311.526 242.089 311.792 241.955 311.393L241.982 311.419ZM240.116 308.434C240.123 308.434 240.13 308.437 240.135 308.443C240.14 308.446 240.143 308.453 240.143 308.46C239.983 308.247 240.063 308.354 240.116 308.434ZM260.64 326.826C260.639 326.846 260.629 326.865 260.614 326.88C260.629 326.865 260.639 326.846 260.64 326.826ZM263.786 330.131C263.866 330.131 263.759 330.078 263.679 330.105L262.799 329.838C262 329.491 260.934 328.505 260.667 327.865C260.667 327.865 260.587 327.678 260.614 327.705C260.64 327.731 260.454 327.252 260.534 327.465C260.614 327.678 260.534 327.332 260.534 327.199L260.614 326.906H260.64C260.781 326.604 260.991 326.338 261.253 326.132C262.053 325.573 263.013 325.44 264.105 325.174C265.198 324.906 265.385 322.88 264.105 322.614C263.362 322.493 262.63 322.307 261.92 322.055L261.653 321.922L261.173 321.627C261.082 321.524 260.985 321.425 260.88 321.334L260.774 321.175C260.782 321.128 260.772 321.081 260.747 321.042C260.747 320.935 260.774 320.802 260.774 320.669C260.797 320.541 260.833 320.417 260.88 320.296C260.91 320.23 260.946 320.168 260.987 320.108L261.173 319.921L261.467 319.762C261.705 319.662 261.956 319.6 262.213 319.575L262.746 319.522L264.105 319.602C264.845 319.709 265.575 319.868 266.291 320.081C266.398 323.495 266.424 327.066 267.544 330.291C266.291 330.211 265.012 330.264 263.786 330.131ZM260.747 321.068C260.774 321.095 260.774 321.095 260.774 321.121C260.774 321.114 260.771 321.107 260.766 321.102C260.761 321.098 260.754 321.095 260.747 321.095V321.068ZM382.559 361.103C382.559 360.997 382.532 360.89 382.559 361.103V361.103ZM355.984 208.478C355.984 208.052 356.01 208.318 355.984 208.478V208.478ZM355.691 209.518V209.572L355.611 209.758C355.158 210.558 353.745 211.251 353.452 211.357C339.618 214.21 325.091 212.344 311.712 208.853C308.859 207.679 307.233 204.321 307.34 201.442C307.34 201.415 307.366 201.309 307.366 201.255C307.4 200.949 307.515 200.658 307.696 200.41C307.879 200.162 308.124 199.967 308.405 199.843C308.298 199.816 309.338 199.629 309.658 199.656H309.764C310.219 199.714 310.65 199.883 311.021 200.148C311.394 200.413 311.694 200.766 311.898 201.175C311.955 201.343 312.045 201.498 312.164 201.629C312.141 201.752 312.132 201.877 312.138 202.002C312.111 203.734 314.804 203.734 314.804 202.002C314.786 201.477 314.804 200.951 314.857 200.429C314.883 200.376 314.937 200.322 314.937 200.296C315.283 199.913 315.707 199.608 316.179 199.401C316.653 199.195 317.164 199.091 317.681 199.096C318.828 199.176 319.841 200.083 320.294 201.122C320.382 201.383 320.453 201.651 320.507 201.922C320.533 203.414 322.853 203.601 323.146 202.082C324.051 199.736 327.143 199.416 328.423 200.589C328.908 200.948 329.293 201.425 329.543 201.975C329.916 204.054 332.181 203.601 332.316 202.348C332.688 201.575 332.848 201.469 333.381 200.935C333.915 200.402 334.421 200.376 334.048 200.536C334.352 200.422 334.662 200.333 334.98 200.269C335.264 200.251 335.55 200.26 335.834 200.296C335.486 200.296 335.781 200.296 335.914 200.322C336.702 200.486 337.403 200.931 337.886 201.575C338.026 201.77 338.15 201.975 338.258 202.188C338.333 202.489 338.505 202.757 338.75 202.948C338.993 203.14 339.295 203.244 339.606 203.244C339.914 203.244 340.216 203.14 340.459 202.948C340.704 202.757 340.877 202.489 340.951 202.188C341.457 201.015 342.763 199.656 344.176 200.189L344.017 200.136C344.096 200.109 344.522 200.402 344.576 200.456C344.698 200.564 344.813 200.68 344.922 200.802C345.025 200.938 345.094 201.094 345.126 201.261C345.158 201.427 345.153 201.598 345.11 201.762C344.629 203.494 347.375 204.134 347.694 202.348C347.748 202.082 347.987 201.549 347.801 201.922C347.966 201.551 348.202 201.216 348.495 200.935L348.734 200.776C348.955 200.618 349.187 200.475 349.427 200.349C355.105 197.977 356.651 205.12 355.691 209.518ZM329.115 201.335L329.197 201.389L329.115 201.335ZM333.301 201.069C333.301 201.033 333.327 201.007 333.381 200.989C333.434 200.971 333.407 200.998 333.301 201.069ZM344.469 200.402L344.549 200.482C344.522 200.456 344.496 200.456 344.469 200.402ZM363.634 167.964C358.729 169.776 357.984 174.681 356.97 178.999C356.866 179.417 356.821 179.847 356.837 180.278C354.065 185.502 352.439 191.366 352.466 197.284C350.813 197.071 348.921 197.524 346.842 198.91C345.19 196.911 341.643 197.044 339.565 199.443C337.327 197.177 333.301 197.204 331.063 199.469C328.849 196.857 324.612 196.671 322.133 198.963C320.56 196.751 317.441 196.004 315.017 197.044C315.017 196.386 314.99 195.747 314.937 195.125C317.223 196.09 319.655 196.667 322.133 196.831C324.586 197.39 340.392 196.484 339.485 193.232C339.391 192.894 339.169 192.606 338.864 192.432C338.56 192.257 338.198 192.209 337.859 192.299C330.715 194.432 323.199 195.525 315.815 192.539C294.253 182.277 303.795 146.8 306.406 127.582C315.869 127.875 327.944 114.601 328.796 113.561C330.129 112.149 332.635 113.002 332.981 114.921C335.994 131.74 359.182 154.583 366.007 151.038C371.497 147.599 372.883 153.384 372.644 154.743C373.096 155.942 373.442 155.676 374.616 155.356C372.99 162.579 370.698 164.952 363.634 167.964Z" fill="#452D34"/>
<path d="M351.614 147.839C348.389 143.228 345.19 138.563 342.045 133.899L339.379 129.901C338.9 129.181 337.913 128.994 337.3 129.634L327.277 139.55L325.172 141.655L324.826 141.575C324.009 141.517 323.189 141.526 322.373 141.602C322.339 141.471 322.284 141.345 322.213 141.229C319.902 136.761 317.312 132.443 314.456 128.301C314.352 128.13 314.211 127.984 314.043 127.874C313.876 127.763 313.686 127.692 313.487 127.664C313.288 127.636 313.086 127.652 312.894 127.712C312.703 127.771 312.525 127.872 312.378 128.008C309.96 129.963 307.536 131.882 305.1 133.766L298.49 138.963L297.157 139.976C296.951 140.188 296.82 140.462 296.786 140.757C296.752 141.051 296.816 141.349 296.971 141.602L306.327 154.956C306.357 155.089 306.412 155.216 306.486 155.329C306.655 155.593 306.905 155.794 307.2 155.9C307.495 156.006 307.816 156.012 308.112 155.916L308.379 155.782C308.489 155.708 308.588 155.618 308.673 155.516C312.115 153.04 315.401 150.351 318.509 147.466C319.414 146.613 320.321 145.76 321.175 144.88C321.295 144.756 321.395 144.612 321.468 144.454L322.293 144.294C322.903 144.214 323.518 144.188 324.132 144.214C324.141 144.283 324.167 144.348 324.212 144.401C326.386 148.615 329.033 152.568 332.102 156.182C332.955 157.195 333.861 158.181 334.768 159.141C335.3 159.674 336.101 159.594 336.66 159.141L337.966 158.075L338.312 157.808L338.499 157.648L339.139 157.168C340.045 156.475 340.978 155.809 341.939 155.143C343.804 153.863 345.75 152.637 347.722 151.518C348.842 150.878 349.988 150.265 351.133 149.678C351.438 149.495 351.658 149.2 351.749 148.857C351.838 148.513 351.79 148.148 351.614 147.839ZM309.712 151.438H309.685L309.525 151.544L309.153 151.864L308.46 152.37L308.006 152.69L299.93 141.176L302.809 138.91L310.406 132.939L313.017 130.86C315.496 134.573 317.774 138.417 319.842 142.375C319.746 142.473 319.673 142.592 319.629 142.722L319.307 142.961C316.283 145.976 313.077 148.807 309.712 151.438ZM338.019 154.689L335.834 156.369C335.327 155.836 334.821 155.276 334.342 154.716L333.195 153.357C333.035 153.143 332.849 152.93 332.689 152.69L332.423 152.37L332.288 152.184C330.889 150.346 329.59 148.433 328.397 146.453C327.865 145.547 327.357 144.641 326.851 143.708L336.34 134.325L338.019 132.646C340.845 136.884 343.671 141.069 346.575 145.254C347.216 146.187 347.855 147.119 348.522 148.026C344.862 149.985 341.351 152.212 338.019 154.689Z" fill="#CE9C5C"/>
<path d="M244.515 246.062C238.091 243.369 232.147 239.745 226.256 236.093C225.11 235.666 223.271 233.907 221.805 233.507C221.805 230.655 218.9 227.991 216.261 228.124C216.163 227.362 215.875 226.638 215.423 226.019C214.971 225.399 214.37 224.904 213.675 224.577C213.589 224.512 213.488 224.467 213.382 224.444C212.822 221.94 211.436 219.726 208.984 218.874C201.147 216.822 194.217 224.765 193.631 232.414C193.258 230.548 190.726 230.362 190.965 232.868C190.939 232.842 190.912 232.52 190.939 232.735C190.965 232.973 190.965 233.214 190.939 233.454C190.752 234.388 190.619 234.681 190.032 235.559H190.006V235.612C189.805 235.863 189.582 236.095 189.339 236.306H189.286C189.101 236.447 188.905 236.571 188.7 236.679H188.646C188.593 236.732 188.54 236.732 188.54 236.706L188.167 236.839H188.06C188.007 236.839 187.98 236.839 188.007 236.812H187.714C182.623 235.559 184.248 226.15 187.447 222.286C188.993 220.154 191.472 218.768 193.151 218.581C194.83 218.395 195.044 218.528 196.216 218.821C197.869 219.274 198.589 216.689 196.936 216.235C187.9 213.757 181.13 224.018 181.796 232.148C182.463 240.277 192.058 242.437 193.604 233.534C193.598 235.325 194.028 237.091 194.857 238.678C197.762 243.582 203.893 241.61 205.146 236.573C206.265 233.374 203.147 232.148 202.667 234.681C202.72 234.787 202.64 235.453 202.667 235.533C202.612 235.815 202.531 236.092 202.427 236.36H202.454V236.413L202.4 236.519C202.245 236.848 202.058 237.16 201.841 237.453C201.602 237.753 201.334 238.03 201.041 238.278H200.934L200.295 238.651H200.321C200.295 238.651 200.268 238.651 200.268 238.678H200.215C200.161 238.704 200.135 238.678 200.135 238.678L199.735 238.784H199.335L199.148 238.731L198.882 238.651C198.288 238.378 197.767 237.966 197.363 237.453C197.336 237.426 197.309 237.426 197.309 237.4C195.577 235.107 196.376 230.788 197.363 228.47C197.912 227.187 198.619 225.978 199.468 224.872V224.925L199.522 224.845C200.143 224.05 200.859 223.333 201.654 222.712L201.521 222.818C203.84 220.793 207.118 220.713 208.797 221.352H208.824C209.091 221.62 209.357 221.913 209.597 222.206C209.959 222.683 210.264 223.202 210.503 223.752C210.767 224.386 210.955 225.048 211.063 225.724C211.156 226.556 211.156 227.398 211.063 228.23V228.31C210.981 228.924 210.847 229.53 210.663 230.122C210.21 231.748 212.742 232.467 213.222 230.868C213.462 231.775 214.741 232.307 215.488 231.509C215.667 231.264 215.827 231.005 215.967 230.735C216.021 230.681 216.101 230.681 216.341 230.628H216.9C217.78 230.868 218.02 231.029 218.686 231.775C218.826 231.988 218.951 232.21 219.06 232.441C219.06 232.467 219.086 232.467 219.086 232.494C219.167 232.709 219.221 232.932 219.246 233.161C219.273 233.268 219.246 233.401 219.273 233.534L219.193 233.72C218.606 234.867 215.301 236.067 216.874 237.986C217.097 238.207 217.388 238.348 217.7 238.385V238.651C217.673 238.811 217.594 238.944 217.567 239.106C217.517 239.171 217.472 239.244 217.434 239.319L217.38 239.399C217.024 239.399 216.682 239.537 216.428 239.787C216.174 240.036 216.028 240.375 216.021 240.732C216.927 244.037 220.819 240.678 220.366 238.385C220.36 237.858 220.213 237.343 219.939 236.892C220.349 236.576 220.716 236.209 221.032 235.801C228.682 239.984 235.932 245.742 244.301 248.247C245.261 248.247 245.554 246.541 244.515 246.062ZM189.953 235.692C189.954 235.673 189.964 235.653 189.979 235.639C189.964 235.653 189.954 235.673 189.953 235.692ZM197.389 237.799L197.283 237.639L197.389 237.799ZM208.691 221.54C208.344 221.325 208.531 221.405 208.691 221.54V221.54ZM213.675 228.869V229.162C213.622 229.375 213.542 229.563 213.489 229.75C213.49 229.764 213.488 229.778 213.484 229.792C213.479 229.806 213.472 229.819 213.462 229.829V229.883C213.542 229.402 213.622 228.896 213.675 228.39C213.683 228.48 213.7 228.569 213.728 228.656C213.569 228.097 213.702 228.736 213.675 228.869ZM217.807 238.678H217.753L218.02 238.731L217.807 238.678ZM219.113 233.933C219.139 233.907 219.139 233.853 219.166 233.827C219.139 233.853 219.139 233.907 219.113 233.933Z" fill="#452D34"/>
<path d="M188.139 236.892C188.088 236.874 188.031 236.874 187.979 236.892H188.139Z" fill="#452D34"/>
<path d="M200.241 238.811L200.081 238.864H200.214C200.207 238.861 200.202 238.855 200.199 238.848C200.197 238.841 200.197 238.832 200.201 238.825C200.205 238.818 200.211 238.813 200.218 238.811C200.226 238.807 200.234 238.807 200.241 238.811Z" fill="#452D34"/>
<path d="M200.988 238.358C200.964 238.358 200.94 238.366 200.921 238.38C200.901 238.394 200.887 238.416 200.881 238.439L200.935 238.385L200.988 238.358Z" fill="#452D34"/>
<path d="M202.4 236.466C202.373 236.466 202.347 236.573 202.347 236.599L202.4 236.493V236.466Z" fill="#452D34"/>
<path d="M178.412 233.64C178.351 233.976 178.262 234.306 178.145 234.627H178.172L178.119 234.681C178.092 234.76 178.092 234.734 178.092 234.707C177.505 235.907 177.052 236.386 175.986 236.972L175.426 237.132H175.213C174.52 237.158 173.48 236.36 173.134 235.907C170.069 231.482 173.401 223.699 177.532 220.766C179.451 219.513 180.651 219.114 182.996 219.3C183.541 219.384 184.076 219.517 184.596 219.7C186.221 220.181 186.968 217.594 185.289 217.115C176.386 214.156 169.056 224.071 169.296 232.201C169.536 240.33 178.731 242.97 180.97 234.414C181.85 230.681 177.852 230.761 178.412 233.64Z" fill="#452D34"/>
<path d="M178.145 234.627L178.091 234.735C178.106 234.72 178.116 234.701 178.118 234.681L178.145 234.627Z" fill="#452D34"/>
<path d="M385.997 138.457C387.597 139.443 389.222 140.456 391.061 140.829C392.902 141.202 395.034 140.749 396.18 139.283C397.325 137.817 397.272 135.578 396.713 133.739C396.154 131.9 395.22 130.14 394.927 128.221C394.634 126.302 395.114 123.903 395.007 121.744C394.741 115.96 390.156 111.216 385.092 108.39C383.626 107.591 382.053 106.818 381.173 105.405C380.294 103.992 380.401 103.166 380.108 102.046C379.618 100.165 378.741 98.4071 377.534 96.8834C376.327 95.3599 374.817 94.1043 373.097 93.1971C371.577 92.3974 369.738 91.891 368.166 92.5307C365.446 93.6236 364.914 97.2219 365.26 100.127C365.981 106.684 369.206 113.428 372.378 119.212C378.081 129.661 385.997 138.457 385.997 138.457Z" fill="#EFDCC4"/>
<path d="M368.994 95.1428L368.887 95.2235C368.887 95.2772 368.887 95.2504 368.994 95.1428Z" fill="#452D34"/>
<path d="M397.113 128.941C398.233 117.453 394.261 112.415 384.186 106.844C381.466 104.738 383.387 99.7541 377.016 94.663C370.218 88.879 363.422 93.1704 364.888 101.807C365.928 109.377 369.473 116.387 373.23 122.97C376.88 129.1 381.072 134.89 385.758 140.269C385.833 140.379 385.923 140.478 386.025 140.562L386.264 140.722C389.89 143.414 396.341 145.094 398.765 140.109C400.498 136.298 397.807 132.646 397.113 128.941ZM396.66 138.004C396.639 138.035 396.63 138.073 396.634 138.11C396.58 138.297 396.554 138.483 396.501 138.67C396.469 138.73 396.442 138.792 396.421 138.857C396.181 139.523 395.995 139.55 395.54 140.029C395.088 140.509 393.382 140.802 392.608 140.669C390.742 140.376 389.409 139.523 387.757 138.51C378.935 128.088 370.005 115.214 367.527 101.673C367.233 99.0077 367.341 96.6888 368.885 95.2229L368.993 95.1428C369.006 95.1263 369.022 95.1128 369.04 95.1036C369.057 95.0943 369.079 95.0896 369.1 95.0896L369.446 94.903C369.54 94.8567 369.638 94.821 369.739 94.7963L370.165 94.6896C370.493 94.6499 370.823 94.6499 371.152 94.6896C373.765 95.1428 376.03 97.1154 377.442 98.8211C378.028 99.5143 378.988 101.353 379.122 101.647C380.934 109.616 382.613 108.657 388.344 112.575C389.676 113.605 390.876 114.796 391.916 116.12C392.235 116.44 393.382 118.306 393.755 119.212C394.395 120.598 394.768 122.97 394.529 124.996C393.648 128.888 395.833 133.312 396.634 136.458C396.682 136.972 396.691 137.488 396.66 138.004Z" fill="#452D34"/>
<path d="M372.591 101.593C372.565 101.513 372.591 101.3 372.565 101.247C372.538 101.193 372.538 101.593 372.591 101.3C372.645 101.007 372.432 101.54 372.565 101.327L372.724 101.087C372.778 101.007 372.751 101.034 372.618 101.193L372.751 101.06L372.937 100.9L372.858 100.954H372.937L373.071 100.874C373.204 100.794 373.177 100.82 372.991 100.9L373.23 100.82H373.204C373.257 100.847 373.417 100.794 373.497 100.794C373.578 100.794 373.257 100.714 373.523 100.794L373.765 100.874C374.031 100.954 373.55 100.74 373.765 100.874L374.084 101.06C374.297 101.167 373.871 100.874 374.084 101.06C374.23 101.18 374.365 101.314 374.483 101.46C374.563 101.54 374.537 101.513 374.43 101.38C374.45 101.435 374.487 101.482 374.537 101.513C374.57 101.599 374.617 101.679 374.67 101.753C374.716 101.828 374.753 101.909 374.776 101.993V101.913L374.856 102.073C374.941 102.266 374.988 102.475 374.989 102.686C374.963 102.526 374.963 102.499 374.989 102.659C374.986 102.723 374.995 102.786 375.016 102.846V103.246C375.012 103.478 374.995 103.709 374.963 103.939C374.968 104.02 374.959 104.101 374.936 104.179L374.856 104.525C374.803 104.792 374.75 105.058 374.67 105.325C374.608 105.497 374.581 105.681 374.594 105.864C374.604 106.047 374.654 106.225 374.737 106.388C374.821 106.551 374.938 106.696 375.08 106.812C375.222 106.928 375.385 107.013 375.563 107.063C375.738 107.113 375.923 107.125 376.106 107.1C376.287 107.075 376.461 107.013 376.617 106.917C376.773 106.822 376.91 106.695 377.015 106.545C377.119 106.395 377.192 106.224 377.229 106.045C377.789 104.072 378.002 101.727 376.722 99.9674C376.15 99.138 375.314 98.5272 374.35 98.2349C373.871 98.1008 373.367 98.0719 372.875 98.15C372.382 98.2283 371.913 98.4118 371.498 98.688C370.566 99.3277 369.819 100.394 369.952 101.593C370.005 102.286 370.513 102.953 371.285 102.926C372.059 102.899 372.671 102.34 372.618 101.593H372.591Z" fill="#D13535"/>
<path d="M382.373 115.88C382.506 115.667 382.32 115.96 382.293 115.934C382.266 115.907 382.4 115.854 382.4 115.827L382.533 115.72C382.506 115.774 382.266 115.907 382.453 115.8L382.559 115.747C382.692 115.667 382.639 115.774 382.453 115.774L382.746 115.694C382.959 115.64 382.639 115.72 382.613 115.694H383.253C383.227 115.72 382.905 115.64 383.147 115.694L383.466 115.774L383.786 115.88H383.706L383.839 115.934C384.045 116.039 384.242 116.164 384.425 116.307C384.425 116.333 384.212 116.12 384.372 116.253L384.505 116.36L384.719 116.6L384.826 116.733C384.826 116.733 384.638 116.467 384.799 116.653L385.012 116.973L385.305 117.533C385.412 117.746 385.252 117.479 385.252 117.453L385.332 117.613C385.358 117.719 385.412 117.853 385.438 117.986C385.508 118.186 385.561 118.391 385.598 118.599C385.598 118.599 385.598 118.732 385.625 118.759C385.651 118.786 385.571 118.412 385.598 118.652C385.619 118.776 385.628 118.9 385.625 119.025C385.651 119.238 385.651 119.453 385.625 119.665C385.63 119.781 385.621 119.898 385.598 120.012C385.598 120.172 385.545 120.092 385.625 119.905C385.603 119.974 385.594 120.046 385.598 120.118L385.438 120.758C385.415 120.868 385.38 120.976 385.332 121.078C385.326 121.134 385.309 121.189 385.279 121.238C385.252 121.291 385.145 121.504 385.252 121.318C385.358 121.131 385.252 121.291 385.252 121.344L385.145 121.531C385.099 121.655 385.035 121.771 384.959 121.877L384.773 122.197L384.664 122.331C384.531 122.544 384.799 122.171 384.691 122.304L384.185 122.864L383.892 123.104C383.892 123.104 384.159 122.917 383.946 123.05L383.733 123.21C383.173 123.583 382.852 124.383 383.28 125.023C383.706 125.663 384.478 125.902 385.092 125.503C386.115 124.797 386.945 123.848 387.51 122.74C388.072 121.632 388.349 120.401 388.317 119.159C388.237 116.573 386.798 114.014 384.212 113.241C383.495 113.015 382.731 112.988 382 113.161C381.201 113.367 380.509 113.861 380.055 114.547C379.654 115.134 379.948 116.067 380.534 116.387C380.845 116.556 381.207 116.601 381.549 116.512C381.89 116.423 382.185 116.206 382.373 115.907V115.88Z" fill="#D13535"/>
<path d="M387.783 129.741L388.077 129.607L387.756 129.741L388.45 129.554L388.104 129.607C388.36 129.581 388.619 129.581 388.876 129.607L388.53 129.554C388.812 129.606 389.089 129.686 389.355 129.794L389.036 129.661L389.462 129.874C389.57 129.954 389.73 130.141 389.435 129.847L389.623 130.007L389.783 130.194C389.916 130.354 389.57 129.901 389.756 130.167L389.996 130.594L389.863 130.274C389.954 130.524 390.016 130.783 390.049 131.047V130.7C390.076 130.966 390.076 131.234 390.049 131.5V131.153C390.012 131.408 389.95 131.658 389.863 131.9L389.996 131.58L389.81 131.953L389.703 132.113L389.81 131.953L389.756 132.06C389.508 132.307 389.364 132.642 389.355 132.993C389.354 133.167 389.389 133.341 389.457 133.501C389.526 133.662 389.629 133.806 389.756 133.925C390.236 134.405 391.143 134.512 391.622 133.925C392.14 133.381 392.485 132.694 392.607 131.953C392.769 131.189 392.714 130.395 392.447 129.661C392.179 128.906 391.695 128.246 391.056 127.763C390.417 127.28 389.65 126.994 388.849 126.942C388.017 126.866 387.181 127.042 386.451 127.448C386.146 127.631 385.926 127.926 385.836 128.27C385.747 128.614 385.795 128.979 385.97 129.287C386.153 129.586 386.446 129.8 386.785 129.885C387.124 129.97 387.483 129.918 387.783 129.741Z" fill="#D13535"/>
<path d="M373.817 109.75C372.245 112.282 373.791 116.094 376.721 116.76C377.415 116.92 378.214 116.546 378.374 115.827C378.464 115.488 378.416 115.127 378.242 114.822C378.067 114.518 377.779 114.295 377.442 114.201L377.096 114.094C376.854 114.014 377.389 114.228 377.176 114.148L377.016 114.068L376.721 113.854C376.508 113.748 376.963 114.068 376.801 113.934L376.641 113.801L376.402 113.534C376.352 113.503 376.315 113.456 376.295 113.401C376.562 113.721 376.402 113.561 376.349 113.481C376.278 113.381 376.214 113.274 376.162 113.161L376.082 113.001C376.056 112.948 375.923 112.708 376.029 112.948C376.136 113.188 376.056 112.948 376.029 112.895C375.999 112.846 375.981 112.792 375.976 112.735C375.928 112.614 375.892 112.489 375.869 112.362C375.869 112.309 375.843 112.069 375.869 112.335C375.896 112.602 375.869 112.362 375.869 112.308V111.749C375.896 111.482 375.816 112.015 375.843 111.882L375.923 111.509C375.953 111.46 375.97 111.406 375.976 111.349C376.056 111.082 375.869 111.562 375.949 111.455L376.136 111.082C376.313 110.775 376.359 110.41 376.267 110.067C376.175 109.725 375.949 109.433 375.642 109.257C375.335 109.08 374.969 109.032 374.627 109.125C374.284 109.217 373.993 109.442 373.817 109.75Z" fill="#D13535"/>
<path d="M333.781 110.043C334.317 110.521 334.809 111.047 335.247 111.616L335.061 111.349C335.595 112.071 336.051 112.849 336.42 113.668L336.287 113.375C336.321 113.486 336.365 113.593 336.42 113.695C336.518 114.021 336.724 114.304 337.006 114.494C337.327 114.656 337.695 114.703 338.046 114.627C338.685 114.414 339.246 113.668 338.98 112.975C338.286 111.129 337.152 109.482 335.675 108.177C335.414 107.931 335.073 107.789 334.714 107.777C334.541 107.775 334.367 107.81 334.205 107.878C334.045 107.947 333.9 108.049 333.781 108.177C333.328 108.657 333.222 109.563 333.781 110.043Z" fill="white"/>
<path d="M340.739 122.437C343.774 128.857 348.125 134.569 353.506 139.203C355.07 140.546 356.707 141.801 358.411 142.961C358.72 143.138 359.083 143.186 359.428 143.096C359.772 143.007 360.067 142.786 360.25 142.482C360.413 142.17 360.454 141.809 360.365 141.469C360.276 141.129 360.065 140.834 359.77 140.642L357.637 139.15L357.397 138.963C357.344 138.91 357.078 138.697 357.317 138.883L356.811 138.483L355.798 137.657C354.467 136.552 353.203 135.369 352.014 134.112C350.839 132.889 349.727 131.608 348.682 130.274C348.655 130.247 348.416 129.954 348.602 130.221C348.554 130.122 348.492 130.032 348.416 129.954L348.015 129.421L347.269 128.381C346.754 127.67 346.273 126.951 345.83 126.222C344.793 124.566 343.857 122.848 343.03 121.078C342.737 120.465 341.777 120.252 341.218 120.598C340.659 120.945 340.419 121.744 340.739 122.437Z" fill="white"/>
<path d="M311.577 123.317C312.703 123.232 313.791 122.889 314.762 122.316C315.733 121.743 316.558 120.955 317.176 120.012C317.268 119.861 317.33 119.693 317.359 119.519C317.385 119.344 317.378 119.165 317.336 118.994C317.293 118.822 317.217 118.66 317.112 118.518C317.005 118.376 316.874 118.256 316.721 118.166C316.569 118.076 316.4 118.017 316.224 117.992C316.05 117.968 315.871 117.979 315.701 118.024C315.529 118.069 315.369 118.148 315.229 118.256C315.088 118.364 314.971 118.499 314.884 118.652L314.643 118.999C314.884 118.626 314.643 118.999 314.563 119.105L313.951 119.692C313.897 119.719 313.684 119.878 313.897 119.719C314.11 119.559 313.871 119.719 313.844 119.772L313.498 119.985L312.724 120.385L313.044 120.225C312.568 120.432 312.066 120.575 311.551 120.651L311.899 120.598L311.577 120.651C311.224 120.66 310.885 120.792 310.619 121.025C310.376 121.285 310.243 121.628 310.246 121.984C310.273 122.651 310.832 123.37 311.577 123.317Z" fill="white"/>
<path d="M404.55 110.976L405.75 111.322L406.335 111.536L406.628 111.642C406.761 111.695 406.735 111.695 406.575 111.642L406.761 111.722C407.519 112.045 408.251 112.429 408.948 112.868L409.96 113.561L410.146 113.695C410.173 113.721 410.468 113.934 410.2 113.748L410.76 114.201C411.394 114.737 411.991 115.316 412.546 115.934C412.839 116.227 413.105 116.547 413.372 116.866L413.558 117.106C413.586 117.16 413.799 117.426 413.613 117.16L414.039 117.746C414.55 118.475 415.022 119.232 415.452 120.012L416.038 121.158C416.146 121.366 416.243 121.579 416.33 121.798L416.49 122.117L416.57 122.357C416.918 123.21 417.237 124.09 417.504 124.996C417.77 125.902 418.089 127.049 418.302 128.062C418.411 128.621 418.517 129.154 418.597 129.687C418.656 129.96 418.7 130.236 418.73 130.514C418.757 130.62 418.757 130.727 418.783 130.86C418.783 130.914 418.81 130.993 418.81 131.074C418.89 131.766 419.369 132.459 420.143 132.406C420.915 132.353 421.583 131.82 421.474 131.074C420.942 126.995 419.957 122.97 418.089 119.292C416.401 115.939 413.899 113.061 410.814 110.922C409.126 109.765 407.25 108.908 405.269 108.39C405.1 108.343 404.923 108.33 404.747 108.351C404.573 108.372 404.402 108.428 404.25 108.515C404.095 108.601 403.96 108.717 403.852 108.856C403.744 108.995 403.664 109.154 403.616 109.323C403.57 109.493 403.556 109.67 403.577 109.845C403.598 110.02 403.653 110.189 403.74 110.343C403.827 110.496 403.943 110.631 404.083 110.74C404.221 110.848 404.379 110.929 404.55 110.976Z" fill="white"/>
<path d="M416.118 144.907C416.118 145.147 416.118 145.414 416.091 145.68V145.334C416.045 145.776 415.928 146.208 415.745 146.613L415.878 146.293C415.71 146.712 415.484 147.106 415.213 147.466L415.426 147.199C415.262 147.407 415.083 147.603 414.891 147.786C414.767 147.908 414.669 148.053 414.602 148.213C414.535 148.373 414.499 148.545 414.499 148.719C414.499 148.892 414.535 149.064 414.602 149.225C414.669 149.385 414.767 149.53 414.891 149.652C415.145 149.897 415.484 150.035 415.837 150.035C416.191 150.035 416.531 149.897 416.785 149.652C417.424 149.041 417.93 148.304 418.271 147.487C418.61 146.67 418.775 145.792 418.757 144.907C418.731 144.187 418.17 143.521 417.424 143.574C417.071 143.574 416.732 143.715 416.482 143.965C416.231 144.215 416.091 144.554 416.091 144.907H416.118Z" fill="white"/>
<path d="M400.577 229.537C404.816 230.948 409.747 229.616 412.918 226.524C413.813 225.651 414.551 224.632 415.104 223.512C415.425 222.898 415.292 222.046 414.624 221.7C413.959 221.352 413.131 221.514 412.812 222.179C412.599 222.618 412.349 223.036 412.066 223.432L411.852 223.725C411.798 223.805 411.825 223.858 411.905 223.672L411.798 223.805L411.319 224.338L410.252 225.324L410.306 225.271L410.146 225.378L409.906 225.564L409.241 225.99C408.831 226.244 408.403 226.468 407.961 226.657C407.854 226.711 407.854 226.764 408.014 226.631L407.854 226.711L407.562 226.817L406.814 227.057C406.351 227.183 405.879 227.28 405.401 227.35C405.162 227.403 405.669 227.323 405.348 227.376H403.057C403.057 227.376 402.87 227.376 402.87 227.35H402.923C402.373 227.249 401.832 227.115 401.298 226.95C401.129 226.901 400.953 226.886 400.779 226.904C400.605 226.924 400.437 226.977 400.284 227.06C400.13 227.146 399.995 227.259 399.885 227.396C399.775 227.533 399.693 227.689 399.645 227.857C399.562 228.198 399.611 228.56 399.783 228.867C399.957 229.174 400.241 229.403 400.577 229.51V229.537Z" fill="white"/>
</svg>
