

<svg width="0" height="0" class="hidden">
  <symbol xmlns="http://www.w3.org/2000/svg" viewBox="0 0 30 30" fill="none" id="icon" >
    <path fill-rule="evenodd" clip-rule="evenodd" d="M15.0001 26.4857L15.9016 25.47C16.9244 24.2986 17.8444 23.1872 18.663 22.13L19.3387 21.2386C22.1601 17.4372 23.5716 14.42 23.5716 12.19C23.5716 7.43002 19.7344 3.57145 15.0001 3.57145C10.2659 3.57145 6.42871 7.43002 6.42871 12.19C6.42871 14.42 7.84014 17.4372 10.6616 21.2386L11.3373 22.13C12.5051 23.6263 13.7268 25.0782 15.0001 26.4857Z" stroke="#83601B" stroke-width="1.42857" stroke-linecap="round" stroke-linejoin="round"/>
    <path d="M15.0001 15.7143C16.9726 15.7143 18.5716 14.1153 18.5716 12.1429C18.5716 10.1704 16.9726 8.57145 15.0001 8.57145C13.0277 8.57145 11.4287 10.1704 11.4287 12.1429C11.4287 14.1153 13.0277 15.7143 15.0001 15.7143Z" stroke="#83601B" stroke-width="1.42857" stroke-linecap="round" stroke-linejoin="round"/>
  </symbol>

  <symbol fill="none" xmlns="http://www.w3.org/2000/svg" viewBox="0 0 47 46" id="Type icon">
    <path d="M7.32685 33.3058C4.35758 24.6986 9.01185 8.95726 17.7019 5.95944C26.3919 2.96161 37.9167 8.52162 40.886 17.1289C43.8552 25.7361 41.9764 35.0614 33.2863 38.0592C24.5963 41.0571 10.2961 41.9131 7.32685 33.3058Z" fill="white"></path>
    <path fill-rule="evenodd" clip-rule="evenodd" d="M17.5 21.5C18.2956 21.5 19.0587 21.1839 19.6213 20.6213C20.1839 20.0587 20.5 19.2957 20.5 18.5C20.5 17.7044 20.1839 16.9413 19.6213 16.3787C19.0587 15.8161 18.2956 15.5 17.5 15.5C16.7044 15.5 15.9413 15.8161 15.3787 16.3787C14.8161 16.9413 14.5 17.7044 14.5 18.5C14.5 19.2957 14.8161 20.0587 15.3787 20.6213C15.9413 21.1839 16.7044 21.5 17.5 21.5ZM17.5 23C18.0909 23 18.6761 22.8836 19.2221 22.6575C19.768 22.4313 20.2641 22.0999 20.682 21.682C21.0998 21.2641 21.4313 20.7681 21.6575 20.2221C21.8836 19.6761 22 19.091 22 18.5C22 17.9091 21.8836 17.3239 21.6575 16.7779C21.4313 16.232 21.0998 15.7359 20.682 15.318C20.2641 14.9002 19.768 14.5687 19.2221 14.3426C18.6761 14.1164 18.0909 14 17.5 14C16.3065 14 15.1619 14.4741 14.318 15.318C13.4741 16.162 13 17.3065 13 18.5C13 19.6935 13.4741 20.8381 14.318 21.682C15.1619 22.5259 16.3065 23 17.5 23Z" fill="#83601B"></path>
    <path fill-rule="evenodd" clip-rule="evenodd" d="M15.781 21.344C15.8508 21.4137 15.9063 21.4965 15.9441 21.5876C15.9819 21.6787 16.0013 21.7764 16.0013 21.875C16.0013 21.9737 15.9819 22.0714 15.9441 22.1625C15.9063 22.2536 15.8508 22.3364 15.781 22.406L15.274 22.9115C14.2983 23.8875 13.7501 25.211 13.75 26.591V29.375C13.75 29.5739 13.671 29.7647 13.5303 29.9054C13.3897 30.046 13.1989 30.125 13 30.125C12.8011 30.125 12.6103 30.046 12.4697 29.9054C12.329 29.7647 12.25 29.5739 12.25 29.375V26.591C12.2502 24.8132 12.9565 23.1082 14.2135 21.851L14.719 21.344C14.7887 21.2742 14.8714 21.2188 14.9625 21.181C15.0537 21.1431 15.1513 21.1237 15.25 21.1237C15.3487 21.1237 15.4463 21.1431 15.5375 21.181C15.6286 21.2188 15.7113 21.2742 15.781 21.344ZM33.469 20.894C33.3992 20.9637 33.3437 21.0465 33.3059 21.1376C33.2681 21.2287 33.2487 21.3264 33.2487 21.425C33.2487 21.5237 33.2681 21.6214 33.3059 21.7125C33.3437 21.8036 33.3992 21.8864 33.469 21.956L33.976 22.4615C34.4592 22.9447 34.8425 23.5184 35.104 24.1497C35.3654 24.781 35.5 25.4577 35.5 26.141V29.375C35.5 29.5739 35.579 29.7647 35.7197 29.9054C35.8603 30.046 36.0511 30.125 36.25 30.125C36.4489 30.125 36.6397 30.046 36.7803 29.9054C36.921 29.7647 37 29.5739 37 29.375V26.141C36.9998 24.3632 36.2935 22.6582 35.0365 21.401L34.531 20.894C34.4613 20.8242 34.3786 20.7688 34.2874 20.731C34.1963 20.6931 34.0987 20.6737 34 20.6737C33.9013 20.6737 33.8037 20.6931 33.7126 20.731C33.6214 20.7688 33.5387 20.8242 33.469 20.894Z" fill="#83601B"></path>
    <path fill-rule="evenodd" clip-rule="evenodd" d="M31 21.5C30.2044 21.5 29.4413 21.1839 28.8787 20.6213C28.3161 20.0587 28 19.2957 28 18.5C28 17.7044 28.3161 16.9413 28.8787 16.3787C29.4413 15.8161 30.2044 15.5 31 15.5C31.7956 15.5 32.5587 15.8161 33.1213 16.3787C33.6839 16.9413 34 17.7044 34 18.5C34 19.2957 33.6839 20.0587 33.1213 20.6213C32.5587 21.1839 31.7956 21.5 31 21.5ZM31 23C30.4091 23 29.8239 22.8836 29.2779 22.6575C28.732 22.4313 28.2359 22.0999 27.818 21.682C27.4002 21.2641 27.0687 20.7681 26.8425 20.2221C26.6164 19.6761 26.5 19.091 26.5 18.5C26.5 17.9091 26.6164 17.3239 26.8425 16.7779C27.0687 16.232 27.4002 15.7359 27.818 15.318C28.2359 14.9002 28.732 14.5687 29.2779 14.3426C29.8239 14.1164 30.4091 14 31 14C32.1935 14 33.3381 14.4741 34.182 15.318C35.0259 16.162 35.5 17.3065 35.5 18.5C35.5 19.6935 35.0259 20.8381 34.182 21.682C33.3381 22.5259 32.1935 23 31 23ZM24.25 27.875C23.2554 27.875 22.3016 28.2701 21.5983 28.9734C20.8951 29.6766 20.5 30.6305 20.5 31.625V33.575C20.5 33.7739 20.421 33.9647 20.2803 34.1053C20.1397 34.246 19.9489 34.325 19.75 34.325C19.5511 34.325 19.3603 34.246 19.2197 34.1053C19.079 33.9647 19 33.7739 19 33.575V31.625C19 30.2326 19.5531 28.8973 20.5377 27.9127C21.5223 26.9281 22.8576 26.375 24.25 26.375C25.6424 26.375 26.9777 26.9281 27.9623 27.9127C28.9469 28.8973 29.5 30.2326 29.5 31.625V33.575C29.5 33.7739 29.421 33.9647 29.2803 34.1053C29.1397 34.246 28.9489 34.325 28.75 34.325C28.5511 34.325 28.3603 34.246 28.2197 34.1053C28.079 33.9647 28 33.7739 28 33.575V31.625C28 31.1326 27.903 30.6449 27.7145 30.19C27.5261 29.735 27.2499 29.3216 26.9017 28.9734C26.5534 28.6251 26.14 28.3489 25.6851 28.1605C25.2301 27.972 24.7425 27.875 24.25 27.875Z" fill="#83601B"></path>
    <path fill-rule="evenodd" clip-rule="evenodd" d="M24.25 25.625C25.0456 25.625 25.8087 25.3089 26.3713 24.7463C26.9339 24.1837 27.25 23.4207 27.25 22.625C27.25 21.8294 26.9339 21.0663 26.3713 20.5037C25.8087 19.9411 25.0456 19.625 24.25 19.625C23.4544 19.625 22.6913 19.9411 22.1287 20.5037C21.5661 21.0663 21.25 21.8294 21.25 22.625C21.25 23.4207 21.5661 24.1837 22.1287 24.7463C22.6913 25.3089 23.4544 25.625 24.25 25.625ZM24.25 27.125C25.4435 27.125 26.5881 26.6509 27.432 25.807C28.2759 24.9631 28.75 23.8185 28.75 22.625C28.75 21.4315 28.2759 20.287 27.432 19.443C26.5881 18.5991 25.4435 18.125 24.25 18.125C23.0565 18.125 21.9119 18.5991 21.068 19.443C20.2241 20.287 19.75 21.4315 19.75 22.625C19.75 23.8185 20.2241 24.9631 21.068 25.807C21.9119 26.6509 23.0565 27.125 24.25 27.125Z" fill="#83601B"></path>
  </symbol>
  <symbol fill="none" xmlns="http://www.w3.org/2000/svg" viewBox="0 0 48 47" id="Date icon">
    <path d="M8.30439 34.2893C5.33512 25.6821 9.98939 9.94078 18.6794 6.94296C27.3695 3.94514 38.8943 9.50514 41.8635 18.1124C44.8328 26.7196 42.9539 36.0449 34.2639 39.0428C25.5738 42.0406 11.2736 42.8966 8.30439 34.2893Z" fill="white"></path>
   
      <path d="M19.5239 12C19.7374 12 19.9422 12.0848 20.0932 12.2358C20.2441 12.3868 20.329 12.5915 20.329 12.805V14.3104H28.9735V12.8154C28.9735 12.6019 29.0583 12.3971 29.2093 12.2461C29.3602 12.0952 29.565 12.0104 29.7785 12.0104C29.992 12.0104 30.1968 12.0952 30.3477 12.2461C30.4987 12.3971 30.5835 12.6019 30.5835 12.8154V14.3104H33.7C34.3098 14.3104 34.8946 14.5525 35.3259 14.9836C35.7572 15.4147 35.9997 15.9994 36 16.6092V32.7012C35.9997 33.311 35.7572 33.8957 35.3259 34.3268C34.8946 34.7579 34.3098 35 33.7 35H15.3C14.6902 35 14.1054 34.7579 13.6741 34.3268C13.2428 33.8957 13.0003 33.311 13 32.7012V16.6092C13.0003 15.9994 13.2428 15.4147 13.6741 14.9836C14.1054 14.5525 14.6902 14.3104 15.3 14.3104H18.7189V12.8039C18.7193 12.5906 18.8042 12.3861 18.9551 12.2354C19.1061 12.0847 19.3106 12 19.5239 12ZM14.61 20.9033V32.7012C14.61 32.7918 14.6278 32.8815 14.6625 32.9652C14.6972 33.0489 14.748 33.125 14.8121 33.1891C14.8762 33.2531 14.9522 33.304 15.0359 33.3386C15.1197 33.3733 15.2094 33.3912 15.3 33.3912H33.7C33.7906 33.3912 33.8803 33.3733 33.9641 33.3386C34.0478 33.304 34.1238 33.2531 34.1879 33.1891C34.252 33.125 34.3028 33.0489 34.3375 32.9652C34.3722 32.8815 34.39 32.7918 34.39 32.7012V20.9194L14.61 20.9033ZM20.667 28.8119V30.7278H18.75V28.8119H20.667ZM25.4579 28.8119V30.7278H23.542V28.8119H25.4579ZM30.25 28.8119V30.7278H28.3329V28.8119H30.25ZM20.667 24.2383V26.1542H18.75V24.2383H20.667ZM25.4579 24.2383V26.1542H23.542V24.2383H25.4579ZM30.25 24.2383V26.1542H28.3329V24.2383H30.25ZM18.7189 15.9192H15.3C15.2094 15.9192 15.1197 15.9371 15.0359 15.9717C14.9522 16.0064 14.8762 16.0572 14.8121 16.1213C14.748 16.1854 14.6972 16.2614 14.6625 16.3452C14.6278 16.4289 14.61 16.5186 14.61 16.6092V19.2945L34.39 19.3106V16.6092C34.39 16.5186 34.3722 16.4289 34.3375 16.3452C34.3028 16.2614 34.252 16.1854 34.1879 16.1213C34.1238 16.0572 34.0478 16.0064 33.9641 15.9717C33.8803 15.9371 33.7906 15.9192 33.7 15.9192H30.5835V16.9876C30.5835 17.2011 30.4987 17.4058 30.3477 17.5568C30.1968 17.7078 29.992 17.7926 29.7785 17.7926C29.565 17.7926 29.3602 17.7078 29.2093 17.5568C29.0583 17.4058 28.9735 17.2011 28.9735 16.9876V15.9192H20.329V16.9772C20.329 17.1907 20.2441 17.3955 20.0932 17.5464C19.9422 17.6974 19.7374 17.7822 19.5239 17.7822C19.3105 17.7822 19.1057 17.6974 18.9547 17.5464C18.8038 17.3955 18.7189 17.1907 18.7189 16.9772V15.9192Z" fill="#83601B"></path>
    
    
  </symbol>
  <symbol xmlns="http://www.w3.org/2000/svg" viewBox="0 0 47 46" id="Klokka icon">
    <path d="M7.32685 33.3058C4.35759 24.6986 9.01185 8.95726 17.7019 5.95944C26.3919 2.96162 37.9167 8.52162 40.886 17.1289C43.8552 25.7361 41.9764 35.0614 33.2863 38.0592C24.5963 41.0571 10.2961 41.9131 7.32685 33.3058Z" fill="white"></path>
    <path d="M24 37.1251C21.4041 37.1251 18.8665 36.3553 16.7081 34.9131C14.5498 33.4709 12.8675 31.4211 11.8741 29.0228C10.8807 26.6245 10.6208 23.9855 11.1272 21.4395C11.6336 18.8935 12.8837 16.5549 14.7192 14.7193C16.5548 12.8837 18.8934 11.6337 21.4394 11.1273C23.9854 10.6208 26.6244 10.8808 29.0227 11.8742C31.421 12.8676 33.4709 14.5498 34.913 16.7082C36.3552 18.8666 37.125 21.4042 37.125 24.0001C37.125 27.481 35.7422 30.8194 33.2808 33.2808C30.8194 35.7423 27.481 37.1251 24 37.1251ZM24 12.7501C21.775 12.7501 19.5999 13.4099 17.7498 14.646C15.8998 15.8822 14.4578 17.6392 13.6064 19.6949C12.7549 21.7506 12.5321 24.0126 12.9662 26.1948C13.4003 28.3771 14.4717 30.3817 16.0451 31.955C17.6184 33.5284 19.623 34.5998 21.8052 35.0339C23.9875 35.468 26.2495 35.2452 28.3052 34.3937C30.3609 33.5422 32.1179 32.1003 33.354 30.2502C34.5902 28.4002 35.25 26.2251 35.25 24.0001C35.25 21.0164 34.0647 18.1549 31.955 16.0451C29.8452 13.9353 26.9837 12.7501 24 12.7501Z" fill="#83601B"></path>
    <path d="M28.3031 29.6251L23.0625 24.3845V15.5626H24.9375V23.6063L29.625 28.3032L28.3031 29.6251Z" fill="#83601B"></path>
  </symbol>
  <symbol fill="none" xmlns="http://www.w3.org/2000/svg" viewBox="0 0 47 46" id="Sted icon">
    <path d="M7.32685 33.3059C4.35758 24.6986 9.01185 8.95732 17.7019 5.9595C26.3919 2.96168 37.9167 8.52168 40.886 17.1289C43.8552 25.7362 41.9764 35.0615 33.2863 38.0593C24.5963 41.0571 10.2961 41.9131 7.32685 33.3059Z" fill="white"></path>
    <path fill-rule="evenodd" clip-rule="evenodd" d="M24.0001 35.4857L24.9016 34.47C25.9244 33.2986 26.8444 32.1872 27.663 31.13L28.3387 30.2386C31.1601 26.4372 32.5716 23.42 32.5716 21.19C32.5716 16.43 28.7344 12.5714 24.0001 12.5714C19.2659 12.5714 15.4287 16.43 15.4287 21.19C15.4287 23.42 16.8401 26.4372 19.6616 30.2386L20.3373 31.13C21.5051 32.6263 22.7268 34.0782 24.0001 35.4857Z" stroke="#83601B" stroke-width="1.42857" stroke-linecap="round" stroke-linejoin="round"></path>
    <path d="M24.0001 24.7143C25.9726 24.7143 27.5716 23.1153 27.5716 21.1429C27.5716 19.1704 25.9726 17.5714 24.0001 17.5714C22.0277 17.5714 20.4287 19.1704 20.4287 21.1429C20.4287 23.1153 22.0277 24.7143 24.0001 24.7143Z" stroke="#83601B" stroke-width="1.42857" stroke-linecap="round" stroke-linejoin="round"></path>
  </symbol>






  <symbol xmlns="http://www.w3.org/2000/svg" viewBox="0 0 48 47" id="Date icon2">
    <path d="M8.30439 34.2893C5.33512 25.6821 9.98939 9.94078 18.6794 6.94296C27.3695 3.94514 38.8943 9.50514 41.8635 18.1124C44.8328 26.7196 42.9539 36.0449 34.2639 39.0428C25.5738 42.0406 11.2736 42.8966 8.30439 34.2893Z" fill="#D9ECD6"></path>
   
      <path d="M19.5239 12C19.7374 12 19.9422 12.0848 20.0932 12.2358C20.2441 12.3868 20.329 12.5915 20.329 12.805V14.3104H28.9735V12.8154C28.9735 12.6019 29.0583 12.3971 29.2093 12.2461C29.3602 12.0952 29.565 12.0104 29.7785 12.0104C29.992 12.0104 30.1968 12.0952 30.3477 12.2461C30.4987 12.3971 30.5835 12.6019 30.5835 12.8154V14.3104H33.7C34.3098 14.3104 34.8946 14.5525 35.3259 14.9836C35.7572 15.4147 35.9997 15.9994 36 16.6092V32.7012C35.9997 33.311 35.7572 33.8957 35.3259 34.3268C34.8946 34.7579 34.3098 35 33.7 35H15.3C14.6902 35 14.1054 34.7579 13.6741 34.3268C13.2428 33.8957 13.0003 33.311 13 32.7012V16.6092C13.0003 15.9994 13.2428 15.4147 13.6741 14.9836C14.1054 14.5525 14.6902 14.3104 15.3 14.3104H18.7189V12.8039C18.7193 12.5906 18.8042 12.3861 18.9551 12.2354C19.1061 12.0847 19.3106 12 19.5239 12ZM14.61 20.9033V32.7012C14.61 32.7918 14.6278 32.8815 14.6625 32.9652C14.6972 33.0489 14.748 33.125 14.8121 33.1891C14.8762 33.2531 14.9522 33.304 15.0359 33.3386C15.1197 33.3733 15.2094 33.3912 15.3 33.3912H33.7C33.7906 33.3912 33.8803 33.3733 33.9641 33.3386C34.0478 33.304 34.1238 33.2531 34.1879 33.1891C34.252 33.125 34.3028 33.0489 34.3375 32.9652C34.3722 32.8815 34.39 32.7918 34.39 32.7012V20.9194L14.61 20.9033ZM20.667 28.8119V30.7278H18.75V28.8119H20.667ZM25.4579 28.8119V30.7278H23.542V28.8119H25.4579ZM30.25 28.8119V30.7278H28.3329V28.8119H30.25ZM20.667 24.2383V26.1542H18.75V24.2383H20.667ZM25.4579 24.2383V26.1542H23.542V24.2383H25.4579ZM30.25 24.2383V26.1542H28.3329V24.2383H30.25ZM18.7189 15.9192H15.3C15.2094 15.9192 15.1197 15.9371 15.0359 15.9717C14.9522 16.0064 14.8762 16.0572 14.8121 16.1213C14.748 16.1854 14.6972 16.2614 14.6625 16.3452C14.6278 16.4289 14.61 16.5186 14.61 16.6092V19.2945L34.39 19.3106V16.6092C34.39 16.5186 34.3722 16.4289 34.3375 16.3452C34.3028 16.2614 34.252 16.1854 34.1879 16.1213C34.1238 16.0572 34.0478 16.0064 33.9641 15.9717C33.8803 15.9371 33.7906 15.9192 33.7 15.9192H30.5835V16.9876C30.5835 17.2011 30.4987 17.4058 30.3477 17.5568C30.1968 17.7078 29.992 17.7926 29.7785 17.7926C29.565 17.7926 29.3602 17.7078 29.2093 17.5568C29.0583 17.4058 28.9735 17.2011 28.9735 16.9876V15.9192H20.329V16.9772C20.329 17.1907 20.2441 17.3955 20.0932 17.5464C19.9422 17.6974 19.7374 17.7822 19.5239 17.7822C19.3105 17.7822 19.1057 17.6974 18.9547 17.5464C18.8038 17.3955 18.7189 17.1907 18.7189 16.9772V15.9192Z" fill="#083E06"></path>
    
    
  </symbol>
  <symbol xmlns="http://www.w3.org/2000/svg" viewBox="0 0 47 46" id="Klokka icon2">
    <path d="M7.32685 33.3058C4.35759 24.6986 9.01185 8.95726 17.7019 5.95944C26.3919 2.96162 37.9167 8.52162 40.886 17.1289C43.8552 25.7361 41.9764 35.0614 33.2863 38.0592C24.5963 41.0571 10.2961 41.9131 7.32685 33.3058Z" fill="#D9ECD6"></path>
    <path d="M24 37.1251C21.4041 37.1251 18.8665 36.3553 16.7081 34.9131C14.5498 33.4709 12.8675 31.4211 11.8741 29.0228C10.8807 26.6245 10.6208 23.9855 11.1272 21.4395C11.6336 18.8935 12.8837 16.5549 14.7192 14.7193C16.5548 12.8837 18.8934 11.6337 21.4394 11.1273C23.9854 10.6208 26.6244 10.8808 29.0227 11.8742C31.421 12.8676 33.4709 14.5498 34.913 16.7082C36.3552 18.8666 37.125 21.4042 37.125 24.0001C37.125 27.481 35.7422 30.8194 33.2808 33.2808C30.8194 35.7423 27.481 37.1251 24 37.1251ZM24 12.7501C21.775 12.7501 19.5999 13.4099 17.7498 14.646C15.8998 15.8822 14.4578 17.6392 13.6064 19.6949C12.7549 21.7506 12.5321 24.0126 12.9662 26.1948C13.4003 28.3771 14.4717 30.3817 16.0451 31.955C17.6184 33.5284 19.623 34.5998 21.8052 35.0339C23.9875 35.468 26.2495 35.2452 28.3052 34.3937C30.3609 33.5422 32.1179 32.1003 33.354 30.2502C34.5902 28.4002 35.25 26.2251 35.25 24.0001C35.25 21.0164 34.0647 18.1549 31.955 16.0451C29.8452 13.9353 26.9837 12.7501 24 12.7501Z" fill="#083E06"></path>
    <path d="M28.3031 29.6251L23.0625 24.3845V15.5626H24.9375V23.6063L29.625 28.3032L28.3031 29.6251Z" fill="#083E06"></path>
  </symbol>

  <symbol fill="none" xmlns="http://www.w3.org/2000/svg" viewBox="0 0 47 46" id="Sted icon2">
    <path d="M7.32685 33.3059C4.35758 24.6986 9.01185 8.95732 17.7019 5.9595C26.3919 2.96168 37.9167 8.52168 40.886 17.1289C43.8552 25.7362 41.9764 35.0615 33.2863 38.0593C24.5963 41.0571 10.2961 41.9131 7.32685 33.3059Z" fill="#D9ECD6"></path>
    <path fill-rule="evenodd" clip-rule="evenodd" d="M24.0001 35.4857L24.9016 34.47C25.9244 33.2986 26.8444 32.1872 27.663 31.13L28.3387 30.2386C31.1601 26.4372 32.5716 23.42 32.5716 21.19C32.5716 16.43 28.7344 12.5714 24.0001 12.5714C19.2659 12.5714 15.4287 16.43 15.4287 21.19C15.4287 23.42 16.8401 26.4372 19.6616 30.2386L20.3373 31.13C21.5051 32.6263 22.7268 34.0782 24.0001 35.4857Z" stroke="#083E06" stroke-width="1.42857" stroke-linecap="round" stroke-linejoin="round"></path>
    <path d="M24.0001 24.7143C25.9726 24.7143 27.5716 23.1153 27.5716 21.1429C27.5716 19.1704 25.9726 17.5714 24.0001 17.5714C22.0277 17.5714 20.4287 19.1704 20.4287 21.1429C20.4287 23.1153 22.0277 24.7143 24.0001 24.7143Z" stroke="#083E06" stroke-width="1.42857" stroke-linecap="round" stroke-linejoin="round"></path>
  </symbol>


</svg>