<svg width="47" height="46" viewBox="0 0 47 46" fill="none" xmlns="http://www.w3.org/2000/svg">
<path d="M7.32685 33.3059C4.35758 24.6986 9.01185 8.95732 17.7019 5.9595C26.3919 2.96168 37.9167 8.52168 40.886 17.1289C43.8552 25.7362 41.9764 35.0615 33.2863 38.0593C24.5963 41.0571 10.2961 41.9131 7.32685 33.3059Z" fill="white"/>
<path fill-rule="evenodd" clip-rule="evenodd" d="M24.0001 35.4857L24.9016 34.47C25.9244 33.2986 26.8444 32.1872 27.663 31.13L28.3387 30.2386C31.1601 26.4372 32.5716 23.42 32.5716 21.19C32.5716 16.43 28.7344 12.5714 24.0001 12.5714C19.2659 12.5714 15.4287 16.43 15.4287 21.19C15.4287 23.42 16.8401 26.4372 19.6616 30.2386L20.3373 31.13C21.5051 32.6263 22.7268 34.0782 24.0001 35.4857Z" stroke="#83601B" stroke-width="1.42857" stroke-linecap="round" stroke-linejoin="round"/>
<path d="M24.0001 24.7143C25.9726 24.7143 27.5716 23.1153 27.5716 21.1429C27.5716 19.1704 25.9726 17.5714 24.0001 17.5714C22.0277 17.5714 20.4287 19.1704 20.4287 21.1429C20.4287 23.1153 22.0277 24.7143 24.0001 24.7143Z" stroke="#83601B" stroke-width="1.42857" stroke-linecap="round" stroke-linejoin="round"/>
</svg>
