<svg width="535" height="128" viewBox="0 0 535 128" fill="none" xmlns="http://www.w3.org/2000/svg">
<path d="M535 85.8834C535 108.176 510.362 128 361.8 128C213.239 128 0 103.958 0 81.6663C0 59.3742 40.5602 0 189.122 0C337.683 0 535 63.5913 535 85.8834Z" fill="#33A81F" fill-opacity="0.16"/>
<path d="M77.05 96.54C76.21 96.54 75.5567 96.4933 75.09 96.4C74.67 96.3533 74.2033 96.2133 73.69 95.98C73.13 95.7 72.71 95.3033 72.43 94.79C72.43 94.23 72.6867 93.95 73.2 93.95C73.7133 93.95 74.3667 94.1133 75.16 94.44C75.9067 94.8133 76.5367 95 77.05 95C78.0767 95 79.01 94.58 79.85 93.74C80.7367 92.9 81.4133 91.8033 81.88 90.45C82.8133 87.79 83.28 85.4333 83.28 83.38C83.28 81.0933 82.9533 78.7833 82.3 76.45C81.6467 74.1167 80.7833 71.9233 79.71 69.87C79.4767 69.3567 79.08 68.5867 78.52 67.56C77.3533 65.2267 76.4667 63.4067 75.86 62.1C75.2533 60.7933 74.7167 59.3467 74.25 57.76C73.5967 55.66 73.27 53.3967 73.27 50.97C73.27 49.43 73.5033 47.96 73.97 46.56C74.4833 45.1133 75.2767 43.8767 76.35 42.85C77.5167 41.7767 78.8233 41.24 80.27 41.24C80.83 41.24 81.5067 41.4733 82.3 41.94C83.0933 42.36 83.49 42.78 83.49 43.2C83.49 43.5733 83.35 43.76 83.07 43.76C82.79 43.76 82.4167 43.6433 81.95 43.41C81.53 43.1767 81.1333 43.06 80.76 43.06C79.6867 43.06 78.73 43.4567 77.89 44.25C77.0967 45.0433 76.5133 46.0233 76.14 47.19C75.8133 48.17 75.65 49.2433 75.65 50.41C75.65 52.23 75.8833 54.12 76.35 56.08C76.8167 57.9933 77.4467 59.79 78.24 61.47L80.69 66.58L81.39 68.05C82.37 70.0567 83.1167 71.7133 83.63 73.02C84.19 74.3267 84.6567 75.7967 85.03 77.43C85.5433 79.6233 85.8 81.7233 85.8 83.73C85.8 86.4367 85.1 89.19 83.7 91.99C83 93.3433 82.0667 94.44 80.9 95.28C79.7333 96.12 78.45 96.54 77.05 96.54ZM110.981 95.77C110.655 95.77 110.351 95.6067 110.071 95.28C109.791 94.9533 109.605 94.58 109.511 94.16L109.301 92.83C109.161 92.27 109.091 91.92 109.091 91.78C103.865 73.0667 100.995 62.5667 100.481 60.28C100.061 58.6 99.1047 53.9333 97.6114 46.28C97.5647 46.56 97.5414 47.5167 97.5414 49.15V74.49L97.6814 84.5L97.8214 94.44L97.4014 95H95.7914L95.5814 94.44C95.6747 93.9733 95.7214 93.04 95.7214 91.64L95.6514 79.46L95.5114 67.28V58.11V51.46C95.4647 49.5 95.4414 47.3067 95.4414 44.88C95.4414 44.6 95.4181 44.3433 95.3714 44.11V43.41C95.3714 42.85 95.5114 42.4767 95.7914 42.29C96.1181 42.0567 96.6081 41.94 97.2614 41.94C97.5414 41.94 97.8447 42.08 98.1714 42.36C98.5447 42.64 98.7781 42.9433 98.8714 43.27L100.341 50.13C100.995 53.3967 101.555 55.87 102.021 57.55C103.001 61.4233 104.681 67.77 107.061 76.59C108.415 82.3767 109.628 86.81 110.701 89.89C110.981 89.19 111.121 88.07 111.121 86.53C111.121 82.0033 111.168 77.9433 111.261 74.35L111.401 62.17C111.401 60.1633 111.425 58.3433 111.471 56.71V51.32L111.401 41.45C111.635 40.7967 112.125 40.47 112.871 40.47C113.245 40.47 113.431 41.1467 113.431 42.5C113.431 43.1067 113.408 43.5967 113.361 43.97C113.361 44.3433 113.338 44.6233 113.291 44.81C113.291 44.95 113.291 45.0433 113.291 45.09V49.57C113.291 55.7767 113.268 61.3067 113.221 66.16C113.175 71.06 113.151 76.5667 113.151 82.68C113.151 83.8467 113.081 85.69 112.941 88.21L112.801 93.74C112.801 95.0933 112.195 95.77 110.981 95.77ZM134.283 96.47C127.797 96.47 124.553 85.2467 124.553 62.8V60C124.553 56.08 124.787 52.6733 125.253 49.78C125.533 47.96 125.907 46.4667 126.373 45.3C126.887 44.1333 127.563 43.2 128.403 42.5C129.197 41.7067 130.223 41.31 131.483 41.31C132.603 41.31 133.63 41.5433 134.563 42.01C135.497 42.43 136.267 42.99 136.873 43.69C137.387 44.3433 137.853 45.2067 138.273 46.28C138.693 47.3533 139.02 48.38 139.253 49.36L139.813 52.65C140.933 60.63 141.493 67.7 141.493 73.86V74.07C141.493 76.4033 141.447 78.55 141.353 80.51C141.26 82.8433 141.003 85.2933 140.583 87.86C140.397 89.12 140.117 90.2167 139.743 91.15C139.417 92.0833 138.973 93.0167 138.413 93.95C137.433 95.63 136.057 96.47 134.283 96.47ZM134.423 94.51C135.17 94.51 135.847 94.09 136.453 93.25C137.06 92.3633 137.527 91.15 137.853 89.61C138.6 86.3433 139.067 83.1467 139.253 80.02C139.347 77.5 139.393 75.05 139.393 72.67V72.39L139.323 65.39C139.23 62.87 138.95 59.6033 138.483 55.59C138.11 52.7433 137.34 49.8267 136.173 46.84C135.707 45.6733 135.077 44.7633 134.283 44.11C133.537 43.4567 132.72 43.13 131.833 43.13C131.04 43.13 130.34 43.5033 129.733 44.25C129.127 44.9967 128.637 46.0467 128.263 47.4C127.423 50.5267 126.957 53.42 126.863 56.08C126.723 58.3667 126.653 60.7233 126.653 63.15V66.58C126.653 69.7067 126.957 73.6733 127.563 78.48C127.937 81.5133 128.403 84.15 128.963 86.39C129.523 88.63 130.27 90.52 131.203 92.06C132.137 93.6933 133.21 94.51 134.423 94.51ZM155.925 95.14C155.365 95.14 154.805 95 154.245 94.72C153.685 94.44 153.405 94.1133 153.405 93.74C153.405 93.46 153.591 92.9933 153.965 92.34C154.338 91.7333 154.501 91.2667 154.455 90.94L154.245 84.78L153.755 65.67L153.615 57.2C153.568 52.02 153.451 48.7767 153.265 47.47C153.171 46.9567 152.985 46.3733 152.705 45.72C152.378 44.8333 152.215 44.2033 152.215 43.83C152.215 42.71 153.988 42.15 157.535 42.15H157.885C160.265 42.15 162.318 42.9667 164.045 44.6C165.398 45.86 166.611 47.8433 167.685 50.55C168.431 52.6967 168.991 55.1 169.365 57.76C169.551 59.16 169.715 61.3067 169.855 64.2V66.37C169.855 69.2633 169.458 72.4133 168.665 75.82C167.918 79.18 166.845 82.33 165.445 85.27C164.605 87.1367 163.508 88.8167 162.155 90.31C160.848 91.8033 159.588 92.9933 158.375 93.88C157.161 94.72 156.345 95.14 155.925 95.14ZM156.975 91.57C158.701 90.6833 160.241 89.4 161.595 87.72C162.948 85.9933 164.021 84.1033 164.815 82.05C165.515 80.3233 166.098 78.3633 166.565 76.17C167.031 73.93 167.358 71.8533 167.545 69.94C167.685 68.26 167.755 66.65 167.755 65.11C167.755 51.4833 163.998 44.67 156.485 44.67C155.505 44.67 155.015 44.9267 155.015 45.44C155.015 47.0733 155.108 49.01 155.295 51.25C155.481 53.5367 155.575 55.4733 155.575 57.06C155.575 59.6267 155.761 64.0833 156.135 70.43C156.461 75.9367 156.625 80.37 156.625 83.73V91.57H156.975ZM186.225 94.72C185.105 94.6733 183.682 94.65 181.955 94.65C181.628 94.65 181.325 94.5333 181.045 94.3C180.812 94.0667 180.695 93.81 180.695 93.53C180.695 92.9233 181.092 92.62 181.885 92.62H184.615C184.615 87.2533 184.452 80.4867 184.125 72.32C183.938 65.7867 183.752 60.6533 183.565 56.92L183.635 53.35V48.73C183.635 46.3967 183.588 44.9033 183.495 44.25H181.045C180.578 44.25 180.345 43.9233 180.345 43.27C180.345 42.85 180.532 42.5233 180.905 42.29C181.232 42.15 182.095 42.08 183.495 42.08H185.455C186.155 42.1267 187.042 42.15 188.115 42.15C188.488 42.15 188.792 42.2433 189.025 42.43C189.258 42.57 189.375 42.8033 189.375 43.13C189.375 43.41 189.305 43.6667 189.165 43.9C189.025 44.1333 188.815 44.25 188.535 44.25C188.208 44.25 187.928 44.2267 187.695 44.18H186.855H186.155C185.688 44.18 185.408 44.2267 185.315 44.32L185.175 44.6C185.175 48.24 185.478 55.59 186.085 66.65C186.645 76.87 186.925 84.22 186.925 88.7V90.66C186.878 91.2667 186.855 91.8967 186.855 92.55H189.375C190.448 92.55 190.985 92.8767 190.985 93.53C190.985 93.81 190.868 94.09 190.635 94.37C190.448 94.6033 190.238 94.72 190.005 94.72H186.225ZM211.392 96.12C207.892 96.12 205.302 93.6 203.622 88.56C201.942 83.52 201.102 75.68 201.102 65.04C201.102 62.7533 201.149 60.7233 201.242 58.95C201.335 56.8033 201.662 54.4933 202.222 52.02C202.455 50.76 202.735 49.6633 203.062 48.73C203.435 47.7967 203.925 46.8167 204.532 45.79C205.605 43.9233 207.099 42.6167 209.012 41.87C210.039 41.4967 211.112 41.31 212.232 41.31C213.632 41.31 214.332 41.7067 214.332 42.5C214.332 43.06 213.982 43.34 213.282 43.34C213.095 43.34 212.769 43.27 212.302 43.13L211.322 42.99C209.782 42.99 208.452 43.62 207.332 44.88C206.539 45.8133 205.769 47.4233 205.022 49.71C204.509 51.5767 204.159 53.6533 203.972 55.94C203.832 57.2 203.692 59.2533 203.552 62.1L203.482 66.72V70.57C203.482 75.0967 203.809 79.2267 204.462 82.96C204.929 85.2933 205.465 87.23 206.072 88.77C206.725 90.31 207.589 91.57 208.662 92.55C209.829 93.6233 211.089 94.16 212.442 94.16C214.915 94.16 216.899 92.9933 218.392 90.66C218.392 89.4 218.299 87.7433 218.112 85.69C217.972 84.6633 217.785 83.7067 217.552 82.82C217.272 82.0267 216.945 81.63 216.572 81.63L215.242 81.77L213.772 81.91C212.699 81.91 212.162 81.5133 212.162 80.72C212.162 80.3467 212.815 79.9967 214.122 79.67C215.429 79.3433 216.525 79.18 217.412 79.18C218.159 79.18 218.695 79.46 219.022 80.02C219.395 80.5333 219.582 81.2333 219.582 82.12C219.582 83.1467 219.815 85.2233 220.282 88.35C220.749 90.9633 220.982 93.04 220.982 94.58C220.982 95.3267 220.679 95.7 220.072 95.7C218.952 95.7 218.392 95.1867 218.392 94.16L218.462 93.95V93.81C215.802 95.35 213.445 96.12 211.392 96.12ZM233.427 95.42C232.307 95.42 231.514 95.3033 231.047 95.07C230.627 94.8833 230.417 94.4867 230.417 93.88V92.55C230.371 92.1767 230.347 91.7567 230.347 91.29V91.15L230.417 80.93L230.347 52.02C230.347 49.0333 230.301 46.4433 230.207 44.25C230.207 43.69 230.324 43.2233 230.557 42.85C230.791 42.4767 231.094 42.29 231.467 42.29H235.807C236.461 42.29 236.951 42.3367 237.277 42.43C237.744 42.57 237.977 42.9667 237.977 43.62C237.977 43.9933 237.837 44.2967 237.557 44.53C237.277 44.7633 236.974 44.9033 236.647 44.95H235.457L234.337 44.88L233.217 44.81C232.891 44.81 232.657 44.88 232.517 45.02C232.424 45.1133 232.377 45.3233 232.377 45.65C232.377 47.8433 232.401 49.8267 232.447 51.6V57.55V66.3C232.447 66.3933 232.494 66.44 232.587 66.44H232.657H232.727C233.894 66.3467 235.154 66.3 236.507 66.3C237.254 66.3 237.627 66.6267 237.627 67.28C237.627 67.7467 237.534 68.0733 237.347 68.26C237.207 68.4 236.951 68.47 236.577 68.47H232.587C232.401 68.47 232.307 68.5867 232.307 68.82L232.447 79.18C232.541 82.4 232.587 86.11 232.587 90.31V92.9H235.597H238.537H239.167C240.007 92.9 240.427 93.2033 240.427 93.81C240.427 94.5567 240.217 95 239.797 95.14C239.237 95.3267 238.094 95.42 236.367 95.42H233.427ZM262.192 101.79C261.212 101.79 260.722 101.347 260.722 100.46C260.768 99.9933 261.328 99.4333 262.402 98.78L263.242 98.15C265.295 96.1433 266.322 92.5733 266.322 87.44C266.322 84.2667 266.205 80.8133 265.972 77.08C265.738 72.0867 265.622 68.9367 265.622 67.63L265.202 56.78C264.968 50.62 264.852 46.3967 264.852 44.11C264.105 44.11 263.405 44.1333 262.752 44.18L260.652 44.25C260.372 44.25 260.138 44.1567 259.952 43.97C259.812 43.7367 259.742 43.48 259.742 43.2C259.742 42.64 259.928 42.29 260.302 42.15C260.675 41.9633 261.562 41.87 262.962 41.87L265.622 41.94H269.332C269.658 41.94 269.915 42.0567 270.102 42.29C270.335 42.5233 270.452 42.78 270.452 43.06C270.452 43.48 270.312 43.76 270.032 43.9C269.798 44.04 269.308 44.11 268.562 44.11H267.022C267.022 50.41 267.278 58.2733 267.792 67.7C267.885 68.96 267.978 71.1067 268.072 74.14C268.398 79.9733 268.562 83.45 268.562 84.57C268.562 86.53 268.515 88.07 268.422 89.19C268.375 90.31 268.235 91.5233 268.002 92.83C267.768 94.1833 267.418 95.3267 266.952 96.26C266.532 97.24 265.925 98.1967 265.132 99.13C264.338 100.157 263.358 101.043 262.192 101.79ZM290.851 96.33C289.778 96.33 288.775 96.0967 287.841 95.63C286.908 95.1633 286.138 94.5567 285.531 93.81C284.925 93.11 284.388 92.2467 283.921 91.22C283.455 90.1933 283.081 89.1667 282.801 88.14C282.335 86.5533 281.985 84.57 281.751 82.19L281.611 80.02C281.611 79.5533 281.588 79.25 281.541 79.11C281.541 78.97 281.541 78.8767 281.541 78.83C281.308 76.5433 281.005 71.5033 280.631 63.71C280.305 55.9167 280.141 49.85 280.141 45.51V45.02V44.46C280.141 43.2467 280.491 42.64 281.191 42.64C282.171 42.64 282.661 43.2 282.661 44.32V44.81L282.591 45.37C282.591 50.7833 282.755 57.2 283.081 64.62C283.408 71.9933 283.735 77.3133 284.061 80.58C284.295 82.6333 284.691 84.7333 285.251 86.88C285.625 88.3267 286.021 89.54 286.441 90.52C286.908 91.5 287.491 92.3167 288.191 92.97C289.031 93.7167 289.848 94.09 290.641 94.09C291.435 94.09 292.135 93.9033 292.741 93.53C293.395 93.1567 293.885 92.6667 294.211 92.06C294.538 91.5467 294.795 90.8933 294.981 90.1C295.215 89.26 295.355 88.4667 295.401 87.72C295.448 87.2533 295.471 86.4833 295.471 85.41V77.43C295.471 73.8833 295.378 69.52 295.191 64.34L294.911 55.38L294.771 49.43C294.631 46.8167 294.561 44.8333 294.561 43.48C294.561 42.9667 294.701 42.57 294.981 42.29C295.261 42.01 295.588 41.87 295.961 41.87C296.335 41.87 296.638 42.01 296.871 42.29C297.151 42.57 297.291 42.9667 297.291 43.48V48.8C297.291 51.1333 297.315 53.2333 297.361 55.1V61.4C297.361 65.9267 297.408 69.8933 297.501 73.3C297.548 76.7533 297.571 80.6267 297.571 84.92C297.571 86.0867 297.525 87.1133 297.431 88C297.338 88.8867 297.151 89.82 296.871 90.8C296.591 91.92 296.195 92.8767 295.681 93.67C295.215 94.4167 294.585 95.0467 293.791 95.56C292.905 96.0733 291.925 96.33 290.851 96.33ZM311.436 95.42C311.11 95.42 310.83 95.28 310.596 95C310.41 94.72 310.316 94.37 310.316 93.95V92.83V91.15C310.316 88.21 310.2 84.8967 309.966 81.21C309.78 77.29 309.686 73.9767 309.686 71.27C309.686 68.75 309.57 63.8733 309.336 56.64C309.056 50.1067 308.916 45.23 308.916 42.01C308.916 41.7767 309.01 41.59 309.196 41.45C309.43 41.2633 309.686 41.17 309.966 41.17C310.806 41.17 311.226 41.52 311.226 42.22C311.226 50.8533 311.296 57.3167 311.436 61.61L311.786 74.14C311.786 76.1 311.926 79.2967 312.206 83.73L312.626 92.41C312.626 92.55 312.696 92.62 312.836 92.62C312.883 92.6667 313.186 92.69 313.746 92.69H318.086C318.693 92.69 318.996 93.11 318.996 93.95C318.996 94.3233 318.926 94.65 318.786 94.93C318.646 95.1633 318.436 95.28 318.156 95.28L317.666 95.35H317.106C316.126 95.3967 314.236 95.42 311.436 95.42ZM331.181 95.42C330.061 95.42 329.268 95.3033 328.801 95.07C328.381 94.8833 328.171 94.4867 328.171 93.88V92.55C328.125 92.1767 328.101 91.7567 328.101 91.29V91.15L328.171 80.93L328.101 52.02C328.101 49.0333 328.055 46.4433 327.961 44.25C327.961 43.69 328.078 43.2233 328.311 42.85C328.545 42.4767 328.848 42.29 329.221 42.29H333.561C334.215 42.29 334.705 42.3367 335.031 42.43C335.498 42.57 335.731 42.9667 335.731 43.62C335.731 43.9933 335.591 44.2967 335.311 44.53C335.031 44.7633 334.728 44.9033 334.401 44.95H333.211L332.091 44.88L330.971 44.81C330.645 44.81 330.411 44.88 330.271 45.02C330.178 45.1133 330.131 45.3233 330.131 45.65C330.131 47.8433 330.155 49.8267 330.201 51.6V57.55V66.3C330.201 66.3933 330.248 66.44 330.341 66.44H330.411H330.481C331.648 66.3467 332.908 66.3 334.261 66.3C335.008 66.3 335.381 66.6267 335.381 67.28C335.381 67.7467 335.288 68.0733 335.101 68.26C334.961 68.4 334.705 68.47 334.331 68.47H330.341C330.155 68.47 330.061 68.5867 330.061 68.82L330.201 79.18C330.295 82.4 330.341 86.11 330.341 90.31V92.9H333.351H336.291H336.921C337.761 92.9 338.181 93.2033 338.181 93.81C338.181 94.5567 337.971 95 337.551 95.14C336.991 95.3267 335.848 95.42 334.121 95.42H331.181ZM353.933 95.42C353.466 95.42 353.116 95.2567 352.883 94.93C352.649 94.5567 352.533 94.1133 352.533 93.6V87.37V81.14L352.393 69.94C352.253 64.9467 352.183 61.2133 352.183 58.74L352.253 56.71V52.16C352.253 47.12 352.206 44.6 352.113 44.6H344.203C343.829 44.6 343.479 44.5067 343.153 44.32C342.873 44.1333 342.733 43.8767 342.733 43.55C342.733 43.1767 342.803 42.92 342.943 42.78C343.083 42.64 343.456 42.5233 344.063 42.43C344.716 42.29 345.649 42.22 346.863 42.22H353.863L361.563 42.15C362.123 42.15 362.496 42.2433 362.683 42.43C362.916 42.6167 363.033 42.92 363.033 43.34C363.033 44.04 362.589 44.39 361.703 44.39H358.553H355.473L354.843 44.46L354.913 48.52V53.98V82.4V88.21L354.983 93.39V93.53C354.983 93.9033 354.959 94.23 354.913 94.51C354.866 94.7433 354.773 94.93 354.633 95.07C354.493 95.3033 354.259 95.42 353.933 95.42ZM383.566 95.7C382.633 95.7 382.05 95.2333 381.816 94.3L380.976 91.22C379.67 86.88 378.713 83.2167 378.106 80.23C377.733 78.5967 377.266 76.3333 376.706 73.44C376.053 70.08 375.446 67.35 374.886 65.25L374.186 65.67L373.276 66.09L373.416 93.04V94.09C373.416 95.0233 372.996 95.49 372.156 95.49C371.783 95.49 371.48 95.3733 371.246 95.14C371.013 94.9067 370.896 94.6267 370.896 94.3V93.25L371.036 79.11L371.176 72.32C371.363 64.1533 371.456 57.2 371.456 51.46V42.43C371.456 42.01 371.876 41.8 372.716 41.8C373.93 41.8 375.05 42.1267 376.076 42.78C377.15 43.4333 377.99 44.32 378.596 45.44C379.856 47.7267 380.486 50.2233 380.486 52.93C380.486 55.0767 380.02 57.41 379.086 59.93C378.806 60.63 378.456 61.4467 378.036 62.38C377.616 63.2667 377.243 63.8733 376.916 64.2C377.896 67.7933 379.32 73.3233 381.186 80.79L384.476 93.39C384.523 93.53 384.546 93.7867 384.546 94.16C384.546 94.58 384.453 94.93 384.266 95.21C384.126 95.5367 383.893 95.7 383.566 95.7ZM373.206 63.78C373.58 63.78 374.21 63.3367 375.096 62.45C375.983 61.5633 376.613 60.8167 376.986 60.21C377.313 59.5567 377.593 58.5767 377.826 57.27C378.06 55.9633 378.176 54.7967 378.176 53.77C378.176 51.8567 377.85 49.8967 377.196 47.89C376.87 46.7233 376.38 45.79 375.726 45.09C375.073 44.3433 374.35 43.97 373.556 43.97H373.416C373.37 44.0167 373.3 44.04 373.206 44.04V63.78ZM403.601 95.42C403.974 93.1333 404.161 90.38 404.161 87.16L404.021 80.44L403.881 73.79L403.461 73.3L401.291 73.51C400.217 73.5567 399.074 73.6733 397.861 73.86C396.834 74.0933 396.297 74.3033 396.251 74.49L392.751 87.86C392.657 88.28 392.471 89.1433 392.191 90.45C391.957 91.7567 391.701 92.7833 391.421 93.53C391.047 94.4633 390.674 94.93 390.301 94.93C390.161 94.93 390.021 94.8367 389.881 94.65C389.787 94.4167 389.741 94.23 389.741 94.09C389.787 92.0833 390.721 87.4633 392.541 80.23C395.387 68.9833 398.444 58.04 401.711 47.4C402.317 45.3 402.877 43.9 403.391 43.2C403.904 42.5467 404.417 42.22 404.931 42.22L407.591 42.08C408.804 41.94 409.714 41.87 410.321 41.87C411.814 41.87 412.561 42.2433 412.561 42.99L412.071 43.83C409.831 43.83 407.544 43.97 405.211 44.25C405.211 45.37 405.281 47.0967 405.421 49.43C405.561 51.7167 405.631 53.4667 405.631 54.68C405.631 57.7133 405.607 60.4433 405.561 62.87C405.514 65.25 405.491 67.9567 405.491 70.99L405.771 71.41C406.331 71.41 407.264 71.2933 408.571 71.06C409.551 70.8267 410.484 70.71 411.371 70.71L412.281 71.9C412.281 72.6933 410.624 73.09 407.311 73.09H405.491C405.491 76.17 405.514 78.9467 405.561 81.42C405.654 83.8467 405.701 86.6233 405.701 89.75V91.15C405.654 91.6167 405.631 92.1067 405.631 92.62C405.631 93.4133 405.841 93.81 406.261 93.81C406.961 93.81 408.291 93.6933 410.251 93.46C412.024 93.18 413.354 93.04 414.241 93.04C414.614 93.04 414.964 93.1333 415.291 93.32C415.617 93.46 415.781 93.67 415.781 93.95C415.781 94.4633 415.081 94.79 413.681 94.93C411.814 95.1167 410.297 95.21 409.131 95.21C407.404 95.3033 406.424 95.3967 406.191 95.49C406.191 95.49 405.981 95.6533 405.561 95.98C405.234 96.26 404.907 96.4 404.581 96.4L403.601 95.42ZM396.811 72.32C399.751 72.18 402.084 71.9 403.811 71.48L403.951 64.13L404.091 55.59C404.091 52.2767 403.927 49.5467 403.601 47.4C403.181 47.8667 401.967 51.8333 399.961 59.3C397.954 66.7667 396.904 71.1067 396.811 72.32ZM435.465 95.7C434.531 95.7 433.948 95.2333 433.715 94.3L432.875 91.22C431.568 86.88 430.611 83.2167 430.005 80.23C429.631 78.5967 429.165 76.3333 428.605 73.44C427.951 70.08 427.345 67.35 426.785 65.25L426.085 65.67L425.175 66.09L425.315 93.04V94.09C425.315 95.0233 424.895 95.49 424.055 95.49C423.681 95.49 423.378 95.3733 423.145 95.14C422.911 94.9067 422.795 94.6267 422.795 94.3V93.25L422.935 79.11L423.075 72.32C423.261 64.1533 423.355 57.2 423.355 51.46V42.43C423.355 42.01 423.775 41.8 424.615 41.8C425.828 41.8 426.948 42.1267 427.975 42.78C429.048 43.4333 429.888 44.32 430.495 45.44C431.755 47.7267 432.385 50.2233 432.385 52.93C432.385 55.0767 431.918 57.41 430.985 59.93C430.705 60.63 430.355 61.4467 429.935 62.38C429.515 63.2667 429.141 63.8733 428.815 64.2C429.795 67.7933 431.218 73.3233 433.085 80.79L436.375 93.39C436.421 93.53 436.445 93.7867 436.445 94.16C436.445 94.58 436.351 94.93 436.165 95.21C436.025 95.5367 435.791 95.7 435.465 95.7ZM425.105 63.78C425.478 63.78 426.108 63.3367 426.995 62.45C427.881 61.5633 428.511 60.8167 428.885 60.21C429.211 59.5567 429.491 58.5767 429.725 57.27C429.958 55.9633 430.075 54.7967 430.075 53.77C430.075 51.8567 429.748 49.8967 429.095 47.89C428.768 46.7233 428.278 45.79 427.625 45.09C426.971 44.3433 426.248 43.97 425.455 43.97H425.315C425.268 44.0167 425.198 44.04 425.105 44.04V63.78Z" fill="black"/>
</svg>
