<svg width="545" height="152" viewBox="0 0 545 152" fill="none" xmlns="http://www.w3.org/2000/svg">
<path d="M545 50.0135C545 23.5415 519.901 9.45816e-07 368.563 9.45816e-07C217.225 9.45816e-07 0 28.5493 0 55.0212C0 81.4932 41.3183 152 192.657 152C343.995 152 545 76.4854 545 50.0135Z" fill="#FF0000" fill-opacity="0.19"/>
<path d="M129.04 100.77C128.713 100.77 128.41 100.607 128.13 100.28C127.85 99.9533 127.663 99.58 127.57 99.16L127.36 97.83C127.22 97.27 127.15 96.92 127.15 96.78C121.923 78.0667 119.053 67.5667 118.54 65.28C118.12 63.6 117.163 58.9333 115.67 51.28C115.623 51.56 115.6 52.5167 115.6 54.15V79.49L115.74 89.5L115.88 99.44L115.46 100H113.85L113.64 99.44C113.733 98.9733 113.78 98.04 113.78 96.64L113.71 84.46L113.57 72.28V63.11V56.46C113.523 54.5 113.5 52.3067 113.5 49.88C113.5 49.6 113.477 49.3433 113.43 49.11V48.41C113.43 47.85 113.57 47.4767 113.85 47.29C114.177 47.0567 114.667 46.94 115.32 46.94C115.6 46.94 115.903 47.08 116.23 47.36C116.603 47.64 116.837 47.9433 116.93 48.27L118.4 55.13C119.053 58.3967 119.613 60.87 120.08 62.55C121.06 66.4233 122.74 72.77 125.12 81.59C126.473 87.3767 127.687 91.81 128.76 94.89C129.04 94.19 129.18 93.07 129.18 91.53C129.18 87.0033 129.227 82.9433 129.32 79.35L129.46 67.17C129.46 65.1633 129.483 63.3433 129.53 61.71V56.32L129.46 46.45C129.693 45.7967 130.183 45.47 130.93 45.47C131.303 45.47 131.49 46.1467 131.49 47.5C131.49 48.1067 131.467 48.5967 131.42 48.97C131.42 49.3433 131.397 49.6233 131.35 49.81C131.35 49.95 131.35 50.0433 131.35 50.09V54.57C131.35 60.7767 131.327 66.3067 131.28 71.16C131.233 76.06 131.21 81.5667 131.21 87.68C131.21 88.8467 131.14 90.69 131 93.21L130.86 98.74C130.86 100.093 130.253 100.77 129.04 100.77ZM148.352 99.72C147.232 99.6733 145.808 99.65 144.082 99.65C143.755 99.65 143.452 99.5333 143.172 99.3C142.938 99.0667 142.822 98.81 142.822 98.53C142.822 97.9233 143.218 97.62 144.012 97.62H146.742C146.742 92.2533 146.578 85.4867 146.252 77.32C146.065 70.7867 145.878 65.6533 145.692 61.92L145.762 58.35V53.73C145.762 51.3967 145.715 49.9033 145.622 49.25H143.172C142.705 49.25 142.472 48.9233 142.472 48.27C142.472 47.85 142.658 47.5233 143.032 47.29C143.358 47.15 144.222 47.08 145.622 47.08H147.582C148.282 47.1267 149.168 47.15 150.242 47.15C150.615 47.15 150.918 47.2433 151.152 47.43C151.385 47.57 151.502 47.8033 151.502 48.13C151.502 48.41 151.432 48.6667 151.292 48.9C151.152 49.1333 150.942 49.25 150.662 49.25C150.335 49.25 150.055 49.2267 149.822 49.18H148.982H148.282C147.815 49.18 147.535 49.2267 147.442 49.32L147.302 49.6C147.302 53.24 147.605 60.59 148.212 71.65C148.772 81.87 149.052 89.22 149.052 93.7V95.66C149.005 96.2667 148.982 96.8967 148.982 97.55H151.502C152.575 97.55 153.112 97.8767 153.112 98.53C153.112 98.81 152.995 99.09 152.762 99.37C152.575 99.6033 152.365 99.72 152.132 99.72H148.352ZM167.009 101.54C166.169 101.54 165.516 101.493 165.049 101.4C164.629 101.353 164.162 101.213 163.649 100.98C163.089 100.7 162.669 100.303 162.389 99.79C162.389 99.23 162.646 98.95 163.159 98.95C163.672 98.95 164.326 99.1133 165.119 99.44C165.866 99.8133 166.496 100 167.009 100C168.036 100 168.969 99.58 169.809 98.74C170.696 97.9 171.372 96.8033 171.839 95.45C172.772 92.79 173.239 90.4333 173.239 88.38C173.239 86.0933 172.912 83.7833 172.259 81.45C171.606 79.1167 170.742 76.9233 169.669 74.87C169.436 74.3567 169.039 73.5867 168.479 72.56C167.312 70.2267 166.426 68.4067 165.819 67.1C165.212 65.7933 164.676 64.3467 164.209 62.76C163.556 60.66 163.229 58.3967 163.229 55.97C163.229 54.43 163.462 52.96 163.929 51.56C164.442 50.1133 165.236 48.8767 166.309 47.85C167.476 46.7767 168.782 46.24 170.229 46.24C170.789 46.24 171.466 46.4733 172.259 46.94C173.052 47.36 173.449 47.78 173.449 48.2C173.449 48.5733 173.309 48.76 173.029 48.76C172.749 48.76 172.376 48.6433 171.909 48.41C171.489 48.1767 171.092 48.06 170.719 48.06C169.646 48.06 168.689 48.4567 167.849 49.25C167.056 50.0433 166.472 51.0233 166.099 52.19C165.772 53.17 165.609 54.2433 165.609 55.41C165.609 57.23 165.842 59.12 166.309 61.08C166.776 62.9933 167.406 64.79 168.199 66.47L170.649 71.58L171.349 73.05C172.329 75.0567 173.076 76.7133 173.589 78.02C174.149 79.3267 174.616 80.7967 174.989 82.43C175.502 84.6233 175.759 86.7233 175.759 88.73C175.759 91.4367 175.059 94.19 173.659 96.99C172.959 98.3433 172.026 99.44 170.859 100.28C169.692 101.12 168.409 101.54 167.009 101.54ZM187.216 101.54C186.376 101.54 185.723 101.493 185.256 101.4C184.836 101.353 184.369 101.213 183.856 100.98C183.296 100.7 182.876 100.303 182.596 99.79C182.596 99.23 182.853 98.95 183.366 98.95C183.879 98.95 184.533 99.1133 185.326 99.44C186.073 99.8133 186.703 100 187.216 100C188.243 100 189.176 99.58 190.016 98.74C190.903 97.9 191.579 96.8033 192.046 95.45C192.979 92.79 193.446 90.4333 193.446 88.38C193.446 86.0933 193.119 83.7833 192.466 81.45C191.813 79.1167 190.949 76.9233 189.876 74.87C189.643 74.3567 189.246 73.5867 188.686 72.56C187.519 70.2267 186.633 68.4067 186.026 67.1C185.419 65.7933 184.883 64.3467 184.416 62.76C183.763 60.66 183.436 58.3967 183.436 55.97C183.436 54.43 183.669 52.96 184.136 51.56C184.649 50.1133 185.443 48.8767 186.516 47.85C187.683 46.7767 188.989 46.24 190.436 46.24C190.996 46.24 191.673 46.4733 192.466 46.94C193.259 47.36 193.656 47.78 193.656 48.2C193.656 48.5733 193.516 48.76 193.236 48.76C192.956 48.76 192.583 48.6433 192.116 48.41C191.696 48.1767 191.299 48.06 190.926 48.06C189.853 48.06 188.896 48.4567 188.056 49.25C187.263 50.0433 186.679 51.0233 186.306 52.19C185.979 53.17 185.816 54.2433 185.816 55.41C185.816 57.23 186.049 59.12 186.516 61.08C186.983 62.9933 187.613 64.79 188.406 66.47L190.856 71.58L191.556 73.05C192.536 75.0567 193.283 76.7133 193.796 78.02C194.356 79.3267 194.823 80.7967 195.196 82.43C195.709 84.6233 195.966 86.7233 195.966 88.73C195.966 91.4367 195.266 94.19 193.866 96.99C193.166 98.3433 192.233 99.44 191.066 100.28C189.899 101.12 188.616 101.54 187.216 101.54ZM210.087 100.42C208.967 100.42 208.174 100.303 207.707 100.07C207.287 99.8833 207.077 99.4867 207.077 98.88V97.55C207.031 97.1767 207.007 96.7567 207.007 96.29V96.15L207.077 85.93L207.007 57.02C207.007 54.0333 206.961 51.4433 206.867 49.25C206.867 48.69 206.984 48.2233 207.217 47.85C207.451 47.4767 207.754 47.29 208.127 47.29H212.467C213.121 47.29 213.611 47.3367 213.937 47.43C214.404 47.57 214.637 47.9667 214.637 48.62C214.637 48.9933 214.497 49.2967 214.217 49.53C213.937 49.7633 213.634 49.9033 213.307 49.95H212.117L210.997 49.88L209.877 49.81C209.551 49.81 209.317 49.88 209.177 50.02C209.084 50.1133 209.037 50.3233 209.037 50.65C209.037 52.8433 209.061 54.8267 209.107 56.6V62.55V71.3C209.107 71.3933 209.154 71.44 209.247 71.44H209.317H209.387C210.554 71.3467 211.814 71.3 213.167 71.3C213.914 71.3 214.287 71.6267 214.287 72.28C214.287 72.7467 214.194 73.0733 214.007 73.26C213.867 73.4 213.611 73.47 213.237 73.47H209.247C209.061 73.47 208.967 73.5867 208.967 73.82L209.107 84.18C209.201 87.4 209.247 91.11 209.247 95.31V97.9H212.257H215.197H215.827C216.667 97.9 217.087 98.2033 217.087 98.81C217.087 99.5567 216.877 100 216.457 100.14C215.897 100.327 214.754 100.42 213.027 100.42H210.087ZM240.329 100.77C240.002 100.77 239.699 100.607 239.419 100.28C239.139 99.9533 238.952 99.58 238.859 99.16L238.649 97.83C238.509 97.27 238.439 96.92 238.439 96.78C233.212 78.0667 230.342 67.5667 229.829 65.28C229.409 63.6 228.452 58.9333 226.959 51.28C226.912 51.56 226.889 52.5167 226.889 54.15V79.49L227.029 89.5L227.169 99.44L226.749 100H225.139L224.929 99.44C225.022 98.9733 225.069 98.04 225.069 96.64L224.999 84.46L224.859 72.28V63.11V56.46C224.812 54.5 224.789 52.3067 224.789 49.88C224.789 49.6 224.766 49.3433 224.719 49.11V48.41C224.719 47.85 224.859 47.4767 225.139 47.29C225.466 47.0567 225.956 46.94 226.609 46.94C226.889 46.94 227.192 47.08 227.519 47.36C227.892 47.64 228.126 47.9433 228.219 48.27L229.689 55.13C230.342 58.3967 230.902 60.87 231.369 62.55C232.349 66.4233 234.029 72.77 236.409 81.59C237.762 87.3767 238.976 91.81 240.049 94.89C240.329 94.19 240.469 93.07 240.469 91.53C240.469 87.0033 240.516 82.9433 240.609 79.35L240.749 67.17C240.749 65.1633 240.772 63.3433 240.819 61.71V56.32L240.749 46.45C240.982 45.7967 241.472 45.47 242.219 45.47C242.592 45.47 242.779 46.1467 242.779 47.5C242.779 48.1067 242.756 48.5967 242.709 48.97C242.709 49.3433 242.686 49.6233 242.639 49.81C242.639 49.95 242.639 50.0433 242.639 50.09V54.57C242.639 60.7767 242.616 66.3067 242.569 71.16C242.522 76.06 242.499 81.5667 242.499 87.68C242.499 88.8467 242.429 90.69 242.289 93.21L242.149 98.74C242.149 100.093 241.542 100.77 240.329 100.77ZM257.611 100.42C256.491 100.42 255.698 100.303 255.231 100.07C254.811 99.8833 254.601 99.4867 254.601 98.88V97.55C254.554 97.1767 254.531 96.7567 254.531 96.29V96.15L254.601 85.93L254.531 57.02C254.531 54.0333 254.484 51.4433 254.391 49.25C254.391 48.69 254.508 48.2233 254.741 47.85C254.974 47.4767 255.278 47.29 255.651 47.29H259.991C260.644 47.29 261.134 47.3367 261.461 47.43C261.928 47.57 262.161 47.9667 262.161 48.62C262.161 48.9933 262.021 49.2967 261.741 49.53C261.461 49.7633 261.158 49.9033 260.831 49.95H259.641L258.521 49.88L257.401 49.81C257.074 49.81 256.841 49.88 256.701 50.02C256.608 50.1133 256.561 50.3233 256.561 50.65C256.561 52.8433 256.584 54.8267 256.631 56.6V62.55V71.3C256.631 71.3933 256.678 71.44 256.771 71.44H256.841H256.911C258.078 71.3467 259.338 71.3 260.691 71.3C261.438 71.3 261.811 71.6267 261.811 72.28C261.811 72.7467 261.718 73.0733 261.531 73.26C261.391 73.4 261.134 73.47 260.761 73.47H256.771C256.584 73.47 256.491 73.5867 256.491 73.82L256.631 84.18C256.724 87.4 256.771 91.11 256.771 95.31V97.9H259.781H262.721H263.351C264.191 97.9 264.611 98.2033 264.611 98.81C264.611 99.5567 264.401 100 263.981 100.14C263.421 100.327 262.278 100.42 260.551 100.42H257.611ZM302.825 101.12C302.405 101.12 302.125 100.957 301.985 100.63C301.939 100.35 301.379 98.39 300.305 94.75L297.855 86.21C295.289 77.3433 293.632 71.86 292.885 69.76L292.465 68.57C292.419 68.6633 292.325 68.8033 292.185 68.99C292.092 69.1767 291.905 69.48 291.625 69.9C291.065 70.9267 290.599 71.72 290.225 72.28L289.245 73.89V98.81C289.245 99.6033 289.175 100.14 289.035 100.42C288.895 100.747 288.592 100.91 288.125 100.91C287.659 100.91 287.332 100.747 287.145 100.42C287.005 100.093 286.935 99.51 286.935 98.67V77.53C286.935 74.7767 287.005 70.2967 287.145 64.09L287.285 50.65C287.285 49.7633 287.332 48.9467 287.425 48.2C287.565 47.64 287.822 47.36 288.195 47.36C288.895 47.36 289.315 47.5233 289.455 47.85C289.642 48.1767 289.735 49.0167 289.735 50.37L289.595 61.99L289.455 70.46H289.525C290.412 68.5 291.672 65.56 293.305 61.64L295.895 55.13C298.509 48.6433 300.165 45.4 300.865 45.4C301.192 45.4 301.472 45.4933 301.705 45.68C301.939 45.8667 302.055 46.1233 302.055 46.45C301.915 47.3367 301.542 48.27 300.935 49.25L300.235 50.51C299.442 52.3767 298.275 55.1767 296.735 58.91C294.869 63.4367 293.865 65.8167 293.725 66.05C293.679 66.3767 293.702 66.6567 293.795 66.89C294.729 69.27 295.779 72.21 296.945 75.71C298.112 79.21 299.069 82.2433 299.815 84.81C300.609 87.61 301.402 90.4567 302.195 93.35C303.035 96.2433 303.619 98.32 303.945 99.58C304.039 99.86 304.085 100.023 304.085 100.07C304.085 100.397 303.945 100.653 303.665 100.84C303.432 101.027 303.152 101.12 302.825 101.12ZM320.355 101.47C313.869 101.47 310.625 90.2467 310.625 67.8V65C310.625 61.08 310.859 57.6733 311.325 54.78C311.605 52.96 311.979 51.4667 312.445 50.3C312.959 49.1333 313.635 48.2 314.475 47.5C315.269 46.7067 316.295 46.31 317.555 46.31C318.675 46.31 319.702 46.5433 320.635 47.01C321.569 47.43 322.339 47.99 322.945 48.69C323.459 49.3433 323.925 50.2067 324.345 51.28C324.765 52.3533 325.092 53.38 325.325 54.36L325.885 57.65C327.005 65.63 327.565 72.7 327.565 78.86V79.07C327.565 81.4033 327.519 83.55 327.425 85.51C327.332 87.8433 327.075 90.2933 326.655 92.86C326.469 94.12 326.189 95.2167 325.815 96.15C325.489 97.0833 325.045 98.0167 324.485 98.95C323.505 100.63 322.129 101.47 320.355 101.47ZM320.495 99.51C321.242 99.51 321.919 99.09 322.525 98.25C323.132 97.3633 323.599 96.15 323.925 94.61C324.672 91.3433 325.139 88.1467 325.325 85.02C325.419 82.5 325.465 80.05 325.465 77.67V77.39L325.395 70.39C325.302 67.87 325.022 64.6033 324.555 60.59C324.182 57.7433 323.412 54.8267 322.245 51.84C321.779 50.6733 321.149 49.7633 320.355 49.11C319.609 48.4567 318.792 48.13 317.905 48.13C317.112 48.13 316.412 48.5033 315.805 49.25C315.199 49.9967 314.709 51.0467 314.335 52.4C313.495 55.5267 313.029 58.42 312.935 61.08C312.795 63.3667 312.725 65.7233 312.725 68.15V71.58C312.725 74.7067 313.029 78.6733 313.635 83.48C314.009 86.5133 314.475 89.15 315.035 91.39C315.595 93.63 316.342 95.52 317.275 97.06C318.209 98.6933 319.282 99.51 320.495 99.51ZM359.777 101.61C359.17 101.61 358.75 101.447 358.517 101.12C358.33 100.84 358.237 100.35 358.237 99.65V93.28C358.237 90.1067 358.144 86.2567 357.957 81.73C357.91 80.89 357.887 79.6767 357.887 78.09C357.747 74.7767 357.677 72.1633 357.677 70.25L357.747 66.33C357.794 65.1633 357.817 63.8567 357.817 62.41C357.817 61.15 357.794 60.03 357.747 59.05C357.7 58.35 357.654 57.7667 357.607 57.3C357.607 56.8333 357.584 56.46 357.537 56.18L357.397 56.67C356.884 60.0767 356.114 64.5567 355.087 70.11C354.06 75.6633 353.22 80.12 352.567 83.48C351.914 86.4667 351.494 88.59 351.307 89.85C351.214 90.4567 351.004 90.9467 350.677 91.32C350.397 91.6933 350.07 91.88 349.697 91.88C349.324 91.88 348.997 91.6933 348.717 91.32C348.437 90.9467 348.274 90.41 348.227 89.71C347.9 87.47 346.71 81.2167 344.657 70.95C342.604 60.6833 341.46 55.3633 341.227 54.99C341.087 59.19 341.017 63.9033 341.017 69.13C341.017 73.2367 341.04 76.9467 341.087 80.26C341.134 83.5733 341.157 87.2833 341.157 91.39C341.157 92.09 341.227 93.1867 341.367 94.68L341.507 98.04C341.507 98.9267 341.344 99.5333 341.017 99.86C339.664 99.86 338.987 98.6467 338.987 96.22V84.53L339.057 77.46C339.104 75.36 339.127 72.98 339.127 70.32C339.127 67.24 339.15 64.4867 339.197 62.06L339.337 53.73V47.57C339.337 47.3367 339.43 47.1267 339.617 46.94C339.85 46.7533 340.084 46.66 340.317 46.66C340.69 46.66 340.947 46.8467 341.087 47.22C341.507 48.62 342.557 52.75 344.237 59.61C345.917 66.47 347.177 71.7667 348.017 75.5C348.437 77.6933 349.114 81.5667 350.047 87.12L350.537 84.39C350.677 83.55 350.887 82.3833 351.167 80.89C351.727 77.25 352.077 75.1967 352.217 74.73L355.437 57.58L356.067 53.94L356.837 50.02L357.187 47.92C357.234 47.4533 357.374 47.1033 357.607 46.87C357.84 46.59 358.097 46.45 358.377 46.45C358.61 46.45 358.82 46.5667 359.007 46.8C359.194 47.0333 359.287 47.36 359.287 47.78V54.71C359.287 58.21 359.497 63.5067 359.917 70.6C360.244 77.1333 360.407 82.3833 360.407 86.35C360.407 87.61 360.477 89.5467 360.617 92.16C360.71 95.52 360.757 97.8533 360.757 99.16C360.757 100.187 360.687 100.863 360.547 101.19C360.36 101.47 360.104 101.61 359.777 101.61ZM393.588 101.61C392.981 101.61 392.561 101.447 392.328 101.12C392.141 100.84 392.048 100.35 392.048 99.65V93.28C392.048 90.1067 391.954 86.2567 391.768 81.73C391.721 80.89 391.698 79.6767 391.698 78.09C391.558 74.7767 391.488 72.1633 391.488 70.25L391.558 66.33C391.604 65.1633 391.628 63.8567 391.628 62.41C391.628 61.15 391.604 60.03 391.558 59.05C391.511 58.35 391.464 57.7667 391.418 57.3C391.418 56.8333 391.394 56.46 391.348 56.18L391.208 56.67C390.694 60.0767 389.924 64.5567 388.898 70.11C387.871 75.6633 387.031 80.12 386.378 83.48C385.724 86.4667 385.304 88.59 385.118 89.85C385.024 90.4567 384.814 90.9467 384.488 91.32C384.208 91.6933 383.881 91.88 383.508 91.88C383.134 91.88 382.808 91.6933 382.528 91.32C382.248 90.9467 382.084 90.41 382.038 89.71C381.711 87.47 380.521 81.2167 378.468 70.95C376.414 60.6833 375.271 55.3633 375.038 54.99C374.898 59.19 374.828 63.9033 374.828 69.13C374.828 73.2367 374.851 76.9467 374.898 80.26C374.944 83.5733 374.968 87.2833 374.968 91.39C374.968 92.09 375.038 93.1867 375.178 94.68L375.318 98.04C375.318 98.9267 375.154 99.5333 374.828 99.86C373.474 99.86 372.798 98.6467 372.798 96.22V84.53L372.868 77.46C372.914 75.36 372.938 72.98 372.938 70.32C372.938 67.24 372.961 64.4867 373.008 62.06L373.148 53.73V47.57C373.148 47.3367 373.241 47.1267 373.428 46.94C373.661 46.7533 373.894 46.66 374.128 46.66C374.501 46.66 374.758 46.8467 374.898 47.22C375.318 48.62 376.368 52.75 378.048 59.61C379.728 66.47 380.988 71.7667 381.828 75.5C382.248 77.6933 382.924 81.5667 383.858 87.12L384.348 84.39C384.488 83.55 384.698 82.3833 384.978 80.89C385.538 77.25 385.888 75.1967 386.028 74.73L389.248 57.58L389.878 53.94L390.648 50.02L390.998 47.92C391.044 47.4533 391.184 47.1033 391.418 46.87C391.651 46.59 391.908 46.45 392.188 46.45C392.421 46.45 392.631 46.5667 392.818 46.8C393.004 47.0333 393.098 47.36 393.098 47.78V54.71C393.098 58.21 393.308 63.5067 393.728 70.6C394.054 77.1333 394.218 82.3833 394.218 86.35C394.218 87.61 394.288 89.5467 394.428 92.16C394.521 95.52 394.568 97.8533 394.568 99.16C394.568 100.187 394.498 100.863 394.358 101.19C394.171 101.47 393.914 101.61 393.588 101.61ZM409.478 100.42C408.358 100.42 407.565 100.303 407.098 100.07C406.678 99.8833 406.468 99.4867 406.468 98.88V97.55C406.421 97.1767 406.398 96.7567 406.398 96.29V96.15L406.468 85.93L406.398 57.02C406.398 54.0333 406.351 51.4433 406.258 49.25C406.258 48.69 406.375 48.2233 406.608 47.85C406.841 47.4767 407.145 47.29 407.518 47.29H411.858C412.511 47.29 413.001 47.3367 413.328 47.43C413.795 47.57 414.028 47.9667 414.028 48.62C414.028 48.9933 413.888 49.2967 413.608 49.53C413.328 49.7633 413.025 49.9033 412.698 49.95H411.508L410.388 49.88L409.268 49.81C408.941 49.81 408.708 49.88 408.568 50.02C408.475 50.1133 408.428 50.3233 408.428 50.65C408.428 52.8433 408.451 54.8267 408.498 56.6V62.55V71.3C408.498 71.3933 408.545 71.44 408.638 71.44H408.708H408.778C409.945 71.3467 411.205 71.3 412.558 71.3C413.305 71.3 413.678 71.6267 413.678 72.28C413.678 72.7467 413.585 73.0733 413.398 73.26C413.258 73.4 413.001 73.47 412.628 73.47H408.638C408.451 73.47 408.358 73.5867 408.358 73.82L408.498 84.18C408.591 87.4 408.638 91.11 408.638 95.31V97.9H411.648H414.588H415.218C416.058 97.9 416.478 98.2033 416.478 98.81C416.478 99.5567 416.268 100 415.848 100.14C415.288 100.327 414.145 100.42 412.418 100.42H409.478ZM437.76 100.7C436.826 100.7 436.243 100.233 436.01 99.3L435.17 96.22C433.863 91.88 432.906 88.2167 432.3 85.23C431.926 83.5967 431.46 81.3333 430.9 78.44C430.246 75.08 429.64 72.35 429.08 70.25L428.38 70.67L427.47 71.09L427.61 98.04V99.09C427.61 100.023 427.19 100.49 426.35 100.49C425.976 100.49 425.673 100.373 425.44 100.14C425.206 99.9067 425.09 99.6267 425.09 99.3V98.25L425.23 84.11L425.37 77.32C425.556 69.1533 425.65 62.2 425.65 56.46V47.43C425.65 47.01 426.07 46.8 426.91 46.8C428.123 46.8 429.243 47.1267 430.27 47.78C431.343 48.4333 432.183 49.32 432.79 50.44C434.05 52.7267 434.68 55.2233 434.68 57.93C434.68 60.0767 434.213 62.41 433.28 64.93C433 65.63 432.65 66.4467 432.23 67.38C431.81 68.2667 431.436 68.8733 431.11 69.2C432.09 72.7933 433.513 78.3233 435.38 85.79L438.67 98.39C438.716 98.53 438.74 98.7867 438.74 99.16C438.74 99.58 438.646 99.93 438.46 100.21C438.32 100.537 438.086 100.7 437.76 100.7ZM427.4 68.78C427.773 68.78 428.403 68.3367 429.29 67.45C430.176 66.5633 430.806 65.8167 431.18 65.21C431.506 64.5567 431.786 63.5767 432.02 62.27C432.253 60.9633 432.37 59.7967 432.37 58.77C432.37 56.8567 432.043 54.8967 431.39 52.89C431.063 51.7233 430.573 50.79 429.92 50.09C429.266 49.3433 428.543 48.97 427.75 48.97H427.61C427.563 49.0167 427.493 49.04 427.4 49.04V68.78Z" fill="black"/>
</svg>
