<svg width="686" height="152" viewBox="0 0 686 152" fill="none" xmlns="http://www.w3.org/2000/svg">
<path d="M686 105.939C686 134.346 535.408 152 344.916 152C154.424 152 0 128.972 0 100.566C0 72.1593 54.7818 0 245.274 0C435.766 0 686 77.533 686 105.939Z" fill="#F0D5AC"/>
<path d="M81.55 103.42C81.0833 103.42 80.7333 103.257 80.5 102.93C80.2667 102.557 80.15 102.113 80.15 101.6V95.37V89.14L80.01 77.94C79.87 72.9467 79.8 69.2133 79.8 66.74L79.87 64.71V60.16C79.87 55.12 79.8233 52.6 79.73 52.6H71.82C71.4467 52.6 71.0967 52.5067 70.77 52.32C70.49 52.1333 70.35 51.8767 70.35 51.55C70.35 51.1767 70.42 50.92 70.56 50.78C70.7 50.64 71.0733 50.5233 71.68 50.43C72.3333 50.29 73.2667 50.22 74.48 50.22H81.48L89.18 50.15C89.74 50.15 90.1133 50.2433 90.3 50.43C90.5333 50.6167 90.65 50.92 90.65 51.34C90.65 52.04 90.2067 52.39 89.32 52.39H86.17H83.09L82.46 52.46L82.53 56.52V61.98V90.4V96.21L82.6 101.39V101.53C82.6 101.903 82.5767 102.23 82.53 102.51C82.4833 102.743 82.39 102.93 82.25 103.07C82.11 103.303 81.8767 103.42 81.55 103.42ZM111.184 103.7C110.25 103.7 109.667 103.233 109.434 102.3L108.594 99.22C107.287 94.88 106.33 91.2167 105.724 88.23C105.35 86.5967 104.884 84.3333 104.324 81.44C103.67 78.08 103.064 75.35 102.504 73.25L101.804 73.67L100.894 74.09L101.034 101.04V102.09C101.034 103.023 100.614 103.49 99.7735 103.49C99.4002 103.49 99.0968 103.373 98.8635 103.14C98.6302 102.907 98.5135 102.627 98.5135 102.3V101.25L98.6535 87.11L98.7935 80.32C98.9802 72.1533 99.0735 65.2 99.0735 59.46V50.43C99.0735 50.01 99.4935 49.8 100.334 49.8C101.547 49.8 102.667 50.1267 103.694 50.78C104.767 51.4333 105.607 52.32 106.214 53.44C107.474 55.7267 108.104 58.2233 108.104 60.93C108.104 63.0767 107.637 65.41 106.704 67.93C106.424 68.63 106.074 69.4467 105.654 70.38C105.234 71.2667 104.86 71.8733 104.534 72.2C105.514 75.7933 106.937 81.3233 108.804 88.79L112.094 101.39C112.14 101.53 112.164 101.787 112.164 102.16C112.164 102.58 112.07 102.93 111.884 103.21C111.744 103.537 111.51 103.7 111.184 103.7ZM100.824 71.78C101.197 71.78 101.827 71.3367 102.714 70.45C103.6 69.5633 104.23 68.8167 104.604 68.21C104.93 67.5567 105.21 66.5767 105.444 65.27C105.677 63.9633 105.794 62.7967 105.794 61.77C105.794 59.8567 105.467 57.8967 104.814 55.89C104.487 54.7233 103.997 53.79 103.344 53.09C102.69 52.3433 101.967 51.97 101.174 51.97H101.034C100.987 52.0167 100.917 52.04 100.824 52.04V71.78ZM134.088 103C133.714 103 133.388 102.883 133.108 102.65C132.874 102.417 132.758 102.137 132.758 101.81V92.64C132.758 92.08 131.568 91.5667 129.188 91.1C126.808 90.6333 124.848 90.4 123.308 90.4C123.214 90.4 123.051 90.75 122.818 91.45C122.631 92.15 122.491 92.6633 122.398 92.99C121.791 95.4167 121.184 98.0067 120.578 100.76L120.228 102.3C120.134 102.673 119.901 102.86 119.528 102.86C119.154 102.86 118.804 102.743 118.478 102.51C118.198 102.277 118.058 101.997 118.058 101.67L118.128 101.53V101.46L118.898 97.96C119.458 95.7667 119.948 93.62 120.368 91.52C120.834 89.14 121.184 87.6 121.418 86.9C121.791 85.36 122.538 81.51 123.658 75.35L124.078 73.04C125.291 65.8533 126.131 61.3267 126.598 59.46C126.831 58.34 127.251 56.6833 127.858 54.49C128.091 53.5567 128.418 52.6233 128.838 51.69C129.258 50.8967 129.608 50.5 129.888 50.5C130.634 50.5 131.171 50.7333 131.498 51.2C131.731 51.62 132.081 53.93 132.548 58.13C133.061 62.33 133.504 66.5767 133.878 70.87L134.788 82.49C134.788 84.4967 134.928 87.53 135.208 91.59C135.488 95.6967 135.628 98.7533 135.628 100.76V101.04C135.628 101.553 135.558 102.02 135.418 102.44C135.231 102.813 134.788 103 134.088 103ZM131.288 89.49C132.221 89.49 132.688 89.2567 132.688 88.79C132.688 85.8967 132.524 81.9533 132.198 76.96C131.871 71.92 131.521 67.4867 131.148 63.66C131.054 62.0267 130.868 60.23 130.588 58.27L130.308 55.54C130.308 55.5867 130.261 55.33 130.168 54.77L130.028 53.93C129.654 54.9567 129.281 56.38 128.908 58.2C128.581 60.02 128.231 62.1667 127.858 64.64C126.738 71.5933 125.781 76.82 124.988 80.32L124.358 82.7C123.658 85.0333 123.308 86.8067 123.308 88.02V88.44C125.361 89.0933 127.718 89.42 130.378 89.42H130.798C130.938 89.4667 131.101 89.49 131.288 89.49ZM150.225 103.14C149.665 103.14 149.105 103 148.545 102.72C147.985 102.44 147.705 102.113 147.705 101.74C147.705 101.46 147.892 100.993 148.265 100.34C148.639 99.7333 148.802 99.2667 148.755 98.94L148.545 92.78L148.055 73.67L147.915 65.2C147.869 60.02 147.752 56.7767 147.565 55.47C147.472 54.9567 147.285 54.3733 147.005 53.72C146.679 52.8333 146.515 52.2033 146.515 51.83C146.515 50.71 148.289 50.15 151.835 50.15H152.185C154.565 50.15 156.619 50.9667 158.345 52.6C159.699 53.86 160.912 55.8433 161.985 58.55C162.732 60.6967 163.292 63.1 163.665 65.76C163.852 67.16 164.015 69.3067 164.155 72.2V74.37C164.155 77.2633 163.759 80.4133 162.965 83.82C162.219 87.18 161.145 90.33 159.745 93.27C158.905 95.1367 157.809 96.8167 156.455 98.31C155.149 99.8033 153.889 100.993 152.675 101.88C151.462 102.72 150.645 103.14 150.225 103.14ZM151.275 99.57C153.002 98.6833 154.542 97.4 155.895 95.72C157.249 93.9933 158.322 92.1033 159.115 90.05C159.815 88.3233 160.399 86.3633 160.865 84.17C161.332 81.93 161.659 79.8533 161.845 77.94C161.985 76.26 162.055 74.65 162.055 73.11C162.055 59.4833 158.299 52.67 150.785 52.67C149.805 52.67 149.315 52.9267 149.315 53.44C149.315 55.0733 149.409 57.01 149.595 59.25C149.782 61.5367 149.875 63.4733 149.875 65.06C149.875 67.6267 150.062 72.0833 150.435 78.43C150.762 83.9367 150.925 88.37 150.925 91.73V99.57H151.275ZM180.526 102.72C179.406 102.673 177.982 102.65 176.256 102.65C175.929 102.65 175.626 102.533 175.346 102.3C175.112 102.067 174.996 101.81 174.996 101.53C174.996 100.923 175.392 100.62 176.186 100.62H178.916C178.916 95.2533 178.752 88.4867 178.426 80.32C178.239 73.7867 178.052 68.6533 177.866 64.92L177.936 61.35V56.73C177.936 54.3967 177.889 52.9033 177.796 52.25H175.346C174.879 52.25 174.646 51.9233 174.646 51.27C174.646 50.85 174.832 50.5233 175.206 50.29C175.532 50.15 176.396 50.08 177.796 50.08H179.756C180.456 50.1267 181.342 50.15 182.416 50.15C182.789 50.15 183.092 50.2433 183.326 50.43C183.559 50.57 183.676 50.8033 183.676 51.13C183.676 51.41 183.606 51.6667 183.466 51.9C183.326 52.1333 183.116 52.25 182.836 52.25C182.509 52.25 182.229 52.2267 181.996 52.18H181.156H180.456C179.989 52.18 179.709 52.2267 179.616 52.32L179.476 52.6C179.476 56.24 179.779 63.59 180.386 74.65C180.946 84.87 181.226 92.22 181.226 96.7V98.66C181.179 99.2667 181.156 99.8967 181.156 100.55H183.676C184.749 100.55 185.286 100.877 185.286 101.53C185.286 101.81 185.169 102.09 184.936 102.37C184.749 102.603 184.539 102.72 184.306 102.72H180.526ZM199.183 104.54C198.343 104.54 197.689 104.493 197.223 104.4C196.803 104.353 196.336 104.213 195.823 103.98C195.263 103.7 194.843 103.303 194.563 102.79C194.563 102.23 194.819 101.95 195.333 101.95C195.846 101.95 196.499 102.113 197.293 102.44C198.039 102.813 198.669 103 199.183 103C200.209 103 201.143 102.58 201.983 101.74C202.869 100.9 203.546 99.8033 204.013 98.45C204.946 95.79 205.413 93.4333 205.413 91.38C205.413 89.0933 205.086 86.7833 204.433 84.45C203.779 82.1167 202.916 79.9233 201.843 77.87C201.609 77.3567 201.213 76.5867 200.653 75.56C199.486 73.2267 198.599 71.4067 197.993 70.1C197.386 68.7933 196.849 67.3467 196.383 65.76C195.729 63.66 195.403 61.3967 195.403 58.97C195.403 57.43 195.636 55.96 196.103 54.56C196.616 53.1133 197.409 51.8767 198.483 50.85C199.649 49.7767 200.956 49.24 202.403 49.24C202.963 49.24 203.639 49.4733 204.433 49.94C205.226 50.36 205.623 50.78 205.623 51.2C205.623 51.5733 205.483 51.76 205.203 51.76C204.923 51.76 204.549 51.6433 204.083 51.41C203.663 51.1767 203.266 51.06 202.893 51.06C201.819 51.06 200.863 51.4567 200.023 52.25C199.229 53.0433 198.646 54.0233 198.273 55.19C197.946 56.17 197.783 57.2433 197.783 58.41C197.783 60.23 198.016 62.12 198.483 64.08C198.949 65.9933 199.579 67.79 200.373 69.47L202.823 74.58L203.523 76.05C204.503 78.0567 205.249 79.7133 205.763 81.02C206.323 82.3267 206.789 83.7967 207.163 85.43C207.676 87.6233 207.933 89.7233 207.933 91.73C207.933 94.4367 207.233 97.19 205.833 99.99C205.133 101.343 204.199 102.44 203.033 103.28C201.866 104.12 200.583 104.54 199.183 104.54ZM217.924 109.79C216.944 109.79 216.454 109.347 216.454 108.46C216.501 107.993 217.061 107.433 218.134 106.78L218.974 106.15C221.028 104.143 222.054 100.573 222.054 95.44C222.054 92.2667 221.938 88.8133 221.704 85.08C221.471 80.0867 221.354 76.9367 221.354 75.63L220.934 64.78C220.701 58.62 220.584 54.3967 220.584 52.11C219.838 52.11 219.138 52.1333 218.484 52.18L216.384 52.25C216.104 52.25 215.871 52.1567 215.684 51.97C215.544 51.7367 215.474 51.48 215.474 51.2C215.474 50.64 215.661 50.29 216.034 50.15C216.408 49.9633 217.294 49.87 218.694 49.87L221.354 49.94H225.064C225.391 49.94 225.648 50.0567 225.834 50.29C226.068 50.5233 226.184 50.78 226.184 51.06C226.184 51.48 226.044 51.76 225.764 51.9C225.531 52.04 225.041 52.11 224.294 52.11H222.754C222.754 58.41 223.011 66.2733 223.524 75.7C223.618 76.96 223.711 79.1067 223.804 82.14C224.131 87.9733 224.294 91.45 224.294 92.57C224.294 94.53 224.248 96.07 224.154 97.19C224.108 98.31 223.968 99.5233 223.734 100.83C223.501 102.183 223.151 103.327 222.684 104.26C222.264 105.24 221.658 106.197 220.864 107.13C220.071 108.157 219.091 109.043 217.924 109.79ZM246.094 104.47C239.607 104.47 236.364 93.2467 236.364 70.8V68C236.364 64.08 236.597 60.6733 237.064 57.78C237.344 55.96 237.717 54.4667 238.184 53.3C238.697 52.1333 239.374 51.2 240.214 50.5C241.007 49.7067 242.034 49.31 243.294 49.31C244.414 49.31 245.44 49.5433 246.374 50.01C247.307 50.43 248.077 50.99 248.684 51.69C249.197 52.3433 249.664 53.2067 250.084 54.28C250.504 55.3533 250.83 56.38 251.064 57.36L251.624 60.65C252.744 68.63 253.304 75.7 253.304 81.86V82.07C253.304 84.4033 253.257 86.55 253.164 88.51C253.07 90.8433 252.814 93.2933 252.394 95.86C252.207 97.12 251.927 98.2167 251.554 99.15C251.227 100.083 250.784 101.017 250.224 101.95C249.244 103.63 247.867 104.47 246.094 104.47ZM246.234 102.51C246.98 102.51 247.657 102.09 248.264 101.25C248.87 100.363 249.337 99.15 249.664 97.61C250.41 94.3433 250.877 91.1467 251.064 88.02C251.157 85.5 251.204 83.05 251.204 80.67V80.39L251.134 73.39C251.04 70.87 250.76 67.6033 250.294 63.59C249.92 60.7433 249.15 57.8267 247.984 54.84C247.517 53.6733 246.887 52.7633 246.094 52.11C245.347 51.4567 244.53 51.13 243.644 51.13C242.85 51.13 242.15 51.5033 241.544 52.25C240.937 52.9967 240.447 54.0467 240.074 55.4C239.234 58.5267 238.767 61.42 238.674 64.08C238.534 66.3667 238.464 68.7233 238.464 71.15V74.58C238.464 77.7067 238.767 81.6733 239.374 86.48C239.747 89.5133 240.214 92.15 240.774 94.39C241.334 96.63 242.08 98.52 243.014 100.06C243.947 101.693 245.02 102.51 246.234 102.51ZM278.655 103.77C278.329 103.77 278.025 103.607 277.745 103.28C277.465 102.953 277.279 102.58 277.185 102.16L276.975 100.83C276.835 100.27 276.765 99.92 276.765 99.78C271.539 81.0667 268.669 70.5667 268.155 68.28C267.735 66.6 266.779 61.9333 265.285 54.28C265.239 54.56 265.215 55.5167 265.215 57.15V82.49L265.355 92.5L265.495 102.44L265.075 103H263.465L263.255 102.44C263.349 101.973 263.395 101.04 263.395 99.64L263.325 87.46L263.185 75.28V66.11V59.46C263.139 57.5 263.115 55.3067 263.115 52.88C263.115 52.6 263.092 52.3433 263.045 52.11V51.41C263.045 50.85 263.185 50.4767 263.465 50.29C263.792 50.0567 264.282 49.94 264.935 49.94C265.215 49.94 265.519 50.08 265.845 50.36C266.219 50.64 266.452 50.9433 266.545 51.27L268.015 58.13C268.669 61.3967 269.229 63.87 269.695 65.55C270.675 69.4233 272.355 75.77 274.735 84.59C276.089 90.3767 277.302 94.81 278.375 97.89C278.655 97.19 278.795 96.07 278.795 94.53C278.795 90.0033 278.842 85.9433 278.935 82.35L279.075 70.17C279.075 68.1633 279.099 66.3433 279.145 64.71V59.32L279.075 49.45C279.309 48.7967 279.799 48.47 280.545 48.47C280.919 48.47 281.105 49.1467 281.105 50.5C281.105 51.1067 281.082 51.5967 281.035 51.97C281.035 52.3433 281.012 52.6233 280.965 52.81C280.965 52.95 280.965 53.0433 280.965 53.09V57.57C280.965 63.7767 280.942 69.3067 280.895 74.16C280.849 79.06 280.825 84.5667 280.825 90.68C280.825 91.8467 280.755 93.69 280.615 96.21L280.475 101.74C280.475 103.093 279.869 103.77 278.655 103.77ZM331.07 102.51C331.07 103.257 330.02 103.63 327.92 103.63C327.22 103.63 326.45 103.49 325.61 103.21C324.817 102.93 324.14 102.603 323.58 102.23C322.88 101.81 322.227 101.343 321.62 100.83C319.987 101.95 318.633 102.697 317.56 103.07C316.487 103.49 315.18 103.7 313.64 103.7C312.053 103.7 310.56 103.14 309.16 102.02C307.76 100.9 306.687 99.5 305.94 97.82C305.147 96.14 304.75 94.53 304.75 92.99C304.75 90.89 304.89 89.14 305.17 87.74L305.52 85.57C305.567 85.1033 305.777 84.4033 306.15 83.47C306.29 83.05 306.407 82.7 306.5 82.42C306.64 82.0933 306.733 81.8133 306.78 81.58L307.69 79.48L308.67 77.59C308.763 77.3567 308.903 77.0533 309.09 76.68C309.277 76.3067 309.51 75.84 309.79 75.28L310.98 72.97C310.98 71.85 310.91 70.2167 310.77 68.07C310.583 66.1567 310.49 64.5233 310.49 63.17V57.36C310.49 55.9133 310.817 54.7233 311.47 53.79C311.843 53.23 312.287 52.95 312.8 52.95C313.92 52.95 315.063 53.3233 316.23 54.07C317.443 54.8167 318.05 55.6333 318.05 56.52C318.05 57.3133 318.027 58.0133 317.98 58.62L317.84 60.72L317.91 61.56L316.37 66.11C315.857 67.5567 315.25 68.98 314.55 70.38C314.503 70.4733 314.247 70.8467 313.78 71.5C313.033 72.5267 312.66 73.39 312.66 74.09C312.66 75.5833 313.127 78.1733 314.06 81.86C314.993 85.5467 316.113 89.07 317.42 92.43C318.867 95.93 320.08 97.82 321.06 98.1C322.833 94.6 323.72 90.0733 323.72 84.52C323.72 84.1467 323.673 83.8667 323.58 83.68C323.44 83.4467 323.3 83.3767 323.16 83.47C322.647 83.47 322.297 83.3067 322.11 82.98V82.84L322.04 82.42L322.18 82.07C323.067 82.07 324.443 81.9767 326.31 81.79C328.177 81.6033 329.32 81.4167 329.74 81.23C330.067 81.2767 330.347 81.3933 330.58 81.58C330.813 81.7667 330.93 82 330.93 82.28C330.93 82.6067 330.557 82.8867 329.81 83.12C329.11 83.3067 328.34 83.4 327.5 83.4H326.66C326.427 83.3533 326.147 83.33 325.82 83.33H325.33C325.33 87.11 325.12 90.1433 324.7 92.43C324.28 94.7167 323.487 97.0033 322.32 99.29C323.907 101.157 325.727 102.09 327.78 102.09C328.247 102.09 328.667 102.067 329.04 102.02C329.787 101.927 330.23 101.88 330.37 101.88L331.07 102.51ZM313.92 54.7C313.64 54.7 313.267 55.0267 312.8 55.68C312.333 56.3333 312.1 56.8467 312.1 57.22L312.17 65.9L312.31 66.25C312.217 66.6233 312.17 67.02 312.17 67.44C312.17 67.6267 312.217 68.14 312.31 68.98C312.357 69.4 312.38 69.9133 312.38 70.52C313.173 69.82 314.06 68.0467 315.04 65.2C316.02 62.3533 316.51 60.2533 316.51 58.9C316.51 56.1 315.647 54.7 313.92 54.7ZM314.2 102.37C315.273 102.37 316.533 102.09 317.98 101.53C319.427 100.923 320.173 100.27 320.22 99.57C320.033 99.1967 319.567 98.66 318.82 97.96C317.42 96.56 316.113 94.3667 314.9 91.38C313.733 88.3933 312.823 85.3133 312.17 82.14L311.82 79.34C311.68 77.9867 311.493 76.9133 311.26 76.12C309.673 78.1733 308.437 80.5767 307.55 83.33C306.71 86.0833 306.29 88.8833 306.29 91.73C306.29 94.3433 306.897 96.7233 308.11 98.87C308.717 99.9433 309.533 100.807 310.56 101.46C311.633 102.067 312.847 102.37 314.2 102.37ZM365.378 103.7C365.005 103.7 364.748 103.607 364.608 103.42C364.468 103.233 364.398 102.953 364.398 102.58V101.74C364.445 101.553 364.468 101.297 364.468 100.97C364.468 94.5767 364.235 86.48 363.768 76.68H363.278H361.948H360.618C358.005 76.68 356.371 76.75 355.718 76.89C355.718 80.2967 355.905 84.52 356.278 89.56C356.698 95.3 356.908 99.5233 356.908 102.23C356.908 102.93 356.651 103.28 356.138 103.28C355.438 103.28 355.088 102.953 355.088 102.3C355.041 100.013 354.925 96.8633 354.738 92.85C354.598 88.79 354.458 85.36 354.318 82.56C353.431 71.4533 352.988 60.8133 352.988 50.64C352.988 50.1733 353.291 49.94 353.898 49.94C354.178 49.94 354.388 50.0333 354.528 50.22C354.715 50.36 354.785 50.57 354.738 50.85V56.03C354.738 57.29 354.855 59.67 355.088 63.17L355.228 65.55C355.321 68.1633 355.368 69.7267 355.368 70.24V73.67C355.368 74.8833 355.485 75.49 355.718 75.49L358.378 75.35L359.778 75.21C362.111 75.0233 363.441 74.93 363.768 74.93L363.838 74.79C363.838 72.7367 363.721 68.7933 363.488 62.96C363.255 57.0333 363.138 53.0667 363.138 51.06C363.138 50.5 363.465 50.22 364.118 50.22C364.445 50.22 364.725 50.3133 364.958 50.5C365.191 50.64 365.308 50.85 365.308 51.13C365.308 60.23 365.471 70.24 365.798 81.16C366.125 92.1267 366.288 98.8467 366.288 101.32V102.3C366.288 102.673 366.195 103 366.008 103.28C365.868 103.56 365.658 103.7 365.378 103.7ZM391.639 103C391.265 103 390.939 102.883 390.659 102.65C390.425 102.417 390.309 102.137 390.309 101.81V92.64C390.309 92.08 389.119 91.5667 386.739 91.1C384.359 90.6333 382.399 90.4 380.859 90.4C380.765 90.4 380.602 90.75 380.369 91.45C380.182 92.15 380.042 92.6633 379.949 92.99C379.342 95.4167 378.735 98.0067 378.129 100.76L377.779 102.3C377.685 102.673 377.452 102.86 377.079 102.86C376.705 102.86 376.355 102.743 376.029 102.51C375.749 102.277 375.609 101.997 375.609 101.67L375.679 101.53V101.46L376.449 97.96C377.009 95.7667 377.499 93.62 377.919 91.52C378.385 89.14 378.735 87.6 378.969 86.9C379.342 85.36 380.089 81.51 381.209 75.35L381.629 73.04C382.842 65.8533 383.682 61.3267 384.149 59.46C384.382 58.34 384.802 56.6833 385.409 54.49C385.642 53.5567 385.969 52.6233 386.389 51.69C386.809 50.8967 387.159 50.5 387.439 50.5C388.185 50.5 388.722 50.7333 389.049 51.2C389.282 51.62 389.632 53.93 390.099 58.13C390.612 62.33 391.055 66.5767 391.429 70.87L392.339 82.49C392.339 84.4967 392.479 87.53 392.759 91.59C393.039 95.6967 393.179 98.7533 393.179 100.76V101.04C393.179 101.553 393.109 102.02 392.969 102.44C392.782 102.813 392.339 103 391.639 103ZM388.839 89.49C389.772 89.49 390.239 89.2567 390.239 88.79C390.239 85.8967 390.075 81.9533 389.749 76.96C389.422 71.92 389.072 67.4867 388.699 63.66C388.605 62.0267 388.419 60.23 388.139 58.27L387.859 55.54C387.859 55.5867 387.812 55.33 387.719 54.77L387.579 53.93C387.205 54.9567 386.832 56.38 386.459 58.2C386.132 60.02 385.782 62.1667 385.409 64.64C384.289 71.5933 383.332 76.82 382.539 80.32L381.909 82.7C381.209 85.0333 380.859 86.8067 380.859 88.02V88.44C382.912 89.0933 385.269 89.42 387.929 89.42H388.349C388.489 89.4667 388.652 89.49 388.839 89.49ZM388.489 48.12C387.602 48.12 386.809 47.7467 386.109 47C385.409 46.2067 385.059 45.3433 385.059 44.41C385.059 43.3367 385.479 42.3567 386.319 41.47C387.159 40.5367 388.092 40.07 389.119 40.07C390.005 40.07 390.869 40.5133 391.709 41.4C392.549 42.2867 392.969 43.1967 392.969 44.13C392.969 45.39 392.549 46.37 391.709 47.07C390.915 47.77 389.842 48.12 388.489 48.12ZM388.209 46.79C388.815 46.79 389.445 46.6033 390.099 46.23C390.799 45.81 391.149 45.3433 391.149 44.83C391.149 43.8967 390.962 43.1033 390.589 42.45C390.262 41.75 389.772 41.4 389.119 41.4C388.559 41.4 387.999 41.7033 387.439 42.31C386.925 42.87 386.669 43.4533 386.669 44.06C386.669 44.9933 386.855 45.7167 387.229 46.23C387.462 46.6033 387.789 46.79 388.209 46.79ZM418.696 103.77C418.37 103.77 418.066 103.607 417.786 103.28C417.506 102.953 417.32 102.58 417.226 102.16L417.016 100.83C416.876 100.27 416.806 99.92 416.806 99.78C411.58 81.0667 408.71 70.5667 408.196 68.28C407.776 66.6 406.82 61.9333 405.326 54.28C405.28 54.56 405.256 55.5167 405.256 57.15V82.49L405.396 92.5L405.536 102.44L405.116 103H403.506L403.296 102.44C403.39 101.973 403.436 101.04 403.436 99.64L403.366 87.46L403.226 75.28V66.11V59.46C403.18 57.5 403.156 55.3067 403.156 52.88C403.156 52.6 403.133 52.3433 403.086 52.11V51.41C403.086 50.85 403.226 50.4767 403.506 50.29C403.833 50.0567 404.323 49.94 404.976 49.94C405.256 49.94 405.56 50.08 405.886 50.36C406.26 50.64 406.493 50.9433 406.586 51.27L408.056 58.13C408.71 61.3967 409.27 63.87 409.736 65.55C410.716 69.4233 412.396 75.77 414.776 84.59C416.13 90.3767 417.343 94.81 418.416 97.89C418.696 97.19 418.836 96.07 418.836 94.53C418.836 90.0033 418.883 85.9433 418.976 82.35L419.116 70.17C419.116 68.1633 419.14 66.3433 419.186 64.71V59.32L419.116 49.45C419.35 48.7967 419.84 48.47 420.586 48.47C420.96 48.47 421.146 49.1467 421.146 50.5C421.146 51.1067 421.123 51.5967 421.076 51.97C421.076 52.3433 421.053 52.6233 421.006 52.81C421.006 52.95 421.006 53.0433 421.006 53.09V57.57C421.006 63.7767 420.983 69.3067 420.936 74.16C420.89 79.06 420.866 84.5667 420.866 90.68C420.866 91.8467 420.796 93.69 420.656 96.21L420.516 101.74C420.516 103.093 419.91 103.77 418.696 103.77ZM436.118 103.14C435.558 103.14 434.998 103 434.438 102.72C433.878 102.44 433.598 102.113 433.598 101.74C433.598 101.46 433.785 100.993 434.158 100.34C434.531 99.7333 434.695 99.2667 434.648 98.94L434.438 92.78L433.948 73.67L433.808 65.2C433.761 60.02 433.645 56.7767 433.458 55.47C433.365 54.9567 433.178 54.3733 432.898 53.72C432.571 52.8333 432.408 52.2033 432.408 51.83C432.408 50.71 434.181 50.15 437.728 50.15H438.078C440.458 50.15 442.511 50.9667 444.238 52.6C445.591 53.86 446.805 55.8433 447.878 58.55C448.625 60.6967 449.185 63.1 449.558 65.76C449.745 67.16 449.908 69.3067 450.048 72.2V74.37C450.048 77.2633 449.651 80.4133 448.858 83.82C448.111 87.18 447.038 90.33 445.638 93.27C444.798 95.1367 443.701 96.8167 442.348 98.31C441.041 99.8033 439.781 100.993 438.568 101.88C437.355 102.72 436.538 103.14 436.118 103.14ZM437.168 99.57C438.895 98.6833 440.435 97.4 441.788 95.72C443.141 93.9933 444.215 92.1033 445.008 90.05C445.708 88.3233 446.291 86.3633 446.758 84.17C447.225 81.93 447.551 79.8533 447.738 77.94C447.878 76.26 447.948 74.65 447.948 73.11C447.948 59.4833 444.191 52.67 436.678 52.67C435.698 52.67 435.208 52.9267 435.208 53.44C435.208 55.0733 435.301 57.01 435.488 59.25C435.675 61.5367 435.768 63.4733 435.768 65.06C435.768 67.6267 435.955 72.0833 436.328 78.43C436.655 83.9367 436.818 88.37 436.818 91.73V99.57H437.168ZM468.378 103.56C467.818 103.42 467.562 103.35 467.608 103.35C466.768 99.8967 465.835 94.74 464.808 87.88L460.958 62.89L460.328 59.81C459.302 55.7967 458.788 52.9733 458.788 51.34C458.788 51.0133 458.882 50.7333 459.068 50.5C459.302 50.22 459.535 50.08 459.768 50.08C459.908 50.08 460.072 50.1267 460.258 50.22C460.492 50.3133 460.702 50.57 460.888 50.99C461.075 51.3633 461.168 51.7133 461.168 52.04L461.308 53.02L462.288 58.41L462.918 62.12L466.418 86.13L467.328 92.78C467.702 95.02 468.005 97.1433 468.238 99.15L468.728 94.18L469.498 86.13L471.178 70.8C471.598 66.46 471.902 63.6133 472.088 62.26L472.438 58.62L472.928 55.12C473.162 53.72 473.325 52.4133 473.418 51.2C473.512 50.3133 473.955 49.87 474.748 49.87L475.168 50.15H475.028L475.728 50.71C475.728 52.0633 475.542 54.0467 475.168 56.66L474.748 59.39L474.538 61.14C473.932 66.2267 473.558 69.4 473.418 70.66C472.718 76.5867 471.972 83.0033 471.178 89.91C470.432 96.8167 470.035 100.877 469.988 102.09C469.615 103.117 469.172 103.63 468.658 103.63L468.378 103.56ZM468.308 99.57L468.238 99.36L468.098 99.57H468.308ZM488.902 103.42C487.782 103.42 486.989 103.303 486.522 103.07C486.102 102.883 485.892 102.487 485.892 101.88V100.55C485.845 100.177 485.822 99.7567 485.822 99.29V99.15L485.892 88.93L485.822 60.02C485.822 57.0333 485.775 54.4433 485.682 52.25C485.682 51.69 485.799 51.2233 486.032 50.85C486.265 50.4767 486.569 50.29 486.942 50.29H491.282C491.935 50.29 492.425 50.3367 492.752 50.43C493.219 50.57 493.452 50.9667 493.452 51.62C493.452 51.9933 493.312 52.2967 493.032 52.53C492.752 52.7633 492.449 52.9033 492.122 52.95H490.932L489.812 52.88L488.692 52.81C488.365 52.81 488.132 52.88 487.992 53.02C487.899 53.1133 487.852 53.3233 487.852 53.65C487.852 55.8433 487.875 57.8267 487.922 59.6V65.55V74.3C487.922 74.3933 487.969 74.44 488.062 74.44H488.132H488.202C489.369 74.3467 490.629 74.3 491.982 74.3C492.729 74.3 493.102 74.6267 493.102 75.28C493.102 75.7467 493.009 76.0733 492.822 76.26C492.682 76.4 492.425 76.47 492.052 76.47H488.062C487.875 76.47 487.782 76.5867 487.782 76.82L487.922 87.18C488.015 90.4 488.062 94.11 488.062 98.31V100.9H491.072H494.012H494.642C495.482 100.9 495.902 101.203 495.902 101.81C495.902 102.557 495.692 103 495.272 103.14C494.712 103.327 493.569 103.42 491.842 103.42H488.902ZM517.184 103.7C516.25 103.7 515.667 103.233 515.434 102.3L514.594 99.22C513.287 94.88 512.33 91.2167 511.724 88.23C511.35 86.5967 510.884 84.3333 510.324 81.44C509.67 78.08 509.064 75.35 508.504 73.25L507.804 73.67L506.894 74.09L507.034 101.04V102.09C507.034 103.023 506.614 103.49 505.774 103.49C505.4 103.49 505.097 103.373 504.864 103.14C504.63 102.907 504.514 102.627 504.514 102.3V101.25L504.654 87.11L504.794 80.32C504.98 72.1533 505.074 65.2 505.074 59.46V50.43C505.074 50.01 505.494 49.8 506.334 49.8C507.547 49.8 508.667 50.1267 509.694 50.78C510.767 51.4333 511.607 52.32 512.214 53.44C513.474 55.7267 514.104 58.2233 514.104 60.93C514.104 63.0767 513.637 65.41 512.704 67.93C512.424 68.63 512.074 69.4467 511.654 70.38C511.234 71.2667 510.86 71.8733 510.534 72.2C511.514 75.7933 512.937 81.3233 514.804 88.79L518.094 101.39C518.14 101.53 518.164 101.787 518.164 102.16C518.164 102.58 518.07 102.93 517.884 103.21C517.744 103.537 517.51 103.7 517.184 103.7ZM506.824 71.78C507.197 71.78 507.827 71.3367 508.714 70.45C509.6 69.5633 510.23 68.8167 510.604 68.21C510.93 67.5567 511.21 66.5767 511.444 65.27C511.677 63.9633 511.794 62.7967 511.794 61.77C511.794 59.8567 511.467 57.8967 510.814 55.89C510.487 54.7233 509.997 53.79 509.344 53.09C508.69 52.3433 507.967 51.97 507.174 51.97H507.034C506.987 52.0167 506.917 52.04 506.824 52.04V71.78ZM541.978 104.12C541.558 104.12 541.278 103.957 541.138 103.63C541.091 103.35 540.531 101.39 539.458 97.75L537.008 89.21C534.441 80.3433 532.784 74.86 532.038 72.76L531.618 71.57C531.571 71.6633 531.478 71.8033 531.338 71.99C531.244 72.1767 531.058 72.48 530.778 72.9C530.218 73.9267 529.751 74.72 529.378 75.28L528.398 76.89V101.81C528.398 102.603 528.328 103.14 528.188 103.42C528.048 103.747 527.744 103.91 527.278 103.91C526.811 103.91 526.484 103.747 526.298 103.42C526.158 103.093 526.088 102.51 526.088 101.67V80.53C526.088 77.7767 526.158 73.2967 526.298 67.09L526.438 53.65C526.438 52.7633 526.484 51.9467 526.578 51.2C526.718 50.64 526.974 50.36 527.348 50.36C528.048 50.36 528.468 50.5233 528.608 50.85C528.794 51.1767 528.888 52.0167 528.888 53.37L528.748 64.99L528.608 73.46H528.678C529.564 71.5 530.824 68.56 532.458 64.64L535.048 58.13C537.661 51.6433 539.318 48.4 540.018 48.4C540.344 48.4 540.624 48.4933 540.858 48.68C541.091 48.8667 541.208 49.1233 541.208 49.45C541.068 50.3367 540.694 51.27 540.088 52.25L539.388 53.51C538.594 55.3767 537.428 58.1767 535.888 61.91C534.021 66.4367 533.018 68.8167 532.878 69.05C532.831 69.3767 532.854 69.6567 532.948 69.89C533.881 72.27 534.931 75.21 536.098 78.71C537.264 82.21 538.221 85.2433 538.968 87.81C539.761 90.61 540.554 93.4567 541.348 96.35C542.188 99.2433 542.771 101.32 543.098 102.58C543.191 102.86 543.238 103.023 543.238 103.07C543.238 103.397 543.098 103.653 542.818 103.84C542.584 104.027 542.304 104.12 541.978 104.12Z" fill="black"/>
</svg>
