<svg width="545" height="152" viewBox="0 0 545 152" fill="none" xmlns="http://www.w3.org/2000/svg">
<path d="M545 50.0135C545 23.5415 519.901 0 368.563 0C217.225 0 0 28.5493 0 55.0212C0 81.4932 41.3183 152 192.657 152C343.995 152 545 76.4854 545 50.0135Z" fill="#DFF3CF"/>
<path d="M136.02 95.84C135.507 92.9 135.25 89.54 135.25 85.76C135.25 84.2667 135.32 82.0967 135.46 79.25L135.6 72.74C135.273 72.0867 135.11 71.55 135.11 71.13C135.577 70.3833 135.81 68.2367 135.81 64.69C135.81 56.1967 135.693 51.67 135.46 51.11C135.88 49.9433 136.207 49.36 136.44 49.36H139.52C140.033 49.36 140.757 49.6167 141.69 50.13C142.67 50.5967 143.487 51.11 144.14 51.67C145.307 52.7433 145.89 55.4967 145.89 59.93C145.89 62.31 145.82 64.13 145.68 65.39C145.587 66.2767 145.423 66.9767 145.19 67.49C145.003 68.0033 144.7 68.5867 144.28 69.24C143.58 70.3133 142.39 71.2467 140.71 72.04C140.01 72.4133 139.03 72.7867 137.77 73.16V81.49C137.77 82.6567 137.887 84.9433 138.12 88.35L138.26 90.59L138.4 95.14C138.4 95.98 137.957 96.4 137.07 96.4L136.02 95.84ZM138.26 70.78C139.613 70.78 140.757 70.15 141.69 68.89C142.017 68.4233 142.32 67.7933 142.6 67C142.88 66.2067 143.067 65.4367 143.16 64.69C143.44 63.3367 143.58 61.7733 143.58 60V58.11C143.58 57.4567 143.557 56.8267 143.51 56.22C143.463 55.6133 143.37 55.03 143.23 54.47C143.043 53.8633 142.787 53.3733 142.46 53C142.18 52.58 141.783 52.23 141.27 51.95C140.71 51.67 140.033 51.53 139.24 51.53C138.68 51.53 138.283 51.67 138.05 51.95C137.817 52.23 137.7 52.72 137.7 53.42C137.7 54.54 137.77 56.22 137.91 58.46L138.05 63.5C138.05 64.7133 138.003 65.81 137.91 66.79L137.77 70.08L138.26 70.78ZM162.459 96.33C156.999 96.33 154.269 87.7433 154.269 70.57V68.12C154.269 55.1 155.949 48.59 159.309 48.59C159.542 48.59 159.869 48.66 160.289 48.8C161.782 49.3133 163.252 49.64 164.699 49.78C165.585 49.9667 166.472 50.8767 167.359 52.51C168.339 54.19 169.062 56.4067 169.529 59.16C170.042 61.9133 170.299 64.7367 170.299 67.63L170.159 67.98C170.159 69.52 170.182 70.8967 170.229 72.11L170.299 76.31C170.299 78.69 170.205 80.8367 170.019 82.75C169.739 85.6433 169.272 88.14 168.619 90.24C168.199 91.5 167.709 92.55 167.149 93.39C166.635 94.23 165.982 94.93 165.189 95.49C164.442 96.05 163.532 96.33 162.459 96.33ZM162.179 94.3C163.999 94.3 165.352 93.0167 166.239 90.45C167.125 87.8367 167.662 85.1767 167.849 82.47C168.035 79.67 168.129 77.43 168.129 75.75C168.129 73.8833 167.989 71.13 167.709 67.49C167.475 63.43 167.359 60.6767 167.359 59.23L167.079 58.67L167.219 58.32C167.219 56.2667 166.635 54.4933 165.469 53C164.349 51.5067 162.972 50.76 161.339 50.76C159.192 50.76 157.909 51.7867 157.489 53.84C157.395 54.54 157.302 55.5433 157.209 56.85C157.209 60.3033 157.069 62.66 156.789 63.92C156.789 64.62 156.719 65.7167 156.579 67.21L156.439 70.5C156.439 71.5267 156.462 72.4367 156.509 73.23L156.579 76.03C156.579 78.2233 156.765 80.7433 157.139 83.59C157.419 85.69 157.745 87.4633 158.119 88.91C158.492 90.3567 159.029 91.5933 159.729 92.62C160.429 93.74 161.245 94.3 162.179 94.3ZM182.108 95.84C181.595 92.9 181.338 89.54 181.338 85.76C181.338 84.2667 181.408 82.0967 181.548 79.25L181.688 72.74C181.361 72.0867 181.198 71.55 181.198 71.13C181.665 70.3833 181.898 68.2367 181.898 64.69C181.898 56.1967 181.781 51.67 181.548 51.11C181.968 49.9433 182.295 49.36 182.528 49.36H185.608C186.121 49.36 186.845 49.6167 187.778 50.13C188.758 50.5967 189.575 51.11 190.228 51.67C191.395 52.7433 191.978 55.4967 191.978 59.93C191.978 62.31 191.908 64.13 191.768 65.39C191.675 66.2767 191.511 66.9767 191.278 67.49C191.091 68.0033 190.788 68.5867 190.368 69.24C189.668 70.3133 188.478 71.2467 186.798 72.04C186.098 72.4133 185.118 72.7867 183.858 73.16V81.49C183.858 82.6567 183.975 84.9433 184.208 88.35L184.348 90.59L184.488 95.14C184.488 95.98 184.045 96.4 183.158 96.4L182.108 95.84ZM184.348 70.78C185.701 70.78 186.845 70.15 187.778 68.89C188.105 68.4233 188.408 67.7933 188.688 67C188.968 66.2067 189.155 65.4367 189.248 64.69C189.528 63.3367 189.668 61.7733 189.668 60V58.11C189.668 57.4567 189.645 56.8267 189.598 56.22C189.551 55.6133 189.458 55.03 189.318 54.47C189.131 53.8633 188.875 53.3733 188.548 53C188.268 52.58 187.871 52.23 187.358 51.95C186.798 51.67 186.121 51.53 185.328 51.53C184.768 51.53 184.371 51.67 184.138 51.95C183.905 52.23 183.788 52.72 183.788 53.42C183.788 54.54 183.858 56.22 183.998 58.46L184.138 63.5C184.138 64.7133 184.091 65.81 183.998 66.79L183.858 70.08L184.348 70.78ZM200.077 71.76C199.703 71.76 199.353 71.6433 199.027 71.41C198.747 71.1767 198.607 70.8967 198.607 70.57C198.607 70.1033 200.077 69.66 203.017 69.24C206.003 68.7733 208.523 68.54 210.577 68.54C210.95 68.54 211.3 68.6567 211.627 68.89C211.953 69.1233 212.117 69.4033 212.117 69.73C212.117 70.1967 210.647 70.6633 207.707 71.13C204.767 71.55 202.223 71.76 200.077 71.76ZM228.96 96.05C228.214 96.05 227.397 95.7933 226.51 95.28C225.67 94.8133 224.97 94.2533 224.41 93.6C223.757 92.76 223.244 90.4033 222.87 86.53C222.497 82.6567 222.264 78.2233 222.17 73.23C222.17 72.11 222.147 71.27 222.1 70.71C222.007 58.9967 221.82 52.0667 221.54 49.92L221.96 48.94C223.034 49.08 223.57 50.3633 223.57 52.79L223.78 71.34C223.78 72.6467 223.897 75.12 224.13 78.76C224.41 82.0267 224.55 84.5 224.55 86.18C224.55 91.5 226.3 94.16 229.8 94.16C231.947 94.16 233.324 89.26 233.93 79.46L234 78.06C234.327 65.2267 234.49 55.73 234.49 49.57L234.42 48.94C234.374 48.7533 234.35 48.5433 234.35 48.31C234.35 47.7967 234.747 47.54 235.54 47.54C236.1 47.54 236.45 47.68 236.59 47.96C236.684 48.4267 236.73 49.2433 236.73 50.41C236.73 53.9567 236.59 56.3367 236.31 57.55L236.38 57.97C236.38 58.5767 236.31 59.51 236.17 60.77L236.03 63.57V64.27C236.077 64.4567 236.1 64.69 236.1 64.97C236.007 66.09 235.96 67.1633 235.96 68.19C235.914 68.5167 235.89 69.03 235.89 69.73C235.797 74.1633 235.704 78.0133 235.61 81.28C235.47 85.34 234.91 88.77 233.93 91.57C232.904 94.5567 231.247 96.05 228.96 96.05ZM249.975 95.84C249.462 92.9 249.205 89.54 249.205 85.76C249.205 84.2667 249.275 82.0967 249.415 79.25L249.555 72.74C249.228 72.0867 249.065 71.55 249.065 71.13C249.532 70.3833 249.765 68.2367 249.765 64.69C249.765 56.1967 249.648 51.67 249.415 51.11C249.835 49.9433 250.162 49.36 250.395 49.36H253.475C253.988 49.36 254.712 49.6167 255.645 50.13C256.625 50.5967 257.442 51.11 258.095 51.67C259.262 52.7433 259.845 55.4967 259.845 59.93C259.845 62.31 259.775 64.13 259.635 65.39C259.542 66.2767 259.378 66.9767 259.145 67.49C258.958 68.0033 258.655 68.5867 258.235 69.24C257.535 70.3133 256.345 71.2467 254.665 72.04C253.965 72.4133 252.985 72.7867 251.725 73.16V81.49C251.725 82.6567 251.842 84.9433 252.075 88.35L252.215 90.59L252.355 95.14C252.355 95.98 251.912 96.4 251.025 96.4L249.975 95.84ZM252.215 70.78C253.568 70.78 254.712 70.15 255.645 68.89C255.972 68.4233 256.275 67.7933 256.555 67C256.835 66.2067 257.022 65.4367 257.115 64.69C257.395 63.3367 257.535 61.7733 257.535 60V58.11C257.535 57.4567 257.512 56.8267 257.465 56.22C257.418 55.6133 257.325 55.03 257.185 54.47C256.998 53.8633 256.742 53.3733 256.415 53C256.135 52.58 255.738 52.23 255.225 51.95C254.665 51.67 253.988 51.53 253.195 51.53C252.635 51.53 252.238 51.67 252.005 51.95C251.772 52.23 251.655 52.72 251.655 53.42C251.655 54.54 251.725 56.22 251.865 58.46L252.005 63.5C252.005 64.7133 251.958 65.81 251.865 66.79L251.725 70.08L252.215 70.78ZM278.327 101.5V101.37L278.262 101.24C278.262 101.11 278.63 100.807 279.367 100.33C280.06 99.81 280.84 99.29 281.707 98.77C282.66 98.12 283.158 97.7517 283.202 97.665C283.852 96.9283 284.35 95.78 284.697 94.22C285.087 92.6167 285.282 91.0567 285.282 89.54C285.282 84.9033 285.195 79.14 285.022 72.25C284.805 65.8367 284.697 60.095 284.697 55.025L284.307 54.31C284.003 54.2233 283.483 54.115 282.747 53.985C281.923 53.9417 281.187 53.7683 280.537 53.465C279.887 53.2483 279.562 52.9667 279.562 52.62C279.562 52.4467 279.735 52.2733 280.082 52.1C280.428 51.9267 280.71 51.84 280.927 51.84C281.75 51.84 283.05 51.9917 284.827 52.295C286.647 52.5983 288.25 52.9667 289.637 53.4C291.067 53.8333 291.782 54.2233 291.782 54.57C291.782 54.83 291.673 55.0467 291.457 55.22C291.283 55.35 291.045 55.415 290.742 55.415C290.438 55.415 289.853 55.3067 288.987 55.09C288.337 54.8733 287.752 54.765 287.232 54.765C286.842 54.765 286.647 55.1983 286.647 56.065C286.647 58.4483 286.755 62.955 286.972 69.585C287.188 74.5683 287.297 79.0533 287.297 83.04V90.19C287.037 90.7533 286.907 91.6633 286.907 92.92C286.907 94.74 286.387 96.7983 285.347 99.095C284.783 100.265 284.047 101.197 283.137 101.89C282.27 102.627 281.317 102.995 280.277 102.995H279.822L278.327 101.5ZM306.552 95.975C305.859 95.975 305.1 95.7367 304.277 95.26C303.497 94.8267 302.847 94.3067 302.327 93.7C301.72 92.92 301.244 90.7317 300.897 87.135C300.55 83.5383 300.334 79.4217 300.247 74.785C300.247 73.745 300.225 72.965 300.182 72.445C300.095 61.5683 299.922 55.1333 299.662 53.14L300.052 52.23C301.049 52.36 301.547 53.5517 301.547 55.805L301.742 73.03C301.742 74.2433 301.85 76.54 302.067 79.92C302.327 82.9533 302.457 85.25 302.457 86.81C302.457 91.75 304.082 94.22 307.332 94.22C309.325 94.22 310.604 89.67 311.167 80.57L311.232 79.27C311.535 67.3533 311.687 58.535 311.687 52.815L311.622 52.23C311.579 52.0567 311.557 51.8617 311.557 51.645C311.557 51.1683 311.925 50.93 312.662 50.93C313.182 50.93 313.507 51.06 313.637 51.32C313.724 51.7533 313.767 52.5117 313.767 53.595C313.767 56.8883 313.637 59.0983 313.377 60.225L313.442 60.615C313.442 61.1783 313.377 62.045 313.247 63.215L313.117 65.815V66.465C313.16 66.6383 313.182 66.855 313.182 67.115C313.095 68.155 313.052 69.1517 313.052 70.105C313.009 70.4083 312.987 70.885 312.987 71.535C312.9 75.6517 312.814 79.2267 312.727 82.26C312.597 86.03 312.077 89.215 311.167 91.815C310.214 94.5883 308.675 95.975 306.552 95.975ZM326.326 95.845C325.719 95.845 325.351 95.3467 325.221 94.35C325.307 94.09 325.351 93.375 325.351 92.205C325.351 88.2183 325.416 82.3033 325.546 74.46C325.676 66.66 325.741 61.0267 325.741 57.56L325.871 55.22L326.066 53.27C326.066 52.9667 326.217 52.815 326.521 52.815C326.737 52.815 327.041 52.88 327.431 53.01L327.626 53.075C327.626 54.0283 327.604 54.895 327.561 55.675V58.21V65.295C327.604 67.375 327.626 69.7367 327.626 72.38C327.582 72.5967 327.561 73.0733 327.561 73.81L327.496 75.175C327.452 76.0417 327.431 76.93 327.431 77.84C327.431 78.8367 327.452 79.7467 327.496 80.57L327.561 83.365L327.366 83.885L327.431 83.82C327.431 83.95 327.409 84.0367 327.366 84.08V84.34C327.366 84.6867 327.431 84.99 327.561 85.25L327.366 91.49V91.88C327.366 92.6167 327.387 93.05 327.431 93.18C327.431 93.3967 327.539 93.505 327.756 93.505L331.136 93.635C332.132 93.635 332.804 93.6567 333.151 93.7C333.541 93.7 333.779 93.7 333.866 93.7H334.061C334.277 93.7 334.494 93.83 334.711 94.09C334.927 94.3067 335.036 94.545 335.036 94.805C335.036 95.325 334.689 95.6067 333.996 95.65C333.259 95.6067 331.461 95.585 328.601 95.585L328.731 95.65C328.297 95.65 327.886 95.6717 327.496 95.715C327.149 95.8017 326.759 95.845 326.326 95.845ZM344.202 95.845C343.422 95.845 342.989 95.39 342.902 94.48V93.635C342.945 93.4183 342.967 93.1583 342.967 92.855L342.707 92.595C343.054 91.685 343.227 90.7967 343.227 89.93C343.227 88.9333 343.162 87.5033 343.032 85.64L342.902 81.35C342.902 79.1833 342.967 75.9333 343.097 71.6C343.27 67.7433 343.357 64.4717 343.357 61.785L343.227 57.885C343.14 56.715 343.097 55.415 343.097 53.985C343.097 53.335 343.249 52.88 343.552 52.62C343.855 52.3167 344.332 52.165 344.982 52.165C345.415 52.165 345.762 52.295 346.022 52.555C346.109 52.5983 346.737 52.685 347.907 52.815C348.99 52.945 349.922 53.14 350.702 53.4C351.525 53.66 351.937 53.985 351.937 54.375C351.937 54.8083 351.525 55.2417 350.702 55.675C348.232 54.8517 346.477 54.44 345.437 54.44L345.112 54.83C345.155 55.22 345.177 56.1517 345.177 57.625C345.177 59.4883 345.134 61.1567 345.047 62.63C345.004 64.1467 344.982 65.8367 344.982 67.7C344.982 68.9133 345.285 69.52 345.892 69.52L346.932 69.455C347.279 69.4117 347.647 69.39 348.037 69.39C349.727 69.39 350.572 69.78 350.572 70.56C350.572 71.0367 350.464 71.4483 350.247 71.795C350.03 72.0983 349.705 72.25 349.272 72.25C348.622 72.25 348.124 72.0767 347.777 71.73L345.697 71.405H345.372L345.047 71.73V71.925C345.134 72.6617 345.177 74.3733 345.177 77.06C345.177 78.75 345.155 80.2883 345.112 81.675L345.047 86.29C345.047 87.98 345.112 89.7133 345.242 91.49C345.285 92.4867 345.502 93.1583 345.892 93.505C346.282 93.8083 346.997 93.96 348.037 93.96L349.207 93.895C349.597 93.8517 350.03 93.83 350.507 93.83C351.764 93.83 352.392 94.1117 352.392 94.675C352.392 95.455 351.439 95.845 349.532 95.845H344.202ZM386.898 98.38C386.031 98.38 385.598 96.9933 385.598 94.22V89.93C385.598 83.69 385.468 78.815 385.208 75.305L385.013 72.9C384.84 71.8167 384.753 70.8633 384.753 70.04C384.753 68.5667 384.796 67.2233 384.883 66.01L385.013 61.98C385.013 60.6367 384.926 59.6183 384.753 58.925C383.886 59.5317 381.265 68.6533 376.888 86.29L376.823 87.265C376.693 88.3483 376.52 89.215 376.303 89.865C376.173 90.3417 375.978 90.71 375.718 90.97C375.501 91.23 375.241 91.36 374.938 91.36C374.245 91.36 373.746 91.1867 373.443 90.84C373.14 90.4933 372.988 89.9517 372.988 89.215C372.988 88.045 372.425 85.0117 371.298 80.115C370.215 75.2183 369.023 70.5167 367.723 66.01C366.466 61.5033 365.6 59.0117 365.123 58.535C365.08 60.0517 364.906 63.6267 364.603 69.26C363.996 79.2267 363.693 87.07 363.693 92.79L363.758 95.39C363.585 95.9533 363.13 96.235 362.393 96.235C362.263 96.235 362.046 96.105 361.743 95.845C361.44 95.6283 361.288 95.455 361.288 95.325C361.288 91.425 361.635 84.5783 362.328 74.785C362.978 65.685 363.303 58.86 363.303 54.31C363.303 54.0933 363.26 53.8767 363.173 53.66C363.043 53.4 362.978 53.205 362.978 53.075C362.978 52.425 363.541 52.1 364.668 52.1C365.405 52.1 365.838 52.425 365.968 53.075C366.141 53.9417 366.228 54.5917 366.228 55.025L366.293 55.805C366.51 56.9317 367.138 58.665 368.178 61.005C369.001 62.8683 369.63 64.4933 370.063 65.88C370.323 66.92 370.561 67.765 370.778 68.415C371.471 70.9283 371.926 72.7917 372.143 74.005L372.988 75.695C373.118 76.345 373.378 77.4067 373.768 78.88C374.158 80.5267 374.44 81.87 374.613 82.91C374.786 83.95 374.873 84.9467 374.873 85.9C375.35 85.1633 376.693 80.7433 378.903 72.64C381.156 64.4933 382.478 59.2933 382.868 57.04C382.911 56.9533 382.933 56.845 382.933 56.715C382.976 56.5417 383.02 56.325 383.063 56.065C383.15 55.5017 383.345 54.6567 383.648 53.53C383.995 52.6633 384.515 52.23 385.208 52.23C385.511 52.23 385.858 52.36 386.248 52.62C386.638 52.88 386.833 53.14 386.833 53.4C386.833 71.47 387.115 81.025 387.678 82.065V85.445C387.635 86.4417 387.613 87.59 387.613 88.89C387.613 91.6633 387.765 93.7433 388.068 95.13C388.111 95.1733 388.133 95.2383 388.133 95.325C388.176 95.4117 388.22 95.52 388.263 95.65C388.306 95.8233 388.328 96.0183 388.328 96.235C388.328 96.7117 388.176 97.1883 387.873 97.665C387.613 98.1417 387.288 98.38 386.898 98.38ZM384.753 58.535H384.688L384.558 58.6L384.753 58.665V58.535ZM412.533 95.585C411.883 95.585 411.471 95.4983 411.298 95.325C411.125 95.195 410.995 94.805 410.908 94.155C410.518 90.9917 410.28 89.02 410.193 88.24L409.868 85.64C408.915 85.4233 407.831 85.315 406.618 85.315L404.278 85.185C403.238 85.055 402.48 84.99 402.003 84.99C401.743 84.99 401.591 85.0983 401.548 85.315C401.548 85.445 401.526 85.51 401.483 85.51L401.353 86.81C401.31 87.59 401.071 89.15 400.638 91.49C400.421 92.66 400.161 93.57 399.858 94.22C399.511 94.9567 399.186 95.325 398.883 95.325C398.623 95.325 398.341 95.2167 398.038 95C397.735 94.74 397.583 94.48 397.583 94.22L397.648 94.025L397.713 93.83C398.493 90.7533 399.143 87.6983 399.663 84.665L400.443 80.635L401.223 75.695C401.223 75.695 401.461 74.265 401.938 71.405C402.155 70.235 402.545 68.35 403.108 65.75C403.715 62.8033 404.083 60.7883 404.213 59.705C404.256 59.575 404.343 58.7733 404.473 57.3C404.646 55.6533 404.798 54.44 404.928 53.66C405.058 52.5333 405.188 51.8833 405.318 51.71H405.773C405.903 51.7533 406.055 51.775 406.228 51.775C406.748 51.775 407.138 51.645 407.398 51.385C407.701 51.385 407.961 51.4933 408.178 51.71C408.438 51.8833 408.568 52.1 408.568 52.36C408.568 54.44 408.72 56.8233 409.023 59.51C409.196 60.8967 409.326 62.045 409.413 62.955C409.89 68.545 411.103 79.0317 413.053 94.415V94.61C413.053 95.0433 412.88 95.3683 412.533 95.585ZM409.543 83.885C409.11 77.645 408.286 68.4367 407.073 56.26L403.563 73.615C402.566 78.5983 402.068 81.74 402.068 83.04C402.068 83.2567 402.891 83.4517 404.538 83.625C406.185 83.7983 407.636 83.885 408.893 83.885H409.543ZM426.019 94.09L425.954 91.685C425.91 90.9917 425.889 90.2117 425.889 89.345C425.889 88.9117 425.91 88.5433 425.954 88.24L426.019 87.07C426.019 86.6367 425.932 86.1167 425.759 85.51C425.759 82.6067 425.542 77.2117 425.109 69.325C424.675 61.6983 424.437 56.52 424.394 53.79C421.707 53.79 419.909 53.725 418.999 53.595C418.132 53.3783 417.699 53.0317 417.699 52.555C417.915 52.0783 418.327 51.84 418.934 51.84C420.234 51.84 422.119 51.9267 424.589 52.1C426.842 52.3167 428.727 52.425 430.244 52.425H431.609L432.974 52.36C433.754 52.36 434.144 52.6417 434.144 53.205C434.144 53.465 433.992 53.6817 433.689 53.855C433.429 53.985 433.104 54.05 432.714 54.05C431.847 54.05 430.937 54.0067 429.984 53.92L427.189 53.79C427.015 53.79 426.929 53.855 426.929 53.985C426.885 54.115 426.864 54.5267 426.864 55.22C426.864 59.4233 427.124 65.7933 427.644 74.33C428.12 83.17 428.359 89.5183 428.359 93.375C428.359 93.6783 428.164 93.96 427.774 94.22C427.427 94.48 427.08 94.61 426.734 94.61L426.019 94.09Z" fill="black"/>
</svg>
