<svg width="247" height="56" viewBox="0 0 247 56" fill="none" xmlns="http://www.w3.org/2000/svg">
<path d="M216.999 18.5C216.999 44.3636 196.671 53.7819 130.648 53.7819C64.6246 53.7819 5.49984 58.8636 5.49984 33C5.49984 7.13641 -5.52332 2.50004 60.4999 2.50004C126.523 2.50004 216.999 -7.36359 216.999 18.5Z" fill="white"/>
<path d="M21.1899 32.9858C21.7922 32.9858 22.3618 32.9858 22.8989 32.9858C23.436 32.9777 23.9325 32.9696 24.3882 32.9614C24.8439 32.9451 25.2508 32.9248 25.6089 32.9004C25.967 32.876 26.2681 32.8434 26.5122 32.8027V35H15.9531C16.0426 34.5117 16.0955 33.8078 16.1118 32.8882C16.1281 31.9604 16.1362 30.8944 16.1362 29.6899V22.4878C16.1362 21.2834 16.1281 20.2214 16.1118 19.3018C16.0955 18.374 16.0426 17.666 15.9531 17.1777H18.4556V32.9858H21.1899ZM37.6353 24.4775C37.5376 24.4531 37.4277 24.4287 37.3057 24.4043C37.1836 24.3799 37.0371 24.3555 36.8662 24.3311C36.7035 24.3066 36.5081 24.2904 36.2803 24.2822C36.0605 24.266 35.8001 24.2578 35.499 24.2578C34.7015 24.2578 34.0342 24.4206 33.4971 24.7461C32.9681 25.0635 32.5449 25.4907 32.2275 26.0278C31.9102 26.5568 31.6823 27.1672 31.5439 27.8589C31.4137 28.5506 31.3486 29.2627 31.3486 29.9951C31.3486 30.4671 31.3934 30.9025 31.4829 31.3013C31.5806 31.6919 31.7108 32.0337 31.8735 32.3267C32.0363 32.6115 32.2235 32.8353 32.4351 32.998C32.6466 33.1527 32.8745 33.23 33.1187 33.23C33.4767 33.23 33.8348 33.0916 34.1929 32.8149C34.5591 32.5382 34.909 32.1842 35.2427 31.7529C35.5763 31.3135 35.8896 30.8252 36.1826 30.2881C36.4756 29.7428 36.7279 29.2057 36.9395 28.6768C37.1592 28.1396 37.3301 27.6351 37.4521 27.1631C37.5742 26.6911 37.6353 26.3127 37.6353 26.0278V24.4775ZM38.5508 35C38.4613 34.8047 38.3799 34.5361 38.3066 34.1943C38.2415 33.8525 38.1846 33.4904 38.1357 33.1079C38.0951 32.7173 38.0625 32.3307 38.0381 31.9482C38.0137 31.5658 38.0015 31.2402 38.0015 30.9717V29.9951C37.7573 30.6299 37.4644 31.2646 37.1226 31.8994C36.7889 32.526 36.4023 33.0916 35.9629 33.5962C35.5316 34.1007 35.0474 34.5117 34.5103 34.8291C33.9731 35.1465 33.3872 35.3052 32.7524 35.3052C32.2397 35.3052 31.7596 35.1912 31.312 34.9634C30.8644 34.7355 30.4738 34.3978 30.1401 33.9502C29.8146 33.5026 29.5583 32.9492 29.3711 32.29C29.1839 31.6227 29.0903 30.8577 29.0903 29.9951C29.0903 29.0267 29.2205 28.0827 29.481 27.1631C29.7414 26.2354 30.1401 25.4134 30.6772 24.6973C31.2144 23.973 31.8979 23.3952 32.728 22.9639C33.5581 22.5244 34.5428 22.3047 35.6821 22.3047C36.4715 22.3047 37.2161 22.3576 37.916 22.4634C38.6159 22.561 39.2751 22.6912 39.8936 22.854V28.5303C39.8936 30.0684 39.9668 31.3623 40.1133 32.4121C40.2598 33.4538 40.451 34.3164 40.687 35H38.5508ZM44.3638 35V27.4927C44.3638 26.2882 44.2946 25.271 44.1562 24.4409C44.026 23.6027 43.8918 22.972 43.7534 22.5488H45.9507C45.9995 22.679 46.0483 22.8499 46.0972 23.0615C46.146 23.265 46.1908 23.4806 46.2314 23.7085C46.2721 23.9364 46.3088 24.1602 46.3413 24.3799L46.439 24.9292C46.7319 24.506 47.0493 24.1317 47.3911 23.8062C47.741 23.4806 48.091 23.208 48.4409 22.9883C48.799 22.7604 49.1449 22.5895 49.4785 22.4756C49.8203 22.3617 50.1296 22.3047 50.4062 22.3047C50.9189 22.3047 51.3503 22.4186 51.7002 22.6465C52.0583 22.8662 52.3472 23.1673 52.5669 23.5498C52.7948 23.9242 52.9575 24.3595 53.0552 24.856C53.161 25.3442 53.2139 25.8569 53.2139 26.394L51.2607 26.8213C51.2607 26.5202 51.2323 26.2313 51.1753 25.9546C51.1183 25.6698 51.0329 25.4215 50.9189 25.21C50.805 24.9902 50.6585 24.8193 50.4795 24.6973C50.3086 24.5671 50.1011 24.502 49.8569 24.502C49.5965 24.502 49.3076 24.6037 48.9902 24.8071C48.6729 25.0024 48.3595 25.2629 48.0503 25.5884C47.7492 25.9139 47.4684 26.2801 47.208 26.687C46.9476 27.0939 46.7523 27.5049 46.6221 27.9199V35H44.3638ZM66.7783 22.5488C66.6074 22.8988 66.4284 23.2772 66.2412 23.6841C66.0622 24.091 65.8872 24.4897 65.7163 24.8804C65.5535 25.271 65.3989 25.6413 65.2524 25.9912C65.106 26.3411 64.9839 26.6382 64.8862 26.8823C64.8049 27.0776 64.695 27.3462 64.5566 27.688C64.4264 28.0216 64.2759 28.4001 64.105 28.8232C63.9422 29.2383 63.7673 29.6818 63.5801 30.1538C63.3929 30.6177 63.2098 31.0775 63.0308 31.5332C62.5994 32.6074 62.1396 33.763 61.6514 35H59.332C58.86 33.82 58.4165 32.7051 58.0015 31.6553C57.8224 31.2077 57.6393 30.752 57.4521 30.2881C57.265 29.8242 57.0859 29.3807 56.915 28.9575C56.7523 28.5262 56.5977 28.1315 56.4512 27.7734C56.3128 27.4154 56.1948 27.1183 56.0972 26.8823C55.9995 26.6382 55.8774 26.3411 55.731 25.9912C55.5845 25.6331 55.4258 25.2588 55.2549 24.8682C55.084 24.4775 54.909 24.0828 54.73 23.6841C54.5509 23.2772 54.376 22.8988 54.2051 22.5488H56.7686L60.4917 32.5586L64.2148 22.5488H66.7783ZM69.5396 18.5815C69.5396 18.3537 69.5762 18.1421 69.6494 17.9468C69.7227 17.7433 69.8244 17.5684 69.9546 17.4219C70.0929 17.2673 70.2557 17.1493 70.4429 17.0679C70.63 16.9784 70.8376 16.9336 71.0654 16.9336C71.2933 16.9336 71.5049 16.9784 71.7002 17.0679C71.8955 17.1493 72.0623 17.2673 72.2007 17.4219C72.339 17.5684 72.4489 17.7433 72.5303 17.9468C72.6117 18.1421 72.6523 18.3537 72.6523 18.5815C72.6523 18.8094 72.6117 19.0251 72.5303 19.2285C72.4489 19.4238 72.339 19.5988 72.2007 19.7534C72.0623 19.8999 71.8955 20.0179 71.7002 20.1074C71.5049 20.1888 71.2933 20.2295 71.0654 20.2295C70.8376 20.2295 70.63 20.1888 70.4429 20.1074C70.2557 20.0179 70.0929 19.8999 69.9546 19.7534C69.8244 19.5988 69.7227 19.4238 69.6494 19.2285C69.5762 19.0251 69.5396 18.8094 69.5396 18.5815ZM72.2251 29.2017C72.2251 29.5923 72.2292 30.0562 72.2373 30.5933C72.2536 31.1222 72.2699 31.6593 72.2861 32.2046C72.3105 32.7498 72.335 33.2707 72.3594 33.7671C72.3919 34.2635 72.4285 34.6745 72.4692 35H69.9668V28.5303C69.9668 27.9362 69.9627 27.3503 69.9546 26.7725C69.9546 26.1947 69.9465 25.6494 69.9302 25.1367C69.922 24.6159 69.9058 24.1357 69.8813 23.6963C69.8569 23.2487 69.8244 22.8662 69.7837 22.5488H72.2251V29.2017ZM76.9517 35V21.2061C76.9517 19.8877 76.9435 18.7362 76.9272 17.7515C76.911 16.7586 76.8581 15.9977 76.7686 15.4688H79.21V27.6636L84.1538 22.5488H87.2056L81.1631 28.0054L87.5718 35H84.5811L79.21 28.6523V35H76.9517ZM90.2231 35V21.2061C90.2231 19.8877 90.215 18.7362 90.1987 17.7515C90.1825 16.7586 90.1296 15.9977 90.04 15.4688H92.4814V27.6636L97.4253 22.5488H100.477L94.4346 28.0054L100.843 35H97.8525L92.4814 28.6523V35H90.2231ZM105.143 28.8354C105.143 29.5435 105.228 30.1782 105.399 30.7397C105.57 31.3013 105.81 31.7773 106.119 32.168C106.437 32.5505 106.811 32.8434 107.242 33.0469C107.674 33.2503 108.154 33.3521 108.683 33.3521C109.171 33.3521 109.631 33.2503 110.062 33.0469C110.493 32.8434 110.868 32.5505 111.185 32.168C111.511 31.7773 111.763 31.3013 111.942 30.7397C112.129 30.1782 112.223 29.5435 112.223 28.8354C112.223 28.1193 112.137 27.4805 111.966 26.9189C111.795 26.3493 111.551 25.8691 111.234 25.4785C110.925 25.0798 110.55 24.7786 110.111 24.5752C109.68 24.3636 109.203 24.2578 108.683 24.2578C108.186 24.2578 107.722 24.3636 107.291 24.5752C106.86 24.7786 106.485 25.0798 106.168 25.4785C105.851 25.8691 105.598 26.3493 105.411 26.9189C105.232 27.4805 105.143 28.1193 105.143 28.8354ZM102.884 28.8354C102.884 27.7856 103.043 26.8579 103.36 26.0522C103.678 25.2384 104.105 24.5549 104.642 24.0015C105.179 23.4399 105.806 23.0168 106.522 22.7319C107.238 22.4471 107.999 22.3047 108.805 22.3047C109.643 22.3047 110.408 22.4471 111.1 22.7319C111.799 23.0168 112.398 23.4399 112.894 24.0015C113.399 24.5549 113.789 25.2384 114.066 26.0522C114.343 26.8579 114.481 27.7856 114.481 28.8354C114.481 29.8853 114.322 30.813 114.005 31.6187C113.688 32.4243 113.26 33.0998 112.723 33.645C112.186 34.1903 111.559 34.6053 110.843 34.8901C110.127 35.1668 109.366 35.3052 108.561 35.3052C107.722 35.3052 106.953 35.1668 106.253 34.8901C105.562 34.6053 104.964 34.1903 104.459 33.645C103.963 33.0998 103.576 32.4243 103.299 31.6187C103.023 30.813 102.884 29.8853 102.884 28.8354ZM127.801 35H125.543V28.042C125.543 27.2852 125.514 26.6748 125.458 26.2109C125.401 25.7389 125.303 25.3727 125.165 25.1123C125.034 24.8438 124.855 24.6647 124.627 24.5752C124.4 24.4857 124.115 24.4409 123.773 24.4409C123.472 24.4409 123.171 24.502 122.87 24.624C122.569 24.7461 122.28 24.9211 122.003 25.1489C121.734 25.3687 121.482 25.6331 121.246 25.9424C121.018 26.2435 120.823 26.5771 120.66 26.9434V35H118.402V27.4927C118.402 26.2882 118.333 25.271 118.194 24.4409C118.056 23.6027 117.922 22.972 117.792 22.5488H119.989C120.078 22.8092 120.156 23.1185 120.221 23.4766C120.286 23.8265 120.339 24.1479 120.379 24.4409C120.754 24.0096 121.112 23.6556 121.454 23.3789C121.795 23.1022 122.133 22.8866 122.467 22.7319C122.809 22.5692 123.146 22.4593 123.48 22.4023C123.814 22.3372 124.155 22.3047 124.505 22.3047C124.904 22.3047 125.266 22.3617 125.592 22.4756C125.917 22.5895 126.202 22.7401 126.446 22.9272C126.699 23.1144 126.914 23.3341 127.093 23.5864C127.272 23.8306 127.411 24.0869 127.508 24.3555C127.891 23.9404 128.261 23.6027 128.619 23.3423C128.977 23.0737 129.327 22.8662 129.669 22.7197C130.011 22.5651 130.344 22.4593 130.67 22.4023C131.004 22.3372 131.329 22.3047 131.646 22.3047C132.265 22.3047 132.786 22.4064 133.209 22.6099C133.632 22.8052 133.97 23.0981 134.222 23.4888C134.483 23.8794 134.666 24.3636 134.771 24.9414C134.885 25.5192 134.942 26.1865 134.942 26.9434V35H132.684V28.2861C132.684 27.4967 132.656 26.8538 132.599 26.3574C132.542 25.861 132.444 25.4704 132.306 25.1855C132.175 24.9007 131.996 24.7054 131.769 24.5996C131.541 24.4938 131.256 24.4409 130.914 24.4409C130.613 24.4409 130.316 24.502 130.023 24.624C129.73 24.738 129.445 24.9048 129.168 25.1245C128.9 25.3361 128.648 25.5965 128.412 25.9058C128.184 26.215 127.98 26.5609 127.801 26.9434V35ZM149.007 35H146.749V28.042C146.749 27.2852 146.721 26.6748 146.664 26.2109C146.607 25.7389 146.509 25.3727 146.371 25.1123C146.24 24.8438 146.061 24.6647 145.833 24.5752C145.606 24.4857 145.321 24.4409 144.979 24.4409C144.678 24.4409 144.377 24.502 144.076 24.624C143.775 24.7461 143.486 24.9211 143.209 25.1489C142.94 25.3687 142.688 25.6331 142.452 25.9424C142.224 26.2435 142.029 26.5771 141.866 26.9434V35H139.608V27.4927C139.608 26.2882 139.539 25.271 139.4 24.4409C139.262 23.6027 139.128 22.972 138.998 22.5488H141.195C141.284 22.8092 141.362 23.1185 141.427 23.4766C141.492 23.8265 141.545 24.1479 141.585 24.4409C141.96 24.0096 142.318 23.6556 142.66 23.3789C143.001 23.1022 143.339 22.8866 143.673 22.7319C144.015 22.5692 144.352 22.4593 144.686 22.4023C145.02 22.3372 145.361 22.3047 145.711 22.3047C146.11 22.3047 146.472 22.3617 146.798 22.4756C147.123 22.5895 147.408 22.7401 147.652 22.9272C147.905 23.1144 148.12 23.3341 148.299 23.5864C148.478 23.8306 148.617 24.0869 148.714 24.3555C149.097 23.9404 149.467 23.6027 149.825 23.3423C150.183 23.0737 150.533 22.8662 150.875 22.7197C151.217 22.5651 151.55 22.4593 151.876 22.4023C152.21 22.3372 152.535 22.3047 152.853 22.3047C153.471 22.3047 153.992 22.4064 154.415 22.6099C154.838 22.8052 155.176 23.0981 155.428 23.4888C155.689 23.8794 155.872 24.3636 155.978 24.9414C156.091 25.5192 156.148 26.1865 156.148 26.9434V35H153.89V28.2861C153.89 27.4967 153.862 26.8538 153.805 26.3574C153.748 25.861 153.65 25.4704 153.512 25.1855C153.382 24.9007 153.202 24.7054 152.975 24.5996C152.747 24.4938 152.462 24.4409 152.12 24.4409C151.819 24.4409 151.522 24.502 151.229 24.624C150.936 24.738 150.651 24.9048 150.375 25.1245C150.106 25.3361 149.854 25.5965 149.618 25.9058C149.39 26.215 149.186 26.5609 149.007 26.9434V35ZM169.908 35C169.851 34.8617 169.79 34.6989 169.725 34.5117C169.66 34.3245 169.595 34.1252 169.53 33.9136C169.473 33.702 169.416 33.4823 169.359 33.2544C169.31 33.0184 169.269 32.7865 169.237 32.5586C168.496 33.4619 167.731 34.1455 166.942 34.6094C166.161 35.0732 165.339 35.3052 164.476 35.3052C161.872 35.3052 160.57 33.5555 160.57 30.0562V26.4551C160.57 26.0645 160.566 25.7104 160.558 25.3931C160.558 25.0757 160.549 24.7705 160.533 24.4775C160.517 24.1764 160.493 23.8713 160.46 23.562C160.427 23.2528 160.383 22.915 160.326 22.5488H162.828V29.3237C162.828 30.0155 162.861 30.6136 162.926 31.1182C162.999 31.6146 163.117 32.0256 163.28 32.3511C163.443 32.6685 163.654 32.9045 163.915 33.0591C164.183 33.2137 164.513 33.291 164.903 33.291C165.261 33.291 165.644 33.1852 166.051 32.9736C166.458 32.7539 166.844 32.4772 167.21 32.1436C167.585 31.8099 167.923 31.4437 168.224 31.0449C168.533 30.638 168.769 30.2474 168.932 29.873V26.4551C168.932 26.0563 168.928 25.6982 168.919 25.3809C168.919 25.0553 168.911 24.7461 168.895 24.4531C168.879 24.1602 168.854 23.8631 168.822 23.562C168.789 23.2609 168.744 22.9232 168.688 22.5488H171.19V29.5068C171.19 30.695 171.255 31.7367 171.385 32.6318C171.524 33.5189 171.723 34.3083 171.983 35H169.908ZM184.339 35V28.2861C184.339 27.5212 184.286 26.8905 184.181 26.394C184.083 25.8976 183.932 25.507 183.729 25.2222C183.534 24.9292 183.281 24.7257 182.972 24.6118C182.671 24.4979 182.313 24.4409 181.898 24.4409C181.458 24.4409 181.027 24.5467 180.604 24.7583C180.189 24.9618 179.806 25.2303 179.457 25.564C179.107 25.8895 178.797 26.2598 178.529 26.6748C178.26 27.0898 178.061 27.5049 177.931 27.9199V35H175.672V27.4927C175.672 26.2882 175.603 25.271 175.465 24.4409C175.335 23.6027 175.2 22.972 175.062 22.5488H177.259C177.308 22.679 177.357 22.8499 177.406 23.0615C177.455 23.265 177.499 23.4806 177.54 23.7085C177.581 23.9364 177.617 24.1602 177.65 24.3799L177.748 24.9292C178.521 24.0015 179.302 23.3341 180.091 22.9272C180.881 22.5122 181.707 22.3047 182.569 22.3047C183.871 22.3047 184.868 22.7319 185.56 23.5864C186.252 24.4328 186.598 25.6942 186.598 27.3706V35H184.339ZM192.301 29.0796C192.325 29.7957 192.435 30.4183 192.63 30.9473C192.834 31.4762 193.106 31.9157 193.448 32.2656C193.798 32.6074 194.205 32.8638 194.669 33.0347C195.141 33.2056 195.654 33.291 196.207 33.291C196.996 33.291 197.77 33.2015 198.526 33.0225C199.283 32.8434 200.036 32.526 200.785 32.0703L201.029 34.0845C200.597 34.3042 200.174 34.4914 199.759 34.646C199.344 34.8006 198.929 34.9268 198.514 35.0244C198.099 35.1221 197.676 35.1912 197.245 35.2319C196.821 35.2808 196.374 35.3052 195.902 35.3052C195.121 35.3052 194.376 35.1709 193.668 34.9023C192.96 34.6257 192.337 34.2228 191.8 33.6938C191.263 33.1567 190.836 32.4935 190.519 31.7041C190.201 30.9147 190.042 29.9992 190.042 28.9575C190.042 27.9484 190.177 27.0369 190.445 26.2231C190.722 25.4012 191.113 24.7013 191.617 24.1235C192.122 23.5376 192.736 23.09 193.46 22.7808C194.185 22.4634 194.999 22.3047 195.902 22.3047C196.569 22.3047 197.159 22.3861 197.672 22.5488C198.185 22.7035 198.628 22.9232 199.002 23.208C199.377 23.4847 199.69 23.8102 199.942 24.1846C200.195 24.5589 200.394 24.9618 200.541 25.3931C200.695 25.8244 200.805 26.276 200.87 26.748C200.935 27.2119 200.968 27.6717 200.968 28.1274V28.6035C200.968 28.807 200.964 28.9657 200.956 29.0796H192.301ZM195.719 24.1357C194.824 24.1357 194.091 24.4002 193.521 24.9292C192.952 25.45 192.577 26.2638 192.398 27.3706H198.771C198.771 26.8498 198.693 26.39 198.539 25.9912C198.392 25.5843 198.181 25.2425 197.904 24.9658C197.635 24.6891 197.314 24.4816 196.939 24.3433C196.565 24.2049 196.158 24.1357 195.719 24.1357Z" fill="black"/>
</svg>
