<svg width="47" height="46" viewBox="0 0 47 46" fill="none" xmlns="http://www.w3.org/2000/svg">
<path d="M7.32685 33.3058C4.35758 24.6986 9.01185 8.95726 17.7019 5.95944C26.3919 2.96161 37.9167 8.52162 40.886 17.1289C43.8552 25.7361 41.9764 35.0614 33.2863 38.0592C24.5963 41.0571 10.2961 41.9131 7.32685 33.3058Z" fill="white"/>
<path fill-rule="evenodd" clip-rule="evenodd" d="M17.5 21.5C18.2956 21.5 19.0587 21.1839 19.6213 20.6213C20.1839 20.0587 20.5 19.2957 20.5 18.5C20.5 17.7044 20.1839 16.9413 19.6213 16.3787C19.0587 15.8161 18.2956 15.5 17.5 15.5C16.7044 15.5 15.9413 15.8161 15.3787 16.3787C14.8161 16.9413 14.5 17.7044 14.5 18.5C14.5 19.2957 14.8161 20.0587 15.3787 20.6213C15.9413 21.1839 16.7044 21.5 17.5 21.5ZM17.5 23C18.0909 23 18.6761 22.8836 19.2221 22.6575C19.768 22.4313 20.2641 22.0999 20.682 21.682C21.0998 21.2641 21.4313 20.7681 21.6575 20.2221C21.8836 19.6761 22 19.091 22 18.5C22 17.9091 21.8836 17.3239 21.6575 16.7779C21.4313 16.232 21.0998 15.7359 20.682 15.318C20.2641 14.9002 19.768 14.5687 19.2221 14.3426C18.6761 14.1164 18.0909 14 17.5 14C16.3065 14 15.1619 14.4741 14.318 15.318C13.4741 16.162 13 17.3065 13 18.5C13 19.6935 13.4741 20.8381 14.318 21.682C15.1619 22.5259 16.3065 23 17.5 23Z" fill="#83601B"/>
<path fill-rule="evenodd" clip-rule="evenodd" d="M15.781 21.344C15.8508 21.4137 15.9063 21.4965 15.9441 21.5876C15.9819 21.6787 16.0013 21.7764 16.0013 21.875C16.0013 21.9737 15.9819 22.0714 15.9441 22.1625C15.9063 22.2536 15.8508 22.3364 15.781 22.406L15.274 22.9115C14.2983 23.8875 13.7501 25.211 13.75 26.591V29.375C13.75 29.5739 13.671 29.7647 13.5303 29.9054C13.3897 30.046 13.1989 30.125 13 30.125C12.8011 30.125 12.6103 30.046 12.4697 29.9054C12.329 29.7647 12.25 29.5739 12.25 29.375V26.591C12.2502 24.8132 12.9565 23.1082 14.2135 21.851L14.719 21.344C14.7887 21.2742 14.8714 21.2188 14.9625 21.181C15.0537 21.1431 15.1513 21.1237 15.25 21.1237C15.3487 21.1237 15.4463 21.1431 15.5375 21.181C15.6286 21.2188 15.7113 21.2742 15.781 21.344ZM33.469 20.894C33.3992 20.9637 33.3437 21.0465 33.3059 21.1376C33.2681 21.2287 33.2487 21.3264 33.2487 21.425C33.2487 21.5237 33.2681 21.6214 33.3059 21.7125C33.3437 21.8036 33.3992 21.8864 33.469 21.956L33.976 22.4615C34.4592 22.9447 34.8425 23.5184 35.104 24.1497C35.3654 24.781 35.5 25.4577 35.5 26.141V29.375C35.5 29.5739 35.579 29.7647 35.7197 29.9054C35.8603 30.046 36.0511 30.125 36.25 30.125C36.4489 30.125 36.6397 30.046 36.7803 29.9054C36.921 29.7647 37 29.5739 37 29.375V26.141C36.9998 24.3632 36.2935 22.6582 35.0365 21.401L34.531 20.894C34.4613 20.8242 34.3786 20.7688 34.2874 20.731C34.1963 20.6931 34.0987 20.6737 34 20.6737C33.9013 20.6737 33.8037 20.6931 33.7126 20.731C33.6214 20.7688 33.5387 20.8242 33.469 20.894Z" fill="#83601B"/>
<path fill-rule="evenodd" clip-rule="evenodd" d="M31 21.5C30.2044 21.5 29.4413 21.1839 28.8787 20.6213C28.3161 20.0587 28 19.2957 28 18.5C28 17.7044 28.3161 16.9413 28.8787 16.3787C29.4413 15.8161 30.2044 15.5 31 15.5C31.7956 15.5 32.5587 15.8161 33.1213 16.3787C33.6839 16.9413 34 17.7044 34 18.5C34 19.2957 33.6839 20.0587 33.1213 20.6213C32.5587 21.1839 31.7956 21.5 31 21.5ZM31 23C30.4091 23 29.8239 22.8836 29.2779 22.6575C28.732 22.4313 28.2359 22.0999 27.818 21.682C27.4002 21.2641 27.0687 20.7681 26.8425 20.2221C26.6164 19.6761 26.5 19.091 26.5 18.5C26.5 17.9091 26.6164 17.3239 26.8425 16.7779C27.0687 16.232 27.4002 15.7359 27.818 15.318C28.2359 14.9002 28.732 14.5687 29.2779 14.3426C29.8239 14.1164 30.4091 14 31 14C32.1935 14 33.3381 14.4741 34.182 15.318C35.0259 16.162 35.5 17.3065 35.5 18.5C35.5 19.6935 35.0259 20.8381 34.182 21.682C33.3381 22.5259 32.1935 23 31 23ZM24.25 27.875C23.2554 27.875 22.3016 28.2701 21.5983 28.9734C20.8951 29.6766 20.5 30.6305 20.5 31.625V33.575C20.5 33.7739 20.421 33.9647 20.2803 34.1053C20.1397 34.246 19.9489 34.325 19.75 34.325C19.5511 34.325 19.3603 34.246 19.2197 34.1053C19.079 33.9647 19 33.7739 19 33.575V31.625C19 30.2326 19.5531 28.8973 20.5377 27.9127C21.5223 26.9281 22.8576 26.375 24.25 26.375C25.6424 26.375 26.9777 26.9281 27.9623 27.9127C28.9469 28.8973 29.5 30.2326 29.5 31.625V33.575C29.5 33.7739 29.421 33.9647 29.2803 34.1053C29.1397 34.246 28.9489 34.325 28.75 34.325C28.5511 34.325 28.3603 34.246 28.2197 34.1053C28.079 33.9647 28 33.7739 28 33.575V31.625C28 31.1326 27.903 30.6449 27.7145 30.19C27.5261 29.735 27.2499 29.3216 26.9017 28.9734C26.5534 28.6251 26.14 28.3489 25.6851 28.1605C25.2301 27.972 24.7425 27.875 24.25 27.875Z" fill="#83601B"/>
<path fill-rule="evenodd" clip-rule="evenodd" d="M24.25 25.625C25.0456 25.625 25.8087 25.3089 26.3713 24.7463C26.9339 24.1837 27.25 23.4207 27.25 22.625C27.25 21.8294 26.9339 21.0663 26.3713 20.5037C25.8087 19.9411 25.0456 19.625 24.25 19.625C23.4544 19.625 22.6913 19.9411 22.1287 20.5037C21.5661 21.0663 21.25 21.8294 21.25 22.625C21.25 23.4207 21.5661 24.1837 22.1287 24.7463C22.6913 25.3089 23.4544 25.625 24.25 25.625ZM24.25 27.125C25.4435 27.125 26.5881 26.6509 27.432 25.807C28.2759 24.9631 28.75 23.8185 28.75 22.625C28.75 21.4315 28.2759 20.287 27.432 19.443C26.5881 18.5991 25.4435 18.125 24.25 18.125C23.0565 18.125 21.9119 18.5991 21.068 19.443C20.2241 20.287 19.75 21.4315 19.75 22.625C19.75 23.8185 20.2241 24.9631 21.068 25.807C21.9119 26.6509 23.0565 27.125 24.25 27.125Z" fill="#83601B"/>
</svg>
