<svg width="947" height="952" viewBox="0 0 947 952" fill="none" xmlns="http://www.w3.org/2000/svg">
<g clip-path="url(#clip0_418_11717)">
<path d="M-124.418 535.774C-161.076 451.774 -153.812 291.733 -94.931 256.288C-36.0499 220.843 58.4127 268.991 95.0699 352.992C131.727 436.992 133.896 531.243 75.0148 566.688C16.1337 602.132 -87.7611 619.775 -124.418 535.774Z" fill="#D6F9F7" fill-opacity="0.66"/>
<path d="M-107.722 321.342C-25.7623 320.579 41.8147 424.52 43.2153 553.5C44.6159 682.48 -11.2261 823.283 -93.186 824.046C-175.146 824.809 -235.062 632.228 -236.462 503.248C-237.863 374.268 -189.682 322.105 -107.722 321.342Z" fill="#33A81F" fill-opacity="0.04"/>
<path d="M-23.2984 426.381C58.6615 425.618 126.239 529.559 127.639 658.539C129.04 787.52 73.1978 928.322 -8.76215 929.085C-90.7221 929.848 -150.638 737.267 -152.039 608.287C-153.439 479.307 -105.258 427.144 -23.2984 426.381Z" fill="#33A81F" fill-opacity="0.16"/>
<path d="M122.766 345.943C133.68 351.89 146.551 348.668 151.513 338.746C156.473 328.822 151.647 315.957 140.734 310.011C129.82 304.064 116.95 307.287 111.989 317.209C107.027 327.132 111.852 339.996 122.766 345.943Z" fill="#EFDCC4"/>
<path d="M116.778 337.972C114.14 335.359 112.083 332.182 110.752 328.664C108.537 322.71 108.77 316.51 111.431 311.215C114.091 305.92 118.811 302.186 124.765 300.703C130.719 299.219 137.02 300.128 142.677 303.222C148.382 306.314 152.713 311.256 154.901 317.135C157.091 323.017 156.884 329.291 154.248 334.611C151.611 339.929 146.866 343.638 140.913 345.122C134.96 346.606 128.659 345.698 122.976 342.578C120.707 341.367 118.617 339.813 116.778 337.972ZM146.298 310.625C144.71 309.051 142.92 307.714 140.981 306.65C136.104 303.992 130.672 303.217 125.676 304.483C120.679 305.749 116.879 308.742 114.723 313.028C112.566 317.314 112.403 322.414 114.231 327.301C116.058 332.189 119.821 336.517 124.697 339.174C129.575 341.834 135.006 342.608 140.003 341.342C145 340.077 148.774 337.058 150.931 332.773C153.088 328.487 153.274 323.411 151.423 318.5C150.29 315.519 148.541 312.831 146.298 310.625Z" fill="#452D34"/>
<path d="M62.1489 273.604C65.5417 274.487 68.8854 275.568 72.1635 276.843C77.5912 279.034 82.7934 281.792 87.6896 285.076C89.5932 286.19 91.2251 283.088 89.2732 281.974C81.162 276.558 72.2523 272.568 62.9065 270.168C60.7758 269.607 59.9946 273.069 62.1489 273.604Z" fill="#452D34"/>
<path d="M61.0169 297.133C65.0222 297.972 68.9544 299.162 72.7715 300.689C76.1992 302.057 79.5211 303.7 82.7068 305.603C83.1021 305.825 83.5645 305.876 83.9937 305.747C84.4229 305.617 84.7842 305.317 84.9993 304.911C86.989 300.703 65.1814 294.308 61.7978 293.671C59.6685 293.161 58.8628 296.598 61.0169 297.133Z" fill="#452D34"/>
<path d="M66.9518 321.355C68.8662 321.215 70.7897 321.238 72.7029 321.424C75.1584 321.745 77.5714 322.364 79.8928 323.265C81.5413 323.953 83.1309 324.784 84.6449 325.751C86.5733 326.89 88.204 323.737 86.2768 322.648C81.7102 319.746 76.5249 318.072 71.1943 317.779C69.2979 317.939 65.4692 316.81 65.2259 319.638C65.2725 320.561 66.0159 321.447 66.9518 321.355Z" fill="#452D34"/>
<path d="M72.5333 855.253C72.2716 854.993 72.1196 854.636 72.1104 854.262C72.101 853.887 72.2357 853.525 72.4841 853.256L94.6993 829.165C94.948 828.896 95.2902 828.741 95.6511 828.734C96.0119 828.727 96.3614 828.87 96.6231 829.13C96.8846 829.39 97.0368 829.747 97.0458 830.121C97.055 830.496 96.9205 830.858 96.6719 831.128L74.4567 855.218C74.2082 855.487 73.8658 855.643 73.5052 855.649C73.1445 855.656 72.7948 855.513 72.5333 855.253Z" fill="#CE9C5C"/>
<path d="M65.7444 845.236C65.5165 845.014 65.3724 844.716 65.339 844.394C65.3001 844.024 65.4032 843.655 65.6258 843.365C65.8484 843.076 66.1725 842.89 66.5279 842.848L102.156 838.921C102.515 838.885 102.875 838.999 103.156 839.237C103.437 839.475 103.616 839.819 103.654 840.193C103.692 840.566 103.586 840.939 103.358 841.229C103.131 841.519 102.801 841.703 102.441 841.739L66.8368 845.641C66.6382 845.658 66.4378 845.631 66.2492 845.561C66.0607 845.491 65.8885 845.38 65.7444 845.236Z" fill="#CE9C5C"/>
<path d="M84.0259 861.913C83.8957 861.785 83.7921 861.631 83.7218 861.46C83.6514 861.29 83.6155 861.106 83.6168 860.921L82.6803 823.691C82.6748 823.321 82.8092 822.965 83.0546 822.699C83.2999 822.433 83.6366 822.279 83.9925 822.268C84.1729 822.263 84.3525 822.296 84.5212 822.364C84.6898 822.432 84.8441 822.534 84.9748 822.664C85.1057 822.794 85.2105 822.95 85.2831 823.122C85.3556 823.294 85.3948 823.479 85.398 823.666L86.3099 860.872C86.3156 861.241 86.1812 861.597 85.9358 861.863C85.6904 862.13 85.3536 862.284 84.9976 862.295C84.8199 862.302 84.6422 862.271 84.4753 862.206C84.3084 862.14 84.1554 862.041 84.0259 861.913Z" fill="#CE9C5C"/>
<path d="M95.3272 854.835L71.9516 831.582C71.6899 831.322 71.5379 830.965 71.5287 830.59C71.5197 830.216 71.654 829.854 71.9026 829.584C72.1511 829.315 72.4937 829.16 72.8544 829.153C73.2151 829.146 73.5646 829.289 73.8262 829.549L97.2019 852.802C97.4635 853.062 97.6156 853.419 97.625 853.793C97.6339 854.168 97.4995 854.53 97.251 854.799C97.0024 855.069 96.6599 855.224 96.2993 855.231C95.9384 855.238 95.5889 855.095 95.3272 854.835Z" fill="#CE9C5C"/>
<path d="M339.199 754.97C344.179 749.207 349.176 742.971 350.697 735.374C352.22 727.776 349.861 719.875 344.239 715.257C338.616 710.64 329.687 710.478 324.569 715.619L324.336 715.872C326.627 716.156 329.464 717.127 333.071 718.958C342.84 723.902 346.719 736.919 341.589 748.481C336.459 760.042 324.349 765.535 314.538 760.795C304.726 756.052 297.825 746.312 310.305 732.369C311.445 730.993 312.358 729.432 313.008 727.746C313.008 727.746 316.821 717.511 302.636 716.846C298.7 716.623 294.817 717.797 291.627 720.17C288.68 722.389 286.192 725.194 284.299 728.423C282.523 731.528 281.074 735.204 277.937 736.808C276.512 737.536 274.812 737.841 273.782 739.06C273.198 739.745 272.97 741.223 272.852 742.374C272.782 743.268 272.844 744.167 273.039 745.042C274.713 751.841 276.659 758.549 278.874 765.17C281.206 772.073 281.937 786.149 288.545 788.726C292.259 790.182 299.018 783.261 302.868 782.269C317.568 778.376 329.044 766.698 339.199 754.97Z" fill="#D13535"/>
<path d="M103.551 588.676C102.98 598.728 96.613 606.966 92.4255 615.659C82.1771 635.283 75.2374 656.445 69.0007 677.768C62.414 701.472 46.326 710.611 45.5282 736.956L45.1901 740.858C45.2226 743.081 48.6379 743.118 48.6069 740.796C49.2739 720.948 55.0167 712.774 64.8268 696.904C72.6026 682.424 75.4683 665.833 81.1765 650.466C86.8867 635.097 93.6196 620.26 101.451 606.025C104.277 600.654 106.782 594.862 106.966 588.612C106.887 586.391 103.519 586.352 103.551 588.676Z" fill="#452D34"/>
<path d="M78.364 640.699C82.3351 624.038 59.8257 619.481 56.1261 635.336C54.5895 650.229 72.8594 653.641 78.364 640.699ZM68.2396 629.069C69.6097 629.019 71.9894 629.925 72.3593 630.293C72.766 630.6 73.1309 630.963 73.4442 631.372L73.2963 631.225C74.0932 632.321 74.6802 633.565 75.0227 634.89C72.9946 634.577 70.9365 636.04 68.9005 636.35C68.3806 633.882 67.6534 631.462 66.7257 629.122C67.2311 629.087 67.7347 629.053 68.2396 629.069ZM59.3857 636.825C59.5233 635.294 60.0421 633.83 60.8934 632.576C61.1022 632.298 60.8466 632.626 60.8478 632.676C61.3094 632.022 61.8527 631.433 62.4641 630.924C61.9442 631.334 63.2904 630.284 63.5292 630.23C64.4162 632.477 65.1238 634.796 65.6483 637.16C63.5911 637.648 61.5076 638.061 59.4237 638.373C59.3629 637.859 59.3504 637.341 59.3857 636.825ZM66.1118 645.322L66.087 645.297C63.7722 645.039 61.5101 643.032 60.7303 641.673C62.6006 641.388 64.4432 641.03 66.2865 640.621C66.5166 642.166 66.556 643.763 66.6667 645.335L66.2331 645.292C66.2579 645.317 66.2591 645.367 66.1118 645.322ZM72.6675 642.826C71.8536 643.523 70.954 644.102 69.9916 644.549C69.9289 642.977 69.7934 641.38 69.5866 639.81C71.5441 639.174 73.6514 638.838 75.5038 637.854L75.4933 638.378L75.4687 638.354C75.3953 638.762 75.2921 639.166 75.1616 639.558L75.229 639.382C74.6711 640.739 73.7882 641.925 72.6675 642.826Z" fill="#D13535"/>
<path d="M66.2026 645.315C66.181 645.305 66.1573 645.3 66.1343 645.3C66.1092 645.302 66.0873 645.307 66.0668 645.317L66.2026 645.315Z" fill="#D13535"/>
<path d="M54.8282 695.341C59.1408 681.898 38.464 677.455 33.584 688.387C28.7494 703.165 49.299 707.335 54.8282 695.341ZM52.0122 691.422C52.0468 691.837 52.0578 692.253 52.0444 692.669L52.0405 692.519C52.021 692.962 51.9264 693.394 51.7594 693.799C51.6912 694.026 50.8609 695.439 51.2075 694.909C50.7882 695.492 50.2995 696.022 49.7549 696.485C48.7688 697.293 47.6535 697.913 46.457 698.318L45.9835 692.782C47.9383 692.046 49.8451 691.311 51.7754 690.551L52.0122 691.422ZM47.4331 686.135C48.1551 686.391 48.8368 686.757 49.457 687.221L49.8023 687.564C48.3953 688.116 46.99 688.666 45.5602 689.191L45.1434 686.003C45.2418 685.939 45.3279 685.862 45.4038 685.772C46.0943 685.778 46.7791 685.901 47.4331 686.135ZM36.2373 691.662C36.4551 688.708 38.9963 686.414 41.7804 686.163C41.9833 687.584 42.1863 689.004 42.341 690.426L36.2176 692.76L36.2373 691.662ZM42.3326 698.843C40.4259 698.655 38.4337 697.79 37.3812 696.112C39.1455 695.429 40.9309 694.724 42.7195 694.065L43.1257 698.854L42.3326 698.843Z" fill="#D13535"/>
<path d="M191.98 490.425L199.171 499.186L199.048 499.063C199.428 499.589 199.771 500.142 200.074 500.718C200.2 500.941 199.945 500.346 200.1 500.793L200.336 501.563C200.409 502.099 200.374 502.644 200.23 503.164C200.21 503.289 200.08 503.891 200.189 503.414C200.041 503.799 199.848 504.163 199.614 504.499C200.011 504.017 199.17 505.032 199.028 505.134C198.886 505.237 199.311 504.929 199.098 505.058C198.885 505.187 197.865 505.78 198.411 505.495C198.166 505.627 197.899 505.709 197.623 505.735C197.528 505.786 197.171 505.918 197.576 505.786C197.178 505.843 196.775 505.85 196.374 505.807C196.422 505.807 196.785 505.875 196.47 505.806C196.184 505.756 195.901 505.686 195.623 505.596C193.509 503.737 190.855 506.358 193.186 508.239C198.522 511.988 205.781 505.859 203.297 499.685C201.119 495.228 197.212 491.878 194.3 487.909C192.768 486.288 190.377 488.83 191.98 490.425Z" fill="#452D34"/>
<path d="M178.007 517.011C173.118 514.827 167.281 509.264 164.545 504.642C164.457 504.481 164.325 504.351 164.165 504.268C164.006 504.186 163.826 504.155 163.65 504.179C163.474 504.204 163.31 504.284 163.179 504.407C163.047 504.531 162.956 504.693 162.915 504.872C161.701 509.316 159.465 519.175 162.315 522.595C165.165 526.015 173.746 521.785 178.137 519.382C178.35 519.266 178.525 519.089 178.644 518.873C178.761 518.656 178.817 518.408 178.803 518.159C178.789 517.909 178.707 517.668 178.566 517.465C178.425 517.262 178.231 517.104 178.007 517.011Z" fill="#452D34"/>
<path d="M172.533 481.164C173.854 482.478 175.943 482.44 177.198 481.079C178.454 479.717 178.4 477.548 177.08 476.234C175.759 474.92 173.67 474.959 172.414 476.32C171.159 477.681 171.212 479.85 172.533 481.164Z" fill="#452D34"/>
<path d="M201.85 486.747C203.171 488.061 205.259 488.022 206.514 486.661C207.77 485.3 207.717 483.131 206.396 481.817C205.075 480.503 202.986 480.541 201.731 481.902C200.475 483.264 200.529 485.433 201.85 486.747Z" fill="#452D34"/>
<path d="M178.971 463.309C177.118 462.294 168.378 467.875 166.09 471.689C165.822 471.881 165.622 472.159 165.521 472.481C165.421 472.804 165.424 473.152 165.532 473.473C165.595 473.705 165.699 473.923 165.837 474.117L165.985 474.264C166.266 474.521 166.615 474.684 166.985 474.731C167.356 474.778 167.731 474.706 168.06 474.526C171.057 474.096 175.851 471.46 177.357 471.058C181.343 469.76 183.412 465.875 178.971 463.309Z" fill="#452D34"/>
<path d="M213.708 481.782C213.78 481.493 213.771 481.188 213.683 480.902C213.595 480.616 213.432 480.362 213.212 480.167C210.402 476.447 206.858 472.19 202.516 470.746C202.147 470.62 201.756 470.585 201.373 470.644C200.99 470.703 200.626 470.855 200.311 471.086C193.143 476.039 207.338 481 211.26 483.001C211.629 483.213 212.059 483.276 212.467 483.179C212.795 483.123 213.095 482.956 213.32 482.703C213.545 482.45 213.681 482.126 213.708 481.782Z" fill="#452D34"/>
<path d="M123.895 478.384L123.918 478.407C123.94 478.383 123.895 478.384 123.895 478.384Z" fill="#452D34"/>
<path d="M122.284 462.495C122.329 462.495 122.373 462.447 122.418 462.447C122.463 462.446 122.373 462.447 122.284 462.495Z" fill="#452D34"/>
<path d="M153.805 409.138C156.425 411.013 158.818 408.521 156.509 406.565C153.198 404.894 149.463 404.375 145.863 405.087C143.105 406.387 145.484 409.241 147.076 408.437C149.337 408.124 151.641 408.364 153.805 409.138Z" fill="#452D34"/>
<path d="M148.149 645.564C155.299 633.968 154.611 617.691 146.451 606.7L145.18 604.849L146.918 605.116C150.795 605.56 154.705 605.486 158.557 604.904C161.675 604.484 164.726 603.655 167.638 602.439C170.471 601.213 173.051 599.492 175.655 597.794C177.643 596.46 179.656 595.146 181.323 593.445C183.405 591.272 184.908 588.573 185.679 585.607C186.45 582.641 186.463 579.512 185.718 576.524C184.843 573.119 182.978 569.706 183.833 566.317C184.689 562.93 188.148 560.819 189.367 557.497C190.584 554.178 189.013 549.985 186.1 547.915C183.185 545.846 179.262 545.692 175.998 546.976C174.567 547.553 173.241 548.376 171.785 548.878C169.663 549.642 167.381 549.757 165.118 549.7C153.952 549.444 143.081 545.768 133.874 539.131C128.388 535.135 123.424 529.906 121.289 523.3C120.483 520.842 120.007 518.077 118.113 516.388C117.057 515.483 115.673 514.985 114.709 513.928C113.744 512.872 113.632 512.173 113.152 511.259C112.689 510.377 112.136 509.551 111.503 508.792C106.842 503.131 98.7849 502.23 92.8712 506.336C88.7556 509.21 83.0976 513.909 82.2494 518.572C81.8479 520.853 81.7912 523.375 80.2677 525.078C78.7461 526.78 76.8284 527.014 75.3446 528.315C72.5433 530.84 72.991 535.379 73.6861 539.188C74.2153 542.152 74.7457 545.165 75.4921 548.098L73.263 547.439C67.1267 548.352 60.921 548.365 54.7809 549.128C48.6408 549.89 42.4498 551.477 37.3923 555.167C34.911 556.986 32.5729 559.778 32.9632 562.944C33.1117 564.116 33.6683 565.204 34.1769 566.293C39.0078 575.973 44.1637 586.07 52.8995 592.079C53.9564 592.871 55.1239 593.49 56.3603 593.914C58.3012 594.578 60.3917 594.516 62.4063 594.228C71.1332 593.018 78.879 588.156 86.3657 583.421C88.5674 582.008 90.7723 580.642 92.9504 579.254L94.8741 578.245C99.8035 583.225 105.299 587.562 111.238 591.158L109.542 592.69C104.727 598.423 104.694 606.867 104.905 614.482C105.116 622.097 105.329 628.889 107.232 635.798C108.073 638.85 109.243 641.795 110.719 644.579C110.994 645.205 111.394 645.768 111.891 646.23C112.648 646.789 113.637 646.898 114.577 646.955L141.854 648.752C143.06 648.83 144.287 648.884 145.38 648.414C146.478 647.943 147.431 646.701 148.149 645.564Z" fill="#CE9C5C"/>
<path d="M118.629 626.72L118.703 626.793L118.73 626.918C118.746 626.593 118.709 627.043 118.709 627.043C118.709 627.043 118.77 626.618 118.73 626.918C118.69 627.218 118.935 626.49 118.776 626.817C118.616 627.144 118.777 626.867 118.824 626.816C118.87 626.766 118.872 626.815 118.776 626.817C118.68 626.819 119.323 626.531 118.94 626.69C120.344 626.288 121.83 626.313 123.225 626.761C122.76 626.444 123.59 626.979 123.688 627.027C123.785 627.076 123.466 626.807 123.638 626.978L123.836 627.175C126.33 632.724 130.463 631.573 133.684 627.518C133.472 627.646 133.871 627.315 133.684 627.518C133.879 627.367 134.085 627.228 134.3 627.106C134.607 626.926 134.036 627.188 134.252 627.107C134.454 627.041 134.663 626.985 134.872 626.946L135.086 626.867C135.278 626.812 134.727 626.899 135.015 626.893C135.33 626.871 135.642 626.874 135.954 626.901C136.169 626.872 135.641 626.832 135.857 626.853C136.168 626.908 136.474 626.985 136.776 627.087C136.849 627.111 137.115 627.129 136.849 627.111C136.585 627.091 137.067 627.182 137.116 627.231L137.68 627.594C137.973 627.788 137.632 627.595 137.631 627.545C138.322 628.232 138.267 628.032 138.697 628.949C140.968 634.228 145.662 630.42 147.882 628.681C147.976 628.58 148.287 628.549 148.406 628.522C148.527 628.493 148.046 628.504 148.431 628.547C148.817 628.587 148.841 628.562 148.576 628.542C148.31 628.524 148.624 628.541 148.672 628.54C148.72 628.539 148.723 628.639 148.648 628.516L149.209 628.831C149.137 628.808 148.937 628.56 149.112 628.783C149.285 629.004 149.408 629.126 149.16 628.782C148.91 628.436 149.464 629.424 149.385 629.152L149.434 629.201C149.386 629.202 149.515 629.577 149.434 629.201C149.482 629.2 149.455 630.051 149.489 629.499C149.618 628.805 149.479 628.083 149.102 627.49C148.726 626.893 148.142 626.474 147.474 626.316C146.807 626.162 146.11 626.283 145.53 626.653C144.953 627.022 144.536 627.615 144.375 628.301C144.209 628.987 144.311 629.716 144.66 630.33C145.005 630.945 145.568 631.395 146.226 631.589C146.883 631.78 147.586 631.699 148.186 631.36C148.781 631.021 149.227 630.452 149.424 629.778C149.404 629.863 149.373 629.949 149.334 630.029C149.175 630.355 149.544 629.751 149.311 630.054C147.788 631.705 150.278 634.182 151.776 632.506C155.61 626.964 148.399 622.276 144.281 626.997C144.257 627.023 143.902 627.305 144.162 627.126C144.423 626.945 144.02 627.228 143.974 627.279C143.927 627.33 142.577 628.129 143.122 627.845C142.871 627.964 142.607 628.045 142.334 628.081C142.383 628.13 142.695 628.052 142.357 628.056L142.116 628.063C141.851 628.042 142.212 628.009 142.212 628.061L142.019 628.015C141.657 627.946 142.285 628.134 142.091 628.038C141.897 627.942 142.161 627.962 142.165 628.111L142.017 627.965C142.343 628.434 141.866 627.669 141.841 627.542C139.483 621.69 132.26 622.498 129.433 626.896C129.231 627.056 129.019 627.201 128.796 627.331C128.534 627.463 128.797 627.381 128.82 627.306C128.842 627.231 128.461 627.439 128.365 627.441C128.269 627.443 128.606 627.487 128.413 627.44C128.22 627.394 127.98 627.398 128.269 627.443C128.558 627.487 128.172 627.395 128.149 627.42C128.125 627.446 128.243 627.369 128.221 627.444L128.002 627.323L128.125 627.446C128.052 627.372 127.584 626.955 127.954 627.324C126.216 621.21 113.389 621.021 115.761 628.446C116.867 630.425 119.805 628.623 118.676 626.669L118.629 626.72Z" fill="#D13535"/>
<path d="M48.686 554.608C48.1856 554.843 48.7108 554.633 48.8301 554.606C48.9496 554.579 49.1886 554.525 48.9017 554.58C48.6147 554.635 48.9017 554.58 48.9742 554.603L49.4312 554.621C48.7328 554.558 49.696 554.641 49.8427 554.739L49.6972 554.691L50.5518 555.148C49.9665 554.809 50.6012 555.198 50.7011 555.346C50.8011 555.494 51.1009 555.938 50.7985 555.394L51.2247 556.162C50.9243 555.616 51.2987 556.236 51.2792 556.41C51.2597 556.585 51.2722 556.059 51.252 556.286C51.2337 556.511 51.2557 557.359 51.2869 556.71C49.1522 562.87 51.5231 565.374 56.8137 565.276C57.1707 565.308 57.5217 565.394 57.8553 565.531C57.1966 565.22 58.4393 565.821 58.5147 565.944C58.0488 565.578 58.8092 566.188 58.9337 566.361C59.0583 566.533 59.2568 566.78 59.0337 566.509C58.8106 566.238 59.0583 566.533 59.0831 566.558C59.282 566.853 59.4517 567.168 59.586 567.5C59.6872 567.697 59.5392 567.55 59.5587 567.375C59.5802 567.198 59.818 568.119 59.8518 568.493C59.8855 568.866 59.7804 568.519 59.8725 568.368L59.8978 569.417C59.8224 569.294 59.9121 569.043 59.873 569.392C59.8373 569.632 59.7797 569.866 59.6991 570.094L59.7887 569.843C57.2 573.163 59.7557 577.312 63.5626 577.593C64.8431 577.794 65.4661 577.734 66.7529 578.184C66.2183 577.943 67.0931 578.328 67.1437 578.427L67.4887 578.77C67.0411 578.179 67.7145 579.14 67.6678 579.191L67.5899 578.968C67.7233 579.303 67.8123 579.654 67.8553 580.013C67.8807 580.528 67.8766 581.046 67.8452 581.562L67.8881 581.362C67.766 582.212 67.594 583.065 67.3972 583.894C66.8257 586.102 70.1912 586.964 70.69 584.732C72.5036 579.228 70.2367 574.098 64.7306 574.225C63.4995 574.073 63.3308 574.051 62.5003 573.516L62.1057 573.124C62.3497 573.269 62.2808 573.395 62.1796 573.197L62.0538 572.975C62.2004 573.072 62.1835 573.347 62.0797 573.049L62.0266 572.851L62.0811 573.099C62.0551 573.025 62.0772 572.949 62.0758 572.899C65.267 568.568 61.9524 560.934 54.9678 561.638L55.1601 561.635C54.8937 561.621 54.6259 561.586 54.3643 561.524L54.1463 561.453C54.1696 561.428 54.511 561.621 54.1696 561.428C53.8282 561.234 53.6569 561.112 54.0971 561.404L53.949 561.257C53.7025 561.011 54.0465 561.305 54.0231 561.33L53.8477 561.059C53.9932 561.106 53.953 561.406 53.9231 561.182C53.8933 560.958 53.8933 560.958 53.8439 560.909C53.7947 560.86 53.8764 561.233 53.8699 560.984C53.8634 560.734 54.2355 559.254 54.4985 558.2C55.7855 553.78 50.9188 549.521 46.9519 551.567C45.054 552.651 46.8129 555.717 48.7094 554.583L48.686 554.608Z" fill="#D13535"/>
<path d="M100.651 518.456C101.713 517.561 103.874 517.473 105.261 518.071C105.794 518.301 106.303 518.593 106.773 518.943L106.699 518.869C107.377 519.414 107.99 520.04 108.525 520.734C111.382 524.455 112.149 531.21 114.914 536.005C123.786 548.583 138.78 564.571 153.009 569.904C159.587 572.358 168.787 568.841 168.998 560.768C168.89 558.271 165.316 558.712 165.59 561.131C165.591 561.079 165.633 560.829 165.567 561.156C165.513 561.617 165.411 562.07 165.264 562.511C165.131 562.962 165.402 562.207 165.243 562.636C165.045 563.075 164.814 563.497 164.553 563.897C164.508 563.997 164.44 564.173 164.623 563.821C163.395 565.716 160.919 566.812 159.241 567.042C158.292 567.163 157.333 567.172 156.379 567.07C151.89 566.503 146.514 563.054 142.25 559.885C134.572 553.856 126.818 545.705 120.227 537.832C119.384 536.848 117.105 533.168 116.666 531.901C114.264 524.2 110.557 511.354 100.343 514.688C96.1634 515.94 97.6916 520.383 100.651 518.456Z" fill="white"/>
<path d="M146.29 576.524C144.871 576.525 142.221 576.323 141.4 576.239C136.811 575.71 132.304 574.567 127.989 572.838C124.713 571.623 118.809 568.285 116.061 566.086C108.537 560.455 102.292 552 98.8894 543.745C97.8415 541.241 96.6219 537.591 96.2322 535.45C96.1073 534.253 96.0787 534.078 96.4947 533.371C96.5624 533.195 96.4027 533.522 96.3793 533.547C96.356 533.573 96.5648 533.295 96.5882 533.269L96.7518 533.092C96.7284 533.117 96.4207 533.297 96.587 533.22C96.6969 533.155 96.801 533.076 96.8934 532.99C96.6077 533.094 97.1315 532.834 96.8934 532.99L97.1821 532.933C97.1134 533.059 96.844 532.941 97.0628 532.96C97.2796 532.981 97.1353 532.984 97.0862 532.935L97.2562 533.007C101.845 532.798 98.2078 526.694 94.1446 530.741C89.3795 536.524 99.2241 552.507 102.984 557.709C109.685 566.63 118.751 573.328 129.053 576.965C131.866 577.913 148.005 582.663 148.016 578.241C147.998 577.773 147.805 577.33 147.478 577.005C147.151 576.68 146.716 576.499 146.266 576.5L146.29 576.524Z" fill="white"/>
<path d="M447.63 527.709L447.475 527.787C447.48 527.78 447.487 527.776 447.497 527.774C447.504 527.774 447.512 527.778 447.52 527.786L447.63 527.709Z" fill="#452D34"/>
<path d="M300.109 756.186C302.899 757.471 305.57 759.018 308.089 760.811C308.824 761.348 309.99 760.901 310.381 760.12C311.631 757.124 303.746 754.398 301.74 753.083C299.737 751.771 298.158 755.123 300.109 756.186Z" fill="#452D34"/>
<path d="M445.915 528.329C446.003 528.278 445.98 528.253 445.758 528.357L445.915 528.329Z" fill="#452D34"/>
<path d="M113.027 465.045C111.813 463.593 111.499 461.575 111.428 459.653C110.976 449.069 116.16 438.782 123.933 431.994C131.705 425.206 141.821 421.773 151.974 420.862C162.128 419.951 172.402 417.065 182.368 419.33C196.327 422.496 210.827 426.202 220.409 437.292C221.448 438.472 225.4 441.672 225.4 441.672C224.946 430.014 219.019 414.91 214.926 409.864C211.973 406.195 203.029 398.566 196.002 396.497C192.44 395.438 172.259 388.664 163.275 388.254C159.615 388.072 155.953 387.889 152.306 388.256C145.735 388.913 139.437 391.251 133.973 395.063C128.628 398.808 124.253 403.86 119.331 408.172C110.265 416.157 98.6827 421.591 92.127 431.879C85.5712 442.167 83.1915 470.74 87.1431 470.966C97.8871 471.568 98.5237 479.85 98.5237 479.85C99.9743 479.199 105.838 477.967 107.53 477.261C107.53 477.261 109.137 467.315 113.101 465.118C113.125 465.093 113.052 465.069 113.027 465.045Z" fill="#D13535"/>
<path d="M345.196 712.164C339.513 709.972 332.541 711.024 328.125 715.45C326.433 718.006 329.788 719.492 331.321 717.216C332.108 716.61 332.957 716.098 333.857 715.698C345.502 710.861 355.574 722.293 354.129 734.058C351.472 749.298 337.32 760.849 326.957 770.856C320.291 776.699 312.795 779.959 304.897 782.577C302.047 784.078 299.549 786.225 296.624 787.603C296.6 787.628 296.552 787.629 296.529 787.654L296.482 787.705C295.986 787.932 295.465 788.101 294.931 788.207L294.764 788.235L294.666 788.239C294.473 788.24 294.28 788.227 294.088 788.197L293.87 788.127C293.518 787.975 293.184 787.788 292.871 787.57L292.723 787.423C292.328 787.103 291.963 786.74 291.637 786.343L291.514 786.221C287.109 779.308 287.178 769.34 283.78 761.182C282.133 755.892 280.607 750.573 279.37 745.2L279.321 745.151C279.327 745.145 279.331 745.137 279.329 745.126C279.33 745.116 279.326 745.108 279.32 745.102C279.267 744.579 279.262 744.052 279.305 743.528L279.346 743.229C279.407 742.719 279.509 742.217 279.647 741.722C279.695 741.584 279.758 741.448 279.829 741.32C287.041 738.215 287.436 735.734 291.758 728.486C295.622 723.167 303.423 716.603 309.593 720.939C311.181 722.033 312.185 724.688 311.991 725.665C311.961 725.971 311.902 726.273 311.824 726.567L311.755 726.794C307.625 733.941 302.37 740.406 297.825 747.286C296.765 749.253 299.766 750.97 300.824 748.954C305.374 742.176 310.435 735.712 314.642 728.738C317.565 722.391 311.266 715.635 305.045 716.026C295.194 716.555 288.949 725.74 284.552 733.889C284.077 734.562 283.527 735.176 282.914 735.717C283.196 735.463 282.796 735.794 282.773 735.819C282.421 736.085 282.049 736.318 281.66 736.514L281.636 736.49C277.927 737.384 276.377 739.883 276.098 743.261C275.408 743.55 274.722 743.936 274.072 744.023C257.567 745.877 238.432 745.454 222.806 744.915C214.88 694.349 206.065 639.975 175.856 597.989C186.498 592.498 195.954 583.73 191.747 570.144C191.038 567.731 189.849 565.382 190.05 562.804C190.495 559.348 195.047 556.568 195.916 552.754C197.651 546.002 192.322 540.604 186.359 539.739C187.021 539.277 187.683 538.816 188.343 538.254C195.406 532.953 200.802 525.409 205.037 517.588C206.501 516.462 214.536 496.829 219.311 481.603C219.515 481.773 219.756 481.89 220.014 481.942C220.271 481.994 220.536 481.979 220.785 481.9C233.664 479.316 239.038 462.979 234.035 451.23C233.32 449.604 232.493 448.033 231.562 446.529C231.744 446.359 231.887 446.149 231.981 445.914C232.075 445.679 232.117 445.425 232.106 445.17C231.244 426.675 227.117 403.568 208.732 395.512C193.964 388.713 163.456 380.68 148.23 386.68C139.33 389.667 132.596 396.61 125.923 403.078C119.249 409.546 110.698 414 103.684 420.324C94.5195 428.211 90.4923 440.576 89.3429 452.589C89.277 454.762 88.2924 463.674 88.8542 468.909C83.8424 467.628 78.5081 468.901 74.8998 472.814C69.3695 478.811 69.9754 488.766 76.2386 494.996C82.5016 501.226 92.1286 501.45 97.6588 495.453C100.917 491.921 102.025 487.079 101.164 482.373C103.045 481.564 107.831 479.604 110.642 478.452L111.19 478.216L111.287 480.265C109.711 484.64 108.367 489.635 111.261 493.879C113.014 496.695 114.915 499.708 118.125 500.124L118.355 500.644C118.325 500.715 118.318 500.793 118.337 500.868L118.186 502.621L118.068 503.621C117.755 503.197 117.415 502.794 117.051 502.416C111.953 496.615 102.888 495.781 96.7626 500.117C92.6729 503.065 88.3754 506.341 86.1103 511.104C85.0119 513.372 85.2788 516.414 84.1779 518.583C83.0748 520.753 79.2348 521.123 77.7833 523.671C76.3298 526.221 76.0192 529.224 76.3328 532.216C62.6576 525.872 67.4737 530.032 66.1362 508.822C65.4209 484.58 62.1514 459.615 58.2934 435.704C46.8538 401.881 -6.42112 335.546 18.5035 310.107C19.3483 309.242 -59.4476 259.912 7.85719 304.889C-57.4581 251.953 -8.72877 293.889 -8.64979 293.759C-3.58173 294.416 -81.3116 310.65 -77.4897 307.582C-70.4389 301.782 3.05615 302.94 16.0166 300.793C20.0167 295.174 8.93673 306.152 10.7519 298.75C13.8809 289 -58.9217 282.561 -69.0342 288.093C-68.4552 236.146 -81.3365 239.056 -69.0342 290.466C-73.5871 291.2 10.4509 276.106 10.7519 281.522C-95.6519 355.632 -19.6927 451.151 0.838634 584.692C-12.727 613.296 -28.1578 641.681 -45.7219 668.008C-47.0008 669.805 -44.5584 672.283 -43.2561 670.461C-25.644 645.056 -11.0435 617.534 3.75765 590.257C4.55218 589.144 5.06833 587.84 5.25805 586.462C5.44601 585.086 5.25803 579.954 5.25803 579.954C-6.12463 510.32 -52.7967 402.978 -48.4014 343.198C-45.9147 309.375 -29.6646 292.8 7.85719 304.889C12.6749 318.291 4.80177 301.296 15.4684 310.38C-36.5792 270.915 -28.2508 313.923 15.0224 309.926C-5.24884 331.857 20.3535 360.166 29.4457 388.38C29.1832 388.508 56.5594 432.816 56.3881 433.059C57.2987 434.211 51.8795 417.484 48.8433 419.29C46.9714 420.448 54.3144 436.698 55.144 438.202C52.9625 439.542 57.0393 437.018 55.144 438.202C55.4499 440.895 56.4423 444.125 56.4894 446.022C58.5019 459.425 60.2755 472.882 61.4475 486.376C62.6214 499.868 62.527 513.71 63.4368 527.283C64.646 531.458 69.3976 532.97 72.8966 534.353C74.3234 534.853 75.7065 535.48 77.031 536.227C77.3326 537.746 77.6841 539.261 77.9352 540.681L77.9649 540.905C66.5276 542.439 35.0142 541.545 36.218 559.209C39.7473 567.789 44.3577 576.221 50.3981 583.205C63.3447 600.08 82.325 586.316 95.756 577.802C96.6756 577.06 98.4411 576.428 99.1375 575.416C103.416 579.66 108.131 583.403 113.196 586.574L113.079 586.701C104.416 593.481 106.778 641.776 118.258 643.838C127.464 644.518 136.642 645.024 145.847 645.654C147.662 646.063 149.553 645.806 151.199 644.929C152.844 644.052 154.14 642.608 154.869 640.843C163.777 626.364 157.94 608.185 153.486 602.147C160.045 602.724 166.645 602.03 172.81 599.392C201.842 638.454 212.231 697.171 219.403 744.452C215.323 743.904 211.221 743.33 207.159 742.503C205.053 741.967 204.247 745.405 206.401 745.94C211.307 746.925 216.254 747.559 221.226 748.217C223.192 748.906 226.496 748.245 228.068 748.59C231.993 748.692 235.89 748.722 239.788 748.75C248.137 748.771 256.46 748.718 264.747 748.29C264.977 752.709 265.374 757.149 265.819 761.587C266.95 772.409 269.241 783.458 274.859 792.847C240.485 806.594 199.851 818.305 168.133 796.207C164.289 793.201 160.819 789.717 157.797 785.828C150.431 775.821 145.909 764.063 143.366 751.594C143.367 751.219 143.294 750.846 143.148 750.498C139.262 730.361 140.456 708.455 143.348 688.967L143.79 686.435C144.193 684.204 140.876 683.342 140.473 685.572C137.607 702.163 136.558 719.145 137.883 735.958C138.227 741.345 138.907 746.705 139.912 752.009C136.426 765.788 130.948 778.902 127.582 792.704C127.058 794.912 130.376 795.775 130.875 793.542C133.522 782.778 137.454 772.414 140.706 761.811C140.911 760.873 141.178 759.948 141.504 759.05C153.18 803.552 189.282 819.925 237.644 808.494C255.899 804.486 273.491 797.819 290.574 790.112C293.909 792.647 298.768 791.634 306.439 785.722C329.418 780.03 381.471 732.658 345.196 712.164ZM14.5248 311.357C9.73479 307.322 14.9501 303.091 11.4971 297.658C8.75151 293.527 -86.4831 308.484 -88.4319 303.894C-89.1074 302.833 -85.1236 295.503 -85.9434 294.444C-81.4521 292.188 -63.7991 280.769 -59.2795 278.687C-56.829 291.308 2.18098 302.16 11.5414 310.107C1.8651 300.35 17.854 307.815 14.5248 311.357ZM10.7519 298.75C-6.08106 292.856 -94.1934 274.217 18.5035 313.47L11.5414 306.381C2.07283 297.937 -39.5748 312.291 -39.6907 298.728C-169.63 293.411 -89.8957 294.304 -90.4225 290.466C-94.3979 274.526 -48.4121 281.338 -32.7255 273.555C-28.81 271.36 -31.6026 265.936 -28.7473 268.581C-22.7366 273.342 -26.7864 270.511 -26.7584 278.53C-26.786 278.61 -47.1507 287.82 -47.1506 287.906C-47.3851 289.437 -64.0506 273.774 -64.5591 275.23C-65.6656 278.173 -58.5377 268.813 -60.0819 271.564C-60.1652 271.82 -57.933 289.259 -58.0931 289.471C-60.0615 293.527 -68.844 302.004 -70.029 306.381C-70.5522 308.589 -33.2236 308.614 -32.725 306.381C-32.3756 304.926 -15.4209 298.109 -15.1728 297.43C-175.241 294.469 14.0485 300.273 14.5248 298.116C14.6815 297.96 -36.5815 287.906 -17.0361 287.906C-32.4554 289.186 -61.2344 290.229 -60.0819 286.211C-59.8289 286.092 -64.7214 271.797 -64.5571 271.564L-85.9434 278.528C-85.222 277.54 -141.912 273.422 -54.9795 271.564C-132.452 270.638 -75.9839 296.924 -75.382 296.955L-25.7624 264.103C-24.2406 264.35 -119.527 274.682 -49.8934 271.564C-49.3711 271.986 -257.411 267.242 -64.5586 281.522L-26.7571 276.538C-24.7215 279.099 -5.67867 295.328 -5.86784 297.43C-6.96792 305.544 20.6459 294.337 16.0166 300.793C12.3105 305.632 -22.8109 278.912 -17.0361 287.906C-21.0642 293.351 10.9507 296.591 4.75297 296.955L10.7519 298.75ZM232.265 457.557C233.66 465.376 229.956 474.262 222.866 477.49C222.042 477.845 221.187 478.121 220.312 478.312C220.89 476.352 221.399 474.519 221.814 472.838C222.518 473.1 223.096 472.115 223.525 470.983C224.193 471.745 224.975 472.231 225.948 471.688C229.289 469.603 219.621 460.912 218.009 458.919C209.359 450.509 199.75 442.217 187.877 439.762C173.288 436.358 157.971 439.587 144.912 446.621C142.394 447.917 127.958 456.65 123.61 461.826C123.182 461.848 122.78 462.044 122.493 462.371L122.375 462.498L122.351 462.474L122.113 462.578L122.088 462.554L121.656 462.562L121.123 462.422C120.464 462.059 120.637 462.231 120.118 461.666C119.893 461.348 119.7 461.009 119.54 460.652C119.668 460.974 119.463 460.479 119.461 460.379C119.327 460 119.229 459.608 119.168 459.21C119.161 459.204 119.156 459.196 119.152 459.187C119.149 459.179 119.147 459.17 119.146 459.16C119.146 459.151 119.148 459.142 119.151 459.133C119.154 459.125 119.159 459.117 119.165 459.11C117.63 443.6 128.345 430.238 141.295 424.654C167.954 414.047 224.177 423.007 232.265 457.557ZM122.113 462.578C122.136 462.553 122.161 462.577 122.113 462.578V462.578ZM94.9685 492.68C90.8675 497.127 83.6206 496.886 78.837 492.127C74.0532 487.369 73.5332 479.884 77.6342 475.437C81.7352 470.99 88.9577 471.206 93.7415 475.965C98.5251 480.723 99.0928 488.207 94.9685 492.68ZM101.522 478.344C101.047 478.459 100.584 478.618 100.139 478.819C99.232 476.698 97.9338 474.779 96.3197 473.169C95.1765 472.016 93.8804 471.038 92.471 470.268C91.6567 455.668 92.6307 439.487 101.575 427.532C107.318 420.382 115.413 415.961 122.519 410.46C132.783 402.252 141.297 390.405 154.984 388.38C162.819 387.112 170.751 388.815 178.549 389.946C190.319 392.153 202.468 395.127 212.806 401.707C224.409 410.862 227.533 427.417 228.543 442.113C206.619 414.311 150.176 407.179 126.078 431.004C118.599 438.961 113.012 451.479 116.629 462.629L116.782 462.976C110.948 468.379 110.644 469.684 110.953 474.475C107.833 475.756 104.666 477.038 101.522 478.344ZM123.568 496.375C123.641 493.476 125.312 489.049 122.846 486.596C119.461 483.962 115.435 480.637 115.772 475.76C115.917 472.834 116.462 467.579 118.466 464.943C119.394 465.65 120.501 466.056 121.646 466.109C119.643 469.768 118.382 474.263 119.588 478.338C120.607 481.642 125.125 483.407 127.462 480.616C129.204 478.061 125.586 476.704 124.809 478.367C124.786 478.392 124.761 478.368 124.738 478.393C124.664 478.412 124.592 478.438 124.523 478.472L124.187 478.478C124.114 478.455 124.066 478.456 124.089 478.43C124.113 478.405 123.993 478.432 123.92 478.408L123.846 478.335L123.432 478.117L123.407 478.093C122.596 477.383 122.429 475.463 122.569 474.336C122.847 471.607 123.775 468.997 125.27 466.742C125.437 466.483 125.523 466.176 125.515 465.863C125.507 465.55 125.407 465.247 125.227 464.994C126.969 466.473 128.399 468.31 129.425 470.388C129.93 471.378 130.365 472.444 131.199 473.078C132.449 474.03 134.269 473.696 135.422 472.651C136.575 471.606 137.138 470.022 137.316 468.445C137.494 466.867 137.407 465.27 137.488 463.695C137.667 459.867 138.84 456.168 140.883 452.991C144.206 450.887 147.664 449.02 151.234 447.404C160.99 443.028 171.694 441.008 181.948 442.244C189.151 447.557 194.3 456.431 202.87 458.622C205.484 459.274 208.25 459.248 210.842 459.974C214.396 460.928 217.49 463.223 219.516 466.41C212.548 498.164 191.629 562.374 151.847 533.279C150.62 532.302 147.847 530.029 146.291 528.384C144.943 527.335 143.476 524.414 141.665 526.172C141.364 526.512 141.2 526.964 141.212 527.429C141.223 527.894 141.409 528.337 141.728 528.667C145.808 533.414 150.721 537.31 156.202 540.143C155.994 540.392 155.798 540.656 155.62 540.928C149.1 538.762 142.964 535.488 137.46 531.244C131.311 526.685 128.116 520.05 125.895 512.82C124.903 510.615 122.805 509.455 120.968 508.166L120.894 508.093C121.535 505.706 121.424 502.186 121.724 500.732C122.786 499.533 123.433 498.003 123.568 496.375ZM124.235 478.477L124.259 478.502C124.307 478.501 124.282 478.476 124.235 478.477ZM124.571 478.471C124.595 478.446 124.643 478.445 124.619 478.47C124.613 478.464 124.604 478.46 124.595 478.46C124.586 478.461 124.577 478.464 124.571 478.471ZM161.721 542.515L159.254 542.012C159.324 541.884 159.395 541.808 159.463 541.682C160.216 541.993 160.944 542.28 161.721 542.515ZM76.968 584.692C72.3742 586.649 67.9842 588.128 63.2382 587.84L63.0214 587.819C62.4358 587.726 61.862 587.577 61.3023 587.376L61.0843 587.305C59.7753 586.683 58.5379 585.91 57.3952 585C49.4486 578.852 43.2526 567.474 39.4119 558.001L39.4093 557.901L39.3894 557.052C39.4385 556.639 39.5429 556.233 39.6965 555.847C40.3665 554.465 41.3325 553.26 42.5202 552.324C45.9843 549.336 53.1416 546.958 58.0104 546.343C64.649 545.348 71.4121 545.448 78.0506 544.452C78.2637 544.457 78.4766 544.418 78.6744 544.34C81.5478 555.579 88.874 564.911 96.7691 573.012C90.4441 576.999 83.2032 581.878 76.968 584.692ZM153.522 609.491C154.236 611.026 155.441 615.1 155.768 617.668C156.515 622.601 156.142 629.004 154.133 634.411C153.893 635.289 151.76 639.6 151.082 640.437C150.834 640.817 150.543 641.167 150.218 641.476C150.01 641.686 149.77 641.86 149.509 641.99C149.274 642.075 149.033 642.144 148.791 642.202C138.871 641.836 126.607 640.936 117.95 640.171L117.731 640.051L117.434 639.755C113.242 632.614 112.007 624.417 111.609 616.03C111.371 608.291 110.538 600.838 112.963 593.748C113.231 592.893 114.675 589.994 115.545 589.154C115.768 588.915 115.927 588.619 116.005 588.296C120.712 591.047 125.621 593.404 130.683 595.346C136.696 598.259 143.201 600.588 149.843 601.689C149.79 602.07 149.77 602.454 149.775 602.84C151.277 604.892 152.535 607.128 153.522 609.491ZM172.884 595.571C172.784 595.59 172.689 595.625 172.599 595.676C159.912 601.178 145.492 598.871 131.83 592.103C117.005 586.546 103.844 577 93.6967 564.449C87.6122 557.615 82.8407 549.46 81.2905 540.221C80.9915 538.802 80.642 537.284 80.3637 535.74C80.414 535.527 80.4399 535.31 80.4431 535.091C80.4184 534.734 80.2843 534.394 80.0595 534.122C79.5842 531.459 79.4004 528.839 80.0458 526.703C80.2046 526.266 80.4116 525.853 80.6644 525.468C87.1214 520.928 87.4852 522.071 88.9975 513.049C89.6999 511.261 91.3291 509.084 93.1887 507.376C94.0229 506.112 96.8988 504.685 98.4008 503.159L98.4943 503.058C101.032 501.242 104.126 500.457 107.198 500.849C108.237 501.008 109.258 501.275 110.249 501.641C114.181 503.119 115.358 505.995 117.18 508.685C117.181 509.079 117.307 509.464 117.543 509.775C117.777 510.089 118.106 510.311 118.474 510.41C118.48 510.416 118.488 510.42 118.499 510.418C118.507 510.419 118.516 510.415 118.522 510.409C119.401 511.393 120.439 512.211 121.589 512.824C123.58 514.562 123.775 517.631 124.748 520.011C125.861 522.908 127.412 525.605 129.345 527.997C140.516 541.106 158.588 548.168 175.214 546.288C179.967 544.928 184.9 541.065 189.722 544.449L190.188 544.815C190.609 545.16 190.997 545.546 191.347 545.968L191.948 546.956L192.252 547.55C192.69 548.766 192.849 549.363 192.807 550.588C192.798 550.781 192.779 550.973 192.749 551.163L192.509 552.142C191.788 554.103 189.246 556.449 187.976 558.595C183.167 567.504 194.298 574.143 186.4 585.579C182.607 589.838 178.008 593.239 172.884 595.571ZM281.911 789.972C283.616 787.914 281.571 781.982 280.753 779.997C279.933 778.016 276.707 779.823 277.837 781.826C280.035 786.008 277.898 790.118 280.435 790.596C279.65 790.937 278.838 791.251 278.078 791.564C276.733 789.396 275.56 787.12 274.567 784.759C272.476 779.95 270.546 771.942 269.867 766.833C269.19 761.726 268.517 754.818 268.217 749.503C268.498 749.369 268.745 749.169 268.935 748.921C269.124 748.668 269.255 748.373 269.313 748.059C271.667 747.914 274.042 747.698 276.239 746.956C277.364 755.679 283.283 767.413 283.642 773.227C284.873 779.274 286.195 784.197 288.15 787.356C286.103 788.242 284.029 789.106 281.911 789.972Z" fill="#452D34"/>
<path d="M338.984 751.251C333.879 762.784 321.744 768.305 311.935 763.563C302.121 758.821 295.219 749.082 307.725 735.112C313.997 728.051 310.684 711.65 330.489 721.703C340.232 726.67 344.114 739.689 338.984 751.251Z" fill="#EFDCC4"/>
<path d="M306.589 757.617C304.097 755.138 302.512 752.294 301.91 749.258C300.831 743.557 303.183 737.419 308.896 731.02C310.466 729.266 311.388 726.677 312.338 724.16C313.778 720.187 315.29 716.089 319.266 714.44C322.77 713.051 327.409 713.917 333.864 717.172C339.077 719.822 342.924 724.622 344.684 730.659C346.445 736.699 345.909 743.279 343.265 749.273C340.596 755.294 336.069 759.998 330.547 762.497C325.029 764.996 318.97 765.057 313.734 762.53C311.111 761.309 308.698 759.65 306.589 757.617ZM336.479 723.717C335.23 722.477 333.797 721.449 332.243 720.672C326.956 717.996 323.038 717.119 320.656 718.062C318.273 719.007 317.096 722.076 315.811 725.57C314.774 728.437 313.666 731.38 311.655 733.668C306.785 739.102 304.719 744.112 305.597 748.54C306.673 754.092 312.119 757.465 315.283 759.005C319.52 761.074 324.426 761.036 329.043 758.952C333.853 756.667 337.692 752.649 339.854 747.637C343.731 738.922 342.151 729.358 336.479 723.717Z" fill="#452D34"/>
<path d="M824.606 547.343C791.63 415.937 824.773 184.41 903.4 147.123C982.027 109.836 1092.35 203.099 1125.33 334.505C1158.3 465.911 1146.81 603.836 1068.18 641.123C989.555 678.41 857.582 678.749 824.606 547.343Z" fill="#D6F9F7" fill-opacity="0.66"/>
<g clip-path="url(#clip1_418_11717)">
<path d="M780.678 679.365C742.091 667.207 740.589 601.967 740.944 601.977C742.496 601.847 753.385 583.321 762.993 574.475C749.7 577.627 737.664 584.57 728.563 595.157C728.762 613.739 734.746 630.669 736.638 635.244C737.977 638.495 738.595 641.999 738.449 645.513C738.303 649.026 737.397 652.467 735.793 655.596C724.547 677.512 722.771 705.982 744.114 721.958C744.114 721.958 776.198 709.149 776.384 708.875C776.57 708.602 773.042 691.822 774.392 690.848C781.289 690.167 785.683 690.073 785.683 690.073C785.683 690.073 784.345 685.616 780.678 679.365Z" fill="#452D34"/>
<path d="M844.449 601.406C841.394 596.796 810.027 575.823 785.121 572.81C785.759 573.534 786.289 574.345 786.697 575.219C800.733 604.523 820.949 600.618 820.902 670.126C820.862 712.48 845.615 700.413 842.051 737.662C836.365 796.365 922.005 794.186 936.405 763.638C957.473 719.027 913.796 661.316 870.704 641.232C850.583 631.842 845.107 616.601 844.449 601.406Z" fill="#452D34"/>
<path d="M884.862 659.728C885.904 660.52 886.923 661.288 887.938 662.106C889.842 662.874 892.401 668.102 895.094 666.305C898.46 663.288 880.278 651.038 884.862 659.728Z" fill="white"/>
<path d="M737.117 662.184C734.487 667.622 733.25 673.628 733.517 679.662C733.564 680.602 734.222 681.51 735.262 681.516C736.303 681.523 737.163 680.762 737.117 679.771C737.037 678.385 737.045 676.995 737.142 675.61L737.357 673.535L737.45 672.954C737.489 672.524 737.418 673.182 737.455 672.802L737.665 671.717C737.935 670.352 738.298 669.006 738.752 667.69L739.42 665.731L739.855 664.779C739.884 664.653 739.883 664.704 739.801 664.879L739.912 664.578L740.156 664.052C740.588 663.203 740.469 662.083 739.57 661.599C738.672 661.115 737.55 661.284 737.117 662.184Z" fill="white"/>
<path d="M733.206 689.905C732.767 690.986 732.551 692.145 732.57 693.311C732.577 693.951 732.634 694.589 732.741 695.22C732.872 695.861 733.065 696.487 733.318 697.09C733.489 697.399 733.744 697.649 734.056 697.813C734.369 697.977 734.721 698.045 735.07 698.009C735.421 697.975 735.752 697.836 736.025 697.615C736.297 697.391 736.499 697.094 736.603 696.759L736.691 696.329C736.71 696.018 736.641 695.708 736.49 695.435L736.444 695.281L736.609 695.718C736.382 695.091 736.231 694.439 736.16 693.775L736.197 694.234C736.128 693.54 736.15 692.842 736.26 692.154L736.195 692.609C736.286 692.034 736.43 691.469 736.627 690.922C736.76 690.471 736.711 689.987 736.49 689.573C736.386 689.36 736.236 689.172 736.053 689.022C735.869 688.871 735.655 688.763 735.425 688.703C734.975 688.57 734.491 688.619 734.076 688.84C733.672 689.084 733.365 689.46 733.206 689.905Z" fill="white"/>
<path d="M780.499 566.175C780.991 566.198 781.482 566.246 781.967 566.321C784.518 566.727 787.817 568.401 790.316 570.532C795.37 574.593 800.29 582.229 806.596 585.999C806.799 586.122 807.024 586.206 807.259 586.242C807.495 586.278 807.734 586.268 807.965 586.211C808.196 586.154 808.412 586.053 808.603 585.911C808.794 585.77 808.955 585.592 809.078 585.387C810.412 583.195 806.492 581.909 805.858 581.077C799.569 575.863 795.255 568.297 787.755 564.567C785.262 562.283 774.24 561.721 780.499 566.175Z" fill="white"/>
<path d="M813.301 591.758C819.872 595.13 825.947 588.131 817.952 588.956L818.386 588.892C817.586 588.99 816.774 588.975 815.976 588.845L816.431 588.909C813.814 587.334 809.842 589.446 813.301 591.758Z" fill="white"/>
<path d="M884.123 773.043C881.991 773.174 879.848 773.073 877.738 772.748C876.423 772.608 872.472 771.447 870.42 770.522C867.825 769.323 865.383 767.817 863.144 766.037C859.968 763.709 855.283 757.476 854.058 753.557C854.119 750.691 849.748 748.35 849.907 752.34C850.86 774.498 892.828 782.239 884.123 773.043Z" fill="white"/>
<path d="M847.169 730.38C846.743 731.094 846.61 731.946 846.794 732.756C846.904 733.292 846.966 733.776 847.052 734.286L846.963 733.825C847.101 735.015 847.073 736.219 846.881 737.402L846.946 736.947C846.606 738.104 846.533 739.701 847.967 740.074C853.404 740.721 849.941 725.998 847.169 730.38Z" fill="white"/>
<path d="M838.781 543.881C849.464 557.325 858.549 597.596 849.733 604.61C847.232 600.019 810.656 572.62 784.779 573.182C765.454 573.636 747.496 574.971 734.921 589.664L733.93 589.711C729.712 569.788 740.946 554.09 756.987 541.455C758.338 540.431 760.035 537.995 761.724 535.076C768.444 523.715 778.511 514.704 790.547 509.277C813.728 498.788 846.201 483.2 843.853 464.375C850.679 471.153 855.917 478.292 857.815 487.737C859.711 497.185 860.494 509.059 853.489 520.777C845.979 533.313 836.29 540.709 838.781 543.881Z" fill="#D13535"/>
<path d="M842.826 602.246C842.836 602.295 842.857 602.338 842.887 602.378C842.914 602.42 842.954 602.453 842.996 602.477C842.951 602.392 842.895 602.311 842.826 602.246Z" fill="#452D34"/>
<path d="M829.555 447.929C826.299 454.098 829.104 462.887 835.914 465.098C831.603 491.816 792.802 499.321 773.287 512.714C763.504 519.016 756.972 528.562 750.819 538.147C734.694 551.058 722.709 571.404 725.949 592.641C726.093 594.574 727.063 598.588 729.609 596.635C762.557 559.515 810.061 574.658 842.826 602.246C842.829 602.144 842.973 602.452 843.022 602.504C843.159 602.738 843.351 602.937 843.576 603.089C843.801 603.24 844.057 603.339 844.326 603.378C844.594 603.419 844.867 603.399 845.126 603.317C845.387 603.237 845.625 603.104 845.826 602.919C856.549 590.657 843.099 553.858 833.867 541.955C833.941 541.984 834.058 542.317 834.014 542.112C841.75 528.82 856.316 516.293 854.671 498.529C854.173 485.648 852.596 479.053 843.147 466.764C851.83 466.621 860.227 458.323 857.51 449.156C853.975 436.029 834.664 435.977 829.555 447.929ZM833.941 541.984C833.935 541.977 833.931 541.968 833.932 541.957C833.932 541.948 833.935 541.94 833.942 541.934L833.941 541.984ZM847.935 514.821C845.206 521.134 840.698 526.657 836.4 531.984C829.848 538.89 829.808 542.721 831.108 544.207C840.848 559.474 849.541 581.638 844.447 598.994C813.49 571.233 760.821 557.306 729.409 591.503C726.762 572.465 737.41 553.527 752.125 541.943C754.782 539.688 756.356 536.285 758.171 533.395C762.208 527.087 767.343 521.554 773.332 517.056C791.45 503.697 835.358 493.505 839.112 467.606C850.714 479.987 854.502 499.033 847.935 514.821ZM852.55 447.026C856.615 451.87 853.333 460.526 847.19 462.317L847.163 462.343C846.932 462.413 847.009 462.389 847.113 462.34C840.261 464.849 830.521 460.518 831.828 452.489C833.265 442.763 846.861 438.783 852.55 447.026Z" fill="#452D34"/>
<path d="M750.583 552.706C753.238 552.178 755.915 551.727 758.591 551.376L760.605 551.106L761.547 551.008L762.03 550.947C762.08 550.949 762.387 550.906 762.132 550.95C761.877 550.993 762.234 550.953 762.283 550.955L766.304 550.619C771.714 550.309 777.137 550.355 782.54 550.757C785.225 550.94 787.906 551.224 790.611 551.584C791.243 551.68 791.901 551.75 792.557 551.871C792.89 551.898 793.217 551.952 793.542 552.028C793.745 552.034 793.467 551.999 793.467 551.999L793.717 552.059L794.274 552.127C795.613 552.344 796.949 552.614 798.263 552.855C803.588 553.909 808.849 555.255 814.027 556.886C819.212 558.538 824.306 560.471 829.282 562.677C829.005 562.542 829.23 562.676 829.381 562.731C829.537 562.788 829.688 562.861 829.83 562.949L830.808 563.358C831.658 563.79 832.753 563.695 833.263 562.772C833.772 561.849 833.602 560.728 832.676 560.319C827.585 557.99 822.379 555.918 817.08 554.111C811.882 552.396 806.597 550.957 801.248 549.799C795.775 548.655 790.243 547.826 784.676 547.318C779.237 546.828 773.773 546.705 768.318 546.95C762.778 547.183 757.264 547.813 751.816 548.837L749.801 549.206C749.566 549.255 749.346 549.348 749.149 549.483C748.952 549.618 748.785 549.789 748.654 549.99C748.526 550.189 748.437 550.414 748.396 550.647C748.353 550.882 748.358 551.123 748.41 551.355C748.463 551.587 748.56 551.807 748.698 552.001C748.835 552.196 749.01 552.361 749.214 552.485C749.415 552.612 749.641 552.696 749.875 552.735C750.111 552.772 750.351 552.762 750.583 552.706Z" fill="white"/>
<path d="M774.313 695.946C774.592 697.603 774.746 699.232 774.923 700.886C775.204 703.383 775.509 705.905 775.864 708.376C776.221 710.849 776.465 712.835 776.984 715.009C777.218 716.001 777.565 716.967 778.012 717.881C778.34 718.45 778.714 718.987 779.132 719.49C779.431 719.912 779.757 720.311 780.11 720.686C781.039 721.649 782.059 722.522 783.152 723.29C785.085 724.577 787.191 725.581 789.407 726.272C790.634 726.65 791.89 726.917 793.163 727.07C795.417 727.354 797.693 727.424 799.958 727.276C806.359 726.96 812.686 725.777 818.769 723.76C825.588 721.479 832.26 718.257 837.56 713.315L839.182 711.689C840.033 710.865 840.529 709.742 840.572 708.56C840.61 707.375 840.178 706.221 839.374 705.35C838.535 704.564 837.438 703.921 836.245 703.962C835.051 704.003 833.85 704.296 833.035 705.158C831.513 706.772 829.837 708.235 828.031 709.524L829.017 708.845C825.481 711.304 821.642 713.294 817.594 714.765L818.673 714.342C814.34 715.931 809.859 717.08 805.298 717.77C804.123 717.987 802.953 718.105 801.755 718.245L802.901 718.102C799.668 718.435 796.364 718.59 793.157 718.061L794.295 718.223C792.74 717.964 791.226 717.5 789.793 716.842L790.872 717.308C789.467 716.71 788.152 715.93 786.957 714.981L787.9 715.721C787.053 715.029 786.299 714.229 785.662 713.343L786.342 714.327C786.089 713.976 785.879 713.594 785.718 713.192L786.115 714.295C785.769 713.247 785.512 712.169 785.349 711.074C785.041 709.543 784.835 708.015 784.602 706.46C784.188 703.35 783.827 700.193 783.464 697.086C783.319 696.041 783.223 694.998 783.026 693.951C782.829 692.904 781.952 691.71 781.006 691.124C780.003 690.527 778.813 690.327 777.673 690.567C776.545 690.886 775.41 691.564 774.844 692.637C774.268 693.637 774.08 694.814 774.313 695.946Z" fill="#EFDCC4"/>
<path d="M816.865 699.545L818.908 709.148C819.02 709.612 819.309 710.015 819.715 710.27C820.118 710.522 820.606 710.608 821.074 710.507C824.237 709.995 820.366 701.223 820.339 698.735C820.313 696.247 816.322 697.294 816.865 699.545Z" fill="#452D34"/>
<path d="M802.735 701.857L803.856 713.464C803.857 713.936 804.038 714.39 804.362 714.734C804.687 715.079 805.129 715.287 805.601 715.317C806.463 715.292 807.551 714.564 807.455 713.572L806.335 701.966C806.43 699.659 802.727 699.546 802.735 701.857Z" fill="#452D34"/>
<path d="M786.809 703.099C787.152 706.865 788.382 713.145 788.617 715.488C788.85 717.829 792.147 717.93 792.191 715.621C792.07 714.039 791.855 712.465 791.546 710.906C791.209 708.664 790.486 704.074 790.41 703.209C790.454 700.9 786.854 700.792 786.809 703.099Z" fill="#452D34"/>
<path d="M744.218 631.261C748.226 628.819 753.086 629.22 755.402 632.361C757.718 635.502 756.513 640.922 752.36 643.993C751.519 644.611 750.599 645.112 749.625 645.484C747.352 640.923 744.747 636.429 744.218 631.261Z" fill="#D13535"/>
<path d="M806.591 626.998C806.587 622.838 802.39 619.471 797.22 619.476C792.05 619.481 787.862 622.859 787.867 627.019C787.872 631.18 792.066 634.549 797.238 634.542C802.409 634.537 806.597 631.159 806.591 626.998Z" fill="#D13535"/>
<path d="M767.779 618.397C765.349 622.358 762.319 626.048 760.314 630.25C757.518 637.119 766.515 643.381 771.971 638.344C773.8 636.623 770.96 634.024 769.329 635.904C769.018 636.148 769.588 635.759 769.356 635.879C769.048 636.066 768.73 636.235 768.401 636.383C768.481 636.258 768.684 636.265 768.453 636.334C768.097 636.455 767.729 636.537 767.355 636.58C767.483 636.558 767.761 636.592 767.355 636.58C767.227 636.601 766.313 636.624 765.488 636.219C765.66 636.402 765.712 636.352 765.563 636.246C764.69 635.738 764.764 635.816 764.103 635.009C764.326 635.194 764.249 635.217 764.153 635.061C763.935 634.754 763.766 634.415 763.65 634.057C763.758 634.694 763.467 633.391 763.446 633.264C763.424 633.136 763.38 632.932 763.469 633.341C763.409 632.962 763.412 632.576 763.478 632.199C763.335 632.727 763.733 631.318 763.84 631.119C765.555 628.125 768.633 623.701 770.844 620.241C772.07 618.299 768.981 616.378 767.779 618.397Z" fill="#452D34"/>
<path d="M788.838 612.715C790.237 611.398 790.302 609.197 788.985 607.797C787.668 606.398 785.467 606.33 784.068 607.647C782.669 608.964 782.601 611.167 783.918 612.566C785.235 613.966 787.438 614.032 788.838 612.715Z" fill="#452D34"/>
<path d="M759.557 618.351C760.957 617.034 761.024 614.832 759.706 613.433C758.389 612.033 756.187 611.966 754.788 613.284C753.388 614.601 753.322 616.803 754.639 618.202C755.956 619.602 758.158 619.668 759.557 618.351Z" fill="#452D34"/>
<path d="M795.209 599.229C790.3 597.695 785.09 597.389 780.034 598.338C777.761 598.803 778.568 602.329 780.842 601.815L783.009 601.499C783.059 601.502 783.567 601.467 783.136 601.478C785.681 601.249 788.247 601.351 790.765 601.786C791.922 602.011 793.066 602.299 794.19 602.651C796.403 603.327 797.446 599.882 795.209 599.229Z" fill="#452D34"/>
<path d="M753.358 604.333C750.773 606.454 748.472 608.901 746.515 611.612C746.39 611.814 746.307 612.04 746.271 612.274C746.234 612.509 746.244 612.749 746.301 612.979C746.358 613.21 746.46 613.428 746.601 613.619C746.742 613.809 746.921 613.97 747.125 614.092C748.74 615.232 750.215 612.612 750.637 612.067C752.196 610.198 753.931 608.483 755.817 606.945C757.539 605.373 755.056 602.735 753.358 604.333Z" fill="#452D34"/>
<path d="M1049.53 659.131C1048.19 658.126 1044.81 655.055 1042.46 654.754C1041.92 653.877 1040.72 653.331 1039.68 654.265C992.452 681.079 923.532 690.871 868.397 688.084C867.436 687.953 866.57 688.918 866.543 689.829C865.908 693.188 879.57 692.002 881.995 692.43C935.168 691.351 993.93 684.223 1040.85 657.651C1051.34 662.107 1054.22 673.687 1058.13 683.348C1063.21 692.611 1058.47 699.83 1051.56 706.242C1021.22 736.665 980.416 757.534 936.998 756.625C936.581 755.867 936.198 755.146 935.844 754.459C934.594 752.187 931.306 754.397 932.867 756.475C924.91 756.084 917.004 755.004 909.236 753.249C907.85 752.926 906.613 752.711 905.392 753.664C903.697 755.212 906.103 757.873 907.851 756.276C916.666 758.692 925.745 760.039 934.882 760.291C944.016 776.329 960.469 786.951 962.89 806.744C963.38 808.993 966.881 808.21 966.364 805.935C963.606 785.524 949.255 776.715 939.168 760.345C973.508 760.243 1009.08 746.373 1035.79 724.976C1045.22 716.686 1067.17 701.843 1063.48 687.926C1062.02 682.552 1059.43 677.551 1057.61 672.319C1055.79 667.086 1053.41 662.676 1049.53 659.131Z" fill="#452D34"/>
<path d="M809.078 667.511C803.703 671.483 795.282 675.569 788.488 676.149C786.183 676.368 783.857 676.305 781.566 675.965C779.396 675.573 777.279 674.939 775.253 674.073C773.923 673.603 769.79 670.99 768.826 670.072C760.016 662.7 755.098 652.451 750.985 641.642C746.871 630.834 743.659 617.058 742.609 605.632C742.034 603.66 743.294 599.765 740.54 599.352C739.626 599.375 738.615 600.08 738.686 601.098C740.853 626.744 750.972 673.922 780.553 679.233C780.58 679.429 780.653 679.613 780.765 679.772C782.632 682.871 784.215 686.129 785.496 689.509L785.516 689.636C768.322 690.943 772.327 686.928 775.796 708.148C724.338 729.631 660.021 744.256 604.505 735.521C603.348 735.181 602.512 735.968 602.306 736.901C594.464 743.642 593.959 754.463 594.1 764.034C594.037 769.463 593.071 775.398 595.608 780.448C601.461 790.802 619.194 795.196 629.849 799.503C673.341 814.778 726.446 811.741 763.809 785.489C765.29 791.092 768.334 796.159 771.177 801.167C787.684 828.441 806.749 854.244 827.407 878.547C832.513 884.182 837.511 890.12 843.825 894.472C845.769 895.649 847.688 892.61 845.67 891.408C826.458 875.498 811.581 853.045 797.062 833.851C786.679 818.894 775.316 803.576 767.93 786.884C767.255 784.858 766.943 781.753 764.224 781.848C761.507 781.944 760.172 784.085 758.166 784.99C715.651 812.049 659.501 810.019 614.813 789.861C607.351 786.54 597.143 782.551 597.515 772.791C598.138 761.416 595.581 747.812 604.849 739.236C655.715 748.161 728.77 732.456 776.345 711.819C778.473 736.22 808.381 729.107 824.113 723.262C830.097 720.932 836.004 717.787 840.436 713.022C842.108 711.449 839.676 708.812 837.978 710.41C836.661 711.839 835.202 713.13 833.624 714.263C829.89 716.821 825.845 718.891 821.585 720.419C812.149 723.636 796.931 727.566 788.081 723.974C786.829 723.39 785.642 722.674 784.542 721.837C783.881 721.282 783.279 720.66 782.746 719.98C782.2 719.214 781.741 718.394 781.373 717.527C780.638 714.967 780.038 712.183 779.491 709.3C779.477 709.116 779.441 708.936 779.381 708.764C778.438 703.836 777.657 698.61 776.739 693.71C788.828 693.416 800.964 691.55 812.382 687.456C814.626 686.28 826.366 683.209 824.456 680.081C824.231 679.665 823.851 679.355 823.4 679.218C822.947 679.08 822.46 679.127 822.042 679.347C818.906 680.979 815.676 682.424 812.37 683.674C804.86 686.405 797.064 688.272 789.133 689.239C788.332 687.184 786.77 682.594 785.005 679.724C787.026 679.785 789.05 679.677 791.054 679.399C799.855 677.914 807.787 673.257 814.678 667.755C815.406 667.168 815.397 665.849 814.755 665.221C812.701 663.457 810.829 666.649 809.078 667.511Z" fill="#452D34"/>
<path d="M790.232 657.118C788.624 658.616 786.661 659.681 784.529 660.218C776.347 662.255 770.511 655.531 768.393 652.549C768.07 652.114 767.878 651.595 767.84 651.054C767.803 650.513 767.921 649.973 768.181 649.497C768.432 649.022 768.807 648.624 769.267 648.347C769.728 648.071 770.255 647.925 770.792 647.926L772.796 647.962C778.519 648.043 784.155 646.555 789.091 643.658L790.873 642.621C791.336 642.347 791.865 642.205 792.402 642.212C792.94 642.22 793.464 642.374 793.918 642.663C794.369 642.953 794.733 643.361 794.969 643.842C795.204 644.324 795.303 644.859 795.256 645.393C795.023 648.077 794.072 653.504 790.232 657.118ZM772.905 651.899C775.235 654.583 778.952 657.539 783.58 656.383C788.209 655.23 790.377 650.625 791.044 647.094C785.541 650.302 779.274 651.963 772.905 651.899Z" fill="#452D34"/>
<path d="M563.485 776.938C568.616 782.651 582.543 783.682 592.603 782.489C595.481 782.145 596.927 779.651 598.399 777.132C605.622 764.865 608.59 753.154 606.397 740.095C606.054 738.004 606.297 735.854 604.927 734.188C591.01 717.728 572.096 714.643 564.059 714.374C552.627 713.952 548.36 719.939 547.75 723.321L548.04 727.137C539.199 730.828 537.702 742.532 535.582 751.376C533.462 760.219 536.059 772.504 546.597 775.64C583.873 786.666 582.106 741.085 572.626 740.747" fill="#D13535"/>
<path d="M563.917 738.352L523.623 657.7C525.011 660.483 523.404 659.927 522.114 660.598C521.481 660.918 521 661.475 520.775 662.147C520.55 662.82 520.6 663.555 520.914 664.191L558.773 738.957L563.917 738.352Z" fill="#CE9C5C"/>
<path d="M577.421 764.265L583.686 776.941C583.846 777.256 583.938 777.601 583.957 777.953C583.976 778.305 583.921 778.658 583.796 778.988C583.672 779.319 583.48 779.619 583.233 779.871C582.986 780.124 582.69 780.322 582.362 780.453C581.696 780.706 580.961 780.702 580.298 780.443C579.636 780.184 579.093 779.688 578.775 779.051L573.235 767.564L577.421 764.265Z" fill="#CE9C5C"/>
<path d="M531.33 648.721C529.965 643.503 524.208 650.942 522.677 652.875C516.729 644.828 516.375 647.279 515.111 655.514C513.45 655.057 511.197 653.187 509.753 654.793C509.332 655.288 509.128 656.17 509.541 656.766C510.681 658.501 511.847 660.211 512.988 661.946C509.71 662.913 508.512 665.617 512.432 666.903C511.451 669.107 504.455 676.381 506.59 677.969C507.948 680.04 517.51 673.503 520.07 672.768C521.401 675.345 522.351 678.1 522.893 680.949C526.062 686.095 528.351 675.861 529.104 673.625C531.183 673.577 533.259 673.811 535.275 674.32C536.986 674.829 538.321 672.636 537.065 671.354C535.81 670.073 534.588 668.513 533.39 667.03C535.55 667.01 537.69 667.446 539.67 668.312C541.352 668.896 542.742 666.603 541.511 665.347C540.28 664.092 538.367 663.577 537.213 662.299C537.528 662.79 537.043 662.015 537.073 661.889C537.076 661.892 537.078 661.896 537.08 661.9C537.082 661.905 537.083 661.909 537.082 661.914C537.082 661.919 537.081 661.923 537.079 661.928C537.077 661.932 537.075 661.936 537.071 661.939C537.085 661.926 537.093 661.908 537.094 661.889C537.094 661.87 537.087 661.852 537.074 661.838C537.005 661.607 537.053 661.71 537.076 661.787C537.059 661.536 537.102 661.285 537.201 661.054C537.301 660.823 537.454 660.619 537.649 660.459C537.417 660.579 537.572 660.482 537.727 660.386L537.701 660.41C539.513 660.084 539.823 657.378 537.961 656.865C536.098 656.352 533.171 655.806 530.719 655.504C531.124 653.266 531.328 650.996 531.33 648.721ZM537.254 660.93L537.28 660.905C537.251 661.031 537.094 661.179 537.254 660.93Z" fill="#EFDCC4"/>
<path d="M537.074 661.889L537.078 661.787L537.074 661.889Z" fill="#CE9C5C"/>
<path d="M524.41 648.486C524.302 647.848 524.245 647.213 524.162 646.601C524.079 645.989 524.128 646.041 524.167 646.449C523.675 642.01 523.743 637.528 524.368 633.106C524.368 633.106 524.434 632.6 524.375 632.853C524.317 633.105 524.434 632.6 524.432 632.651C524.905 629.741 525.741 626.901 526.921 624.2C527.797 622.293 528.864 620.481 530.105 618.789C530.662 618.019 530.294 616.739 529.495 616.309C529.088 616.083 528.611 616.02 528.159 616.134C527.708 616.247 527.317 616.529 527.066 616.921C521.801 623.994 520.056 633.026 520.276 641.687C520.351 644.227 520.579 646.771 520.883 649.293C521.188 651.815 524.9 650.734 524.41 648.486Z" fill="#CE9C5C"/>
<path d="M534.453 655.388C537.395 654.589 541.281 653.641 543.852 653.389C545.6 653.214 547.362 653.242 549.103 653.472C550.331 653.711 551.535 654.062 552.7 654.52C554.48 655.274 556.041 656.465 557.239 657.982C558.234 660.347 561.749 659.057 560.655 656.639C558.521 653.376 555.134 651.244 551.382 650.293C545.462 648.819 539.402 650.336 533.67 651.888C531.396 652.403 532.203 655.929 534.453 655.388Z" fill="#CE9C5C"/>
<path d="M517.957 673.872C512.204 676.971 511.301 684.176 511.757 690.053C511.779 691.017 512.487 691.927 513.477 691.932C514.467 691.936 515.378 691.177 515.332 690.186C515.212 688.279 515.224 685.361 515.47 683.948C515.626 682.958 515.885 681.988 516.243 681.053L516.324 680.877C517.135 679.227 517.641 678.455 519.018 677.406C521.244 676.788 521.209 672.93 517.957 673.872Z" fill="#CE9C5C"/>
<path d="M510.083 659.016C500.471 656.861 490.556 656.406 480.787 657.672C479.845 657.77 479.175 658.943 479.453 659.814C479.797 661.855 482.948 660.909 483.582 660.903C490.504 660.246 497.48 660.465 504.347 661.557C505.876 661.35 510.238 663.944 511.285 661.234C511.489 660.352 511.066 659.223 510.083 659.016Z" fill="#CE9C5C"/>
<path d="M514.335 650.136C513.799 647.734 510.67 640.432 507.459 642.568C505.807 644.32 508.227 645.687 509.151 647.035C509.004 646.844 508.98 646.818 509.077 646.956C509.654 647.786 510.122 648.688 510.468 649.638C510.721 652.995 514.391 653.335 514.335 650.136Z" fill="#CE9C5C"/>
<path d="M540.617 672.249C542.339 673.189 544.088 674.105 545.786 675.019C546.61 675.475 547.383 675.93 548.154 676.435C548.327 676.568 548.527 676.675 548.701 676.807C548.875 676.94 548.924 676.992 549.048 677.072C549.173 677.151 548.85 676.913 549.073 677.098C549.296 677.282 549.764 677.728 550.108 678.094C550.435 678.44 550.885 678.643 551.36 678.657C551.836 678.671 552.298 678.496 552.644 678.17C552.982 677.839 553.179 677.391 553.193 676.918C553.207 676.445 553.038 675.985 552.721 675.635C551.346 674.121 549.577 673.027 547.805 672.035L542.485 669.209C540.517 668.007 538.622 671.071 540.617 672.249Z" fill="#CE9C5C"/>
<path d="M509.468 668.412C507.98 663.901 499.684 670.527 497.43 672.058C495.523 674.69 498.85 676.288 500.825 673.937C502.898 672.498 505.131 671.305 507.48 670.382C507.991 670.246 507.64 670.133 506.401 669.969L505.969 669.144C506.355 671.49 510.006 670.764 509.468 668.412Z" fill="#CE9C5C"/>
<path d="M537.943 645.749C538.501 644.928 539.085 644.083 539.718 643.29L539.875 643.143C540.839 641.996 541.872 640.909 542.968 639.887C544.664 638.339 542.181 635.701 540.509 637.275C538.838 638.848 532.558 644.266 535.514 646.361C535.919 646.596 536.399 646.664 536.853 646.55C537.307 646.435 537.698 646.148 537.943 645.749Z" fill="#CE9C5C"/>
<path d="M567.102 665.005C566.791 665.313 566.432 665.568 566.039 665.76C564.993 666.193 563.822 666.215 562.761 665.82C561.7 665.426 560.827 664.645 560.318 663.633C559.808 662.622 559.701 661.456 560.016 660.368C560.332 659.281 561.046 658.353 562.018 657.771C562.541 657.505 563.111 657.345 563.696 657.302C564.282 657.258 564.87 657.332 565.426 657.519C565.988 657.696 566.508 657.985 566.954 658.37C567.401 658.754 567.764 659.225 568.023 659.755C568.295 660.276 568.458 660.847 568.501 661.433C568.545 662.019 568.468 662.608 568.275 663.163C568.045 663.866 567.641 664.499 567.102 665.005ZM563.685 661.374C563.595 661.443 563.533 661.543 563.511 661.654C563.489 661.766 563.508 661.882 563.565 661.98C563.623 662.109 563.729 662.21 563.86 662.261C563.991 662.313 564.138 662.31 564.267 662.255C564.398 662.179 564.493 662.054 564.532 661.908C564.563 661.782 564.559 661.65 564.518 661.526C564.438 661.403 564.327 661.304 564.197 661.238C564.06 661.216 563.92 661.229 563.79 661.276L563.685 661.374Z" fill="#CE9C5C"/>
<path d="M534.023 615.101C533.708 615.385 533.36 615.63 532.986 615.831C531.926 616.361 530.699 616.45 529.574 616.078C528.449 615.707 527.516 614.905 526.981 613.847C526.714 613.325 526.554 612.754 526.511 612.169C526.468 611.584 526.542 610.996 526.729 610.439C527.092 609.308 527.887 608.366 528.94 607.816C530 607.286 531.226 607.197 532.352 607.569C533.477 607.941 534.409 608.743 534.945 609.8C535.386 610.664 535.534 611.648 535.367 612.604C535.201 613.56 534.729 614.436 534.023 615.101ZM530.581 611.444L530.447 611.669C530.413 611.805 530.426 611.949 530.486 612.076C530.552 612.196 530.662 612.286 530.793 612.328C530.924 612.37 531.066 612.36 531.19 612.3C531.314 612.231 531.409 612.119 531.455 611.984C531.501 611.849 531.496 611.703 531.44 611.572C531.409 611.509 531.364 611.454 531.308 611.413C531.252 611.371 531.186 611.344 531.117 611.333C530.993 611.288 530.857 611.293 530.736 611.347L530.581 611.444Z" fill="#CE9C5C"/>
<path d="M558.956 683.462C558.644 683.75 558.295 683.995 557.919 684.192C557.131 684.606 556.237 684.775 555.353 684.676C554.469 684.577 553.635 684.216 552.958 683.638C552.281 683.06 551.794 682.292 551.558 681.434C551.322 680.576 551.349 679.667 551.635 678.825C552.004 677.701 552.801 676.769 553.853 676.231C554.906 675.692 556.128 675.591 557.254 675.95C558.385 676.313 559.328 677.108 559.878 678.161C560.412 679.226 560.511 680.458 560.154 681.595C559.915 682.306 559.503 682.948 558.956 683.462ZM555.514 679.805C555.437 679.889 555.387 679.994 555.37 680.106C555.353 680.219 555.37 680.334 555.418 680.436C555.448 680.499 555.49 680.555 555.542 680.601C555.594 680.647 555.655 680.682 555.721 680.703C555.787 680.724 555.857 680.731 555.926 680.724C555.995 680.717 556.062 680.695 556.122 680.661C556.185 680.634 556.241 680.593 556.287 680.542C556.332 680.49 556.366 680.43 556.385 680.364C556.407 680.297 556.416 680.227 556.409 680.157C556.402 680.086 556.381 680.018 556.346 679.957C556.276 679.842 556.173 679.751 556.05 679.694C555.983 679.672 555.912 679.663 555.842 679.67C555.772 679.677 555.704 679.698 555.643 679.733L555.514 679.805Z" fill="#CE9C5C"/>
<path d="M506.328 642.254C505.854 642.698 505.297 643.043 504.689 643.268C504.081 643.494 503.434 643.596 502.786 643.568C502.026 643.514 501.294 643.259 500.665 642.83C500.037 642.401 499.533 641.813 499.205 641.125C498.839 640.459 498.662 639.705 498.694 638.946C498.726 638.186 498.965 637.449 499.386 636.817C499.842 636.119 500.472 635.554 501.213 635.176C501.955 634.798 502.782 634.62 503.614 634.661C504.375 634.707 505.11 634.959 505.74 635.389C506.371 635.819 506.873 636.411 507.194 637.104C507.563 637.763 507.744 638.512 507.717 639.267C507.689 640.023 507.455 640.756 507.039 641.388C506.844 641.709 506.605 642.001 506.328 642.254ZM502.776 638.848L502.672 638.946C502.62 638.995 502.592 639.071 502.712 639.303L502.686 639.327C502.806 639.559 502.907 639.562 502.958 639.564C503.094 639.563 503.228 639.53 503.349 639.468C503.47 639.405 503.574 639.315 503.654 639.204C503.706 639.155 503.76 639.055 503.64 638.823C503.52 638.591 503.419 638.588 503.368 638.587C503.146 638.6 502.936 638.693 502.776 638.848Z" fill="#CE9C5C"/>
<path d="M564.146 712.372C551.217 711.93 546.508 719.121 545.807 722.983C545.624 723.997 545.619 725.036 545.79 726.053C538.279 730.216 536.136 739.82 534.401 747.66L533.669 750.911C532.449 756.001 532.735 761.643 534.496 766.341C536.632 772.064 540.625 775.941 546.059 777.527L547.342 777.896L547.745 778.009L548.576 778.212C548.734 778.253 548.894 778.283 549.055 778.303C549.308 778.361 549.533 778.444 549.761 778.476L550.291 778.569L550.972 778.716C551.128 778.76 551.289 778.791 551.451 778.807C551.66 778.849 551.871 778.881 552.083 778.902L552.613 778.994L553.22 779.063L553.725 779.129L554.282 779.197L554.789 779.212L555.345 779.28L555.852 779.295L556.359 779.31L556.84 779.35L557.349 779.315L557.805 779.329L558.338 779.32L558.77 779.307L559.228 779.27L559.686 779.234L560.144 779.197L560.602 779.16L561.035 779.097L561.468 779.034L561.902 778.971L562.31 778.882L562.566 778.839C569.247 785.309 584.596 785.444 592.823 784.449C594.397 784.26 595.864 783.555 596.995 782.444C598.328 781.19 599.265 779.569 600.095 778.148C607.88 764.908 610.509 752.679 608.362 739.773C608.271 739.269 608.218 738.758 608.205 738.246C608.028 736.54 607.833 734.606 606.438 732.914C591.027 714.708 570.179 712.605 564.146 712.372ZM603.417 735.462C604.004 736.19 604.129 737.107 604.261 738.609L604.46 740.391C606.432 752.378 603.982 763.749 596.703 776.167C595.179 778.735 594.142 780.302 592.333 780.527C583.419 781.576 572.683 780.795 567.126 777.403L567.205 777.329L567.41 777.234L567.772 777.042L568.004 776.922L568.389 776.756L568.572 776.584L568.96 776.368L569.09 776.245L569.632 775.931L569.658 775.906L570.15 775.592L573.755 772.199C577.985 767.429 579.457 761.56 579.936 757.464C580.543 752.508 579.988 747.365 578.449 743.74C576.909 740.115 574.948 738.66 572.54 738.562C572.016 738.539 571.504 738.726 571.117 739.081C570.731 739.435 570.501 739.929 570.478 740.454C570.455 740.978 570.642 741.49 570.997 741.876C571.351 742.263 571.845 742.493 572.37 742.516C573.156 742.514 574.088 743.608 574.824 745.28C577.12 750.755 577.042 762.553 570.789 769.571L567.811 772.374L567.45 772.566L567.267 772.738L566.88 772.955L566.697 773.127L566.336 773.319L566.104 773.439L565.719 773.605L565.487 773.725L565.101 773.891L564.87 773.96L564.434 774.124L564.228 774.219L563.767 774.358L563.587 774.429L563.126 774.567L562.922 774.611L562.41 774.748L562.283 774.77L561.72 774.905C561.696 774.879 561.67 774.903 561.644 774.928C560.751 775.079 559.833 775.203 558.918 775.277L558.816 775.274L558.257 775.307L558.054 775.301L557.521 775.311L557.241 775.328L556.785 775.314L556.43 775.303L555.973 775.289C555.856 775.273 555.737 775.269 555.618 775.279L555.138 775.239C555.02 775.222 554.901 775.218 554.783 775.228L554.328 775.163L553.948 775.126L553.467 775.086L553.063 775.023L552.608 774.959C552.468 774.919 552.324 774.889 552.179 774.87L551.724 774.805L551.271 774.69L550.816 774.626L550.337 774.535L549.934 774.421L549.38 774.303L549.002 774.215L548.398 774.045C548.286 774.025 548.177 773.997 548.07 773.959C547.768 773.899 547.467 773.788 547.139 773.702C536.977 770.704 535.794 758.665 537.449 751.787L538.183 748.485C539.77 741.326 541.56 733.335 547.021 729.821C547.851 731.295 548.868 732.656 550.045 733.871C554.917 738.942 563.218 743.051 567.523 742.496C568.04 742.417 568.507 742.14 568.822 741.723C569.138 741.306 569.279 740.782 569.215 740.263C569.142 739.746 568.871 739.278 568.459 738.958C568.047 738.638 567.527 738.49 567.008 738.547C564.562 738.879 557.421 735.846 552.894 731.14C551.788 729.965 550.566 728.405 549.933 726.686L549.678 723.379C550.318 720.658 554.014 715.948 563.951 716.3C569.629 716.522 589.084 718.507 603.417 735.462Z" fill="#452D34"/>
<path d="M764.275 356.994C761.163 353.186 764.8 349.417 767.373 346.629L762.845 346.623C756.191 346.595 755.571 336.636 762.152 335.798C756.396 330.487 764.058 320.891 772.023 329.98C771.13 325.814 770.584 320.758 775.99 319.713C781.706 319.169 782.381 324.387 782.811 328.743C785.454 325.326 788.96 321.224 793.401 324.769C797.84 328.312 793.952 332.761 790.977 335.872L795.553 335.883C802.642 335.961 802.582 346.723 795.482 346.742L791.471 346.724C800.238 352.231 793.696 361.467 787.014 357.202C787.248 363.91 777.181 364.837 776.226 358.217L775.559 353.783C772.591 357.677 768.802 361.698 764.275 356.994ZM771.418 344.423C771.614 344.672 771.718 344.98 771.712 345.295C771.708 345.612 771.595 345.917 771.392 346.159L766.479 351.861C764.198 354.464 768.337 358.071 770.553 355.387L775.439 349.707C779.541 346.799 777.524 358.634 779.985 359.577C781.802 361.035 784.67 359.282 784.27 357.009L783.802 354.042C783.575 352.817 785.142 351.97 786.052 352.784L788.547 354.93C788.812 355.164 789.121 355.342 789.455 355.456C789.792 355.572 790.146 355.619 790.498 355.595C790.852 355.573 791.196 355.479 791.513 355.322C791.83 355.165 792.113 354.947 792.345 354.679C795.678 350.583 785.8 347.933 786.472 344.852C786.574 344.596 786.75 344.376 786.978 344.22C787.204 344.063 787.472 343.977 787.747 343.97L795.503 344.003C798.972 344.058 799.034 338.607 795.533 338.622L787.997 338.59C786.89 338.633 786.203 337.161 786.985 336.321C788.228 334.235 794.908 329.542 791.62 326.84C788.332 324.138 784.8 331.247 782.936 332.771C782.765 332.969 782.54 333.111 782.29 333.186C782.038 333.258 781.773 333.26 781.521 333.187C781.271 333.115 781.044 332.971 780.871 332.776C780.699 332.581 780.585 332.339 780.543 332.08L779.431 324.709C778.97 321.254 773.542 322.051 774.127 325.495L775.271 333.239C775.314 333.515 775.269 333.796 775.144 334.044C775.019 334.293 774.82 334.498 774.574 334.628C774.326 334.752 774.049 334.804 773.773 334.772C773.499 334.741 773.24 334.63 773.028 334.451L767.324 329.537C765.616 327.996 762.609 329.462 762.88 331.794C762.795 333.401 765.732 335.108 766.695 336.099C767.657 337.09 767.024 338.559 765.784 338.49L762.847 338.498C759.376 338.441 759.337 343.921 762.866 343.884C763.696 344.101 771.046 343.401 771.418 344.423Z" fill="#D13535"/>
</g>
<path d="M1090.66 487.175C1215.65 502.962 1300.68 644.744 1280.59 803.854C1260.49 962.964 1151.15 1124.95 1026.16 1109.16C901.175 1093.38 843.089 844.009 863.186 684.899C883.282 525.789 965.671 471.388 1090.66 487.175Z" fill="#33A81F" fill-opacity="0.16"/>
<path d="M24.8879 263.762C27.3734 260.144 33.0459 259.94 36.4104 262.751C39.7749 265.562 41.0035 270.535 40.3184 274.97C39.6331 279.404 37.3242 283.343 34.7414 286.913C32.1585 290.483 29.1836 293.76 26.871 297.55C25.0678 300.531 23.6797 303.779 21.9492 306.783C18.1999 313.249 12.8825 318.573 6.52261 322.23C4.6247 323.314 2.41104 324.279 0.279092 323.669C-1.10061 323.32 -2.23229 322.291 -3.29019 321.336C-12.5655 312.938 -21.6492 302.538 -22.5384 289.814C-22.584 288.94 -22.5849 287.916 -21.9744 287.305C-21.3641 286.694 -20.8116 286.659 -20.1407 286.547L-13.1697 285.345L-12.9822 285.141C-15.1054 278.011 -15.1968 270.368 -14.3433 262.983C-13.6541 256.75 -12.2682 250.48 -9.22508 245.078C-6.18199 239.676 -1.2882 235.189 4.5963 233.832C10.4812 232.475 17.3196 234.698 20.6244 239.983C22.5526 243.07 23.15 246.831 23.7201 250.468C24.2906 254.105 24.8963 258.216 24.3654 262.073L24.8879 263.762Z" fill="#D13535"/>
</g>
<defs>
<clipPath id="clip0_418_11717">
<rect width="947" height="952" fill="white"/>
</clipPath>
<clipPath id="clip1_418_11717">
<rect width="575.327" height="575.327" fill="white" transform="translate(385 628.321) rotate(-43.2659)"/>
</clipPath>
</defs>
</svg>
