<svg width="947" height="952" viewBox="0 0 947 952" fill="none" xmlns="http://www.w3.org/2000/svg">
<g clip-path="url(#clip0_480_11864)">
<path d="M-84.9457 547.922C-121.603 466.508 -114.339 311.393 -55.4583 277.04C3.42275 242.686 97.8854 289.352 134.543 370.767C171.2 452.181 173.369 543.53 114.487 577.884C55.6064 612.238 -48.2884 629.337 -84.9457 547.922Z" fill="#D6F9F7" fill-opacity="0.66"/>
<path d="M-68.2496 340.091C13.7104 339.351 81.2874 440.093 82.688 565.102C84.0885 690.112 28.2466 826.58 -53.7133 827.319C-135.673 828.059 -195.589 641.407 -196.99 516.397C-198.39 391.387 -150.21 340.83 -68.2496 340.091Z" fill="#33A81F" fill-opacity="0.04"/>
<path d="M16.1958 441.892C98.1557 441.149 165.728 541.888 167.123 666.898C168.518 791.908 112.67 928.378 30.7105 929.12C-51.2494 929.862 -111.157 743.212 -112.552 618.202C-113.947 493.193 -65.7641 442.634 16.1958 441.892Z" fill="#33A81F" fill-opacity="0.16"/>
<path d="M262.753 923.024C261.973 921.687 260.922 920.305 259.291 919.613C258.186 919.168 256.319 918.953 255.848 920.228C254.434 923.116 254.398 925.082 258.82 924.774C260.397 924.836 263.967 925.358 262.753 923.024ZM256.754 923.084V923.054C256.756 923.054 256.759 923.054 256.761 923.055C256.763 923.055 256.765 923.057 256.767 923.058C256.768 923.061 256.77 923.062 256.771 923.063C256.771 923.066 256.772 923.067 256.772 923.07L256.754 923.084ZM256.754 923.084C256.754 923.088 256.752 923.092 256.748 923.096C256.745 923.099 256.741 923.1 256.736 923.1C256.718 923.07 256.736 923.07 256.754 923.084ZM256.863 923.177H256.844C256.844 923.177 256.772 923.162 256.754 923.116V923.07C256.766 923.05 256.772 923.029 256.772 923.008C257.298 923.084 257.877 923.008 258.204 922.792C258.53 922.578 258.349 921.457 257.569 921.472H257.243C257.334 921.242 257.424 921.012 257.533 920.766H257.769C259.273 920.966 260.197 922.24 260.904 923.284L256.863 923.177ZM261.629 923.33C261.665 923.33 261.647 923.346 261.629 923.33V923.33Z" fill="#452D34"/>
<path d="M251.996 916.851L251.784 917.076C251.562 917.225 251.383 917.447 251.27 917.714C250.313 919.437 252.085 921.716 253.679 920.997C256.371 919.808 254.511 915.105 251.996 916.851Z" fill="#452D34"/>
<path d="M257.996 915.841L257.784 916.021C257.558 916.136 257.378 916.314 257.27 916.529C256.313 917.91 258.085 919.733 259.679 919.158C262.371 918.205 260.511 914.444 257.996 915.841Z" fill="#452D34"/>
<path d="M271.524 923.905C270.94 923.158 268.715 920.279 267.201 919.897C263.279 906.696 245.002 903.903 236.866 920.436C236.783 920.525 236.692 920.605 236.592 920.678C234.641 921.77 230.883 921.736 229.697 924.287C228.986 925.467 229.588 927.374 230.938 927.686C230.81 930.184 232.525 931.676 234.641 932.162C234.75 932.96 234.86 933.723 235.024 934.452C232.251 933.949 228.585 935.892 229.406 938.443C229.424 938.46 229.424 938.477 229.406 938.512C229.411 938.542 229.405 938.573 229.387 938.598C228.256 940.108 229.77 942.259 231.759 942.693C234.367 943.473 238.234 942.71 240.058 943.491L240.733 944.046H240.751L241.299 944.444C240.022 944.948 238.927 945.954 238.891 947.22C239.055 947.915 240.222 948.087 240.569 947.428C240.916 946.769 240.897 946.805 241.39 946.371C241.59 946.245 241.797 946.129 242.01 946.024C242.005 946.024 242.001 946.025 241.997 946.028C241.994 946.031 241.992 946.036 241.992 946.04C241.992 946.036 241.994 946.031 241.997 946.028C242.001 946.025 242.005 946.024 242.01 946.024H242.028C242.138 945.988 242.083 946.024 242.028 946.04C242.265 945.955 242.509 945.892 242.758 945.85C242.156 946.613 241.809 947.62 242.357 948.383C242.904 949.146 244.035 948.348 243.925 947.516C243.962 947.412 243.98 947.308 244.017 947.202C244.066 947.131 244.109 947.055 244.144 946.978C244.199 947.186 244.254 947.412 244.29 947.637C244.348 948.115 244.342 948.599 244.272 949.077C243.962 949.84 245.494 950.795 246.041 949.493C246.211 948.463 246.149 947.41 245.859 946.405C246.644 946.579 247.444 946.683 248.249 946.717C247.424 947.612 246.993 948.773 247.045 949.962C247.081 950.412 247.446 950.847 247.957 950.829C248.814 950.811 248.923 950.014 248.887 949.371C248.928 949.129 248.995 948.89 249.088 948.66C249.207 948.418 249.347 948.187 249.507 947.967H249.525C249.689 947.775 249.872 947.602 250.073 947.446L250.346 947.272C250.062 948.285 250.012 949.345 250.2 950.378C250.547 951.54 252.371 950.915 251.951 949.805C251.912 949.564 251.9 949.321 251.915 949.077C251.909 948.85 251.921 948.625 251.951 948.4V948.365C252.003 948.09 252.07 947.818 252.152 947.55L252.462 947.48C252.968 947.755 253.37 948.173 253.611 948.678C253.721 949.267 254.159 949.892 254.87 949.684C255.099 949.619 255.293 949.474 255.412 949.276C255.531 949.079 255.565 948.846 255.508 948.626C255.223 947.579 254.532 946.675 253.575 946.094C259.412 944.428 264.848 939.553 266.964 932.024L267.018 931.868C268.642 932.093 270.265 931.105 270.831 929.647C271.356 929.595 271.849 929.383 272.235 929.04C273.841 927.548 272.582 925.327 271.524 923.905ZM231.43 926.038L231.394 926.004L231.43 926.038ZM231.211 925.657C231.23 925.675 231.23 925.691 231.23 925.727C231.232 925.701 231.226 925.678 231.211 925.657ZM231.503 927.704L231.777 927.67C231.736 927.692 231.691 927.708 231.644 927.714C231.597 927.72 231.549 927.716 231.503 927.704ZM230.901 940.16C230.872 940.093 230.854 940.024 230.847 939.952C230.847 939.9 230.828 939.865 230.828 939.813V939.779C230.846 939.746 230.858 939.71 230.865 939.675C231.193 939.136 231.376 938.477 231.12 937.887C231.102 937.87 231.102 937.818 231.102 937.8V937.68L231.157 937.54C231.193 937.488 231.303 937.28 231.339 937.246C231.376 937.21 231.339 937.228 231.357 937.21C231.472 937.066 231.607 936.939 231.759 936.829C231.74 936.829 231.74 936.811 231.795 936.795H231.832C231.949 936.719 232.071 936.649 232.196 936.585L232.434 936.465C233.325 936.097 234.332 936.072 235.243 936.395C235.348 936.492 235.472 936.569 235.608 936.621C236.145 938.336 236.977 939.952 238.07 941.409C235.133 941.149 231.886 941.756 230.901 940.16ZM241.353 946.405L241.39 946.371C241.372 946.387 241.372 946.405 241.353 946.405ZM257.916 942.103C257.46 942.519 254.907 943.941 254.378 944.081C252.207 944.999 249.562 945.277 247.738 945.035C246.899 944.965 245.129 944.444 244.783 944.288C243.98 944.011 242.448 943.092 242.138 942.831L241.992 942.727C241.84 942.581 241.675 942.448 241.499 942.329C240.901 941.809 240.346 941.247 239.839 940.646C237.924 938.251 236.994 935.806 236.52 932.787C236.491 932.632 236.479 932.475 236.483 932.319C237.671 932.289 238.826 931.947 239.821 931.329C240.751 932.283 242.794 932.335 244.035 931.59C244.836 931.237 245.555 930.737 246.15 930.118C246.745 929.499 247.204 928.771 247.501 927.981C248.923 923.991 245.202 923.28 245.786 925.587C245.837 925.64 245.869 925.707 245.877 925.779C245.916 925.868 245.946 925.961 245.968 926.056C246.06 927.46 245.385 928.537 244.144 929.525C243.825 929.749 243.483 929.941 243.123 930.098C242.806 930.225 242.476 930.318 242.138 930.376H241.609L241.39 930.306L241.299 930.254L241.226 930.202L241.171 930.132V930.081C241.171 930.063 241.189 930.063 241.189 930.046C241.499 928.988 239.821 928.519 239.42 929.525H239.383L239.256 929.647C239.256 929.665 239.219 929.681 239.201 929.699C238.672 930.081 237.486 930.376 236.465 930.55H236.319C235.997 930.566 235.674 930.566 235.352 930.55L234.714 930.41L234.513 930.34C233.948 930.15 233.4 929.613 233.254 929.439C233.108 929.266 233.09 929.196 232.999 929.074C232.94 928.886 232.891 928.696 232.853 928.503C232.853 927.288 232.871 925.675 231.376 925.952C231.366 925.952 231.357 925.948 231.35 925.942C231.343 925.936 231.339 925.927 231.339 925.917L231.303 925.848C231.298 925.848 231.293 925.845 231.29 925.842C231.286 925.839 231.284 925.835 231.284 925.83C231.265 925.753 231.241 925.679 231.211 925.605C231.208 925.535 231.215 925.465 231.23 925.397C231.251 925.28 231.282 925.162 231.321 925.05C231.284 925.084 231.303 925.084 231.321 925.05C231.339 925.016 231.339 925.016 231.339 924.998C231.339 924.98 231.503 924.738 231.54 924.702L231.576 924.65C231.735 924.456 231.919 924.281 232.123 924.131C232.087 924.147 232.069 924.147 232.069 924.165C232.216 924.071 232.368 923.984 232.525 923.905L232.744 923.818C239.675 921.928 237.267 921.996 241.098 916.965C242.107 915.736 243.271 914.629 244.564 913.67C245.239 913.149 247.026 912.056 248.23 911.623C250.802 910.46 255.144 910.321 257.697 911.467C258.623 911.866 259.503 912.354 260.324 912.923C261.187 913.578 261.971 914.323 262.659 915.144C264.519 917.365 265.596 920.452 265.924 922.865C266.453 926.837 265.869 930.392 264.264 934.089C263.005 936.933 260.78 940.021 257.916 942.103ZM241.153 930.063C241.134 930.046 241.153 930.046 241.153 930.063V930.063ZM241.153 930.15V930.168V930.15ZM241.134 930.098V930.063C241.136 930.076 241.142 930.089 241.153 930.098H241.134ZM245.877 925.744V925.709C245.881 925.721 245.881 925.733 245.877 925.744ZM271.141 927.566C271.104 927.652 271.123 927.582 271.141 927.53C271.114 927.585 271.084 927.637 271.05 927.686C271.013 927.722 270.977 927.774 270.94 927.79L270.758 927.878H270.648C269.791 927.305 269.08 928.277 269.189 928.675C269.175 928.842 269.132 929.007 269.061 929.162C268.932 929.407 268.752 929.625 268.532 929.803L268.204 929.994C268.051 930.051 267.892 930.092 267.73 930.115H267.438C267.997 927.572 268.102 924.956 267.748 922.378C269.335 923.766 270.758 925.571 271.177 927.045V927.357C271.159 927.392 271.159 927.478 271.141 927.514V927.566Z" fill="#452D34"/>
<path d="M258.628 938.779C261.651 935.182 261.805 930.633 258.973 928.619C256.141 926.605 251.394 927.889 248.372 931.488C245.349 935.084 245.195 939.633 248.027 941.647C250.859 943.661 255.606 942.377 258.628 938.779Z" fill="#D13535"/>
<path d="M611.247 178.025C612.027 176.593 613.078 175.112 614.709 174.371C615.814 173.894 617.681 173.665 618.152 175.03C619.566 178.124 619.602 180.231 615.18 179.901C613.603 179.967 610.033 180.526 611.247 178.025ZM617.246 178.09V178.058C617.244 178.058 617.241 178.058 617.239 178.059C617.237 178.059 617.235 178.061 617.233 178.062C617.232 178.065 617.23 178.066 617.229 178.068C617.229 178.071 617.228 178.072 617.228 178.075L617.246 178.09ZM617.246 178.09C617.246 178.094 617.248 178.099 617.252 178.103C617.255 178.106 617.259 178.107 617.264 178.107C617.282 178.075 617.264 178.075 617.246 178.09ZM617.137 178.19H617.156C617.156 178.19 617.228 178.173 617.246 178.124V178.075C617.234 178.054 617.228 178.031 617.228 178.009C616.702 178.09 616.123 178.009 615.796 177.778C615.47 177.548 615.651 176.347 616.431 176.362H616.757C616.666 176.116 616.576 175.87 616.467 175.606H616.231C614.727 175.82 613.803 177.186 613.096 178.304L617.137 178.19ZM612.371 178.354C612.335 178.354 612.353 178.37 612.371 178.354V178.354Z" fill="#452D34"/>
<path d="M622.004 171.412L622.216 171.653C622.438 171.813 622.617 172.05 622.73 172.336C623.687 174.183 621.915 176.624 620.321 175.854C617.629 174.58 619.489 169.541 622.004 171.412Z" fill="#452D34"/>
<path d="M614.004 171.33L614.216 171.522C614.442 171.646 614.622 171.837 614.73 172.067C615.687 173.546 613.915 175.499 612.321 174.883C609.629 173.862 611.489 169.833 614.004 171.33Z" fill="#452D34"/>
<path d="M602.476 178.97C603.06 178.17 605.285 175.084 606.799 174.675C610.721 160.531 628.998 157.539 637.134 175.253C637.217 175.348 637.308 175.434 637.408 175.512C639.359 176.683 643.117 176.646 644.303 179.379C645.014 180.643 644.412 182.687 643.062 183.021C643.19 185.698 641.475 187.296 639.359 187.816C639.25 188.672 639.14 189.489 638.976 190.27C641.749 189.731 645.415 191.813 644.594 194.546C644.576 194.565 644.576 194.582 644.594 194.62C644.589 194.652 644.595 194.686 644.613 194.713C645.744 196.33 644.23 198.635 642.241 199.099C639.633 199.936 635.766 199.118 633.942 199.955L633.267 200.55H633.249L632.701 200.976C633.978 201.515 635.073 202.594 635.109 203.95C634.945 204.695 633.778 204.879 633.431 204.173C633.084 203.467 633.103 203.505 632.61 203.04C632.41 202.905 632.203 202.781 631.99 202.668C631.995 202.668 631.999 202.67 632.003 202.673C632.006 202.676 632.008 202.681 632.008 202.686C632.008 202.681 632.006 202.676 632.003 202.673C631.999 202.67 631.995 202.668 631.99 202.668H631.972C631.862 202.63 631.917 202.668 631.972 202.686C631.735 202.595 631.491 202.527 631.242 202.482C631.844 203.3 632.191 204.378 631.643 205.196C631.096 206.013 629.965 205.159 630.075 204.267C630.038 204.155 630.02 204.044 629.983 203.931C629.934 203.855 629.891 203.774 629.856 203.691C629.801 203.914 629.746 204.155 629.71 204.397C629.652 204.909 629.658 205.428 629.728 205.94C630.038 206.758 628.506 207.78 627.959 206.385C627.789 205.282 627.851 204.154 628.141 203.077C627.356 203.263 626.556 203.375 625.751 203.411C626.576 204.37 627.007 205.614 626.955 206.888C626.919 207.37 626.554 207.836 626.043 207.817C625.186 207.798 625.077 206.944 625.113 206.255C625.072 205.996 625.005 205.74 624.912 205.493C624.793 205.234 624.653 204.986 624.493 204.75H624.475C624.311 204.545 624.128 204.359 623.927 204.192L623.654 204.006C623.938 205.091 623.988 206.226 623.8 207.333C623.453 208.579 621.629 207.909 622.049 206.719C622.088 206.462 622.1 206.201 622.085 205.94C622.091 205.697 622.079 205.455 622.049 205.215V205.177C621.997 204.882 621.93 204.591 621.848 204.303L621.538 204.229C621.032 204.523 620.63 204.971 620.389 205.512C620.279 206.144 619.841 206.813 619.13 206.591C618.901 206.521 618.707 206.365 618.588 206.153C618.469 205.942 618.435 205.692 618.492 205.456C618.777 204.335 619.468 203.367 620.425 202.743C614.588 200.959 609.152 195.735 607.036 187.668L606.982 187.501C605.358 187.743 603.735 186.684 603.169 185.122C602.644 185.066 602.151 184.839 601.765 184.471C600.159 182.873 601.418 180.493 602.476 178.97ZM642.57 181.255L642.606 181.219L642.57 181.255ZM642.789 180.847C642.77 180.866 642.77 180.883 642.77 180.921C642.768 180.894 642.774 180.869 642.789 180.847ZM642.497 183.04L642.223 183.003C642.264 183.027 642.309 183.045 642.356 183.051C642.403 183.057 642.451 183.053 642.497 183.04ZM643.099 196.386C643.128 196.314 643.146 196.239 643.153 196.163C643.153 196.107 643.172 196.069 643.172 196.014V195.977C643.154 195.942 643.142 195.904 643.135 195.866C642.807 195.288 642.624 194.582 642.88 193.951C642.898 193.932 642.898 193.876 642.898 193.857V193.728L642.843 193.579C642.807 193.523 642.697 193.3 642.661 193.264C642.624 193.225 642.661 193.245 642.643 193.225C642.528 193.071 642.393 192.934 642.241 192.817C642.26 192.817 642.26 192.798 642.205 192.78H642.168C642.051 192.699 641.929 192.624 641.804 192.556L641.566 192.427C640.675 192.033 639.668 192.006 638.757 192.352C638.652 192.456 638.528 192.538 638.392 192.594C637.855 194.431 637.023 196.163 635.93 197.723C638.867 197.445 642.114 198.096 643.099 196.386ZM632.647 203.077L632.61 203.04C632.628 203.058 632.628 203.077 632.647 203.077ZM616.084 198.468C616.54 198.913 619.093 200.437 619.622 200.586C621.793 201.571 624.438 201.868 626.262 201.609C627.101 201.534 628.871 200.976 629.217 200.809C630.02 200.512 631.552 199.527 631.862 199.247L632.008 199.136C632.16 198.98 632.325 198.837 632.501 198.71C633.099 198.153 633.654 197.55 634.161 196.906C636.076 194.34 637.006 191.721 637.48 188.486C637.509 188.32 637.521 188.152 637.517 187.985C636.329 187.953 635.174 187.586 634.179 186.924C633.249 187.947 631.206 188.002 629.965 187.204C629.164 186.825 628.445 186.289 627.85 185.626C627.255 184.963 626.796 184.183 626.499 183.337C625.077 179.062 628.798 178.3 628.214 180.772C628.163 180.829 628.131 180.901 628.123 180.977C628.084 181.072 628.054 181.173 628.032 181.274C627.94 182.779 628.615 183.932 629.856 184.991C630.175 185.232 630.517 185.437 630.877 185.605C631.194 185.741 631.524 185.841 631.862 185.903H632.391L632.61 185.828L632.701 185.772L632.774 185.717L632.829 185.642V185.586C632.829 185.567 632.811 185.567 632.811 185.55C632.501 184.416 634.179 183.913 634.58 184.991H634.617L634.744 185.122C634.744 185.141 634.781 185.158 634.799 185.178C635.328 185.586 636.514 185.903 637.535 186.089H637.681C638.003 186.106 638.326 186.106 638.648 186.089L639.286 185.939L639.487 185.865C640.052 185.661 640.6 185.085 640.746 184.899C640.892 184.713 640.91 184.638 641.001 184.508C641.06 184.306 641.109 184.102 641.147 183.896C641.147 182.595 641.129 180.866 642.624 181.163C642.634 181.163 642.643 181.158 642.65 181.152C642.657 181.146 642.661 181.136 642.661 181.125L642.697 181.052C642.702 181.052 642.707 181.049 642.71 181.045C642.714 181.042 642.716 181.037 642.716 181.033C642.735 180.95 642.759 180.87 642.789 180.791C642.792 180.716 642.785 180.641 642.77 180.568C642.749 180.443 642.718 180.317 642.679 180.196C642.716 180.233 642.697 180.233 642.679 180.196C642.661 180.159 642.661 180.159 642.661 180.14C642.661 180.121 642.497 179.862 642.46 179.824L642.424 179.768C642.265 179.56 642.081 179.372 641.877 179.212C641.913 179.229 641.931 179.229 641.931 179.248C641.784 179.148 641.632 179.054 641.475 178.97L641.256 178.876C634.325 176.851 636.733 176.924 632.902 171.534C631.893 170.217 630.729 169.031 629.436 168.003C628.761 167.445 626.974 166.274 625.77 165.81C623.198 164.565 618.856 164.415 616.303 165.643C615.377 166.071 614.497 166.594 613.676 167.203C612.813 167.905 612.029 168.703 611.341 169.583C609.481 171.962 608.404 175.27 608.076 177.855C607.547 182.111 608.131 185.92 609.736 189.881C610.995 192.928 613.22 196.236 616.084 198.468ZM632.847 185.567C632.866 185.55 632.847 185.55 632.847 185.567V185.567ZM632.847 185.661V185.68V185.661ZM632.866 185.605V185.567C632.864 185.582 632.858 185.596 632.847 185.605H632.866ZM628.123 180.94V180.902C628.119 180.915 628.119 180.928 628.123 180.94ZM602.859 182.892C602.896 182.984 602.877 182.909 602.859 182.854C602.886 182.913 602.916 182.968 602.95 183.021C602.987 183.059 603.023 183.115 603.06 183.132L603.242 183.226H603.352C604.209 182.612 604.92 183.654 604.811 184.08C604.825 184.26 604.868 184.436 604.939 184.602C605.068 184.864 605.248 185.098 605.468 185.289L605.796 185.494C605.949 185.554 606.108 185.599 606.27 185.623H606.562C606.003 182.898 605.898 180.096 606.252 177.333C604.665 178.82 603.242 180.754 602.823 182.334V182.668C602.841 182.706 602.841 182.798 602.859 182.836V182.892Z" fill="#452D34"/>
<path d="M615.372 194.906C612.349 191.052 612.195 186.179 615.027 184.021C617.859 181.863 622.606 183.239 625.628 187.094C628.651 190.948 628.805 195.821 625.973 197.979C623.141 200.137 618.394 198.761 615.372 194.906Z" fill="#D13535"/>
<path d="M320.766 191.943C331.68 197.89 344.551 194.668 349.513 184.746C354.473 174.822 349.647 161.957 338.734 156.011C327.82 150.064 314.95 153.287 309.989 163.209C305.027 173.132 309.852 185.996 320.766 191.943Z" fill="#EFDCC4"/>
<path d="M314.778 183.972C312.14 181.359 310.083 178.182 308.752 174.664C306.537 168.71 306.77 162.51 309.431 157.215C312.091 151.92 316.811 148.186 322.765 146.703C328.719 145.219 335.02 146.128 340.677 149.222C346.382 152.314 350.713 157.256 352.901 163.135C355.091 169.017 354.884 175.291 352.248 180.611C349.611 185.929 344.866 189.638 338.913 191.122C332.96 192.606 326.659 191.698 320.976 188.578C318.707 187.367 316.617 185.813 314.778 183.972ZM344.298 156.625C342.71 155.051 340.92 153.714 338.981 152.65C334.104 149.992 328.672 149.217 323.676 150.483C318.679 151.749 314.879 154.742 312.723 159.028C310.566 163.314 310.403 168.414 312.231 173.301C314.058 178.189 317.821 182.517 322.697 185.174C327.575 187.834 333.006 188.608 338.003 187.342C343 186.077 346.774 183.058 348.931 178.773C351.088 174.487 351.274 169.411 349.423 164.5C348.29 161.519 346.541 158.831 344.298 156.625Z" fill="#452D34"/>
<path d="M260.149 119.604C263.542 120.487 266.885 121.568 270.164 122.843C275.591 125.034 280.793 127.792 285.69 131.076C287.593 132.19 289.225 129.088 287.273 127.974C279.162 122.558 270.252 118.568 260.906 116.168C258.776 115.607 257.995 119.069 260.149 119.604Z" fill="#452D34"/>
<path d="M259.017 143.133C263.022 143.972 266.954 145.162 270.771 146.689C274.199 148.057 277.521 149.7 280.707 151.603C281.102 151.825 281.565 151.876 281.994 151.747C282.423 151.617 282.784 151.317 282.999 150.911C284.989 146.703 263.181 140.308 259.798 139.671C257.669 139.161 256.863 142.598 259.017 143.133Z" fill="#452D34"/>
<path d="M264.952 167.355C266.866 167.215 268.79 167.238 270.703 167.424C273.158 167.745 275.571 168.364 277.893 169.265C279.541 169.953 281.131 170.784 282.645 171.751C284.573 172.89 286.204 169.737 284.277 168.648C279.71 165.746 274.525 164.072 269.194 163.779C267.298 163.939 263.469 162.81 263.226 165.638C263.273 166.561 264.016 167.447 264.952 167.355Z" fill="#452D34"/>
<path d="M112.006 855.253C111.744 854.993 111.592 854.636 111.583 854.262C111.574 853.887 111.708 853.525 111.957 853.256L134.172 829.165C134.421 828.896 134.763 828.741 135.124 828.734C135.485 828.727 135.834 828.87 136.096 829.13C136.357 829.39 136.509 829.747 136.518 830.121C136.528 830.496 136.393 830.858 136.145 831.128L113.929 855.218C113.681 855.487 113.338 855.643 112.978 855.649C112.617 855.656 112.267 855.513 112.006 855.253Z" fill="#CE9C5C"/>
<path d="M105.217 845.236C104.989 845.014 104.845 844.716 104.812 844.394C104.773 844.024 104.876 843.655 105.098 843.365C105.321 843.076 105.645 842.89 106.001 842.848L141.628 838.921C141.988 838.885 142.348 838.999 142.629 839.237C142.91 839.475 143.089 839.819 143.127 840.193C143.165 840.566 143.058 840.939 142.831 841.229C142.603 841.519 142.273 841.703 141.914 841.739L106.309 845.641C106.111 845.658 105.91 845.631 105.722 845.561C105.533 845.491 105.361 845.38 105.217 845.236Z" fill="#CE9C5C"/>
<path d="M123.499 861.913C123.368 861.785 123.265 861.631 123.194 861.46C123.124 861.29 123.088 861.106 123.089 860.921L122.153 823.691C122.147 823.321 122.282 822.965 122.527 822.699C122.773 822.433 123.109 822.279 123.465 822.268C123.646 822.263 123.825 822.296 123.994 822.364C124.162 822.432 124.317 822.534 124.447 822.664C124.578 822.794 124.683 822.95 124.756 823.122C124.828 823.294 124.867 823.479 124.871 823.666L125.783 860.872C125.788 861.241 125.654 861.597 125.408 861.863C125.163 862.13 124.826 862.284 124.47 862.295C124.293 862.302 124.115 862.271 123.948 862.206C123.781 862.14 123.628 862.041 123.499 861.913Z" fill="#CE9C5C"/>
<path d="M134.8 854.835L111.424 831.582C111.163 831.322 111.011 830.965 111.001 830.59C110.992 830.216 111.127 829.854 111.375 829.584C111.624 829.315 111.966 829.16 112.327 829.153C112.688 829.146 113.037 829.289 113.299 829.549L136.675 852.802C136.936 853.062 137.088 853.419 137.098 853.793C137.107 854.168 136.972 854.53 136.724 854.799C136.475 855.069 136.133 855.224 135.772 855.231C135.411 855.238 135.062 855.095 134.8 854.835Z" fill="#CE9C5C"/>
<path d="M378.672 760.37C383.652 754.785 388.649 748.74 390.17 741.378C391.693 734.013 389.334 726.355 383.712 721.88C378.089 717.405 369.159 717.248 364.042 722.23L363.808 722.476C366.1 722.751 368.936 723.692 372.544 725.467C382.312 730.258 386.192 742.875 381.062 754.08C375.932 765.286 363.822 770.61 354.011 766.016C344.199 761.418 337.297 751.978 349.777 738.465C350.917 737.131 351.83 735.618 352.481 733.984C352.481 733.984 356.294 724.064 342.108 723.419C338.173 723.203 334.29 724.341 331.099 726.641C328.153 728.792 325.665 731.51 323.771 734.64C321.996 737.65 320.547 741.212 317.41 742.767C315.984 743.473 314.285 743.768 313.255 744.95C312.67 745.614 312.442 747.047 312.325 748.161C312.255 749.028 312.317 749.9 312.512 750.747C314.186 757.337 316.132 763.839 318.347 770.256C320.679 776.947 321.41 790.589 328.018 793.087C331.732 794.497 338.491 787.79 342.341 786.828C357.04 783.056 368.516 771.737 378.672 760.37Z" fill="#D13535"/>
<path d="M143.023 599.195C142.453 608.938 136.086 616.922 131.898 625.348C121.65 644.367 114.71 664.878 108.473 685.545C101.887 708.519 85.7987 717.376 85.0009 742.91L84.6628 746.693C84.6953 748.847 88.1105 748.883 88.0796 746.632C88.7465 727.396 94.4893 719.473 104.299 704.092C112.075 690.057 114.941 673.977 120.649 659.083C126.359 644.187 133.092 629.807 140.924 616.011C143.75 610.805 146.254 605.191 146.439 599.133C146.36 596.981 142.991 596.943 143.023 599.195Z" fill="#452D34"/>
<path d="M117.837 649.617C121.808 633.469 99.2984 629.052 95.5988 644.419C94.0622 658.853 112.332 662.161 117.837 649.617ZM107.712 638.345C109.082 638.297 111.462 639.175 111.832 639.531C112.239 639.829 112.604 640.181 112.917 640.577L112.769 640.434C113.566 641.497 114.153 642.703 114.495 643.986C112.467 643.683 110.409 645.101 108.373 645.402C107.853 643.01 107.126 640.664 106.198 638.396C106.704 638.362 107.207 638.329 107.712 638.345ZM98.8584 645.862C98.9959 644.378 99.5148 642.96 100.366 641.744C100.575 641.474 100.319 641.793 100.321 641.841C100.782 641.207 101.325 640.636 101.937 640.142C101.417 640.54 102.763 639.522 103.002 639.47C103.889 641.648 104.596 643.896 105.121 646.187C103.064 646.66 100.98 647.06 98.8963 647.363C98.8355 646.864 98.823 646.362 98.8584 645.862ZM105.584 654.097L105.56 654.073C103.245 653.823 100.983 651.878 100.203 650.561C102.073 650.284 103.916 649.938 105.759 649.541C105.989 651.038 106.029 652.587 106.139 654.11L105.706 654.069C105.731 654.093 105.732 654.141 105.584 654.097ZM112.14 651.679C111.326 652.354 110.427 652.915 109.464 653.349C109.402 651.825 109.266 650.277 109.059 648.756C111.017 648.139 113.124 647.813 114.976 646.86L114.966 647.367L114.941 647.344C114.868 647.74 114.765 648.131 114.634 648.511L114.702 648.341C114.144 649.655 113.261 650.805 112.14 651.679Z" fill="#D13535"/>
<path d="M105.676 654.091C105.654 654.081 105.63 654.076 105.607 654.076C105.582 654.078 105.56 654.083 105.539 654.093L105.676 654.091Z" fill="#D13535"/>
<path d="M94.3008 702.577C98.6135 689.547 77.9367 685.242 73.0567 695.836C68.222 710.16 88.7716 714.201 94.3008 702.577ZM91.4849 698.779C91.5194 699.181 91.5304 699.584 91.517 699.987L91.5132 699.842C91.4936 700.27 91.3991 700.689 91.2321 701.082C91.1639 701.302 90.3335 702.672 90.6802 702.158C90.2609 702.723 89.7721 703.237 89.2275 703.685C88.2414 704.469 87.1261 705.069 85.9296 705.462L85.4561 700.096C87.4109 699.383 89.3178 698.671 91.248 697.934L91.4849 698.779ZM86.9058 693.653C87.6277 693.902 88.3094 694.257 88.9297 694.706L89.2749 695.039C87.8679 695.574 86.4627 696.106 85.0328 696.615L84.6161 693.526C84.7144 693.464 84.8005 693.39 84.8765 693.302C85.5669 693.308 86.2518 693.427 86.9058 693.653ZM75.7099 699.011C75.9278 696.148 78.4689 693.925 81.253 693.681C81.456 695.058 81.6589 696.435 81.8137 697.812L75.6903 700.075L75.7099 699.011ZM81.8053 705.97C79.8986 705.788 77.9064 704.95 76.8539 703.323C78.6181 702.662 80.4035 701.978 82.1922 701.34L82.5984 705.982L81.8053 705.97Z" fill="#D13535"/>
<path d="M231.452 503.969L238.643 512.46L238.52 512.341C238.9 512.851 239.243 513.386 239.547 513.945C239.673 514.161 239.418 513.584 239.573 514.017L239.808 514.764C239.882 515.283 239.846 515.812 239.703 516.315C239.682 516.437 239.553 517.02 239.661 516.558C239.514 516.931 239.32 517.284 239.087 517.609C239.484 517.142 238.642 518.126 238.501 518.225C238.359 518.324 238.784 518.026 238.571 518.151C238.358 518.276 237.338 518.851 237.884 518.575C237.639 518.703 237.371 518.782 237.096 518.807C237.001 518.857 236.643 518.985 237.049 518.856C236.651 518.912 236.247 518.919 235.847 518.878C235.895 518.877 236.257 518.943 235.943 518.876C235.656 518.828 235.373 518.76 235.096 518.673C232.981 516.871 230.327 519.412 232.659 521.234C237.995 524.868 245.254 518.928 242.769 512.943C240.591 508.624 236.684 505.377 233.772 501.53C232.241 499.96 229.85 502.423 231.452 503.969Z" fill="#452D34"/>
<path d="M217.48 529.737C212.591 527.62 206.753 522.228 204.018 517.749C203.93 517.593 203.798 517.466 203.638 517.386C203.478 517.306 203.299 517.276 203.123 517.3C202.947 517.324 202.783 517.401 202.651 517.521C202.52 517.641 202.428 517.798 202.388 517.972C201.173 522.279 198.937 531.834 201.788 535.149C204.638 538.463 213.219 534.364 217.61 532.034C217.823 531.922 217.998 531.751 218.116 531.541C218.234 531.331 218.289 531.091 218.276 530.849C218.262 530.607 218.18 530.374 218.039 530.177C217.898 529.98 217.704 529.827 217.48 529.737Z" fill="#452D34"/>
<path d="M212.006 494.993C213.327 496.267 215.416 496.23 216.671 494.91C217.926 493.591 217.873 491.489 216.552 490.215C215.231 488.942 213.143 488.979 211.887 490.298C210.632 491.617 210.685 493.72 212.006 494.993Z" fill="#452D34"/>
<path d="M241.322 500.404C242.643 501.677 244.732 501.64 245.987 500.321C247.243 499.001 247.189 496.899 245.868 495.626C244.547 494.352 242.459 494.389 241.203 495.709C239.948 497.028 240.001 499.13 241.322 500.404Z" fill="#452D34"/>
<path d="M218.444 477.688C216.591 476.704 207.851 482.113 205.563 485.81C205.294 485.996 205.095 486.266 204.994 486.578C204.893 486.89 204.897 487.228 205.005 487.539C205.068 487.764 205.171 487.975 205.309 488.163L205.457 488.306C205.738 488.555 206.087 488.713 206.458 488.758C206.829 488.803 207.204 488.734 207.533 488.559C210.529 488.143 215.324 485.588 216.83 485.198C220.815 483.941 222.885 480.175 218.444 477.688Z" fill="#452D34"/>
<path d="M253.181 495.592C253.252 495.312 253.244 495.016 253.156 494.74C253.068 494.462 252.905 494.216 252.684 494.027C249.875 490.421 246.33 486.296 241.989 484.896C241.62 484.774 241.228 484.74 240.845 484.797C240.462 484.855 240.099 485.001 239.784 485.226C232.616 490.026 246.811 494.834 250.733 496.774C251.102 496.979 251.532 497.04 251.94 496.946C252.268 496.892 252.568 496.73 252.793 496.485C253.018 496.24 253.154 495.925 253.181 495.592Z" fill="#452D34"/>
<path d="M163.367 492.299L163.391 492.321C163.413 492.298 163.367 492.299 163.367 492.299Z" fill="#452D34"/>
<path d="M161.756 476.899C161.801 476.899 161.845 476.852 161.891 476.852C161.936 476.851 161.845 476.852 161.756 476.899Z" fill="#452D34"/>
<path d="M193.278 425.184C195.898 427.002 198.29 424.586 195.981 422.691C192.67 421.071 188.936 420.568 185.336 421.258C182.577 422.518 184.957 425.284 186.549 424.505C188.81 424.201 191.114 424.434 193.278 425.184Z" fill="#452D34"/>
<path d="M187.622 654.332C194.772 643.093 194.083 627.317 185.924 616.664L184.653 614.87L186.391 615.129C190.268 615.559 194.178 615.487 198.03 614.924C201.148 614.516 204.198 613.713 207.111 612.535C209.944 611.346 212.524 609.678 215.127 608.032C217.116 606.739 219.128 605.466 220.796 603.817C222.878 601.711 224.381 599.095 225.151 596.221C225.922 593.346 225.936 590.314 225.191 587.418C224.316 584.117 222.451 580.809 223.305 577.524C224.162 574.241 227.62 572.196 228.839 568.976C230.057 565.759 228.486 561.695 225.572 559.689C222.658 557.684 218.734 557.535 215.47 558.779C214.04 559.338 212.714 560.136 211.257 560.623C209.135 561.363 206.854 561.474 204.59 561.419C193.425 561.17 182.554 557.608 173.347 551.176C167.86 547.303 162.897 542.234 160.762 535.832C159.955 533.45 159.48 530.77 157.586 529.133C156.53 528.255 155.145 527.772 154.181 526.749C153.217 525.725 153.105 525.048 152.625 524.161C152.162 523.307 151.608 522.506 150.975 521.77C146.315 516.284 138.258 515.41 132.344 519.39C128.228 522.175 122.57 526.73 121.722 531.249C121.321 533.46 121.264 535.905 119.74 537.555C118.219 539.204 116.301 539.431 114.817 540.692C112.016 543.14 112.464 547.539 113.159 551.23C113.688 554.103 114.218 557.024 114.965 559.866L112.736 559.228C106.599 560.112 100.394 560.125 94.2536 560.864C88.1134 561.603 81.9225 563.141 76.865 566.718C74.3836 568.481 72.0456 571.187 72.4358 574.255C72.5843 575.391 73.1409 576.445 73.6496 577.501C78.4805 586.883 83.6364 596.669 92.3722 602.493C93.4291 603.261 94.5965 603.861 95.8329 604.272C97.7739 604.915 99.8643 604.855 101.879 604.576C110.606 603.404 118.352 598.691 125.838 594.102C128.04 592.732 130.245 591.409 132.423 590.064L134.347 589.085C139.276 593.912 144.772 598.116 150.71 601.601L149.014 603.085C144.2 608.642 144.166 616.827 144.377 624.207C144.588 631.588 144.802 638.17 146.705 644.867C147.546 647.824 148.716 650.679 150.192 653.377C150.467 653.984 150.867 654.53 151.364 654.978C152.121 655.52 153.109 655.625 154.05 655.68L181.327 657.422C182.532 657.497 183.759 657.55 184.853 657.094C185.951 656.638 186.904 655.434 187.622 654.332Z" fill="#CE9C5C"/>
<path d="M158.102 636.068L158.176 636.139L158.203 636.26C158.218 635.945 158.182 636.381 158.182 636.381C158.182 636.381 158.243 635.969 158.203 636.26C158.163 636.55 158.408 635.845 158.248 636.162C158.089 636.479 158.249 636.21 158.296 636.161C158.343 636.112 158.344 636.161 158.248 636.162C158.152 636.164 158.795 635.885 158.413 636.039C159.817 635.649 161.303 635.673 162.697 636.108C162.232 635.801 163.063 636.319 163.16 636.366C163.258 636.413 162.939 636.152 163.111 636.318L163.308 636.509C165.802 641.887 169.936 640.772 173.157 636.841C173.344 636.645 172.944 636.966 173.157 636.841C173.351 636.695 173.558 636.561 173.773 636.442C174.08 636.268 173.509 636.521 173.725 636.443C173.927 636.379 174.136 636.325 174.345 636.287L174.558 636.211C174.751 636.157 174.199 636.241 174.487 636.236C174.802 636.214 175.114 636.217 175.427 636.244C175.642 636.216 175.113 636.177 175.33 636.197C175.641 636.25 175.947 636.325 176.249 636.424C176.322 636.447 176.588 636.464 176.322 636.447C176.057 636.427 176.539 636.516 176.588 636.563L177.153 636.915C177.446 637.103 177.105 636.916 177.104 636.868C177.794 637.533 177.739 637.339 178.17 638.229C180.44 643.345 185.135 639.654 187.355 637.969C187.448 637.871 187.759 637.841 187.879 637.815C188 637.786 187.518 637.797 187.903 637.838C188.29 637.878 188.313 637.853 188.049 637.834C187.783 637.816 188.097 637.833 188.145 637.832C188.193 637.831 188.195 637.928 188.12 637.808L188.682 638.114C188.609 638.091 188.409 637.851 188.585 638.068C188.758 638.282 188.881 638.4 188.633 638.067C188.382 637.731 188.936 638.689 188.858 638.425L188.907 638.472C188.988 638.837 188.859 638.473 188.907 638.472C188.955 638.471 188.928 639.297 188.962 638.761C189.091 638.089 188.951 637.389 188.575 636.814C188.199 636.236 187.615 635.829 186.947 635.676C186.28 635.527 185.583 635.644 185.002 636.003C184.426 636.361 184.008 636.936 183.847 637.601C183.682 638.266 183.784 638.972 184.133 639.567C184.478 640.163 185.04 640.599 185.699 640.787C186.355 640.972 187.059 640.893 187.658 640.565C188.254 640.236 188.7 639.685 188.897 639.032C188.877 639.115 188.845 639.198 188.807 639.275C188.647 639.592 189.016 639.006 188.784 639.299C187.261 640.9 189.751 643.3 191.249 641.676C195.083 636.304 187.871 631.761 183.753 636.337C183.73 636.361 183.375 636.635 183.634 636.462C183.896 636.286 183.493 636.561 183.446 636.61C183.4 636.659 182.05 637.433 182.595 637.158C182.344 637.273 182.08 637.352 181.807 637.387C181.856 637.435 182.168 637.359 181.83 637.363L181.588 637.369C181.324 637.35 181.685 637.317 181.684 637.368L181.491 637.323C181.13 637.257 181.758 637.439 181.564 637.346C181.37 637.252 181.634 637.272 181.638 637.417L181.49 637.274C181.815 637.729 181.339 636.987 181.314 636.865C178.955 631.193 171.733 631.976 168.906 636.239C168.704 636.393 168.492 636.534 168.269 636.661C168.006 636.788 168.27 636.709 168.292 636.636C168.314 636.563 167.934 636.765 167.838 636.767C167.742 636.769 168.079 636.811 167.886 636.766C167.693 636.721 167.453 636.726 167.742 636.769C168.031 636.812 167.645 636.722 167.621 636.747C167.598 636.771 167.716 636.697 167.694 636.77L167.475 636.653L167.598 636.771C167.524 636.7 167.056 636.296 167.427 636.654C165.688 630.727 152.861 630.545 155.233 637.741C156.34 639.659 159.278 637.912 158.148 636.019L158.102 636.068Z" fill="#D13535"/>
<path d="M88.1587 566.176C87.6583 566.404 88.1835 566.2 88.3028 566.174C88.4223 566.148 88.6612 566.096 88.3743 566.149C88.0874 566.202 88.3743 566.149 88.4469 566.172L88.9038 566.188C88.2054 566.127 89.1686 566.208 89.3153 566.303L89.1698 566.257L90.0244 566.7C89.4392 566.371 90.0738 566.747 90.1738 566.891C90.2738 567.034 90.5735 567.465 90.2711 566.938L90.6974 567.682C90.3969 567.153 90.7714 567.753 90.7519 567.923C90.7324 568.093 90.7448 567.583 90.7246 567.803C90.7063 568.02 90.7283 568.842 90.7596 568.213C88.6249 574.184 90.9957 576.611 96.2864 576.516C96.6434 576.546 96.9944 576.63 97.328 576.763C96.6693 576.461 97.912 577.043 97.9874 577.163C97.5214 576.808 98.2818 577.4 98.4064 577.567C98.531 577.734 98.7295 577.973 98.5064 577.711C98.2832 577.448 98.531 577.734 98.5558 577.758C98.7547 578.044 98.9243 578.349 99.0586 578.671C99.1598 578.863 99.0119 578.72 99.0314 578.55C99.0528 578.379 99.2907 579.271 99.3244 579.633C99.3582 579.996 99.2531 579.659 99.3451 579.512L99.3705 580.529C99.2951 580.41 99.3847 580.166 99.3457 580.505C99.31 580.738 99.2524 580.965 99.1718 581.185L99.2614 580.942C96.6726 584.16 99.2284 588.182 103.035 588.454C104.316 588.648 104.939 588.59 106.226 589.026C105.691 588.793 106.566 589.166 106.616 589.261L106.961 589.594C106.514 589.021 107.187 589.953 107.14 590.002L107.063 589.786C107.196 590.111 107.285 590.451 107.328 590.799C107.353 591.298 107.349 591.801 107.318 592.3L107.361 592.106C107.239 592.93 107.067 593.757 106.87 594.56C106.298 596.701 109.664 597.536 110.163 595.372C111.976 590.038 109.709 585.066 104.203 585.189C102.972 585.042 102.803 585.02 101.973 584.502L101.578 584.122C101.822 584.263 101.753 584.385 101.652 584.193L101.527 583.977C101.673 584.072 101.656 584.338 101.552 584.049L101.499 583.857L101.554 584.098C101.528 584.026 101.55 583.953 101.548 583.904C104.74 579.706 101.425 572.308 94.4405 572.99L94.6327 572.987C94.3663 572.974 94.0986 572.939 93.837 572.879L93.6189 572.81C93.6423 572.786 93.9837 572.974 93.6423 572.786C93.3009 572.598 93.1296 572.48 93.5697 572.763L93.4216 572.62C93.1751 572.382 93.5192 572.667 93.4958 572.691L93.3204 572.428C93.4659 572.474 93.4257 572.765 93.3958 572.548C93.3659 572.331 93.3659 572.331 93.3166 572.283C93.2674 572.236 93.3491 572.597 93.3426 572.355C93.3361 572.114 93.7082 570.679 93.9712 569.657C95.2582 565.373 90.3915 561.246 86.4246 563.229C84.5266 564.28 86.2856 567.251 88.1821 566.152L88.1587 566.176Z" fill="#D13535"/>
<path d="M140.123 531.137C141.185 530.27 143.347 530.184 144.734 530.764C145.267 530.987 145.776 531.27 146.246 531.609L146.172 531.538C146.849 532.066 147.463 532.672 147.998 533.345C150.855 536.951 151.622 543.499 154.387 548.146C163.259 560.337 178.252 575.833 192.482 581.001C199.06 583.38 208.26 579.971 208.471 572.146C208.362 569.727 204.788 570.154 205.063 572.498C205.064 572.448 205.105 572.206 205.04 572.523C204.985 572.969 204.884 573.409 204.736 573.836C204.604 574.273 204.875 573.541 204.716 573.957C204.518 574.382 204.287 574.791 204.026 575.179C203.98 575.276 203.913 575.447 204.096 575.105C202.867 576.943 200.391 578.005 198.714 578.228C197.765 578.345 196.805 578.354 195.852 578.254C191.363 577.705 185.986 574.362 181.722 571.291C174.045 565.447 166.291 557.547 159.699 549.917C158.857 548.963 156.578 545.396 156.138 544.168C153.737 536.705 150.029 524.254 139.816 527.486C135.636 528.698 137.164 533.005 140.123 531.137Z" fill="white"/>
<path d="M185.763 587.417C184.344 587.418 181.694 587.222 180.873 587.141C176.284 586.629 171.777 585.52 167.462 583.845C164.186 582.667 158.281 579.431 155.534 577.301C148.009 571.843 141.765 563.648 138.362 555.647C137.314 553.22 136.095 549.682 135.705 547.607C135.58 546.447 135.551 546.278 135.967 545.592C136.035 545.422 135.875 545.739 135.852 545.764C135.829 545.788 136.037 545.519 136.061 545.494L136.224 545.322C136.201 545.347 135.893 545.521 136.06 545.446C136.17 545.383 136.274 545.307 136.366 545.223C136.604 545.072 136.08 545.325 136.366 545.223L136.655 545.168C136.586 545.29 136.317 545.176 136.535 545.194C136.752 545.215 136.608 545.217 136.559 545.17L136.729 545.24C141.318 545.037 137.68 539.121 133.617 543.044C128.852 548.648 138.697 564.14 142.457 569.182C149.158 577.828 158.224 584.32 168.526 587.845C171.339 588.763 187.477 593.367 187.489 589.081C187.471 588.628 187.277 588.199 186.951 587.883C186.624 587.568 186.189 587.393 185.738 587.394L185.763 587.417Z" fill="white"/>
<path d="M447.63 527.709L447.475 527.787C447.48 527.78 447.487 527.776 447.497 527.774C447.504 527.774 447.512 527.778 447.52 527.786L447.63 527.709Z" fill="#452D34"/>
<path d="M339.582 761.548C342.372 762.794 345.043 764.294 347.561 766.032C348.296 766.552 349.463 766.118 349.853 765.361C351.103 762.458 343.218 759.815 341.213 758.541C339.21 757.269 337.631 760.518 339.582 761.548Z" fill="#452D34"/>
<path d="M445.915 528.329C446.003 528.278 445.98 528.253 445.758 528.357L445.915 528.329Z" fill="#452D34"/>
<path d="M152.5 479.37C151.286 477.963 150.971 476.007 150.9 474.144C150.448 463.886 155.633 453.915 163.405 447.337C171.178 440.758 181.293 437.43 191.447 436.547C201.601 435.665 211.874 432.867 221.841 435.062C235.799 438.131 250.3 441.722 259.882 452.472C260.921 453.615 264.873 456.717 264.873 456.717C264.418 445.418 258.491 430.778 254.398 425.887C251.446 422.332 242.502 414.937 235.475 412.932C231.912 411.906 211.731 405.34 202.748 404.943C199.087 404.766 195.426 404.589 191.778 404.945C185.208 405.581 178.909 407.848 173.446 411.542C168.101 415.172 163.726 420.068 158.804 424.248C149.738 431.987 138.155 437.254 131.6 447.225C125.044 457.196 122.664 484.889 126.616 485.109C137.36 485.693 137.996 493.719 137.996 493.719C139.447 493.089 145.311 491.895 147.002 491.21C147.002 491.21 148.61 481.57 152.574 479.441C152.597 479.416 152.525 479.394 152.5 479.37Z" fill="#D13535"/>
<path d="M384.669 718.882C378.986 716.758 372.013 717.777 367.598 722.067C365.905 724.543 369.26 725.985 370.794 723.778C371.58 723.191 372.43 722.695 373.329 722.307C384.975 717.619 395.047 728.699 393.602 740.102C390.945 754.873 376.793 766.068 366.429 775.767C359.764 781.431 352.267 784.59 344.369 787.127C341.519 788.582 339.021 790.662 336.096 791.998C336.073 792.023 336.025 792.024 336.002 792.048L335.955 792.097C335.459 792.317 334.937 792.482 334.404 792.584L334.237 792.611L334.139 792.615C333.945 792.616 333.753 792.603 333.56 792.575L333.343 792.506C332.991 792.359 332.657 792.178 332.344 791.966L332.196 791.824C331.8 791.513 331.436 791.162 331.11 790.777L330.987 790.659C326.582 783.959 326.651 774.298 323.253 766.391C321.606 761.264 320.08 756.108 318.843 750.901L318.794 750.854C318.8 750.848 318.803 750.839 318.801 750.829C318.803 750.819 318.799 750.811 318.793 750.805C318.74 750.299 318.735 749.788 318.778 749.281L318.819 748.99C318.88 748.496 318.982 748.009 319.12 747.53C319.168 747.397 319.231 747.265 319.302 747.141C326.514 744.131 326.909 741.726 331.231 734.702C335.095 729.547 342.896 723.185 349.065 727.386C350.654 728.447 351.658 731.02 351.464 731.967C351.434 732.264 351.375 732.556 351.296 732.841L351.228 733.062C347.097 739.988 341.842 746.254 337.297 752.923C336.238 754.829 339.239 756.493 340.297 754.539C344.846 747.969 349.907 741.705 354.114 734.946C357.037 728.794 350.739 722.246 344.517 722.625C334.667 723.138 328.421 732.039 324.025 739.938C323.55 740.591 322.999 741.186 322.387 741.71C322.668 741.463 322.269 741.784 322.245 741.809C321.894 742.067 321.522 742.292 321.133 742.482L321.108 742.459C317.4 743.326 315.85 745.747 315.571 749.022C314.88 749.302 314.194 749.676 313.545 749.76C297.04 751.557 277.905 751.147 262.279 750.624C254.353 701.615 245.538 648.915 215.328 608.222C225.971 602.9 235.427 594.402 231.22 581.234C230.511 578.895 229.322 576.618 229.523 574.12C229.968 570.77 234.519 568.075 235.388 564.379C237.123 557.835 231.794 552.603 225.832 551.765C226.494 551.317 227.156 550.87 227.816 550.325C234.879 545.188 240.275 537.876 244.51 530.295C245.974 529.204 254.008 510.176 258.783 495.418C258.988 495.584 259.229 495.697 259.487 495.747C259.743 495.797 260.009 495.783 260.258 495.706C273.137 493.201 278.51 477.368 273.507 465.98C272.792 464.404 271.966 462.882 271.035 461.424C271.216 461.259 271.359 461.056 271.454 460.828C271.548 460.6 271.59 460.354 271.579 460.107C270.716 442.181 266.589 419.786 248.205 411.977C233.436 405.388 202.928 397.603 187.703 403.418C178.803 406.313 172.069 413.042 165.395 419.311C158.722 425.58 150.171 429.896 143.157 436.026C133.992 443.67 129.965 455.655 128.816 467.298C128.75 469.404 127.765 478.041 128.327 483.115C123.315 481.874 117.981 483.107 114.372 486.9C108.842 492.712 109.448 502.361 115.711 508.399C121.974 514.438 131.601 514.655 137.131 508.842C140.389 505.418 141.497 500.726 140.637 496.165C142.518 495.38 147.304 493.481 150.115 492.365L150.663 492.136L150.76 494.121C149.184 498.362 147.839 503.203 150.734 507.316C152.486 510.046 154.388 512.966 157.598 513.369L157.828 513.873C157.797 513.942 157.791 514.018 157.809 514.091L157.659 515.79L157.54 516.759C157.228 516.347 156.888 515.957 156.524 515.591C151.425 509.968 142.361 509.16 136.235 513.362C132.146 516.219 127.848 519.395 125.583 524.011C124.485 526.209 124.751 529.158 123.651 531.26C122.547 533.363 118.707 533.722 117.256 536.192C115.802 538.663 115.492 541.574 115.805 544.474C102.13 538.325 106.946 542.356 105.609 521.8C104.894 498.303 101.624 474.107 97.7661 450.932C86.3265 418.151 33.0515 353.858 57.9761 329.202C58.8209 328.364 -19.9749 280.552 47.3298 324.145C-17.9854 272.839 30.7439 313.483 30.8229 313.357C35.8909 313.994 -41.8389 329.729 -38.017 326.755C-30.9662 321.133 42.5288 322.256 55.4893 320.174C59.4893 314.728 48.4094 325.369 50.2246 318.194C53.3536 308.744 -19.449 302.504 -29.5615 307.865C-28.9825 257.518 -41.8638 260.339 -29.5616 310.166C-34.1144 310.876 49.9235 296.248 50.2246 301.496C-56.1793 373.326 19.7799 465.904 40.3113 595.334C26.7457 623.057 11.3149 650.569 -6.24925 676.085C-7.52818 677.826 -5.08577 680.228 -3.78348 678.462C13.8287 653.84 28.4291 627.165 43.2303 600.727C44.0248 599.649 44.541 598.385 44.7307 597.049C44.9187 595.716 44.7307 590.742 44.7307 590.742C33.348 523.251 -13.324 419.214 -8.92875 361.274C-6.44201 328.493 9.80809 312.428 47.3298 324.145C52.1476 337.134 44.2744 320.663 54.9411 329.466C2.89341 291.216 11.2219 332.901 54.4951 329.026C34.2238 350.282 59.8261 377.72 68.9184 405.065C68.6558 405.189 96.0321 448.133 95.8607 448.369C96.7713 449.486 91.3522 433.273 88.316 435.023C86.4441 436.146 93.7871 451.896 94.6167 453.353C92.4352 454.652 96.5119 452.206 94.6167 453.353C94.9226 455.964 95.9149 459.094 95.962 460.933C97.9746 473.923 99.7482 486.966 100.92 500.045C102.094 513.121 102 526.537 102.909 539.692C104.119 543.739 108.87 545.204 112.369 546.545C113.796 547.03 115.179 547.637 116.504 548.361C116.805 549.833 117.157 551.302 117.408 552.678L117.438 552.895C106 554.382 74.4869 553.516 75.6907 570.635C79.22 578.951 83.8304 587.124 89.8708 593.893C102.817 610.248 121.798 596.908 135.229 588.656C136.148 587.937 137.914 587.324 138.61 586.344C142.889 590.457 147.603 594.084 152.668 597.158L152.551 597.281C143.888 603.852 146.251 650.66 157.73 652.659C166.937 653.318 176.115 653.809 185.32 654.42C187.135 654.816 189.026 654.567 190.671 653.717C192.317 652.866 193.613 651.467 194.341 649.756C203.25 635.723 197.413 618.104 192.959 612.252C199.518 612.811 206.118 612.138 212.282 609.582C241.314 647.441 251.703 704.35 258.875 750.176C254.796 749.645 250.694 749.088 246.631 748.287C244.525 747.767 243.72 751.099 245.874 751.618C250.78 752.573 255.727 753.187 260.699 753.825C262.665 754.492 265.969 753.852 267.541 754.186C271.465 754.285 275.362 754.315 279.261 754.342C287.61 754.362 295.932 754.311 304.22 753.896C304.45 758.179 304.847 762.482 305.291 766.783C306.422 777.272 308.714 787.981 314.332 797.082C279.957 810.405 239.324 821.755 207.605 800.337C203.761 797.424 200.291 794.047 197.269 790.278C189.904 780.579 185.382 769.183 182.839 757.098C182.84 756.734 182.767 756.373 182.62 756.036C178.734 736.519 179.928 715.287 182.821 696.399L183.263 693.945C183.666 691.783 180.348 690.947 179.945 693.109C177.079 709.189 176.03 725.648 177.356 741.943C177.7 747.164 178.379 752.359 179.385 757.5C175.898 770.855 170.421 783.565 167.055 796.942C166.531 799.082 169.848 799.919 170.347 797.755C172.994 787.322 176.926 777.277 180.179 767C180.384 766.091 180.651 765.195 180.977 764.324C192.653 807.456 228.755 823.326 277.117 812.246C295.372 808.362 312.964 801.9 330.047 794.43C333.382 796.887 338.24 795.906 345.912 790.176C368.891 784.658 420.944 738.745 384.669 718.882ZM53.9975 330.413C49.2075 326.503 54.4227 322.402 50.9698 317.137C48.2242 313.132 -47.0104 327.629 -48.9592 323.181C-49.6348 322.151 -45.651 315.047 -46.4708 314.021C-41.9794 311.834 -24.3265 300.767 -19.8069 298.749C-17.3564 310.981 41.6536 321.5 51.014 329.202C41.3378 319.746 57.3266 326.98 53.9975 330.413ZM50.2246 318.194C33.3916 312.482 -54.7207 294.417 57.9761 332.462L51.014 325.591C41.5455 317.406 -0.102111 331.318 -0.218061 318.173C-130.158 313.019 -50.423 313.885 -50.9499 310.166C-54.9253 294.717 -8.93942 301.318 6.74719 293.775C10.6627 291.648 7.87004 286.39 10.7253 288.954C16.736 293.569 12.6863 290.825 12.7143 298.597C12.6867 298.674 -7.678 307.601 -7.6779 307.684C-7.91243 309.168 -24.578 293.987 -25.0864 295.399C-26.1929 298.251 -19.065 289.179 -20.6092 291.846C-20.6925 292.093 -18.4604 308.996 -18.6205 309.201C-20.5889 313.132 -29.3713 321.349 -30.5564 325.591C-31.0796 327.731 6.24908 327.755 6.74769 325.591C7.09704 324.18 24.0518 317.573 24.2998 316.915C-135.768 314.045 53.5212 319.671 53.9975 317.58C54.1542 317.429 2.89115 307.684 22.4366 307.684C7.01721 308.925 -21.7617 309.936 -20.6092 306.041C-20.3563 305.926 -25.2487 292.071 -25.0845 291.846L-46.4708 298.595C-45.7493 297.637 -102.44 293.646 -15.5069 291.846C-92.9793 290.948 -36.5113 316.425 -35.9094 316.454L13.7103 284.614C15.232 284.854 -80.0542 294.867 -10.4207 291.846C-9.89844 292.255 -217.938 287.657 -25.086 301.496L12.7156 296.666C14.7512 299.148 33.794 314.878 33.6048 316.915C32.5047 324.779 60.1185 313.918 55.4893 320.174C51.7831 324.865 16.6617 298.968 22.4366 307.684C18.4085 312.961 50.4233 316.102 44.2256 316.454L50.2246 318.194ZM271.738 472.113C273.132 479.691 269.429 488.304 262.339 491.432C261.515 491.777 260.66 492.043 259.785 492.229C260.363 490.33 260.871 488.553 261.287 486.923C261.991 487.177 262.568 486.223 262.997 485.125C263.666 485.864 264.447 486.335 265.421 485.809C268.761 483.788 259.094 475.365 257.482 473.432C248.832 465.281 239.222 457.245 227.35 454.865C212.761 451.566 197.444 454.695 184.385 461.514C181.867 462.769 167.43 471.234 163.083 476.251C162.655 476.272 162.253 476.461 161.965 476.779L161.848 476.902L161.824 476.878L161.586 476.979L161.561 476.956L161.128 476.963L160.595 476.828C159.937 476.476 160.11 476.643 159.591 476.095C159.366 475.787 159.172 475.458 159.012 475.113C159.141 475.425 158.936 474.944 158.934 474.847C158.799 474.48 158.701 474.101 158.64 473.715C158.634 473.709 158.628 473.701 158.625 473.693C158.621 473.685 158.619 473.676 158.619 473.667C158.619 473.658 158.62 473.649 158.624 473.641C158.627 473.632 158.632 473.625 158.638 473.618C157.103 458.586 167.817 445.635 180.767 440.223C207.427 429.942 263.65 438.626 271.738 472.113ZM161.586 476.979C161.609 476.955 161.634 476.979 161.586 476.979ZM134.441 506.154C130.34 510.465 123.093 510.231 118.31 505.619C113.526 501.007 113.006 493.752 117.107 489.442C121.208 485.132 128.43 485.342 133.214 489.954C137.998 494.566 138.566 501.82 134.441 506.154ZM140.995 492.26C140.52 492.371 140.057 492.525 139.612 492.72C138.705 490.664 137.406 488.804 135.792 487.244C134.649 486.126 133.353 485.179 131.944 484.432C131.129 470.282 132.103 454.599 141.048 443.012C146.791 436.082 154.886 431.798 161.992 426.466C172.255 418.511 180.77 407.028 194.457 405.065C202.292 403.836 210.224 405.487 218.022 406.583C229.792 408.722 241.941 411.605 252.278 417.982C263.881 426.855 267.006 442.901 268.015 457.144C246.092 430.198 189.649 423.286 165.551 446.377C158.072 454.089 152.485 466.222 156.102 477.029L156.255 477.365C150.421 482.602 150.116 483.866 150.426 488.51C147.306 489.751 144.138 490.994 140.995 492.26ZM163.04 509.736C163.113 506.926 164.785 502.636 162.319 500.258C158.933 497.705 154.908 494.482 155.245 489.755C155.39 486.92 155.935 481.826 157.939 479.272C158.867 479.956 159.973 480.35 161.119 480.402C159.115 483.948 157.854 488.305 159.061 492.254C160.08 495.456 164.598 497.167 166.935 494.462C168.677 491.986 165.059 490.67 164.282 492.282C164.258 492.306 164.234 492.283 164.21 492.307C164.136 492.325 164.064 492.351 163.996 492.384L163.659 492.39C163.586 492.367 163.538 492.368 163.562 492.343C163.585 492.319 163.466 492.345 163.393 492.322L163.319 492.251L162.905 492.04L162.88 492.016C162.069 491.329 161.901 489.467 162.042 488.375C162.32 485.73 163.248 483.201 164.743 481.015C164.91 480.764 164.995 480.467 164.988 480.163C164.98 479.86 164.88 479.566 164.7 479.321C166.442 480.755 167.872 482.535 168.898 484.549C169.403 485.508 169.838 486.542 170.671 487.156C171.922 488.078 173.742 487.755 174.895 486.742C176.048 485.729 176.611 484.194 176.789 482.665C176.967 481.136 176.879 479.588 176.961 478.062C177.14 474.351 178.313 470.767 180.355 467.687C183.678 465.648 187.137 463.839 190.707 462.273C200.463 458.031 211.167 456.073 221.421 457.271C228.624 462.421 233.773 471.021 242.343 473.145C244.957 473.777 247.723 473.751 250.315 474.456C253.869 475.38 256.963 477.604 258.988 480.693C252.021 511.47 231.101 573.703 191.32 545.504C190.093 544.557 187.32 542.354 185.764 540.76C184.415 539.742 182.948 536.911 181.138 538.615C180.837 538.945 180.673 539.383 180.684 539.834C180.696 540.285 180.881 540.714 181.2 541.034C185.28 545.634 190.194 549.41 195.675 552.156C195.466 552.398 195.271 552.653 195.093 552.917C188.572 550.818 182.437 547.645 176.933 543.532C170.783 539.113 167.589 532.682 165.368 525.675C164.376 523.537 162.278 522.413 160.441 521.164L160.367 521.093C161.007 518.779 160.896 515.368 161.197 513.959C162.259 512.797 162.906 511.313 163.04 509.736ZM163.707 492.389L163.732 492.413C163.78 492.412 163.755 492.388 163.707 492.389ZM164.044 492.383C164.067 492.358 164.115 492.358 164.092 492.382C164.085 492.376 164.077 492.372 164.068 492.373C164.059 492.373 164.05 492.376 164.044 492.383ZM201.194 554.455L198.726 553.968C198.797 553.844 198.867 553.77 198.936 553.648C199.689 553.95 200.417 554.228 201.194 554.455ZM116.441 595.334C111.847 597.23 107.457 598.664 102.711 598.385L102.494 598.365C101.908 598.275 101.335 598.13 100.775 597.935L100.557 597.866C99.2479 597.264 98.0106 596.514 96.8678 595.632C88.9213 589.674 82.7252 578.646 78.8846 569.465L78.8819 569.368L78.8621 568.545C78.9111 568.145 79.0155 567.751 79.1692 567.377C79.8392 566.037 80.8052 564.869 81.9928 563.962C85.4569 561.067 92.6143 558.761 97.4831 558.166C104.122 557.201 110.885 557.298 117.523 556.333C117.736 556.338 117.949 556.3 118.147 556.224C121.02 567.117 128.347 576.162 136.242 584.013C129.917 587.878 122.676 592.606 116.441 595.334ZM192.995 619.369C193.708 620.858 194.914 624.806 195.241 627.295C195.987 632.076 195.614 638.281 193.606 643.522C193.366 644.373 191.232 648.552 190.555 649.363C190.307 649.731 190.015 650.071 189.691 650.37C189.482 650.573 189.243 650.742 188.982 650.868C188.746 650.95 188.506 651.017 188.264 651.074C178.343 650.719 166.079 649.847 157.423 649.106L157.204 648.989L156.907 648.702C152.715 641.78 151.479 633.836 151.082 625.707C150.844 618.206 150.01 610.983 152.435 604.111C152.704 603.283 154.148 600.473 155.017 599.659C155.241 599.427 155.399 599.14 155.477 598.827C160.185 601.493 165.093 603.778 170.156 605.66C176.169 608.483 182.673 610.74 189.316 611.807C189.263 612.177 189.242 612.549 189.248 612.923C190.749 614.912 192.008 617.079 192.995 619.369ZM212.357 605.878C212.257 605.896 212.162 605.93 212.071 605.98C199.384 611.312 184.965 609.077 171.303 602.517C156.478 597.131 143.316 587.879 133.169 575.714C127.085 569.091 122.313 561.186 120.763 552.232C120.464 550.857 120.115 549.386 119.836 547.889C119.887 547.683 119.913 547.472 119.916 547.26C119.891 546.914 119.757 546.585 119.532 546.321C119.057 543.74 118.873 541.2 119.518 539.13C119.677 538.707 119.884 538.306 120.137 537.934C126.594 533.533 126.958 534.641 128.47 525.896C129.173 524.164 130.802 522.054 132.661 520.398C133.496 519.173 136.371 517.79 137.873 516.311L137.967 516.213C140.505 514.453 143.599 513.692 146.67 514.072C147.71 514.226 148.731 514.485 149.722 514.84C153.654 516.272 154.831 519.06 156.652 521.667C156.653 522.049 156.78 522.422 157.016 522.724C157.249 523.027 157.578 523.242 157.946 523.338C157.953 523.344 157.961 523.349 157.971 523.347C157.98 523.347 157.988 523.344 157.994 523.337C158.874 524.291 159.912 525.084 161.062 525.679C163.052 527.363 163.248 530.337 164.221 532.644C165.333 535.452 166.885 538.066 168.817 540.384C179.989 553.09 198.061 559.934 214.686 558.113C219.44 556.794 224.373 553.05 229.194 556.33L229.661 556.685C230.081 557.019 230.469 557.394 230.82 557.802L231.421 558.76L231.724 559.336C232.163 560.514 232.322 561.092 232.28 562.28C232.271 562.467 232.252 562.653 232.222 562.837L231.981 563.786C231.26 565.687 228.718 567.961 227.449 570.04C222.639 578.675 233.771 585.11 225.873 596.194C222.079 600.321 217.481 603.618 212.357 605.878ZM321.384 794.294C323.088 792.3 321.044 786.55 320.226 784.627C319.405 782.706 316.179 784.458 317.31 786.399C319.507 790.452 317.371 794.436 319.908 794.9C319.122 795.23 318.31 795.534 317.55 795.837C316.206 793.736 315.033 791.53 314.039 789.242C311.948 784.581 310.019 776.819 309.34 771.868C308.663 766.918 307.99 760.223 307.69 755.071C307.97 754.942 308.217 754.748 308.407 754.507C308.597 754.262 308.728 753.976 308.786 753.672C311.139 753.531 313.515 753.322 315.712 752.603C316.837 761.057 322.756 772.43 323.114 778.065C324.346 783.926 325.668 788.697 327.623 791.759C325.575 792.618 323.501 793.456 321.384 794.294Z" fill="#452D34"/>
<path d="M378.456 756.765C373.352 767.944 361.217 773.294 351.407 768.699C341.594 764.103 334.692 754.663 347.197 741.123C353.469 734.279 350.157 718.383 369.962 728.127C379.705 732.941 383.586 745.559 378.456 756.765Z" fill="#EFDCC4"/>
<path d="M346.062 762.935C343.57 760.533 341.985 757.776 341.383 754.833C340.304 749.308 342.656 743.359 348.368 737.157C349.939 735.457 350.861 732.948 351.81 730.508C353.25 726.658 354.763 722.685 358.739 721.088C362.243 719.742 366.882 720.581 373.337 723.735C378.549 726.304 382.397 730.956 384.156 736.807C385.918 742.661 385.381 749.038 382.737 754.848C380.068 760.684 375.542 765.243 370.02 767.665C364.502 770.087 358.442 770.147 353.207 767.697C350.584 766.514 348.171 764.905 346.062 762.935ZM375.952 730.079C374.702 728.877 373.27 727.881 371.715 727.128C366.428 724.534 362.511 723.684 360.129 724.598C357.745 725.514 356.569 728.488 355.283 731.875C354.246 734.654 353.139 737.506 351.128 739.723C346.258 744.991 344.191 749.846 345.07 754.138C346.145 759.519 351.591 762.788 354.756 764.281C358.992 766.286 363.899 766.249 368.516 764.229C373.325 762.015 377.165 758.12 379.327 753.263C383.203 744.816 381.624 735.547 375.952 730.079Z" fill="#452D34"/>
<path d="M802.606 551.343C769.63 419.937 802.773 188.41 881.4 151.123C960.027 113.836 1070.35 207.099 1103.33 338.505C1136.3 469.911 1124.81 607.836 1046.18 645.123C967.555 682.41 835.582 682.749 802.606 551.343Z" fill="#D6F9F7" fill-opacity="0.66"/>
<g clip-path="url(#clip1_480_11864)">
<path d="M758.678 683.365C720.091 671.207 718.589 605.967 718.944 605.977C720.496 605.847 731.385 587.321 740.993 578.475C727.7 581.627 715.664 588.57 706.563 599.157C706.762 617.739 712.746 634.669 714.638 639.244C715.977 642.495 716.595 645.999 716.449 649.513C716.303 653.026 715.397 656.467 713.793 659.596C702.547 681.512 700.771 709.982 722.114 725.958C722.114 725.958 754.198 713.149 754.384 712.875C754.57 712.602 751.042 695.822 752.392 694.848C759.289 694.167 763.683 694.073 763.683 694.073C763.683 694.073 762.345 689.616 758.678 683.365Z" fill="#452D34"/>
<path d="M822.449 605.406C819.394 600.796 788.027 579.823 763.121 576.81C763.759 577.534 764.289 578.345 764.697 579.219C778.733 608.523 798.949 604.618 798.902 674.126C798.862 716.48 823.615 704.413 820.051 741.662C814.365 800.365 900.005 798.186 914.405 767.638C935.473 723.027 891.796 665.316 848.704 645.232C828.583 635.842 823.107 620.601 822.449 605.406Z" fill="#452D34"/>
<path d="M862.862 663.728C863.904 664.52 864.923 665.288 865.938 666.106C867.842 666.874 870.401 672.102 873.094 670.305C876.46 667.288 858.278 655.038 862.862 663.728Z" fill="white"/>
<path d="M715.117 666.184C712.487 671.622 711.25 677.628 711.517 683.662C711.564 684.602 712.222 685.51 713.262 685.516C714.303 685.523 715.163 684.762 715.117 683.771C715.037 682.385 715.045 680.995 715.142 679.61L715.357 677.535L715.45 676.954C715.489 676.524 715.418 677.182 715.455 676.802L715.665 675.717C715.935 674.352 716.298 673.006 716.752 671.69L717.42 669.731L717.855 668.779C717.884 668.653 717.883 668.704 717.801 668.879L717.912 668.578L718.156 668.052C718.588 667.203 718.469 666.083 717.57 665.599C716.672 665.115 715.55 665.284 715.117 666.184Z" fill="white"/>
<path d="M711.206 693.905C710.767 694.986 710.551 696.145 710.57 697.311C710.577 697.951 710.634 698.589 710.741 699.22C710.872 699.861 711.065 700.487 711.318 701.09C711.489 701.399 711.744 701.649 712.056 701.813C712.369 701.977 712.721 702.045 713.07 702.009C713.421 701.975 713.752 701.836 714.025 701.615C714.297 701.391 714.499 701.094 714.603 700.759L714.691 700.329C714.71 700.018 714.641 699.708 714.49 699.435L714.444 699.281L714.609 699.718C714.382 699.091 714.231 698.439 714.16 697.775L714.197 698.234C714.128 697.54 714.15 696.842 714.26 696.154L714.195 696.609C714.286 696.034 714.43 695.469 714.627 694.922C714.76 694.471 714.711 693.987 714.49 693.573C714.386 693.36 714.236 693.172 714.053 693.022C713.869 692.871 713.655 692.763 713.425 692.703C712.975 692.57 712.491 692.619 712.076 692.84C711.672 693.084 711.365 693.46 711.206 693.905Z" fill="white"/>
<path d="M758.499 570.175C758.991 570.198 759.482 570.246 759.967 570.321C762.518 570.727 765.817 572.401 768.316 574.532C773.37 578.593 778.29 586.229 784.596 589.999C784.799 590.122 785.024 590.206 785.259 590.242C785.495 590.278 785.734 590.268 785.965 590.211C786.196 590.154 786.412 590.053 786.603 589.911C786.794 589.77 786.955 589.592 787.078 589.387C788.412 587.195 784.492 585.909 783.858 585.077C777.569 579.863 773.255 572.297 765.755 568.567C763.262 566.283 752.24 565.721 758.499 570.175Z" fill="white"/>
<path d="M791.301 595.758C797.872 599.13 803.947 592.131 795.952 592.956L796.386 592.892C795.586 592.99 794.774 592.975 793.976 592.845L794.431 592.909C791.814 591.334 787.842 593.446 791.301 595.758Z" fill="white"/>
<path d="M862.123 777.043C859.991 777.174 857.848 777.073 855.738 776.748C854.423 776.608 850.472 775.447 848.42 774.522C845.825 773.323 843.383 771.817 841.144 770.037C837.968 767.709 833.283 761.476 832.058 757.557C832.119 754.691 827.748 752.35 827.907 756.34C828.86 778.498 870.828 786.239 862.123 777.043Z" fill="white"/>
<path d="M825.169 734.38C824.743 735.094 824.61 735.946 824.794 736.756C824.904 737.292 824.966 737.776 825.052 738.286L824.963 737.825C825.101 739.015 825.073 740.219 824.881 741.402L824.946 740.947C824.606 742.104 824.533 743.701 825.967 744.074C831.404 744.721 827.941 729.998 825.169 734.38Z" fill="white"/>
<path d="M816.781 547.881C827.464 561.325 836.549 601.596 827.733 608.61C825.232 604.019 788.656 576.62 762.779 577.182C743.454 577.636 725.496 578.971 712.921 593.664L711.93 593.711C707.712 573.788 718.946 558.09 734.987 545.455C736.338 544.431 738.035 541.995 739.724 539.076C746.444 527.715 756.511 518.704 768.547 513.277C791.728 502.788 824.201 487.2 821.853 468.375C828.679 475.153 833.917 482.292 835.815 491.737C837.711 501.185 838.494 513.059 831.489 524.777C823.979 537.313 814.29 544.709 816.781 547.881Z" fill="#D13535"/>
<path d="M820.826 606.246C820.836 606.295 820.857 606.338 820.887 606.378C820.914 606.42 820.954 606.453 820.996 606.477C820.951 606.392 820.895 606.311 820.826 606.246Z" fill="#452D34"/>
<path d="M807.555 451.929C804.299 458.098 807.104 466.887 813.914 469.098C809.603 495.816 770.802 503.321 751.287 516.714C741.504 523.016 734.972 532.562 728.819 542.147C712.694 555.058 700.709 575.404 703.949 596.641C704.093 598.574 705.063 602.588 707.609 600.635C740.557 563.515 788.061 578.658 820.826 606.246C820.829 606.144 820.973 606.452 821.022 606.504C821.159 606.738 821.351 606.937 821.576 607.089C821.801 607.24 822.057 607.339 822.326 607.378C822.594 607.419 822.867 607.399 823.126 607.317C823.387 607.237 823.625 607.104 823.826 606.919C834.549 594.657 821.099 557.858 811.867 545.955C811.941 545.984 812.058 546.317 812.014 546.112C819.75 532.82 834.316 520.293 832.671 502.529C832.173 489.648 830.596 483.053 821.147 470.764C829.83 470.621 838.227 462.323 835.51 453.156C831.975 440.029 812.664 439.977 807.555 451.929ZM811.941 545.984C811.935 545.977 811.931 545.968 811.932 545.957C811.932 545.948 811.935 545.94 811.942 545.934L811.941 545.984ZM825.935 518.821C823.206 525.134 818.698 530.657 814.4 535.984C807.848 542.89 807.808 546.721 809.108 548.207C818.848 563.474 827.541 585.638 822.447 602.994C791.49 575.233 738.821 561.306 707.409 595.503C704.762 576.465 715.41 557.527 730.125 545.943C732.782 543.688 734.356 540.285 736.171 537.395C740.208 531.087 745.343 525.554 751.332 521.056C769.45 507.697 813.358 497.505 817.112 471.606C828.714 483.987 832.502 503.033 825.935 518.821ZM830.55 451.026C834.615 455.87 831.333 464.526 825.19 466.317L825.163 466.343C824.932 466.413 825.009 466.389 825.113 466.34C818.261 468.849 808.521 464.518 809.828 456.489C811.265 446.763 824.861 442.783 830.55 451.026Z" fill="#452D34"/>
<path d="M728.583 556.706C731.238 556.178 733.915 555.727 736.591 555.376L738.605 555.106L739.547 555.008L740.03 554.947C740.08 554.949 740.387 554.906 740.132 554.95C739.877 554.993 740.234 554.953 740.283 554.955L744.304 554.619C749.714 554.309 755.137 554.355 760.54 554.757C763.225 554.94 765.906 555.224 768.611 555.584C769.243 555.68 769.901 555.75 770.557 555.871C770.89 555.898 771.217 555.952 771.542 556.028C771.745 556.034 771.467 555.999 771.467 555.999L771.717 556.059L772.274 556.127C773.613 556.344 774.949 556.614 776.263 556.855C781.588 557.909 786.849 559.255 792.027 560.886C797.212 562.538 802.306 564.471 807.282 566.677C807.005 566.542 807.23 566.676 807.381 566.731C807.537 566.788 807.688 566.861 807.83 566.949L808.808 567.358C809.658 567.79 810.753 567.695 811.263 566.772C811.772 565.849 811.602 564.728 810.676 564.319C805.585 561.99 800.379 559.918 795.08 558.111C789.882 556.396 784.597 554.957 779.248 553.799C773.775 552.655 768.243 551.826 762.676 551.318C757.237 550.828 751.773 550.705 746.318 550.95C740.778 551.183 735.264 551.813 729.816 552.837L727.801 553.206C727.566 553.255 727.346 553.348 727.149 553.483C726.952 553.618 726.785 553.789 726.654 553.99C726.526 554.189 726.437 554.414 726.396 554.647C726.353 554.882 726.358 555.123 726.41 555.355C726.463 555.587 726.56 555.807 726.698 556.001C726.835 556.196 727.01 556.361 727.214 556.485C727.415 556.612 727.641 556.696 727.875 556.735C728.111 556.772 728.351 556.762 728.583 556.706Z" fill="white"/>
<path d="M752.313 699.946C752.592 701.603 752.746 703.232 752.923 704.886C753.204 707.383 753.509 709.905 753.864 712.376C754.221 714.849 754.465 716.835 754.984 719.009C755.218 720.001 755.565 720.967 756.012 721.881C756.34 722.45 756.714 722.987 757.132 723.49C757.431 723.912 757.757 724.311 758.11 724.686C759.039 725.649 760.059 726.522 761.152 727.29C763.085 728.577 765.191 729.581 767.407 730.272C768.634 730.65 769.89 730.917 771.163 731.07C773.417 731.354 775.693 731.424 777.958 731.276C784.359 730.96 790.686 729.777 796.769 727.76C803.588 725.479 810.26 722.257 815.56 717.315L817.182 715.689C818.033 714.865 818.529 713.742 818.572 712.56C818.61 711.375 818.178 710.221 817.374 709.35C816.535 708.564 815.438 707.921 814.245 707.962C813.051 708.003 811.85 708.296 811.035 709.158C809.513 710.772 807.837 712.235 806.031 713.524L807.017 712.845C803.481 715.304 799.642 717.294 795.594 718.765L796.673 718.342C792.34 719.931 787.859 721.08 783.298 721.77C782.123 721.987 780.953 722.105 779.755 722.245L780.901 722.102C777.668 722.435 774.364 722.59 771.157 722.061L772.295 722.223C770.74 721.964 769.226 721.5 767.793 720.842L768.872 721.308C767.467 720.71 766.152 719.93 764.957 718.981L765.9 719.721C765.053 719.029 764.299 718.229 763.662 717.343L764.342 718.327C764.089 717.976 763.879 717.594 763.718 717.192L764.115 718.295C763.769 717.247 763.512 716.169 763.349 715.074C763.041 713.543 762.835 712.015 762.602 710.46C762.188 707.35 761.827 704.193 761.464 701.086C761.319 700.041 761.223 698.998 761.026 697.951C760.829 696.904 759.952 695.71 759.006 695.124C758.003 694.527 756.813 694.327 755.673 694.567C754.545 694.886 753.41 695.564 752.844 696.637C752.268 697.637 752.08 698.814 752.313 699.946Z" fill="#EFDCC4"/>
<path d="M794.865 703.545L796.908 713.148C797.02 713.612 797.309 714.015 797.715 714.27C798.118 714.522 798.606 714.608 799.074 714.507C802.237 713.995 798.366 705.223 798.339 702.735C798.313 700.247 794.322 701.294 794.865 703.545Z" fill="#452D34"/>
<path d="M780.735 705.857L781.856 717.464C781.857 717.936 782.038 718.39 782.362 718.734C782.687 719.079 783.129 719.287 783.601 719.317C784.463 719.292 785.551 718.564 785.455 717.572L784.335 705.966C784.43 703.659 780.727 703.546 780.735 705.857Z" fill="#452D34"/>
<path d="M764.809 707.099C765.152 710.865 766.382 717.145 766.617 719.488C766.85 721.829 770.147 721.93 770.191 719.621C770.07 718.039 769.855 716.465 769.546 714.906C769.209 712.664 768.486 708.074 768.41 707.209C768.454 704.9 764.854 704.792 764.809 707.099Z" fill="#452D34"/>
<path d="M722.218 635.261C726.226 632.819 731.086 633.22 733.402 636.361C735.718 639.502 734.513 644.922 730.36 647.993C729.519 648.611 728.599 649.112 727.625 649.484C725.352 644.923 722.747 640.429 722.218 635.261Z" fill="#D13535"/>
<path d="M784.591 630.998C784.587 626.838 780.39 623.471 775.22 623.476C770.05 623.481 765.862 626.859 765.867 631.019C765.872 635.18 770.066 638.549 775.238 638.542C780.409 638.537 784.597 635.159 784.591 630.998Z" fill="#D13535"/>
<path d="M745.779 622.397C743.349 626.358 740.319 630.048 738.314 634.25C735.518 641.119 744.515 647.381 749.971 642.344C751.8 640.623 748.96 638.024 747.329 639.904C747.018 640.148 747.588 639.759 747.356 639.879C747.048 640.066 746.73 640.235 746.401 640.383C746.481 640.258 746.684 640.265 746.453 640.334C746.097 640.455 745.729 640.537 745.355 640.58C745.761 640.592 745.483 640.558 745.355 640.58C745.227 640.601 744.313 640.624 743.488 640.219C743.66 640.402 743.712 640.352 743.563 640.246C742.69 639.738 742.764 639.816 742.103 639.009C742.326 639.194 742.249 639.217 742.153 639.061C741.935 638.754 741.766 638.415 741.65 638.057C741.758 638.694 741.467 637.391 741.446 637.264C741.424 637.136 741.38 636.932 741.469 637.341C741.409 636.962 741.412 636.576 741.478 636.199C741.335 636.727 741.733 635.318 741.84 635.119C743.555 632.125 746.633 627.701 748.844 624.241C750.07 622.299 746.981 620.378 745.779 622.397Z" fill="#452D34"/>
<path d="M766.838 616.715C768.237 615.398 768.302 613.197 766.985 611.797C765.668 610.398 763.467 610.33 762.068 611.647C760.669 612.964 760.601 615.167 761.918 616.566C763.235 617.966 765.438 618.032 766.838 616.715Z" fill="#452D34"/>
<path d="M737.557 622.351C738.957 621.034 739.024 618.832 737.706 617.433C736.389 616.033 734.187 615.966 732.788 617.284C731.388 618.601 731.322 620.803 732.639 622.202C733.956 623.602 736.158 623.668 737.557 622.351Z" fill="#452D34"/>
<path d="M773.209 603.229C768.3 601.695 763.09 601.389 758.034 602.338C755.761 602.803 756.568 606.329 758.842 605.815L761.009 605.499C761.059 605.502 761.567 605.467 761.136 605.478C763.681 605.249 766.247 605.351 768.765 605.786C769.922 606.011 771.066 606.299 772.19 606.651C774.403 607.327 775.446 603.882 773.209 603.229Z" fill="#452D34"/>
<path d="M731.358 608.333C728.773 610.454 726.472 612.901 724.515 615.612C724.39 615.814 724.307 616.04 724.271 616.274C724.234 616.509 724.244 616.749 724.301 616.979C724.358 617.21 724.46 617.428 724.601 617.619C724.742 617.809 724.921 617.97 725.125 618.092C726.74 619.232 728.215 616.612 728.637 616.067C730.196 614.198 731.931 612.483 733.817 610.945C735.539 609.373 733.056 606.735 731.358 608.333Z" fill="#452D34"/>
<path d="M1027.53 663.131C1026.19 662.126 1022.81 659.055 1020.46 658.754C1019.92 657.877 1018.72 657.331 1017.68 658.265C970.452 685.079 901.532 694.871 846.397 692.084C845.436 691.953 844.57 692.918 844.543 693.829C843.908 697.188 857.57 696.002 859.995 696.43C913.168 695.351 971.93 688.223 1018.85 661.652C1029.34 666.107 1032.22 677.687 1036.13 687.348C1041.21 696.611 1036.47 703.83 1029.56 710.242C999.223 740.665 958.416 761.534 914.998 760.625C914.581 759.867 914.198 759.146 913.844 758.459C912.594 756.187 909.306 758.397 910.867 760.475C902.91 760.084 895.004 759.004 887.236 757.249C885.85 756.926 884.613 756.711 883.392 757.664C881.697 759.212 884.103 761.873 885.851 760.276C894.666 762.691 903.745 764.039 912.882 764.291C922.016 780.329 938.469 790.951 940.89 810.744C941.38 812.993 944.881 812.21 944.364 809.935C941.606 789.524 927.255 780.715 917.168 764.345C951.508 764.243 987.075 750.373 1013.79 728.976C1023.22 720.686 1045.17 705.843 1041.48 691.926C1040.02 686.552 1037.43 681.551 1035.61 676.319C1033.79 671.086 1031.41 666.676 1027.53 663.131Z" fill="#452D34"/>
<path d="M787.078 671.511C781.703 675.483 773.282 679.569 766.488 680.149C764.183 680.368 761.857 680.305 759.566 679.965C757.396 679.573 755.279 678.939 753.253 678.073C751.923 677.603 747.79 674.99 746.826 674.072C738.016 666.7 733.098 656.451 728.985 645.642C724.871 634.834 721.659 621.058 720.609 609.632C720.034 607.66 721.294 603.765 718.54 603.352C717.626 603.375 716.615 604.08 716.686 605.098C718.853 630.744 728.972 677.922 758.553 683.233C758.58 683.429 758.653 683.613 758.765 683.772C760.632 686.871 762.215 690.129 763.496 693.509L763.516 693.636C746.322 694.943 750.327 690.928 753.796 712.148C702.338 733.631 638.021 748.256 582.505 739.521C581.348 739.181 580.512 739.968 580.306 740.901C572.464 747.642 571.959 758.463 572.1 768.034C572.037 773.463 571.071 779.398 573.608 784.448C579.461 794.802 597.194 799.196 607.849 803.503C651.341 818.778 704.446 815.741 741.809 789.489C743.29 795.092 746.334 800.159 749.177 805.167C765.684 832.441 784.749 858.244 805.407 882.547C810.513 888.182 815.511 894.12 821.825 898.472C823.769 899.649 825.688 896.61 823.67 895.408C804.458 879.498 789.581 857.045 775.062 837.851C764.679 822.894 753.316 807.576 745.93 790.884C745.255 788.858 744.943 785.753 742.224 785.848C739.507 785.944 738.172 788.085 736.166 788.99C693.651 816.049 637.501 814.019 592.813 793.861C585.351 790.54 575.143 786.551 575.515 776.791C576.138 765.416 573.581 751.812 582.849 743.236C633.715 752.161 706.77 736.456 754.345 715.819C756.473 740.22 786.381 733.107 802.113 727.262C808.097 724.932 814.004 721.787 818.436 717.022C820.108 715.449 817.676 712.812 815.978 714.41C814.661 715.839 813.202 717.13 811.624 718.263C807.89 720.821 803.845 722.891 799.585 724.42C790.149 727.636 774.931 731.566 766.081 727.974C764.829 727.39 763.642 726.674 762.542 725.837C761.881 725.282 761.279 724.66 760.746 723.98C760.2 723.214 759.741 722.394 759.373 721.527C758.638 718.967 758.038 716.183 757.491 713.3C757.477 713.116 757.441 712.936 757.381 712.764C756.438 707.836 755.657 702.61 754.739 697.71C766.828 697.416 778.964 695.55 790.382 691.456C792.626 690.28 804.366 687.209 802.456 684.081C802.231 683.665 801.851 683.355 801.4 683.218C800.947 683.08 800.46 683.127 800.042 683.347C796.906 684.979 793.676 686.424 790.37 687.674C782.86 690.405 775.064 692.272 767.133 693.239C766.332 691.184 764.77 686.594 763.005 683.724C765.026 683.785 767.05 683.677 769.054 683.399C777.855 681.914 785.787 677.257 792.678 671.755C793.406 671.168 793.397 669.849 792.755 669.221C790.701 667.457 788.829 670.649 787.078 671.511Z" fill="#452D34"/>
<path d="M768.232 661.118C766.624 662.616 764.661 663.681 762.529 664.218C754.347 666.255 748.511 659.531 746.393 656.549C746.07 656.114 745.878 655.595 745.84 655.054C745.803 654.513 745.921 653.973 746.181 653.497C746.432 653.022 746.807 652.624 747.267 652.347C747.728 652.071 748.255 651.925 748.792 651.926L750.796 651.962C756.519 652.043 762.155 650.555 767.091 647.658L768.873 646.621C769.336 646.347 769.865 646.205 770.402 646.212C770.94 646.22 771.464 646.374 771.918 646.663C772.369 646.953 772.733 647.361 772.969 647.842C773.204 648.324 773.303 648.859 773.256 649.393C773.023 652.077 772.072 657.504 768.232 661.118ZM750.905 655.899C753.235 658.583 756.952 661.539 761.58 660.383C766.209 659.23 768.377 654.625 769.044 651.094C763.541 654.302 757.274 655.963 750.905 655.899Z" fill="#452D34"/>
<path d="M541.485 780.938C546.616 786.651 560.543 787.682 570.603 786.489C573.481 786.145 574.927 783.651 576.399 781.132C583.622 768.865 586.59 757.154 584.397 744.095C584.054 742.004 584.297 739.854 582.927 738.188C569.01 721.728 550.096 718.643 542.059 718.374C530.627 717.952 526.36 723.939 525.75 727.321L526.04 731.137C517.199 734.828 515.702 746.532 513.582 755.376C511.462 764.219 514.059 776.504 524.597 779.64C561.873 790.666 560.106 745.085 550.626 744.747" fill="#D13535"/>
<path d="M541.917 742.352L501.623 661.7C503.011 664.483 501.404 663.927 500.114 664.598C499.481 664.918 499 665.475 498.775 666.147C498.55 666.82 498.6 667.555 498.914 668.191L536.773 742.957L541.917 742.352Z" fill="#CE9C5C"/>
<path d="M555.421 768.265L561.686 780.941C561.846 781.256 561.938 781.601 561.957 781.953C561.976 782.305 561.921 782.658 561.796 782.988C561.672 783.319 561.48 783.619 561.233 783.871C560.986 784.124 560.69 784.322 560.362 784.453C559.696 784.706 558.961 784.702 558.298 784.443C557.636 784.184 557.093 783.688 556.775 783.051L551.235 771.564L555.421 768.265Z" fill="#CE9C5C"/>
<path d="M509.33 652.721C507.965 647.503 502.208 654.942 500.677 656.875C494.729 648.828 494.375 651.279 493.111 659.514C491.45 659.057 489.197 657.187 487.753 658.793C487.332 659.288 487.128 660.17 487.541 660.766C488.681 662.501 489.847 664.211 490.988 665.946C487.71 666.913 486.512 669.617 490.432 670.903C489.451 673.107 482.455 680.381 484.59 681.969C485.948 684.04 495.51 677.503 498.07 676.768C499.401 679.345 500.351 682.1 500.893 684.949C504.062 690.095 506.351 679.861 507.104 677.625C509.183 677.577 511.259 677.811 513.275 678.32C514.986 678.829 516.321 676.636 515.065 675.354C513.81 674.073 512.588 672.513 511.39 671.03C513.55 671.01 515.69 671.446 517.67 672.312C519.352 672.896 520.742 670.603 519.511 669.347C518.28 668.092 516.367 667.577 515.213 666.299C515.528 666.79 515.043 666.015 515.073 665.889C515.076 665.892 515.078 665.896 515.08 665.9C515.082 665.905 515.083 665.909 515.082 665.914C515.082 665.919 515.081 665.923 515.079 665.928C515.077 665.932 515.075 665.936 515.071 665.939C515.085 665.926 515.093 665.908 515.094 665.889C515.094 665.87 515.087 665.852 515.074 665.838C515.005 665.607 515.053 665.71 515.076 665.787C515.059 665.536 515.102 665.285 515.201 665.054C515.301 664.823 515.454 664.619 515.649 664.459C515.417 664.579 515.572 664.482 515.727 664.386L515.701 664.41C517.513 664.084 517.823 661.378 515.961 660.865C514.098 660.352 511.171 659.806 508.719 659.504C509.124 657.266 509.328 654.996 509.33 652.721ZM515.254 664.93L515.28 664.905C515.251 665.031 515.094 665.179 515.254 664.93Z" fill="#EFDCC4"/>
<path d="M515.074 665.889L515.078 665.787L515.074 665.889Z" fill="#CE9C5C"/>
<path d="M502.41 652.486C502.302 651.848 502.245 651.213 502.162 650.601C502.079 649.989 502.128 650.041 502.167 650.449C501.675 646.01 501.743 641.528 502.368 637.106C502.368 637.106 502.434 636.6 502.375 636.853C502.317 637.105 502.434 636.6 502.432 636.651C502.905 633.741 503.741 630.901 504.921 628.2C505.797 626.293 506.864 624.481 508.105 622.789C508.662 622.019 508.294 620.739 507.495 620.309C507.088 620.083 506.611 620.02 506.159 620.134C505.708 620.247 505.317 620.529 505.066 620.921C499.801 627.994 498.056 637.026 498.276 645.687C498.351 648.227 498.579 650.771 498.883 653.293C499.188 655.815 502.9 654.734 502.41 652.486Z" fill="#CE9C5C"/>
<path d="M512.453 659.388C515.395 658.589 519.281 657.641 521.852 657.389C523.6 657.214 525.362 657.242 527.103 657.472C528.331 657.711 529.535 658.062 530.7 658.52C532.48 659.274 534.041 660.465 535.239 661.982C536.234 664.347 539.749 663.057 538.655 660.639C536.521 657.376 533.134 655.244 529.382 654.293C523.462 652.819 517.402 654.336 511.67 655.888C509.396 656.403 510.203 659.929 512.453 659.388Z" fill="#CE9C5C"/>
<path d="M495.957 677.872C490.204 680.971 489.301 688.176 489.757 694.053C489.779 695.017 490.487 695.927 491.477 695.932C492.467 695.936 493.378 695.177 493.332 694.186C493.212 692.279 493.224 689.361 493.47 687.948C493.626 686.958 493.885 685.988 494.243 685.053L494.324 684.877C495.135 683.227 495.641 682.455 497.018 681.406C499.244 680.788 499.209 676.93 495.957 677.872Z" fill="#CE9C5C"/>
<path d="M488.083 663.016C478.471 660.861 468.556 660.406 458.787 661.672C457.845 661.77 457.175 662.943 457.453 663.814C457.797 665.855 460.948 664.909 461.582 664.903C468.504 664.246 475.48 664.465 482.347 665.557C483.876 665.35 488.238 667.944 489.285 665.234C489.489 664.352 489.066 663.223 488.083 663.016Z" fill="#CE9C5C"/>
<path d="M492.335 654.136C491.799 651.734 488.67 644.432 485.459 646.568C483.807 648.32 486.227 649.687 487.151 651.035C487.004 650.844 486.98 650.818 487.077 650.956C487.654 651.786 488.122 652.688 488.468 653.638C488.721 656.995 492.391 657.335 492.335 654.136Z" fill="#CE9C5C"/>
<path d="M518.617 676.249C520.339 677.189 522.088 678.105 523.786 679.019C524.61 679.475 525.383 679.93 526.154 680.435C526.327 680.568 526.527 680.675 526.701 680.807C526.875 680.94 526.924 680.992 527.048 681.072C527.173 681.151 526.85 680.913 527.073 681.098C527.296 681.282 527.764 681.728 528.108 682.094C528.435 682.44 528.885 682.643 529.36 682.657C529.836 682.671 530.298 682.496 530.644 682.17C530.982 681.839 531.179 681.391 531.193 680.918C531.207 680.445 531.038 679.985 530.721 679.635C529.346 678.121 527.577 677.027 525.805 676.035L520.485 673.209C518.517 672.007 516.622 675.071 518.617 676.249Z" fill="#CE9C5C"/>
<path d="M487.468 672.412C485.98 667.901 477.684 674.527 475.43 676.058C473.523 678.69 476.85 680.288 478.825 677.937C480.898 676.498 483.131 675.305 485.48 674.382C485.991 674.246 485.64 674.133 484.401 673.969L483.969 673.144C484.355 675.49 488.006 674.764 487.468 672.412Z" fill="#CE9C5C"/>
<path d="M515.943 649.749C516.501 648.928 517.085 648.083 517.718 647.29L517.875 647.143C518.839 645.996 519.872 644.909 520.968 643.887C522.664 642.339 520.181 639.701 518.509 641.275C516.838 642.848 510.558 648.266 513.514 650.361C513.919 650.596 514.399 650.664 514.853 650.55C515.307 650.435 515.698 650.148 515.943 649.749Z" fill="#CE9C5C"/>
<path d="M545.102 669.005C544.791 669.313 544.432 669.568 544.039 669.76C542.993 670.193 541.822 670.215 540.761 669.82C539.7 669.426 538.827 668.645 538.318 667.633C537.808 666.622 537.701 665.456 538.016 664.368C538.332 663.281 539.046 662.353 540.018 661.771C540.541 661.505 541.111 661.345 541.696 661.302C542.282 661.258 542.87 661.332 543.426 661.519C543.988 661.696 544.508 661.985 544.954 662.37C545.401 662.754 545.764 663.225 546.023 663.755C546.295 664.276 546.458 664.847 546.501 665.433C546.545 666.019 546.468 666.608 546.275 667.163C546.045 667.866 545.641 668.499 545.102 669.005ZM541.685 665.374C541.595 665.443 541.533 665.543 541.511 665.654C541.489 665.766 541.508 665.882 541.565 665.98C541.623 666.109 541.729 666.21 541.86 666.261C541.991 666.313 542.138 666.31 542.267 666.255C542.398 666.179 542.493 666.054 542.532 665.908C542.563 665.782 542.559 665.65 542.518 665.526C542.438 665.403 542.327 665.304 542.197 665.238C542.06 665.216 541.92 665.229 541.79 665.276L541.685 665.374Z" fill="#CE9C5C"/>
<path d="M512.023 619.101C511.708 619.385 511.36 619.63 510.986 619.831C509.926 620.361 508.699 620.45 507.574 620.078C506.449 619.707 505.516 618.905 504.981 617.847C504.714 617.325 504.554 616.754 504.511 616.169C504.468 615.584 504.542 614.996 504.729 614.439C505.092 613.308 505.887 612.366 506.94 611.816C508 611.286 509.226 611.197 510.352 611.569C511.477 611.941 512.409 612.743 512.945 613.8C513.386 614.664 513.534 615.648 513.367 616.604C513.201 617.56 512.729 618.436 512.023 619.101ZM508.581 615.444L508.447 615.669C508.413 615.805 508.426 615.949 508.486 616.076C508.552 616.196 508.662 616.286 508.793 616.328C508.924 616.37 509.066 616.36 509.19 616.3C509.314 616.231 509.409 616.119 509.455 615.984C509.501 615.849 509.496 615.703 509.44 615.572C509.409 615.509 509.364 615.454 509.308 615.413C509.252 615.371 509.186 615.344 509.117 615.333C508.993 615.288 508.857 615.293 508.736 615.347L508.581 615.444Z" fill="#CE9C5C"/>
<path d="M536.956 687.462C536.644 687.75 536.295 687.995 535.919 688.192C535.131 688.606 534.237 688.775 533.353 688.676C532.469 688.577 531.635 688.216 530.958 687.638C530.281 687.06 529.794 686.292 529.558 685.434C529.322 684.576 529.349 683.667 529.635 682.825C530.004 681.701 530.801 680.769 531.853 680.231C532.906 679.692 534.128 679.591 535.254 679.95C536.385 680.313 537.328 681.108 537.878 682.161C538.412 683.226 538.511 684.458 538.154 685.595C537.915 686.306 537.503 686.948 536.956 687.462ZM533.514 683.805C533.437 683.889 533.387 683.994 533.37 684.106C533.353 684.219 533.37 684.334 533.418 684.436C533.448 684.499 533.49 684.555 533.542 684.601C533.594 684.647 533.655 684.682 533.721 684.703C533.787 684.724 533.857 684.731 533.926 684.724C533.995 684.717 534.062 684.695 534.122 684.661C534.185 684.634 534.241 684.593 534.287 684.542C534.332 684.49 534.366 684.43 534.385 684.364C534.407 684.297 534.416 684.227 534.409 684.157C534.402 684.086 534.381 684.018 534.346 683.957C534.276 683.842 534.173 683.751 534.05 683.694C533.983 683.672 533.912 683.663 533.842 683.67C533.772 683.677 533.704 683.698 533.643 683.733L533.514 683.805Z" fill="#CE9C5C"/>
<path d="M484.328 646.254C483.854 646.698 483.297 647.043 482.689 647.268C482.081 647.494 481.434 647.596 480.786 647.568C480.026 647.514 479.294 647.259 478.665 646.83C478.037 646.401 477.533 645.813 477.205 645.125C476.839 644.459 476.662 643.705 476.694 642.946C476.726 642.186 476.965 641.449 477.386 640.817C477.842 640.119 478.472 639.554 479.213 639.176C479.955 638.798 480.782 638.62 481.614 638.661C482.375 638.707 483.11 638.959 483.74 639.389C484.371 639.819 484.873 640.411 485.194 641.104C485.563 641.763 485.744 642.512 485.717 643.267C485.689 644.023 485.455 644.756 485.039 645.388C484.844 645.709 484.605 646.001 484.328 646.254ZM480.776 642.848L480.672 642.946C480.62 642.995 480.592 643.071 480.712 643.303L480.686 643.327C480.806 643.559 480.907 643.562 480.958 643.564C481.094 643.563 481.228 643.53 481.349 643.468C481.47 643.405 481.574 643.315 481.654 643.204C481.706 643.155 481.76 643.055 481.64 642.823C481.52 642.591 481.419 642.588 481.368 642.587C481.146 642.6 480.936 642.693 480.776 642.848Z" fill="#CE9C5C"/>
<path d="M542.146 716.372C529.217 715.93 524.508 723.121 523.807 726.983C523.624 727.997 523.619 729.036 523.79 730.053C516.279 734.216 514.136 743.82 512.401 751.66L511.669 754.911C510.449 760.001 510.735 765.643 512.496 770.341C514.632 776.064 518.625 779.941 524.059 781.527L525.342 781.896L525.745 782.009L526.576 782.212C526.734 782.253 526.894 782.283 527.055 782.303C527.308 782.361 527.533 782.444 527.761 782.476L528.291 782.569L528.972 782.716C529.128 782.76 529.289 782.791 529.451 782.807C529.66 782.849 529.871 782.881 530.083 782.902L530.613 782.994L531.22 783.063L531.725 783.129L532.282 783.197L532.789 783.212L533.345 783.28L533.852 783.295L534.359 783.31L534.84 783.35L535.349 783.315L535.805 783.329L536.338 783.32L536.77 783.307L537.228 783.27L537.686 783.234L538.144 783.197L538.602 783.16L539.035 783.097L539.468 783.034L539.902 782.971L540.31 782.882L540.566 782.839C547.247 789.309 562.596 789.444 570.823 788.449C572.397 788.26 573.864 787.555 574.995 786.444C576.328 785.19 577.265 783.569 578.095 782.148C585.88 768.908 588.509 756.679 586.362 743.773C586.271 743.269 586.218 742.758 586.205 742.246C586.028 740.54 585.833 738.606 584.438 736.914C569.027 718.708 548.179 716.605 542.146 716.372ZM581.417 739.462C582.004 740.19 582.129 741.107 582.261 742.609L582.46 744.391C584.432 756.378 581.982 767.749 574.703 780.167C573.179 782.735 572.142 784.302 570.333 784.527C561.419 785.576 550.683 784.795 545.126 781.403L545.205 781.329L545.41 781.234L545.772 781.042L546.004 780.922L546.389 780.756L546.572 780.584L546.96 780.368L547.09 780.245L547.632 779.931L547.658 779.906L548.15 779.592L551.755 776.199C555.985 771.429 557.457 765.56 557.936 761.464C558.543 756.508 557.988 751.365 556.449 747.74C554.909 744.115 552.948 742.66 550.54 742.562C550.016 742.539 549.504 742.726 549.117 743.081C548.731 743.435 548.501 743.929 548.478 744.454C548.455 744.978 548.642 745.49 548.997 745.876C549.351 746.263 549.845 746.493 550.37 746.516C551.156 746.514 552.088 747.608 552.824 749.28C555.12 754.755 555.042 766.553 548.789 773.571L545.811 776.374L545.45 776.566L545.267 776.738L544.88 776.955L544.697 777.127L544.336 777.319L544.104 777.439L543.719 777.605L543.487 777.725L543.101 777.891L542.87 777.96L542.434 778.124L542.228 778.219L541.767 778.358L541.587 778.429L541.126 778.567L540.922 778.611L540.41 778.748L540.283 778.77L539.72 778.905C539.696 778.879 539.67 778.903 539.644 778.928C538.751 779.079 537.833 779.203 536.918 779.277L536.816 779.274L536.257 779.307L536.054 779.301L535.521 779.311L535.241 779.328L534.785 779.314L534.43 779.303L533.973 779.289C533.856 779.273 533.737 779.269 533.618 779.279L533.138 779.239C533.02 779.222 532.901 779.218 532.783 779.228L532.328 779.163L531.948 779.126L531.467 779.086L531.063 779.023L530.608 778.959C530.468 778.919 530.324 778.889 530.179 778.87L529.724 778.805L529.271 778.69L528.816 778.626L528.337 778.535L527.934 778.421L527.38 778.303L527.002 778.215L526.398 778.045C526.286 778.025 526.177 777.997 526.07 777.959C525.768 777.899 525.467 777.788 525.139 777.702C514.977 774.704 513.794 762.665 515.449 755.787L516.183 752.485C517.77 745.326 519.56 737.335 525.021 733.821C525.851 735.295 526.868 736.656 528.045 737.871C532.917 742.942 541.218 747.051 545.523 746.496C546.04 746.417 546.507 746.14 546.822 745.723C547.138 745.306 547.279 744.782 547.215 744.263C547.142 743.746 546.871 743.278 546.459 742.958C546.047 742.638 545.527 742.49 545.008 742.547C542.562 742.879 535.421 739.845 530.894 735.14C529.788 733.965 528.566 732.405 527.933 730.686L527.678 727.379C528.318 724.658 532.014 719.948 541.951 720.3C547.629 720.522 567.084 722.507 581.417 739.462Z" fill="#452D34"/>
<path d="M742.275 360.994C739.163 357.186 742.8 353.417 745.373 350.629L740.845 350.623C734.191 350.595 733.571 340.636 740.152 339.798C734.396 334.487 742.058 324.891 750.023 333.98C749.13 329.814 748.584 324.758 753.99 323.713C759.706 323.169 760.381 328.387 760.811 332.743C763.454 329.326 766.96 325.224 771.401 328.769C775.84 332.312 771.952 336.761 768.977 339.872L773.553 339.883C780.642 339.961 780.582 350.723 773.482 350.742L769.471 350.724C778.238 356.231 771.696 365.467 765.014 361.202C765.248 367.91 755.181 368.837 754.226 362.217L753.559 357.783C750.591 361.677 746.802 365.698 742.275 360.994ZM749.418 348.423C749.614 348.672 749.718 348.98 749.712 349.295C749.708 349.612 749.595 349.917 749.392 350.159L744.479 355.861C742.198 358.464 746.337 362.071 748.553 359.387L753.439 353.707C757.541 350.799 755.524 362.634 757.985 363.577C759.802 365.035 762.67 363.282 762.27 361.009L761.802 358.042C761.575 356.817 763.142 355.97 764.052 356.784L766.547 358.93C766.812 359.164 767.121 359.342 767.455 359.456C767.792 359.572 768.146 359.619 768.498 359.595C768.852 359.573 769.196 359.479 769.513 359.322C769.83 359.165 770.113 358.947 770.345 358.679C773.678 354.583 763.8 351.933 764.472 348.852C764.574 348.596 764.75 348.376 764.978 348.22C765.204 348.063 765.472 347.977 765.747 347.97L773.503 348.003C776.972 348.058 777.034 342.607 773.533 342.622L765.997 342.59C764.89 342.633 764.203 341.161 764.985 340.321C766.228 338.235 772.908 333.542 769.62 330.84C766.332 328.138 762.8 335.247 760.936 336.771C760.765 336.969 760.54 337.111 760.29 337.186C760.038 337.258 759.773 337.26 759.521 337.187C759.271 337.115 759.044 336.971 758.871 336.776C758.699 336.581 758.585 336.339 758.543 336.08L757.431 328.709C756.97 325.254 751.542 326.051 752.127 329.495L753.271 337.239C753.314 337.515 753.269 337.796 753.144 338.044C753.019 338.293 752.82 338.498 752.574 338.628C752.326 338.752 752.049 338.804 751.773 338.772C751.499 338.741 751.24 338.63 751.028 338.451L745.324 333.537C743.616 331.996 740.609 333.462 740.88 335.794C740.795 337.401 743.732 339.108 744.695 340.099C745.657 341.09 745.024 342.559 743.784 342.49L740.847 342.498C737.376 342.441 737.337 347.921 740.866 347.884C741.696 348.101 749.046 347.401 749.418 348.423Z" fill="#D13535"/>
</g>
<path d="M1016.66 293.175C1141.65 308.962 1226.68 450.744 1206.59 609.854C1186.49 768.964 1077.15 930.951 952.164 915.164C827.175 899.377 769.089 650.009 789.186 490.899C809.282 331.789 891.671 277.388 1016.66 293.175Z" fill="#33A81F" fill-opacity="0.16"/>
<path d="M64.3606 284.283C66.8461 280.777 72.5186 280.579 75.8831 283.303C79.2476 286.028 80.4762 290.848 79.7911 295.146C79.1057 299.444 76.7969 303.262 74.214 306.722C71.6312 310.182 68.6562 313.358 66.3437 317.031C64.5404 319.92 63.1523 323.068 61.4218 325.981C57.6726 332.247 52.3552 337.407 45.9953 340.952C44.0974 342.003 41.8837 342.938 39.7518 342.346C38.372 342.008 37.2404 341.011 36.1825 340.085C26.9072 331.946 17.8234 321.865 16.9342 309.533C16.8886 308.687 16.8877 307.694 17.4983 307.102C18.1086 306.51 18.6611 306.476 19.332 306.367L26.303 305.202L26.4905 305.005C24.3672 298.094 24.2758 290.687 25.1293 283.529C25.8186 277.488 27.2045 271.41 30.2476 266.174C33.2907 260.939 38.1845 256.591 44.069 255.275C49.9539 253.96 56.7923 256.114 60.0971 261.236C62.0253 264.229 62.6226 267.874 63.1927 271.399C63.7633 274.924 64.369 278.908 63.838 282.646L64.3606 284.283Z" fill="#D13535"/>
</g>
<defs>
<clipPath id="clip0_480_11864">
<rect width="947" height="952" fill="white"/>
</clipPath>
<clipPath id="clip1_480_11864">
<rect width="575.327" height="575.327" fill="white" transform="translate(363 632.321) rotate(-43.2659)"/>
</clipPath>
</defs>
</svg>
