<svg width="1937" height="1328" viewBox="0 0 1937 1328" fill="none" xmlns="http://www.w3.org/2000/svg">
<path d="M68.4567 589.193C31.7995 498.459 39.0629 325.59 97.944 287.304C156.825 249.018 251.288 301.025 287.945 391.759C324.602 482.493 326.771 584.299 267.89 622.585C209.009 660.871 105.114 679.927 68.4567 589.193Z" fill="#D6F9F7" fill-opacity="0.66"/>
<path d="M132.177 430.635C214.137 429.811 281.714 542.084 283.115 681.403C284.515 820.722 228.673 972.811 146.713 973.635C64.7535 974.459 4.83753 766.442 3.43695 627.123C2.03638 487.803 50.2173 431.459 132.177 430.635Z" fill="#33A81F" fill-opacity="0.04"/>
<path d="M129.699 419.872C211.659 419.048 279.236 531.32 280.636 670.639C282.037 809.959 226.195 962.048 144.235 962.872C62.275 963.696 2.35901 755.678 0.958437 616.359C-0.442139 477.04 47.7387 420.695 129.699 419.872Z" fill="#33A81F" fill-opacity="0.16"/>
<path d="M587.975 495.268C598.889 501.05 611.76 497.918 616.722 488.27C621.681 478.62 616.856 466.111 605.943 460.329C595.029 454.546 582.159 457.68 577.198 467.328C572.236 476.976 577.061 489.486 587.975 495.268Z" fill="#EFDCC4"/>
<path d="M581.987 487.517C579.349 484.977 577.292 481.887 575.961 478.467C573.746 472.677 573.979 466.648 576.64 461.499C579.3 456.351 584.02 452.72 589.974 451.278C595.928 449.836 602.229 450.719 607.886 453.727C613.591 456.734 617.922 461.54 620.11 467.256C622.3 472.975 622.093 479.076 619.457 484.249C616.82 489.421 612.075 493.027 606.122 494.47C600.169 495.913 593.868 495.03 588.185 491.996C585.916 490.818 583.826 489.308 581.987 487.517ZM611.507 460.926C609.919 459.395 608.129 458.095 606.19 457.061C601.313 454.476 595.881 453.723 590.885 454.954C585.888 456.185 582.088 459.095 579.932 463.263C577.775 467.43 577.612 472.389 579.44 477.141C581.267 481.894 585.03 486.102 589.906 488.686C594.784 491.273 600.215 492.025 605.212 490.795C610.209 489.564 613.983 486.629 616.14 482.462C618.297 478.294 618.483 473.358 616.632 468.583C615.499 465.685 613.75 463.071 611.507 460.926Z" fill="#452D34"/>
<path d="M527.358 424.928C530.751 425.787 534.094 426.838 537.373 428.077C542.8 430.208 548.002 432.89 552.899 436.083C554.802 437.167 556.434 434.15 554.482 433.067C546.371 427.801 537.461 423.921 528.115 421.587C525.985 421.042 525.204 424.408 527.358 424.928Z" fill="#452D34"/>
<path d="M526.226 447.807C530.231 448.623 534.163 449.78 537.98 451.265C541.408 452.595 544.73 454.193 547.916 456.043C548.311 456.259 548.773 456.309 549.203 456.183C549.632 456.057 549.993 455.765 550.208 455.37C552.198 451.278 530.39 445.061 527.007 444.441C524.878 443.945 524.072 447.287 526.226 447.807Z" fill="#452D34"/>
<path d="M532.161 471.359C534.075 471.224 535.999 471.246 537.912 471.427C540.367 471.739 542.78 472.34 545.102 473.217C546.75 473.886 548.34 474.694 549.854 475.634C551.782 476.742 553.413 473.676 551.486 472.617C546.919 469.795 541.734 468.168 536.403 467.883C534.507 468.038 530.678 466.941 530.435 469.69C530.482 470.588 531.225 471.449 532.161 471.359Z" fill="#452D34"/>
<path d="M499.2 749.935C498.938 749.681 498.787 749.335 498.778 748.971C498.769 748.604 498.904 748.255 499.153 747.992L521.344 724.593C521.593 724.331 521.933 724.178 522.296 724.173C522.656 724.166 523.005 724.304 523.267 724.558C523.529 724.811 523.68 725.157 523.689 725.521C523.7 725.887 523.564 726.237 523.315 726.499L501.124 749.898C500.875 750.161 500.535 750.313 500.171 750.319C499.812 750.326 499.462 750.189 499.2 749.935Z" fill="#CE9C5C"/>
<path d="M492.411 740.191C492.181 739.977 492.038 739.685 492.004 739.373C491.967 739.014 492.068 738.655 492.291 738.375C492.516 738.092 492.839 737.913 493.194 737.87L528.797 734.077C528.976 734.054 529.155 734.069 529.328 734.118C529.499 734.166 529.661 734.252 529.802 734.364C529.939 734.477 530.056 734.618 530.142 734.776C530.226 734.936 530.28 735.111 530.295 735.29C530.336 735.649 530.231 736.008 530.01 736.29C529.787 736.571 529.462 736.752 529.107 736.791L493.502 740.586C493.305 740.603 493.104 740.579 492.915 740.509C492.727 740.442 492.554 740.334 492.411 740.191Z" fill="#CE9C5C"/>
<path d="M510.697 756.408C510.432 756.153 510.27 755.81 510.239 755.446L509.348 719.243C509.343 718.884 509.478 718.538 509.724 718.28C509.969 718.021 510.305 717.87 510.66 717.859C510.838 717.854 511.015 717.883 511.182 717.947C511.348 718.013 511.5 718.109 511.629 718.234C511.759 718.358 511.86 718.508 511.932 718.672C512.003 718.839 512.039 719.016 512.042 719.195L512.98 755.397C512.975 755.758 512.834 756.106 512.587 756.366C512.339 756.627 512.002 756.785 511.644 756.805C511.292 756.791 510.955 756.65 510.697 756.408Z" fill="#CE9C5C"/>
<path d="M521.995 749.527L498.62 726.917C498.358 726.664 498.207 726.317 498.196 725.952C498.189 725.587 498.322 725.235 498.571 724.973C498.818 724.712 499.162 724.56 499.522 724.554C499.884 724.549 500.233 724.686 500.495 724.94L523.87 747.55C524.133 747.804 524.283 748.15 524.293 748.513C524.304 748.878 524.167 749.23 523.919 749.491C523.67 749.754 523.33 749.905 522.966 749.912C522.607 749.918 522.257 749.781 521.995 749.527Z" fill="#CE9C5C"/>
<path d="M429.561 454.172C429.299 453.919 429.147 453.572 429.138 453.208C429.128 452.844 429.263 452.492 429.511 452.23L451.727 428.805C451.975 428.543 452.318 428.392 452.678 428.386C453.039 428.379 453.389 428.518 453.65 428.771C453.912 429.024 454.064 429.371 454.073 429.735C454.082 430.099 453.948 430.451 453.699 430.713L431.484 454.138C431.236 454.4 430.893 454.551 430.532 454.557C430.172 454.564 429.822 454.425 429.561 454.172Z" fill="#CE9C5C"/>
<path d="M422.77 444.431C422.542 444.216 422.398 443.925 422.364 443.613C422.326 443.253 422.429 442.894 422.651 442.612C422.874 442.331 423.198 442.15 423.553 442.11L459.181 438.291C459.54 438.256 459.9 438.366 460.182 438.598C460.462 438.83 460.642 439.164 460.68 439.528C460.718 439.891 460.611 440.253 460.384 440.535C460.156 440.817 459.826 440.996 459.466 441.031L423.862 444.825C423.664 444.842 423.463 444.815 423.275 444.747C423.086 444.68 422.914 444.572 422.77 444.431Z" fill="#CE9C5C"/>
<path d="M441.053 460.647C440.923 460.523 440.819 460.373 440.749 460.207C440.679 460.041 440.643 459.862 440.644 459.682L439.708 423.481C439.702 423.122 439.837 422.775 440.082 422.517C440.327 422.258 440.664 422.108 441.02 422.098C441.2 422.093 441.38 422.124 441.549 422.19C441.717 422.257 441.871 422.356 442.002 422.482C442.133 422.609 442.238 422.76 442.31 422.927C442.383 423.095 442.422 423.275 442.425 423.457L443.337 459.634C443.343 459.994 443.209 460.34 442.963 460.599C442.718 460.857 442.381 461.008 442.025 461.018C441.847 461.025 441.67 460.996 441.503 460.932C441.336 460.868 441.183 460.771 441.053 460.647Z" fill="#CE9C5C"/>
<path d="M452.355 453.765L428.979 431.154C428.717 430.901 428.565 430.554 428.556 430.19C428.547 429.826 428.681 429.474 428.93 429.212C429.178 428.95 429.521 428.799 429.882 428.792C430.242 428.786 430.592 428.924 430.854 429.177L454.229 451.788C454.491 452.041 454.643 452.388 454.652 452.752C454.661 453.116 454.527 453.468 454.278 453.73C454.03 453.992 453.687 454.143 453.327 454.15C452.966 454.156 452.616 454.018 452.355 453.765Z" fill="#CE9C5C"/>
<path d="M389.191 385.421C391.676 381.903 397.349 381.704 400.713 384.438C404.078 387.171 405.306 392.007 404.621 396.319C403.936 400.631 401.627 404.462 399.044 407.933C396.461 411.404 393.486 414.59 391.174 418.275C389.37 421.174 387.982 424.332 386.252 427.254C382.503 433.541 377.185 438.718 370.825 442.274C368.927 443.328 366.714 444.266 364.582 443.673C363.202 443.333 362.07 442.333 361.013 441.405C351.737 433.238 342.654 423.125 341.764 410.753C341.719 409.904 341.718 408.908 342.328 408.314C342.939 407.72 343.491 407.686 344.162 407.577L351.133 406.408L351.321 406.21C349.197 399.276 349.106 391.845 349.959 384.664C350.649 378.603 352.035 372.506 355.078 367.253C358.121 362 363.015 357.638 368.899 356.318C374.784 354.999 381.622 357.16 384.927 362.299C386.855 365.301 387.453 368.958 388.023 372.495C388.593 376.031 389.199 380.028 388.668 383.778L389.191 385.421Z" fill="#D13535"/>
<path d="M579.098 834.934C584.078 829.331 589.075 823.267 590.596 815.88C592.118 808.491 589.76 800.809 584.137 796.319C578.515 791.829 569.585 791.672 564.468 796.67L564.234 796.916C566.526 797.192 569.362 798.137 572.969 799.917C582.738 804.725 586.617 817.382 581.487 828.624C576.357 839.866 564.248 845.207 554.436 840.599C544.625 835.986 537.723 826.515 550.203 812.958C551.343 811.619 552.256 810.101 552.907 808.463C552.907 808.463 556.72 798.51 542.534 797.863C538.599 797.647 534.715 798.788 531.525 801.096C528.579 803.253 526.091 805.98 524.197 809.121C522.422 812.14 520.973 815.714 517.836 817.274C516.41 817.982 514.71 818.279 513.681 819.464C513.096 820.13 512.868 821.567 512.751 822.686C512.681 823.555 512.743 824.43 512.938 825.28C514.612 831.891 516.557 838.415 518.773 844.853C521.105 851.565 521.836 865.251 528.444 867.758C532.158 869.173 538.917 862.444 542.767 861.479C557.466 857.694 568.942 846.339 579.098 834.934Z" fill="#D13535"/>
<path d="M343.449 673.236C342.879 683.01 336.511 691.02 332.324 699.473C322.076 718.555 315.136 739.132 308.899 759.866C302.312 782.915 286.224 791.801 285.427 817.418L285.089 821.213C285.121 823.374 288.536 823.41 288.505 821.152C289.172 801.853 294.915 793.905 304.725 778.473C312.501 764.393 315.367 748.261 321.075 733.318C326.785 718.374 333.518 703.947 341.35 690.105C344.176 684.883 346.68 679.25 346.865 673.173C346.785 671.014 343.417 670.976 343.449 673.236Z" fill="#452D34"/>
<path d="M318.262 723.822C322.233 707.62 299.724 703.19 296.025 718.606C294.488 733.088 312.758 736.406 318.262 723.822ZM308.138 712.513C309.508 712.464 311.888 713.345 312.258 713.703C312.664 714.002 313.029 714.355 313.343 714.752L313.195 714.609C313.992 715.675 314.579 716.885 314.921 718.173C312.893 717.868 310.835 719.291 308.799 719.593C308.279 717.193 307.552 714.84 306.624 712.564C307.13 712.53 307.633 712.497 308.138 712.513ZM299.284 720.054C299.422 718.566 299.941 717.142 300.792 715.923C301.001 715.652 300.745 715.972 300.746 716.02C301.208 715.384 301.751 714.811 302.363 714.316C301.843 714.715 303.189 713.694 303.428 713.642C304.315 715.826 305.022 718.081 305.547 720.38C303.489 720.855 301.406 721.257 299.322 721.56C299.261 721.06 299.249 720.556 299.284 720.054ZM306.01 728.316L305.985 728.292C303.671 728.041 301.409 726.089 300.629 724.768C302.499 724.491 304.342 724.143 306.185 723.745C306.415 725.247 306.454 726.801 306.565 728.329L306.131 728.288C306.156 728.312 306.158 728.36 306.01 728.316ZM312.566 725.89C311.752 726.567 310.852 727.13 309.89 727.565C309.827 726.036 309.692 724.484 309.485 722.957C311.442 722.339 313.55 722.011 315.402 721.055L315.392 721.565L315.367 721.541C315.294 721.938 315.19 722.331 315.06 722.712L315.127 722.541C314.57 723.86 313.687 725.014 312.566 725.89Z" fill="#D13535"/>
<path d="M306.107 728.314C306.084 728.303 306.059 728.299 306.035 728.299C306.008 728.301 305.985 728.306 305.963 728.316L306.107 728.314Z" fill="#D13535"/>
<path d="M294.727 776.953C299.039 763.881 278.362 759.561 273.482 770.191C268.648 784.561 289.197 788.616 294.727 776.953ZM291.911 773.142C291.945 773.546 291.956 773.95 291.943 774.355L291.939 774.209C291.919 774.639 291.825 775.059 291.658 775.453C291.59 775.674 290.759 777.048 291.106 776.533C290.687 777.1 290.198 777.615 289.653 778.065C288.667 778.851 287.552 779.453 286.355 779.847L285.882 774.464C287.837 773.749 289.744 773.034 291.674 772.295L291.911 773.142ZM287.332 768.001C288.054 768.25 288.735 768.606 289.355 769.057L289.701 769.391C288.294 769.927 286.888 770.462 285.459 770.972L285.042 767.872C285.14 767.81 285.226 767.736 285.302 767.648C285.993 767.654 286.678 767.774 287.332 768.001ZM276.136 773.375C276.354 770.504 278.895 768.273 281.679 768.029C281.882 769.41 282.085 770.791 282.239 772.173L276.116 774.443L276.136 773.375ZM282.231 780.358C280.324 780.175 278.332 779.334 277.28 777.702C279.044 777.039 280.829 776.352 282.618 775.712L283.024 780.369L282.231 780.358Z" fill="#D13535"/>
<path d="M431.878 577.699L439.069 586.218L438.946 586.099C439.326 586.61 439.669 587.148 439.973 587.708C440.098 587.924 439.844 587.346 439.999 587.781L440.234 588.529C440.308 589.051 440.272 589.581 440.129 590.086C440.108 590.208 439.978 590.793 440.087 590.33C439.939 590.704 439.746 591.058 439.512 591.384C439.909 590.915 439.068 591.902 438.926 592.002C438.784 592.102 439.21 591.803 438.997 591.928C438.783 592.053 437.763 592.63 438.31 592.353C438.065 592.481 437.797 592.561 437.522 592.586C437.427 592.636 437.069 592.764 437.475 592.635C437.077 592.691 436.673 592.698 436.273 592.657C436.321 592.656 436.683 592.722 436.369 592.655C436.082 592.607 435.799 592.539 435.522 592.451C433.407 590.643 430.753 593.192 433.085 595.021C438.421 598.667 445.68 592.707 443.195 586.703C441.017 582.37 437.11 579.112 434.198 575.253C432.667 573.677 430.275 576.149 431.878 577.699Z" fill="#452D34"/>
<path d="M417.906 603.551C413.017 601.428 407.179 596.018 404.444 591.524C404.356 591.367 404.223 591.241 404.064 591.16C403.904 591.08 403.725 591.05 403.549 591.074C403.373 591.098 403.208 591.175 403.077 591.295C402.946 591.416 402.854 591.573 402.813 591.748C401.599 596.069 399.363 605.655 402.213 608.981C405.064 612.306 413.645 608.194 418.036 605.856C418.248 605.744 418.424 605.572 418.542 605.361C418.66 605.151 418.715 604.91 418.702 604.667C418.688 604.425 418.606 604.19 418.465 603.993C418.324 603.795 418.13 603.641 417.906 603.551Z" fill="#452D34"/>
<path d="M412.432 568.694C413.753 569.972 415.841 569.934 417.097 568.611C418.352 567.287 418.299 565.178 416.978 563.901C415.657 562.623 413.568 562.66 412.313 563.984C411.058 565.307 411.111 567.416 412.432 568.694Z" fill="#452D34"/>
<path d="M441.748 574.122C443.069 575.4 445.157 575.362 446.413 574.038C447.668 572.715 447.615 570.606 446.294 569.328C444.973 568.05 442.885 568.088 441.629 569.411C440.374 570.735 440.427 572.844 441.748 574.122Z" fill="#452D34"/>
<path d="M418.872 551.332C417.018 550.345 408.278 555.772 405.99 559.481C405.722 559.668 405.522 559.938 405.422 560.252C405.321 560.565 405.325 560.903 405.433 561.216C405.496 561.441 405.599 561.653 405.737 561.842L405.885 561.985C406.166 562.235 406.515 562.393 406.886 562.439C407.257 562.484 407.632 562.415 407.96 562.239C410.957 561.822 415.752 559.258 417.257 558.867C421.243 557.606 423.313 553.828 418.872 551.332Z" fill="#452D34"/>
<path d="M453.607 569.295C453.678 569.014 453.67 568.717 453.582 568.44C453.494 568.162 453.33 567.914 453.11 567.725C450.301 564.107 446.756 559.968 442.415 558.564C442.046 558.441 441.654 558.407 441.271 558.465C440.888 558.522 440.525 558.67 440.21 558.895C433.042 563.711 447.237 568.534 451.159 570.48C451.527 570.686 451.957 570.748 452.366 570.653C452.694 570.599 452.994 570.437 453.219 570.19C453.443 569.945 453.58 569.629 453.607 569.295Z" fill="#452D34"/>
<path d="M363.792 565.992L363.817 566.015C363.84 565.991 363.792 565.992 363.792 565.992Z" fill="#452D34"/>
<path d="M362.175 550.548C362.223 550.547 362.271 550.497 362.319 550.497C362.367 550.496 362.271 550.497 362.175 550.548Z" fill="#452D34"/>
<path d="M393.706 498.658C396.326 500.482 398.718 498.058 396.409 496.156C393.098 494.531 389.364 494.027 385.764 494.719C383.005 495.983 385.384 498.758 386.977 497.976C389.237 497.672 391.542 497.905 393.706 498.658Z" fill="#452D34"/>
<path d="M388.048 728.551C395.198 717.275 394.509 701.448 386.349 690.761L385.079 688.961L386.816 689.22C390.693 689.651 394.604 689.58 398.455 689.014C401.574 688.605 404.624 687.8 407.537 686.618C410.369 685.425 412.95 683.752 415.553 682.1C417.541 680.803 419.554 679.526 421.222 677.871C423.303 675.759 424.806 673.134 425.577 670.25C426.348 667.366 426.361 664.324 425.616 661.419C424.741 658.108 422.877 654.788 423.731 651.493C424.588 648.2 428.046 646.148 429.265 642.917C430.482 639.689 428.912 635.613 425.998 633.6C423.084 631.588 419.16 631.438 415.896 632.687C414.466 633.248 413.14 634.048 411.683 634.537C409.561 635.279 407.28 635.391 405.016 635.335C393.851 635.086 382.98 631.512 373.773 625.059C368.286 621.173 363.322 616.088 361.188 609.665C360.381 607.275 359.905 604.587 358.012 602.944C356.955 602.064 355.571 601.579 354.607 600.552C353.643 599.525 353.531 598.846 353.05 597.956C352.588 597.099 352.034 596.296 351.401 595.558C346.74 590.053 338.683 589.177 332.77 593.169C328.654 595.964 322.996 600.534 322.148 605.067C321.746 607.285 321.69 609.738 320.166 611.394C318.645 613.048 316.727 613.276 315.243 614.541C312.442 616.997 312.889 621.41 313.584 625.114C314.114 627.996 314.644 630.926 315.391 633.778L313.161 633.137C307.025 634.024 300.819 634.037 294.679 634.779C288.539 635.52 282.348 637.063 277.291 640.651C274.809 642.42 272.471 645.135 272.862 648.213C273.01 649.353 273.567 650.411 274.075 651.47C278.906 660.882 284.062 670.7 292.798 676.544C293.855 677.314 295.022 677.916 296.259 678.328C298.2 678.973 300.29 678.913 302.305 678.633C311.032 677.457 318.777 672.729 326.264 668.125C328.466 666.751 330.671 665.423 332.849 664.073L334.773 663.092C339.702 667.934 345.197 672.152 351.136 675.648L349.44 677.137C344.626 682.712 344.592 690.923 344.803 698.328C345.014 705.732 345.228 712.337 347.13 719.055C347.972 722.022 349.141 724.886 350.617 727.593C350.893 728.201 351.292 728.749 351.789 729.199C352.547 729.742 353.535 729.848 354.476 729.904L381.753 731.651C382.958 731.726 384.185 731.779 385.279 731.322C386.377 730.864 387.33 729.656 388.048 728.551Z" fill="#CE9C5C"/>
<path d="M358.527 710.229L358.601 710.3L358.629 710.421C358.644 710.105 358.608 710.543 358.608 710.543C358.608 710.543 358.669 710.129 358.629 710.421C358.588 710.713 358.834 710.005 358.674 710.323C358.514 710.641 358.675 710.372 358.722 710.322C358.769 710.273 358.77 710.321 358.674 710.323C358.578 710.325 359.221 710.045 358.839 710.199C360.242 709.809 361.728 709.833 363.123 710.268C362.658 709.961 363.489 710.481 363.586 710.528C363.684 710.574 363.364 710.313 363.537 710.48L363.734 710.671C366.228 716.067 370.362 714.948 373.583 711.004C373.37 711.129 373.77 710.807 373.583 711.004C373.777 710.858 373.984 710.723 374.198 710.604C374.506 710.429 373.935 710.683 374.151 710.605C374.353 710.541 374.561 710.486 374.77 710.448L374.984 710.372C375.177 710.318 374.625 710.403 374.913 710.397C375.228 710.376 375.54 710.378 375.853 710.405C376.068 710.377 375.539 710.338 375.756 710.358C376.067 710.411 376.372 710.486 376.675 710.586C376.747 710.609 377.014 710.626 376.747 710.609C376.483 710.589 376.965 710.678 377.014 710.725L377.579 711.078C377.871 711.267 377.531 711.079 377.53 711.031C378.22 711.699 378.165 711.504 378.596 712.397C380.866 717.529 385.56 713.826 387.781 712.136C387.874 712.037 388.185 712.007 388.304 711.981C388.426 711.953 387.944 711.963 388.329 712.005C388.716 712.044 388.739 712.02 388.475 712C388.209 711.983 388.523 711.999 388.571 711.998C388.619 711.998 388.621 712.094 388.546 711.975L389.108 712.282C389.035 712.259 388.835 712.018 389.011 712.235C389.184 712.45 389.307 712.569 389.058 712.234C388.808 711.897 389.362 712.858 389.283 712.593L389.333 712.641C389.285 712.642 389.414 713.007 389.333 712.641C389.381 712.64 389.353 713.468 389.388 712.93C389.517 712.256 389.377 711.554 389.001 710.977C388.624 710.397 388.04 709.989 387.373 709.836C386.705 709.686 386.009 709.804 385.428 710.163C384.851 710.523 384.434 711.099 384.273 711.766C384.108 712.433 384.21 713.142 384.559 713.739C384.903 714.337 385.466 714.775 386.125 714.963C386.781 715.149 387.485 715.07 388.084 714.74C388.68 714.411 389.125 713.858 389.323 713.202C389.303 713.285 389.271 713.369 389.233 713.446C389.073 713.764 389.442 713.176 389.21 713.471C387.687 715.076 390.176 717.484 391.675 715.855C395.509 710.466 388.297 705.907 384.179 710.498C384.156 710.523 383.801 710.798 384.06 710.624C384.322 710.447 383.919 710.723 383.872 710.772C383.825 710.822 382.476 711.599 383.02 711.322C382.769 711.438 382.506 711.517 382.233 711.552C382.282 711.6 382.594 711.524 382.256 711.528L382.014 711.534C381.75 711.515 382.111 711.482 382.11 711.532L381.917 711.487C381.556 711.421 382.184 711.604 381.99 711.51C381.795 711.417 382.06 711.436 382.063 711.582L381.916 711.439C382.241 711.895 381.765 711.151 381.74 711.028C379.381 705.338 372.158 706.123 369.332 710.4C369.13 710.555 368.917 710.696 368.695 710.823C368.432 710.951 368.696 710.872 368.718 710.799C368.74 710.726 368.359 710.928 368.264 710.93C368.168 710.932 368.505 710.974 368.312 710.929C368.118 710.884 367.879 710.888 368.168 710.932C368.457 710.975 368.071 710.885 368.047 710.91C368.024 710.934 368.142 710.859 368.12 710.932L367.901 710.815L368.024 710.934C367.95 710.863 367.482 710.457 367.853 710.816C366.114 704.871 353.287 704.687 355.659 711.907C356.765 713.831 359.704 712.079 358.574 710.179L358.527 710.229Z" fill="#D13535"/>
<path d="M288.584 640.11C288.084 640.338 288.609 640.134 288.729 640.107C288.848 640.081 289.087 640.029 288.8 640.082C288.513 640.135 288.8 640.082 288.873 640.105L289.33 640.122C288.631 640.061 289.594 640.142 289.741 640.237L289.596 640.19L290.45 640.635C289.865 640.305 290.5 640.683 290.6 640.827C290.7 640.971 290.999 641.402 290.697 640.874L291.123 641.621C290.823 641.09 291.197 641.692 291.178 641.862C291.158 642.032 291.171 641.521 291.15 641.741C291.132 641.96 291.154 642.784 291.185 642.153C289.051 648.143 291.422 650.578 296.712 650.483C297.069 650.514 297.42 650.597 297.754 650.731C297.095 650.428 298.338 651.012 298.413 651.132C297.947 650.776 298.708 651.37 298.832 651.538C298.957 651.706 299.155 651.945 298.932 651.682C298.709 651.419 298.957 651.706 298.982 651.729C299.18 652.016 299.35 652.322 299.484 652.645C299.586 652.837 299.438 652.694 299.457 652.524C299.479 652.352 299.716 653.247 299.75 653.611C299.784 653.974 299.679 653.636 299.771 653.489L299.796 654.51C299.721 654.389 299.81 654.145 299.771 654.486C299.736 654.719 299.678 654.946 299.598 655.168L299.687 654.924C297.098 658.152 299.654 662.187 303.461 662.46C304.742 662.655 305.365 662.596 306.651 663.034C306.117 662.8 306.992 663.174 307.042 663.27L307.387 663.604C306.939 663.029 307.613 663.964 307.566 664.013L307.488 663.796C307.622 664.122 307.711 664.464 307.754 664.813C307.779 665.314 307.775 665.818 307.744 666.319L307.787 666.124C307.664 666.951 307.492 667.78 307.296 668.586C306.724 670.734 310.09 671.572 310.588 669.401C312.402 664.049 310.135 659.061 304.629 659.184C303.398 659.037 303.229 659.015 302.399 658.495L302.004 658.114C302.248 658.255 302.179 658.377 302.078 658.185L301.952 657.969C302.099 658.063 302.082 658.331 301.978 658.041L301.925 657.848L301.98 658.09C301.954 658.017 301.976 657.944 301.974 657.896C305.165 653.684 301.851 646.261 294.866 646.946L295.059 646.943C294.792 646.929 294.524 646.895 294.263 646.834L294.045 646.765C294.068 646.741 294.409 646.929 294.068 646.741C293.727 646.552 293.555 646.434 293.996 646.718L293.847 646.574C293.601 646.336 293.945 646.622 293.922 646.646L293.746 646.382C293.892 646.428 293.851 646.72 293.822 646.502C293.792 646.284 293.792 646.284 293.742 646.237C293.693 646.189 293.775 646.551 293.768 646.309C293.762 646.066 294.134 644.627 294.397 643.602C295.684 639.304 290.817 635.164 286.85 637.153C284.952 638.207 286.711 641.188 288.608 640.085L288.584 640.11Z" fill="#D13535"/>
<path d="M340.549 604.957C341.611 604.086 343.773 604 345.16 604.582C345.693 604.806 346.201 605.089 346.672 605.43L346.598 605.359C347.275 605.888 347.888 606.497 348.424 607.172C351.281 610.79 352.048 617.358 354.812 622.021C363.684 634.251 378.678 649.798 392.907 654.983C399.485 657.369 408.685 653.95 408.897 646.099C408.788 643.672 405.214 644.1 405.489 646.452C405.489 646.402 405.531 646.159 405.465 646.477C405.411 646.925 405.31 647.366 405.162 647.794C405.03 648.233 405.3 647.499 405.141 647.916C404.944 648.343 404.713 648.753 404.451 649.142C404.406 649.24 404.338 649.41 404.521 649.068C403.293 650.911 400.817 651.977 399.14 652.2C398.191 652.318 397.231 652.327 396.277 652.227C391.788 651.676 386.412 648.322 382.148 645.241C374.471 639.378 366.717 631.452 360.125 623.797C359.283 622.841 357.003 619.262 356.564 618.03C354.163 610.542 350.455 598.051 340.242 601.293C336.062 602.51 337.59 606.83 340.549 604.957Z" fill="white"/>
<path d="M386.189 661.42C384.769 661.421 382.12 661.224 381.299 661.143C376.71 660.629 372.202 659.517 367.888 657.836C364.611 656.655 358.707 653.408 355.96 651.271C348.435 645.795 342.19 637.574 338.788 629.547C337.74 627.112 336.52 623.562 336.131 621.481C336.006 620.317 335.977 620.147 336.393 619.459C336.461 619.288 336.301 619.606 336.278 619.631C336.254 619.656 336.463 619.385 336.487 619.361L336.65 619.188C336.627 619.213 336.319 619.388 336.485 619.312C336.595 619.249 336.699 619.173 336.792 619.089C336.506 619.191 337.03 618.937 336.792 619.089L337.081 619.034C337.012 619.156 336.742 619.041 336.961 619.06C337.178 619.081 337.034 619.083 336.985 619.035L337.155 619.105C341.744 618.902 338.106 612.967 334.043 616.903C329.278 622.525 339.123 638.067 342.883 643.125C349.584 651.8 358.649 658.313 368.952 661.849C371.765 662.771 387.903 667.389 387.915 663.09C387.896 662.635 387.703 662.204 387.376 661.888C387.05 661.572 386.615 661.396 386.164 661.397L386.189 661.42Z" fill="white"/>
<path d="M599.634 717.052L599.466 717.128C599.472 717.122 599.48 717.118 599.49 717.116C599.498 717.116 599.506 717.12 599.515 717.128L599.634 717.052Z" fill="#452D34"/>
<path d="M540.008 836.117C542.798 837.367 545.469 838.872 547.987 840.615C548.722 841.137 549.889 840.703 550.279 839.943C551.529 837.03 543.644 834.379 541.639 833.101C539.636 831.824 538.057 835.084 540.008 836.117Z" fill="#452D34"/>
<path d="M336.544 417.405L339.672 424.126C340.078 424.945 341.31 425.19 342.021 424.74C344.386 423.143 339.996 417.902 339.459 415.677C338.375 413.729 335.437 415.482 336.544 417.405Z" fill="#452D34"/>
<path d="M597.916 717.616C598.011 717.566 597.986 717.542 597.749 717.643L597.916 717.616Z" fill="#452D34"/>
<path d="M352.928 553.02C351.713 551.609 351.399 549.647 351.328 547.778C350.876 537.486 356.061 527.483 363.833 520.883C371.605 514.283 381.721 510.944 391.875 510.058C402.028 509.173 412.302 506.366 422.269 508.568C436.227 511.647 450.728 515.25 460.31 526.035C461.349 527.182 465.3 530.294 465.3 530.294C464.846 518.958 458.919 504.27 454.826 499.364C451.873 495.797 442.93 488.378 435.902 486.366C432.34 485.337 412.159 478.75 403.176 478.351C399.515 478.174 395.854 477.996 392.206 478.353C385.636 478.992 379.337 481.266 373.873 484.972C368.529 488.614 364.154 493.526 359.232 497.719C350.166 505.484 338.583 510.767 332.027 520.771C325.472 530.774 323.092 558.558 327.044 558.778C337.788 559.364 338.424 567.416 338.424 567.416C339.875 566.784 345.738 565.586 347.43 564.899C347.43 564.899 349.038 555.227 353.002 553.092C353.025 553.067 352.952 553.044 352.928 553.02Z" fill="#D13535"/>
<path d="M585.094 793.312C579.411 791.181 572.438 792.204 568.023 796.508C566.33 798.993 569.685 800.438 571.219 798.225C572.005 797.636 572.854 797.138 573.754 796.749C585.4 792.045 595.472 803.161 594.027 814.602C591.37 829.421 577.218 840.652 566.854 850.383C560.189 856.065 552.692 859.234 544.794 861.78C541.944 863.239 539.446 865.327 536.521 866.667C536.498 866.691 536.45 866.692 536.427 866.717L536.38 866.766C535.884 866.987 535.362 867.152 534.829 867.254L534.662 867.281L534.564 867.285C534.37 867.286 534.178 867.274 533.985 867.245L534.299 867.312L533.985 867.245L533.768 867.176C533.416 867.029 533.082 866.847 532.768 866.635L532.621 866.492C532.225 866.18 531.861 865.828 531.535 865.442L531.412 865.323C527.007 858.601 527.076 848.909 523.678 840.976C522.031 835.832 520.505 830.66 519.268 825.436L519.219 825.388C519.225 825.382 519.228 825.374 519.226 825.364C519.228 825.354 519.224 825.346 519.217 825.34C519.165 824.832 519.16 824.319 519.203 823.81L519.244 823.519C519.305 823.023 519.407 822.535 519.544 822.054C519.593 821.92 519.656 821.787 519.727 821.663C526.939 818.644 527.334 816.231 531.656 809.184C535.52 804.012 543.321 797.629 549.49 801.845C551.078 802.908 552.083 805.49 551.889 806.44C551.859 806.738 551.8 807.031 551.721 807.317L551.653 807.539C547.522 814.487 542.267 820.774 537.722 827.464C536.663 829.376 539.664 831.046 540.722 829.086C545.271 822.495 550.332 816.21 554.539 809.429C557.462 803.257 551.164 796.688 544.942 797.067C535.092 797.582 528.846 806.513 524.45 814.437C523.975 815.092 523.424 815.689 522.812 816.215C523.093 815.967 522.694 816.289 522.67 816.314C522.319 816.573 521.947 816.799 521.558 816.99L521.533 816.966C517.825 817.836 516.275 820.265 515.996 823.55C515.305 823.831 514.619 824.207 513.97 824.291C497.465 826.094 478.33 825.682 462.704 825.158C454.778 775.989 445.963 723.118 415.754 682.292C426.396 676.953 435.852 668.428 431.645 655.217C430.936 652.87 429.747 650.586 429.948 648.079C430.393 644.719 434.944 642.015 435.813 638.307C437.548 631.742 432.22 626.493 426.257 625.652C426.919 625.203 427.581 624.754 428.241 624.208C435.304 619.053 440.7 611.718 444.935 604.112C446.399 603.017 454.434 583.927 459.208 569.122C459.413 569.288 459.654 569.401 459.912 569.451C460.169 569.502 460.434 569.488 460.683 569.411C473.562 566.898 478.935 551.013 473.932 539.588C473.218 538.007 472.391 536.479 471.46 535.017C471.642 534.852 471.785 534.647 471.879 534.419C471.973 534.19 472.015 533.943 472.004 533.696C471.141 515.711 467.014 493.243 448.63 485.409C433.861 478.799 403.353 470.988 388.128 476.822C379.228 479.726 372.494 486.478 365.821 492.767C359.147 499.056 350.596 503.386 343.582 509.536C334.417 517.205 330.39 529.229 329.241 540.91C329.175 543.023 328.19 551.688 328.752 556.779C323.74 555.533 318.406 556.771 314.798 560.575C309.267 566.407 309.873 576.087 316.136 582.145C322.399 588.203 332.026 588.421 337.557 582.59C340.815 579.154 341.923 574.447 341.062 569.871C342.943 569.084 347.729 567.178 350.54 566.058L351.088 565.829L351.185 567.821C349.609 572.075 348.265 576.932 351.159 581.058C352.912 583.797 354.813 586.727 358.023 587.131L358.253 587.636C358.223 587.706 358.216 587.782 358.235 587.855L358.084 589.559L357.966 590.532C357.653 590.119 357.313 589.727 356.949 589.36C351.851 583.719 342.786 582.908 336.661 587.124C332.571 589.991 328.273 593.176 326.008 597.808C324.91 600.013 325.177 602.972 324.076 605.08C322.973 607.19 319.133 607.55 317.681 610.028C316.228 612.508 315.917 615.427 316.231 618.337C302.556 612.168 307.372 616.212 306.034 595.589C305.319 572.016 302.131 548.607 298.273 525.357C319.261 497.145 341.496 469.712 366.42 444.976C367.265 444.135 368.11 443.294 368.979 442.476C369.087 442.374 369.18 442.258 369.259 442.132C374.327 442.77 379.431 438.136 383.253 435.153C390.303 429.513 393.478 420.882 398.345 413.556C402.345 408.092 408.307 402.204 410.122 395.006C413.251 385.525 404.693 373.363 394.581 378.741C395.16 328.23 341.165 351.615 353.467 401.605C348.914 402.318 343.859 402.165 344.16 407.431C215.021 462.691 204.405 542.58 241.87 669.826C228.305 697.64 211.74 724.777 194.176 750.376C192.897 752.123 195.34 754.533 196.642 752.761C214.254 728.059 228.854 701.297 243.656 674.773C244.45 673.692 244.966 672.423 245.156 671.083C245.344 669.745 245.2 668.378 244.737 667.103C226.842 602.372 208.758 522.437 259.211 468.291C278.302 446.914 302.736 431.368 328.254 418.719C333.072 431.75 341.235 443.277 351.902 452.109C352.316 452.603 352.797 453.035 353.329 453.396C333.058 474.721 314.586 497.787 296.946 521.372C296.684 521.496 296.457 521.683 296.286 521.919C294.471 523.384 289.678 525.995 286.642 527.751C284.77 528.877 286.529 531.858 288.424 530.707C290.32 529.556 292.86 528.223 295.042 526.92C295.348 529.539 296.34 532.679 296.387 534.524C298.4 547.557 300.173 560.642 301.345 573.763C302.519 586.882 302.425 600.342 303.335 613.54C304.544 617.599 309.296 619.069 312.795 620.415C314.221 620.901 315.605 621.511 316.929 622.237C317.231 623.713 317.582 625.187 317.833 626.568L317.863 626.785C306.426 628.277 274.912 627.408 276.116 644.584C279.645 652.926 284.256 661.126 290.296 667.917C303.243 684.326 322.223 670.942 335.654 662.663C336.574 661.942 338.339 661.327 339.035 660.343C343.314 664.47 348.029 668.109 353.093 671.193L352.977 671.316C344.313 677.908 346.676 724.869 358.156 726.874C367.362 727.536 376.54 728.028 385.745 728.64C387.56 729.038 389.451 728.788 391.096 727.935C392.742 727.082 394.038 725.679 394.767 723.962C403.675 709.883 397.838 692.206 393.384 686.335C399.943 686.896 406.543 686.221 412.707 683.657C441.739 721.639 452.128 778.733 459.3 824.708C455.221 824.176 451.119 823.617 447.056 822.813C444.95 822.292 444.145 825.635 446.299 826.156C451.205 827.114 456.152 827.73 461.124 828.37C463.09 829.039 466.394 828.397 467.966 828.732C471.89 828.831 475.787 828.861 479.686 828.888C488.034 828.908 496.357 828.857 504.645 828.44C504.875 832.737 505.272 837.054 505.716 841.37C506.847 851.892 509.139 862.636 514.757 871.767C480.382 885.133 439.749 896.521 408.03 875.033C404.186 872.11 400.717 868.723 397.695 864.941C390.329 855.21 385.807 843.778 383.264 831.653C383.265 831.288 383.192 830.926 383.045 830.587C379.159 811.007 380.354 789.706 383.246 770.757L383.688 768.295C384.091 766.126 380.773 765.287 380.37 767.456C377.505 783.588 376.456 800.1 377.781 816.449C378.125 821.687 378.804 826.899 379.81 832.056C376.323 845.455 370.846 858.207 367.48 871.627C366.956 873.774 370.274 874.613 370.773 872.442C373.42 861.976 377.351 851.898 380.604 841.587C380.809 840.675 381.076 839.777 381.402 838.903C393.077 882.175 429.18 898.096 477.542 886.981C495.797 883.084 513.389 876.601 530.472 869.106C533.806 871.572 538.665 870.587 546.337 864.838C569.316 859.303 621.369 813.24 585.094 793.312ZM355.697 450.949C350.907 447.026 343.448 439.337 339.996 434.055C337.25 430.038 334.887 425.769 332.938 421.307C332.263 420.274 332.02 418.287 331.2 417.257C335.692 415.064 340.234 412.966 344.753 410.942C347.204 423.214 356.471 432.984 365.832 440.711C362.404 444.092 359.026 447.505 355.697 450.949ZM368.735 438.497C369.098 438.612 368.661 438.426 368.613 438.427L367.587 437.813C358.118 429.602 347.827 419.316 347.711 406.129C349.679 405 357.67 406.096 357.143 402.365C353.167 386.866 354.974 363.077 370.66 355.509C374.576 353.375 382.009 354.311 384.864 356.883C390.875 361.513 391.211 371.976 391.239 379.773C391.211 379.851 391.197 379.933 391.197 380.017C390.962 381.506 390.588 382.968 390.08 384.384C388.973 387.246 387.454 389.945 385.909 392.621C385.826 392.869 385.702 393.101 385.542 393.308C383.573 397.251 381.986 401.379 380.801 405.635C380.278 407.782 383.618 408.596 384.116 406.426C384.466 405.011 385.498 402.077 385.746 401.417C385.972 399.883 388.037 396.858 388.513 394.761C388.67 394.609 388.803 394.435 388.909 394.243C389.78 392.527 392.877 387.517 394.03 383.61C394.283 383.494 394.502 383.314 394.666 383.088L394.854 382.89C395.575 381.93 397.143 381.125 398.293 380.958C398.891 380.891 399.494 380.872 400.096 380.902L400.145 380.95C401.667 381.19 402.322 381.397 403.569 382.225C404.092 382.635 404.571 383.099 405 383.608L405.024 383.632C407.06 386.122 407.394 389.857 407.205 391.9C406.105 399.79 400.833 404.403 396.204 410.679C392.497 415.385 390.453 421.13 386.967 426.002C382.939 431.297 375.757 438.42 369.56 438.774L368.735 438.497ZM472.163 545.741C473.557 553.343 469.854 561.984 462.764 565.123C461.94 565.468 461.085 565.736 460.21 565.922C460.788 564.017 461.296 562.234 461.712 560.599C462.416 560.854 462.993 559.896 463.423 558.795C464.091 559.537 464.873 560.008 465.846 559.481C469.187 557.454 459.519 549.003 457.907 547.064C449.257 538.887 439.647 530.824 427.775 528.437C413.186 525.127 397.869 528.266 384.81 535.107C382.292 536.366 367.856 544.859 363.508 549.892C363.08 549.913 362.678 550.103 362.391 550.422L362.273 550.545L362.249 550.521L362.011 550.623L361.986 550.599L361.553 550.607L361.021 550.471C360.362 550.118 360.535 550.285 360.016 549.736C359.791 549.427 359.598 549.097 359.438 548.75C359.566 549.063 359.361 548.581 359.359 548.484C359.225 548.116 359.126 547.735 359.065 547.347C359.059 547.341 359.054 547.334 359.05 547.326C359.046 547.317 359.045 547.309 359.044 547.299C359.044 547.291 359.046 547.281 359.049 547.273C359.052 547.265 359.057 547.257 359.063 547.251C357.528 532.169 368.243 519.176 381.192 513.747C407.852 503.433 464.075 512.145 472.163 545.741ZM362.011 550.623C362.034 550.598 362.059 550.622 362.011 550.623V550.623ZM334.866 579.893C330.765 584.217 323.518 583.983 318.735 579.356C313.951 574.728 313.431 567.45 317.532 563.126C321.633 558.802 328.856 559.012 333.639 563.64C338.423 568.267 338.991 575.544 334.866 579.893ZM341.42 565.953C340.945 566.065 340.482 566.219 340.037 566.415C339.13 564.352 337.832 562.486 336.218 560.921C335.074 559.8 333.778 558.849 332.369 558.1C331.555 543.903 332.529 528.17 341.473 516.545C347.216 509.592 355.311 505.294 362.417 499.945C372.681 491.964 381.195 480.444 394.882 478.475C402.717 477.242 410.649 478.898 418.447 479.997C430.217 482.143 442.366 485.036 452.703 491.434C464.306 500.336 467.431 516.434 468.441 530.723C446.517 503.69 390.074 496.755 365.976 519.921C358.497 527.658 352.91 539.83 356.527 550.672L356.68 551.009C350.846 556.264 350.542 557.532 350.851 562.191C347.731 563.436 344.563 564.683 341.42 565.953ZM363.466 583.486C363.539 580.667 365.21 576.363 362.744 573.977C359.359 571.415 355.333 568.183 355.67 563.44C355.815 560.596 356.36 555.485 358.364 552.923C359.292 553.61 360.399 554.004 361.544 554.056C359.541 557.614 358.28 561.985 359.486 565.947C360.505 569.159 365.023 570.876 367.36 568.162C369.102 565.678 365.484 564.358 364.707 565.975C364.684 566 364.659 565.976 364.636 566.001C364.562 566.019 364.49 566.045 364.421 566.078L364.085 566.084C364.012 566.061 363.964 566.061 363.987 566.037C364.011 566.012 363.891 566.038 363.818 566.015L363.744 565.944L363.33 565.733L363.305 565.709C362.494 565.019 362.327 563.151 362.467 562.056C362.745 559.402 363.673 556.864 365.168 554.672C365.335 554.42 365.421 554.121 365.413 553.817C365.405 553.513 365.305 553.218 365.125 552.972C366.867 554.41 368.297 556.196 369.323 558.217C369.828 559.18 370.263 560.216 371.097 560.833C372.347 561.758 374.167 561.434 375.32 560.417C376.473 559.401 377.036 557.861 377.214 556.327C377.392 554.793 377.304 553.24 377.386 551.709C377.565 547.986 378.738 544.39 380.78 541.3C384.104 539.255 387.562 537.44 391.132 535.868C400.888 531.613 411.592 529.649 421.846 530.85C429.049 536.017 434.198 544.646 442.768 546.776C445.382 547.41 448.148 547.384 450.74 548.091C454.294 549.018 457.388 551.25 459.413 554.349C452.446 585.226 431.527 647.662 391.745 619.371C390.518 618.421 387.745 616.21 386.189 614.611C384.84 613.59 383.374 610.75 381.563 612.459C381.262 612.79 381.098 613.229 381.11 613.682C381.121 614.134 381.307 614.565 381.626 614.886C385.706 619.501 390.619 623.289 396.1 626.044C395.891 626.287 395.696 626.543 395.518 626.808C388.998 624.701 382.862 621.518 377.358 617.392C371.209 612.959 368.014 606.507 365.793 599.477C364.801 597.332 362.703 596.204 360.866 594.951L360.792 594.88C361.433 592.559 361.322 589.136 361.622 587.723C362.684 586.557 363.331 585.068 363.466 583.486ZM364.132 566.083L364.157 566.106C364.205 566.106 364.18 566.082 364.132 566.083ZM364.469 566.076C364.493 566.052 364.541 566.051 364.517 566.076C364.511 566.069 364.502 566.066 364.493 566.066C364.484 566.066 364.475 566.07 364.469 566.076ZM401.619 628.351L399.152 627.862C399.222 627.737 399.292 627.663 399.361 627.541C400.114 627.844 400.842 628.123 401.619 628.351ZM316.866 669.362C312.272 671.265 307.882 672.704 303.136 672.424L302.919 672.403C302.334 672.313 301.76 672.167 301.2 671.973L300.982 671.903C299.673 671.299 298.436 670.547 297.293 669.662C289.347 663.684 283.15 652.62 279.31 643.409L279.307 643.312L279.287 642.486C279.336 642.085 279.441 641.69 279.594 641.315C280.264 639.971 281.23 638.799 282.418 637.889C285.882 634.984 293.04 632.671 297.908 632.074C304.547 631.105 311.31 631.202 317.949 630.234C318.162 630.24 318.375 630.202 318.572 630.125C321.446 641.054 328.772 650.128 336.667 658.005C330.342 661.883 323.101 666.626 316.866 669.362ZM393.42 693.476C394.134 694.969 395.339 698.93 395.666 701.427C396.412 706.224 396.04 712.45 394.031 717.708C393.791 718.562 391.658 722.754 390.98 723.567C390.732 723.937 390.441 724.277 390.116 724.578C389.907 724.781 389.668 724.951 389.407 725.077C389.171 725.16 388.931 725.227 388.689 725.284C378.769 724.928 366.504 724.053 357.848 723.309L357.629 723.192L357.332 722.905C353.14 715.96 351.904 707.99 351.507 699.835C351.269 692.309 350.436 685.062 352.861 678.168C353.129 677.337 354.573 674.518 355.442 673.701C355.666 673.469 355.825 673.181 355.903 672.867C360.61 675.542 365.519 677.834 370.581 679.723C376.594 682.555 383.099 684.819 389.741 685.89C389.688 686.26 389.668 686.634 389.673 687.009C391.175 689.005 392.433 691.178 393.42 693.476ZM412.782 679.941C412.682 679.959 412.587 679.993 412.496 680.043C399.809 685.393 385.39 683.15 371.728 676.569C356.903 671.166 343.742 661.883 333.595 649.679C327.51 643.034 322.739 635.104 321.188 626.12C320.889 624.741 320.54 623.265 320.262 621.763C320.312 621.556 320.338 621.345 320.341 621.132C320.316 620.785 320.182 620.455 319.957 620.19C319.482 617.6 319.298 615.053 319.944 612.976C320.103 612.551 320.31 612.149 320.562 611.775C327.019 607.36 327.383 608.472 328.895 599.699C329.598 597.961 331.227 595.844 333.087 594.182C333.921 592.954 336.797 591.567 338.299 590.083L338.392 589.984C340.93 588.218 344.024 587.455 347.095 587.836C348.135 587.991 349.156 588.25 350.147 588.606C354.079 590.044 355.256 592.84 357.078 595.456C357.079 595.839 357.205 596.213 357.441 596.516C357.675 596.821 358.003 597.037 358.372 597.133C358.378 597.139 358.386 597.143 358.397 597.141C358.405 597.142 358.414 597.138 358.419 597.132C359.299 598.089 360.337 598.884 361.487 599.481C363.478 601.17 363.673 604.154 364.646 606.469C365.758 609.285 367.31 611.908 369.243 614.234C380.414 626.981 398.486 633.847 415.112 632.02C419.865 630.697 424.798 626.941 429.62 630.232L430.086 630.588C430.506 630.923 430.895 631.299 431.245 631.709L431.846 632.67L432.15 633.247C432.588 634.429 432.747 635.009 432.705 636.201C432.696 636.388 432.677 636.575 432.647 636.76L432.406 637.712C431.685 639.619 429.144 641.9 427.874 643.987C423.064 652.649 434.196 659.105 426.298 670.225C422.504 674.366 417.906 677.674 412.782 679.941ZM521.809 868.97C523.513 866.97 521.469 861.201 520.651 859.272C519.83 857.345 516.604 859.102 517.735 861.05C519.932 865.116 517.796 869.112 520.333 869.578C519.547 869.909 518.735 870.214 517.975 870.518C516.631 868.411 515.458 866.197 514.464 863.902C512.373 859.226 510.444 851.438 509.765 846.471C509.088 841.505 508.415 834.788 508.115 829.62C508.395 829.489 508.642 829.295 508.832 829.054C509.022 828.808 509.153 828.521 509.211 828.215C511.564 828.074 513.94 827.864 516.136 827.143C517.262 835.625 523.181 847.035 523.539 852.688C524.771 858.568 526.093 863.355 528.047 866.426C526 867.289 523.926 868.129 521.809 868.97Z" fill="#452D34"/>
<path d="M578.882 831.319C573.777 842.534 561.643 847.902 551.833 843.292C542.019 838.681 535.118 829.21 547.623 815.626C553.895 808.76 550.582 792.813 570.387 802.588C580.131 807.418 584.012 820.077 578.882 831.319Z" fill="#EFDCC4"/>
<path d="M546.489 837.509C543.998 835.099 542.413 832.334 541.811 829.381C540.731 823.838 543.084 817.869 548.796 811.647C550.366 809.942 551.288 807.424 552.238 804.977C553.678 801.114 555.191 797.129 559.167 795.526C562.671 794.175 567.31 795.017 573.764 798.182C578.977 800.759 582.825 805.426 584.584 811.297C586.345 817.169 585.809 823.568 583.165 829.396C580.496 835.251 575.97 839.825 570.448 842.255C564.93 844.685 558.87 844.745 553.634 842.287C551.012 841.1 548.598 839.486 546.489 837.509ZM576.38 804.546C575.13 803.341 573.697 802.341 572.143 801.586C566.856 798.983 562.938 798.131 560.557 799.048C558.173 799.966 556.997 802.95 555.711 806.348C554.674 809.136 553.567 811.998 551.556 814.222C546.685 819.507 544.619 824.378 545.497 828.684C546.573 834.082 552.019 837.362 555.183 838.86C559.42 840.871 564.327 840.834 568.943 838.808C573.753 836.586 577.593 832.679 579.755 827.806C583.631 819.331 582.051 810.032 576.38 804.546Z" fill="#452D34"/>
<path d="M137.553 729.542C133.979 726.18 137.024 721.972 139.16 718.874L134.724 719.463C128.202 720.308 126.224 710.53 132.556 708.838C126.187 704.335 132.371 693.83 141.424 701.781C139.975 697.775 138.745 692.842 143.896 691.097C149.42 689.808 150.8 694.885 151.821 699.141C153.94 695.411 156.809 690.89 161.647 693.817C166.483 696.742 163.287 701.657 160.801 705.127L165.285 704.537C172.239 703.684 173.662 714.346 166.71 715.296L162.779 715.805C172.124 720.106 166.987 730.108 159.855 726.763C161.007 733.373 151.273 735.612 149.427 729.183L148.163 724.882C145.792 729.126 142.634 733.604 137.553 729.542ZM142.819 716.159C143.046 716.38 143.19 716.672 143.227 716.984C143.267 717.299 143.198 717.616 143.032 717.882L139.004 724.171C137.129 727.047 141.679 730.075 143.481 727.127L147.485 720.862C151.103 717.445 150.756 729.427 153.297 730.037C155.277 731.242 157.845 729.13 157.14 726.932L156.273 724.056C155.883 722.873 157.301 721.829 158.304 722.515L161.044 724.312C161.336 724.509 161.663 724.645 162.006 724.714C162.351 724.785 162.705 724.785 163.046 724.715C163.39 724.646 163.714 724.508 164.003 724.311C164.292 724.114 164.539 723.861 164.729 723.566C167.431 719.073 157.39 717.746 157.624 714.608C157.689 714.341 157.831 714.1 158.032 713.916C158.232 713.731 158.484 713.611 158.752 713.568L166.353 712.582C169.759 712.181 169.07 706.777 165.642 707.251L158.256 708.208C157.178 708.397 156.302 707.029 156.953 706.095C157.883 703.867 163.781 698.344 160.188 696.101C156.595 693.858 154.113 701.359 152.498 703.112C152.357 703.331 152.156 703.501 151.922 703.608C151.685 703.712 151.426 703.749 151.169 703.71C150.914 703.672 150.672 703.559 150.476 703.388C150.28 703.218 150.135 702.994 150.059 702.743L147.955 695.591C147.028 692.231 141.821 693.732 142.867 697.066L145.054 704.582C145.134 704.85 145.128 705.133 145.04 705.396C144.952 705.659 144.786 705.888 144.562 706.049C144.337 706.204 144.073 706.292 143.798 706.296C143.525 706.301 143.256 706.225 143.024 706.076L136.76 701.96C134.875 700.659 132.131 702.504 132.717 704.777C132.855 706.38 135.967 707.684 137.047 708.539C138.126 709.393 137.708 710.931 136.483 711.026L133.608 711.419C130.2 711.818 130.916 717.248 134.367 716.749C135.211 716.854 142.314 715.197 142.819 716.159Z" fill="#D13535"/>
<path d="M1455.61 786.343C1422.63 654.937 1455.77 423.41 1534.4 386.123C1613.03 348.837 1723.35 442.099 1756.33 573.505C1789.3 704.911 1777.81 842.836 1699.18 880.123C1620.56 917.41 1488.58 917.749 1455.61 786.343Z" fill="#D6F9F7" fill-opacity="0.66"/>
<g clip-path="url(#clip0_410_11581)">
<path d="M1672.42 755.881C1668.63 759.446 1664.58 756.024 1661.35 753.542L1661.77 758.274C1662.32 765.193 1652.04 766.685 1650.58 759.94C1645.61 766.337 1634.86 759.313 1643.66 750.19C1639.39 751.456 1634.18 752.516 1632.64 746.963C1631.53 741.068 1636.94 739.91 1641.41 739.056C1637.63 736.607 1633.06 733.373 1636.38 728.424C1639.7 723.473 1644.61 727.124 1648.11 729.945C1648.03 727.356 1646.92 723.185 1649.09 721.092C1652.14 717.278 1658.78 719.408 1659.01 724.311L1659.37 728.511C1664.22 718.964 1674.5 724.806 1670.65 732.226C1677.58 731.372 1679.45 741.731 1672.6 743.351L1668.07 744.407C1672.33 747.098 1676.94 750.892 1672.42 755.881ZM1658.71 749.528C1658.95 749.302 1659.27 749.166 1659.6 749.15C1659.94 749.132 1660.27 749.231 1660.54 749.432L1666.87 754.012C1668.8 755.493 1671.75 753.704 1671.31 751.306C1671.35 749.455 1664.98 745.987 1663.87 744.913C1660.13 740.208 1675.78 743.015 1674.05 737.203C1673.39 734.086 1669.69 735.244 1667.62 735.816C1666.37 736.158 1665.35 734.603 1666.12 733.587C1667.44 731.851 1670.25 728.763 1667.54 726.879C1662.99 723.773 1661.1 734.272 1657.86 733.869C1657.58 733.779 1657.33 733.612 1657.15 733.385C1656.96 733.159 1656.84 732.885 1656.81 732.595L1656.16 724.531C1655.94 720.895 1650.24 721.382 1650.59 724.996L1651.19 732.804C1651.21 733.074 1651.15 733.344 1651.02 733.581C1650.9 733.819 1650.71 734.015 1650.47 734.148C1650.23 734.283 1649.97 734.347 1649.7 734.335C1649.43 734.324 1649.17 734.236 1648.95 734.081C1646.67 732.973 1641.18 726.412 1638.69 730.093C1638.47 730.388 1638.31 730.724 1638.22 731.082C1638.13 731.441 1638.11 731.812 1638.17 732.177C1638.22 732.544 1638.35 732.894 1638.54 733.21C1638.73 733.526 1638.98 733.801 1639.28 734.018L1645.61 738.6C1645.82 738.766 1645.98 738.987 1646.08 739.24C1646.17 739.49 1646.19 739.765 1646.13 740.027C1646.08 740.29 1645.95 740.532 1645.76 740.725C1645.58 740.918 1645.34 741.056 1645.08 741.122L1637.51 742.923C1633.96 743.704 1635.26 749.276 1638.82 748.394L1646.74 746.501C1647.02 746.439 1647.32 746.463 1647.59 746.57C1647.86 746.678 1648.09 746.864 1648.25 747.105C1648.41 747.349 1648.5 747.638 1648.5 747.934C1648.49 748.228 1648.4 748.514 1648.22 748.754L1643.62 755.11C1641.45 757.99 1646.07 761.377 1648.16 758.422L1650.49 755.192C1651.21 754.123 1653.02 754.634 1653.06 755.931L1653.3 758.956C1653.54 762.569 1659.24 762.131 1658.92 758.494C1659.05 757.583 1657.7 750.03 1658.71 749.528Z" fill="#D13535"/>
<path d="M1411.68 918.365C1373.09 906.207 1371.59 840.967 1371.94 840.977C1373.5 840.847 1384.38 822.321 1393.99 813.475C1380.7 816.627 1368.66 823.57 1359.56 834.157C1359.76 852.739 1365.75 869.669 1367.64 874.244C1368.98 877.495 1369.59 880.999 1369.45 884.513C1369.3 888.026 1368.4 891.467 1366.79 894.596C1355.55 916.512 1353.77 944.982 1375.11 960.958C1375.11 960.958 1407.2 948.149 1407.38 947.875C1407.57 947.602 1404.04 930.822 1405.39 929.848C1412.29 929.167 1416.68 929.073 1416.68 929.073C1416.68 929.073 1415.34 924.616 1411.68 918.365Z" fill="#452D34"/>
<path d="M1475.45 840.406C1472.39 835.796 1441.03 814.823 1416.12 811.811C1416.76 812.534 1417.29 813.345 1417.7 814.219C1431.73 843.523 1451.95 839.618 1451.9 909.126C1451.86 951.48 1476.61 939.413 1473.05 976.662C1467.37 1035.36 1553 1033.19 1567.4 1002.64C1588.47 958.027 1544.8 900.316 1501.7 880.233C1481.58 870.842 1476.11 855.601 1475.45 840.406Z" fill="#452D34"/>
<path d="M1515.86 898.728C1516.9 899.521 1517.92 900.288 1518.94 901.106C1520.84 901.874 1523.4 907.102 1526.09 905.306C1529.46 902.288 1511.28 890.038 1515.86 898.728Z" fill="white"/>
<path d="M1368.12 901.184C1365.49 906.622 1364.25 912.628 1364.52 918.662C1364.56 919.602 1365.22 920.51 1366.26 920.516C1367.3 920.523 1368.16 919.762 1368.12 918.771C1368.04 917.385 1368.04 915.995 1368.14 914.61L1368.36 912.535L1368.45 911.954C1368.49 911.524 1368.42 912.182 1368.45 911.802L1368.67 910.717C1368.94 909.351 1369.3 908.006 1369.75 906.69L1370.42 904.731L1370.86 903.779C1370.88 903.653 1370.88 903.704 1370.8 903.879L1370.91 903.578L1371.16 903.052C1371.59 902.203 1371.47 901.082 1370.57 900.599C1369.67 900.114 1368.55 900.284 1368.12 901.184Z" fill="white"/>
<path d="M1364.21 928.905C1363.77 929.986 1363.55 931.145 1363.57 932.312C1363.58 932.951 1363.63 933.589 1363.74 934.22C1363.87 934.861 1364.06 935.487 1364.32 936.09C1364.49 936.399 1364.74 936.649 1365.06 936.813C1365.37 936.978 1365.72 937.045 1366.07 937.009C1366.42 936.975 1366.75 936.837 1367.03 936.615C1367.3 936.391 1367.5 936.095 1367.6 935.759L1367.69 935.329C1367.71 935.019 1367.64 934.708 1367.49 934.435L1367.44 934.281L1367.61 934.719C1367.38 934.091 1367.23 933.439 1367.16 932.775L1367.2 933.234C1367.13 932.54 1367.15 931.842 1367.26 931.154L1367.2 931.609C1367.29 931.034 1367.43 930.469 1367.63 929.922C1367.76 929.472 1367.71 928.988 1367.49 928.573C1367.39 928.36 1367.24 928.172 1367.05 928.022C1366.87 927.872 1366.65 927.763 1366.43 927.703C1365.98 927.57 1365.49 927.62 1365.08 927.84C1364.67 928.084 1364.36 928.46 1364.21 928.905Z" fill="white"/>
<path d="M1411.5 805.175C1411.99 805.198 1412.48 805.246 1412.97 805.321C1415.52 805.727 1418.82 807.401 1421.32 809.532C1426.37 813.593 1431.29 821.229 1437.6 824.998C1437.8 825.122 1438.02 825.206 1438.26 825.242C1438.49 825.278 1438.73 825.268 1438.96 825.211C1439.2 825.154 1439.41 825.052 1439.6 824.911C1439.79 824.77 1439.95 824.592 1440.08 824.387C1441.41 822.195 1437.49 820.909 1436.86 820.077C1430.57 814.863 1426.26 807.297 1418.76 803.567C1416.26 801.283 1405.24 800.721 1411.5 805.175Z" fill="white"/>
<path d="M1444.3 830.757C1450.87 834.129 1456.95 827.131 1448.95 827.955L1449.39 827.892C1448.59 827.99 1447.77 827.975 1446.98 827.845L1447.43 827.909C1444.81 826.333 1440.84 828.446 1444.3 830.757Z" fill="white"/>
<path d="M1515.12 1012.04C1512.99 1012.17 1510.85 1012.07 1508.74 1011.75C1507.42 1011.61 1503.47 1010.45 1501.42 1009.52C1498.82 1008.32 1496.38 1006.82 1494.14 1005.04C1490.97 1002.71 1486.28 996.476 1485.06 992.557C1485.12 989.691 1480.75 987.35 1480.91 991.34C1481.86 1013.5 1523.83 1021.24 1515.12 1012.04Z" fill="white"/>
<path d="M1478.17 969.38C1477.74 970.094 1477.61 970.946 1477.79 971.756C1477.9 972.292 1477.97 972.776 1478.05 973.286L1477.96 972.825C1478.1 974.015 1478.07 975.219 1477.88 976.402L1477.95 975.947C1477.61 977.104 1477.53 978.701 1478.97 979.074C1484.4 979.72 1480.94 964.997 1478.17 969.38Z" fill="white"/>
<path d="M1469.78 782.882C1480.46 796.326 1489.55 836.596 1480.73 843.61C1478.23 839.019 1441.66 811.621 1415.78 812.182C1396.45 812.636 1378.5 813.971 1365.92 828.665L1364.93 828.711C1360.71 808.788 1371.95 793.091 1387.99 780.456C1389.34 779.431 1391.04 776.995 1392.72 774.076C1399.44 762.715 1409.51 753.705 1421.55 748.277C1444.73 737.789 1477.2 722.201 1474.85 703.375C1481.68 710.153 1486.92 717.292 1488.82 726.738C1490.71 736.185 1491.49 748.06 1484.49 759.777C1476.98 772.314 1467.29 779.71 1469.78 782.882Z" fill="#D13535"/>
<path d="M1473.83 841.246C1473.84 841.295 1473.86 841.339 1473.89 841.378C1473.91 841.42 1473.95 841.453 1474 841.477C1473.95 841.392 1473.89 841.311 1473.83 841.246Z" fill="#452D34"/>
<path d="M1460.56 686.93C1457.3 693.098 1460.1 701.887 1466.91 704.098C1462.6 730.817 1423.8 738.321 1404.29 751.714C1394.5 758.016 1387.97 767.563 1381.82 777.147C1365.69 790.058 1353.71 810.404 1356.95 831.642C1357.09 833.575 1358.06 837.588 1360.61 835.635C1393.56 798.515 1441.06 813.658 1473.83 841.246C1473.83 841.145 1473.97 841.452 1474.02 841.504C1474.16 841.739 1474.35 841.938 1474.58 842.089C1474.8 842.24 1475.06 842.34 1475.33 842.378C1475.59 842.419 1475.87 842.399 1476.13 842.317C1476.39 842.237 1476.62 842.104 1476.83 841.919C1487.55 829.657 1474.1 792.858 1464.87 780.955C1464.94 780.984 1465.06 781.317 1465.01 781.112C1472.75 767.821 1487.32 755.293 1485.67 737.529C1485.17 724.648 1483.6 718.053 1474.15 705.764C1482.83 705.621 1491.23 697.323 1488.51 688.156C1484.97 675.029 1465.66 674.977 1460.56 686.93ZM1464.94 780.984C1464.93 780.977 1464.93 780.968 1464.93 780.957C1464.93 780.948 1464.94 780.94 1464.94 780.934L1464.94 780.984ZM1478.94 753.822C1476.21 760.134 1471.7 765.658 1467.4 770.984C1460.85 777.89 1460.81 781.721 1462.11 783.207C1471.85 798.474 1480.54 820.638 1475.45 837.994C1444.49 810.234 1391.82 796.306 1360.41 830.503C1357.76 811.466 1368.41 792.527 1383.12 780.943C1385.78 778.688 1387.36 775.286 1389.17 772.395C1393.21 766.087 1398.34 760.554 1404.33 756.056C1422.45 742.698 1466.36 732.505 1470.11 706.606C1481.71 718.987 1485.5 738.034 1478.94 753.822ZM1483.55 686.026C1487.62 690.87 1484.33 699.526 1478.19 701.318L1478.16 701.343C1477.93 701.413 1478.01 701.39 1478.11 701.341C1471.26 703.849 1461.52 699.519 1462.83 691.49C1464.26 681.763 1477.86 677.783 1483.55 686.026Z" fill="#452D34"/>
<path d="M1381.58 791.706C1384.24 791.178 1386.91 790.727 1389.59 790.376L1391.6 790.107L1392.55 790.008L1393.03 789.947C1393.08 789.949 1393.39 789.906 1393.13 789.95C1392.88 789.993 1393.23 789.953 1393.28 789.955L1397.3 789.619C1402.71 789.31 1408.14 789.356 1413.54 789.757C1416.22 789.94 1418.91 790.224 1421.61 790.584C1422.24 790.68 1422.9 790.75 1423.56 790.871C1423.89 790.898 1424.22 790.952 1424.54 791.028C1424.74 791.034 1424.47 791 1424.47 791L1424.72 791.06L1425.27 791.127C1426.61 791.345 1427.95 791.614 1429.26 791.856C1434.59 792.909 1439.85 794.255 1445.03 795.886C1450.21 797.538 1455.31 799.471 1460.28 801.677C1460.01 801.543 1460.23 801.676 1460.38 801.731C1460.54 801.789 1460.69 801.861 1460.83 801.949L1461.81 802.358C1462.66 802.791 1463.75 802.695 1464.26 801.772C1464.77 800.849 1464.6 799.728 1463.68 799.319C1458.58 796.99 1453.38 794.918 1448.08 793.111C1442.88 791.396 1437.6 789.957 1432.25 788.799C1426.78 787.655 1421.24 786.826 1415.68 786.318C1410.24 785.828 1404.77 785.705 1399.32 785.95C1393.78 786.183 1388.26 786.813 1382.82 787.837L1380.8 788.206C1380.57 788.255 1380.35 788.348 1380.15 788.483C1379.95 788.618 1379.78 788.789 1379.65 788.99C1379.53 789.189 1379.44 789.414 1379.4 789.647C1379.35 789.882 1379.36 790.123 1379.41 790.355C1379.46 790.587 1379.56 790.807 1379.7 791.001C1379.83 791.196 1380.01 791.361 1380.21 791.486C1380.42 791.612 1380.64 791.696 1380.87 791.735C1381.11 791.772 1381.35 791.762 1381.58 791.706Z" fill="white"/>
<path d="M1405.31 934.946C1405.59 936.604 1405.75 938.232 1405.92 939.887C1406.2 942.383 1406.51 944.905 1406.86 947.376C1407.22 949.849 1407.46 951.835 1407.98 954.009C1408.22 955.001 1408.57 955.967 1409.01 956.882C1409.34 957.45 1409.71 957.987 1410.13 958.49C1410.43 958.912 1410.76 959.311 1411.11 959.686C1412.04 960.649 1413.06 961.522 1414.15 962.291C1416.08 963.577 1418.19 964.581 1420.41 965.272C1421.63 965.651 1422.89 965.917 1424.16 966.07C1426.42 966.355 1428.69 966.425 1430.96 966.276C1437.36 965.96 1443.69 964.777 1449.77 962.761C1456.59 960.479 1463.26 957.257 1468.56 952.315L1470.18 950.689C1471.03 949.865 1471.53 948.742 1471.57 947.56C1471.61 946.375 1471.18 945.221 1470.37 944.35C1469.54 943.564 1468.44 942.921 1467.24 942.962C1466.05 943.003 1464.85 943.297 1464.03 944.158C1462.51 945.773 1460.84 947.235 1459.03 948.524L1460.02 947.845C1456.48 950.304 1452.64 952.294 1448.59 953.766L1449.67 953.342C1445.34 954.931 1440.86 956.08 1436.3 956.77C1435.12 956.987 1433.95 957.105 1432.75 957.245L1433.9 957.102C1430.67 957.436 1427.36 957.59 1424.16 957.061L1425.29 957.223C1423.74 956.964 1422.23 956.501 1420.79 955.842L1421.87 956.308C1420.47 955.711 1419.15 954.93 1417.96 953.981L1418.9 954.721C1418.05 954.029 1417.3 953.229 1416.66 952.343L1417.34 953.327C1417.09 952.976 1416.88 952.594 1416.72 952.192L1417.12 953.296C1416.77 952.247 1416.51 951.169 1416.35 950.074C1416.04 948.543 1415.83 947.015 1415.6 945.46C1415.19 942.35 1414.83 939.193 1414.46 936.086C1414.32 935.042 1414.22 933.998 1414.03 932.951C1413.83 931.904 1412.95 930.711 1412.01 930.124C1411 929.527 1409.81 929.328 1408.67 929.567C1407.55 929.886 1406.41 930.564 1405.84 931.637C1405.27 932.638 1405.08 933.814 1405.31 934.946Z" fill="#EFDCC4"/>
<path d="M1447.86 938.545L1449.91 948.148C1450.02 948.612 1450.31 949.015 1450.71 949.27C1451.12 949.522 1451.61 949.608 1452.07 949.507C1455.24 948.995 1451.37 940.223 1451.34 937.735C1451.31 935.247 1447.32 936.294 1447.86 938.545Z" fill="#452D34"/>
<path d="M1433.74 940.857L1434.86 952.464C1434.86 952.936 1435.04 953.39 1435.36 953.734C1435.69 954.079 1436.13 954.287 1436.6 954.317C1437.46 954.292 1438.55 953.564 1438.46 952.572L1437.33 940.965C1437.43 938.659 1433.73 938.546 1433.74 940.857Z" fill="#452D34"/>
<path d="M1417.81 942.099C1418.15 945.865 1419.38 952.145 1419.62 954.488C1419.85 956.829 1423.15 956.93 1423.19 954.621C1423.07 953.039 1422.85 951.465 1422.55 949.906C1422.21 947.664 1421.49 943.075 1421.41 942.209C1421.45 939.901 1417.85 939.792 1417.81 942.099Z" fill="#452D34"/>
<path d="M1375.22 870.261C1379.23 867.819 1384.09 868.22 1386.4 871.361C1388.72 874.502 1387.51 879.921 1383.36 882.993C1382.52 883.61 1381.6 884.112 1380.62 884.484C1378.35 879.923 1375.75 875.428 1375.22 870.261Z" fill="#D13535"/>
<path d="M1437.59 865.998C1437.59 861.838 1433.39 858.471 1428.22 858.476C1423.05 858.481 1418.86 861.859 1418.87 866.02C1418.87 870.18 1423.07 873.549 1428.24 873.542C1433.41 873.537 1437.6 870.16 1437.59 865.998Z" fill="#D13535"/>
<path d="M1398.78 857.397C1396.35 861.358 1393.32 865.048 1391.31 869.251C1388.52 876.12 1397.51 882.381 1402.97 877.344C1404.8 875.623 1401.96 873.024 1400.33 874.904C1400.02 875.148 1400.59 874.759 1400.36 874.879C1400.05 875.067 1399.73 875.235 1399.4 875.383C1399.48 875.259 1399.68 875.265 1399.45 875.334C1399.1 875.455 1398.73 875.537 1398.35 875.58C1398.48 875.559 1398.76 875.592 1398.35 875.58C1398.23 875.601 1397.31 875.624 1396.49 875.219C1396.66 875.402 1396.71 875.353 1396.56 875.246C1395.69 874.738 1395.76 874.816 1395.1 874.01C1395.33 874.194 1395.25 874.217 1395.15 874.062C1394.94 873.754 1394.77 873.415 1394.65 873.057C1394.76 873.695 1394.47 872.392 1394.45 872.264C1394.42 872.136 1394.38 871.932 1394.47 872.341C1394.41 871.962 1394.41 871.577 1394.48 871.199C1394.34 871.728 1394.73 870.319 1394.84 870.119C1396.56 867.125 1399.63 862.701 1401.84 859.241C1403.07 857.299 1399.98 855.378 1398.78 857.397Z" fill="#452D34"/>
<path d="M1419.84 851.715C1421.24 850.398 1421.3 848.197 1419.99 846.797C1418.67 845.398 1416.47 845.33 1415.07 846.647C1413.67 847.964 1413.6 850.167 1414.92 851.566C1416.24 852.966 1418.44 853.032 1419.84 851.715Z" fill="#452D34"/>
<path d="M1390.56 857.351C1391.96 856.034 1392.02 853.832 1390.71 852.432C1389.39 851.033 1387.19 850.966 1385.79 852.283C1384.39 853.601 1384.32 855.803 1385.64 857.202C1386.96 858.602 1389.16 858.668 1390.56 857.351Z" fill="#452D34"/>
<path d="M1426.21 838.229C1421.3 836.695 1416.09 836.389 1411.03 837.339C1408.76 837.803 1409.57 841.33 1411.84 840.815L1414.01 840.499C1414.06 840.502 1414.57 840.467 1414.14 840.479C1416.68 840.249 1419.25 840.352 1421.76 840.786C1422.92 841.012 1424.07 841.3 1425.19 841.651C1427.4 842.327 1428.45 838.882 1426.21 838.229Z" fill="#452D34"/>
<path d="M1384.36 843.333C1381.77 845.454 1379.47 847.901 1377.51 850.612C1377.39 850.815 1377.31 851.04 1377.27 851.274C1377.23 851.509 1377.24 851.749 1377.3 851.98C1377.36 852.211 1377.46 852.428 1377.6 852.619C1377.74 852.81 1377.92 852.971 1378.12 853.092C1379.74 854.232 1381.21 851.612 1381.64 851.067C1383.2 849.198 1384.93 847.483 1386.82 845.945C1388.54 844.373 1386.06 841.735 1384.36 843.333Z" fill="#452D34"/>
<path d="M1680.53 898.131C1679.19 897.126 1675.81 894.055 1673.46 893.754C1672.92 892.877 1671.72 892.331 1670.68 893.265C1623.45 920.079 1554.53 929.871 1499.4 927.084C1498.44 926.953 1497.57 927.918 1497.54 928.829C1496.91 932.188 1510.57 931.002 1513 931.43C1566.17 930.351 1624.93 923.223 1671.85 896.651C1682.34 901.107 1685.22 912.687 1689.13 922.348C1694.21 931.611 1689.47 938.83 1682.56 945.242C1652.22 975.665 1611.42 996.534 1568 995.625C1567.58 994.867 1567.2 994.146 1566.84 993.459C1565.59 991.187 1562.31 993.397 1563.87 995.475C1555.91 995.084 1548 994.004 1540.24 992.249C1538.85 991.926 1537.61 991.711 1536.39 992.664C1534.7 994.212 1537.1 996.873 1538.85 995.276C1547.67 997.692 1556.74 999.039 1565.88 999.291C1575.02 1015.33 1591.47 1025.95 1593.89 1045.74C1594.38 1047.99 1597.88 1047.21 1597.36 1044.94C1594.61 1024.52 1580.25 1015.72 1570.17 999.345C1604.51 999.243 1640.08 985.373 1666.79 963.976C1676.22 955.686 1698.17 940.843 1694.48 926.926C1693.02 921.552 1690.43 916.551 1688.61 911.319C1686.79 906.086 1684.41 901.676 1680.53 898.131Z" fill="#452D34"/>
<path d="M1440.08 906.51C1434.7 910.483 1426.28 914.569 1419.49 915.149C1417.18 915.368 1414.86 915.305 1412.57 914.965C1410.4 914.573 1408.28 913.939 1406.25 913.073C1404.92 912.602 1400.79 909.99 1399.83 909.072C1391.02 901.7 1386.1 891.451 1381.98 880.642C1377.87 869.834 1374.66 856.058 1373.61 844.632C1373.03 842.66 1374.29 838.765 1371.54 838.352C1370.63 838.375 1369.61 839.08 1369.69 840.097C1371.85 865.743 1381.97 912.922 1411.55 918.233C1411.58 918.428 1411.65 918.613 1411.76 918.772C1413.63 921.87 1415.21 925.129 1416.5 928.509L1416.52 928.636C1399.32 929.943 1403.33 925.928 1406.8 947.148C1355.34 968.631 1291.02 983.256 1235.51 974.52C1234.35 974.181 1233.51 974.967 1233.31 975.9C1225.46 982.642 1224.96 993.463 1225.1 1003.03C1225.04 1008.46 1224.07 1014.4 1226.61 1019.45C1232.46 1029.8 1250.19 1034.2 1260.85 1038.5C1304.34 1053.78 1357.45 1050.74 1394.81 1024.49C1396.29 1030.09 1399.33 1035.16 1402.18 1040.17C1418.68 1067.44 1437.75 1093.24 1458.41 1117.55C1463.51 1123.18 1468.51 1129.12 1474.82 1133.47C1476.77 1134.65 1478.69 1131.61 1476.67 1130.41C1457.46 1114.5 1442.58 1092.05 1428.06 1072.85C1417.68 1057.89 1406.32 1042.58 1398.93 1025.88C1398.25 1023.86 1397.94 1020.75 1395.22 1020.85C1392.51 1020.94 1391.17 1023.09 1389.17 1023.99C1346.65 1051.05 1290.5 1049.02 1245.81 1028.86C1238.35 1025.54 1228.14 1021.55 1228.51 1011.79C1229.14 1000.42 1226.58 986.812 1235.85 978.236C1286.72 987.161 1359.77 971.456 1407.34 950.819C1409.47 975.22 1439.38 968.106 1455.11 962.262C1461.1 959.932 1467 956.786 1471.44 952.022C1473.11 950.448 1470.68 947.812 1468.98 949.41C1467.66 950.839 1466.2 952.129 1464.62 953.263C1460.89 955.821 1456.84 957.891 1452.58 959.419C1443.15 962.636 1427.93 966.566 1419.08 962.973C1417.83 962.39 1416.64 961.674 1415.54 960.837C1414.88 960.282 1414.28 959.659 1413.75 958.98C1413.2 958.214 1412.74 957.393 1412.37 956.527C1411.64 953.967 1411.04 951.183 1410.49 948.299C1410.48 948.115 1410.44 947.936 1410.38 947.764C1409.44 942.836 1408.66 937.61 1407.74 932.71C1419.83 932.416 1431.96 930.55 1443.38 926.455C1445.63 925.28 1457.37 922.209 1455.46 919.081C1455.23 918.665 1454.85 918.354 1454.4 918.218C1453.95 918.08 1453.46 918.127 1453.04 918.347C1449.91 919.979 1446.68 921.423 1443.37 922.674C1435.86 925.405 1428.06 927.272 1420.13 928.239C1419.33 926.184 1417.77 921.593 1416 918.724C1418.03 918.785 1420.05 918.677 1422.05 918.399C1430.85 916.914 1438.79 912.257 1445.68 906.755C1446.41 906.168 1446.4 904.849 1445.76 904.22C1443.7 902.456 1441.83 905.649 1440.08 906.51Z" fill="#452D34"/>
<path d="M1421.23 896.118C1419.62 897.616 1417.66 898.681 1415.53 899.218C1407.35 901.255 1401.51 894.531 1399.39 891.549C1399.07 891.114 1398.88 890.595 1398.84 890.054C1398.8 889.513 1398.92 888.972 1399.18 888.497C1399.43 888.022 1399.81 887.624 1400.27 887.347C1400.73 887.07 1401.25 886.925 1401.79 886.926L1403.8 886.962C1409.52 887.043 1415.15 885.555 1420.09 882.658L1421.87 881.621C1422.34 881.347 1422.86 881.205 1423.4 881.212C1423.94 881.22 1424.46 881.374 1424.92 881.663C1425.37 881.953 1425.73 882.361 1425.97 882.842C1426.2 883.323 1426.3 883.859 1426.26 884.393C1426.02 887.077 1425.07 892.504 1421.23 896.118ZM1403.9 890.898C1406.23 893.583 1409.95 896.538 1414.58 895.383C1419.21 894.23 1421.38 889.625 1422.04 886.094C1416.54 889.302 1410.27 890.962 1403.9 890.898Z" fill="#452D34"/>
<path d="M1718.1 932.285C1713.87 938.679 1700.25 941.793 1690.16 942.123C1687.24 942.212 1685.43 939.973 1683.59 937.712C1674.62 926.654 1669.93 915.497 1670.1 902.282C1670.17 900.152 1669.57 898.054 1670.69 896.26C1681.96 877.871 1700.2 871.979 1708.12 870.492C1719.37 868.373 1724.47 873.627 1725.58 876.909L1725.87 880.725C1735.17 883.013 1738.43 894.377 1741.83 902.803C1745.23 911.23 1744.55 923.747 1734.58 928.443C1699.42 944.943 1694.29 899.614 1703.58 897.864" fill="#D13535"/>
<path d="M1707.74 868.528C1701.82 869.667 1681.51 874.891 1669.02 895.221C1667.87 897.089 1667.97 899.019 1668.09 900.724L1668.15 902.248C1667.98 915.364 1672.37 927.044 1682.06 938.959C1683.97 941.301 1686.32 944.215 1690.2 944.104C1698.48 943.848 1713.68 941.415 1719.29 934.022L1719.41 934L1719.77 934.01L1720.28 934.026L1720.68 934.04L1721.21 934.028L1721.62 933.991L1722.18 933.955L1722.56 933.944L1723.15 933.885L1723.56 933.846L1724.22 933.764L1724.55 933.699L1725.59 933.552L1725.75 933.506L1726.64 933.305L1727.05 933.215L1727.74 933.059L1728.2 932.92L1728.87 932.739L1729.33 932.6L1730.02 932.393L1730.51 932.229L1731.2 931.969L1731.69 931.807L1732.41 931.526L1732.89 931.31L1733.72 930.983L1734.15 930.817L1735.39 930.246C1737.04 929.466 1738.56 928.433 1739.9 927.184C1742.53 924.701 1744.31 921.404 1745.14 917.422C1746.15 912.263 1745.64 906.922 1743.68 902.048C1743.25 901.072 1742.87 900.043 1742.45 898.964C1739.56 891.493 1736 882.275 1727.95 879.314C1727.97 878.281 1727.8 877.254 1727.45 876.281C1726.2 872.538 1720.45 866.171 1707.74 868.528ZM1723.64 877.306L1723.9 880.614C1723.47 882.358 1722.71 883.999 1721.64 885.444C1717.91 890.787 1711.26 894.874 1708.8 894.925C1708.54 894.925 1708.28 894.977 1708.04 895.075C1707.8 895.178 1707.59 895.324 1707.41 895.512C1707.23 895.7 1707.09 895.922 1707 896.165C1706.91 896.409 1706.87 896.666 1706.88 896.925C1706.88 897.181 1706.93 897.437 1707.03 897.674C1707.13 897.913 1707.28 898.127 1707.46 898.306C1707.64 898.486 1707.86 898.629 1708.1 898.724C1708.34 898.819 1708.6 898.867 1708.85 898.861C1712 898.805 1716.91 895.958 1720.91 892.197C1722.37 890.835 1723.69 889.336 1724.87 887.724C1725.85 886.343 1726.64 884.84 1727.22 883.252C1733.18 885.92 1736.14 893.572 1738.78 900.402C1739.2 901.481 1739.58 902.507 1740 903.536C1742.67 910.088 1743.3 922.16 1733.74 926.67C1724.19 931.175 1715.49 931.192 1709.57 926.316C1702.34 920.312 1700.49 908.658 1701.98 902.916L1702.12 902.338L1702.18 902.187L1702.34 901.787L1702.38 901.66L1702.59 901.209L1702.67 901.136L1702.83 900.837L1702.93 900.739L1703.15 900.44L1703.72 899.9L1703.98 899.806C1704.26 899.786 1704.53 899.706 1704.77 899.575C1705.01 899.444 1705.23 899.262 1705.4 899.043C1705.57 898.822 1705.69 898.57 1705.76 898.301C1705.82 898.03 1705.83 897.747 1705.78 897.475C1705.73 897.203 1705.62 896.941 1705.46 896.715C1705.3 896.484 1705.1 896.293 1704.86 896.149C1704.62 896.006 1704.35 895.914 1704.08 895.879C1703.8 895.844 1703.52 895.871 1703.26 895.952C1700.86 896.386 1699.07 898.516 1698.18 901.964C1697.29 905.415 1697.4 910.925 1698.75 915.763C1699.87 919.731 1702.19 925.332 1707.09 929.388C1707.24 929.494 1707.36 929.626 1707.51 929.732C1707.57 929.748 1707.63 929.784 1707.66 929.836C1707.76 929.892 1707.86 929.997 1707.99 930.076C1708.11 930.155 1708.08 930.13 1708.13 930.182L1708.56 930.474L1708.61 930.526C1708.75 930.632 1708.96 930.74 1709.1 930.844C1709.16 930.879 1709.2 930.913 1709.25 930.951L1709.63 931.19C1709.68 931.191 1709.73 931.244 1709.8 931.273L1710.22 931.513C1710.25 931.541 1710.3 931.54 1710.35 931.592L1710.9 931.864C1710.95 931.916 1711 931.917 1711.08 931.944C1711.15 931.973 1711.35 932.081 1711.47 932.162L1711.7 932.244C1711.84 932.332 1711.99 932.403 1712.15 932.461C1712.2 932.46 1712.25 932.513 1712.3 932.516L1712.93 932.763C1712.98 932.767 1713.03 932.787 1713.08 932.819L1713.58 932.987L1713.81 933.069L1714.34 933.213C1714.39 933.212 1714.44 933.265 1714.49 933.268C1714.54 933.268 1714.54 933.268 1714.56 933.293C1709.59 937.483 1699.11 939.907 1690.12 940.194C1688.32 940.215 1687.06 938.832 1685.15 936.491C1676.08 925.327 1671.96 914.47 1672.1 902.317C1672.12 901.715 1672.09 901.114 1672.03 900.513C1671.95 899.013 1671.93 898.099 1672.41 897.301C1684.05 878.368 1702.97 873.509 1708.49 872.457C1718.24 870.571 1722.6 874.688 1723.64 877.306Z" fill="#452D34"/>
<path d="M1673.28 805.487C1666.8 796.612 1657.99 788.553 1646.86 786.515C1644.64 785.89 1643.6 789.336 1645.82 789.961C1651.52 790.996 1656.07 793.369 1660.65 797.034C1663.99 799.697 1667.9 804.055 1670.67 807.946C1672.22 809.641 1674.86 807.21 1673.28 805.487Z" fill="#CE9C5C"/>
<path d="M1666.13 816.41C1657.73 820.521 1647.84 827.808 1649.71 838.372C1650.66 841.166 1654.12 839.344 1653.08 836.774C1652.86 835.651 1653.49 832.448 1654.05 831.372C1655.47 828.117 1658.16 825.585 1660.73 823.76C1662.43 821.907 1670.08 819.931 1668.57 817.17C1668.34 816.756 1667.95 816.449 1667.5 816.307C1667.05 816.167 1666.56 816.203 1666.13 816.41Z" fill="#CE9C5C"/>
<path d="M1691.17 807.272C1692.54 805.266 1693.96 803.33 1695.46 801.464C1698.54 797.697 1701.95 794.206 1705.65 791.038C1707.23 789.679 1708.87 788.384 1710.56 787.151C1712.28 785.63 1709.83 782.965 1708.1 784.539C1705 786.423 1684.21 805.055 1688.72 807.857C1689.13 808.094 1689.61 808.163 1690.06 808.055C1690.52 807.946 1690.92 807.666 1691.17 807.272Z" fill="#CE9C5C"/>
<path d="M1682.02 800.168C1681.64 799.56 1681.33 798.914 1681.09 798.237C1680.97 798.005 1681.09 798.286 1681.11 798.364C1680.81 797.457 1680.59 796.524 1680.46 795.578C1680.36 794.688 1680.91 791.66 1678.73 791.694C1674.85 792.238 1677.57 799.679 1678.85 801.824C1680.13 803.969 1683.1 802.205 1682.02 800.168Z" fill="#CE9C5C"/>
<path d="M1698.12 810.096C1698.29 810.614 1698.25 811.176 1698.02 811.666C1698.11 811.481 1698.06 811.53 1697.86 811.814L1697.73 811.936C1698.12 811.821 1698.5 811.605 1698.91 811.465C1701.18 810.66 1703.53 810.119 1705.92 809.849C1708.37 810.202 1708.84 806.309 1706.3 806.233C1702.59 806.627 1698.56 807.266 1695.35 809.302C1692.52 812.946 1699.41 814.296 1698.14 810.123L1698.12 810.096Z" fill="#CE9C5C"/>
<path d="M1659.7 811.523C1657.35 811.222 1649.66 808.806 1649.25 812.247C1649.47 815.145 1653.14 813.759 1655.03 814.298L1656.24 814.436C1656.52 814.469 1656.34 814.49 1656.19 814.435C1657.76 814.584 1660.21 815.877 1660.91 813.741C1661.13 812.834 1660.66 811.752 1659.7 811.523Z" fill="#CE9C5C"/>
<path d="M1643.65 788.652C1643.07 789.19 1642.37 789.578 1641.61 789.78C1640.84 789.983 1640.04 789.994 1639.27 789.816C1638.53 789.632 1637.85 789.254 1637.3 788.72C1636.76 788.185 1636.36 787.515 1636.17 786.777C1636 786.21 1635.94 785.616 1636 785.03C1636.06 784.44 1636.24 783.871 1636.52 783.35C1636.8 782.832 1637.18 782.373 1637.64 782.001C1638.1 781.628 1638.63 781.351 1639.2 781.185C1639.76 781.019 1640.36 780.966 1640.94 781.028C1641.53 781.093 1642.1 781.271 1642.62 781.557C1643.14 781.839 1643.59 782.224 1643.96 782.686C1644.33 783.147 1644.61 783.677 1644.77 784.245C1645.02 784.961 1645.06 785.732 1644.89 786.469C1644.73 787.209 1644.36 787.888 1643.83 788.429L1643.65 788.652ZM1640.12 785.118C1640.05 785.189 1640 785.275 1639.97 785.374C1639.93 785.471 1639.93 785.574 1639.95 785.673C1640.03 785.903 1640.1 785.931 1640.18 785.958C1640.31 785.981 1640.45 785.971 1640.58 785.93C1640.72 785.891 1640.84 785.822 1640.94 785.729C1640.97 785.653 1641.02 785.603 1640.95 785.373C1640.91 785.234 1640.82 785.115 1640.7 785.04C1640.57 784.965 1640.42 784.942 1640.28 784.972L1640.12 785.118Z" fill="#CE9C5C"/>
<path d="M1682.55 789.372C1681.98 789.912 1681.27 790.3 1680.51 790.5C1679.75 790.703 1678.95 790.716 1678.18 790.536C1677.44 790.359 1676.77 789.984 1676.22 789.455C1675.68 788.924 1675.29 788.259 1675.1 787.524C1674.86 786.799 1674.83 786.022 1674.99 785.278C1675.15 784.532 1675.52 783.847 1676.04 783.289C1676.61 782.688 1677.34 782.25 1678.14 782.014C1678.94 781.78 1679.79 781.76 1680.6 781.954C1681.33 782.133 1682.01 782.503 1682.55 783.035C1683.09 783.566 1683.48 784.233 1683.68 784.965C1683.91 785.687 1683.95 786.457 1683.79 787.195C1683.63 787.935 1683.27 788.618 1682.76 789.177L1682.55 789.372ZM1678.93 785.992L1678.9 786.015C1678.85 786.065 1678.8 786.114 1678.89 786.369L1678.86 786.395C1678.93 786.625 1679.01 786.653 1679.08 786.68C1679.22 786.703 1679.36 786.691 1679.49 786.652C1679.63 786.611 1679.75 786.542 1679.85 786.449C1679.9 786.4 1679.95 786.35 1679.86 786.095L1679.89 786.07C1679.79 785.814 1679.72 785.786 1679.67 785.784C1679.54 785.758 1679.4 785.764 1679.27 785.799C1679.14 785.833 1679.02 785.899 1678.93 785.992Z" fill="#CE9C5C"/>
<path d="M1703.49 900.07L1677.35 813.781C1678.22 816.752 1679.03 815.254 1680.44 814.813C1681.12 814.628 1681.84 814.711 1682.46 815.045C1683.08 815.383 1683.55 815.945 1683.76 816.614L1707.67 896.922L1703.49 900.07Z" fill="#CE9C5C"/>
<path d="M1702.36 815.071L1691.79 812.747C1693.76 809.127 1691.02 808.003 1687.96 809.56C1687.64 807.546 1687.29 805.505 1686.92 803.487C1686.55 801.473 1684.39 801.587 1683.66 802.959C1682.94 804.333 1682.53 805.208 1682.02 806.336C1680.33 805.117 1678.64 803.847 1677 802.58C1672.79 801.03 1674.8 807.41 1674.71 809.615C1665.01 808.104 1661.01 810.293 1670.68 817.057C1669.1 818.938 1667.79 821.054 1666.33 823.016C1665.32 824.658 1667.42 826.474 1669 825.431C1669.25 825.406 1669.51 825.443 1669.75 825.539C1669.98 825.634 1670.19 825.785 1670.35 825.979L1670.38 825.953C1670.43 826.059 1670.5 826.136 1670.55 826.239C1670.6 826.342 1670.64 826.545 1670.62 826.368C1671.13 828.058 1667.91 832.02 1670.92 833.381C1672.93 833.898 1673.28 831.55 1674.16 830.333C1674.87 829.209 1675.72 828.178 1676.69 827.261C1676.86 829.169 1676.93 831.025 1676.97 832.905C1676.96 833.299 1677.07 833.692 1677.3 834.014C1677.53 834.338 1677.86 834.576 1678.24 834.694C1678.62 834.811 1679.03 834.795 1679.4 834.655C1679.77 834.516 1680.08 834.255 1680.29 833.917C1681.42 832.161 1682.78 830.555 1684.32 829.143C1686.37 830.269 1695.02 836.064 1693.9 830.271C1692.34 827.788 1691.12 825.104 1690.29 822.293L1702.3 818.572C1703.99 818.165 1704.12 815.53 1702.36 815.071ZM1674.8 810.66L1674.75 810.811L1674.8 810.66ZM1670.64 826.545C1670.67 826.613 1670.67 826.666 1670.64 826.7L1670.64 826.545ZM1683.72 828.769C1683.74 828.771 1683.76 828.776 1683.78 828.787C1683.79 828.795 1683.81 828.808 1683.82 828.825L1683.72 828.769Z" fill="#EFDCC4"/>
<path d="M1670.38 826.006C1670.5 826.288 1670.45 826.084 1670.38 826.006V826.006Z" fill="#CE9C5C"/>
<path d="M1693.42 825.104L1694.37 824.905C1694.45 824.881 1694.88 824.819 1694.45 824.881C1695.12 824.834 1695.79 824.862 1696.45 824.968C1696.2 824.907 1696.2 824.907 1696.37 824.939C1697.1 825.085 1697.8 825.294 1698.49 825.561C1698.64 825.618 1698.84 825.673 1698.56 825.589C1699.44 825.895 1701.23 827.168 1701.53 827.429C1703.65 828.485 1705.55 833.644 1708.17 831.717C1710.55 829.278 1703 823.974 1701.03 822.823C1698.48 821.476 1695.46 820.827 1692.64 821.605C1690.37 822.118 1691.18 825.645 1693.42 825.104Z" fill="#CE9C5C"/>
<path d="M1671.55 835.05C1670.4 838.896 1668.53 842.672 1668.56 846.732C1668.49 849.067 1672.09 849.176 1672.13 846.869C1672.12 846.207 1672.16 845.547 1672.24 844.892C1672.67 842.671 1674.11 838.807 1675 836.093C1675.89 833.379 1672.23 832.839 1671.55 835.05Z" fill="#CE9C5C"/>
<path d="M1713.19 933.355L1715.7 941.679C1715.8 942.016 1715.97 942.328 1716.2 942.594C1716.42 942.863 1716.7 943.081 1717.02 943.233C1717.34 943.387 1717.68 943.473 1718.03 943.483C1718.38 943.496 1718.73 943.433 1719.06 943.301C1719.71 943.03 1720.25 942.523 1720.55 941.881C1720.86 941.241 1720.91 940.506 1720.71 939.824L1719.03 934.216L1713.19 933.355Z" fill="#CE9C5C"/>
<path d="M1194.49 1015.94C1199.62 1021.65 1213.54 1022.68 1223.6 1021.49C1226.48 1021.14 1227.93 1018.65 1229.4 1016.13C1236.62 1003.86 1239.59 992.154 1237.4 979.095C1237.05 977.003 1237.3 974.854 1235.93 973.188C1222.01 956.728 1203.1 953.643 1195.06 953.374C1183.63 952.952 1179.36 958.939 1178.75 962.321L1179.04 966.136C1170.2 969.828 1168.7 981.532 1166.58 990.376C1164.46 999.219 1167.06 1011.5 1177.6 1014.64C1214.87 1025.67 1213.11 980.085 1203.63 979.747" fill="#D13535"/>
<path d="M1194.92 977.352L1154.62 896.7C1156.01 899.483 1154.4 898.927 1153.11 899.598C1152.48 899.918 1152 900.475 1151.78 901.148C1151.55 901.82 1151.6 902.555 1151.91 903.191L1189.77 977.957L1194.92 977.352Z" fill="#CE9C5C"/>
<path d="M1208.42 1003.27L1214.69 1015.94C1214.85 1016.26 1214.94 1016.6 1214.96 1016.95C1214.98 1017.31 1214.92 1017.66 1214.8 1017.99C1214.67 1018.32 1214.48 1018.62 1214.23 1018.87C1213.99 1019.12 1213.69 1019.32 1213.36 1019.45C1212.7 1019.71 1211.96 1019.7 1211.3 1019.44C1210.64 1019.18 1210.09 1018.69 1209.78 1018.05L1204.24 1006.56L1208.42 1003.27Z" fill="#CE9C5C"/>
<path d="M1162.33 887.721C1160.97 882.503 1155.21 889.942 1153.68 891.875C1147.73 883.828 1147.38 886.279 1146.11 894.514C1144.45 894.057 1142.2 892.187 1140.75 893.793C1140.33 894.288 1140.13 895.17 1140.54 895.766C1141.68 897.501 1142.85 899.211 1143.99 900.946C1140.71 901.912 1139.51 904.617 1143.43 905.903C1142.45 908.107 1135.46 915.381 1137.59 916.969C1138.95 919.04 1148.51 912.503 1151.07 911.768C1152.4 914.345 1153.35 917.1 1153.89 919.949C1157.06 925.095 1159.35 914.861 1160.1 912.625C1162.18 912.577 1164.26 912.811 1166.28 913.32C1167.99 913.828 1169.32 911.635 1168.07 910.354C1166.81 909.073 1165.59 907.513 1164.39 906.03C1166.55 906.01 1168.69 906.446 1170.67 907.312C1172.35 907.895 1173.74 905.603 1172.51 904.347C1171.28 903.092 1169.37 902.577 1168.21 901.299C1168.53 901.79 1168.04 901.014 1168.07 900.889C1168.08 900.892 1168.08 900.896 1168.08 900.9C1168.08 900.905 1168.08 900.909 1168.08 900.914C1168.08 900.919 1168.08 900.923 1168.08 900.928C1168.08 900.932 1168.07 900.936 1168.07 900.939C1168.09 900.926 1168.09 900.908 1168.09 900.889C1168.09 900.87 1168.09 900.851 1168.07 900.838C1168.01 900.607 1168.05 900.71 1168.08 900.787C1168.06 900.536 1168.1 900.285 1168.2 900.054C1168.3 899.823 1168.45 899.619 1168.65 899.459C1168.42 899.579 1168.57 899.482 1168.73 899.386L1168.7 899.41C1170.51 899.084 1170.82 896.378 1168.96 895.865C1167.1 895.352 1164.17 894.806 1161.72 894.504C1162.12 892.266 1162.33 889.996 1162.33 887.721ZM1168.25 899.93L1168.28 899.905C1168.25 900.031 1168.09 900.179 1168.25 899.93Z" fill="#EFDCC4"/>
<path d="M1168.07 900.888L1168.08 900.787L1168.07 900.888Z" fill="#CE9C5C"/>
<path d="M1155.41 887.486C1155.3 886.849 1155.25 886.213 1155.16 885.601C1155.08 884.99 1155.13 885.042 1155.17 885.449C1154.68 881.011 1154.74 876.528 1155.37 872.106C1155.37 872.106 1155.43 871.601 1155.38 871.853C1155.32 872.105 1155.43 871.601 1155.43 871.652C1155.9 868.741 1156.74 865.902 1157.92 863.2C1158.8 861.294 1159.86 859.481 1161.11 857.789C1161.66 857.02 1161.29 855.74 1160.49 855.309C1160.09 855.083 1159.61 855.021 1159.16 855.134C1158.71 855.248 1158.32 855.529 1158.07 855.921C1152.8 862.994 1151.06 872.027 1151.28 880.687C1151.35 883.227 1151.58 885.772 1151.88 888.293C1152.19 890.815 1155.9 889.735 1155.41 887.486Z" fill="#CE9C5C"/>
<path d="M1165.45 894.389C1168.4 893.589 1172.28 892.641 1174.85 892.389C1176.6 892.214 1178.36 892.242 1180.1 892.472C1181.33 892.711 1182.54 893.062 1183.7 893.52C1185.48 894.275 1187.04 895.465 1188.24 896.982C1189.23 899.347 1192.75 898.057 1191.66 895.639C1189.52 892.377 1186.13 890.244 1182.38 889.293C1176.46 887.819 1170.4 889.336 1164.67 890.888C1162.4 891.403 1163.2 894.93 1165.45 894.389Z" fill="#CE9C5C"/>
<path d="M1148.96 912.872C1143.2 915.971 1142.3 923.176 1142.76 929.053C1142.78 930.017 1143.49 930.927 1144.48 930.932C1145.47 930.936 1146.38 930.177 1146.33 929.186C1146.21 927.279 1146.22 924.361 1146.47 922.948C1146.63 921.958 1146.88 920.988 1147.24 920.053L1147.32 919.877C1148.14 918.227 1148.64 917.455 1150.02 916.406C1152.24 915.788 1152.21 911.93 1148.96 912.872Z" fill="#CE9C5C"/>
<path d="M1141.08 898.016C1131.47 895.861 1121.56 895.406 1111.79 896.672C1110.85 896.77 1110.17 897.943 1110.45 898.814C1110.8 900.855 1113.95 899.91 1114.58 899.904C1121.5 899.246 1128.48 899.466 1135.35 900.557C1136.88 900.35 1141.24 902.944 1142.28 900.234C1142.49 899.353 1142.07 898.223 1141.08 898.016Z" fill="#CE9C5C"/>
<path d="M1145.34 889.136C1144.8 886.734 1141.67 879.432 1138.46 881.568C1136.81 883.32 1139.23 884.687 1140.15 886.035C1140 885.844 1139.98 885.818 1140.08 885.956C1140.65 886.786 1141.12 887.688 1141.47 888.638C1141.72 891.995 1145.39 892.335 1145.34 889.136Z" fill="#CE9C5C"/>
<path d="M1171.62 911.249C1173.34 912.189 1175.09 913.105 1176.79 914.019C1177.61 914.475 1178.38 914.93 1179.15 915.435C1179.33 915.568 1179.53 915.675 1179.7 915.807C1179.87 915.94 1179.92 915.992 1180.05 916.072C1180.17 916.151 1179.85 915.913 1180.07 916.098C1180.3 916.282 1180.76 916.728 1181.11 917.094C1181.43 917.44 1181.88 917.643 1182.36 917.657C1182.84 917.671 1183.3 917.496 1183.64 917.17C1183.98 916.839 1184.18 916.391 1184.19 915.918C1184.21 915.445 1184.04 914.985 1183.72 914.635C1182.35 913.121 1180.58 912.027 1178.8 911.035L1173.49 908.209C1171.52 907.007 1169.62 910.071 1171.62 911.249Z" fill="#CE9C5C"/>
<path d="M1140.47 907.412C1138.98 902.901 1130.68 909.527 1128.43 911.057C1126.52 913.69 1129.85 915.288 1131.82 912.937C1133.9 911.498 1136.13 910.305 1138.48 909.382C1138.99 909.246 1138.64 909.133 1137.4 908.969L1136.97 908.144C1137.36 910.49 1141.01 909.763 1140.47 907.412Z" fill="#CE9C5C"/>
<path d="M1168.94 884.749C1169.5 883.929 1170.09 883.084 1170.72 882.291L1170.87 882.143C1171.84 880.996 1172.87 879.909 1173.97 878.887C1175.66 877.34 1173.18 874.701 1171.51 876.275C1169.84 877.848 1163.56 883.267 1166.51 885.361C1166.92 885.596 1167.4 885.664 1167.85 885.55C1168.31 885.435 1168.7 885.148 1168.94 884.749Z" fill="#CE9C5C"/>
<path d="M1198.1 904.005C1197.79 904.313 1197.43 904.568 1197.04 904.76C1195.99 905.193 1194.82 905.215 1193.76 904.821C1192.7 904.426 1191.83 903.645 1191.32 902.633C1190.81 901.622 1190.7 900.456 1191.02 899.369C1191.33 898.281 1192.05 897.353 1193.02 896.771C1193.54 896.505 1194.11 896.345 1194.7 896.302C1195.28 896.259 1195.87 896.332 1196.43 896.519C1196.99 896.696 1197.51 896.985 1197.95 897.37C1198.4 897.754 1198.76 898.225 1199.02 898.755C1199.3 899.276 1199.46 899.847 1199.5 900.433C1199.54 901.019 1199.47 901.608 1199.27 902.163C1199.04 902.866 1198.64 903.499 1198.1 904.005ZM1194.69 900.375C1194.59 900.443 1194.53 900.543 1194.51 900.655C1194.49 900.766 1194.51 900.882 1194.57 900.98C1194.62 901.109 1194.73 901.21 1194.86 901.261C1194.99 901.313 1195.14 901.31 1195.27 901.255C1195.4 901.179 1195.49 901.054 1195.53 900.908C1195.56 900.782 1195.56 900.65 1195.52 900.527C1195.44 900.404 1195.33 900.304 1195.2 900.238C1195.06 900.216 1194.92 900.229 1194.79 900.276L1194.69 900.375Z" fill="#CE9C5C"/>
<path d="M1165.02 854.101C1164.71 854.385 1164.36 854.63 1163.99 854.831C1162.93 855.361 1161.7 855.45 1160.57 855.079C1159.45 854.707 1158.52 853.905 1157.98 852.848C1157.71 852.325 1157.55 851.754 1157.51 851.169C1157.47 850.584 1157.54 849.996 1157.73 849.439C1158.09 848.309 1158.89 847.366 1159.94 846.817C1161 846.286 1162.23 846.197 1163.35 846.569C1164.48 846.941 1165.41 847.743 1165.94 848.8C1166.39 849.665 1166.53 850.648 1166.37 851.604C1166.2 852.56 1165.73 853.436 1165.02 854.101ZM1161.58 850.444L1161.45 850.669C1161.41 850.805 1161.43 850.949 1161.49 851.076C1161.55 851.196 1161.66 851.286 1161.79 851.328C1161.92 851.37 1162.07 851.36 1162.19 851.3C1162.31 851.232 1162.41 851.119 1162.46 850.984C1162.5 850.85 1162.5 850.703 1162.44 850.572C1162.41 850.509 1162.36 850.454 1162.31 850.413C1162.25 850.371 1162.19 850.344 1162.12 850.334C1161.99 850.288 1161.86 850.293 1161.74 850.348L1161.58 850.444Z" fill="#CE9C5C"/>
<path d="M1189.96 922.462C1189.64 922.75 1189.29 922.995 1188.92 923.192C1188.13 923.606 1187.24 923.775 1186.35 923.676C1185.47 923.577 1184.63 923.216 1183.96 922.638C1183.28 922.06 1182.79 921.292 1182.56 920.434C1182.32 919.576 1182.35 918.667 1182.63 917.825C1183 916.701 1183.8 915.769 1184.85 915.231C1185.91 914.692 1187.13 914.591 1188.25 914.95C1189.39 915.313 1190.33 916.108 1190.88 917.161C1191.41 918.226 1191.51 919.458 1191.15 920.595C1190.91 921.306 1190.5 921.948 1189.96 922.462ZM1186.51 918.805C1186.44 918.889 1186.39 918.994 1186.37 919.106C1186.35 919.219 1186.37 919.334 1186.42 919.436C1186.45 919.499 1186.49 919.555 1186.54 919.601C1186.59 919.647 1186.65 919.682 1186.72 919.703C1186.79 919.724 1186.86 919.731 1186.93 919.724C1187 919.717 1187.06 919.695 1187.12 919.661C1187.18 919.634 1187.24 919.593 1187.29 919.542C1187.33 919.49 1187.37 919.43 1187.38 919.364C1187.41 919.297 1187.42 919.227 1187.41 919.157C1187.4 919.086 1187.38 919.018 1187.35 918.957C1187.28 918.842 1187.17 918.751 1187.05 918.694C1186.98 918.672 1186.91 918.663 1186.84 918.67C1186.77 918.677 1186.7 918.698 1186.64 918.733L1186.51 918.805Z" fill="#CE9C5C"/>
<path d="M1137.33 881.255C1136.85 881.698 1136.3 882.043 1135.69 882.268C1135.08 882.494 1134.43 882.596 1133.79 882.568C1133.03 882.514 1132.29 882.259 1131.67 881.83C1131.04 881.401 1130.53 880.813 1130.21 880.125C1129.84 879.459 1129.66 878.705 1129.69 877.946C1129.73 877.186 1129.97 876.45 1130.39 875.817C1130.84 875.12 1131.47 874.554 1132.21 874.176C1132.95 873.798 1133.78 873.62 1134.61 873.661C1135.38 873.707 1136.11 873.959 1136.74 874.389C1137.37 874.819 1137.87 875.412 1138.19 876.104C1138.56 876.764 1138.74 877.512 1138.72 878.267C1138.69 879.023 1138.45 879.757 1138.04 880.388C1137.84 880.709 1137.6 881.001 1137.33 881.255ZM1133.78 877.848L1133.67 877.946C1133.62 877.995 1133.59 878.071 1133.71 878.303L1133.69 878.327C1133.81 878.559 1133.91 878.562 1133.96 878.564C1134.09 878.563 1134.23 878.53 1134.35 878.468C1134.47 878.405 1134.57 878.315 1134.65 878.204C1134.71 878.155 1134.76 878.055 1134.64 877.823C1134.52 877.591 1134.42 877.588 1134.37 877.587C1134.15 877.6 1133.94 877.693 1133.78 877.848Z" fill="#CE9C5C"/>
<path d="M1195.15 951.372C1182.22 950.93 1177.51 958.121 1176.81 961.983C1176.62 962.998 1176.62 964.036 1176.79 965.053C1169.28 969.216 1167.14 978.82 1165.4 986.66L1164.67 989.911C1163.45 995.001 1163.73 1000.64 1165.5 1005.34C1167.63 1011.06 1171.63 1014.94 1177.06 1016.53L1178.34 1016.9L1178.74 1017.01L1179.58 1017.21C1179.73 1017.25 1179.89 1017.28 1180.06 1017.3C1180.31 1017.36 1180.53 1017.44 1180.76 1017.48L1181.29 1017.57L1181.97 1017.72C1182.13 1017.76 1182.29 1017.79 1182.45 1017.81C1182.66 1017.85 1182.87 1017.88 1183.08 1017.9L1183.61 1017.99L1184.22 1018.06L1184.73 1018.13L1185.28 1018.2L1185.79 1018.21L1186.34 1018.28L1186.85 1018.3L1187.36 1018.31L1187.84 1018.35L1188.35 1018.32L1188.81 1018.33L1189.34 1018.32L1189.77 1018.31L1190.23 1018.27L1190.69 1018.23L1191.14 1018.2L1191.6 1018.16L1192.04 1018.1L1192.47 1018.03L1192.9 1017.97L1193.31 1017.88L1193.57 1017.84C1200.25 1024.31 1215.6 1024.44 1223.82 1023.45C1225.4 1023.26 1226.86 1022.56 1228 1021.44C1229.33 1020.19 1230.26 1018.57 1231.09 1017.15C1238.88 1003.91 1241.51 991.679 1239.36 978.773C1239.27 978.269 1239.22 977.758 1239.21 977.246C1239.03 975.54 1238.83 973.606 1237.44 971.914C1222.03 953.708 1201.18 951.605 1195.15 951.372ZM1234.42 974.462C1235 975.19 1235.13 976.107 1235.26 977.609L1235.46 979.391C1237.43 991.378 1234.98 1002.75 1227.7 1015.17C1226.18 1017.73 1225.14 1019.3 1223.33 1019.53C1214.42 1020.58 1203.68 1019.79 1198.13 1016.4L1198.2 1016.33L1198.41 1016.23L1198.77 1016.04L1199 1015.92L1199.39 1015.76L1199.57 1015.58L1199.96 1015.37L1200.09 1015.24L1200.63 1014.93L1200.66 1014.91L1201.15 1014.59L1204.76 1011.2C1208.99 1006.43 1210.46 1000.56 1210.94 996.464C1211.54 991.508 1210.99 986.365 1209.45 982.74C1207.91 979.115 1205.95 977.66 1203.54 977.562C1203.02 977.539 1202.5 977.726 1202.12 978.081C1201.73 978.435 1201.5 978.929 1201.48 979.454C1201.46 979.978 1201.64 980.49 1202 980.876C1202.35 981.263 1202.85 981.493 1203.37 981.516C1204.16 981.514 1205.09 982.608 1205.82 984.28C1208.12 989.755 1208.04 1001.55 1201.79 1008.57L1198.81 1011.37L1198.45 1011.57L1198.27 1011.74L1197.88 1011.95L1197.7 1012.13L1197.34 1012.32L1197.1 1012.44L1196.72 1012.6L1196.49 1012.72L1196.1 1012.89L1195.87 1012.96L1195.43 1013.12L1195.23 1013.22L1194.77 1013.36L1194.59 1013.43L1194.13 1013.57L1193.92 1013.61L1193.41 1013.75L1193.28 1013.77L1192.72 1013.9C1192.7 1013.88 1192.67 1013.9 1192.64 1013.93C1191.75 1014.08 1190.83 1014.2 1189.92 1014.28L1189.82 1014.27L1189.26 1014.31L1189.05 1014.3L1188.52 1014.31L1188.24 1014.33L1187.78 1014.31L1187.43 1014.3L1186.97 1014.29C1186.86 1014.27 1186.74 1014.27 1186.62 1014.28L1186.14 1014.24C1186.02 1014.22 1185.9 1014.22 1185.78 1014.23L1185.33 1014.16L1184.95 1014.13L1184.47 1014.09L1184.06 1014.02L1183.61 1013.96C1183.47 1013.92 1183.32 1013.89 1183.18 1013.87L1182.72 1013.81L1182.27 1013.69L1181.82 1013.63L1181.34 1013.54L1180.93 1013.42L1180.38 1013.3L1180 1013.22L1179.4 1013.04C1179.29 1013.03 1179.18 1013 1179.07 1012.96C1178.77 1012.9 1178.47 1012.79 1178.14 1012.7C1167.98 1009.7 1166.79 997.665 1168.45 990.787L1169.18 987.485C1170.77 980.326 1172.56 972.335 1178.02 968.821C1178.85 970.295 1179.87 971.656 1181.05 972.871C1185.92 977.942 1194.22 982.051 1198.52 981.496C1199.04 981.417 1199.51 981.14 1199.82 980.723C1200.14 980.306 1200.28 979.782 1200.21 979.263C1200.14 978.746 1199.87 978.279 1199.46 977.958C1199.05 977.638 1198.53 977.49 1198.01 977.547C1195.56 977.879 1188.42 974.846 1183.89 970.141C1182.79 968.965 1181.57 967.405 1180.93 965.686L1180.68 962.379C1181.32 959.658 1185.01 954.948 1194.95 955.3C1200.63 955.522 1220.08 957.507 1234.42 974.462Z" fill="#452D34"/>
<path d="M1675.54 1055.38C1675.71 1054.39 1675.36 1053.1 1674.46 1052.59C1671.55 1050.94 1668.14 1050.44 1664.89 1051.18C1664.87 1051.18 1664.86 1051.18 1664.85 1051.19C1664.83 1051.19 1664.83 1051.2 1664.82 1051.22C1664.57 1051.13 1664.18 1050.75 1664.03 1050.7L1663.18 1050.04L1662.45 1049.49L1662.29 1049.31L1661.81 1048.73C1661.34 1048.2 1660.91 1047.65 1660.5 1047.08C1660.48 1046.96 1660.32 1046.78 1660.28 1046.71L1660.07 1046.34L1659.42 1045.11C1656.56 1039.4 1654.14 1031.8 1647.22 1030.18C1644 1029.42 1640.61 1029.95 1638.21 1032.24C1637.76 1032.32 1637.34 1032.54 1637.02 1032.87C1631.49 1038.36 1626.36 1046.16 1627.89 1054.19L1627.85 1054.3C1627.68 1054.89 1627.7 1055.52 1627.89 1056.1C1628.09 1056.69 1628.45 1057.19 1628.94 1057.56C1629.87 1059.54 1631.46 1061.13 1633.42 1062.04C1635.53 1063.04 1638.04 1062.72 1640.13 1061.66C1641.16 1061.16 1642.11 1060.52 1642.97 1059.76C1643.96 1058.89 1644.99 1057.92 1645.39 1056.6C1646.1 1053.93 1644.43 1051.51 1642.17 1050.29C1639.91 1049.06 1636.7 1047.96 1633.8 1048.73L1633.22 1048.93C1633.26 1048.61 1633.33 1048.31 1633.43 1048.01C1633.67 1047.2 1633.97 1046.41 1634.31 1045.64C1634.38 1045.42 1634.47 1045.22 1634.58 1045.03L1634.69 1044.72C1634.94 1044.34 1635.14 1043.94 1635.38 1043.57C1635.84 1042.74 1636.36 1041.95 1636.95 1041.21C1637.53 1040.4 1638.14 1039.63 1638.79 1038.89C1638.89 1038.8 1638.97 1038.69 1639.02 1038.56C1639.15 1038.47 1639.27 1038.35 1639.37 1038.22L1640 1037.57C1640.67 1037.43 1641.28 1037.05 1641.69 1036.49C1641.71 1036.45 1641.74 1036.42 1641.78 1036.4C1641.88 1036.26 1641.88 1036.26 1641.82 1036.3C1641.75 1036.33 1641.88 1036.26 1641.9 1036.21L1642.2 1036.02C1642.27 1035.99 1642.27 1035.99 1642.28 1035.94C1642.3 1035.89 1642.42 1035.87 1642.33 1035.96C1642.25 1036.04 1642.84 1035.67 1642.89 1035.69L1643.02 1035.62L1643.4 1035.52L1644.02 1035.4C1643.95 1035.43 1643.9 1035.41 1644.07 1035.41L1644.26 1035.36C1644.24 1035.42 1644.24 1035.42 1644.19 1035.4L1644.63 1035.44L1645.51 1035.53L1647.19 1036.13L1648.03 1036.67L1648.41 1037.04L1648.76 1037.34C1649.21 1037.81 1649.63 1038.32 1650.01 1038.85L1650.67 1039.73C1650.67 1039.74 1650.67 1039.76 1650.67 1039.77C1650.68 1039.79 1650.69 1039.8 1650.7 1039.8L1650.75 1039.82C1650.85 1040.08 1650.97 1040.32 1651.13 1040.54C1652.69 1043.27 1653.7 1046.26 1655.31 1049.01C1656.35 1050.86 1657.68 1052.52 1659.24 1053.94C1656.24 1056.39 1654.13 1059.78 1653.23 1063.59C1652.59 1065.95 1652.38 1068.42 1652.62 1070.85C1652.94 1073.07 1654.04 1075.46 1656.02 1076.64C1660.43 1079.23 1666.67 1075.29 1665.9 1069.98C1665.44 1066.42 1661.82 1064.17 1658.56 1064.52C1658.75 1063.82 1658.98 1063.15 1659.27 1062.49C1659.32 1062.34 1659.43 1062.2 1659.48 1062.04C1659.54 1061.89 1659.63 1061.8 1659.65 1061.75L1660.42 1060.51C1660.65 1060.18 1660.93 1059.87 1661.16 1059.55C1661.39 1059.22 1661.23 1059.51 1661.25 1059.46L1661.3 1059.48C1661.44 1059.31 1661.59 1059.15 1661.75 1059L1662.57 1058.3L1663.04 1057.94L1663.38 1057.78C1663.71 1057.56 1664.07 1057.37 1664.43 1057.22L1664.57 1057.15C1667.39 1058.16 1670.43 1058.34 1673.35 1057.69C1673.9 1057.57 1674.4 1057.28 1674.78 1056.87C1675.17 1056.46 1675.43 1055.94 1675.54 1055.38ZM1636.27 1057.17L1636.57 1057.15L1636.27 1057.17ZM1634.15 1054.41C1634.14 1054.46 1634.07 1054.5 1633.98 1054.58C1633.89 1054.67 1634.07 1054.5 1634.15 1054.41ZM1634.05 1054.55C1634.07 1054.53 1634.1 1054.52 1634.12 1054.49C1634.13 1054.47 1634.15 1054.44 1634.15 1054.41L1634.48 1054.3L1634.81 1054.18L1635.61 1054L1636.07 1053.99L1636.74 1054.06L1639.53 1055.07L1639.84 1055.3L1639.12 1055.91L1638.65 1056.27L1638.55 1056.23C1638.21 1056.45 1637.86 1056.64 1637.49 1056.79L1637.36 1056.86L1636.86 1056.97L1636.6 1057.05L1636.26 1057.04L1635.87 1057.02L1635.36 1056.84L1635.04 1056.6L1634.88 1056.43L1634.66 1056.23L1634.26 1055.74L1634.04 1055.54L1634.2 1055.6C1634 1055.31 1633.85 1054.99 1633.72 1054.67L1633.95 1054.51C1633.91 1054.62 1633.98 1054.58 1634.05 1054.55ZM1658.38 1071.24L1658.51 1071.52L1658.38 1071.24ZM1660.07 1071.61L1660.11 1071.51C1660.11 1071.55 1660.1 1071.59 1660.07 1071.61ZM1658.59 1070.14L1658.64 1070.16C1658.59 1070.14 1658.66 1070.11 1658.82 1069.99C1658.88 1069.96 1658.88 1069.96 1658.9 1069.9L1659.87 1070.25C1659.87 1070.24 1659.87 1070.22 1659.86 1070.21C1659.86 1070.2 1659.85 1070.19 1659.83 1070.18C1659.85 1070.19 1659.86 1070.2 1659.86 1070.21C1659.87 1070.22 1659.87 1070.24 1659.87 1070.25L1659.97 1070.29C1660.22 1070.38 1660.23 1070.5 1660.1 1070.4L1660.37 1070.61C1660.05 1070.38 1660.27 1070.4 1660.37 1070.61C1660.47 1070.82 1660.42 1070.63 1660.42 1070.63L1660.47 1070.65C1660.45 1070.7 1660.5 1070.72 1660.54 1070.79C1660.53 1070.8 1660.53 1070.82 1660.54 1070.83C1660.54 1070.84 1660.56 1070.85 1660.57 1070.86C1660.55 1070.91 1660.57 1071.03 1660.55 1071.08L1660.46 1071.34C1660.41 1071.38 1660.38 1071.43 1660.35 1071.48L1660.19 1071.6L1659.95 1071.8L1659.49 1071.99L1659.3 1072.04L1659.25 1072.02L1658.91 1072.01L1658.65 1071.92L1658.48 1071.74L1658.37 1071.58L1658.25 1071.42L1658.06 1070.83L1658.18 1071.16L1658.08 1070.78C1658.07 1070.77 1658.06 1070.76 1658.05 1070.75C1658.05 1070.74 1658.04 1070.72 1658.05 1070.71L1658.59 1070.14Z" fill="#2A9F75"/>
<path d="M1395.28 595.994C1392.16 592.186 1395.8 588.417 1398.37 585.629L1393.85 585.623C1387.19 585.595 1386.57 575.636 1393.15 574.798C1387.4 569.487 1395.06 559.891 1403.02 568.98C1402.13 564.814 1401.58 559.758 1406.99 558.713C1412.71 558.169 1413.38 563.387 1413.81 567.743C1416.45 564.326 1419.96 560.224 1424.4 563.769C1428.84 567.312 1424.95 571.761 1421.98 574.872L1426.55 574.883C1433.64 574.961 1433.58 585.723 1426.48 585.742L1422.47 585.724C1431.24 591.231 1424.7 600.467 1418.01 596.202C1418.25 602.91 1408.18 603.837 1407.23 597.217L1406.56 592.783C1403.59 596.677 1399.8 600.698 1395.28 595.994ZM1402.42 583.423C1402.61 583.672 1402.72 583.98 1402.71 584.295C1402.71 584.612 1402.6 584.917 1402.39 585.159L1397.48 590.861C1395.2 593.464 1399.34 597.071 1401.55 594.387L1406.44 588.707C1410.54 585.799 1408.52 597.634 1410.99 598.577C1412.8 600.035 1415.67 598.282 1415.27 596.009L1414.8 593.042C1414.58 591.817 1416.14 590.97 1417.05 591.784L1419.55 593.93C1419.81 594.164 1420.12 594.342 1420.46 594.456C1420.79 594.572 1421.15 594.619 1421.5 594.595C1421.85 594.573 1422.2 594.479 1422.51 594.322C1422.83 594.165 1423.11 593.947 1423.34 593.679C1426.68 589.583 1416.8 586.933 1417.47 583.852C1417.57 583.596 1417.75 583.376 1417.98 583.22C1418.2 583.063 1418.47 582.977 1418.75 582.97L1426.5 583.003C1429.97 583.058 1430.03 577.607 1426.53 577.622L1419 577.59C1417.89 577.633 1417.2 576.161 1417.99 575.321C1419.23 573.235 1425.91 568.542 1422.62 565.84C1419.33 563.138 1415.8 570.247 1413.94 571.771C1413.76 571.969 1413.54 572.111 1413.29 572.186C1413.04 572.258 1412.77 572.26 1412.52 572.187C1412.27 572.115 1412.04 571.971 1411.87 571.776C1411.7 571.581 1411.58 571.339 1411.54 571.08L1410.43 563.709C1409.97 560.254 1404.54 561.051 1405.13 564.495L1406.27 572.239C1406.31 572.515 1406.27 572.796 1406.14 573.044C1406.02 573.293 1405.82 573.498 1405.57 573.628C1405.33 573.752 1405.05 573.804 1404.77 573.772C1404.5 573.741 1404.24 573.63 1404.03 573.451L1398.32 568.537C1396.62 566.996 1393.61 568.462 1393.88 570.794C1393.8 572.401 1396.73 574.108 1397.69 575.099C1398.66 576.09 1398.02 577.559 1396.78 577.49L1393.85 577.498C1390.38 577.441 1390.34 582.921 1393.87 582.884C1394.7 583.101 1402.05 582.401 1402.42 583.423Z" fill="#D13535"/>
</g>
<path d="M1743.66 704.175C1868.65 719.962 1953.68 861.744 1933.59 1020.85C1913.49 1179.96 1804.15 1341.95 1679.16 1326.16C1554.17 1310.38 1496.09 1061.01 1516.19 901.899C1536.28 742.789 1618.67 688.388 1743.66 704.175Z" fill="#33A81F" fill-opacity="0.16"/>
<defs>
<clipPath id="clip0_410_11581">
<rect width="575.327" height="575.327" fill="white" transform="translate(1016 867.321) rotate(-43.2659)"/>
</clipPath>
</defs>
</svg>
