<svg width="1226" height="730" viewBox="0 0 1226 730" fill="none" xmlns="http://www.w3.org/2000/svg">
<path d="M43.1861 455.322C19.6151 277.775 241.139 105.909 537.974 71.4478C834.809 36.9865 1173.77 202.96 1197.34 380.506C1220.91 558.052 1006.05 621.791 709.219 656.253C412.385 690.714 66.7571 632.868 43.1861 455.322Z" fill="white"/>
<path d="M586.954 416.581C586.954 416.581 586.14 420.199 581.319 422.857C585.967 424.492 586.954 430.002 586.954 430.002C586.954 430.002 588.624 423.896 592.81 422.995C588.718 421.472 587.558 418.118 586.954 416.581Z" fill="#FFC552"/>
<path d="M1092.92 456.224C1092.92 456.224 1092.11 459.842 1087.28 462.499C1091.93 464.134 1092.92 469.644 1092.92 469.644C1092.92 469.644 1094.59 463.539 1098.78 462.638C1094.68 461.115 1093.52 457.762 1092.92 456.224Z" fill="#FFC552"/>
<path d="M834.185 308.785C834.185 308.785 833.371 312.403 828.55 315.06C833.198 316.695 834.185 322.205 834.185 322.205C834.185 322.205 835.856 316.1 840.04 315.199C835.948 313.676 834.79 310.321 834.185 308.785Z" fill="#FFC552"/>
<path d="M867.562 277.98C867.562 277.98 866.748 281.598 861.927 284.255C866.575 285.89 867.562 291.4 867.562 291.4C867.562 291.4 869.233 285.295 873.418 284.394C869.326 282.871 868.166 279.518 867.562 277.98Z" fill="#FFC552"/>
<path d="M97.6347 370.748C97.6347 370.748 96.8211 374.366 92 377.024C96.648 378.659 97.6347 384.169 97.6347 384.169C97.6347 384.169 99.3061 378.063 103.49 377.162C99.3983 375.639 98.2398 372.286 97.6347 370.748Z" fill="#FFC552"/>
<path d="M860.011 260.423C860.011 260.423 858.945 265.156 852.639 268.633C858.721 270.773 860.011 277.98 860.011 277.98C860.011 277.98 862.196 269.992 867.672 268.814C862.319 266.822 860.801 262.434 860.011 260.423Z" fill="#FFB624"/>
<path d="M330.655 282.622C330.655 282.622 329.59 287.355 323.283 290.832C329.365 292.972 330.655 300.179 330.655 300.179C330.655 300.179 332.84 292.191 338.316 291.013C332.963 289.021 331.445 284.633 330.655 282.622Z" fill="#FFB624"/>
<path d="M615.494 452.087C615.494 452.087 614.43 456.821 608.122 460.298C614.204 462.437 615.494 469.644 615.494 469.644C615.494 469.644 617.68 461.656 623.155 460.478C617.802 458.486 616.285 454.098 615.494 452.087Z" fill="#FFB624"/>
<path d="M1121.47 430C1121.47 430 1120.41 434.733 1114.1 438.21C1120.18 440.35 1121.47 447.557 1121.47 447.557C1121.47 447.557 1123.66 439.569 1129.13 438.39C1123.78 436.399 1122.26 432.012 1121.47 430Z" fill="#FFB624"/>
<path d="M116.395 399.024C116.395 399.024 115.331 403.757 109.023 407.235C115.105 409.374 116.395 416.581 116.395 416.581C116.395 416.581 118.581 408.593 124.056 407.414C118.703 405.423 117.187 401.035 116.395 399.024Z" fill="#FFB624"/>
<g opacity="0.3294">
<path d="M108.992 491.556C119.435 516.337 140.239 535.614 164.303 542.808C175.6 546.185 188.464 546.745 198.266 539.734C208.766 532.223 213.4 517.042 211.196 503.531C208.991 490.021 200.847 478.292 190.763 470.125C180.679 461.959 168.741 456.992 156.724 453.048C148.536 450.36 140.075 448.083 131.538 448.572C123.002 449.061 114.279 452.656 108.916 459.937C103.553 467.219 103.297 478.04 108.992 491.556Z" fill="#E4E6F2"/>
</g>
<path d="M240.173 471.401L227.252 462.11L213.052 485.74L225.973 495.031L240.173 471.401Z" fill="#F6915C"/>
<path d="M205.568 493.626L203.941 496.361L252.518 533.973L254.188 531.727L205.568 493.626Z" fill="#E6E6E6"/>
<path d="M254.05 532.007C249.859 528.926 245.489 525.596 241.042 522.161C229.075 512.94 216.519 502.904 205.028 494.458C205.272 486.62 209.604 479.348 215.842 476.08C217.772 476.275 218.751 478.463 218.889 480.369C219.03 482.287 218.698 484.301 219.355 486.083C220.315 488.679 223.183 489.93 225.712 489.576C228.242 489.223 230.477 487.612 232.452 485.848C237.328 492.593 242.02 501.207 250.816 507.992C252.377 509.196 253.69 510.501 254.776 511.843C261.203 519.905 259.496 529.788 254.05 532.007Z" fill="#383838"/>
<path d="M235.24 494.37C233.994 490.557 234.565 486.093 236.719 482.801C237.219 482.036 237.802 481.327 238.198 480.49C238.594 479.654 238.785 478.637 238.45 477.771C237.953 476.49 236.418 475.981 235.203 476.396C233.988 476.81 233.074 477.923 232.421 479.117C231.097 481.539 230.617 484.5 231.097 487.272C231.58 490.048 233.016 492.609 235.24 494.37Z" fill="#383838"/>
<path d="M211.527 494.532C210.93 492.09 212.257 489.58 214.49 488.928C216.724 488.275 219.017 489.727 219.613 492.17C220.21 494.613 218.883 497.122 216.65 497.774C214.417 498.426 212.123 496.975 211.527 494.532Z" fill="#E6E6E6"/>
<path d="M254.05 532.008C249.86 528.926 245.49 525.596 241.042 522.161C243.564 518.563 246.375 515.24 250.029 513.227C251.503 512.411 253.143 511.845 254.777 511.841C261.203 519.905 259.497 529.788 254.05 532.008Z" fill="#E6E6E6"/>
<path d="M234.352 490.563C233.579 490.087 232.506 490.774 232.333 491.725C232.16 492.676 232.731 493.658 233.517 494.109C234.301 494.559 235.244 494.561 236.113 494.37C237.419 494.083 238.847 492.972 238.617 491.536C236.482 491.916 234.932 494.546 235.496 496.83C236.061 499.115 238.611 500.532 240.629 499.684C241.649 499.257 242.525 497.835 241.823 496.92C241.399 496.364 240.565 496.351 240.019 496.76C239.473 497.169 239.188 497.896 239.1 498.613C238.782 501.207 241.18 503.741 243.539 503.306C244.514 503.127 245.549 502.022 245.03 501.102C244.709 500.534 243.928 500.448 243.404 500.788C242.88 501.13 242.581 501.776 242.434 502.423C242.031 504.18 242.598 506.16 243.847 507.35C245.095 508.54 246.968 508.883 248.503 508.203C249.231 507.881 249.954 507.152 249.809 506.309C249.655 505.416 248.51 505.057 247.814 505.555C247.118 506.052 246.886 507.089 247.04 507.981C247.194 508.874 247.658 509.662 248.112 510.422" stroke="#E6E6E6" stroke-miterlimit="10" stroke-linejoin="round"/>
<path d="M233.807 490.476C235.224 491.252 236.906 491.428 238.433 490.959C239.958 490.491 241.312 489.384 242.153 487.915C242.499 487.31 242.762 486.534 242.468 485.896C242.076 485.049 240.987 484.986 240.145 485.216C237.62 485.904 235.649 488.053 234.083 490.325C234.709 488.075 235.088 485.744 235.21 483.396C235.267 482.298 235.133 480.952 234.215 480.503C233.556 480.18 232.742 480.524 232.282 481.132C231.821 481.74 231.651 482.551 231.581 483.338C231.35 485.979 231.742 489.344 233.807 490.476Z" stroke="#E6E6E6" stroke-miterlimit="10" stroke-linejoin="round"/>
<path d="M166.48 551.165L151.794 545.874L143.708 572.733L158.394 578.024L166.48 551.165Z" fill="#F6915C"/>
<path d="M138.349 582.484L137.428 585.588L193.282 608.067L194.359 605.424L138.349 582.484Z" fill="#E6E6E6"/>
<path d="M194.292 605.734C189.512 603.953 184.501 601.982 179.39 599.931C165.641 594.436 151.128 588.322 138.025 583.44C136.396 575.801 138.846 567.547 144.092 562.616C146.002 562.254 147.468 564.088 148.055 565.888C148.648 567.7 148.807 569.739 149.866 571.273C151.411 573.505 154.477 573.896 156.836 572.834C159.194 571.774 160.968 569.581 162.457 567.316C168.77 572.439 175.349 579.419 185.456 583.466C187.25 584.183 188.828 585.069 190.197 586.054C198.32 592.011 199.024 602.039 194.292 605.734Z" fill="#383838"/>
<path d="M167.175 574.751C165.065 571.425 164.553 566.952 165.851 563.16C166.153 562.279 166.546 561.429 166.729 560.508C166.912 559.588 166.854 558.553 166.323 557.811C165.539 556.715 163.936 556.661 162.862 557.408C161.788 558.155 161.17 559.49 160.824 560.829C160.123 563.544 160.363 566.539 161.487 569.079C162.612 571.621 164.609 573.684 167.175 574.751Z" fill="#383838"/>
<path d="M144.317 581.661C143.159 579.472 143.844 576.672 145.844 575.406C147.845 574.14 150.405 574.889 151.562 577.077C152.719 579.266 152.035 582.066 150.035 583.332C148.034 584.598 145.474 583.85 144.317 581.661Z" fill="#E6E6E6"/>
<path d="M194.292 605.734C189.511 603.953 184.501 601.982 179.389 599.931C180.968 595.739 182.89 591.73 185.94 588.747C187.169 587.537 188.618 586.526 190.195 586.056C198.32 592.011 199.023 602.039 194.292 605.734Z" fill="#E6E6E6"/>
<path d="M165.41 571.328C164.551 571.089 163.678 572.058 163.737 573.025C163.797 573.993 164.581 574.779 165.447 574.99C166.312 575.202 167.222 574.935 168.015 574.502C169.208 573.853 170.322 572.374 169.759 571.053C167.788 572.029 166.917 575.008 168.006 577.054C169.095 579.099 171.894 579.742 173.642 578.349C174.524 577.645 175.032 576.024 174.137 575.34C173.595 574.925 172.787 575.148 172.357 575.699C171.928 576.249 171.824 577.033 171.91 577.75C172.222 580.344 175.139 582.109 177.314 581.017C178.212 580.565 178.948 579.205 178.228 578.463C177.783 578.006 177.009 578.145 176.585 578.624C176.159 579.102 176.026 579.812 176.036 580.478C176.064 582.289 177.085 584.04 178.573 584.832C180.061 585.625 181.95 585.423 183.27 584.33C183.896 583.813 184.423 582.902 184.081 582.13C183.72 581.312 182.529 581.291 181.977 581.969C181.423 582.648 181.445 583.715 181.806 584.533C182.167 585.351 182.803 585.98 183.422 586.584" stroke="#E6E6E6" stroke-miterlimit="10" stroke-linejoin="round"/>
<path d="M164.864 571.399C166.417 571.744 168.084 571.435 169.445 570.549C170.807 569.663 171.85 568.208 172.312 566.549C172.503 565.865 172.571 565.043 172.135 564.511C171.555 563.804 170.489 564.055 169.731 564.516C167.457 565.901 166.066 568.536 165.093 571.176C165.163 568.825 164.974 566.466 164.532 564.165C164.326 563.09 163.876 561.828 162.885 561.655C162.171 561.531 161.467 562.095 161.168 562.814C160.868 563.532 160.896 564.364 161.016 565.144C161.42 567.757 162.6 570.894 164.864 571.399Z" stroke="#E6E6E6" stroke-miterlimit="10" stroke-linejoin="round"/>
<path d="M158.564 327.467C160.753 370.982 167.872 403.01 180.616 444.633C170.337 474.871 160.096 517.874 148.875 543.267C151.785 550.913 161.206 554.806 169.05 554.863C179.997 535.04 189.793 513.266 201.856 489.304C212.658 467.847 215.65 460.06 214.607 443.974C213.938 433.653 212.855 427.804 211.751 418.995C207.141 382.211 202.93 357.18 197.633 320.665C185.116 322.498 157.85 327.935 158.564 327.467Z" fill="#0054D3"/>
<path d="M196.894 378.39C216.506 385.286 236.545 390.624 256.425 394.54C248.743 413.235 232.695 446.287 222.354 463.297C227.254 469.833 233.487 473.194 240.648 475.923C256.304 453.662 278.499 416.449 292.061 392.514C295.302 386.793 298.609 380.076 296.838 373.554C295.154 367.353 289.516 363.757 284.331 360.88C266.117 350.77 247.433 341.739 228.443 333.658C228.488 328.77 227.443 320.515 226.291 315.678C212.359 317.968 198.478 320.604 184.202 323.003C188.674 339.324 191.965 359.193 196.894 378.39Z" fill="#0054D3"/>
<path d="M172.187 325.24C176.945 357.951 180.329 385.1 186.717 414.461C189.007 424.993 191.309 435.613 191.418 446.453C191.6 464.714 185.556 482.641 178.333 499.628C171.11 516.616 163.384 536.774 157.405 550.834" stroke="#003D99" stroke-miterlimit="10"/>
<path d="M210.158 405.93C208.643 395.517 206.605 387.602 206.517 378.25C206.439 370.067 207.729 361.68 211.386 354.577C212.748 351.932 213.851 349.149 214.28 346.227C215.65 336.911 213.86 327.283 212.057 318.022" stroke="#003D99" stroke-miterlimit="10"/>
<path d="M229.896 469.364C242.673 444.798 255.325 420.168 267.85 395.477C269.016 393.177 269.863 389.748 267.596 388.652C265.676 387.724 263.551 389.582 262.139 391.257C263.409 389.885 264.649 387.563 263.199 386.467C262.299 385.786 261.008 386.206 259.879 386.436C256.775 387.064 253.657 385.985 250.724 384.921C236.188 379.647 221.655 374.372 207.121 369.098" stroke="#003D99" stroke-miterlimit="10"/>
<path d="M205.27 319.481C208.12 331.365 209.995 343.509 210.871 355.755" stroke="#003D99" stroke-miterlimit="10"/>
<path d="M176.148 351.436C179.042 350.606 181.666 348.78 183.47 346.346C185.894 343.074 186.762 338.882 186.653 334.87C186.545 330.858 185.537 326.958 184.919 322.895" stroke="#003D99" stroke-miterlimit="10"/>
<path d="M160.023 333.704C182.814 329.992 203.473 326.02 227.012 321.924" stroke="#003D99" stroke-miterlimit="10"/>
<path d="M292.799 252.225C277.618 266.226 262.377 280.276 245.593 291.882C242.39 294.096 239.023 296.264 235.275 296.865C231.527 297.466 227.277 296.142 225.246 292.643C223.197 289.113 223.941 284.297 226.074 280.827C228.206 277.357 231.477 274.952 234.704 272.709C251.171 261.266 259.483 264.942 286.389 242.268C288.044 245.969 290.332 249.331 292.799 252.225Z" fill="#F6915C"/>
<path d="M283.197 245.556C284.3 249.668 287.033 252.374 291.207 253.542C293.384 251.815 296.058 249.838 298.442 247.946C300.828 246.054 303.209 243.711 304.018 241.112C304.646 239.092 304.211 237.27 303.773 235.554C303.317 233.77 302.86 231.987 302.404 230.203C301.965 228.485 301.353 226.601 299.53 226.277C297.278 225.876 294.484 228.062 292.488 230.203C288.157 234.849 284.893 240.325 283.197 245.556Z" fill="#F6915C"/>
<path d="M203.21 228.502C211.916 229.748 218.534 237.385 224.319 244.61C230.104 251.835 236.547 259.576 244.771 262.102C243.935 266.45 242.962 270.812 241.156 274.792C239.349 278.771 236.63 282.381 233.013 284.402C229.282 286.488 224.873 286.735 220.743 285.963C216.613 285.191 212.691 283.467 208.102 282.432C207.893 264.504 199.05 246.925 203.21 228.502Z" fill="#6B92FF"/>
<mask id="mask0_503_11991" style="mask-type:luminance" maskUnits="userSpaceOnUse" x="148" y="228" width="86" height="107">
<path d="M234 316.046C231.592 323.459 225.597 329.367 218.877 331.86C212.157 334.34 204.888 333.347 197.838 332.64C186.877 331.525 178.389 337.191 163.47 331.95C159.162 330.43 152.584 326.798 148.675 321.828C148.896 306.564 153.338 291.357 154.437 274.915C154.935 267.4 154.699 259.803 155.905 252.37C157.124 244.952 159.998 237.488 165.459 232.903C168.799 230.088 172.57 228.882 176.619 228.402C181.626 227.794 187.055 228.27 192.65 228.162C194.975 228.116 197.336 228.029 199.637 228.082C204.44 228.21 209.028 229.006 212.631 232.268C217.977 237.072 221.077 244.309 222.675 251.674C224.259 259.039 224.509 266.663 225.123 274.198C226.428 290.069 229.371 300.931 234 316.046Z" fill="white"/>
</mask>
<g mask="url(#mask0_503_11991)">
<path d="M234 316.046C231.592 323.459 225.597 329.367 218.877 331.86C212.157 334.34 204.888 333.347 197.838 332.64C186.877 331.525 178.389 337.191 163.47 331.95C159.162 330.43 152.584 326.798 148.675 321.828C148.896 306.564 153.338 291.357 154.437 274.915C154.935 267.4 154.699 259.803 155.905 252.37C157.124 244.952 159.998 237.488 165.459 232.903C168.799 230.088 172.57 228.882 176.619 228.402C181.626 227.794 187.055 228.27 192.65 228.162C194.975 228.116 197.336 228.029 199.637 228.082C204.44 228.21 209.028 229.006 212.631 232.268C217.977 237.072 221.077 244.309 222.675 251.674C224.259 259.039 224.509 266.663 225.123 274.198C226.428 290.069 229.371 300.931 234 316.046Z" fill="#A7C2FF"/>
</g>
<mask id="mask1_503_11991" style="mask-type:luminance" maskUnits="userSpaceOnUse" x="148" y="228" width="86" height="107">
<path d="M234 316.046C231.592 323.459 225.597 329.367 218.877 331.86C212.157 334.34 204.888 333.347 197.838 332.64C186.877 331.525 178.389 337.191 163.47 331.95C159.162 330.43 152.584 326.798 148.675 321.828C148.896 306.564 153.338 291.357 154.437 274.915C154.935 267.4 154.699 259.803 155.905 252.37C157.124 244.952 159.998 237.488 165.459 232.903C168.799 230.088 172.57 228.882 176.619 228.402C181.626 227.794 187.055 228.27 192.65 228.162C194.975 228.116 197.336 228.029 199.637 228.082C204.44 228.21 209.028 229.006 212.631 232.268C217.977 237.072 221.077 244.309 222.675 251.674C224.259 259.039 224.509 266.663 225.123 274.198C226.428 290.069 229.371 300.931 234 316.046Z" fill="white"/>
</mask>
<g mask="url(#mask1_503_11991)">
<path d="M131.502 290.885C175.152 311.336 207.136 310.685 246.774 290.627" stroke="#95ADE6" stroke-width="4" stroke-miterlimit="10"/>
<path d="M131.859 312.988C175.509 333.439 207.493 332.788 247.131 312.729" stroke="#95ADE6" stroke-width="4" stroke-miterlimit="10"/>
<path d="M131.146 268.782C174.796 289.233 206.779 288.582 246.418 268.523" stroke="#95ADE6" stroke-width="4" stroke-miterlimit="10"/>
<path d="M130.789 246.679C174.438 267.13 206.422 266.479 246.061 246.421" stroke="#95ADE6" stroke-width="4" stroke-miterlimit="10"/>
<path d="M130.431 224.577C174.081 245.028 206.065 244.377 245.703 224.318" stroke="#95ADE6" stroke-width="4" stroke-miterlimit="10"/>
</g>
<path d="M199.637 228.083C199.543 228.457 199.41 228.819 199.251 229.154C198.48 230.731 197.209 231.834 195.871 232.675C191.918 235.13 187.135 235.471 182.972 233.603C180.554 232.53 178.376 230.72 176.621 228.403C181.628 227.795 187.057 228.271 192.652 228.163C194.975 228.117 197.337 228.03 199.637 228.083Z" fill="#F6915C"/>
<path d="M209.427 322.026C189.642 320.184 169.783 318.329 150.412 313.554C146.715 312.644 142.933 311.573 139.894 309.097C136.854 306.622 134.707 302.4 135.532 298.355C136.364 294.274 140.004 291.445 143.755 290.641C147.506 289.836 151.373 290.666 155.104 291.576C174.144 296.221 177.646 305.251 211.329 310.029C210.108 313.925 209.553 318.072 209.427 322.026Z" fill="#F6915C"/>
<path d="M206.948 309.884C205.069 313.646 205.252 317.673 207.448 321.726C210.104 322.188 213.272 322.86 216.182 323.367C219.091 323.874 222.29 324.059 224.541 322.846C226.293 321.903 227.162 320.279 227.96 318.725C228.79 317.11 229.622 315.496 230.452 313.883C231.251 312.329 232.037 310.524 230.957 308.883C229.623 306.857 226.236 306.244 223.44 306.213C217.377 306.15 211.527 307.497 206.948 309.884Z" fill="#F6915C"/>
<path d="M135.866 297.244C139.106 286.916 145.501 274.247 149.237 262.337C156.538 260.204 164.868 263.171 169.595 269.471C167.425 276.792 164.977 284.011 162.256 291.107C161.048 294.257 159.69 297.522 157.21 299.598C154.342 301.998 150.394 302.38 146.869 301.528C143.343 300.68 140.072 299.083 135.866 297.244Z" fill="#F6915C"/>
<path d="M174.954 228.634C164.755 228.612 156.011 234.026 150.257 244.168C145.315 252.88 142.226 263.932 134.858 269.582C136.769 284.216 156.589 294.173 171.419 288.3C174.395 274.245 180.438 239.429 174.954 228.634Z" fill="#6B92FF"/>
<path d="M194.591 204.05L194.637 217.295L194.666 225.921L194.684 229.602L179.011 229.662L178.96 214.705L178.918 204.109L180.433 204.1C180.433 204.1 180.433 204.1 180.446 204.098L194.591 204.05Z" fill="#F6915C"/>
<path opacity="0.5412" d="M194.572 213.963L194.601 222.589C193.413 224.029 191.498 224.578 189.767 224.27C187.857 223.922 186.151 222.683 184.725 221.211C182.091 218.504 180.269 215.084 178.893 211.374L178.852 200.779L180.366 200.769C180.366 200.769 180.366 200.769 180.379 200.767C186.716 202.817 191.507 207.546 194.362 213.508C194.432 213.659 194.501 213.811 194.572 213.963Z" fill="#F6915C"/>
<path d="M206.827 180.431C208.411 188.013 208.635 197.477 205.613 208.094C200.953 224.468 186.916 220.172 182.981 217.751C175.917 213.406 170.049 206.479 167.385 198.109C164.72 189.736 165.507 179.945 170.13 172.665C174.753 165.383 183.32 161.097 191.267 162.832C199.214 164.566 204.938 171.392 206.827 180.431Z" fill="#F6915C"/>
<path d="M178.56 214.751C177.757 209.847 177.894 204.763 178.962 199.92C179.134 199.144 179.35 198.332 179.882 197.784C180.412 197.236 181.357 197.09 181.843 197.687C186.374 189.555 176.426 186.236 174.589 180.213C175.951 180.88 177.341 181.556 178.824 181.743C180.308 181.929 181.926 181.552 182.961 180.375C183.994 179.197 184.206 177.123 183.169 175.949C185.263 179.192 188.832 181.231 192.46 181.256C193.958 181.267 195.567 180.889 196.575 179.677C197.583 178.465 197.635 176.253 196.379 175.361C198.4 177.962 201.47 179.696 204.585 179.482C207.699 179.269 210.712 176.874 211.454 173.559C212.16 170.405 210.763 167.007 208.535 164.86C206.308 162.714 203.381 161.639 200.467 161.018C197.554 160.396 194.575 160.175 191.678 159.462C188.973 158.796 186.362 157.706 183.638 157.14C180.913 156.577 177.964 156.583 175.521 158.017C173.077 159.45 171.336 162.598 172.01 165.54C171.763 164.266 171.484 162.921 170.663 161.976C169.843 161.032 168.288 160.725 167.496 161.698C166.889 162.445 166.973 163.639 167.441 164.494C167.911 165.349 168.682 165.947 169.431 166.516C168.002 166.19 166.494 166.86 165.422 167.945C164.351 169.03 163.656 170.485 163.098 171.961C160.167 179.714 160.603 188.745 163.594 196.471C166.586 204.196 171.989 210.647 178.56 214.751Z" fill="#CD6437"/>
<path d="M200.168 193.119C200.359 192.167 201.219 191.563 202.09 191.772C202.96 191.981 203.512 192.922 203.322 193.874C203.131 194.826 202.27 195.429 201.4 195.221C200.528 195.014 199.977 194.073 200.168 193.119Z" fill="#383838"/>
<path d="M187.939 193.338C188.13 192.386 188.99 191.782 189.861 191.99C190.731 192.199 191.283 193.14 191.093 194.092C190.902 195.045 190.041 195.649 189.171 195.44C188.299 195.231 187.748 194.29 187.939 193.338Z" fill="#383838"/>
<path d="M184.752 190.331C186.278 189.649 187.804 188.968 189.33 188.287C189.725 188.111 190.154 187.9 190.331 187.475C190.515 187.036 190.347 186.49 190.025 186.16C189.703 185.829 189.26 185.677 188.823 185.603C187.001 185.293 185.051 186.263 184.067 187.967C183.832 188.375 183.644 188.845 183.689 189.325C183.735 189.803 184.128 190.608 184.752 190.331Z" fill="#CD6437"/>
<path d="M204.88 189.203C203.398 188.412 201.916 187.622 200.436 186.833C200.053 186.628 199.637 186.386 199.487 185.951C199.33 185.499 199.53 184.967 199.871 184.66C200.212 184.353 200.664 184.235 201.104 184.192C202.94 184.015 204.827 185.123 205.706 186.895C205.916 187.318 206.075 187.801 206.001 188.276C205.926 188.75 205.485 189.525 204.88 189.203Z" fill="#CD6437"/>
<path d="M196.049 189.376C196.159 192.651 196.878 195.901 198.358 199.228C203.305 197.194 202.749 203.971 198.371 203.659" stroke="#CC5E33" stroke-width="0.7" stroke-miterlimit="10"/>
<path d="M191.679 204.053C193.704 207.531 198.34 208.808 201.63 206.794" stroke="#383838" stroke-width="0.7" stroke-miterlimit="10"/>
<path d="M172.653 199.383C172.262 196.167 174.329 193.214 177.268 192.787C180.208 192.359 182.908 194.62 183.298 197.835C183.688 201.051 181.622 204.004 178.683 204.431C175.743 204.858 173.043 202.597 172.653 199.383Z" fill="#F6915C"/>
<path d="M175.272 196.181C177.889 196.539 180.19 198.837 180.753 201.655" stroke="#CC5E33" stroke-width="0.7" stroke-miterlimit="10"/>
<path d="M175.909 199.764C176.948 199.025 178.206 198.663 179.442 198.747" stroke="#CC5E33" stroke-width="0.7" stroke-miterlimit="10"/>
<g opacity="0.3294">
<path d="M438.279 357.673C418.354 373.84 398.907 391.384 384.613 413.564C370.319 435.744 361.53 463.243 365.065 490.104C368.6 516.963 386.236 542.309 410.377 548.554C436.248 555.247 463.222 540.044 489.548 544.083C507.454 546.831 524.731 558.397 542.454 554.483C557.842 551.084 569.223 536.659 576.598 521.499C591.204 491.47 594.629 456.326 593.325 422.343C592.352 396.98 588.135 369.938 572.091 351.598C556.881 334.211 533.406 327.93 511.457 329.537C489.505 331.143 465.946 335.225 438.279 357.673Z" fill="#E4E6F2"/>
<path d="M430.619 276.216C419 273.523 406.425 276.164 396.544 283.375C386.663 290.586 379.605 302.271 377.417 315.042C376.244 321.882 376.569 329.468 380.325 335.083C383.333 339.578 388.121 342.212 392.898 344.147C406.492 349.655 422.033 350.67 435.331 344.359C448.63 338.047 459.051 323.633 459.322 307.777C459.589 291.924 448.113 276.142 430.619 276.216Z" fill="#E4E6F2"/>
</g>
<path d="M448.191 260.191C439.509 257.443 435.456 245.094 438.887 235.946C442.318 226.799 451.331 221.225 460.322 220.215C469.313 219.204 478.297 222.051 486.7 225.696C492.969 228.414 499.663 232.284 501.855 239.26C503.393 244.157 502.267 249.758 499.598 254.034C496.928 258.31 492.874 261.371 488.54 263.456C478.498 268.289 467.126 266.184 448.191 260.191Z" fill="#FDC4BB"/>
<path d="M499.526 445.141C502.067 453.172 504.84 461.587 510.706 467.158C516.572 472.729 526.568 474.06 531.677 467.658C534.34 464.322 535.151 459.592 534.748 455.184C534.345 450.777 532.859 446.587 531.387 442.46C528.105 433.259 524.823 424.057 521.541 414.857C520.156 410.977 518.634 406.892 515.585 404.396C510.859 400.526 503.626 402.015 499.492 406.626C495.358 411.238 493.976 418.152 494.488 424.587C494.998 431.02 497.013 437.196 499.526 445.141Z" fill="#905338"/>
<path d="M514.276 357.474C515.654 387.627 517.033 417.78 518.412 447.933C518.877 458.103 519.254 468.779 515.173 477.931C511.092 487.084 500.947 493.861 492.353 489.949C483.571 485.951 481.005 473.913 479.781 463.595C475.59 428.275 473.378 392.675 473.426 357.082C485.675 356.341 497.927 355.6 514.276 357.474Z" fill="#F6A357"/>
<path d="M454.428 362.122C445.963 396.027 436.086 430.379 429.403 466.083C424.919 490.036 435.321 521.518 445.784 588.96C450.832 588.256 455.881 587.554 460.736 586.855C459.724 553.538 463.489 497.079 456.732 473.042C466.839 446 478.827 420.362 492.031 389.879C495.634 381.56 497.522 371.649 494.675 362.986C491.77 354.139 483.132 348.274 474.54 348.364C465.947 348.454 456.579 353.505 454.428 362.122Z" fill="#F6A357"/>
<path d="M438.918 551.198C438.252 550.253 437.815 549.078 437.872 547.887C437.93 546.695 438.54 545.51 439.527 545C440.512 544.491 441.841 544.802 442.427 545.808C442.928 544.693 444.002 543.913 445.135 543.843C446.268 543.772 447.416 544.412 448.029 545.457C448.54 544.404 449.595 543.692 450.685 543.666C451.775 543.64 452.857 544.299 453.41 545.327C453.829 544.288 454.859 543.582 455.898 543.623C456.936 543.665 457.915 544.452 458.263 545.523C458.856 544.584 459.958 544.063 460.99 544.234C462.022 544.405 462.935 545.261 463.247 546.351C463.965 545.713 465.164 546.115 465.608 547.005C466.051 547.893 465.838 549.049 465.281 549.857C464.724 550.667 463.881 551.183 463.023 551.565C459.791 553.005 456.163 552.82 452.694 552.411C449.224 552.002 445.705 551.393 442.269 552.059C441.644 552.18 441.009 552.343 440.381 552.245C439.752 552.146 439.227 551.639 438.918 551.198Z" fill="#EBEBEB"/>
<path d="M466.324 550.272C464.224 568.272 463.041 586.401 462.634 605.498C443.829 608.175 425.122 607.664 406.163 608.067C404.357 601.941 405.124 596.963 408.544 591.725C411.964 586.487 417.724 583.17 423.607 583.051C426.281 582.998 428.95 583.563 431.619 583.362C434.285 583.162 437.119 581.987 438.414 579.428C439.475 577.327 439.29 574.768 439.074 572.378C438.293 563.742 437.28 557.162 436.759 548.709C445.255 545.87 460.473 545.623 466.324 550.272Z" fill="#905338"/>
<path d="M463.122 585.168C458.321 585.544 453.704 588.189 450.689 592.293C447.674 596.397 446.305 601.898 446.776 607.144" stroke="#AB6243" stroke-miterlimit="10"/>
<path d="M455.176 588.323C454.919 574.566 454.663 560.81 454.406 547.052" stroke="#AB6243" stroke-miterlimit="10"/>
<path d="M527.268 150.766C527.076 144.12 526.017 137.176 521.758 131.926C516.672 133.536 513.942 136.236 510.917 141.338C511.191 146.613 511.262 152.939 514.636 156.72C515.785 158.008 517.18 159.085 518.371 159.716C521.384 161.314 527.46 157.412 527.268 150.766Z" fill="#F6A357"/>
<path d="M525.845 140.045C524.033 134.56 521.365 129.414 517.991 124.898C517.188 123.823 516.301 122.748 515.127 122.218C514.435 121.906 513.511 121.866 513.058 122.52C512.767 122.94 512.767 123.533 512.934 124.027C513.1 124.521 513.408 124.94 513.706 125.354C517.207 130.222 519.965 135.726 521.83 141.575C523.052 141.388 524.236 140.891 525.845 140.045Z" fill="#F6A357"/>
<path d="M521.253 137.185C518.373 132.277 514.728 127.908 510.523 124.323C509.521 123.469 508.438 122.637 507.186 122.405C506.447 122.268 505.539 122.453 505.23 123.201C505.032 123.681 505.153 124.26 505.415 124.7C505.676 125.141 506.062 125.476 506.436 125.806C510.837 129.702 514.643 134.401 517.647 139.65C518.803 139.173 519.857 138.4 521.253 137.185Z" fill="#F6A357"/>
<path d="M519.723 140.805C516.844 135.896 513.199 131.528 508.993 127.943C507.991 127.089 506.908 126.257 505.656 126.024C504.917 125.888 504.009 126.073 503.701 126.82C503.502 127.3 503.624 127.879 503.885 128.32C504.147 128.761 504.532 129.095 504.906 129.426C509.307 133.321 513.113 138.02 516.117 143.269C517.273 142.791 518.327 142.018 519.723 140.805Z" fill="#F6A357"/>
<path d="M518.416 144.246C515.326 140.197 511.604 136.727 507.459 134.03C506.472 133.388 505.414 132.774 504.267 132.722C503.59 132.69 502.794 132.969 502.595 133.677C502.467 134.131 502.635 134.636 502.916 134.999C503.196 135.363 503.576 135.614 503.946 135.866C508.299 138.818 512.199 142.564 515.437 146.902C516.422 146.33 517.288 145.508 518.416 144.246Z" fill="#F6A357"/>
<path d="M527.272 148.971C527.022 145.873 527.248 142.755 527.222 139.646C527.197 136.667 526.924 133.626 526.01 130.908C525.935 130.683 525.756 130.494 525.538 130.475C524.61 130.392 523.683 131.19 523.332 132.172C522.938 133.276 523.094 134.517 523.327 135.674C523.559 136.832 523.865 138.002 523.751 139.181C523.643 140.294 523.168 141.325 522.967 142.422C522.397 145.537 524.468 148.94 527.272 148.971Z" fill="#F6A357"/>
<path d="M480.095 248.886C486.926 244.342 493.826 239.74 499.504 233.583C505.181 227.426 509.606 219.471 510.289 210.758C511.436 196.111 502.118 181.45 503.274 167.132C503.577 163.372 505.146 159.846 507.659 157.259C512.995 151.764 519.547 147.657 527.188 147.904C531.882 148.056 536.431 150.205 539.385 154.198C546.817 164.242 540.095 177.988 541.192 190.283C541.884 198.045 544.894 205.332 545.587 213.093C547.656 236.304 529.864 248.516 511.737 268.343C507.284 273.215 501.439 277.032 495.16 277.557C487.441 278.204 474.676 265.297 480.095 248.886Z" fill="#FDC4BB"/>
<path d="M398.418 202.753C396.378 196.49 395.046 189.601 397.258 183.013C402.53 182.481 405.974 183.904 410.492 187.446C411.998 192.466 414.042 198.383 412.165 203.251C411.525 204.909 410.585 206.468 409.688 207.532C407.417 210.223 400.457 209.016 398.418 202.753Z" fill="#F6A357"/>
<path d="M396.164 192.204C396.02 186.375 396.786 180.52 398.419 174.967C398.808 173.644 399.275 172.29 400.19 171.328C400.731 170.76 401.578 170.354 402.217 170.782C402.628 171.057 402.826 171.61 402.836 172.135C402.846 172.662 402.7 173.174 402.561 173.677C400.926 179.606 400.197 185.833 400.413 192.022C399.21 192.339 397.943 192.348 396.164 192.204Z" fill="#F6A357"/>
<path d="M399.484 187.708C400.527 181.987 402.462 176.465 405.181 171.448C405.829 170.253 406.558 169.045 407.647 168.33C408.29 167.908 409.197 167.717 409.734 168.289C410.079 168.657 410.16 169.244 410.063 169.759C409.965 170.275 409.719 170.739 409.481 171.197C406.684 176.581 404.71 182.475 403.665 188.563C402.428 188.58 401.19 188.281 399.484 187.708Z" fill="#F6A357"/>
<path d="M402.117 190.466C403.159 184.746 405.095 179.224 407.814 174.207C408.462 173.013 409.191 171.805 410.28 171.089C410.923 170.666 411.83 170.475 412.367 171.049C412.712 171.417 412.793 172.004 412.695 172.519C412.598 173.035 412.352 173.499 412.114 173.957C409.317 179.341 407.343 185.235 406.298 191.322C405.061 191.337 403.823 191.038 402.117 190.466Z" fill="#F6A357"/>
<path d="M404.482 193.147C406.009 188.143 408.316 183.426 411.273 179.261C411.978 178.268 412.758 177.275 413.807 176.768C414.428 176.468 415.262 176.41 415.684 176.989C415.955 177.36 415.967 177.898 415.826 178.349C415.686 178.799 415.417 179.186 415.155 179.566C412.089 184.052 409.709 189.098 408.142 194.431C407.033 194.293 405.953 193.871 404.482 193.147Z" fill="#F6A357"/>
<path d="M397.814 201.084C397.013 198.1 395.762 195.288 394.748 192.381C393.778 189.599 393.017 186.657 392.96 183.763C392.955 183.524 393.059 183.275 393.256 183.17C394.092 182.722 395.222 183.096 395.875 183.868C396.61 184.739 396.879 185.956 397.048 187.127C397.218 188.297 397.324 189.511 397.824 190.563C398.297 191.555 399.084 192.325 399.636 193.266C401.206 195.94 400.414 199.934 397.814 201.084Z" fill="#F6A357"/>
<path d="M451.933 251.398C443.248 252.212 434.564 253.025 425.879 253.839C422.604 254.146 419.093 254.399 416.25 252.595C412.561 250.255 411.137 245.029 411.588 240.391C412.039 235.753 413.981 231.475 415.604 227.161C417.228 222.848 418.573 218.151 417.757 213.573C416.941 208.994 413.281 204.724 409.136 205.065C404.408 204.244 399.572 203.423 394.861 204.352C390.149 205.282 385.503 208.307 383.706 213.161C382.509 216.395 382.691 220.016 382.891 223.498C383.676 237.102 384.461 250.705 385.245 264.306C385.574 270.011 386.023 276.086 389.192 280.633C392.028 284.703 396.679 286.88 401.319 287.539C405.959 288.2 410.66 287.514 415.297 286.83C424.189 285.519 433.08 284.206 441.972 282.894C445.175 282.422 448.59 281.845 450.985 279.471C453.581 276.898 454.357 272.829 454.819 269.03C455.505 263.404 455.811 257.721 451.933 251.398Z" fill="#FDC4BB"/>
<path d="M535.336 426.009C537.722 430.045 539.007 435.075 539.659 440.665C528.32 452.817 513.812 458.222 498.463 459.77C483.114 461.318 467.684 458.64 452.579 455.106C445.382 453.423 438.147 451.514 431.527 447.817C424.908 444.119 418.878 438.451 415.216 430.96C415.618 427.191 416.021 423.421 416.132 420.361C452.019 444.01 497.549 446.62 535.336 426.009Z" fill="#E69C91"/>
<path d="M404.475 400.756C404.854 410.333 408.593 420.104 415.504 425.176C417.753 433.247 424.651 439.673 432.13 442.672C439.609 445.685 447.682 445.768 455.591 445.519C463.487 445.284 471.484 444.759 479.216 446.624C488.047 448.753 496.385 453.963 505.381 454.101C518.027 454.295 529.372 444.303 536.851 432.293C541.261 430.635 544.95 426.461 547.236 421.583C549.523 416.69 550.534 411.121 551.09 405.579C553.162 384.959 549.068 363.552 539.681 345.987C533.63 334.655 525.456 324.828 520.895 312.556C517.117 302.385 516.069 291.149 514.111 280.273C512.165 269.41 509.019 258.257 502.146 250.656C496.272 244.161 488.325 241.065 480.201 240.582C477.106 240.374 473.998 240.568 470.966 241.079C465.546 242.005 461.276 243.221 457.145 244.962C452.887 246.745 448.794 249.067 443.791 252.149C434.48 257.87 431.827 265.223 430.942 271.856C430.045 278.504 430.74 285.276 430.955 291.992C431.549 311.036 428.226 330.232 421.353 347.48C417.904 356.172 413.571 364.34 410.122 373.033C406.673 381.726 404.095 391.165 404.475 400.756Z" fill="#FDC4BB"/>
<path d="M457.145 244.962C457.322 245.405 457.537 245.833 457.789 246.22C461.731 252.232 476.033 251.693 480.202 240.582C477.106 240.374 473.998 240.568 470.966 241.079C465.546 242.005 461.276 243.221 457.145 244.962Z" fill="#F6A357"/>
<path d="M481.111 233.428C481.232 237.527 479.912 241.658 477.482 244.78C475.051 247.903 471.536 249.987 467.817 250.51" stroke="#C98C83" stroke-miterlimit="10"/>
<path d="M503.518 228.316C499.428 235.17 492.554 239.951 485.146 241.096" stroke="#C98C83" stroke-miterlimit="10"/>
<path d="M491.164 233.485C488.242 235.798 486.386 239.338 484.39 242.623C482.392 245.908 479.978 249.195 476.571 250.489" stroke="#C98C83" stroke-miterlimit="10"/>
<path d="M472.078 251.851C471.392 253.302 470.832 254.899 470.95 256.529C471.069 258.158 472.026 259.805 473.48 260.184C473.936 260.303 474.453 260.279 474.825 259.967C475.492 259.403 475.286 258.107 474.561 257.637C473.835 257.167 472.856 257.42 472.221 258.025C471.585 258.631 471.232 259.515 470.98 260.396C469.396 265.943 471.489 272.498 475.886 275.759" stroke="#C98C83" stroke-miterlimit="10"/>
<path d="M458.953 250.427C459.215 252.358 458.348 254.417 456.838 255.455C455.378 256.46 453.466 256.534 452.118 257.713C450.71 258.944 450.28 261.331 451.158 263.054C451.773 264.262 452.9 265.085 453.5 266.304C454.05 267.422 454.085 268.823 453.594 269.973C453.102 271.123 452.096 271.991 450.958 272.245" stroke="#C98C83" stroke-miterlimit="10"/>
<path d="M457.183 235.666C455.068 239.307 455.771 244.589 458.745 247.421" stroke="#C98C83" stroke-miterlimit="10"/>
<path d="M452.371 250.656C450.47 251.813 448.531 252.985 446.399 253.46C444.268 253.936 441.874 253.614 440.235 252.049C438.894 250.77 438.223 248.84 437.854 246.934C437.204 243.578 437.35 240.04 438.272 236.759" stroke="#C98C83" stroke-miterlimit="10"/>
<path d="M504.474 395.543C493.667 371.228 478.956 348.996 461.218 330.168C458.881 327.688 456.344 325.175 453.181 324.328C450.017 323.481 446.097 324.942 445.095 328.332" stroke="#C98C83" stroke-miterlimit="10"/>
<path d="M470.929 358.696C473.147 370.393 473.447 382.522 471.811 394.332" stroke="#C98C83" stroke-miterlimit="10"/>
<path d="M462.287 220.26L462.241 233.505L462.212 242.132L462.194 245.814L477.867 242.352L477.918 230.917L477.96 220.321L476.445 220.312C476.445 220.312 476.445 220.312 476.432 220.31L462.287 220.26Z" fill="#F6A357"/>
<path opacity="0.5412" d="M462.306 230.174L462.277 238.8C463.464 240.24 465.38 240.789 467.111 240.48C469.021 240.132 470.726 238.894 472.153 237.422C474.787 234.715 476.609 231.294 477.984 227.585L478.026 216.989L476.511 216.98C476.511 216.98 476.511 216.98 476.499 216.978C470.162 219.028 465.371 223.757 462.514 229.719C462.446 229.869 462.375 230.022 462.306 230.174Z" fill="#F6A357"/>
<path d="M451.728 190.004C448.504 196.943 446.186 206.07 446.765 217.17C447.661 234.292 463.211 235.783 467.576 234.473C475.409 232.122 482.653 226.951 487.103 219.531C491.553 212.111 492.962 202.399 490.084 194.111C487.206 185.824 479.828 179.401 471.715 178.985C463.602 178.569 455.572 181.73 451.728 190.004Z" fill="#F6A357"/>
<path d="M478.168 229.926C484.816 226.688 490.593 221.145 493.95 214.082C497.305 207.018 498.108 198.44 495.655 190.945C493.202 183.451 487.392 177.25 480.347 175.256C476.358 174.126 471.788 174.444 468.76 177.475C463.21 176.593 457.038 176.668 452.646 180.482C449.485 183.226 447.743 187.555 447.11 191.914C446.476 196.273 446.836 200.723 447.198 205.119C448.181 201.601 449.188 198.025 451.056 194.964C452.923 191.903 455.808 189.377 459.153 188.987C460.358 188.846 461.595 188.983 462.773 188.672C463.952 188.361 465.125 187.425 465.247 186.106C465.101 190.945 466.988 195.814 470.269 199.065C473.55 202.315 478.166 203.886 482.554 203.248C480.548 204.677 478.499 206.157 477.084 208.269C475.669 210.382 474.999 213.295 476.027 215.66C476.623 217.028 477.708 218.071 478.385 219.394C480.003 222.553 479.001 226.481 478.168 229.926Z" fill="#383838"/>
<path d="M482.408 187.804C479.827 186.581 477.315 185.059 475.339 182.87C473.362 180.682 471.956 177.755 471.923 174.679C471.89 171.603 473.414 168.441 475.971 167.161C477.585 166.354 479.441 166.326 481.098 165.628C482.822 164.901 484.238 163.429 486.001 162.82C493.14 160.349 504.216 166.721 502.476 180.677C501.768 186.362 498.796 189.425 495.609 190.597C490.975 192.3 486.774 189.874 482.408 187.804Z" fill="#383838"/>
<path d="M498.581 168.298C501.363 170.534 503.378 173.883 504.157 177.562C504.764 180.438 504.561 183.687 502.905 186.018C501.248 188.35 497.892 189.306 495.732 187.534" stroke="#383838" stroke-miterlimit="10"/>
<path d="M462.069 178.08C459.73 177.756 457.337 177.587 455.033 178.13C452.729 178.673 450.501 180.001 449.199 182.15C447.897 184.299 447.703 187.327 449.079 189.421" stroke="#383838" stroke-miterlimit="10"/>
<path d="M456.462 204.934C456.487 203.96 455.786 203.147 454.895 203.118C454.004 203.091 453.262 203.858 453.235 204.832C453.21 205.806 453.911 206.619 454.802 206.648C455.694 206.677 456.436 205.909 456.462 204.934Z" fill="#383838"/>
<path d="M468.279 208.382C468.304 207.408 467.603 206.595 466.712 206.566C465.822 206.539 465.079 207.306 465.052 208.28C465.027 209.254 465.728 210.067 466.619 210.096C467.51 210.125 468.254 209.357 468.279 208.382Z" fill="#383838"/>
<path d="M472.036 206.308C470.706 205.242 469.375 204.178 468.046 203.113C467.703 202.838 467.333 202.518 467.256 202.061C467.175 201.586 467.458 201.1 467.843 200.864C468.228 200.628 468.692 200.599 469.133 200.642C470.969 200.823 472.646 202.281 473.224 204.195C473.361 204.652 473.44 205.158 473.289 205.611C473.14 206.065 472.581 206.743 472.036 206.308Z" fill="#383838"/>
<path d="M452.757 199.886C454.369 199.511 455.982 199.137 457.595 198.762C458.012 198.665 458.468 198.541 458.71 198.158C458.963 197.761 458.886 197.192 458.623 196.804C458.36 196.415 457.947 196.18 457.53 196.023C455.788 195.365 453.712 195.941 452.467 197.428C452.169 197.784 451.908 198.211 451.876 198.69C451.841 199.17 452.098 200.039 452.757 199.886Z" fill="#383838"/>
<path d="M460.835 217.848C457.136 219.31 453.39 218.579 451.518 215.1" stroke="#383838" stroke-width="0.7" stroke-miterlimit="10"/>
<path d="M481.775 218.293C482.865 215.276 481.513 211.864 478.755 210.671C475.997 209.478 472.878 210.957 471.788 213.974C470.697 216.991 472.049 220.403 474.807 221.596C477.565 222.788 480.684 221.31 481.775 218.293Z" fill="#F6A357"/>
<path d="M479.941 214.494C477.322 214.149 474.582 215.769 473.412 218.355" stroke="#BF672C" stroke-width="0.7" stroke-miterlimit="10"/>
<path d="M478.53 217.802C477.686 216.81 476.546 216.126 475.328 215.88" stroke="#BF672C" stroke-width="0.7" stroke-miterlimit="10"/>
<path d="M462.378 200.521C461.908 203.631 459.914 206.414 457.268 207.658C456.391 208.07 455.416 208.349 454.754 209.101C453.897 210.075 453.841 211.765 454.635 212.803C455.427 213.841 456.957 214.083 457.987 213.334" stroke="#BF672C" stroke-width="0.7" stroke-miterlimit="10"/>
<g opacity="0.3294">
<path d="M679.081 212.607C651.973 220.108 631.159 249.107 630.93 279.693C630.701 310.28 651.078 339.648 678.071 347.634C693.126 352.088 709.641 350.518 723.767 357.749C737.77 364.917 747.099 379.491 756.921 392.551C766.742 405.612 779.112 418.483 794.529 419.742C816.09 421.504 833.385 399.821 841.433 377.871C858.094 332.42 849.751 276.775 819.573 240.603C789.396 204.434 739.955 195.763 679.081 212.607Z" fill="#E4E6F2"/>
<path d="M753.625 430.148C740.952 414.925 725.121 401.74 706.633 397.885C688.143 394.031 666.844 401.541 657.557 419.449C650.371 433.305 651.364 450.6 655.401 465.907C660.646 485.789 670.961 504.42 686.089 516.842C701.217 529.265 721.362 534.918 739.671 529.713C757.98 524.508 773.627 507.681 776.754 487.273C779.881 466.864 767.15 446.391 753.625 430.148Z" fill="#E4E6F2"/>
</g>
<path d="M709.856 562.086L694.393 562.015L694.284 590.294L709.747 590.365L709.856 562.086Z" fill="#F6915C"/>
<path d="M712.021 601.453L711.996 604.716L652.508 606.685L652.25 603.804L712.021 601.453Z" fill="#E6E6E6"/>
<path d="M652.224 604.122C657.274 604.088 662.598 603.956 668.041 603.782C682.673 603.334 698.209 602.563 712.05 602.473C715.808 595.794 715.873 587.113 712.326 580.619C710.619 579.614 708.697 580.846 707.62 582.349C706.532 583.863 705.792 585.742 704.344 586.83C702.233 588.412 699.211 587.72 697.28 585.896C695.35 584.071 694.303 581.378 693.547 578.713C686.077 581.385 677.814 585.726 667.054 586.063C665.144 586.121 663.391 586.415 661.808 586.877C652.379 589.71 648.808 598.978 652.224 604.122Z" fill="#D1D1D1"/>
<path d="M686.919 584.131C689.885 581.707 691.665 577.642 691.532 573.596C691.502 572.655 691.374 571.712 691.466 570.777C691.559 569.841 691.914 568.878 692.631 568.359C693.692 567.592 695.229 568.097 696.031 569.178C696.833 570.258 697.033 571.737 696.973 573.127C696.852 575.947 695.757 578.704 693.955 580.723C692.154 582.742 689.661 584.008 686.919 584.131Z" fill="#D1D1D1"/>
<path d="M706.597 598.605C708.328 596.93 708.491 594.036 706.959 592.142C705.427 590.249 702.782 590.071 701.051 591.747C699.32 593.422 699.157 596.316 700.69 598.209C702.222 600.103 704.866 600.28 706.597 598.605Z" fill="#E6E6E6"/>
<path d="M652.224 604.122C657.274 604.088 662.598 603.956 668.041 603.782C667.756 599.26 667.094 594.789 665.065 590.904C664.249 589.331 663.168 587.869 661.81 586.877C652.378 589.71 648.808 598.978 652.224 604.122Z" fill="#E6E6E6"/>
<path d="M689.584 581.495C690.468 581.567 691.015 582.788 690.679 583.686C690.343 584.583 689.37 585.057 688.488 584.957C687.607 584.858 686.821 584.29 686.193 583.604C685.249 582.575 684.621 580.787 685.538 579.728C687.125 581.337 687.089 584.464 685.464 586.027C683.839 587.589 680.998 587.229 679.743 585.302C679.11 584.329 679.098 582.615 680.145 582.276C680.779 582.07 681.482 582.562 681.729 583.234C681.977 583.906 681.849 584.682 681.559 585.335C680.513 587.687 677.233 588.35 675.487 586.562C674.766 585.823 674.461 584.276 675.359 583.823C675.913 583.544 676.608 583.943 676.873 584.544C677.138 585.145 677.059 585.864 676.855 586.494C676.304 588.202 674.83 589.508 673.188 589.745C671.547 589.981 669.813 589.135 668.877 587.641C668.434 586.934 668.197 585.889 668.744 585.274C669.324 584.623 670.459 585.017 670.787 585.852C671.116 586.686 670.786 587.691 670.206 588.343C669.626 588.994 668.843 589.37 668.079 589.729" stroke="#E6E6E6" stroke-miterlimit="10" stroke-linejoin="round"/>
<path d="M690.081 581.751C688.509 581.541 687.018 580.67 685.983 579.357C684.948 578.045 684.38 576.303 684.422 574.57C684.438 573.856 684.612 573.051 685.18 572.698C685.934 572.228 686.874 572.836 687.459 573.536C689.215 575.637 689.771 578.619 689.929 581.461C690.543 579.207 691.405 577.034 692.491 575.004C692.997 574.056 693.79 573.015 694.781 573.195C695.494 573.324 695.998 574.103 696.075 574.888C696.151 575.674 695.884 576.452 695.544 577.15C694.402 579.49 692.375 582.058 690.081 581.751Z" stroke="#E6E6E6" stroke-miterlimit="10" stroke-linejoin="round"/>
<path d="M820.253 515.582L809.664 527.907L828.502 547.272L839.091 534.947L820.253 515.582Z" fill="#F6915C"/>
<path d="M848.082 540.674L850.247 542.92L811.009 591.868L808.907 590.11L848.082 540.674Z" fill="#E6E6E6"/>
<path d="M809.102 590.347C812.522 586.283 816.063 581.932 819.658 577.459C829.333 565.443 839.409 552.486 848.786 541.347C846.88 533.786 841.12 527.816 834.358 526.228C832.523 526.908 832.036 529.286 832.308 531.174C832.578 533.076 833.33 534.949 833.071 536.85C832.689 539.618 830.166 541.564 827.631 541.866C825.096 542.168 822.58 541.17 820.283 539.958C816.977 547.758 814.247 557.33 807.136 566.169C805.873 567.736 804.875 569.339 804.104 570.922C799.569 580.399 803.332 589.575 809.102 590.347Z" fill="#D1D1D1"/>
<path d="M819.384 548.953C819.785 544.929 818.279 540.733 815.483 538.08C814.832 537.463 814.116 536.922 813.553 536.21C812.99 535.498 812.587 534.558 812.73 533.63C812.941 532.257 814.324 531.373 815.594 531.467C816.864 531.561 817.99 532.409 818.879 533.406C820.682 535.425 821.778 538.181 821.901 541C822.025 543.818 821.172 546.676 819.384 548.953Z" fill="#D1D1D1"/>
<path d="M842.481 543.073C842.54 540.545 840.716 538.443 838.405 538.378C836.094 538.312 834.173 540.309 834.113 542.835C834.054 545.363 835.878 547.465 838.188 547.53C840.5 547.596 842.421 545.6 842.481 543.073Z" fill="#E6E6E6"/>
<path d="M809.102 590.347C812.522 586.283 816.063 581.932 819.658 577.458C816.44 574.602 812.998 572.085 809.016 571.06C807.409 570.641 805.693 570.51 804.103 570.92C799.569 580.399 803.332 589.575 809.102 590.347Z" fill="#E6E6E6"/>
<path d="M819.437 545.024C820.088 544.365 821.278 544.76 821.648 545.641C822.018 546.521 821.672 547.622 821.005 548.261C820.337 548.899 819.421 549.141 818.535 549.176C817.204 549.228 815.579 548.512 815.497 547.057C817.655 546.883 819.722 549.046 819.658 551.412C819.595 553.778 817.418 555.805 815.273 555.496C814.19 555.339 813.037 554.18 813.523 553.112C813.819 552.464 814.626 552.237 815.244 552.497C815.862 552.757 816.295 553.389 816.533 554.064C817.393 556.506 815.6 559.581 813.214 559.759C812.227 559.832 810.987 559.023 811.295 557.994C811.486 557.36 812.226 557.078 812.81 557.276C813.392 557.473 813.819 558.027 814.102 558.619C814.869 560.225 814.737 562.295 813.776 563.77C812.815 565.244 811.067 566.054 809.43 565.785C808.654 565.657 807.795 565.134 807.756 564.277C807.716 563.369 808.753 562.729 809.535 563.036C810.317 563.343 810.764 564.291 810.805 565.199C810.845 566.107 810.561 566.99 810.282 567.845" stroke="#E6E6E6" stroke-miterlimit="10" stroke-linejoin="round"/>
<path d="M819.949 544.8C818.736 545.916 817.137 546.515 815.554 546.449C813.971 546.383 812.418 545.649 811.287 544.436C810.821 543.935 810.402 543.247 810.552 542.552C810.752 541.629 811.799 541.29 812.667 541.3C815.27 541.327 817.642 542.914 819.65 544.726C818.561 542.698 817.697 540.526 817.079 538.273C816.791 537.222 816.634 535.878 817.43 535.207C818.002 534.724 818.866 534.851 819.444 535.327C820.021 535.802 820.36 536.546 820.595 537.293C821.382 539.802 821.717 543.175 819.949 544.8Z" stroke="#E6E6E6" stroke-miterlimit="10" stroke-linejoin="round"/>
<path d="M698.453 327.346C693.067 362.756 686.316 398.778 682.864 435.823C680.548 460.675 684.661 471.369 692.643 566.063C697.604 564.794 706.986 565.894 711.756 564.65C710.093 527.546 719.564 463.612 710.685 439.905C718.321 411.295 727.953 383.905 738.363 351.455C741.205 342.599 742.194 332.313 738.586 323.814C734.902 315.136 725.78 310.117 717.237 311.149C708.693 312.183 699.823 318.347 698.453 327.346Z" fill="#F64735"/>
<path d="M709.517 331.281C718.961 365.613 727.432 401.177 739.261 435.995C747.198 459.354 771.39 480.305 813.234 532.256C817.155 528.628 823.991 522.927 827.749 519.417C810.589 491.264 783.22 442.35 765.749 425.645C761.051 396.254 758.629 366.949 754.863 332.733C753.834 323.395 750.577 313.711 743.934 307.937C737.151 302.04 726.985 302.148 719.771 307.368C712.558 312.589 707.117 322.556 709.517 331.281Z" fill="#F64735"/>
<path d="M743.23 304.587C747.085 338.377 750.94 372.166 754.794 405.956C755.627 413.25 756.482 420.645 759.001 427.436C761.479 434.118 765.465 439.941 769.405 445.679C787.188 471.569 809.047 503.491 822.125 524.763" stroke="#B03427" stroke-miterlimit="10"/>
<path d="M712.126 349.33C719.896 368.561 724.869 388.698 730.918 408.962" stroke="#B03427" stroke-miterlimit="10"/>
<path d="M722.313 379.145C715.723 400.968 711.055 416.741 707.177 435.835C706.127 441.005 708.564 453.484 708.943 458.769C711.56 495.278 707.462 542.968 708.943 563.629" stroke="#B03427" stroke-miterlimit="10"/>
<path d="M660.646 371.767C649.201 354.016 637.718 336.197 628.594 316.904C626.853 313.224 625.168 309.367 624.944 305.229C624.72 301.091 626.292 296.575 629.653 294.662C633.044 292.733 637.367 293.959 640.344 296.582C643.32 299.205 645.229 302.976 646.994 306.685C655.998 325.618 651.934 334.36 670.268 365.636C666.752 367.123 663.494 369.326 660.646 371.767Z" fill="#D28D7D"/>
<path d="M667.546 361.876C663.706 362.723 661.006 365.469 659.582 369.916C660.968 372.437 662.537 375.522 664.056 378.284C665.574 381.047 667.503 383.844 669.8 384.948C671.587 385.807 673.282 385.49 674.884 385.16C676.548 384.817 678.212 384.473 679.876 384.13C681.479 383.8 683.246 383.296 683.7 381.336C684.26 378.915 682.509 375.683 680.73 373.323C676.87 368.204 672.164 364.174 667.546 361.876Z" fill="#D28D7D"/>
<path d="M813.494 183.606C799.646 199.174 785.744 214.795 770.086 228.153C767.098 230.701 763.942 233.222 760.266 234.224C756.589 235.226 752.242 234.365 749.905 231.102C747.547 227.81 747.855 222.937 749.666 219.254C751.476 215.571 754.515 212.825 757.523 210.246C772.879 197.086 781.483 199.85 806.218 174.388C808.199 177.894 810.779 180.992 813.494 183.606Z" fill="#D28D7D"/>
<path d="M803.339 178.004C804.806 181.979 807.77 184.377 812.029 185.09C814.039 183.137 816.523 180.882 818.726 178.742C820.929 176.603 823.089 174.013 823.658 171.342C824.102 169.263 823.505 167.498 822.914 165.837C822.3 164.111 821.686 162.385 821.071 160.659C820.48 158.996 819.7 157.187 817.857 157.06C815.579 156.904 812.997 159.38 811.203 161.726C807.311 166.814 804.556 172.616 803.339 178.004Z" fill="#D28D7D"/>
<mask id="mask2_503_11991" style="mask-type:luminance" maskUnits="userSpaceOnUse" x="624" y="198" width="156" height="170">
<path d="M757.222 292.929C762.225 302.382 767.089 313.576 763.628 323.817C761.341 330.602 755.871 335.37 750.653 339.793C744.589 344.92 738.524 350.047 732.46 355.174C729.289 357.855 726.055 360.578 722.29 362.07C718.525 363.563 714.065 363.66 710.73 361.255C706.99 364.13 703.023 366.617 698.64 367.488C694.268 368.359 689.379 367.377 686.221 363.95C681.698 359.058 681.963 351.18 681.23 344.27C680.081 333.56 675.709 323.305 668.95 315.469C663.77 318.081 658.11 320.044 653.474 323.941C648.496 324.701 643.266 322.269 638.376 319.325C627.056 312.512 629.116 298.429 624.921 287.76C638.781 278.694 651.023 266.325 665.248 255.698C672.538 250.239 680.358 245.236 689.177 241.366C697.212 237.842 705.399 234.235 713.371 230.172C729.1 222.184 743.982 212.469 755.214 198.317C767.001 209.843 774.569 222.917 779.028 237.165C767.759 243.55 757.437 252.132 748.606 262.276C746.698 272.959 752.207 283.476 757.222 292.929Z" fill="white"/>
</mask>
<g mask="url(#mask2_503_11991)">
<path d="M757.222 292.929C762.225 302.382 767.089 313.576 763.628 323.817C761.341 330.602 755.871 335.37 750.653 339.793C744.589 344.92 738.524 350.047 732.46 355.174C729.289 357.855 726.055 360.578 722.29 362.07C718.525 363.563 714.065 363.66 710.73 361.255C706.99 364.13 703.023 366.617 698.64 367.488C694.268 368.359 689.379 367.377 686.221 363.95C681.698 359.058 681.963 351.18 681.23 344.27C680.081 333.56 675.709 323.305 668.95 315.469C663.77 318.081 658.11 320.044 653.474 323.941C648.496 324.701 643.266 322.269 638.376 319.325C627.056 312.512 629.116 298.429 624.921 287.76C638.781 278.694 651.023 266.325 665.248 255.698C672.538 250.239 680.358 245.236 689.177 241.366C697.212 237.842 705.399 234.235 713.371 230.172C729.1 222.184 743.982 212.469 755.214 198.317C767.001 209.843 774.569 222.917 779.028 237.165C767.759 243.55 757.437 252.132 748.606 262.276C746.698 272.959 752.207 283.476 757.222 292.929Z" fill="#383838"/>
</g>
<mask id="mask3_503_11991" style="mask-type:luminance" maskUnits="userSpaceOnUse" x="624" y="198" width="156" height="170">
<path d="M757.222 292.929C762.225 302.382 767.089 313.576 763.628 323.817C761.341 330.602 755.871 335.37 750.653 339.793C744.589 344.92 738.524 350.047 732.46 355.174C729.289 357.855 726.055 360.578 722.29 362.07C718.525 363.563 714.065 363.66 710.73 361.255C706.99 364.13 703.023 366.617 698.64 367.488C694.268 368.359 689.379 367.377 686.221 363.95C681.698 359.058 681.963 351.18 681.23 344.27C680.081 333.56 675.709 323.305 668.95 315.469C663.77 318.081 658.11 320.044 653.474 323.941C648.496 324.701 643.266 322.269 638.376 319.325C627.056 312.512 629.116 298.429 624.921 287.76C638.781 278.694 651.023 266.325 665.248 255.698C672.538 250.239 680.358 245.236 689.177 241.366C697.212 237.842 705.399 234.235 713.371 230.172C729.1 222.184 743.982 212.469 755.214 198.317C767.001 209.843 774.569 222.917 779.028 237.165C767.759 243.55 757.437 252.132 748.606 262.276C746.698 272.959 752.207 283.476 757.222 292.929Z" fill="white"/>
</mask>
<g mask="url(#mask3_503_11991)">
<path d="M667.643 201.632C668.873 201.632 669.871 200.541 669.871 199.194C669.871 197.848 668.873 196.756 667.643 196.756C666.412 196.756 665.414 197.848 665.414 199.194C665.414 200.541 666.412 201.632 667.643 201.632Z" fill="#D1D1D1"/>
<path d="M679.241 214.319C680.472 214.319 681.47 213.228 681.47 211.881C681.47 210.535 680.472 209.443 679.241 209.443C678.01 209.443 677.013 210.535 677.013 211.881C677.013 213.228 678.01 214.319 679.241 214.319Z" fill="#D1D1D1"/>
<path d="M690.838 227.005C692.069 227.005 693.067 225.913 693.067 224.567C693.067 223.22 692.069 222.129 690.838 222.129C689.608 222.129 688.61 223.22 688.61 224.567C688.61 225.913 689.608 227.005 690.838 227.005Z" fill="#D1D1D1"/>
<path d="M702.435 239.691C703.666 239.691 704.664 238.6 704.664 237.253C704.664 235.907 703.666 234.816 702.435 234.816C701.204 234.816 700.207 235.907 700.207 237.253C700.207 238.6 701.204 239.691 702.435 239.691Z" fill="#D1D1D1"/>
<path d="M714.033 252.378C715.264 252.378 716.262 251.287 716.262 249.94C716.262 248.594 715.264 247.502 714.033 247.502C712.802 247.502 711.805 248.594 711.805 249.94C711.805 251.287 712.802 252.378 714.033 252.378Z" fill="#D1D1D1"/>
<path d="M725.631 265.065C726.862 265.065 727.86 263.973 727.86 262.627C727.86 261.281 726.862 260.189 725.631 260.189C724.4 260.189 723.402 261.281 723.402 262.627C723.402 263.973 724.4 265.065 725.631 265.065Z" fill="#D1D1D1"/>
<path d="M688.385 198.43C689.256 197.478 690.667 197.478 691.537 198.43C692.408 199.382 692.408 200.926 691.537 201.878C690.667 202.83 689.256 202.83 688.385 201.878C687.515 200.926 687.515 199.382 688.385 198.43Z" fill="#D1D1D1"/>
<path d="M699.981 211.117C700.852 210.165 702.263 210.165 703.134 211.117C704.004 212.069 704.004 213.613 703.134 214.565C702.263 215.517 700.852 215.517 699.981 214.565C699.111 213.613 699.111 212.069 699.981 211.117Z" fill="#D1D1D1"/>
<path d="M711.58 223.802C712.45 222.85 713.861 222.85 714.732 223.802C715.602 224.754 715.602 226.298 714.732 227.25C713.861 228.202 712.45 228.202 711.58 227.25C710.709 226.298 710.709 224.754 711.58 223.802Z" fill="#D1D1D1"/>
<path d="M723.177 236.489C724.048 235.537 725.459 235.537 726.329 236.489C727.2 237.441 727.2 238.985 726.329 239.937C725.459 240.889 724.048 240.889 723.177 239.937C722.307 238.985 722.307 237.441 723.177 236.489Z" fill="#D1D1D1"/>
<path d="M734.775 249.176C735.645 248.224 737.057 248.224 737.927 249.176C738.798 250.128 738.798 251.672 737.927 252.624C737.057 253.576 735.645 253.576 734.775 252.624C733.904 251.672 733.904 250.128 734.775 249.176Z" fill="#D1D1D1"/>
<path d="M710.702 199.389C711.573 198.437 712.984 198.437 713.854 199.389C714.725 200.342 714.725 201.885 713.854 202.837C712.984 203.79 711.573 203.79 710.702 202.837C709.832 201.885 709.832 200.342 710.702 199.389Z" fill="#D1D1D1"/>
<path d="M722.299 212.076C723.17 211.124 724.581 211.124 725.451 212.076C726.322 213.029 726.322 214.572 725.451 215.524C724.581 216.477 723.17 216.477 722.299 215.524C721.429 214.572 721.429 213.029 722.299 212.076Z" fill="#D1D1D1"/>
<path d="M733.897 224.763C734.767 223.811 736.178 223.811 737.049 224.763C737.919 225.715 737.919 227.259 737.049 228.211C736.178 229.163 734.767 229.163 733.897 228.211C733.026 227.259 733.026 225.715 733.897 224.763Z" fill="#D1D1D1"/>
<path d="M745.495 237.45C746.365 236.498 747.776 236.498 748.647 237.45C749.517 238.402 749.517 239.946 748.647 240.898C747.776 241.85 746.365 241.85 745.495 240.898C744.624 239.946 744.624 238.402 745.495 237.45Z" fill="#D1D1D1"/>
<path d="M733.02 200.349C733.891 199.397 735.302 199.397 736.172 200.349C737.043 201.302 737.043 202.845 736.172 203.797C735.302 204.75 733.891 204.75 733.02 203.797C732.15 202.845 732.15 201.302 733.02 200.349Z" fill="#D1D1D1"/>
<path d="M744.617 213.036C745.487 212.084 746.898 212.084 747.769 213.036C748.639 213.988 748.639 215.532 747.769 216.484C746.898 217.436 745.487 217.436 744.617 216.484C743.746 215.532 743.746 213.988 744.617 213.036Z" fill="#D1D1D1"/>
<path d="M756.214 225.721C757.085 224.769 758.496 224.769 759.366 225.721C760.237 226.674 760.237 228.217 759.366 229.17C758.496 230.122 757.085 230.122 756.214 229.17C755.344 228.217 755.344 226.674 756.214 225.721Z" fill="#D1D1D1"/>
<path d="M755.338 201.309C756.209 200.356 757.62 200.356 758.491 201.309C759.361 202.261 759.361 203.805 758.491 204.757C757.62 205.709 756.209 205.709 755.338 204.757C754.468 203.805 754.468 202.261 755.338 201.309Z" fill="#D1D1D1"/>
<path d="M766.936 213.995C767.806 213.043 769.217 213.043 770.088 213.995C770.958 214.947 770.958 216.491 770.088 217.443C769.217 218.396 767.806 218.396 766.936 217.443C766.065 216.491 766.065 214.947 766.936 213.995Z" fill="#D1D1D1"/>
<path d="M779.231 206.43C780.461 206.43 781.459 205.339 781.459 203.993C781.459 202.646 780.461 201.555 779.231 201.555C778 201.555 777.002 202.646 777.002 203.993C777.002 205.339 778 206.43 779.231 206.43Z" fill="#D1D1D1"/>
<path d="M734.855 272.717C735.725 271.765 737.136 271.765 738.007 272.717C738.877 273.669 738.877 275.213 738.007 276.165C737.136 277.117 735.725 277.117 734.855 276.165C733.984 275.213 733.984 273.668 734.855 272.717Z" fill="#D1D1D1"/>
<path d="M746.451 285.403C747.322 284.45 748.733 284.45 749.603 285.403C750.474 286.355 750.474 287.899 749.603 288.851C748.733 289.803 747.322 289.803 746.451 288.851C745.581 287.899 745.581 286.355 746.451 285.403Z" fill="#D1D1D1"/>
<path d="M758.049 298.089C758.919 297.137 760.331 297.137 761.201 298.089C762.071 299.042 762.071 300.585 761.201 301.537C760.331 302.49 758.919 302.49 758.049 301.537C757.178 300.585 757.178 299.042 758.049 298.089Z" fill="#D1D1D1"/>
<path d="M769.647 310.776C770.517 309.824 771.929 309.824 772.799 310.776C773.67 311.728 773.67 313.272 772.799 314.224C771.929 315.177 770.517 315.177 769.647 314.224C768.777 313.272 768.777 311.728 769.647 310.776Z" fill="#D1D1D1"/>
<path d="M745.574 260.99C746.445 260.037 747.856 260.037 748.726 260.99C749.597 261.942 749.597 263.486 748.726 264.438C747.856 265.39 746.445 265.39 745.574 264.438C744.704 263.486 744.704 261.942 745.574 260.99Z" fill="#D1D1D1"/>
<path d="M757.172 273.677C758.043 272.724 759.454 272.724 760.325 273.677C761.195 274.629 761.195 276.172 760.325 277.125C759.454 278.077 758.043 278.077 757.172 277.125C756.302 276.172 756.302 274.629 757.172 273.677Z" fill="#D1D1D1"/>
<path d="M770.345 290.524C771.576 290.524 772.574 289.433 772.574 288.087C772.574 286.74 771.576 285.649 770.345 285.649C769.114 285.649 768.117 286.74 768.117 288.087C768.117 289.433 769.114 290.524 770.345 290.524Z" fill="#D1D1D1"/>
<path d="M756.294 249.263C757.165 248.311 758.576 248.311 759.447 249.263C760.317 250.215 760.317 251.759 759.447 252.711C758.576 253.664 757.165 253.664 756.294 252.711C755.424 251.759 755.424 250.215 756.294 249.263Z" fill="#D1D1D1"/>
<path d="M767.893 261.95C768.763 260.998 770.174 260.998 771.045 261.95C771.915 262.902 771.915 264.446 771.045 265.398C770.174 266.35 768.763 266.35 767.893 265.398C767.022 264.446 767.022 262.902 767.893 261.95Z" fill="#D1D1D1"/>
<path d="M779.49 274.635C780.36 273.683 781.771 273.683 782.642 274.635C783.512 275.588 783.512 277.131 782.642 278.084C781.771 279.036 780.36 279.036 779.49 278.084C778.619 277.133 778.619 275.589 779.49 274.635Z" fill="#D1D1D1"/>
<path d="M767.014 237.537C767.884 236.584 769.295 236.584 770.166 237.537C771.036 238.489 771.036 240.033 770.166 240.985C769.295 241.937 767.884 241.937 767.014 240.985C766.145 240.033 766.145 238.489 767.014 237.537Z" fill="#D1D1D1"/>
<path d="M778.612 250.222C779.482 249.27 780.893 249.27 781.764 250.222C782.634 251.174 782.634 252.718 781.764 253.67C780.893 254.622 779.482 254.622 778.612 253.67C777.741 252.718 777.741 251.174 778.612 250.222Z" fill="#D1D1D1"/>
<path d="M777.735 225.809C778.605 224.857 780.017 224.857 780.887 225.809C781.757 226.761 781.757 228.305 780.887 229.257C780.017 230.209 778.605 230.209 777.735 229.257C776.864 228.305 776.864 226.761 777.735 225.809Z" fill="#D1D1D1"/>
<path d="M625.008 293.129C625.878 292.177 627.29 292.177 628.16 293.129C629.03 294.081 629.03 295.625 628.16 296.577C627.29 297.529 625.878 297.529 625.008 296.577C624.139 295.625 624.139 294.081 625.008 293.129Z" fill="#D1D1D1"/>
<path d="M636.605 305.816C637.476 304.864 638.887 304.864 639.758 305.816C640.628 306.768 640.628 308.312 639.758 309.264C638.887 310.216 637.476 310.216 636.605 309.264C635.735 308.312 635.735 306.768 636.605 305.816Z" fill="#D1D1D1"/>
<path d="M648.203 318.502C649.074 317.55 650.485 317.55 651.355 318.502C652.226 319.455 652.226 320.998 651.355 321.95C650.485 322.903 649.074 322.903 648.203 321.95C647.333 320.998 647.333 319.455 648.203 318.502Z" fill="#D1D1D1"/>
<path d="M659.801 331.189C660.671 330.237 662.082 330.237 662.953 331.189C663.823 332.141 663.823 333.685 662.953 334.637C662.082 335.59 660.671 335.59 659.801 334.637C658.93 333.685 658.93 332.141 659.801 331.189Z" fill="#D1D1D1"/>
<path d="M625.708 272.878C626.939 272.878 627.937 271.787 627.937 270.44C627.937 269.094 626.939 268.003 625.708 268.003C624.477 268.003 623.479 269.094 623.479 270.44C623.479 271.787 624.477 272.878 625.708 272.878Z" fill="#D1D1D1"/>
<path d="M637.304 285.565C638.535 285.565 639.533 284.474 639.533 283.127C639.533 281.781 638.535 280.69 637.304 280.69C636.073 280.69 635.076 281.781 635.076 283.127C635.076 284.474 636.073 285.565 637.304 285.565Z" fill="#D1D1D1"/>
<path d="M648.902 298.251C650.133 298.251 651.131 297.159 651.131 295.813C651.131 294.467 650.133 293.375 648.902 293.375C647.672 293.375 646.674 294.467 646.674 295.813C646.674 297.159 647.672 298.251 648.902 298.251Z" fill="#D1D1D1"/>
<path d="M660.5 310.937C661.731 310.937 662.729 309.846 662.729 308.5C662.729 307.153 661.731 306.062 660.5 306.062C659.269 306.062 658.271 307.153 658.271 308.5C658.271 309.846 659.269 310.937 660.5 310.937Z" fill="#D1D1D1"/>
<path d="M672.098 323.624C673.329 323.624 674.326 322.533 674.326 321.187C674.326 319.84 673.329 318.749 672.098 318.749C670.867 318.749 669.869 319.84 669.869 321.187C669.869 322.533 670.867 323.624 672.098 323.624Z" fill="#D1D1D1"/>
<path d="M623.254 244.303C624.124 243.351 625.536 243.351 626.406 244.303C627.276 245.255 627.276 246.799 626.406 247.751C625.536 248.703 624.124 248.703 623.254 247.751C622.382 246.799 622.382 245.255 623.254 244.303Z" fill="#D1D1D1"/>
<path d="M634.85 256.99C635.721 256.038 637.132 256.038 638.002 256.99C638.873 257.942 638.873 259.486 638.002 260.438C637.132 261.39 635.721 261.39 634.85 260.438C633.98 259.486 633.98 257.942 634.85 256.99Z" fill="#D1D1D1"/>
<path d="M646.448 269.676C647.319 268.724 648.73 268.724 649.6 269.676C650.471 270.628 650.471 272.172 649.6 273.124C648.73 274.076 647.319 274.076 646.448 273.124C645.578 272.172 645.578 270.628 646.448 269.676Z" fill="#D1D1D1"/>
<path d="M658.046 282.363C658.916 281.411 660.328 281.411 661.198 282.363C662.069 283.315 662.069 284.859 661.198 285.811C660.328 286.763 658.916 286.763 658.046 285.811C657.175 284.859 657.175 283.315 658.046 282.363Z" fill="#D1D1D1"/>
<path d="M669.644 295.049C670.514 294.096 671.925 294.096 672.796 295.049C673.666 296.001 673.666 297.545 672.796 298.497C671.925 299.449 670.514 299.449 669.644 298.497C668.773 297.545 668.773 296.001 669.644 295.049Z" fill="#D1D1D1"/>
<path d="M681.241 307.735C682.111 306.783 683.522 306.783 684.393 307.735C685.263 308.688 685.263 310.231 684.393 311.184C683.522 312.136 682.111 312.136 681.241 311.184C680.37 310.231 680.37 308.688 681.241 307.735Z" fill="#D1D1D1"/>
<path d="M633.974 232.576C634.844 231.624 636.255 231.624 637.126 232.576C637.996 233.529 637.996 235.072 637.126 236.025C636.255 236.977 634.844 236.977 633.974 236.025C633.103 235.072 633.103 233.529 633.974 232.576Z" fill="#D1D1D1"/>
<path d="M647.147 249.424C648.378 249.424 649.376 248.333 649.376 246.986C649.376 245.64 648.378 244.548 647.147 244.548C645.916 244.548 644.918 245.64 644.918 246.986C644.918 248.333 645.916 249.424 647.147 249.424Z" fill="#D1D1D1"/>
<path d="M658.745 262.111C659.976 262.111 660.973 261.02 660.973 259.673C660.973 258.327 659.976 257.235 658.745 257.235C657.514 257.235 656.516 258.327 656.516 259.673C656.516 261.02 657.514 262.111 658.745 262.111Z" fill="#D1D1D1"/>
<path d="M670.342 274.798C671.573 274.798 672.571 273.706 672.571 272.36C672.571 271.014 671.573 269.922 670.342 269.922C669.112 269.922 668.114 271.014 668.114 272.36C668.114 273.706 669.112 274.798 670.342 274.798Z" fill="#D1D1D1"/>
<path d="M681.939 287.485C683.17 287.485 684.168 286.393 684.168 285.047C684.168 283.7 683.17 282.609 681.939 282.609C680.708 282.609 679.71 283.7 679.71 285.047C679.71 286.393 680.708 287.485 681.939 287.485Z" fill="#D1D1D1"/>
<path d="M691.961 296.009C692.832 295.057 694.243 295.057 695.114 296.009C695.984 296.961 695.984 298.505 695.114 299.457C694.243 300.409 692.832 300.409 691.961 299.457C691.091 298.505 691.091 296.961 691.961 296.009Z" fill="#D1D1D1"/>
<path d="M646.27 225.011C647.501 225.011 648.499 223.92 648.499 222.573C648.499 221.227 647.501 220.135 646.27 220.135C645.039 220.135 644.042 221.227 644.042 222.573C644.042 223.92 645.039 225.011 646.27 225.011Z" fill="#D1D1D1"/>
<path d="M657.867 237.698C659.098 237.698 660.096 236.607 660.096 235.26C660.096 233.914 659.098 232.822 657.867 232.822C656.636 232.822 655.639 233.914 655.639 235.26C655.639 236.607 656.636 237.698 657.867 237.698Z" fill="#D1D1D1"/>
<path d="M669.464 250.385C670.695 250.385 671.693 249.293 671.693 247.947C671.693 246.601 670.695 245.509 669.464 245.509C668.234 245.509 667.236 246.601 667.236 247.947C667.236 249.293 668.234 250.385 669.464 250.385Z" fill="#D1D1D1"/>
<path d="M681.063 263.072C682.293 263.072 683.291 261.98 683.291 260.634C683.291 259.287 682.293 258.196 681.063 258.196C679.832 258.196 678.834 259.287 678.834 260.634C678.834 261.98 679.832 263.072 681.063 263.072Z" fill="#D1D1D1"/>
<path d="M692.661 275.757C693.892 275.757 694.889 274.666 694.889 273.319C694.889 271.973 693.892 270.881 692.661 270.881C691.43 270.881 690.432 271.973 690.432 273.319C690.432 274.666 691.43 275.757 692.661 275.757Z" fill="#D1D1D1"/>
<path d="M704.258 288.444C705.489 288.444 706.486 287.352 706.486 286.006C706.486 284.66 705.489 283.568 704.258 283.568C703.027 283.568 702.029 284.66 702.029 286.006C702.029 287.352 703.027 288.444 704.258 288.444Z" fill="#D1D1D1"/>
<path d="M655.413 209.123C656.284 208.17 657.695 208.17 658.565 209.123C659.436 210.075 659.436 211.618 658.565 212.571C657.695 213.523 656.284 213.523 655.413 212.571C654.543 211.62 654.543 210.075 655.413 209.123Z" fill="#D1D1D1"/>
<path d="M667.011 221.809C667.882 220.857 669.293 220.857 670.163 221.809C671.034 222.762 671.034 224.305 670.163 225.258C669.293 226.21 667.882 226.21 667.011 225.258C666.141 224.305 666.141 222.762 667.011 221.809Z" fill="#D1D1D1"/>
<path d="M678.608 234.496C679.479 233.544 680.89 233.544 681.761 234.496C682.631 235.448 682.631 236.992 681.761 237.944C680.89 238.896 679.479 238.896 678.608 237.944C677.738 236.992 677.738 235.448 678.608 234.496Z" fill="#D1D1D1"/>
<path d="M690.207 247.183C691.077 246.231 692.488 246.231 693.359 247.183C694.229 248.135 694.229 249.679 693.359 250.631C692.488 251.583 691.077 251.583 690.207 250.631C689.336 249.679 689.336 248.135 690.207 247.183Z" fill="#D1D1D1"/>
<path d="M701.805 259.87C702.675 258.917 704.086 258.917 704.957 259.87C705.827 260.822 705.827 262.366 704.957 263.318C704.086 264.27 702.675 264.27 701.805 263.318C700.934 262.366 700.934 260.822 701.805 259.87Z" fill="#D1D1D1"/>
<path d="M713.401 272.555C714.271 271.603 715.683 271.603 716.553 272.555C717.423 273.507 717.423 275.051 716.553 276.003C715.683 276.955 714.271 276.955 713.401 276.003C712.53 275.052 712.53 273.507 713.401 272.555Z" fill="#D1D1D1"/>
<path d="M672.177 347.166C673.408 347.166 674.406 346.074 674.406 344.728C674.406 343.381 673.408 342.29 672.177 342.29C670.946 342.29 669.949 343.381 669.949 344.728C669.949 346.074 670.946 347.166 672.177 347.166Z" fill="#D1D1D1"/>
<path d="M683.774 359.851C685.005 359.851 686.003 358.76 686.003 357.413C686.003 356.067 685.005 354.975 683.774 354.975C682.543 354.975 681.545 356.067 681.545 357.413C681.545 358.76 682.543 359.851 683.774 359.851Z" fill="#D1D1D1"/>
<path d="M695.372 372.538C696.602 372.538 697.6 371.446 697.6 370.1C697.6 368.754 696.602 367.662 695.372 367.662C694.141 367.662 693.143 368.754 693.143 370.1C693.143 371.446 694.141 372.538 695.372 372.538Z" fill="#D1D1D1"/>
<path d="M681.32 331.277C682.191 330.325 683.602 330.325 684.472 331.277C685.343 332.229 685.343 333.773 684.472 334.725C683.602 335.677 682.191 335.677 681.32 334.725C680.45 333.773 680.45 332.229 681.32 331.277Z" fill="#D1D1D1"/>
<path d="M692.918 343.962C693.788 343.01 695.2 343.01 696.07 343.962C696.941 344.915 696.941 346.458 696.07 347.41C695.2 348.363 693.788 348.363 692.918 347.41C692.048 346.46 692.048 344.916 692.918 343.962Z" fill="#D1D1D1"/>
<path d="M704.516 356.649C705.386 355.697 706.797 355.697 707.668 356.649C708.538 357.601 708.538 359.145 707.668 360.097C706.797 361.049 705.386 361.049 704.516 360.097C703.645 359.145 703.645 357.601 704.516 356.649Z" fill="#D1D1D1"/>
<path d="M693.617 323.712C694.848 323.712 695.845 322.62 695.845 321.274C695.845 319.927 694.848 318.836 693.617 318.836C692.386 318.836 691.388 319.927 691.388 321.274C691.388 322.62 692.386 323.712 693.617 323.712Z" fill="#D1D1D1"/>
<path d="M705.215 336.399C706.446 336.399 707.444 335.307 707.444 333.961C707.444 332.614 706.446 331.523 705.215 331.523C703.984 331.523 702.986 332.614 702.986 333.961C702.986 335.307 703.984 336.399 705.215 336.399Z" fill="#D1D1D1"/>
<path d="M716.812 349.085C718.043 349.085 719.041 347.994 719.041 346.647C719.041 345.301 718.043 344.21 716.812 344.21C715.581 344.21 714.583 345.301 714.583 346.647C714.583 347.994 715.581 349.085 716.812 349.085Z" fill="#D1D1D1"/>
<path d="M728.411 361.771C729.642 361.771 730.639 360.679 730.639 359.333C730.639 357.986 729.642 356.895 728.411 356.895C727.18 356.895 726.182 357.986 726.182 359.333C726.182 360.679 727.18 361.771 728.411 361.771Z" fill="#D1D1D1"/>
<path d="M702.761 307.823C703.631 306.87 705.042 306.87 705.913 307.823C706.783 308.775 706.783 310.318 705.913 311.271C705.042 312.223 703.631 312.223 702.761 311.271C701.89 310.318 701.89 308.775 702.761 307.823Z" fill="#D1D1D1"/>
<path d="M714.359 320.509C715.229 319.557 716.641 319.557 717.511 320.509C718.381 321.462 718.381 323.005 717.511 323.957C716.641 324.91 715.229 324.91 714.359 323.957C713.488 323.005 713.488 321.462 714.359 320.509Z" fill="#D1D1D1"/>
<path d="M725.956 333.196C726.827 332.244 728.238 332.244 729.108 333.196C729.979 334.148 729.979 335.692 729.108 336.644C728.238 337.596 726.827 337.596 725.956 336.644C725.086 335.692 725.086 334.148 725.956 333.196Z" fill="#D1D1D1"/>
<path d="M737.553 345.883C738.423 344.931 739.834 344.931 740.705 345.883C741.575 346.835 741.575 348.379 740.705 349.331C739.834 350.283 738.423 350.283 737.553 349.331C736.682 348.379 736.682 346.835 737.553 345.883Z" fill="#D1D1D1"/>
<path d="M749.151 358.568C750.021 357.616 751.433 357.616 752.303 358.568C753.173 359.521 753.173 361.064 752.303 362.016C751.433 362.969 750.021 362.969 749.151 362.016C748.28 361.064 748.28 359.521 749.151 358.568Z" fill="#D1D1D1"/>
<path d="M713.481 296.096C714.351 295.144 715.763 295.144 716.633 296.096C717.504 297.048 717.504 298.592 716.633 299.544C715.763 300.497 714.351 300.497 713.481 299.544C712.611 298.592 712.611 297.048 713.481 296.096Z" fill="#D1D1D1"/>
<path d="M725.079 308.783C725.95 307.831 727.361 307.831 728.231 308.783C729.102 309.735 729.102 311.279 728.231 312.231C727.361 313.183 725.95 313.183 725.079 312.231C724.209 311.279 724.209 309.735 725.079 308.783Z" fill="#D1D1D1"/>
<path d="M736.676 321.469C737.547 320.516 738.958 320.516 739.828 321.469C740.699 322.421 740.699 323.964 739.828 324.917C738.958 325.869 737.547 325.869 736.676 324.917C735.806 323.966 735.806 322.422 736.676 321.469Z" fill="#D1D1D1"/>
<path d="M748.274 334.155C749.145 333.203 750.556 333.203 751.427 334.155C752.297 335.108 752.297 336.651 751.427 337.603C750.556 338.556 749.145 338.556 748.274 337.603C747.404 336.651 747.404 335.108 748.274 334.155Z" fill="#D1D1D1"/>
<path d="M759.871 346.842C760.741 345.89 762.152 345.89 763.023 346.842C763.893 347.794 763.893 349.338 763.023 350.29C762.152 351.242 760.741 351.242 759.871 350.29C759.001 349.338 759.001 347.794 759.871 346.842Z" fill="#D1D1D1"/>
<path d="M771.469 359.529C772.339 358.577 773.751 358.577 774.621 359.529C775.491 360.481 775.491 362.025 774.621 362.977C773.751 363.929 772.339 363.929 771.469 362.977C770.598 362.025 770.598 360.481 771.469 359.529Z" fill="#D1D1D1"/>
<path d="M724.202 284.37C725.072 283.418 726.483 283.418 727.354 284.37C728.224 285.322 728.224 286.866 727.354 287.818C726.483 288.77 725.072 288.77 724.202 287.818C723.331 286.866 723.331 285.322 724.202 284.37Z" fill="#D1D1D1"/>
<path d="M737.375 301.218C738.606 301.218 739.604 300.127 739.604 298.78C739.604 297.434 738.606 296.342 737.375 296.342C736.144 296.342 735.146 297.434 735.146 298.78C735.146 300.127 736.144 301.218 737.375 301.218Z" fill="#D1D1D1"/>
<path d="M748.973 313.905C750.204 313.905 751.201 312.813 751.201 311.467C751.201 310.121 750.204 309.029 748.973 309.029C747.742 309.029 746.744 310.121 746.744 311.467C746.744 312.813 747.742 313.905 748.973 313.905Z" fill="#D1D1D1"/>
<path d="M760.57 326.592C761.801 326.592 762.799 325.5 762.799 324.154C762.799 322.808 761.801 321.716 760.57 321.716C759.34 321.716 758.342 322.808 758.342 324.154C758.342 325.5 759.34 326.592 760.57 326.592Z" fill="#D1D1D1"/>
<path d="M772.167 339.277C773.398 339.277 774.396 338.185 774.396 336.839C774.396 335.493 773.398 334.401 772.167 334.401C770.936 334.401 769.938 335.493 769.938 336.839C769.938 338.185 770.936 339.277 772.167 339.277Z" fill="#D1D1D1"/>
</g>
<path d="M713.371 230.171C713.194 230.986 712.992 231.788 712.764 232.575C710.857 239.32 708.027 245.995 703.2 250.694C697.541 256.208 689.682 258.377 682.102 258.336C676.404 258.308 670.795 257.134 665.249 255.696C672.538 250.237 680.359 245.235 689.177 241.365C697.212 237.841 705.399 234.234 713.371 230.171Z" fill="#D28D7D"/>
<path d="M701.881 218.138L701.927 231.383L701.957 240.009L701.974 243.69L686.301 243.75L686.25 228.793L686.208 218.197L687.723 218.187C687.723 218.187 687.723 218.187 687.736 218.186L701.881 218.138Z" fill="#D28D7D"/>
<path opacity="0.5412" d="M701.862 228.051L701.891 236.677C700.704 238.117 698.789 238.666 697.058 238.358C695.147 238.01 693.442 236.771 692.016 235.299C689.381 232.592 687.56 229.172 686.184 225.462L686.142 214.867L687.657 214.857C687.657 214.857 687.657 214.857 687.669 214.855C694.005 216.905 698.797 221.634 701.653 227.596C701.722 227.747 701.792 227.899 701.862 228.051Z" fill="#D28D7D"/>
<path d="M714.119 194.521C715.703 202.102 715.927 211.566 712.905 222.183C708.244 238.557 694.208 234.261 690.273 231.84C683.209 227.495 677.341 220.569 674.677 212.198C672.012 203.826 672.799 194.034 677.422 186.754C682.045 179.472 690.612 175.186 698.559 176.921C706.506 178.654 712.23 185.481 714.119 194.521Z" fill="#D28D7D"/>
<path d="M707.54 186.679C707.794 189.602 705.195 191.987 702.575 192.62C699.953 193.252 697.224 192.71 694.543 192.869C691.862 193.028 688.901 194.201 687.871 196.913C686.485 200.561 689.272 205.004 687.716 208.57C686.934 210.362 685.184 211.521 684.556 213.385C683.466 216.62 686.157 219.717 687.744 222.695C689.122 225.281 689.729 228.432 689.045 231.329C688.362 234.227 686.274 236.775 683.613 237.464C680.316 238.316 676.794 236.351 673.521 237.302C669.566 238.45 667.624 243.202 664.652 246.277C661.599 249.433 657.322 250.84 653.13 251.13C648.314 251.465 643.152 250.286 639.701 246.594C636.251 242.904 635.215 236.307 638.339 232.284C639.869 230.314 642.105 229.203 643.993 227.647C645.879 226.091 647.539 223.643 647.048 221.116C646.727 219.467 645.573 218.197 644.607 216.885C642.071 213.442 640.57 208.965 641.029 204.572C641.488 200.178 644.093 195.988 647.873 194.422C651.927 192.743 656.772 194.096 660.565 191.799C664.151 189.625 665.628 184.954 667.576 181.007C671.78 172.493 679.858 165.995 688.699 165.677C697.54 165.359 706.554 172.149 707.695 181.584C709.378 180.801 711.267 182.164 712.387 183.744C714.431 186.627 714.617 189.816 713.908 193.343C712.759 190.31 710.92 188.6 707.54 186.679Z" fill="#FFC64C"/>
<path d="M647.906 219.017C647.966 221.958 646.768 224.9 644.732 226.821C643.189 228.276 641.257 229.123 639.382 229.997C637.508 230.87 635.602 231.833 634.2 233.45C632.796 235.067 631.994 237.497 632.723 239.578" stroke="#FFC64C" stroke-miterlimit="10"/>
<path d="M668.986 179.939C667.254 183.919 665.185 188.203 661.46 189.885C659.229 190.893 656.73 190.796 654.316 190.789C651.902 190.782 649.361 190.922 647.307 192.309C645.252 193.697 643.938 196.74 645.07 199.071" stroke="#FFC64C" stroke-miterlimit="10"/>
<path d="M688.079 194.168C690.253 192.916 692.776 192.579 695.122 193.227C696.707 193.664 698.195 194.53 699.779 194.964C701.365 195.399 703.17 195.335 704.432 194.092C705.337 193.202 705.848 191.752 705.756 190.343C705.664 188.932 704.969 187.601 703.96 186.896" stroke="#FFC64C" stroke-miterlimit="10"/>
<path d="M707.46 207.209C707.65 206.256 708.511 205.652 709.381 205.861C710.252 206.07 710.803 207.011 710.613 207.963C710.422 208.915 709.562 209.519 708.691 209.311C707.821 209.102 707.269 208.161 707.46 207.209Z" fill="#383838"/>
<path d="M695.231 207.427C695.422 206.475 696.282 205.871 697.153 206.079C698.023 206.288 698.574 207.229 698.385 208.181C698.194 209.134 697.333 209.738 696.463 209.529C695.591 209.32 695.04 208.379 695.231 207.427Z" fill="#383838"/>
<path d="M696.129 200.625C697.656 199.943 699.182 199.262 700.708 198.581C701.102 198.405 701.532 198.194 701.708 197.77C701.893 197.33 701.725 196.784 701.403 196.454C701.081 196.122 700.637 195.972 700.2 195.897C698.378 195.587 696.429 196.556 695.445 198.262C695.21 198.669 695.021 199.139 695.067 199.619C695.112 200.097 695.505 200.903 696.129 200.625Z" fill="#FFC64C"/>
<path d="M712.102 200.489C710.555 199.867 709.008 199.245 707.461 198.624C707.061 198.463 706.626 198.268 706.435 197.852C706.236 197.42 706.387 196.868 706.698 196.526C707.008 196.182 707.447 196.013 707.881 195.923C709.692 195.543 711.671 196.436 712.71 198.101C712.958 198.499 713.161 198.962 713.131 199.443C713.1 199.923 712.734 200.744 712.102 200.489Z" fill="#FFC64C"/>
<path d="M679.944 213.47C679.554 210.254 681.621 207.301 684.561 206.874C687.501 206.447 690.2 208.708 690.59 211.924C690.98 215.14 688.913 218.093 685.974 218.52C683.035 218.947 680.335 216.686 679.944 213.47Z" fill="#D28D7D"/>
<path d="M682.564 210.27C685.181 210.627 687.482 212.926 688.045 215.744" stroke="#8A4E42" stroke-width="0.7" stroke-miterlimit="10"/>
<path d="M683.201 213.853C684.24 213.114 685.498 212.752 686.734 212.836" stroke="#8A4E42" stroke-width="0.7" stroke-miterlimit="10"/>
<path d="M713.421 202.933C712.223 202.873 710.969 202.825 709.838 202.825C708.64 202.825 707.315 203.001 706.541 204C705.856 204.883 705.771 206.143 705.85 207.297C705.975 209.134 706.454 210.984 707.479 212.444C708.505 213.903 710.131 214.922 711.814 214.85C713.93 214.759 715.412 213.348 716.432 211.317C717.23 209.728 717.525 207.781 717.421 205.747C717.329 203.936 716.369 203.079 713.421 202.933Z" stroke="#D1D1D1" stroke-miterlimit="10"/>
<path d="M704.307 200.126C703.684 204.51 704.715 209.149 707.108 212.73C707.566 213.415 708.095 214.131 708.108 214.98C708.125 216.023 707.326 216.899 706.438 217.281C704.801 217.984 702.757 217.281 701.783 215.678" stroke="#8A4E42" stroke-width="0.7" stroke-miterlimit="10"/>
<path d="M694.197 202.933C695.394 202.873 696.649 202.825 697.779 202.825C698.977 202.825 700.302 203.001 701.077 204C701.762 204.883 701.846 206.143 701.768 207.297C701.643 209.134 701.164 210.984 700.138 212.444C699.112 213.903 697.486 214.922 695.803 214.85C693.686 214.759 692.205 213.348 691.186 211.317C690.387 209.728 690.092 207.781 690.197 205.747C690.289 203.936 691.249 203.079 694.197 202.933Z" stroke="#D1D1D1" stroke-miterlimit="10"/>
<path d="M701.675 207.79C702.997 207.143 704.59 207.195 705.872 207.928" stroke="#D1D1D1" stroke-miterlimit="10"/>
<path d="M698.421 219.352C700.826 221.684 704.843 221.663 707.226 219.307" stroke="#383838" stroke-width="0.7" stroke-miterlimit="10"/>
<g opacity="0.3294">
<path d="M1044.4 236.705C1016.14 235.441 986.611 240.825 964.344 259.901C942.077 278.976 928.385 310.851 932.843 341.402C937.3 371.954 961.715 398.755 989.971 400.076C999.31 400.513 1008.66 398.379 1017.98 399.158C1034.36 400.529 1048.89 410.639 1064.43 416.479C1082.44 423.249 1103.14 424 1119.91 414.125C1136.68 404.251 1147.99 382.218 1143.22 362.049C1140.5 350.548 1133.27 341.088 1127.8 330.824C1117.34 311.181 1101.01 239.24 1044.4 236.705Z" fill="#E4E6F2"/>
<path d="M1046.81 439.439C1035.7 434.85 1024.23 430.809 1012.37 430.126C1000.51 429.443 988.112 432.42 978.888 440.599C967.005 451.137 962.004 469.595 965.428 485.905C968.852 502.214 980.03 515.998 993.884 523.092C1007.74 530.187 1023.96 530.893 1038.73 526.569C1051.08 522.958 1062.78 515.727 1070.69 504.756C1078.61 493.784 1082.33 478.865 1079.02 465.369C1075.71 451.871 1063.64 446.394 1046.81 439.439Z" fill="#E4E6F2"/>
</g>
<path d="M920.96 518.234C920.159 522.988 919.332 527.821 917.186 532.148C915.04 536.475 911.342 540.303 906.61 541.455C899.804 543.112 892.828 539.006 885.835 539.483C880.773 539.828 875.958 542.75 872.744 547.603C881.062 554.37 891.61 557.718 901.881 560.92C915.384 565.131 920.525 569.923 930.412 568.972C932.94 564.588 935.156 558.333 934.587 553.133C933.331 541.644 935.626 532.476 939.832 522.091C933.714 519.945 927.467 518.154 920.96 518.234Z" fill="#905338"/>
<path d="M916.304 533.084C911.649 532.171 906.929 531.655 902.2 531.546C900.42 531.505 898.21 531.831 897.61 533.665C897.198 534.924 897.849 536.376 898.851 537.143C899.852 537.912 901.118 538.129 902.34 538.2C907.183 538.485 912.102 536.738 915.868 533.397C913.211 538.394 912.017 544.306 912.504 550.062C912.621 551.457 913.096 553.151 914.359 553.384C915.325 553.564 916.195 552.742 916.814 551.911C920.701 546.693 920.697 538.47 916.304 533.084Z" stroke="#BD8168" stroke-miterlimit="10"/>
<path d="M1040.22 539.089C1047.81 548.515 1050.44 561.368 1054.46 573.141C1057.58 582.263 1062.02 592.195 1066.08 600.863C1066.9 602.618 1067.89 604.534 1069.6 605.124C1071.36 605.726 1073.21 604.717 1074.77 603.65C1078.05 601.403 1080.94 597.169 1081.76 593.028C1083.35 585.068 1075.35 578.264 1075.22 570.119C1075.12 563.84 1079.7 557.345 1076.87 551.781C1076.56 548.843 1074.16 546.698 1071.7 545.456C1069.25 544.215 1066.53 543.518 1064.33 541.799C1059.97 538.396 1058.67 531.916 1055.18 527.719C1050.11 531.409 1045.04 535.099 1040.22 539.089Z" fill="#905338"/>
<path d="M1051.27 560.627C1049.12 567.551 1048.88 575.169 1050.58 582.24C1050.9 583.562 1051.3 584.902 1052.11 585.941C1052.92 586.981 1054.23 587.658 1055.44 587.3C1057.36 586.728 1057.97 584.081 1058 581.898C1058.11 575.042 1055.55 565.421 1051.48 560.199C1053.57 564.092 1056.91 570.131 1060.47 572.394C1061.52 573.057 1062.85 573.632 1063.89 572.964C1064.74 572.417 1065.06 571.176 1064.87 570.116C1064.67 569.055 1064.06 568.145 1063.4 567.333C1060.31 563.484 1055.85 560.995 1051.27 560.627Z" stroke="#BD8168" stroke-miterlimit="10"/>
<path d="M1035.55 321.688C1044.1 339.762 1062.59 352.525 1065.01 372.701C1066.9 388.474 1060.03 398.137 1049.68 409.31C1039.33 420.484 1024.97 433.739 1016.32 446.919C1030.6 457.517 1055.74 513.039 1075.68 541.672C1066.16 553.023 1052.83 564.48 1035.83 564.48C1024.42 538.905 1002.12 488.191 990.71 462.616C987.793 456.079 984.824 449.332 984.384 442.075C983.875 433.65 986.009 425.066 989.716 417.66C1002.16 392.802 1006.66 385.608 1012.98 370.41C1011.92 362.775 1006.32 360.545 1001.99 351.381C1008.88 344.783 1027.79 326.278 1035.55 321.688Z" fill="#A7C2FF"/>
<path d="M1024.77 364.325C964.098 386.759 948.903 387.75 940.617 405.128C931.815 423.588 916.266 490.974 905.031 523.548C918.64 535.713 929.94 539.676 947.44 537.893C955.368 502.871 952.894 477.257 963.546 430.198C982.414 423.625 1002.49 418.376 1021.36 411.803C1031.13 408.4 1041.85 404.171 1046.68 394.274C1050.06 387.356 1049.66 378.418 1045.67 371.895C1041.69 365.371 1034.11 360.87 1024.77 364.325Z" fill="#A7C2FF"/>
<path d="M1027.02 336.77C1030.01 344.533 1035.7 350.592 1040.27 357.377C1044.83 364.164 1048.42 372.766 1046.26 380.852C1044.9 385.914 1041.5 389.961 1038.2 393.81C1024.74 409.516 1011.29 425.221 997.835 440.928C999.909 441.273 1001.99 441.619 1004.06 441.964C1002.5 442.325 1001.58 444.236 1001.64 445.976C1001.7 447.716 1002.48 449.317 1003.24 450.844C1021.14 486.61 1039.04 522.378 1056.94 558.145" stroke="#889ED1" stroke-miterlimit="10"/>
<path d="M986.715 425.17C997.235 408.141 1006.7 390.333 1014.49 371.817C1011.83 366.705 1009.17 361.591 1006.51 356.479" stroke="#889ED1" stroke-miterlimit="10"/>
<path d="M1000.81 401.293C994.07 405.873 986.061 407.468 978.398 409.703C970.736 411.938 962.837 415.202 957.897 421.986C955.026 425.93 953.392 430.755 951.834 435.501C941.082 468.245 931.724 501.536 923.801 535.232" stroke="#889ED1" stroke-miterlimit="10"/>
<path d="M1018.1 344.903C1021.39 351.768 1025.24 359.188 1031.88 361.862C1035.26 363.221 1039.18 363.107 1042.34 361.226" stroke="#889ED1" stroke-miterlimit="10"/>
<path d="M1037.34 331.54C1041.62 341.262 1048.85 349.398 1057.61 354.358" stroke="#889ED1" stroke-miterlimit="10"/>
<path d="M982.863 229.904L986.203 242.572L989.688 255.712L1004.7 251.135L1000.52 235.305L997.85 225.171L996.401 225.624C996.401 225.624 996.401 225.624 996.389 225.626L982.863 229.904Z" fill="#F58556"/>
<path opacity="0.5412" d="M985.415 239.368L987.592 247.617C989.094 248.629 991.064 248.568 992.639 247.745C994.375 246.828 995.688 245.124 996.673 243.282C998.497 239.891 999.364 236.065 999.729 232.102L997.062 221.967L995.613 222.421C995.613 222.421 995.613 222.421 995.6 222.422C990.071 226.318 986.702 232.301 985.498 238.868C985.471 239.034 985.443 239.201 985.415 239.368Z" fill="#F58556"/>
<path d="M962.736 202.167C961.747 209.167 961.824 211.179 958.848 215.325C955.873 219.472 952.009 222.748 948.851 226.728C945.694 230.709 943.186 235.811 943.2 241.34C949.05 245.642 955.545 248.892 962.345 250.918C967.347 252.407 972.672 253.23 977.701 251.853C983.359 250.304 988.121 246.11 992.065 241.238C988.95 231.243 984.878 221.605 979.938 212.532C978.152 209.252 976.226 206.011 973.699 203.375C971.171 200.741 968.139 200.245 962.736 202.167Z" fill="#383838"/>
<path d="M962.256 211.184C961.007 214.178 958.12 215.892 955.345 217.164C952.569 218.435 949.584 219.568 947.586 222.031C945.888 224.125 945.11 227.074 945.527 229.837C945.944 232.599 947.549 235.117 949.773 236.502" stroke="#383838" stroke-miterlimit="10"/>
<path d="M966.276 207.144C965.842 214.876 967.023 224.214 971.568 234.101C978.578 249.35 993.319 243.984 996.831 240.899C1003.14 235.363 1007.88 227.506 1009.26 218.802C1010.64 210.1 1008.42 200.621 1002.79 194.298C997.166 187.974 988.105 185.301 980.545 188.431C972.986 191.563 966.795 197.924 966.276 207.144Z" fill="#F58556"/>
<path d="M974.69 199.816C979.15 205.691 986.482 208.79 993.396 207.717C991.895 210.34 992.446 213.789 993.545 216.64C994.644 219.491 996.246 222.152 996.797 225.187C997.359 228.286 996.773 231.498 997.025 234.646C997.449 239.918 1000.39 244.871 1004.62 246.899C1012.16 247.45 1019.85 243.608 1024.42 237.016C1025.98 234.754 1027.24 232.153 1029.31 230.438C1031.49 228.628 1034.29 228.044 1036.87 227.03C1039.44 226.015 1042.1 224.228 1042.58 221.471C1040.61 214.86 1034.35 211.005 1028.31 208.835C1022.28 206.666 1015.76 205.434 1010.64 201.315C1005.45 197.137 1003.52 192.121 998.094 188.322C988.412 181.545 977.339 185.603 973.089 191.939C960.155 192.633 959.863 211.377 967.088 219.85C965.773 212.476 968.947 204.326 974.69 199.816Z" fill="#383838"/>
<path d="M985.99 193.212C988.006 191.736 990.001 190.169 991.597 188.169C993.192 186.169 994.375 183.679 994.506 181.028C994.638 178.378 993.58 175.583 991.526 174.169C989.472 172.756 986.445 173.069 984.939 175.152C981.43 174.436 977.599 176.425 975.889 179.852C974.179 183.28 974.721 187.88 977.168 190.722C979.615 193.563 983.937 194.714 985.99 193.212Z" fill="#383838"/>
<path d="M1003.24 195.373C1008.83 200.918 1015.92 204.623 1023.38 205.893C1027.92 206.667 1032.59 206.558 1037.07 207.73C1041.55 208.9 1046.02 211.704 1047.75 216.371" stroke="#383838" stroke-miterlimit="10"/>
<path d="M974.769 220.815C974.44 219.914 973.505 219.474 972.681 219.835C971.858 220.194 971.456 221.217 971.786 222.118C972.114 223.019 973.049 223.458 973.873 223.098C974.697 222.737 975.097 221.716 974.769 220.815Z" fill="#383838"/>
<path d="M986.807 218.85C986.479 217.948 985.544 217.509 984.72 217.87C983.896 218.229 983.495 219.252 983.824 220.153C984.153 221.054 985.088 221.493 985.911 221.133C986.735 220.773 987.137 219.751 986.807 218.85Z" fill="#383838"/>
<path d="M987.178 211.311C985.537 211.33 983.897 211.348 982.256 211.367C981.833 211.373 981.364 211.359 981.052 211.045C980.729 210.719 980.69 210.148 980.869 209.709C981.047 209.269 981.401 208.943 981.776 208.69C983.338 207.637 985.469 207.705 986.972 208.853C987.331 209.128 987.67 209.481 987.797 209.94C987.926 210.399 987.849 211.304 987.178 211.311Z" fill="#383838"/>
<path d="M969.749 213.822C971.347 213.414 972.944 213.008 974.542 212.6C974.955 212.495 975.408 212.361 975.642 211.975C975.885 211.575 975.799 211.009 975.53 210.629C975.261 210.249 974.847 210.024 974.429 209.875C972.684 209.257 970.627 209.875 969.416 211.38C969.126 211.739 968.874 212.17 968.85 212.649C968.826 213.128 969.096 213.988 969.749 213.822Z" fill="#383838"/>
<path d="M986.3 230.197C984.11 233.79 980.651 235.555 977.174 233.8" stroke="#383838" stroke-width="0.7" stroke-miterlimit="10"/>
<path d="M1002.72 222.06C1002.62 218.833 1000.15 216.301 997.202 216.406C994.252 216.511 991.938 219.212 992.034 222.439C992.13 225.666 994.598 228.197 997.548 228.092C1000.5 227.987 1002.81 225.287 1002.72 222.06Z" fill="#F58556"/>
<path d="M999.668 219.384C997.152 220.202 995.235 222.868 995.101 225.736" stroke="#C7512E" stroke-width="0.7" stroke-miterlimit="10"/>
<path d="M999.576 223.013C998.446 222.476 997.157 222.345 995.955 222.646" stroke="#C7512E" stroke-width="0.7" stroke-miterlimit="10"/>
<path d="M978.015 212.812C977.263 216.351 976.512 219.89 975.76 223.43C975.548 224.43 975.338 225.503 975.672 226.463C976.081 227.645 977.247 228.356 978.398 228.474C979.548 228.591 980.691 228.218 981.776 227.788" stroke="#C7512E" stroke-width="0.7" stroke-miterlimit="10"/>
<path d="M1082.89 316.413C1088.33 319.314 1093.66 323.198 1096.28 329.569C1092.87 333.963 1089.51 335.573 1084.04 336.497C1079.78 334.074 1074.56 331.423 1072.8 326.531C1072.2 324.866 1071.87 323.041 1071.83 321.6C1071.73 317.956 1077.45 313.513 1082.89 316.413Z" fill="#F58556"/>
<path d="M1091.21 322.199C1095.02 326.235 1098.2 330.983 1100.57 336.175C1101.14 337.412 1101.67 338.73 1101.63 340.112C1101.61 340.928 1101.26 341.862 1100.54 342.044C1100.07 342.162 1099.58 341.918 1099.24 341.552C1098.89 341.186 1098.67 340.709 1098.45 340.245C1095.84 334.783 1092.39 329.8 1088.3 325.562C1088.95 324.424 1089.85 323.451 1091.21 322.199Z" fill="#F58556"/>
<path d="M1091.71 327.926C1094.61 332.787 1096.75 338.188 1098.01 343.828C1098.3 345.172 1098.55 346.585 1098.24 347.924C1098.05 348.714 1097.52 349.541 1096.78 349.543C1096.3 349.544 1095.87 349.188 1095.61 348.748C1095.35 348.307 1095.23 347.789 1095.11 347.283C1093.67 341.324 1091.32 335.627 1088.19 330.503C1089.06 329.548 1090.13 328.817 1091.71 327.926Z" fill="#F58556"/>
<path d="M1088.08 327.97C1090.98 332.831 1093.12 338.232 1094.38 343.871C1094.68 345.214 1094.93 346.628 1094.61 347.967C1094.42 348.756 1093.9 349.584 1093.15 349.586C1092.67 349.587 1092.24 349.23 1091.98 348.791C1091.72 348.35 1091.6 347.832 1091.48 347.326C1090.04 341.365 1087.69 335.67 1084.56 330.546C1085.43 329.592 1086.5 328.861 1088.08 327.97Z" fill="#F58556"/>
<path d="M1084.69 327.864C1086.79 332.584 1088.15 337.696 1088.7 342.912C1088.83 344.155 1088.91 345.455 1088.48 346.616C1088.23 347.301 1087.68 347.979 1087.01 347.887C1086.58 347.829 1086.23 347.456 1086.04 347.029C1085.85 346.602 1085.8 346.121 1085.74 345.653C1085.07 340.127 1083.55 334.725 1081.27 329.74C1082.15 328.993 1083.18 328.469 1084.69 327.864Z" fill="#F58556"/>
<path d="M1084.38 317.14C1086.85 318.652 1089.53 319.7 1092.1 320.993C1094.56 322.233 1096.97 323.745 1098.86 325.76C1099.01 325.927 1099.1 326.181 1099.02 326.407C1098.71 327.362 1097.67 327.957 1096.72 327.906C1095.64 327.848 1094.67 327.186 1093.81 326.483C1092.94 325.779 1092.09 324.998 1091.07 324.631C1090.1 324.284 1089.05 324.336 1088.06 324.088C1085.24 323.383 1083.26 319.939 1084.38 317.14Z" fill="#F58556"/>
<path d="M1005.53 257.707C1019.09 278.916 1041.02 293.475 1064.48 296.841C1070.89 297.762 1078.3 298.414 1082.04 304.184C1086.27 310.714 1083.2 319.758 1079.54 326.689C1076.18 333.05 1071.34 339.823 1064.62 339.956C1060.85 340.03 1057.36 337.919 1054.09 335.868C1037.79 325.671 1021.27 315.288 1008.12 300.642C1003.09 295.045 998.465 288.578 996.87 280.928C995.275 273.276 997.433 264.248 1005.53 257.707Z" fill="#6F65B8"/>
<path d="M982.503 261.202C981.151 263.637 978.568 264.974 976.001 265.451C973.432 265.927 970.806 265.677 968.202 265.679C965.597 265.68 962.896 265.968 960.639 267.391C958.383 268.814 956.69 271.627 957.117 274.438C957.544 277.249 960.641 279.403 962.931 278.048" stroke="#6F65B8" stroke-miterlimit="10"/>
<path d="M1007.33 253.113C1007.51 248.703 1003.7 244.955 999.693 244.459C995.683 243.963 991.731 246.039 988.616 248.844C979.446 257.102 976.309 270.893 975.128 283.82C974.165 294.352 974.234 305.453 978.573 314.914C980.515 319.147 983.338 323.189 983.474 327.923C983.586 331.78 981.887 335.833 983.317 339.36C984.783 342.975 989.03 344.558 990.339 348.245C991.457 351.395 990.041 354.91 990.177 358.285C990.41 364 995.254 368.508 1000.38 369.649C1005.5 370.791 1010.79 369.303 1015.76 367.503C1019.18 366.262 1022.74 364.736 1025 361.666C1026.85 359.174 1027.66 355.893 1029.61 353.508C1032.87 349.536 1038.35 349.04 1042.55 346.342C1048.55 342.499 1051.38 334.298 1050.88 326.718C1050.38 319.139 1047.06 312.111 1043.14 305.841C1039.21 299.572 1034.52 293.873 1031.01 287.314C1025.14 276.343 1024.12 255.191 1007.33 253.113Z" fill="#8075D4"/>
<path d="M999.232 250.59C1003.87 245.228 1012.01 244.006 1017.8 247.804C1020.4 249.512 1022.46 252.034 1024.79 254.16C1029.32 258.293 1034.98 261.018 1038.71 266.028C1041.69 270.044 1043.15 275.72 1041.43 280.542C1039.71 285.364 1034.27 288.552 1029.94 286.468C1027.86 285.469 1026.32 283.512 1024.85 281.617C1017.25 271.812 1009.66 262.005 999.232 250.59Z" fill="#8075D4"/>
<path d="M934.999 340.199C929.512 337.411 923.393 335.333 917.221 337.125C916.253 342.792 917.227 346.656 920.019 351.88C924.428 353.973 929.602 356.735 934.184 355.147C935.744 354.606 937.244 353.731 938.29 352.855C940.938 350.641 940.486 342.986 934.999 340.199Z" fill="#F58556"/>
<path d="M925.648 336.785C920.38 336.093 915.004 336.384 909.824 337.645C908.59 337.945 907.32 338.326 906.364 339.23C905.799 339.763 905.354 340.644 905.683 341.376C905.894 341.846 906.376 342.111 906.853 342.171C907.329 342.23 907.807 342.118 908.275 342.015C913.797 340.787 919.505 340.57 925.092 341.373C925.49 340.101 925.615 338.727 925.648 336.785Z" fill="#F58556"/>
<path d="M921.269 339.971C915.992 340.575 910.809 342.164 906.014 344.65C904.872 345.242 903.711 345.923 902.961 347.037C902.519 347.695 902.264 348.661 902.733 349.295C903.033 349.703 903.559 349.844 904.034 349.787C904.51 349.731 904.954 349.504 905.39 349.288C910.525 346.751 916.046 345.153 921.657 344.58C921.788 343.242 921.632 341.872 921.269 339.971Z" fill="#F58556"/>
<path d="M923.526 343.079C918.249 343.683 913.066 345.272 908.271 347.759C907.128 348.35 905.967 349.03 905.218 350.145C904.776 350.803 904.52 351.769 904.99 352.404C905.29 352.811 905.816 352.952 906.291 352.896C906.767 352.838 907.211 352.612 907.646 352.397C912.782 349.859 918.303 348.262 923.914 347.688C924.044 346.35 923.888 344.981 923.526 343.079Z" fill="#F58556"/>
<path d="M925.738 345.89C921.065 347.084 916.579 349.15 912.532 351.974C911.568 352.645 910.597 353.4 910.039 354.492C909.711 355.136 909.581 356.035 910.067 356.547C910.379 356.876 910.864 356.938 911.286 356.827C911.707 356.717 912.082 356.46 912.451 356.212C916.797 353.3 921.588 351.185 926.563 349.977C926.54 348.761 926.259 347.551 925.738 345.89Z" fill="#F58556"/>
<path d="M933.542 339.392C930.913 338.249 928.48 336.633 925.94 335.268C923.51 333.96 920.915 332.865 918.297 332.537C918.081 332.509 917.846 332.599 917.732 332.802C917.25 333.667 917.483 334.926 918.124 335.706C918.844 336.584 919.923 336.987 920.968 337.279C922.013 337.57 923.102 337.797 924.009 338.435C924.865 339.039 925.489 339.963 926.292 340.649C928.57 342.595 932.261 342.105 933.542 339.392Z" fill="#F58556"/>
<path d="M991.49 253.456C986.185 252.993 981.572 257.406 978.44 262.11C971.848 272.011 968.807 284.12 964.311 295.336C959.814 306.553 952.994 317.74 942.449 321.857C939.824 322.882 937.052 323.428 934.472 324.582C931.892 325.736 929.419 327.649 928.371 330.475C926.887 334.477 928.618 338.961 930.322 342.857C932.825 348.581 936.165 355.022 941.896 356.009C945.084 356.558 948.272 355.21 951.213 353.754C964.75 347.051 977.2 337.309 986.293 324.455C995.387 311.601 1000.96 295.515 1000.58 279.266C1000.35 269.635 997.716 259.49 991.49 253.456Z" fill="#8075D4"/>
<path d="M994.088 247.55C999.426 246.791 1004.18 251.041 1007.98 255.213C1018.26 266.498 1027.11 279.334 1034.2 293.244" stroke="#6F65B8" stroke-miterlimit="10"/>
<path d="M977.818 334.616C988.797 321.69 995.381 304.394 996.033 286.764" stroke="#6F65B8" stroke-miterlimit="10"/>
</svg>
