<svg width="952" height="957" viewBox="0 0 952 957" fill="none" xmlns="http://www.w3.org/2000/svg">
<g clip-path="url(#clip0_418_11717)">
<path d="M384.021 67.1203C383.731 66.7642 383.598 66.3106 383.651 65.8587C383.704 65.4072 383.939 64.9945 384.303 64.7118L416.889 39.4432C417.253 39.1604 417.718 39.0306 418.181 39.0824C418.644 39.1342 419.066 39.3632 419.356 39.7193C419.645 40.0752 419.778 40.5291 419.725 40.9806C419.672 41.4324 419.438 41.8449 419.073 42.1278L386.487 67.3964C386.123 67.679 385.658 67.8089 385.196 67.7569C384.733 67.7054 384.31 67.4761 384.021 67.1203Z" fill="#CE9C5C"/>
<path d="M377.07 53.9586C376.817 53.6547 376.684 53.2719 376.697 52.8799C376.711 52.4291 376.907 52.0021 377.242 51.6911C377.577 51.3805 378.023 51.2111 378.485 51.2194L424.742 52.401C425.208 52.4167 425.649 52.6128 425.967 52.9457C426.285 53.2789 426.455 53.7217 426.439 54.1771C426.423 54.6321 426.222 55.0625 425.881 55.3734C425.54 55.6839 425.086 55.8496 424.62 55.8339L378.397 54.626C378.14 54.614 377.889 54.548 377.659 54.4329C377.43 54.318 377.229 54.1561 377.07 53.9586Z" fill="#CE9C5C"/>
<path d="M413.254 70.3927L387.372 38.5802C387.082 38.2241 386.949 37.7705 387.002 37.3187C387.055 36.8671 387.29 36.4544 387.655 36.1715C388.019 35.8889 388.484 35.7592 388.947 35.8107C389.409 35.8628 389.832 36.0918 390.121 36.4479L416.004 68.2604C416.294 68.6165 416.427 69.0701 416.374 69.5217C416.321 69.9732 416.086 70.3862 415.721 70.6688C415.357 70.9517 414.892 71.0811 414.429 71.0296C413.966 70.9778 413.544 70.7488 413.254 70.3927Z" fill="#CE9C5C"/>
<path d="M-125.076 535.774C-161.927 451.774 -154.625 291.733 -95.4329 256.288C-36.241 220.843 58.7204 268.991 95.5712 352.992C132.422 436.992 134.602 531.243 75.4102 566.688C16.2182 602.132 -88.2251 619.775 -125.076 535.774Z" fill="#D6F9F7" fill-opacity="0.66"/>
<path d="M-107.722 321.342C-25.7623 320.579 41.8147 424.52 43.2153 553.5C44.6159 682.48 -11.2261 823.283 -93.186 824.046C-175.146 824.809 -235.062 632.228 -236.462 503.248C-237.863 374.268 -189.682 322.105 -107.722 321.342Z" fill="#33A81F" fill-opacity="0.04"/>
<path d="M-20.1968 543.373C61.7631 542.61 129.34 646.551 130.741 775.531C132.141 904.511 76.2993 1045.31 -5.66059 1046.08C-87.6205 1046.84 -147.536 854.259 -148.937 725.279C-150.338 596.298 -102.157 544.135 -20.1968 543.373Z" fill="#33A81F" fill-opacity="0.16"/>
<path d="M317.511 871.015C316.731 869.679 315.68 868.296 314.049 867.605C312.943 867.159 311.077 866.945 310.606 868.22C309.192 871.107 309.155 873.074 313.578 872.766C315.154 872.828 318.725 873.35 317.511 871.015ZM311.512 871.076V871.046C311.514 871.046 311.516 871.046 311.519 871.047C311.521 871.047 311.523 871.048 311.524 871.05C311.526 871.052 311.528 871.054 311.528 871.055C311.529 871.057 311.53 871.059 311.53 871.061L311.512 871.076ZM311.512 871.076C311.512 871.08 311.51 871.084 311.506 871.088C311.503 871.09 311.498 871.092 311.494 871.092C311.475 871.061 311.494 871.061 311.512 871.076ZM311.62 871.169H311.602C311.602 871.169 311.53 871.153 311.512 871.107V871.061C311.524 871.042 311.53 871.021 311.53 871C312.055 871.076 312.635 871 312.962 870.784C313.288 870.57 313.107 869.449 312.327 869.463H312.001C312.092 869.233 312.182 869.003 312.291 868.758H312.527C314.031 868.957 314.955 870.232 315.662 871.276L311.62 871.169ZM316.387 871.322C316.423 871.322 316.405 871.337 316.387 871.322V871.322Z" fill="#452D34"/>
<path d="M306.754 864.843L306.541 865.068C306.32 865.217 306.141 865.438 306.028 865.705C305.071 867.429 306.843 869.708 308.437 868.989C311.129 867.8 309.269 863.096 306.754 864.843Z" fill="#452D34"/>
<path d="M312.754 863.832L312.541 864.012C312.316 864.128 312.136 864.306 312.028 864.521C311.071 865.901 312.843 867.724 314.437 867.149C317.129 866.196 315.269 862.435 312.754 863.832Z" fill="#452D34"/>
<path d="M326.282 871.897C325.698 871.15 323.473 868.27 321.959 867.889C318.037 854.687 299.759 851.894 291.624 868.428C291.541 868.517 291.45 868.597 291.35 868.67C289.399 869.762 285.641 869.728 284.455 872.278C283.744 873.459 284.346 875.366 285.696 875.678C285.568 878.176 287.283 879.668 289.399 880.153C289.508 880.952 289.617 881.715 289.782 882.444C287.009 881.941 283.342 883.884 284.163 886.434C284.182 886.452 284.182 886.468 284.163 886.504C284.169 886.534 284.162 886.565 284.145 886.59C283.014 888.1 284.528 890.251 286.517 890.684C289.125 891.465 292.992 890.702 294.816 891.483L295.491 892.038H295.509L296.057 892.436C294.78 892.939 293.685 893.946 293.649 895.212C293.813 895.907 294.98 896.079 295.327 895.42C295.673 894.761 295.655 894.796 296.148 894.363C296.348 894.237 296.555 894.121 296.768 894.015C296.763 894.015 296.758 894.017 296.755 894.02C296.752 894.023 296.75 894.027 296.75 894.032C296.75 894.027 296.752 894.023 296.755 894.02C296.758 894.017 296.763 894.015 296.768 894.015H296.786C296.896 893.98 296.841 894.015 296.786 894.032C297.023 893.947 297.267 893.883 297.516 893.842C296.914 894.605 296.567 895.611 297.114 896.374C297.662 897.137 298.793 896.34 298.683 895.507C298.72 895.403 298.738 895.3 298.774 895.194C298.824 895.123 298.867 895.047 298.902 894.97C298.957 895.178 299.012 895.403 299.048 895.629C299.106 896.107 299.1 896.591 299.03 897.069C298.72 897.832 300.252 898.787 300.799 897.485C300.969 896.454 300.906 895.402 300.617 894.397C301.402 894.571 302.201 894.675 303.006 894.709C302.182 895.604 301.751 896.765 301.802 897.954C301.839 898.404 302.204 898.839 302.714 898.821C303.572 898.803 303.681 898.006 303.645 897.363C303.686 897.121 303.753 896.882 303.845 896.652C303.964 896.41 304.105 896.178 304.265 895.959H304.283C304.447 895.767 304.63 895.593 304.83 895.438L305.104 895.264C304.819 896.276 304.77 897.336 304.958 898.369C305.305 899.532 307.129 898.907 306.709 897.796C306.67 897.556 306.658 897.312 306.673 897.069C306.667 896.842 306.679 896.616 306.709 896.392V896.356C306.761 896.082 306.828 895.81 306.91 895.542L307.22 895.472C307.726 895.746 308.128 896.165 308.369 896.67C308.479 897.259 308.916 897.884 309.628 897.676C309.857 897.611 310.051 897.465 310.169 897.268C310.288 897.071 310.323 896.837 310.266 896.618C309.981 895.571 309.29 894.667 308.333 894.085C314.17 892.42 319.606 887.545 321.722 880.015L321.776 879.86C323.4 880.085 325.023 879.097 325.589 877.639C326.114 877.587 326.607 877.375 326.993 877.032C328.598 875.54 327.34 873.319 326.282 871.897ZM286.188 874.03L286.152 873.996L286.188 874.03ZM285.969 873.649C285.988 873.666 285.988 873.683 285.988 873.718C285.99 873.693 285.984 873.669 285.969 873.649ZM286.261 875.696L286.535 875.661C286.494 875.684 286.449 875.7 286.402 875.706C286.355 875.712 286.307 875.707 286.261 875.696ZM285.659 888.152C285.63 888.085 285.612 888.015 285.604 887.944C285.604 887.892 285.586 887.856 285.586 887.804V887.77C285.604 887.738 285.616 887.702 285.623 887.666C285.951 887.128 286.133 886.468 285.878 885.879C285.86 885.861 285.86 885.809 285.86 885.791V885.671L285.914 885.532C285.951 885.48 286.06 885.272 286.097 885.238C286.133 885.202 286.097 885.22 286.115 885.202C286.23 885.058 286.365 884.931 286.517 884.821C286.498 884.821 286.498 884.803 286.553 884.786H286.589C286.707 884.711 286.829 884.641 286.954 884.577L287.191 884.457C288.083 884.089 289.09 884.064 290 884.387C290.106 884.484 290.23 884.561 290.365 884.613C290.903 886.327 291.735 887.944 292.828 889.4C289.891 889.14 286.644 889.748 285.659 888.152ZM296.111 894.397L296.148 894.363C296.129 894.379 296.129 894.397 296.111 894.397ZM312.674 890.095C312.218 890.511 309.664 891.933 309.135 892.072C306.965 892.991 304.32 893.269 302.495 893.027C301.657 892.957 299.887 892.436 299.541 892.28C298.738 892.003 297.206 891.084 296.896 890.822L296.75 890.718C296.598 890.573 296.433 890.439 296.257 890.321C295.659 889.801 295.104 889.238 294.597 888.637C292.682 886.243 291.752 883.798 291.277 880.778C291.249 880.624 291.237 880.467 291.241 880.311C292.428 880.281 293.584 879.938 294.579 879.321C295.509 880.275 297.552 880.327 298.793 879.582C299.593 879.229 300.312 878.728 300.907 878.109C301.503 877.49 301.962 876.763 302.258 875.973C303.681 871.983 299.96 871.272 300.544 873.579C300.595 873.632 300.627 873.699 300.635 873.77C300.674 873.859 300.704 873.953 300.726 874.048C300.817 875.452 300.142 876.528 298.902 877.517C298.583 877.741 298.241 877.933 297.881 878.09C297.564 878.216 297.234 878.31 296.896 878.368H296.367L296.148 878.298L296.057 878.246L295.983 878.194L295.929 878.124V878.072C295.929 878.054 295.947 878.054 295.947 878.038C296.257 876.98 294.579 876.511 294.178 877.517H294.141L294.013 877.639C294.013 877.657 293.977 877.673 293.959 877.691C293.43 878.072 292.244 878.368 291.223 878.541H291.077C290.755 878.558 290.432 878.558 290.11 878.541L289.471 878.402L289.271 878.332C288.705 878.142 288.158 877.605 288.012 877.431C287.866 877.257 287.848 877.187 287.757 877.066C287.697 876.877 287.649 876.687 287.611 876.494C287.611 875.28 287.629 873.666 286.133 873.944C286.124 873.944 286.114 873.939 286.108 873.934C286.101 873.928 286.097 873.919 286.097 873.908L286.06 873.84C286.056 873.84 286.051 873.837 286.047 873.834C286.044 873.831 286.042 873.827 286.042 873.822C286.023 873.745 285.999 873.671 285.969 873.597C285.966 873.527 285.972 873.457 285.988 873.389C286.009 873.271 286.04 873.154 286.079 873.041C286.042 873.075 286.06 873.075 286.079 873.041C286.097 873.007 286.097 873.007 286.097 872.989C286.097 872.972 286.261 872.73 286.298 872.694L286.334 872.642C286.493 872.448 286.677 872.272 286.881 872.122C286.845 872.139 286.827 872.139 286.827 872.157C286.974 872.063 287.126 871.976 287.283 871.897L287.501 871.809C294.433 869.92 292.025 869.988 295.856 864.957C296.865 863.728 298.029 862.62 299.322 861.661C299.997 861.14 301.784 860.048 302.988 859.614C305.56 858.452 309.901 858.312 312.455 859.458C313.38 859.858 314.261 860.346 315.082 860.915C315.945 861.569 316.728 862.315 317.417 863.135C319.277 865.356 320.353 868.444 320.682 870.856C321.211 874.829 320.627 878.384 319.022 882.08C317.763 884.925 315.538 888.012 312.674 890.095ZM295.911 878.054C295.892 878.038 295.911 878.038 295.911 878.054V878.054ZM295.911 878.142V878.16V878.142ZM295.892 878.09V878.054C295.893 878.068 295.9 878.081 295.911 878.09H295.892ZM300.635 873.736V873.7C300.639 873.712 300.639 873.724 300.635 873.736ZM325.899 875.558C325.862 875.644 325.881 875.574 325.899 875.522C325.872 875.577 325.842 875.629 325.807 875.678C325.771 875.713 325.735 875.765 325.698 875.782L325.516 875.869H325.406C324.549 875.296 323.837 876.269 323.947 876.666C323.932 876.834 323.889 876.999 323.819 877.153C323.69 877.398 323.51 877.616 323.29 877.795L322.962 877.986C322.809 878.043 322.65 878.084 322.488 878.106H322.196C322.755 875.563 322.859 872.948 322.506 870.369C324.093 871.757 325.516 873.562 325.935 875.036V875.348C325.917 875.384 325.917 875.47 325.899 875.506V875.558Z" fill="#452D34"/>
<path d="M313.386 886.771C316.409 883.174 316.563 878.625 313.731 876.611C310.898 874.597 306.152 875.881 303.13 879.479C300.107 883.076 299.953 887.625 302.785 889.639C305.617 891.653 310.363 890.369 313.386 886.771Z" fill="#D13535"/>
<path d="M805.247 123.025C806.027 121.593 807.078 120.112 808.709 119.371C809.814 118.894 811.681 118.665 812.152 120.03C813.566 123.124 813.602 125.231 809.18 124.901C807.603 124.967 804.033 125.526 805.247 123.025ZM811.246 123.09V123.058C811.244 123.058 811.241 123.058 811.239 123.059C811.237 123.059 811.235 123.061 811.233 123.062C811.232 123.065 811.23 123.066 811.229 123.068C811.229 123.071 811.228 123.072 811.228 123.075L811.246 123.09ZM811.246 123.09C811.246 123.094 811.248 123.099 811.252 123.103C811.255 123.106 811.259 123.107 811.264 123.107C811.282 123.075 811.264 123.075 811.246 123.09ZM811.137 123.19H811.156C811.156 123.19 811.228 123.173 811.246 123.124V123.075C811.234 123.054 811.228 123.031 811.228 123.009C810.702 123.09 810.123 123.009 809.796 122.778C809.47 122.548 809.651 121.347 810.431 121.362H810.757C810.666 121.116 810.576 120.87 810.467 120.606H810.231C808.727 120.82 807.803 122.186 807.096 123.304L811.137 123.19ZM806.371 123.354C806.335 123.354 806.353 123.37 806.371 123.354V123.354Z" fill="#452D34"/>
<path d="M816.004 116.412L816.216 116.653C816.438 116.813 816.617 117.05 816.73 117.336C817.687 119.183 815.915 121.624 814.321 120.854C811.629 119.58 813.489 114.541 816.004 116.412Z" fill="#452D34"/>
<path d="M808.004 116.33L808.216 116.522C808.442 116.646 808.622 116.837 808.73 117.067C809.687 118.546 807.915 120.499 806.321 119.883C803.629 118.862 805.489 114.833 808.004 116.33Z" fill="#452D34"/>
<path d="M796.476 123.97C797.06 123.17 799.285 120.084 800.799 119.675C804.721 105.531 822.998 102.539 831.134 120.253C831.217 120.348 831.308 120.434 831.408 120.512C833.359 121.683 837.117 121.646 838.303 124.379C839.014 125.643 838.412 127.687 837.062 128.021C837.19 130.698 835.475 132.296 833.359 132.816C833.25 133.672 833.14 134.489 832.976 135.27C835.749 134.731 839.415 136.813 838.594 139.546C838.576 139.565 838.576 139.582 838.594 139.62C838.589 139.652 838.595 139.686 838.613 139.713C839.744 141.33 838.23 143.635 836.241 144.099C833.633 144.936 829.766 144.118 827.942 144.955L827.267 145.55H827.249L826.701 145.976C827.978 146.515 829.073 147.594 829.109 148.95C828.945 149.695 827.778 149.879 827.431 149.173C827.084 148.467 827.103 148.505 826.61 148.04C826.41 147.905 826.203 147.781 825.99 147.668C825.995 147.668 825.999 147.67 826.003 147.673C826.006 147.676 826.008 147.681 826.008 147.686C826.008 147.681 826.006 147.676 826.003 147.673C825.999 147.67 825.995 147.668 825.99 147.668H825.972C825.862 147.63 825.917 147.668 825.972 147.686C825.735 147.595 825.491 147.527 825.242 147.482C825.844 148.3 826.191 149.378 825.643 150.196C825.096 151.013 823.965 150.159 824.075 149.267C824.038 149.155 824.02 149.044 823.983 148.931C823.934 148.855 823.891 148.774 823.856 148.691C823.801 148.914 823.746 149.155 823.71 149.397C823.652 149.909 823.658 150.428 823.728 150.94C824.038 151.758 822.506 152.78 821.959 151.385C821.789 150.282 821.851 149.154 822.141 148.077C821.356 148.263 820.556 148.375 819.751 148.411C820.576 149.37 821.007 150.614 820.955 151.888C820.919 152.37 820.554 152.836 820.043 152.817C819.186 152.798 819.077 151.944 819.113 151.255C819.072 150.996 819.005 150.74 818.912 150.493C818.793 150.234 818.653 149.986 818.493 149.75H818.475C818.311 149.545 818.128 149.359 817.927 149.192L817.654 149.006C817.938 150.091 817.988 151.226 817.8 152.333C817.453 153.579 815.629 152.909 816.049 151.719C816.088 151.462 816.1 151.201 816.085 150.94C816.091 150.697 816.079 150.455 816.049 150.215V150.177C815.997 149.882 815.93 149.591 815.848 149.303L815.538 149.229C815.032 149.523 814.63 149.971 814.389 150.512C814.279 151.144 813.841 151.813 813.13 151.591C812.901 151.521 812.707 151.365 812.588 151.153C812.469 150.942 812.435 150.692 812.492 150.456C812.777 149.335 813.468 148.367 814.425 147.743C808.588 145.959 803.152 140.735 801.036 132.668L800.982 132.501C799.358 132.743 797.735 131.684 797.169 130.122C796.644 130.066 796.151 129.839 795.765 129.471C794.159 127.873 795.418 125.493 796.476 123.97ZM836.57 126.255L836.606 126.219L836.57 126.255ZM836.789 125.847C836.77 125.866 836.77 125.883 836.77 125.921C836.768 125.894 836.774 125.869 836.789 125.847ZM836.497 128.04L836.223 128.003C836.264 128.027 836.309 128.045 836.356 128.051C836.403 128.057 836.451 128.053 836.497 128.04ZM837.099 141.386C837.128 141.314 837.146 141.239 837.153 141.163C837.153 141.107 837.172 141.069 837.172 141.014V140.977C837.154 140.942 837.142 140.904 837.135 140.866C836.807 140.288 836.624 139.582 836.88 138.951C836.898 138.932 836.898 138.876 836.898 138.857V138.728L836.843 138.579C836.807 138.523 836.697 138.3 836.661 138.264C836.624 138.225 836.661 138.245 836.643 138.225C836.528 138.071 836.393 137.934 836.241 137.817C836.26 137.817 836.26 137.798 836.205 137.78H836.168C836.051 137.699 835.929 137.624 835.804 137.556L835.566 137.427C834.675 137.033 833.668 137.006 832.757 137.352C832.652 137.456 832.528 137.538 832.392 137.594C831.855 139.431 831.023 141.163 829.93 142.723C832.867 142.445 836.114 143.096 837.099 141.386ZM826.647 148.077L826.61 148.04C826.628 148.058 826.628 148.077 826.647 148.077ZM810.084 143.468C810.54 143.913 813.093 145.437 813.622 145.586C815.793 146.571 818.438 146.868 820.262 146.609C821.101 146.534 822.871 145.976 823.217 145.809C824.02 145.512 825.552 144.527 825.862 144.247L826.008 144.136C826.16 143.98 826.325 143.837 826.501 143.71C827.099 143.153 827.654 142.55 828.161 141.906C830.076 139.34 831.006 136.721 831.48 133.486C831.509 133.32 831.521 133.152 831.517 132.985C830.329 132.953 829.174 132.586 828.179 131.924C827.249 132.947 825.206 133.002 823.965 132.204C823.164 131.825 822.445 131.289 821.85 130.626C821.255 129.963 820.796 129.183 820.499 128.337C819.077 124.062 822.798 123.3 822.214 125.772C822.163 125.829 822.131 125.901 822.123 125.977C822.084 126.072 822.054 126.173 822.032 126.274C821.94 127.779 822.615 128.932 823.856 129.991C824.175 130.232 824.517 130.437 824.877 130.605C825.194 130.741 825.524 130.841 825.862 130.903H826.391L826.61 130.828L826.701 130.772L826.774 130.717L826.829 130.642V130.586C826.829 130.567 826.811 130.567 826.811 130.55C826.501 129.416 828.179 128.913 828.58 129.991H828.617L828.744 130.122C828.744 130.141 828.781 130.158 828.799 130.178C829.328 130.586 830.514 130.903 831.535 131.089H831.681C832.003 131.106 832.326 131.106 832.648 131.089L833.286 130.939L833.487 130.865C834.052 130.661 834.6 130.085 834.746 129.899C834.892 129.713 834.91 129.638 835.001 129.508C835.06 129.306 835.109 129.102 835.147 128.896C835.147 127.595 835.129 125.866 836.624 126.163C836.634 126.163 836.643 126.158 836.65 126.152C836.657 126.146 836.661 126.136 836.661 126.125L836.697 126.052C836.702 126.052 836.707 126.049 836.71 126.045C836.714 126.042 836.716 126.037 836.716 126.033C836.735 125.95 836.759 125.87 836.789 125.791C836.792 125.716 836.785 125.641 836.77 125.568C836.749 125.443 836.718 125.317 836.679 125.196C836.716 125.233 836.697 125.233 836.679 125.196C836.661 125.159 836.661 125.159 836.661 125.14C836.661 125.121 836.497 124.862 836.46 124.824L836.424 124.768C836.265 124.56 836.081 124.372 835.877 124.212C835.913 124.229 835.931 124.229 835.931 124.248C835.784 124.148 835.632 124.054 835.475 123.97L835.256 123.876C828.325 121.851 830.733 121.924 826.902 116.534C825.893 115.217 824.729 114.031 823.436 113.003C822.761 112.445 820.974 111.274 819.77 110.81C817.198 109.565 812.856 109.415 810.303 110.643C809.377 111.071 808.497 111.594 807.676 112.203C806.813 112.905 806.029 113.703 805.341 114.583C803.481 116.962 802.404 120.27 802.076 122.855C801.547 127.111 802.131 130.92 803.736 134.881C804.995 137.928 807.22 141.236 810.084 143.468ZM826.847 130.567C826.866 130.55 826.847 130.55 826.847 130.567V130.567ZM826.847 130.661V130.68V130.661ZM826.866 130.605V130.567C826.864 130.582 826.858 130.596 826.847 130.605H826.866ZM822.123 125.94V125.902C822.119 125.915 822.119 125.928 822.123 125.94ZM796.859 127.892C796.896 127.984 796.877 127.909 796.859 127.854C796.886 127.913 796.916 127.968 796.95 128.021C796.987 128.059 797.023 128.115 797.06 128.132L797.242 128.226H797.352C798.209 127.612 798.92 128.654 798.811 129.08C798.825 129.26 798.868 129.436 798.939 129.602C799.068 129.864 799.248 130.098 799.468 130.289L799.796 130.494C799.949 130.554 800.108 130.599 800.27 130.623H800.562C800.003 127.898 799.898 125.096 800.252 122.333C798.665 123.82 797.242 125.754 796.823 127.334V127.668C796.841 127.706 796.841 127.798 796.859 127.836V127.892Z" fill="#452D34"/>
<path d="M809.372 139.906C806.349 136.052 806.195 131.179 809.027 129.021C811.859 126.863 816.606 128.239 819.628 132.094C822.651 135.948 822.805 140.821 819.973 142.979C817.141 145.137 812.394 143.761 809.372 139.906Z" fill="#D13535"/>
<path d="M397.75 75.2935C397.606 75.1369 397.501 74.9559 397.441 74.7617C397.381 74.5679 397.367 74.3647 397.4 74.1658L402.613 33.9651C402.669 33.5664 402.902 33.203 403.26 32.9531C403.618 32.7031 404.073 32.5867 404.528 32.6284C404.758 32.6501 404.981 32.7116 405.184 32.8097C405.387 32.9079 405.565 33.0406 405.709 33.1999C405.854 33.3595 405.96 33.5425 406.023 33.7381C406.086 33.9342 406.104 34.1391 406.075 34.3412L400.836 74.512C400.779 74.9105 400.547 75.2739 400.189 75.5238C399.831 75.7737 399.376 75.8904 398.921 75.8487C398.693 75.8298 398.473 75.771 398.271 75.6756C398.07 75.5802 397.893 75.4504 397.75 75.2935Z" fill="#CE9C5C"/>
<path d="M140.446 311.384C151.417 317.362 164.356 314.123 169.344 304.149C174.33 294.173 169.479 281.241 158.509 275.263C147.537 269.285 134.599 272.525 129.612 282.499C124.624 292.474 129.475 305.406 140.446 311.384Z" fill="#EFDCC4"/>
<path d="M134.424 303.37C131.773 300.744 129.705 297.55 128.367 294.014C126.14 288.028 126.374 281.796 129.049 276.473C131.724 271.15 136.469 267.397 142.454 265.906C148.439 264.415 154.773 265.328 160.46 268.438C166.195 271.547 170.549 276.515 172.749 282.425C174.95 288.337 174.742 294.644 172.093 299.992C169.441 305.338 164.672 309.067 158.687 310.559C152.703 312.051 146.369 311.137 140.655 308.001C138.374 306.783 136.274 305.222 134.424 303.37ZM164.101 275.88C162.504 274.298 160.705 272.954 158.755 271.885C153.853 269.212 148.393 268.433 143.369 269.706C138.346 270.979 134.526 273.987 132.359 278.296C130.191 282.605 130.026 287.731 131.864 292.644C133.701 297.558 137.484 301.908 142.385 304.579C147.289 307.253 152.749 308.031 157.772 306.759C162.796 305.487 166.59 302.452 168.758 298.144C170.926 293.836 171.114 288.733 169.253 283.796C168.114 280.8 166.356 278.098 164.101 275.88Z" fill="#452D34"/>
<path d="M79.5077 238.665C82.9184 239.552 86.2798 240.639 89.5752 241.921C95.0316 244.123 100.261 246.896 105.183 250.197C107.097 251.317 108.737 248.198 106.775 247.079C98.6212 241.634 89.6644 237.624 80.2692 235.211C78.1273 234.647 77.342 238.127 79.5077 238.665Z" fill="#452D34"/>
<path d="M78.3708 262.317C82.3972 263.161 86.3502 264.357 90.1874 265.892C93.6332 267.268 96.9726 268.919 100.175 270.832C100.573 271.055 101.037 271.107 101.469 270.977C101.9 270.847 102.264 270.545 102.48 270.136C104.48 265.906 82.5573 259.478 79.1558 258.837C77.0153 258.324 76.2053 261.779 78.3708 262.317Z" fill="#452D34"/>
<path d="M84.3368 286.666C86.2613 286.526 88.1949 286.549 90.1183 286.736C92.5868 287.059 95.0125 287.68 97.3462 288.587C99.0033 289.278 100.601 290.114 102.123 291.086C104.062 292.231 105.701 289.061 103.764 287.967C99.1732 285.049 93.9604 283.367 88.6017 283.072C86.6953 283.233 82.8464 282.098 82.6018 284.94C82.6487 285.868 83.3959 286.759 84.3368 286.666Z" fill="#452D34"/>
<path d="M72.9172 859.745C72.6541 859.483 72.5013 859.125 72.492 858.748C72.4826 858.372 72.618 858.008 72.8678 857.737L95.2002 833.52C95.4502 833.249 95.7942 833.093 96.157 833.087C96.5198 833.08 96.8711 833.223 97.1342 833.485C97.397 833.746 97.5501 834.105 97.5591 834.481C97.5684 834.858 97.4332 835.222 97.1832 835.493L74.8507 859.71C74.601 859.98 74.2567 860.137 73.8942 860.143C73.5316 860.15 73.18 860.007 72.9172 859.745Z" fill="#CE9C5C"/>
<path d="M66.0909 849.675C65.8618 849.452 65.717 849.152 65.6834 848.829C65.6443 848.457 65.7479 848.086 65.9717 847.795C66.1955 847.504 66.5213 847.317 66.8786 847.275L102.694 843.328C103.056 843.291 103.418 843.405 103.7 843.645C103.983 843.885 104.163 844.23 104.201 844.606C104.239 844.981 104.132 845.356 103.903 845.648C103.674 845.939 103.343 846.123 102.981 846.16L67.1891 850.082C66.9894 850.1 66.788 850.072 66.5983 850.002C66.4089 849.932 66.2358 849.82 66.0909 849.675Z" fill="#CE9C5C"/>
<path d="M84.4695 866.439C84.3385 866.311 84.2345 866.156 84.1637 865.985C84.093 865.813 84.0569 865.629 84.0582 865.443L83.1167 828.017C83.1112 827.646 83.2463 827.287 83.493 827.02C83.7396 826.753 84.0781 826.597 84.4359 826.587C84.6173 826.582 84.7977 826.615 84.9674 826.683C85.1369 826.751 85.2919 826.854 85.4233 826.985C85.555 827.115 85.6603 827.272 85.7332 827.445C85.8062 827.618 85.8455 827.804 85.8488 827.992L86.7655 865.393C86.7712 865.764 86.6361 866.122 86.3894 866.39C86.1428 866.657 85.8042 866.813 85.4463 866.823C85.2676 866.83 85.0891 866.8 84.9212 866.734C84.7534 866.668 84.5996 866.568 84.4695 866.439Z" fill="#CE9C5C"/>
<path d="M95.8307 859.324L72.3317 835.949C72.0686 835.688 71.9158 835.329 71.9065 834.953C71.8975 834.576 72.0325 834.212 72.2824 833.941C72.5322 833.67 72.8767 833.514 73.2392 833.507C73.6018 833.501 73.9532 833.644 74.2162 833.906L97.7152 857.281C97.9783 857.542 98.1312 857.901 98.1406 858.277C98.1496 858.654 98.0145 859.018 97.7647 859.289C97.5147 859.56 97.1704 859.716 96.8079 859.722C96.4451 859.729 96.0937 859.586 95.8307 859.324Z" fill="#CE9C5C"/>
<path d="M340.99 758.935C345.997 753.142 351.02 746.873 352.549 739.237C354.08 731.598 351.708 723.655 346.056 719.014C340.404 714.372 331.427 714.21 326.283 719.377L326.048 719.632C328.352 719.917 331.203 720.894 334.829 722.734C344.65 727.704 348.549 740.79 343.392 752.412C338.235 764.034 326.062 769.556 316.198 764.791C306.335 760.022 299.397 750.231 311.943 736.216C313.089 734.832 314.007 733.263 314.661 731.569C314.661 731.569 318.494 721.279 304.234 720.61C300.277 720.387 296.373 721.567 293.166 723.952C290.204 726.183 287.703 729.002 285.799 732.249C284.015 735.37 282.558 739.065 279.405 740.678C277.972 741.41 276.263 741.716 275.228 742.942C274.64 743.631 274.411 745.116 274.293 746.273C274.222 747.171 274.285 748.076 274.481 748.955C276.164 755.789 278.12 762.533 280.347 769.189C282.691 776.128 283.426 790.278 290.069 792.868C293.802 794.332 300.597 787.375 304.467 786.377C319.244 782.464 330.781 770.725 340.99 758.935Z" fill="#D13535"/>
<path d="M104.097 591.768C103.523 601.873 97.1224 610.154 92.9129 618.892C82.6103 638.62 75.634 659.893 69.3644 681.328C62.7428 705.156 46.5699 714.343 45.768 740.826L45.428 744.749C45.4607 746.984 48.894 747.021 48.8629 744.686C49.5334 724.735 55.3065 716.518 65.1684 700.565C72.9852 686.008 75.8661 669.33 81.6045 653.883C87.3448 638.433 94.1132 623.517 101.986 609.208C104.827 603.809 107.345 597.986 107.53 591.704C107.451 589.471 104.064 589.432 104.097 591.768Z" fill="#452D34"/>
<path d="M78.7781 644.064C82.7701 627.315 60.1419 622.735 56.4228 638.673C54.8781 653.644 73.2444 657.074 78.7781 644.064ZM68.6003 632.373C69.9776 632.323 72.3699 633.233 72.7417 633.603C73.1506 633.912 73.5174 634.277 73.8323 634.688L73.6836 634.54C74.4847 635.642 75.0748 636.893 75.4192 638.224C73.3804 637.91 71.3113 639.38 69.2646 639.693C68.742 637.211 68.0109 634.779 67.0783 632.426C67.5864 632.391 68.0926 632.357 68.6003 632.373ZM59.6996 640.17C59.8379 638.631 60.3595 637.159 61.2152 635.898C61.4252 635.619 61.1682 635.949 61.1695 635.999C61.6334 635.341 62.1796 634.749 62.7942 634.237C62.2716 634.649 63.6249 633.594 63.8649 633.54C64.7567 635.799 65.468 638.13 65.9952 640.506C63.9271 640.997 61.8327 641.413 59.7377 641.726C59.6766 641.209 59.6641 640.688 59.6996 640.17ZM66.4612 648.711L66.4363 648.686C64.1093 648.427 61.8352 646.409 61.0513 645.043C62.9315 644.756 64.7838 644.397 66.6368 643.985C66.8682 645.538 66.9078 647.145 67.019 648.725L66.5831 648.682C66.608 648.706 66.6092 648.756 66.4612 648.711ZM73.0515 646.203C72.2333 646.903 71.329 647.485 70.3615 647.935C70.2985 646.354 70.1622 644.749 69.9543 643.171C71.9221 642.532 74.0406 642.193 75.9028 641.204L75.8922 641.731L75.8675 641.706C75.7937 642.117 75.6899 642.523 75.5587 642.917L75.6265 642.741C75.0657 644.104 74.1782 645.297 73.0515 646.203Z" fill="#D13535"/>
<path d="M66.5526 648.704C66.5309 648.694 66.507 648.689 66.4839 648.689C66.4587 648.691 66.4367 648.696 66.4161 648.706L66.5526 648.704Z" fill="#D13535"/>
<path d="M55.1171 698.993C59.4525 685.479 38.6665 681.014 33.7608 692.003C28.9006 706.859 49.5587 711.05 55.1171 698.993ZM52.2863 695.054C52.321 695.471 52.3321 695.889 52.3186 696.307L52.3147 696.157C52.295 696.601 52.2 697.036 52.0321 697.443C51.9636 697.672 51.1288 699.092 51.4773 698.559C51.0558 699.145 50.5645 699.678 50.017 700.143C49.0257 700.956 47.9045 701.578 46.7017 701.986L46.2257 696.421C48.1908 695.681 50.1077 694.942 52.0482 694.178L52.2863 695.054ZM47.683 689.738C48.4088 689.996 49.094 690.365 49.7176 690.83L50.0647 691.175C48.6502 691.73 47.2375 692.283 45.8002 692.811L45.3812 689.606C45.4801 689.541 45.5666 689.465 45.643 689.374C46.3371 689.38 47.0255 689.504 47.683 689.738ZM36.428 695.295C36.647 692.326 39.2016 690.02 42.0004 689.767C42.2044 691.195 42.4084 692.623 42.564 694.052L36.4082 696.398L36.428 695.295ZM42.5556 702.513C40.6388 702.324 38.6361 701.455 37.578 699.768C39.3516 699.082 41.1464 698.373 42.9445 697.711L43.3529 702.525L42.5556 702.513Z" fill="#D13535"/>
<path d="M192.993 493L200.222 501.808L200.099 501.684C200.481 502.213 200.825 502.769 201.131 503.348C201.257 503.572 201.001 502.974 201.157 503.423L201.393 504.197C201.468 504.736 201.432 505.284 201.288 505.806C201.267 505.932 201.136 506.537 201.246 506.058C201.097 506.445 200.903 506.811 200.668 507.148C201.067 506.664 200.221 507.684 200.079 507.787C199.936 507.89 200.364 507.581 200.149 507.711C199.935 507.84 198.91 508.437 199.459 508.15C199.212 508.283 198.944 508.365 198.667 508.391C198.571 508.443 198.212 508.575 198.62 508.442C198.219 508.499 197.814 508.507 197.411 508.464C197.459 508.463 197.824 508.532 197.508 508.462C197.22 508.412 196.935 508.342 196.656 508.252C194.53 506.382 191.862 509.018 194.206 510.908C199.571 514.677 206.868 508.516 204.37 502.309C202.18 497.829 198.253 494.461 195.325 490.471C193.786 488.842 191.382 491.398 192.993 493Z" fill="#452D34"/>
<path d="M178.947 519.726C174.032 517.531 168.164 511.939 165.414 507.293C165.325 507.131 165.192 507 165.032 506.917C164.872 506.834 164.691 506.803 164.514 506.828C164.337 506.852 164.172 506.932 164.04 507.056C163.908 507.181 163.816 507.344 163.775 507.524C162.554 511.991 160.306 521.902 163.172 525.34C166.037 528.778 174.663 524.526 179.078 522.109C179.291 521.994 179.468 521.816 179.587 521.598C179.705 521.38 179.761 521.131 179.747 520.88C179.733 520.63 179.651 520.387 179.509 520.183C179.367 519.978 179.172 519.82 178.947 519.726Z" fill="#452D34"/>
<path d="M173.444 483.691C174.772 485.012 176.872 484.974 178.133 483.605C179.395 482.237 179.342 480.056 178.014 478.736C176.686 477.415 174.586 477.453 173.324 478.822C172.062 480.19 172.116 482.37 173.444 483.691Z" fill="#452D34"/>
<path d="M202.914 489.303C204.242 490.624 206.342 490.585 207.604 489.217C208.866 487.848 208.812 485.668 207.485 484.347C206.157 483.026 204.057 483.065 202.795 484.433C201.533 485.802 201.586 487.982 202.914 489.303Z" fill="#452D34"/>
<path d="M179.917 465.742C178.054 464.721 169.268 470.332 166.968 474.166C166.698 474.359 166.497 474.639 166.396 474.963C166.295 475.287 166.298 475.637 166.407 475.96C166.47 476.193 166.574 476.412 166.713 476.607L166.862 476.755C167.144 477.013 167.495 477.177 167.868 477.224C168.241 477.271 168.617 477.199 168.948 477.018C171.96 476.586 176.78 473.936 178.294 473.531C182.301 472.227 184.382 468.322 179.917 465.742Z" fill="#452D34"/>
<path d="M214.836 484.312C214.908 484.021 214.9 483.715 214.811 483.428C214.723 483.141 214.559 482.885 214.337 482.689C211.513 478.949 207.95 474.67 203.585 473.218C203.214 473.092 202.821 473.056 202.436 473.116C202.051 473.175 201.685 473.328 201.369 473.56C194.163 478.54 208.433 483.526 212.375 485.538C212.746 485.751 213.178 485.814 213.589 485.716C213.919 485.661 214.22 485.492 214.446 485.238C214.672 484.984 214.809 484.658 214.836 484.312Z" fill="#452D34"/>
<path d="M124.549 480.896L124.572 480.92C124.594 480.896 124.549 480.896 124.549 480.896Z" fill="#452D34"/>
<path d="M122.93 464.925C122.975 464.924 123.019 464.876 123.065 464.876C123.11 464.875 123.019 464.876 122.93 464.925Z" fill="#452D34"/>
<path d="M154.618 411.286C157.252 413.172 159.657 410.666 157.335 408.7C154.007 407.021 150.253 406.499 146.634 407.214C143.861 408.521 146.253 411.39 147.853 410.582C150.126 410.267 152.442 410.508 154.618 411.286Z" fill="#452D34"/>
<path d="M148.93 648.955C156.118 637.298 155.426 620.936 147.223 609.887L145.946 608.026L147.693 608.294C151.59 608.74 155.521 608.666 159.393 608.081C162.528 607.658 165.594 606.826 168.522 605.604C171.37 604.37 173.964 602.641 176.581 600.934C178.58 599.593 180.603 598.272 182.28 596.561C184.372 594.378 185.883 591.664 186.658 588.683C187.433 585.701 187.447 582.556 186.698 579.552C185.818 576.13 183.943 572.698 184.802 569.291C185.663 565.886 189.14 563.765 190.365 560.425C191.589 557.088 190.01 552.874 187.081 550.793C184.152 548.713 180.207 548.558 176.926 549.849C175.488 550.429 174.155 551.256 172.691 551.761C170.557 552.529 168.264 552.645 165.989 552.587C154.764 552.329 143.836 548.634 134.58 541.963C129.065 537.946 124.075 532.689 121.929 526.049C121.118 523.578 120.64 520.798 118.736 519.1C117.674 518.19 116.283 517.689 115.313 516.628C114.344 515.566 114.231 514.863 113.748 513.944C113.283 513.058 112.727 512.227 112.09 511.464C107.405 505.774 99.3055 504.868 93.3606 508.995C89.2233 511.884 83.5354 516.609 82.6827 521.295C82.2791 523.588 82.2221 526.124 80.6905 527.836C79.1609 529.546 77.2331 529.782 75.7415 531.09C72.9254 533.628 73.3754 538.191 74.0741 542.02C74.6062 544.999 75.1394 548.028 75.8897 550.977L73.6489 550.315C67.4802 551.232 61.2417 551.245 55.0692 552.012C48.8966 552.778 42.673 554.374 37.5888 558.083C35.0943 559.912 32.744 562.718 33.1363 565.9C33.2855 567.078 33.8451 568.172 34.3564 569.267C39.2128 578.998 44.396 589.148 53.1779 595.189C54.2404 595.985 55.4139 596.607 56.6569 597.034C58.6081 597.701 60.7096 597.638 62.7348 597.349C71.5078 596.133 79.2945 591.245 86.8208 586.485C89.0341 585.065 91.2506 583.692 93.4402 582.297L95.3741 581.282C100.329 586.288 105.854 590.648 111.824 594.263L110.119 595.803C105.279 601.566 105.245 610.055 105.457 617.71C105.67 625.365 105.885 632.192 107.797 639.137C108.643 642.205 109.819 645.166 111.303 647.964C111.579 648.593 111.981 649.16 112.481 649.624C113.242 650.186 114.236 650.296 115.181 650.353L142.602 652.16C143.814 652.238 145.047 652.292 146.147 651.819C147.251 651.346 148.209 650.097 148.93 648.955Z" fill="#CE9C5C"/>
<path d="M119.254 630.012L119.329 630.086L119.356 630.211C119.372 629.884 119.335 630.336 119.335 630.336C119.335 630.336 119.396 629.909 119.356 630.211C119.316 630.512 119.562 629.781 119.402 630.11C119.241 630.438 119.403 630.16 119.45 630.109C119.497 630.058 119.498 630.108 119.402 630.11C119.305 630.111 119.952 629.822 119.567 629.981C120.978 629.578 122.472 629.603 123.874 630.053C123.407 629.735 124.242 630.272 124.34 630.321C124.438 630.369 124.117 630.099 124.29 630.271L124.489 630.469C126.996 636.048 131.151 634.89 134.389 630.814C134.577 630.61 134.175 630.943 134.389 630.814C134.585 630.662 134.792 630.523 135.008 630.4C135.317 630.219 134.743 630.482 134.96 630.401C135.163 630.334 135.373 630.278 135.583 630.239L135.798 630.16C135.992 630.104 135.437 630.192 135.726 630.186C136.043 630.164 136.357 630.166 136.671 630.194C136.887 630.165 136.356 630.125 136.573 630.146C136.886 630.2 137.194 630.278 137.498 630.381C137.571 630.405 137.838 630.423 137.571 630.405C137.305 630.385 137.789 630.476 137.839 630.525L138.406 630.89C138.701 631.085 138.358 630.891 138.357 630.841C139.051 631.532 138.996 631.33 139.429 632.253C141.711 637.56 146.43 633.731 148.662 631.983C148.756 631.881 149.069 631.851 149.189 631.823C149.311 631.794 148.826 631.805 149.213 631.848C149.602 631.889 149.626 631.863 149.36 631.843C149.092 631.825 149.408 631.842 149.456 631.841C149.505 631.841 149.507 631.941 149.432 631.817L149.996 632.134C149.923 632.11 149.722 631.862 149.898 632.086C150.073 632.308 150.196 632.431 149.947 632.085C149.695 631.737 150.252 632.73 150.173 632.456L150.222 632.506C150.304 632.884 150.174 632.506 150.222 632.506C150.27 632.505 150.243 633.361 150.278 632.805C150.407 632.108 150.267 631.382 149.889 630.786C149.51 630.186 148.923 629.764 148.252 629.606C147.581 629.451 146.881 629.572 146.297 629.944C145.717 630.316 145.298 630.912 145.136 631.601C144.97 632.291 145.072 633.024 145.423 633.641C145.77 634.259 146.335 634.712 146.997 634.906C147.657 635.099 148.365 635.017 148.967 634.676C149.566 634.335 150.014 633.764 150.212 633.086C150.192 633.172 150.16 633.258 150.122 633.338C149.961 633.666 150.332 633.059 150.099 633.363C148.568 635.023 151.07 637.513 152.577 635.828C156.431 630.257 149.181 625.544 145.041 630.291C145.018 630.316 144.661 630.6 144.922 630.42C145.185 630.238 144.78 630.523 144.733 630.574C144.686 630.625 143.329 631.428 143.877 631.143C143.624 631.262 143.359 631.344 143.085 631.38C143.134 631.43 143.448 631.351 143.108 631.355L142.865 631.361C142.599 631.341 142.962 631.308 142.962 631.36L142.768 631.313C142.404 631.245 143.036 631.433 142.84 631.337C142.645 631.24 142.911 631.26 142.915 631.411L142.766 631.263C143.093 631.735 142.614 630.965 142.589 630.839C140.218 624.956 132.957 625.767 130.116 630.189C129.913 630.349 129.699 630.495 129.475 630.627C129.211 630.759 129.477 630.677 129.499 630.601C129.521 630.526 129.138 630.735 129.042 630.737C128.946 630.739 129.284 630.782 129.09 630.736C128.896 630.689 128.655 630.694 128.946 630.739C129.236 630.783 128.848 630.69 128.824 630.716C128.801 630.741 128.92 630.664 128.897 630.739L128.677 630.618L128.801 630.741C128.727 630.667 128.256 630.248 128.629 630.619C126.881 624.473 113.986 624.283 116.371 631.747C117.483 633.736 120.437 631.925 119.301 629.961L119.254 630.012Z" fill="#D13535"/>
<path d="M48.943 557.521C48.44 557.757 48.9679 557.546 49.0878 557.519C49.2079 557.492 49.4482 557.438 49.1597 557.493C48.8713 557.547 49.1597 557.493 49.2327 557.516L49.6921 557.534C48.99 557.47 49.9582 557.554 50.1057 557.652L49.9595 557.604L50.8186 558.064C50.2303 557.723 50.8682 558.113 50.9687 558.262C51.0693 558.411 51.3706 558.857 51.0666 558.311L51.4951 559.083C51.1931 558.534 51.5694 559.157 51.5498 559.333C51.5302 559.509 51.5428 558.98 51.5225 559.208C51.5041 559.434 51.5262 560.286 51.5576 559.634C49.4116 565.826 51.795 568.343 57.1136 568.245C57.4725 568.277 57.8253 568.363 58.1607 568.501C57.4985 568.189 58.7478 568.792 58.8236 568.916C58.3551 568.548 59.1196 569.162 59.2448 569.335C59.37 569.509 59.5696 569.756 59.3453 569.484C59.121 569.212 59.37 569.509 59.395 569.534C59.5949 569.83 59.7655 570.146 59.9005 570.48C60.0022 570.679 59.8535 570.531 59.8731 570.355C59.8946 570.177 60.1338 571.103 60.1677 571.479C60.2016 571.854 60.096 571.505 60.1885 571.353L60.214 572.408C60.1382 572.284 60.2283 572.031 60.1891 572.383C60.1532 572.624 60.0952 572.859 60.0142 573.088L60.1043 572.836C57.5019 576.173 60.0711 580.345 63.8981 580.627C65.1853 580.829 65.8116 580.768 67.1053 581.22C66.5678 580.979 67.4472 581.365 67.4981 581.465L67.845 581.81C67.3949 581.215 68.0719 582.182 68.0249 582.233L67.9467 582.009C68.0808 582.345 68.1702 582.699 68.2134 583.059C68.239 583.577 68.2349 584.098 68.2033 584.616L68.2465 584.415C68.1237 585.27 67.9508 586.127 67.753 586.96C67.1784 589.181 70.5617 590.047 71.0631 587.803C72.8863 582.27 70.6074 577.114 65.0723 577.24C63.8346 577.088 63.6651 577.066 62.8302 576.528L62.4335 576.134C62.6788 576.28 62.6096 576.406 62.5078 576.208L62.3814 575.984C62.5287 576.082 62.5117 576.358 62.4073 576.059L62.354 575.859L62.4088 576.109C62.3826 576.034 62.4049 575.959 62.4034 575.908C65.6115 571.554 62.2794 563.88 55.258 564.588L55.4512 564.585C55.1834 564.571 54.9142 564.535 54.6512 564.473L54.432 564.402C54.4555 564.376 54.7987 564.571 54.4555 564.376C54.1123 564.181 53.9401 564.059 54.3826 564.352L54.2337 564.204C53.9859 563.958 54.3318 564.253 54.3083 564.279L54.1319 564.005C54.2782 564.053 54.2378 564.355 54.2077 564.13C54.1777 563.904 54.1777 563.904 54.1281 563.855C54.0787 563.806 54.1608 564.181 54.1542 563.93C54.1477 563.679 54.5218 562.191 54.7862 561.132C56.0799 556.688 51.1876 552.408 47.1997 554.464C45.2918 555.554 47.06 558.635 48.9665 557.496L48.943 557.521Z" fill="#D13535"/>
<path d="M101.182 521.179C102.25 520.28 104.423 520.191 105.817 520.792C106.353 521.024 106.865 521.317 107.337 521.669L107.263 521.595C107.944 522.142 108.56 522.772 109.099 523.47C111.97 527.21 112.742 534.001 115.521 538.82C124.44 551.465 139.513 567.537 153.817 572.897C160.43 575.364 169.678 571.829 169.891 563.713C169.782 561.204 166.189 561.647 166.465 564.078C166.466 564.026 166.507 563.775 166.441 564.104C166.387 564.567 166.285 565.023 166.137 565.465C166.003 565.919 166.276 565.16 166.116 565.591C165.917 566.033 165.685 566.457 165.422 566.859C165.376 566.96 165.308 567.136 165.492 566.782C164.258 568.688 161.769 569.789 160.082 570.021C159.128 570.142 158.164 570.151 157.205 570.048C152.692 569.479 147.288 566.012 143.001 562.826C135.283 556.765 127.488 548.571 120.862 540.657C120.015 539.668 117.723 535.968 117.282 534.695C114.868 526.954 111.141 514.04 100.873 517.392C96.6714 518.65 98.2077 523.117 101.182 521.179Z" fill="white"/>
<path d="M147.062 579.552C145.635 579.553 142.971 579.35 142.146 579.265C137.533 578.734 133.002 577.585 128.665 575.847C125.371 574.625 119.435 571.269 116.674 569.059C109.109 563.399 102.831 554.9 99.4109 546.601C98.3574 544.084 97.1315 540.414 96.7397 538.262C96.6141 537.059 96.5853 536.884 97.0036 536.172C97.0716 535.996 96.911 536.324 96.8876 536.35C96.8641 536.375 97.074 536.096 97.0975 536.07L97.262 535.892C97.2385 535.917 96.9292 536.098 97.0963 536.02C97.2068 535.955 97.3114 535.876 97.4044 535.789C97.6437 535.633 97.1171 535.894 97.4044 535.789L97.6945 535.732C97.6255 535.859 97.3547 535.74 97.5746 535.759C97.7926 535.781 97.6476 535.783 97.5981 535.734L97.7691 535.806C102.382 535.597 98.7256 529.46 94.641 533.529C89.8507 539.342 99.7474 555.409 103.527 560.639C110.264 569.606 119.377 576.34 129.734 579.995C132.562 580.948 148.785 585.723 148.797 581.278C148.779 580.808 148.584 580.362 148.256 580.036C147.927 579.709 147.49 579.527 147.037 579.528L147.062 579.552Z" fill="white"/>
<path d="M449.994 530.48L449.837 530.559C449.843 530.552 449.85 530.548 449.86 530.546C449.867 530.545 449.875 530.55 449.883 530.558L449.994 530.48Z" fill="#452D34"/>
<path d="M301.693 760.157C304.498 761.449 307.183 763.005 309.715 764.807C310.454 765.347 311.626 764.897 312.019 764.112C313.275 761.1 305.349 758.36 303.333 757.038C301.319 755.719 299.732 759.089 301.693 760.157Z" fill="#452D34"/>
<path d="M448.268 531.104C448.357 531.052 448.334 531.027 448.111 531.132L448.268 531.104Z" fill="#452D34"/>
<path d="M113.624 467.487C112.404 466.028 112.088 464 112.017 462.067C111.562 451.428 116.774 441.086 124.587 434.263C132.401 427.439 142.57 423.988 152.777 423.072C162.985 422.157 173.312 419.255 183.332 421.532C197.364 424.715 211.941 428.44 221.574 439.589C222.618 440.775 226.591 443.992 226.591 443.992C226.134 432.273 220.176 417.088 216.061 412.016C213.093 408.329 204.102 400.659 197.038 398.579C193.456 397.514 173.169 390.705 164.138 390.293C160.458 390.11 156.777 389.926 153.11 390.295C146.505 390.955 140.174 393.306 134.681 397.137C129.308 400.902 124.91 405.981 119.962 410.315C110.848 418.343 99.2044 423.805 92.614 434.147C86.0236 444.489 83.6313 473.212 87.6038 473.439C98.4046 474.045 99.0445 482.37 99.0445 482.37C100.503 481.716 106.397 480.477 108.098 479.768C108.098 479.768 109.714 469.769 113.699 467.561C113.723 467.535 113.649 467.512 113.624 467.487Z" fill="#D13535"/>
<path d="M347.02 715.904C341.307 713.701 334.297 714.759 329.858 719.208C328.157 721.776 331.529 723.271 333.071 720.983C333.862 720.374 334.715 719.859 335.62 719.457C347.327 714.594 357.452 726.086 356 737.913C353.329 753.234 339.102 764.845 328.684 774.905C321.983 780.779 314.447 784.056 306.507 786.687C303.642 788.196 301.131 790.354 298.191 791.739C298.167 791.765 298.119 791.765 298.095 791.791L298.048 791.842C297.55 792.07 297.025 792.241 296.489 792.346L296.321 792.375L296.223 792.378C296.028 792.38 295.835 792.367 295.641 792.337L295.422 792.266C295.069 792.114 294.733 791.926 294.418 791.706L294.27 791.559C293.872 791.236 293.505 790.872 293.178 790.473L293.054 790.35C288.626 783.401 288.695 773.381 285.279 765.18C283.623 759.862 282.09 754.515 280.846 749.114L280.797 749.065C280.802 749.059 280.806 749.05 280.804 749.04C280.806 749.029 280.802 749.021 280.795 749.015C280.742 748.49 280.737 747.96 280.781 747.433L280.822 747.132C280.883 746.62 280.986 746.115 281.124 745.618C281.173 745.479 281.236 745.342 281.307 745.214C288.558 742.092 288.955 739.598 293.3 732.312C297.184 726.966 305.026 720.367 311.228 724.725C312.825 725.825 313.834 728.494 313.639 729.476C313.609 729.783 313.55 730.087 313.471 730.383L313.402 730.612C309.249 737.795 303.967 744.295 299.398 751.211C298.333 753.188 301.349 754.914 302.413 752.887C306.987 746.073 312.074 739.576 316.304 732.566C319.242 726.185 312.91 719.394 306.656 719.786C296.754 720.319 290.475 729.551 286.056 737.744C285.578 738.42 285.024 739.038 284.408 739.581C284.692 739.325 284.29 739.658 284.266 739.684C283.913 739.951 283.539 740.185 283.148 740.382L283.123 740.358C279.395 741.257 277.837 743.769 277.557 747.165C276.863 747.455 276.173 747.843 275.52 747.931C258.928 749.794 239.692 749.369 223.983 748.827C216.015 697.995 207.154 643.336 176.785 601.13C187.483 595.61 196.99 586.796 192.76 573.139C192.048 570.712 190.852 568.351 191.054 565.76C191.502 562.285 196.077 559.491 196.951 555.657C198.695 548.87 193.338 543.443 187.343 542.574C188.009 542.11 188.675 541.645 189.338 541.081C196.438 535.752 201.863 528.169 206.12 520.306C207.592 519.174 215.669 499.438 220.469 484.132C220.675 484.304 220.917 484.421 221.176 484.473C221.434 484.525 221.701 484.511 221.952 484.431C234.899 481.833 240.3 465.41 235.271 453.6C234.552 451.965 233.722 450.386 232.785 448.874C232.968 448.703 233.112 448.492 233.206 448.256C233.301 448.02 233.344 447.764 233.332 447.508C232.465 428.916 228.316 405.687 209.835 397.589C194.988 390.755 164.319 382.679 149.014 388.711C140.067 391.713 133.297 398.693 126.588 405.195C119.879 411.697 111.283 416.174 104.232 422.531C95.0193 430.46 90.9708 442.89 89.8153 454.966C89.7491 457.151 88.7593 466.109 89.324 471.372C84.2857 470.084 78.9233 471.364 75.296 475.297C69.7365 481.325 70.3455 491.333 76.6418 497.596C82.9378 503.859 92.6157 504.084 98.1752 498.055C101.45 494.504 102.564 489.637 101.699 484.906C103.59 484.093 108.401 482.122 111.227 480.965L111.778 480.728L111.876 482.787C110.291 487.185 108.94 492.206 111.849 496.472C113.611 499.303 115.523 502.332 118.75 502.75L118.981 503.273C118.95 503.344 118.944 503.424 118.962 503.499L118.811 505.261L118.692 506.266C118.377 505.839 118.036 505.435 117.67 505.054C112.544 499.223 103.432 498.384 97.2742 502.743C93.1628 505.707 88.8427 509 86.5657 513.788C85.4614 516.068 85.7297 519.127 84.623 521.306C83.5141 523.488 79.6538 523.86 78.1947 526.422C76.7335 528.985 76.4212 532.004 76.7365 535.012C62.9891 528.634 67.8307 532.815 66.4861 511.494C65.767 487.124 62.4802 462.028 58.6019 437.992C47.1019 403.992 -6.45431 337.308 18.6019 311.736C19.4511 310.867 -59.7607 261.277 7.89938 306.49C-57.7607 253.277 -8.77414 295.433 -8.69475 295.302C-3.59993 295.962 -81.7402 312.282 -77.8981 309.198C-70.8101 303.367 3.073 304.531 16.1019 302.372C20.1231 296.724 8.98463 307.76 10.8094 300.319C13.9549 290.517 -59.2321 284.045 -69.398 289.606C-68.8159 237.386 -81.7652 240.312 -69.398 291.992C-73.9749 292.729 10.5068 277.556 10.8094 283C-96.1562 357.5 -19.796 453.52 0.843761 587.763C-12.7935 616.517 -28.3057 645.051 -45.9626 671.516C-47.2483 673.322 -44.793 675.813 -43.4838 673.982C-25.7787 648.444 -11.1011 620.778 3.77818 593.357C4.57691 592.238 5.09579 590.927 5.2865 589.542C5.47546 588.159 5.28651 583 5.28651 583C-6.15625 513 -53.0747 405.094 -48.6562 345C-46.1564 311 -29.8205 294.338 7.89938 306.49C12.7426 319.963 4.82784 302.879 15.5508 312.01C-36.7717 272.338 -28.3992 315.572 15.1024 311.553C-5.27583 333.6 20.4616 362.057 29.6019 390.42C29.3379 390.548 56.8588 435.089 56.6865 435.333C57.6019 436.492 52.1542 419.677 49.1019 421.492C47.2201 422.656 54.6019 438.992 55.4359 440.503C53.2429 441.85 57.3411 439.313 55.4359 440.503C55.7434 443.21 56.741 446.457 56.7883 448.365C58.8115 461.838 60.5945 475.366 61.7726 488.931C62.9527 502.493 62.8578 516.408 63.7725 530.052C64.9881 534.249 69.7647 535.769 73.2822 537.16C74.7165 537.662 76.1069 538.293 77.4384 539.043C77.7417 540.57 78.095 542.093 78.3474 543.521L78.3772 543.746C66.8795 545.288 35.1998 544.39 36.4099 562.146C39.9579 570.771 44.5926 579.247 50.6649 586.268C63.6799 603.232 82.7604 589.396 96.2623 580.836C97.1867 580.091 98.9615 579.455 99.6617 578.438C103.963 582.705 108.702 586.467 113.794 589.655L113.676 589.782C104.968 596.598 107.343 645.146 118.883 647.219C128.138 647.903 137.364 648.412 146.618 649.045C148.443 649.456 150.343 649.198 151.998 648.316C153.652 647.434 154.955 645.983 155.687 644.209C164.643 629.654 158.775 611.379 154.297 605.309C160.891 605.889 167.526 605.192 173.723 602.54C202.908 641.808 213.352 700.832 220.562 748.362C216.461 747.811 212.337 747.233 208.253 746.403C206.136 745.864 205.326 749.32 207.492 749.858C212.424 750.848 217.397 751.485 222.395 752.147C224.371 752.839 227.693 752.175 229.273 752.521C233.218 752.624 237.136 752.655 241.055 752.683C249.448 752.704 257.814 752.651 266.146 752.22C266.377 756.663 266.776 761.125 267.223 765.587C268.36 776.465 270.664 787.572 276.311 797.012C241.755 810.83 200.907 822.603 169.021 800.388C165.157 797.367 161.668 793.864 158.631 789.955C151.226 779.895 146.68 768.076 144.124 755.542C144.125 755.164 144.051 754.79 143.904 754.44C139.998 734.197 141.198 712.176 144.106 692.586L144.55 690.04C144.955 687.798 141.62 686.931 141.215 689.173C138.334 705.851 137.279 722.922 138.612 739.823C138.958 745.238 139.641 750.626 140.652 755.958C137.147 769.81 131.64 782.993 128.256 796.867C127.73 799.087 131.065 799.954 131.567 797.71C134.227 786.889 138.18 776.471 141.45 765.812C141.656 764.869 141.924 763.94 142.252 763.036C153.989 807.772 190.282 824.232 238.9 812.74C257.251 808.712 274.936 802.01 292.109 794.261C295.461 796.81 300.346 795.792 308.058 789.849C331.158 784.126 383.486 736.506 347.02 715.904ZM14.6022 312.992C9.78691 308.936 15.0297 304.683 11.5585 299.222C8.79844 295.069 -86.939 310.104 -88.8981 305.49C-89.5772 304.423 -85.5723 297.055 -86.3965 295.99C-81.8814 293.722 -64.1353 282.243 -59.5918 280.151C-57.1283 292.838 2.19321 303.747 11.603 311.736C1.87566 301.928 17.9489 309.431 14.6022 312.992ZM10.8094 300.319C-6.11245 294.394 -94.69 275.657 18.6019 315.116L11.603 307.99C2.08448 299.501 -39.783 313.931 -39.8996 300.297C-170.525 294.951 -90.3696 295.849 -90.8992 291.992C-94.8956 275.968 -48.667 282.815 -32.8975 274.992C-28.9614 272.785 -31.7688 267.332 -28.8984 269.992C-22.856 274.778 -26.9271 271.932 -26.8989 279.992C-26.9267 280.073 -47.3989 289.332 -47.3988 289.418C-47.6346 290.957 -64.3881 275.212 -64.8992 276.676C-66.0116 279.634 -58.846 270.224 -60.3984 272.99C-60.4821 273.247 -58.2382 290.778 -58.3991 290.991C-60.3779 295.068 -69.2067 303.59 -70.3981 307.99C-70.924 310.21 -33.3983 310.234 -32.897 307.99C-32.5458 306.527 -15.5016 299.674 -15.2522 298.992C-176.165 296.015 14.1234 301.85 14.6022 299.682C14.7598 299.525 -36.7739 289.418 -17.1253 289.418C-32.6261 290.705 -61.557 291.753 -60.3984 287.714C-60.1441 287.594 -65.0624 273.224 -64.8973 272.99L-86.3965 279.99C-85.6712 278.998 -142.661 274.858 -55.2691 272.991C-133.151 272.059 -76.3844 298.483 -75.7793 298.514L-25.8977 265.49C-24.3679 265.738 -120.157 276.124 -50.1561 272.991C-49.631 273.415 -258.769 268.646 -64.8988 283L-26.8976 277.99C-24.8513 280.564 -5.70794 296.879 -5.8981 298.992C-7.004 307.148 20.7556 295.883 16.1019 302.372C12.3762 307.237 -22.9306 280.377 -17.1253 289.418C-21.1747 294.891 11.0092 298.148 4.77878 298.514L10.8094 300.319ZM233.492 459.96C234.894 467.82 231.171 476.753 224.044 479.998C223.215 480.355 222.356 480.632 221.476 480.824C222.057 478.854 222.568 477.012 222.986 475.321C223.694 475.585 224.274 474.595 224.706 473.457C225.377 474.223 226.163 474.711 227.142 474.165C230.5 472.069 220.782 463.333 219.161 461.329C210.465 452.875 200.805 444.539 188.87 442.071C174.204 438.649 158.806 441.895 145.678 448.967C143.147 450.269 128.634 459.049 124.263 464.252C123.833 464.274 123.429 464.47 123.14 464.8L123.022 464.927L122.998 464.903L122.758 465.008L122.734 464.983L122.299 464.991L121.763 464.85C121.101 464.486 121.275 464.658 120.753 464.09C120.527 463.771 120.332 463.43 120.172 463.071C120.3 463.395 120.095 462.897 120.092 462.796C119.957 462.416 119.859 462.022 119.797 461.622C119.791 461.615 119.786 461.607 119.782 461.599C119.778 461.59 119.777 461.581 119.776 461.572C119.776 461.563 119.777 461.553 119.781 461.545C119.784 461.536 119.789 461.528 119.795 461.521C118.252 445.93 129.023 432.498 142.041 426.885C168.842 416.222 225.361 425.229 233.492 459.96ZM122.758 465.008C122.782 464.982 122.807 465.007 122.758 465.008ZM95.4706 495.267C91.348 499.738 84.0628 499.496 79.2539 494.712C74.4449 489.928 73.9222 482.404 78.0448 477.934C82.1674 473.463 89.4281 473.681 94.2371 478.465C99.046 483.248 99.6167 490.771 95.4706 495.267ZM102.059 480.857C101.582 480.972 101.116 481.132 100.669 481.334C99.7566 479.201 98.4515 477.272 96.8289 475.654C95.6797 474.495 94.3768 473.512 92.9599 472.738C92.1413 458.061 93.1205 441.796 102.112 429.777C107.885 422.59 116.023 418.146 123.167 412.616C133.485 404.365 142.044 392.455 155.803 390.42C163.68 389.145 171.654 390.857 179.493 391.994C191.325 394.212 203.538 397.202 213.93 403.817C225.594 413.02 228.735 429.662 229.75 444.435C207.711 416.487 150.97 409.318 126.745 433.268C119.226 441.266 113.61 453.85 117.246 465.059L117.399 465.407C111.535 470.839 111.229 472.151 111.54 476.967C108.404 478.255 105.219 479.543 102.059 480.857ZM124.221 498.982C124.294 496.068 125.974 491.618 123.495 489.152C120.092 486.503 116.045 483.161 116.384 478.259C116.53 475.318 117.077 470.034 119.092 467.385C120.025 468.095 121.138 468.503 122.289 468.557C120.275 472.235 119.008 476.754 120.22 480.85C121.245 484.171 125.787 485.946 128.136 483.14C129.887 480.572 126.25 479.207 125.469 480.879C125.445 480.905 125.421 480.88 125.397 480.906C125.323 480.924 125.25 480.951 125.181 480.985L124.843 480.991C124.77 480.967 124.721 480.968 124.745 480.943C124.769 480.917 124.648 480.944 124.575 480.921L124.501 480.847L124.084 480.628L124.059 480.604C123.244 479.891 123.076 477.96 123.217 476.827C123.497 474.083 124.43 471.46 125.932 469.193C126.1 468.933 126.186 468.624 126.178 468.31C126.171 467.995 126.07 467.69 125.889 467.436C127.641 468.923 129.078 470.77 130.109 472.858C130.617 473.854 131.054 474.925 131.892 475.563C133.149 476.519 134.979 476.184 136.138 475.133C137.297 474.082 137.863 472.49 138.042 470.905C138.22 469.319 138.133 467.714 138.215 466.13C138.394 462.282 139.574 458.564 141.627 455.37C144.968 453.255 148.444 451.379 152.033 449.754C161.841 445.355 172.601 443.324 182.91 444.566C190.151 449.908 195.327 458.828 203.942 461.031C206.57 461.686 209.35 461.659 211.956 462.39C215.529 463.349 218.639 465.656 220.675 468.86C213.671 500.781 192.641 565.328 152.649 536.08C151.416 535.098 148.628 532.813 147.064 531.159C145.709 530.104 144.234 527.168 142.414 528.935C142.111 529.277 141.946 529.731 141.958 530.199C141.97 530.667 142.156 531.112 142.477 531.444C146.578 536.215 151.518 540.132 157.028 542.979C156.818 543.23 156.622 543.495 156.443 543.769C149.888 541.591 143.72 538.301 138.187 534.034C132.005 529.451 128.793 522.781 126.56 515.513C125.563 513.296 123.454 512.131 121.607 510.835L121.533 510.761C122.177 508.361 122.065 504.823 122.368 503.362C123.435 502.157 124.086 500.618 124.221 498.982ZM124.891 480.99L124.916 481.015C124.964 481.014 124.939 480.989 124.891 480.99ZM125.23 480.984C125.253 480.958 125.302 480.958 125.278 480.983C125.271 480.977 125.263 480.973 125.254 480.973C125.244 480.973 125.236 480.977 125.23 480.984ZM162.576 545.364L160.095 544.858C160.166 544.73 160.237 544.653 160.306 544.527C161.063 544.84 161.795 545.128 162.576 545.364ZM77.3751 587.763C72.757 589.73 68.3438 591.217 63.5728 590.928L63.3548 590.906C62.7661 590.813 62.1893 590.662 61.6267 590.461L61.4075 590.389C60.0916 589.764 58.8477 588.987 57.6989 588.072C49.7104 581.892 43.4816 570.454 39.6207 560.932L39.618 560.831L39.5981 559.977C39.6474 559.562 39.7523 559.154 39.9068 558.766C40.5803 557.377 41.5514 556.165 42.7454 555.224C46.2277 552.221 53.4229 549.83 58.3174 549.213C64.991 548.212 71.7898 548.312 78.4634 547.311C78.6776 547.317 78.8916 547.277 79.0905 547.198C81.9791 558.497 89.3439 567.878 97.2807 576.021C90.9223 580.03 83.6432 584.934 77.3751 587.763ZM154.334 612.692C155.051 614.235 156.262 618.33 156.591 620.912C157.342 625.871 156.967 632.307 154.948 637.743C154.706 638.626 152.562 642.96 151.881 643.801C151.631 644.183 151.338 644.535 151.012 644.845C150.802 645.056 150.562 645.231 150.299 645.361C150.062 645.447 149.821 645.516 149.577 645.575C139.605 645.207 127.276 644.302 118.573 643.534L118.353 643.412L118.055 643.115C113.84 635.936 112.599 627.696 112.199 619.265C111.96 611.485 111.122 603.993 113.56 596.866C113.829 596.007 115.281 593.092 116.155 592.248C116.38 592.008 116.54 591.711 116.618 591.386C121.35 594.151 126.285 596.52 131.374 598.473C137.419 601.401 143.957 603.742 150.635 604.849C150.582 605.232 150.561 605.618 150.567 606.006C152.076 608.069 153.341 610.316 154.334 612.692ZM173.797 598.699C173.697 598.718 173.602 598.753 173.511 598.805C160.757 604.335 146.261 602.016 132.527 595.213C117.624 589.627 104.393 580.031 94.1921 567.414C88.0755 560.544 83.2788 552.346 81.7204 543.058C81.4198 541.632 81.0685 540.106 80.7887 538.554C80.8393 538.34 80.8653 538.121 80.8685 537.901C80.8437 537.542 80.7089 537.201 80.4829 536.927C80.0051 534.25 79.8204 531.616 80.4691 529.469C80.6288 529.03 80.8368 528.614 81.091 528.228C87.5821 523.663 87.9479 524.813 89.4681 515.743C90.1742 513.947 91.812 511.758 93.6814 510.04C94.5201 508.77 97.4111 507.336 98.9211 505.802L99.015 505.7C101.566 503.875 104.676 503.086 107.764 503.479C108.809 503.639 109.836 503.907 110.832 504.276C114.784 505.761 115.968 508.652 117.799 511.357C117.8 511.752 117.927 512.14 118.164 512.453C118.399 512.768 118.73 512.991 119.1 513.09C119.106 513.097 119.115 513.101 119.125 513.099C119.134 513.099 119.142 513.096 119.148 513.089C120.032 514.079 121.076 514.901 122.232 515.518C124.233 517.264 124.43 520.349 125.407 522.742C126.526 525.654 128.085 528.365 130.028 530.77C141.259 543.948 159.426 551.047 176.139 549.157C180.918 547.789 185.877 543.907 190.724 547.309L191.193 547.677C191.616 548.024 192.006 548.412 192.358 548.835L192.963 549.829L193.267 550.426C193.709 551.648 193.868 552.248 193.826 553.479C193.817 553.673 193.797 553.867 193.768 554.058L193.526 555.042C192.801 557.013 190.246 559.372 188.969 561.529C184.134 570.484 195.325 577.159 187.385 588.654C183.571 592.936 178.949 596.355 173.797 598.699ZM283.4 794.121C285.114 792.052 283.059 786.088 282.236 784.094C281.411 782.102 278.168 783.918 279.305 785.932C281.514 790.136 279.366 794.268 281.916 794.749C281.127 795.091 280.311 795.406 279.547 795.721C278.195 793.542 277.016 791.254 276.017 788.881C273.915 784.047 271.975 775.996 271.293 770.86C270.612 765.727 269.936 758.782 269.634 753.439C269.916 753.305 270.164 753.104 270.355 752.854C270.546 752.6 270.677 752.304 270.736 751.988C273.102 751.842 275.49 751.625 277.698 750.879C278.829 759.648 284.779 771.443 285.14 777.288C286.378 783.367 287.707 788.315 289.672 791.491C287.614 792.382 285.529 793.251 283.4 794.121Z" fill="#452D34"/>
<path d="M340.774 755.196C335.642 766.791 323.443 772.34 313.582 767.574C303.716 762.807 296.778 753.016 309.35 738.973C315.655 731.875 312.325 715.388 332.234 725.494C342.029 730.487 345.931 743.574 340.774 755.196Z" fill="#EFDCC4"/>
<path d="M308.208 761.596C305.704 759.104 304.11 756.245 303.505 753.193C302.42 747.462 304.785 741.292 310.527 734.859C312.106 733.096 313.033 730.493 313.987 727.963C315.435 723.97 316.956 719.85 320.952 718.193C324.475 716.796 329.139 717.667 335.627 720.938C340.867 723.603 344.736 728.427 346.504 734.497C348.275 740.568 347.735 747.183 345.078 753.208C342.395 759.261 337.844 763.99 332.293 766.502C326.746 769.014 320.654 769.076 315.391 766.535C312.755 765.308 310.328 763.639 308.208 761.596ZM338.256 727.518C337 726.272 335.56 725.238 333.997 724.457C328.682 721.767 324.744 720.886 322.35 721.833C319.954 722.783 318.771 725.868 317.479 729.381C316.436 732.263 315.323 735.222 313.301 737.521C308.405 742.984 306.328 748.02 307.211 752.472C308.292 758.053 313.767 761.443 316.948 762.992C321.207 765.071 326.14 765.033 330.781 762.938C335.616 760.642 339.476 756.602 341.649 751.564C345.546 742.803 343.958 733.189 338.256 727.518Z" fill="#452D34"/>
<path d="M828.96 547.343C795.81 415.937 829.129 184.41 908.171 147.123C987.213 109.836 1098.12 203.099 1131.27 334.505C1164.42 465.911 1152.86 603.836 1073.82 641.123C994.781 678.41 862.11 678.749 828.96 547.343Z" fill="#D6F9F7" fill-opacity="0.66"/>
<g clip-path="url(#clip1_418_11717)">
<path d="M780.678 679.365C742.091 667.207 740.589 601.967 740.944 601.977C742.496 601.847 753.385 583.321 762.993 574.475C749.7 577.627 737.664 584.57 728.563 595.157C728.762 613.739 734.746 630.669 736.638 635.244C737.977 638.495 738.595 641.999 738.449 645.513C738.303 649.026 737.397 652.467 735.793 655.596C724.547 677.512 722.771 705.982 744.114 721.958C744.114 721.958 776.198 709.149 776.384 708.875C776.57 708.602 773.042 691.822 774.392 690.848C781.289 690.167 785.683 690.073 785.683 690.073C785.683 690.073 784.345 685.616 780.678 679.365Z" fill="#452D34"/>
<path d="M844.449 601.406C841.394 596.796 810.027 575.823 785.121 572.81C785.759 573.534 786.289 574.345 786.697 575.219C800.733 604.523 820.949 600.618 820.902 670.126C820.862 712.48 845.615 700.413 842.051 737.662C836.365 796.365 922.005 794.186 936.405 763.638C957.473 719.027 913.796 661.316 870.704 641.232C850.583 631.842 845.107 616.601 844.449 601.406Z" fill="#452D34"/>
<path d="M884.862 659.728C885.904 660.52 886.923 661.288 887.938 662.106C889.842 662.874 892.401 668.102 895.094 666.305C898.46 663.288 880.278 651.038 884.862 659.728Z" fill="white"/>
<path d="M737.117 662.184C734.487 667.622 733.25 673.628 733.517 679.662C733.564 680.602 734.222 681.51 735.262 681.516C736.303 681.523 737.163 680.762 737.117 679.771C737.037 678.385 737.045 676.995 737.142 675.61L737.357 673.535L737.45 672.954C737.489 672.524 737.418 673.182 737.455 672.802L737.665 671.717C737.935 670.352 738.298 669.006 738.752 667.69L739.42 665.731L739.855 664.779C739.884 664.653 739.883 664.704 739.801 664.879L739.912 664.578L740.156 664.052C740.588 663.203 740.469 662.083 739.57 661.599C738.672 661.115 737.55 661.284 737.117 662.184Z" fill="white"/>
<path d="M733.206 689.905C732.767 690.986 732.551 692.145 732.57 693.311C732.577 693.951 732.634 694.589 732.741 695.22C732.872 695.861 733.065 696.487 733.318 697.09C733.489 697.399 733.744 697.649 734.056 697.813C734.369 697.977 734.721 698.045 735.07 698.009C735.421 697.975 735.752 697.836 736.025 697.615C736.297 697.391 736.499 697.094 736.603 696.759L736.691 696.329C736.71 696.018 736.641 695.708 736.49 695.435L736.444 695.281L736.609 695.718C736.382 695.091 736.231 694.439 736.16 693.775L736.197 694.234C736.128 693.54 736.15 692.842 736.26 692.154L736.195 692.609C736.286 692.034 736.43 691.469 736.627 690.922C736.76 690.471 736.711 689.987 736.49 689.573C736.386 689.36 736.236 689.172 736.053 689.022C735.869 688.871 735.655 688.763 735.425 688.703C734.975 688.57 734.491 688.619 734.076 688.84C733.672 689.084 733.365 689.46 733.206 689.905Z" fill="white"/>
<path d="M780.499 566.175C780.991 566.198 781.482 566.246 781.967 566.321C784.518 566.727 787.817 568.401 790.316 570.532C795.37 574.593 800.29 582.229 806.596 585.999C806.799 586.122 807.024 586.206 807.259 586.242C807.495 586.278 807.734 586.268 807.965 586.211C808.196 586.154 808.412 586.053 808.603 585.911C808.794 585.77 808.955 585.592 809.078 585.387C810.412 583.195 806.492 581.909 805.858 581.077C799.569 575.863 795.255 568.297 787.755 564.567C785.262 562.283 774.24 561.721 780.499 566.175Z" fill="white"/>
<path d="M813.301 591.758C819.872 595.13 825.947 588.131 817.952 588.956L818.386 588.892C817.586 588.99 816.774 588.975 815.976 588.845L816.431 588.909C813.814 587.334 809.842 589.446 813.301 591.758Z" fill="white"/>
<path d="M884.123 773.043C881.991 773.174 879.848 773.073 877.738 772.748C876.423 772.608 872.472 771.447 870.42 770.522C867.825 769.323 865.383 767.817 863.144 766.037C859.968 763.709 855.283 757.476 854.058 753.557C854.119 750.691 849.748 748.35 849.907 752.34C850.86 774.498 892.828 782.239 884.123 773.043Z" fill="white"/>
<path d="M847.169 730.38C846.743 731.094 846.61 731.946 846.794 732.756C846.904 733.292 846.966 733.776 847.052 734.286L846.963 733.825C847.101 735.015 847.073 736.219 846.881 737.402L846.946 736.947C846.606 738.104 846.533 739.701 847.967 740.074C853.404 740.721 849.941 725.998 847.169 730.38Z" fill="white"/>
<path d="M838.781 543.881C849.464 557.325 858.549 597.596 849.733 604.61C847.232 600.019 810.656 572.62 784.779 573.182C765.454 573.636 747.496 574.971 734.921 589.664L733.93 589.711C729.712 569.788 740.946 554.09 756.987 541.455C758.338 540.431 760.035 537.995 761.724 535.076C768.444 523.715 778.511 514.704 790.547 509.277C813.728 498.788 846.201 483.2 843.853 464.375C850.679 471.153 855.917 478.292 857.815 487.737C859.711 497.185 860.494 509.059 853.489 520.777C845.979 533.313 836.29 540.709 838.781 543.881Z" fill="#D13535"/>
<path d="M842.826 602.246C842.836 602.295 842.857 602.338 842.887 602.378C842.914 602.42 842.954 602.453 842.996 602.477C842.951 602.392 842.895 602.311 842.826 602.246Z" fill="#452D34"/>
<path d="M829.555 447.929C826.299 454.098 829.104 462.887 835.914 465.098C831.603 491.816 792.802 499.321 773.287 512.714C763.504 519.016 756.972 528.562 750.819 538.147C734.694 551.058 722.709 571.404 725.949 592.641C726.093 594.574 727.063 598.588 729.609 596.635C762.557 559.515 810.061 574.658 842.826 602.246C842.829 602.144 842.973 602.452 843.022 602.504C843.159 602.738 843.351 602.937 843.576 603.089C843.801 603.24 844.057 603.339 844.326 603.378C844.594 603.419 844.867 603.399 845.126 603.317C845.387 603.237 845.625 603.104 845.826 602.919C856.549 590.657 843.099 553.858 833.867 541.955C833.941 541.984 834.058 542.317 834.014 542.112C841.75 528.82 856.316 516.293 854.671 498.529C854.173 485.648 852.596 479.053 843.147 466.764C851.83 466.621 860.227 458.323 857.51 449.156C853.975 436.029 834.664 435.977 829.555 447.929ZM833.941 541.984C833.935 541.977 833.931 541.968 833.932 541.957C833.932 541.948 833.935 541.94 833.942 541.934L833.941 541.984ZM847.935 514.821C845.206 521.134 840.698 526.657 836.4 531.984C829.848 538.89 829.808 542.721 831.108 544.207C840.848 559.474 849.541 581.638 844.447 598.994C813.49 571.233 760.821 557.306 729.409 591.503C726.762 572.465 737.41 553.527 752.125 541.943C754.782 539.688 756.356 536.285 758.171 533.395C762.208 527.087 767.343 521.554 773.332 517.056C791.45 503.697 835.358 493.505 839.112 467.606C850.714 479.987 854.502 499.033 847.935 514.821ZM852.55 447.026C856.615 451.87 853.333 460.526 847.19 462.317L847.163 462.343C846.932 462.413 847.009 462.389 847.113 462.34C840.261 464.849 830.521 460.518 831.828 452.489C833.265 442.763 846.861 438.783 852.55 447.026Z" fill="#452D34"/>
<path d="M750.583 552.706C753.238 552.178 755.915 551.727 758.591 551.376L760.605 551.106L761.547 551.008L762.03 550.947C762.08 550.949 762.387 550.906 762.132 550.95C761.877 550.993 762.234 550.953 762.283 550.955L766.304 550.619C771.714 550.309 777.137 550.355 782.54 550.757C785.225 550.94 787.906 551.224 790.611 551.584C791.243 551.68 791.901 551.75 792.557 551.871C792.89 551.898 793.217 551.952 793.542 552.028C793.745 552.034 793.467 551.999 793.467 551.999L793.717 552.059L794.274 552.127C795.613 552.344 796.949 552.614 798.263 552.855C803.588 553.909 808.849 555.255 814.027 556.886C819.212 558.538 824.306 560.471 829.282 562.677C829.005 562.542 829.23 562.676 829.381 562.731C829.537 562.788 829.688 562.861 829.83 562.949L830.808 563.358C831.658 563.79 832.753 563.695 833.263 562.772C833.772 561.849 833.602 560.728 832.676 560.319C827.585 557.99 822.379 555.918 817.08 554.111C811.882 552.396 806.597 550.957 801.248 549.799C795.775 548.655 790.243 547.826 784.676 547.318C779.237 546.828 773.773 546.705 768.318 546.95C762.778 547.183 757.264 547.813 751.816 548.837L749.801 549.206C749.566 549.255 749.346 549.348 749.149 549.483C748.952 549.618 748.785 549.789 748.654 549.99C748.526 550.189 748.437 550.414 748.396 550.647C748.353 550.882 748.358 551.123 748.41 551.355C748.463 551.587 748.56 551.807 748.698 552.001C748.835 552.196 749.01 552.361 749.214 552.485C749.415 552.612 749.641 552.696 749.875 552.735C750.111 552.772 750.351 552.762 750.583 552.706Z" fill="white"/>
<path d="M774.313 695.946C774.592 697.603 774.746 699.232 774.923 700.886C775.204 703.383 775.509 705.905 775.864 708.376C776.221 710.849 776.465 712.835 776.984 715.009C777.218 716.001 777.565 716.967 778.012 717.881C778.34 718.45 778.714 718.987 779.132 719.49C779.431 719.912 779.757 720.311 780.11 720.686C781.039 721.649 782.059 722.522 783.152 723.29C785.085 724.577 787.191 725.581 789.407 726.272C790.634 726.65 791.89 726.917 793.163 727.07C795.417 727.354 797.693 727.424 799.958 727.276C806.359 726.96 812.686 725.777 818.769 723.76C825.588 721.479 832.26 718.257 837.56 713.315L839.182 711.689C840.033 710.865 840.529 709.742 840.572 708.56C840.61 707.375 840.178 706.221 839.374 705.35C838.535 704.564 837.438 703.921 836.245 703.962C835.051 704.003 833.85 704.296 833.035 705.158C831.513 706.772 829.837 708.235 828.031 709.524L829.017 708.845C825.481 711.304 821.642 713.294 817.594 714.765L818.673 714.342C814.34 715.931 809.859 717.08 805.298 717.77C804.123 717.987 802.953 718.105 801.755 718.245L802.901 718.102C799.668 718.435 796.364 718.59 793.157 718.061L794.295 718.223C792.74 717.964 791.226 717.5 789.793 716.842L790.872 717.308C789.467 716.71 788.152 715.93 786.957 714.981L787.9 715.721C787.053 715.029 786.299 714.229 785.662 713.343L786.342 714.327C786.089 713.976 785.879 713.594 785.718 713.192L786.115 714.295C785.769 713.247 785.512 712.169 785.349 711.074C785.041 709.543 784.835 708.015 784.602 706.46C784.188 703.35 783.827 700.193 783.464 697.086C783.319 696.041 783.223 694.998 783.026 693.951C782.829 692.904 781.952 691.71 781.006 691.124C780.003 690.527 778.813 690.327 777.673 690.567C776.545 690.886 775.41 691.564 774.844 692.637C774.268 693.637 774.08 694.814 774.313 695.946Z" fill="#EFDCC4"/>
<path d="M816.865 699.545L818.908 709.148C819.02 709.612 819.309 710.015 819.715 710.27C820.118 710.522 820.606 710.608 821.074 710.507C824.237 709.995 820.366 701.223 820.339 698.735C820.313 696.247 816.322 697.294 816.865 699.545Z" fill="#452D34"/>
<path d="M802.735 701.857L803.856 713.464C803.857 713.936 804.038 714.39 804.362 714.734C804.687 715.079 805.129 715.287 805.601 715.317C806.463 715.292 807.551 714.564 807.455 713.572L806.335 701.966C806.43 699.659 802.727 699.546 802.735 701.857Z" fill="#452D34"/>
<path d="M786.809 703.099C787.152 706.865 788.382 713.145 788.617 715.488C788.85 717.829 792.147 717.93 792.191 715.621C792.07 714.039 791.855 712.465 791.546 710.906C791.209 708.664 790.486 704.074 790.41 703.209C790.454 700.9 786.854 700.792 786.809 703.099Z" fill="#452D34"/>
<path d="M744.218 631.261C748.226 628.819 753.086 629.22 755.402 632.361C757.718 635.502 756.513 640.922 752.36 643.993C751.519 644.611 750.599 645.112 749.625 645.484C747.352 640.923 744.747 636.429 744.218 631.261Z" fill="#D13535"/>
<path d="M806.591 626.998C806.587 622.838 802.39 619.471 797.22 619.476C792.05 619.481 787.862 622.859 787.867 627.019C787.872 631.18 792.066 634.549 797.238 634.542C802.409 634.537 806.597 631.159 806.591 626.998Z" fill="#D13535"/>
<path d="M767.779 618.397C765.349 622.358 762.319 626.048 760.314 630.25C757.518 637.119 766.515 643.381 771.971 638.344C773.8 636.623 770.96 634.024 769.329 635.904C769.018 636.148 769.588 635.759 769.356 635.879C769.048 636.066 768.73 636.235 768.401 636.383C768.481 636.258 768.684 636.265 768.453 636.334C768.097 636.455 767.729 636.537 767.355 636.58C767.761 636.592 767.483 636.558 767.355 636.58C767.227 636.601 766.313 636.624 765.488 636.219C765.66 636.402 765.712 636.352 765.563 636.246C764.69 635.738 764.764 635.816 764.103 635.009C764.326 635.194 764.249 635.217 764.153 635.061C763.935 634.754 763.766 634.415 763.65 634.057C763.758 634.694 763.467 633.391 763.446 633.264C763.424 633.136 763.38 632.932 763.469 633.341C763.409 632.962 763.412 632.576 763.478 632.199C763.335 632.727 763.733 631.318 763.84 631.119C765.555 628.125 768.633 623.701 770.844 620.241C772.07 618.299 768.981 616.378 767.779 618.397Z" fill="#452D34"/>
<path d="M788.838 612.715C790.237 611.398 790.302 609.197 788.985 607.797C787.668 606.398 785.467 606.33 784.068 607.647C782.669 608.964 782.601 611.167 783.918 612.566C785.235 613.966 787.438 614.032 788.838 612.715Z" fill="#452D34"/>
<path d="M759.557 618.351C760.957 617.034 761.024 614.832 759.706 613.433C758.389 612.033 756.187 611.966 754.788 613.284C753.388 614.601 753.322 616.803 754.639 618.202C755.956 619.602 758.158 619.668 759.557 618.351Z" fill="#452D34"/>
<path d="M795.209 599.229C790.3 597.695 785.09 597.389 780.034 598.338C777.761 598.803 778.568 602.329 780.842 601.815L783.009 601.499C783.059 601.502 783.567 601.467 783.136 601.478C785.681 601.249 788.247 601.351 790.765 601.786C791.922 602.011 793.066 602.299 794.19 602.651C796.403 603.327 797.446 599.882 795.209 599.229Z" fill="#452D34"/>
<path d="M753.358 604.333C750.773 606.454 748.472 608.901 746.515 611.612C746.39 611.814 746.307 612.04 746.271 612.274C746.234 612.509 746.244 612.749 746.301 612.979C746.358 613.21 746.46 613.428 746.601 613.619C746.742 613.809 746.921 613.97 747.125 614.092C748.74 615.232 750.215 612.612 750.637 612.067C752.196 610.198 753.931 608.483 755.817 606.945C757.539 605.373 755.056 602.735 753.358 604.333Z" fill="#452D34"/>
<path d="M1049.53 659.131C1048.19 658.126 1044.81 655.055 1042.46 654.754C1041.92 653.877 1040.72 653.331 1039.68 654.265C992.452 681.079 923.532 690.871 868.397 688.084C867.436 687.953 866.57 688.918 866.543 689.829C865.908 693.188 879.57 692.002 881.995 692.43C935.168 691.351 993.93 684.223 1040.85 657.652C1051.34 662.107 1054.22 673.687 1058.13 683.348C1063.21 692.611 1058.47 699.83 1051.56 706.242C1021.22 736.665 980.416 757.534 936.998 756.625C936.581 755.867 936.198 755.146 935.844 754.459C934.594 752.187 931.306 754.397 932.867 756.475C924.91 756.084 917.004 755.004 909.236 753.249C907.85 752.926 906.613 752.711 905.392 753.664C903.697 755.212 906.103 757.873 907.851 756.276C916.666 758.691 925.745 760.039 934.882 760.291C944.016 776.329 960.469 786.951 962.89 806.744C963.38 808.993 966.881 808.21 966.364 805.935C963.606 785.524 949.255 776.715 939.168 760.345C973.508 760.243 1009.08 746.373 1035.79 724.976C1045.22 716.686 1067.17 701.843 1063.48 687.926C1062.02 682.552 1059.43 677.551 1057.61 672.319C1055.79 667.086 1053.41 662.676 1049.53 659.131Z" fill="#452D34"/>
<path d="M809.078 667.511C803.703 671.483 795.282 675.569 788.488 676.149C786.183 676.368 783.857 676.305 781.566 675.965C779.396 675.573 777.279 674.939 775.253 674.073C773.923 673.603 769.79 670.99 768.826 670.072C760.016 662.7 755.098 652.451 750.985 641.642C746.871 630.834 743.659 617.058 742.609 605.632C742.034 603.66 743.294 599.765 740.54 599.352C739.626 599.375 738.615 600.08 738.686 601.098C740.853 626.744 750.972 673.922 780.553 679.233C780.58 679.429 780.653 679.613 780.765 679.772C782.632 682.871 784.215 686.129 785.496 689.509L785.516 689.636C768.322 690.943 772.327 686.928 775.796 708.148C724.338 729.631 660.021 744.256 604.505 735.521C603.348 735.181 602.512 735.968 602.306 736.901C594.464 743.642 593.959 754.463 594.1 764.034C594.037 769.463 593.071 775.398 595.608 780.448C601.461 790.802 619.194 795.196 629.849 799.503C673.341 814.778 726.446 811.741 763.809 785.489C765.29 791.092 768.334 796.159 771.177 801.167C787.684 828.441 806.749 854.244 827.407 878.547C832.513 884.182 837.511 890.12 843.825 894.472C845.769 895.649 847.688 892.61 845.67 891.408C826.458 875.498 811.581 853.045 797.062 833.851C786.679 818.894 775.316 803.576 767.93 786.884C767.255 784.858 766.943 781.753 764.224 781.848C761.507 781.944 760.172 784.085 758.166 784.99C715.651 812.049 659.501 810.019 614.813 789.861C607.351 786.54 597.143 782.551 597.515 772.791C598.138 761.416 595.581 747.812 604.849 739.236C655.715 748.161 728.77 732.456 776.345 711.819C778.473 736.22 808.381 729.107 824.113 723.262C830.097 720.932 836.004 717.787 840.436 713.022C842.108 711.449 839.676 708.812 837.978 710.41C836.661 711.839 835.202 713.13 833.624 714.263C829.89 716.821 825.845 718.891 821.585 720.42C812.149 723.636 796.931 727.566 788.081 723.974C786.829 723.39 785.642 722.674 784.542 721.837C783.881 721.282 783.279 720.66 782.746 719.98C782.2 719.214 781.741 718.394 781.373 717.527C780.638 714.967 780.038 712.183 779.491 709.3C779.477 709.116 779.441 708.936 779.381 708.764C778.438 703.836 777.657 698.61 776.739 693.71C788.828 693.416 800.964 691.55 812.382 687.456C814.626 686.28 826.366 683.209 824.456 680.081C824.231 679.665 823.851 679.355 823.4 679.218C822.947 679.08 822.46 679.127 822.042 679.347C818.906 680.979 815.676 682.424 812.37 683.674C804.86 686.405 797.064 688.272 789.133 689.239C788.332 687.184 786.77 682.594 785.005 679.724C787.026 679.785 789.05 679.677 791.054 679.399C799.855 677.914 807.787 673.257 814.678 667.755C815.406 667.168 815.397 665.849 814.755 665.221C812.701 663.457 810.829 666.649 809.078 667.511Z" fill="#452D34"/>
<path d="M790.232 657.118C788.624 658.616 786.661 659.681 784.529 660.218C776.347 662.255 770.511 655.531 768.393 652.549C768.07 652.114 767.878 651.595 767.84 651.054C767.803 650.513 767.921 649.973 768.181 649.497C768.432 649.022 768.807 648.624 769.267 648.347C769.728 648.071 770.255 647.925 770.792 647.926L772.796 647.962C778.519 648.043 784.155 646.555 789.091 643.658L790.873 642.621C791.336 642.347 791.865 642.205 792.402 642.212C792.94 642.22 793.464 642.374 793.918 642.663C794.369 642.953 794.733 643.361 794.969 643.842C795.204 644.324 795.303 644.859 795.256 645.393C795.023 648.077 794.072 653.504 790.232 657.118ZM772.905 651.899C775.235 654.583 778.952 657.539 783.58 656.383C788.209 655.23 790.377 650.625 791.044 647.094C785.541 650.302 779.274 651.963 772.905 651.899Z" fill="#452D34"/>
<path d="M563.485 776.938C568.616 782.651 582.543 783.682 592.603 782.489C595.481 782.145 596.927 779.651 598.399 777.132C605.622 764.865 608.59 753.154 606.397 740.095C606.054 738.004 606.297 735.854 604.927 734.188C591.01 717.728 572.096 714.643 564.059 714.374C552.627 713.952 548.36 719.939 547.75 723.321L548.04 727.137C539.199 730.828 537.702 742.532 535.582 751.376C533.462 760.219 536.059 772.504 546.597 775.64C583.873 786.666 582.106 741.085 572.626 740.747" fill="#D13535"/>
<path d="M563.917 738.352L523.623 657.7C525.011 660.483 523.404 659.927 522.114 660.598C521.481 660.918 521 661.475 520.775 662.147C520.55 662.82 520.6 663.555 520.914 664.191L558.773 738.957L563.917 738.352Z" fill="#CE9C5C"/>
<path d="M577.421 764.265L583.686 776.941C583.846 777.256 583.938 777.601 583.957 777.953C583.976 778.305 583.921 778.658 583.796 778.988C583.672 779.319 583.48 779.619 583.233 779.871C582.986 780.124 582.69 780.322 582.362 780.453C581.696 780.706 580.961 780.702 580.298 780.443C579.636 780.184 579.093 779.688 578.775 779.051L573.235 767.564L577.421 764.265Z" fill="#CE9C5C"/>
<path d="M531.33 648.721C529.965 643.503 524.208 650.942 522.677 652.875C516.729 644.828 516.375 647.279 515.111 655.514C513.45 655.057 511.197 653.187 509.753 654.793C509.332 655.288 509.128 656.17 509.541 656.766C510.681 658.501 511.847 660.211 512.988 661.946C509.71 662.913 508.512 665.617 512.432 666.903C511.451 669.107 504.455 676.381 506.59 677.969C507.948 680.04 517.51 673.503 520.07 672.768C521.401 675.345 522.351 678.1 522.893 680.949C526.062 686.095 528.351 675.861 529.104 673.625C531.183 673.577 533.259 673.811 535.275 674.32C536.986 674.829 538.321 672.636 537.065 671.354C535.81 670.073 534.588 668.513 533.39 667.03C535.55 667.01 537.69 667.446 539.67 668.312C541.352 668.896 542.742 666.603 541.511 665.347C540.28 664.092 538.367 663.577 537.213 662.299C537.528 662.79 537.043 662.015 537.073 661.889C537.076 661.892 537.078 661.896 537.08 661.9C537.082 661.905 537.083 661.909 537.082 661.914C537.082 661.919 537.081 661.923 537.079 661.928C537.077 661.932 537.075 661.936 537.071 661.939C537.085 661.926 537.093 661.908 537.094 661.889C537.094 661.87 537.087 661.852 537.074 661.838C537.005 661.607 537.053 661.71 537.076 661.787C537.059 661.536 537.102 661.285 537.201 661.054C537.301 660.823 537.454 660.619 537.649 660.459C537.417 660.579 537.572 660.482 537.727 660.386L537.701 660.41C539.513 660.084 539.823 657.378 537.961 656.865C536.098 656.352 533.171 655.806 530.719 655.504C531.124 653.266 531.328 650.996 531.33 648.721ZM537.254 660.93L537.28 660.905C537.251 661.031 537.094 661.179 537.254 660.93Z" fill="#EFDCC4"/>
<path d="M537.074 661.889L537.078 661.787L537.074 661.889Z" fill="#CE9C5C"/>
<path d="M524.41 648.486C524.302 647.848 524.245 647.213 524.162 646.601C524.079 645.989 524.128 646.041 524.167 646.449C523.675 642.01 523.743 637.528 524.368 633.106C524.368 633.106 524.434 632.6 524.375 632.853C524.317 633.105 524.434 632.6 524.432 632.651C524.905 629.741 525.741 626.901 526.921 624.2C527.797 622.293 528.864 620.481 530.105 618.789C530.662 618.019 530.294 616.739 529.495 616.309C529.088 616.083 528.611 616.02 528.159 616.134C527.708 616.247 527.317 616.529 527.066 616.921C521.801 623.994 520.056 633.026 520.276 641.687C520.351 644.227 520.579 646.771 520.883 649.293C521.188 651.815 524.9 650.734 524.41 648.486Z" fill="#CE9C5C"/>
<path d="M534.453 655.388C537.395 654.589 541.281 653.641 543.852 653.389C545.6 653.214 547.362 653.242 549.103 653.472C550.331 653.711 551.535 654.062 552.7 654.52C554.48 655.274 556.041 656.465 557.239 657.982C558.234 660.347 561.749 659.057 560.655 656.639C558.521 653.376 555.134 651.244 551.382 650.293C545.462 648.819 539.402 650.336 533.67 651.888C531.396 652.403 532.203 655.929 534.453 655.388Z" fill="#CE9C5C"/>
<path d="M517.957 673.872C512.204 676.971 511.301 684.176 511.757 690.053C511.779 691.017 512.487 691.927 513.477 691.932C514.467 691.936 515.378 691.177 515.332 690.186C515.212 688.279 515.224 685.361 515.47 683.948C515.626 682.958 515.885 681.988 516.243 681.053L516.324 680.877C517.135 679.227 517.641 678.455 519.018 677.406C521.244 676.788 521.209 672.93 517.957 673.872Z" fill="#CE9C5C"/>
<path d="M510.083 659.016C500.471 656.861 490.556 656.406 480.787 657.672C479.845 657.77 479.175 658.943 479.453 659.814C479.797 661.855 482.948 660.909 483.582 660.903C490.504 660.246 497.48 660.465 504.347 661.557C505.876 661.35 510.238 663.944 511.285 661.234C511.489 660.352 511.066 659.223 510.083 659.016Z" fill="#CE9C5C"/>
<path d="M514.335 650.136C513.799 647.734 510.67 640.432 507.459 642.568C505.807 644.32 508.227 645.687 509.151 647.035C509.004 646.844 508.98 646.818 509.077 646.956C509.654 647.786 510.122 648.688 510.468 649.638C510.721 652.995 514.391 653.335 514.335 650.136Z" fill="#CE9C5C"/>
<path d="M540.617 672.249C542.339 673.189 544.088 674.105 545.786 675.019C546.61 675.475 547.383 675.93 548.154 676.435C548.327 676.568 548.527 676.675 548.701 676.807C548.875 676.94 548.924 676.992 549.048 677.072C549.173 677.151 548.85 676.913 549.073 677.098C549.296 677.282 549.764 677.728 550.108 678.094C550.435 678.44 550.885 678.643 551.36 678.657C551.836 678.671 552.298 678.496 552.644 678.17C552.982 677.839 553.179 677.391 553.193 676.918C553.207 676.445 553.038 675.985 552.721 675.635C551.346 674.121 549.577 673.027 547.805 672.035L542.485 669.209C540.517 668.007 538.622 671.071 540.617 672.249Z" fill="#CE9C5C"/>
<path d="M509.468 668.412C507.98 663.901 499.684 670.527 497.43 672.058C495.523 674.69 498.85 676.288 500.825 673.937C502.898 672.498 505.131 671.305 507.48 670.382C507.991 670.246 507.64 670.133 506.401 669.969L505.969 669.144C506.355 671.49 510.006 670.764 509.468 668.412Z" fill="#CE9C5C"/>
<path d="M537.943 645.749C538.501 644.928 539.085 644.083 539.718 643.29L539.875 643.143C540.839 641.996 541.872 640.909 542.968 639.887C544.664 638.339 542.181 635.701 540.509 637.275C538.838 638.848 532.558 644.266 535.514 646.361C535.919 646.596 536.399 646.664 536.853 646.55C537.307 646.435 537.698 646.148 537.943 645.749Z" fill="#CE9C5C"/>
<path d="M567.102 665.005C566.791 665.313 566.432 665.568 566.039 665.76C564.993 666.193 563.822 666.215 562.761 665.82C561.7 665.426 560.827 664.645 560.318 663.633C559.808 662.622 559.701 661.456 560.016 660.368C560.332 659.281 561.046 658.353 562.018 657.771C562.541 657.505 563.111 657.345 563.696 657.302C564.282 657.258 564.87 657.332 565.426 657.519C565.988 657.696 566.508 657.985 566.954 658.37C567.401 658.754 567.764 659.225 568.023 659.755C568.295 660.276 568.458 660.847 568.501 661.433C568.545 662.019 568.468 662.608 568.275 663.163C568.045 663.866 567.641 664.499 567.102 665.005ZM563.685 661.374C563.595 661.443 563.533 661.543 563.511 661.654C563.489 661.766 563.508 661.882 563.565 661.98C563.623 662.109 563.729 662.21 563.86 662.261C563.991 662.313 564.138 662.31 564.267 662.255C564.398 662.179 564.493 662.054 564.532 661.908C564.563 661.782 564.559 661.65 564.518 661.526C564.438 661.403 564.327 661.304 564.197 661.238C564.06 661.216 563.92 661.229 563.79 661.276L563.685 661.374Z" fill="#CE9C5C"/>
<path d="M534.023 615.101C533.708 615.385 533.36 615.63 532.986 615.831C531.926 616.361 530.699 616.45 529.574 616.078C528.449 615.707 527.516 614.905 526.981 613.847C526.714 613.325 526.554 612.754 526.511 612.169C526.468 611.584 526.542 610.996 526.729 610.439C527.092 609.308 527.887 608.366 528.94 607.816C530 607.286 531.226 607.197 532.352 607.569C533.477 607.941 534.409 608.743 534.945 609.8C535.386 610.664 535.534 611.648 535.367 612.604C535.201 613.56 534.729 614.436 534.023 615.101ZM530.581 611.444L530.447 611.669C530.413 611.805 530.426 611.949 530.486 612.076C530.552 612.196 530.662 612.286 530.793 612.328C530.924 612.37 531.066 612.36 531.19 612.3C531.314 612.231 531.409 612.119 531.455 611.984C531.501 611.849 531.496 611.703 531.44 611.572C531.409 611.509 531.364 611.454 531.308 611.413C531.252 611.371 531.186 611.344 531.117 611.333C530.993 611.288 530.857 611.293 530.736 611.347L530.581 611.444Z" fill="#CE9C5C"/>
<path d="M558.956 683.462C558.644 683.75 558.295 683.995 557.919 684.192C557.131 684.606 556.237 684.775 555.353 684.676C554.469 684.577 553.635 684.216 552.958 683.638C552.281 683.06 551.794 682.292 551.558 681.434C551.322 680.576 551.349 679.667 551.635 678.825C552.004 677.701 552.801 676.769 553.853 676.231C554.906 675.692 556.128 675.591 557.254 675.95C558.385 676.313 559.328 677.108 559.878 678.161C560.412 679.226 560.511 680.458 560.154 681.595C559.915 682.306 559.503 682.948 558.956 683.462ZM555.514 679.805C555.437 679.889 555.387 679.994 555.37 680.106C555.353 680.219 555.37 680.334 555.418 680.436C555.448 680.499 555.49 680.555 555.542 680.601C555.594 680.647 555.655 680.682 555.721 680.703C555.787 680.724 555.857 680.731 555.926 680.724C555.995 680.717 556.062 680.695 556.122 680.661C556.185 680.634 556.241 680.593 556.287 680.542C556.332 680.49 556.366 680.43 556.385 680.364C556.407 680.297 556.416 680.227 556.409 680.157C556.402 680.086 556.381 680.018 556.346 679.957C556.276 679.842 556.173 679.751 556.05 679.694C555.983 679.672 555.912 679.663 555.842 679.67C555.772 679.677 555.704 679.698 555.643 679.733L555.514 679.805Z" fill="#CE9C5C"/>
<path d="M506.328 642.254C505.854 642.698 505.297 643.043 504.689 643.268C504.081 643.494 503.434 643.596 502.786 643.568C502.026 643.514 501.294 643.259 500.665 642.83C500.037 642.401 499.533 641.813 499.205 641.125C498.839 640.459 498.662 639.705 498.694 638.946C498.726 638.186 498.965 637.449 499.386 636.817C499.842 636.119 500.472 635.554 501.213 635.176C501.955 634.798 502.782 634.62 503.614 634.661C504.375 634.707 505.11 634.959 505.74 635.389C506.371 635.819 506.873 636.411 507.194 637.104C507.563 637.763 507.744 638.512 507.717 639.267C507.689 640.023 507.455 640.756 507.039 641.388C506.844 641.709 506.605 642.001 506.328 642.254ZM502.776 638.848L502.672 638.946C502.62 638.995 502.592 639.071 502.712 639.303L502.686 639.327C502.806 639.559 502.907 639.562 502.958 639.564C503.094 639.563 503.228 639.53 503.349 639.468C503.47 639.405 503.574 639.315 503.654 639.204C503.706 639.155 503.76 639.055 503.64 638.823C503.52 638.591 503.419 638.588 503.368 638.587C503.146 638.6 502.936 638.693 502.776 638.848Z" fill="#CE9C5C"/>
<path d="M564.146 712.372C551.217 711.93 546.508 719.121 545.807 722.983C545.624 723.997 545.619 725.036 545.79 726.053C538.279 730.216 536.136 739.82 534.401 747.66L533.669 750.911C532.449 756.001 532.735 761.643 534.496 766.341C536.632 772.064 540.625 775.941 546.059 777.527L547.342 777.896L547.745 778.009L548.576 778.212C548.734 778.253 548.894 778.283 549.055 778.303C549.308 778.361 549.533 778.444 549.761 778.476L550.291 778.569L550.972 778.716C551.128 778.76 551.289 778.791 551.451 778.807C551.66 778.849 551.871 778.881 552.083 778.902L552.613 778.994L553.22 779.063L553.725 779.129L554.282 779.197L554.789 779.212L555.345 779.28L555.852 779.295L556.359 779.31L556.84 779.35L557.349 779.315L557.805 779.329L558.338 779.32L558.77 779.307L559.228 779.27L559.686 779.234L560.144 779.197L560.602 779.16L561.035 779.097L561.468 779.034L561.902 778.971L562.31 778.882L562.566 778.839C569.247 785.309 584.596 785.444 592.823 784.449C594.397 784.26 595.864 783.555 596.995 782.444C598.328 781.19 599.265 779.569 600.095 778.148C607.88 764.908 610.509 752.679 608.362 739.773C608.271 739.269 608.218 738.758 608.205 738.246C608.028 736.54 607.833 734.606 606.438 732.914C591.027 714.708 570.179 712.605 564.146 712.372ZM603.417 735.462C604.004 736.19 604.129 737.107 604.261 738.609L604.46 740.391C606.432 752.378 603.982 763.749 596.703 776.167C595.179 778.735 594.142 780.302 592.333 780.527C583.419 781.576 572.683 780.795 567.126 777.403L567.205 777.329L567.41 777.234L567.772 777.042L568.004 776.922L568.389 776.756L568.572 776.584L568.96 776.368L569.09 776.245L569.632 775.931L569.658 775.906L570.15 775.592L573.755 772.199C577.985 767.429 579.457 761.56 579.936 757.464C580.543 752.508 579.988 747.365 578.449 743.74C576.909 740.115 574.948 738.66 572.54 738.562C572.016 738.539 571.504 738.726 571.117 739.081C570.731 739.435 570.501 739.929 570.478 740.454C570.455 740.978 570.642 741.49 570.997 741.876C571.351 742.263 571.845 742.493 572.37 742.516C573.156 742.514 574.088 743.608 574.824 745.28C577.12 750.755 577.042 762.553 570.789 769.571L567.811 772.374L567.45 772.566L567.267 772.738L566.88 772.955L566.697 773.127L566.336 773.319L566.104 773.439L565.719 773.605L565.487 773.725L565.101 773.891L564.87 773.96L564.434 774.124L564.228 774.219L563.767 774.358L563.587 774.429L563.126 774.567L562.922 774.611L562.41 774.748L562.283 774.77L561.72 774.905C561.696 774.879 561.67 774.903 561.644 774.928C560.751 775.079 559.833 775.203 558.918 775.277L558.816 775.274L558.257 775.307L558.054 775.301L557.521 775.311L557.241 775.328L556.785 775.314L556.43 775.303L555.973 775.289C555.856 775.273 555.737 775.269 555.618 775.279L555.138 775.239C555.02 775.222 554.901 775.218 554.783 775.228L554.328 775.163L553.948 775.126L553.467 775.086L553.063 775.023L552.608 774.959C552.468 774.919 552.324 774.889 552.179 774.87L551.724 774.805L551.271 774.69L550.816 774.626L550.337 774.535L549.934 774.421L549.38 774.303L549.002 774.215L548.398 774.045C548.286 774.025 548.177 773.997 548.07 773.959C547.768 773.899 547.467 773.788 547.139 773.702C536.977 770.704 535.794 758.665 537.449 751.787L538.183 748.485C539.77 741.326 541.56 733.335 547.021 729.821C547.851 731.295 548.868 732.656 550.045 733.871C554.917 738.942 563.218 743.051 567.523 742.496C568.04 742.417 568.507 742.14 568.822 741.723C569.138 741.306 569.279 740.782 569.215 740.263C569.142 739.746 568.871 739.278 568.459 738.958C568.047 738.638 567.527 738.49 567.008 738.547C564.562 738.879 557.421 735.845 552.894 731.14C551.788 729.965 550.566 728.405 549.933 726.686L549.678 723.379C550.318 720.658 554.014 715.948 563.951 716.3C569.629 716.522 589.084 718.507 603.417 735.462Z" fill="#452D34"/>
<path d="M764.275 356.994C761.163 353.186 764.8 349.417 767.373 346.629L762.845 346.623C756.191 346.595 755.571 336.636 762.152 335.798C756.396 330.487 764.058 320.891 772.023 329.98C771.13 325.814 770.584 320.758 775.99 319.713C781.706 319.169 782.381 324.387 782.811 328.743C785.454 325.326 788.96 321.224 793.401 324.769C797.84 328.312 793.952 332.761 790.977 335.872L795.553 335.883C802.642 335.961 802.582 346.723 795.482 346.742L791.471 346.724C800.238 352.231 793.696 361.467 787.014 357.202C787.248 363.91 777.181 364.837 776.226 358.217L775.559 353.783C772.591 357.677 768.802 361.698 764.275 356.994ZM771.418 344.423C771.614 344.672 771.718 344.98 771.712 345.295C771.708 345.612 771.595 345.917 771.392 346.159L766.479 351.861C764.198 354.464 768.337 358.071 770.553 355.387L775.439 349.707C779.541 346.799 777.524 358.634 779.985 359.577C781.802 361.035 784.67 359.282 784.27 357.009L783.802 354.042C783.575 352.817 785.142 351.97 786.052 352.784L788.547 354.93C788.812 355.164 789.121 355.342 789.455 355.456C789.792 355.572 790.146 355.619 790.498 355.595C790.852 355.573 791.196 355.479 791.513 355.322C791.83 355.165 792.113 354.947 792.345 354.679C795.678 350.583 785.8 347.933 786.472 344.852C786.574 344.596 786.75 344.376 786.978 344.22C787.204 344.063 787.472 343.977 787.747 343.97L795.503 344.003C798.972 344.058 799.034 338.607 795.533 338.622L787.997 338.59C786.89 338.633 786.203 337.161 786.985 336.321C788.228 334.235 794.908 329.542 791.62 326.84C788.332 324.138 784.8 331.247 782.936 332.771C782.765 332.969 782.54 333.111 782.29 333.186C782.038 333.258 781.773 333.26 781.521 333.187C781.271 333.115 781.044 332.971 780.871 332.776C780.699 332.581 780.585 332.339 780.543 332.08L779.431 324.709C778.97 321.254 773.542 322.051 774.127 325.495L775.271 333.239C775.314 333.515 775.269 333.796 775.144 334.044C775.019 334.293 774.82 334.498 774.574 334.628C774.326 334.752 774.049 334.804 773.773 334.772C773.499 334.741 773.24 334.63 773.028 334.451L767.324 329.537C765.616 327.996 762.609 329.462 762.88 331.794C762.795 333.401 765.732 335.108 766.695 336.099C767.657 337.09 767.024 338.559 765.784 338.49L762.847 338.498C759.376 338.441 759.337 343.921 762.866 343.884C763.696 344.101 771.046 343.401 771.418 344.423Z" fill="#D13535"/>
</g>
<path d="M1090.66 487.175C1215.65 502.962 1300.68 644.744 1280.59 803.854C1260.49 962.964 1151.15 1124.95 1026.16 1109.16C901.175 1093.38 843.089 844.009 863.186 684.899C883.282 525.789 965.671 471.388 1090.66 487.175Z" fill="#33A81F" fill-opacity="0.16"/>
<path d="M25.0203 265.147C27.5189 261.51 33.2213 261.305 36.6036 264.131C39.9859 266.957 41.221 271.956 40.5322 276.414C39.8433 280.872 37.5222 284.832 34.9258 288.42C32.3293 292.009 29.3386 295.303 27.0138 299.113C25.2011 302.109 23.8057 305.374 22.0661 308.395C18.297 314.894 12.9515 320.247 6.55803 323.923C4.6501 325.013 2.42475 325.982 0.281547 325.369C-1.10544 325.018 -2.24309 323.984 -3.30659 323.024C-12.6309 314.582 -21.7626 304.127 -22.6564 291.336C-22.7023 290.458 -22.7032 289.428 -22.0894 288.814C-21.4759 288.2 -20.9205 288.165 -20.246 288.052L-13.2383 286.844L-13.0497 286.639C-15.1842 279.471 -15.2761 271.789 -14.4181 264.365C-13.7252 258.099 -12.332 251.795 -9.27281 246.365C-6.21365 240.935 -1.29403 236.425 4.62155 235.06C10.5375 233.696 17.412 235.931 20.7343 241.243C22.6727 244.347 23.2732 248.128 23.8463 251.784C24.4198 255.44 25.0288 259.572 24.495 263.449L25.0203 265.147Z" fill="#D13535"/>
</g>
<defs>
<clipPath id="clip0_418_11717">
<rect width="952" height="957" fill="white"/>
</clipPath>
<clipPath id="clip1_418_11717">
<rect width="575.327" height="575.327" fill="white" transform="translate(385 628.321) rotate(-43.2659)"/>
</clipPath>
</defs>
</svg>
