<svg width="680" height="796" viewBox="0 0 680 796" fill="none" xmlns="http://www.w3.org/2000/svg">
<g clip-path="url(#clip0_59_4239)">
<path d="M566.173 279.209C561.804 282.03 558.431 277.931 555.708 274.907L555.262 279.636C554.554 286.541 544.18 286.151 543.954 279.252C537.914 284.646 528.61 275.794 538.917 268.413C534.482 268.885 529.168 268.986 528.664 263.247C528.632 257.247 534.169 257.088 538.716 257.056C535.438 253.963 531.525 249.956 535.687 245.689C539.851 241.42 544.024 245.899 546.949 249.305C547.343 246.745 546.999 242.441 549.512 240.775C553.209 237.576 559.35 240.871 558.694 245.735L558.282 249.93C564.785 241.418 573.839 249.022 568.708 255.623C575.676 256.035 575.642 266.562 568.611 266.917L563.97 267.138C567.673 270.554 571.517 275.118 566.173 279.209ZM553.833 270.481C554.115 270.303 554.453 270.227 554.783 270.272C555.115 270.314 555.422 270.472 555.65 270.717L561.051 276.367C562.686 278.173 565.908 276.947 565.912 274.509C566.277 272.694 560.644 268.133 559.747 266.876C556.918 261.572 571.803 267.161 571.153 261.133C571.061 257.947 567.223 258.419 565.08 258.606C563.785 258.717 563.066 257.003 564.003 256.142C565.616 254.674 568.938 252.145 566.614 249.802C562.699 245.925 558.942 255.909 555.832 254.928C555.575 254.788 555.361 254.579 555.219 254.323C555.078 254.066 555.01 253.776 555.027 253.484L555.85 245.436C556.292 241.82 550.598 241.269 550.287 244.887L549.468 252.675C549.436 252.944 549.329 253.198 549.16 253.409C548.992 253.619 548.768 253.777 548.514 253.866C548.257 253.956 547.983 253.971 547.721 253.91C547.456 253.85 547.216 253.717 547.027 253.525C544.989 252.023 540.778 244.579 537.657 247.747C537.387 247.998 537.171 248.3 537.018 248.636C536.865 248.972 536.781 249.335 536.769 249.703C536.755 250.074 536.817 250.441 536.948 250.786C537.078 251.131 537.276 251.447 537.53 251.715L542.93 257.367C543.107 257.567 543.226 257.814 543.27 258.079C543.317 258.343 543.285 258.616 543.184 258.863C543.081 259.112 542.911 259.327 542.694 259.483C542.476 259.639 542.218 259.732 541.949 259.751L534.183 260.154C530.549 260.28 530.822 265.996 534.478 265.77L542.614 265.342C542.902 265.332 543.188 265.408 543.435 265.562C543.678 265.717 543.871 265.941 543.985 266.208C544.104 266.477 544.137 266.778 544.078 267.068C544.022 267.356 543.877 267.621 543.663 267.825L537.982 273.244C535.328 275.683 539.258 279.85 541.851 277.322L544.729 274.566C545.627 273.645 547.317 274.475 547.118 275.757L546.807 278.776C546.394 282.373 552.078 282.973 552.419 279.337C552.711 278.465 552.754 270.794 553.833 270.481Z" fill="#D13535"/>
<path d="M456.279 127.683C454.933 130.431 433.549 101.281 432.704 101.229C431.501 99.8279 433.748 97.9502 434.909 99.4206L456.577 125.568C456.708 125.722 456.803 125.902 456.857 126.097C456.914 126.29 456.928 126.493 456.899 126.693C456.871 126.893 456.802 127.083 456.694 127.255C456.588 127.425 456.446 127.571 456.279 127.683Z" fill="#EFDCC4"/>
<path d="M464.1 118.106C463.792 118.298 463.426 118.367 463.071 118.3L425.897 111.517C425.521 111.444 425.19 111.228 424.973 110.914C424.754 110.601 424.666 110.215 424.727 109.838C423.693 106.449 462.915 116.138 463.571 115.501C464.831 115.67 465.173 117.456 464.1 118.106Z" fill="#EFDCC4"/>
<path d="M443.735 133.52C443.509 133.658 443.251 133.731 442.987 133.731C442.724 133.731 442.465 133.659 442.24 133.522C442.014 133.386 441.832 133.189 441.712 132.954C441.589 132.722 441.535 132.458 441.554 132.195C442.37 131.54 443.624 91.4877 446.612 93.273C446.801 93.285 446.985 93.336 447.153 93.4218C447.322 93.5076 447.473 93.6252 447.594 93.7706C447.716 93.9159 447.807 94.0839 447.862 94.2647C447.917 94.4455 447.934 94.6362 447.912 94.825L444.376 132.466C444.363 132.68 444.298 132.887 444.185 133.072C444.074 133.256 443.92 133.409 443.735 133.52Z" fill="#EFDCC4"/>
<path d="M432.341 125.462C430.912 126.427 429.284 124.233 430.663 123.129L456.811 101.462C457.103 101.225 457.479 101.113 457.855 101.149C458.232 101.186 458.577 101.37 458.819 101.66C462.212 102.885 432.292 124.597 432.341 125.462Z" fill="#EFDCC4"/>
<path d="M357.966 244.582C356.652 247.309 335.268 218.159 334.423 218.107C333.218 216.708 335.435 214.849 336.628 216.299L358.296 242.447C358.426 242.605 358.523 242.787 358.578 242.984C358.633 243.181 358.646 243.387 358.613 243.59C358.583 243.792 358.509 243.985 358.397 244.156C358.285 244.328 358.138 244.472 357.966 244.582Z" fill="#CE9C5C"/>
<path d="M365.816 234.986C365.501 235.182 365.125 235.258 364.759 235.199L327.585 228.416C327.209 228.343 326.877 228.127 326.661 227.813C326.442 227.5 326.354 227.114 326.415 226.737C325.38 223.348 364.631 233.018 365.288 232.381C366.518 232.568 366.86 234.355 365.816 234.986Z" fill="#CE9C5C"/>
<path d="M345.451 250.4C344.506 251.052 343.097 250.254 343.242 249.094C344.058 248.438 345.311 208.386 348.329 210.153C348.705 210.194 349.047 210.38 349.289 210.669C349.532 210.956 349.653 211.328 349.631 211.703L346.094 249.344C346.074 249.556 346.004 249.761 345.893 249.944C345.782 250.127 345.632 250.282 345.451 250.4Z" fill="#CE9C5C"/>
<path d="M334.056 242.342C332.631 243.305 330.971 241.132 332.35 240.028L358.529 218.34C358.821 218.104 359.197 217.991 359.573 218.027C359.947 218.066 360.295 218.248 360.534 218.54C363.901 219.782 334.01 241.475 334.056 242.342Z" fill="#CE9C5C"/>
<path d="M379.932 433.822C344.178 414.89 354.494 350.452 354.842 350.527C356.392 350.679 370.45 334.427 381.499 327.464C367.855 328.161 354.763 332.814 343.898 341.581C340.734 359.893 343.559 377.626 344.593 382.467C345.322 385.907 345.296 389.465 344.518 392.894C343.739 396.324 342.226 399.544 340.083 402.332C325.061 421.854 318.168 449.534 336.271 469.104C336.271 469.104 370.142 462.306 370.374 462.07C370.606 461.835 370.17 444.694 371.674 443.98C378.58 444.557 382.919 445.259 382.919 445.259C382.919 445.259 382.409 440.633 379.932 433.822Z" fill="#452D34"/>
<path d="M456.746 368.676C454.574 363.589 427.515 337.292 403.564 329.827C404.06 330.654 404.435 331.548 404.678 332.481C413.186 363.839 433.775 363.653 421.164 432.007C413.469 473.656 439.995 466.263 429.757 502.254C413.553 558.961 498.175 572.3 517.861 544.857C546.645 504.79 514.121 440.134 475.369 412.592C457.277 399.719 454.645 383.739 456.746 368.676Z" fill="#452D34"/>
<path d="M485.95 433.342C486.832 434.31 487.695 435.249 488.545 436.237C490.279 437.337 491.85 442.941 494.824 441.661C498.68 439.301 483.012 423.966 485.95 433.342Z" fill="white"/>
<path d="M340.194 409.05C336.625 413.923 334.323 419.606 333.494 425.589C333.371 426.523 333.854 427.535 334.876 427.729C335.898 427.923 336.882 427.331 337.016 426.347C337.187 424.97 337.446 423.604 337.792 422.259L338.378 420.258L338.576 419.703C338.691 419.287 338.503 419.921 338.608 419.555L339.011 418.526C339.523 417.231 340.123 415.973 340.807 414.761L341.818 412.955L342.418 412.098C342.47 411.979 342.459 412.029 342.347 412.186L342.511 411.91L342.846 411.437C343.424 410.68 343.51 409.556 342.713 408.918C341.917 408.279 340.783 408.243 340.194 409.05Z" fill="white"/>
<path d="M331.338 435.608C330.71 436.592 330.288 437.692 330.096 438.843C329.987 439.474 329.928 440.112 329.919 440.751C329.932 441.405 330.009 442.056 330.149 442.695C330.261 443.03 330.467 443.321 330.744 443.539C331.022 443.758 331.356 443.888 331.706 443.915C332.057 443.945 332.408 443.869 332.717 443.701C333.024 443.53 333.276 443.274 333.44 442.963L333.604 442.556C333.679 442.254 333.667 441.937 333.568 441.641L333.55 441.481L333.634 441.941C333.523 441.283 333.493 440.614 333.543 439.948L333.497 440.406C333.554 439.711 333.702 439.029 333.934 438.372L333.788 438.808C333.981 438.259 334.225 437.729 334.518 437.226C334.73 436.808 334.769 436.322 334.627 435.875C334.563 435.646 334.45 435.435 334.297 435.254C334.143 435.073 333.952 434.927 333.737 434.827C333.318 434.615 332.833 434.576 332.385 434.718C331.944 434.884 331.574 435.199 331.338 435.608Z" fill="white"/>
<path d="M400.218 322.465C400.697 322.577 401.172 322.712 401.635 322.874C404.071 323.735 407.012 325.977 409.085 328.525C413.323 333.432 416.781 341.832 422.301 346.679C422.479 346.838 422.685 346.96 422.91 347.039C423.135 347.117 423.372 347.15 423.61 347.136C423.847 347.122 424.078 347.061 424.292 346.956C424.505 346.852 424.695 346.706 424.853 346.526C426.562 344.612 422.938 342.639 422.466 341.705C417.222 335.441 414.348 327.219 407.645 322.196C405.606 319.498 394.867 316.953 400.218 322.465Z" fill="white"/>
<path d="M427.855 353.555C433.708 358.06 440.947 352.275 432.936 351.64L433.374 351.656C432.569 351.608 431.773 351.446 431.012 351.175L431.448 351.32C429.159 349.297 424.87 350.657 427.855 353.555Z" fill="white"/>
<path d="M464.739 544.657C462.618 544.4 460.529 543.914 458.512 543.213C457.244 542.837 453.569 540.981 451.717 539.701C449.382 538.052 447.252 536.129 445.372 533.974C442.669 531.11 439.188 524.133 438.691 520.057C439.269 517.249 435.394 514.157 434.829 518.11C431.761 540.075 471.638 555.275 464.739 544.657Z" fill="white"/>
<path d="M436.107 496.017C435.558 496.641 435.273 497.455 435.308 498.285C435.32 498.833 435.293 499.319 435.286 499.837L435.281 499.368C435.201 500.563 434.957 501.742 434.554 502.871L434.7 502.435C434.157 503.511 433.796 505.069 435.139 505.695C440.37 507.314 439.625 492.207 436.107 496.017Z" fill="white"/>
<path d="M461.57 311.074C469.646 326.228 471.302 367.477 461.363 372.782C459.734 367.815 428.712 334.256 403.161 330.13C384.072 327.084 366.169 325.151 351.145 337.329L350.161 337.195C349.614 316.838 363.501 303.43 381.562 293.903C383.075 293.139 385.185 291.051 387.374 288.485C396.037 278.526 407.566 271.483 420.385 268.321C445.081 262.196 479.836 252.734 480.93 233.794C486.418 241.694 490.28 249.663 490.439 259.296C490.596 268.931 489.22 280.751 480.212 291.009C470.559 301.982 459.692 307.504 461.57 311.074Z" fill="#D13535"/>
<path d="M454.998 369.208C454.999 369.259 455.012 369.305 455.034 369.349C455.053 369.395 455.086 369.436 455.123 369.466C455.095 369.375 455.054 369.285 454.998 369.208Z" fill="#452D34"/>
<path d="M469.84 215.035C465.523 220.513 466.693 229.665 472.991 233.071C463.922 258.57 424.403 258.937 402.788 268.581C392.027 273.011 383.877 281.219 376.094 289.534C357.9 299.317 342.434 317.162 341.782 338.635C341.575 340.562 341.803 344.685 344.66 343.224C383.775 312.672 427.759 336.152 454.998 369.209C455.019 369.109 455.105 369.438 455.144 369.498C455.236 369.753 455.389 369.983 455.583 370.173C455.777 370.363 456.01 370.506 456.269 370.593C456.524 370.682 456.797 370.711 457.066 370.677C457.337 370.646 457.595 370.558 457.826 370.413C470.59 360.291 464.013 321.667 457.085 308.291C457.153 308.333 457.207 308.682 457.201 308.472C467.212 296.798 483.803 287.11 485.396 269.342C487.235 256.582 486.876 249.811 479.803 236.016C488.369 237.445 498.129 230.802 497.113 221.295C496.009 207.745 477.026 204.203 469.84 215.035ZM457.153 308.333C457.147 308.325 457.145 308.316 457.148 308.305C457.15 308.296 457.155 308.289 457.162 308.284L457.153 308.333ZM475.826 284.148C472 289.863 466.569 294.481 461.379 298.942C453.686 304.55 452.954 308.311 453.964 310.007C460.784 326.784 465.328 350.154 457.179 366.303C431.751 333.404 382.467 310.185 345.391 338.14C346.229 318.938 360.125 302.237 376.691 293.503C379.713 291.766 381.876 288.704 384.183 286.189C389.294 280.715 395.344 276.201 402.048 272.86C422.282 262.996 467.309 260.909 475.683 236.115C484.856 250.39 485.139 269.807 475.826 284.148ZM492.62 218.303C495.742 223.802 490.95 231.722 484.584 232.374L484.553 232.394C484.313 232.421 484.393 232.412 484.504 232.383C477.312 233.611 468.515 227.591 471.252 219.931C474.423 210.624 488.515 209.168 492.62 218.303Z" fill="#452D34"/>
<path d="M373.228 303.81C375.935 303.77 378.65 303.811 381.345 303.95L383.374 304.048L384.319 304.122L384.805 304.149C384.854 304.161 385.164 304.174 384.905 304.171C384.646 304.167 385.004 304.192 385.053 304.203L389.068 304.599C394.444 305.273 399.77 306.298 405.011 307.67C407.619 308.335 410.204 309.099 412.8 309.942C413.404 310.151 414.039 310.338 414.662 310.577C414.984 310.663 415.296 310.775 415.602 310.909C415.801 310.951 415.534 310.867 415.534 310.867L415.769 310.971L416.305 311.138C417.582 311.594 418.848 312.101 420.096 312.576C425.143 314.574 430.074 316.85 434.871 319.39C439.673 321.952 444.333 324.773 448.828 327.842C448.581 327.661 448.777 327.832 448.916 327.914C449.059 327.999 449.195 328.097 449.319 328.209L450.206 328.789C450.964 329.367 452.058 329.472 452.727 328.656C453.395 327.84 453.43 326.707 452.593 326.137C448.006 322.926 443.261 319.948 438.376 317.212C433.574 314.586 428.636 312.215 423.585 310.109C418.408 307.995 413.117 306.18 407.734 304.674C402.473 303.209 397.121 302.1 391.712 301.355C386.221 300.583 380.684 300.206 375.14 300.227L373.092 300.226C372.852 300.232 372.619 300.284 372.4 300.381C372.182 300.478 371.987 300.616 371.823 300.79C371.66 300.963 371.532 301.167 371.449 301.39C371.364 301.613 371.326 301.851 371.336 302.088C371.345 302.326 371.401 302.56 371.502 302.776C371.601 302.993 371.743 303.186 371.922 303.346C372.097 303.506 372.304 303.63 372.527 303.71C372.752 303.789 372.99 303.824 373.228 303.81Z" fill="white"/>
<path d="M370.675 448.98C370.65 450.661 370.507 452.291 370.383 453.95C370.208 456.456 370.052 458.992 369.954 461.486C369.858 463.982 369.739 465.98 369.856 468.212C369.908 469.23 370.075 470.242 370.349 471.223C370.569 471.841 370.839 472.437 371.159 473.007C371.377 473.476 371.626 473.928 371.905 474.361C372.645 475.475 373.49 476.519 374.427 477.472C376.095 479.086 377.985 480.455 380.039 481.535C381.177 482.129 382.365 482.619 383.59 482.999C385.755 483.686 387.981 484.166 390.235 484.43C396.587 485.276 403.024 485.256 409.372 484.373C416.49 483.361 423.635 481.398 429.741 477.496L431.631 476.19C432.616 475.534 433.307 474.519 433.563 473.364C433.814 472.205 433.598 470.992 432.965 469.99C432.282 469.065 431.319 468.235 430.138 468.059C428.957 467.884 427.722 467.955 426.765 468.655C424.976 469.968 423.064 471.104 421.054 472.045L422.147 471.555C418.225 473.335 414.089 474.598 409.842 475.313L410.98 475.092C406.431 475.872 401.816 476.191 397.205 476.046C396.01 476.047 394.838 475.951 393.634 475.872L394.788 475.939C391.548 475.683 388.271 475.237 385.212 474.137L386.302 474.502C384.819 473.967 383.414 473.237 382.124 472.331L383.101 472.984C381.827 472.142 380.675 471.136 379.671 469.987L380.465 470.885C379.756 470.052 379.16 469.129 378.693 468.142L379.184 469.233C378.999 468.842 378.861 468.428 378.775 468.004L378.967 469.161C378.815 468.067 378.758 466.96 378.796 465.854C378.769 464.292 378.843 462.752 378.895 461.181C379.049 458.047 379.266 454.877 379.47 451.756C379.516 450.702 379.611 449.658 379.606 448.593C379.601 447.528 378.955 446.195 378.13 445.447C377.252 444.679 376.117 444.268 374.953 444.297C373.786 444.407 372.546 444.868 371.796 445.822C371.049 446.702 370.651 447.825 370.675 448.98Z" fill="#EFDCC4"/>
<path d="M411.875 460.211L412.149 470.026C412.175 470.503 412.387 470.951 412.74 471.275C413.091 471.596 413.556 471.768 414.034 471.754C417.238 471.822 415.015 462.495 415.439 460.043C415.863 457.591 411.749 457.899 411.875 460.211Z" fill="#452D34"/>
<path d="M397.56 459.932L396.565 471.549C396.481 472.014 396.577 472.494 396.832 472.89C397.09 473.289 397.487 473.573 397.946 473.688C398.799 473.818 400.001 473.299 400.085 472.306L401.081 460.689C401.592 458.438 397.97 457.657 397.56 459.932Z" fill="#452D34"/>
<path d="M381.673 458.274C381.329 462.04 381.405 468.439 381.212 470.786C381.018 473.13 384.242 473.825 384.702 471.563C384.87 469.985 384.943 468.398 384.921 466.809C384.995 464.543 385.113 459.898 385.195 459.034C385.655 456.771 382.135 456.014 381.673 458.274Z" fill="#452D34"/>
<path d="M352.77 379.921C357.153 378.243 361.861 379.516 363.571 383.024C365.28 386.532 363.116 391.644 358.476 393.915C357.537 394.37 356.542 394.697 355.516 394.887C354.105 389.99 352.356 385.098 352.77 379.921Z" fill="#D13535"/>
<path d="M414.884 387.002C415.632 382.91 412.113 378.84 407.027 377.91C401.941 376.981 397.212 379.546 396.464 383.639C395.717 387.732 399.233 391.803 404.322 392.732C409.408 393.661 414.138 391.097 414.884 387.002Z" fill="#D13535"/>
<path d="M378.267 371.527C375.161 374.984 371.514 378.065 368.782 381.836C364.79 388.087 372.507 395.871 378.784 391.903C380.894 390.541 378.57 387.472 376.627 389.026C376.276 389.21 376.907 388.931 376.657 389.006C376.321 389.135 375.977 389.243 375.628 389.33C375.729 389.222 375.927 389.265 375.688 389.291C375.316 389.345 374.939 389.36 374.563 389.334C374.692 389.336 374.96 389.419 374.563 389.334C374.434 389.332 373.53 389.19 372.792 388.641C372.928 388.852 372.989 388.813 372.861 388.682C372.095 388.024 372.153 388.115 371.649 387.202C371.835 387.424 371.755 387.432 371.688 387.262C371.53 386.92 371.424 386.556 371.375 386.183C371.366 386.83 371.316 385.495 371.318 385.366C371.319 385.237 371.313 385.028 371.326 385.446C371.336 385.063 371.409 384.684 371.542 384.324C371.306 384.819 371.952 383.505 372.094 383.328C374.321 380.694 378.148 376.899 380.948 373.895C382.505 372.207 379.814 369.759 378.267 371.527Z" fill="#452D34"/>
<path d="M400.005 369.745C401.619 368.703 402.082 366.55 401.039 364.935C399.997 363.321 397.844 362.856 396.23 363.899C394.615 364.941 394.151 367.096 395.193 368.71C396.236 370.325 398.391 370.788 400.005 369.745Z" fill="#452D34"/>
<path d="M370.189 369.996C371.803 368.953 372.267 366.8 371.225 365.185C370.182 363.571 368.028 363.107 366.414 364.15C364.8 365.192 364.336 367.346 365.378 368.96C366.421 370.575 368.575 371.038 370.189 369.996Z" fill="#452D34"/>
<path d="M408.71 357.634C404.159 355.237 399.09 353.994 393.946 354.015C391.627 354.061 391.783 357.675 394.112 357.58L396.301 357.661C396.349 357.673 396.855 357.73 396.429 357.664C398.974 357.898 401.479 358.463 403.877 359.345C404.974 359.776 406.047 360.266 407.09 360.815C409.144 361.88 410.793 358.68 408.71 357.634Z" fill="#452D34"/>
<path d="M366.626 355.088C363.699 356.707 360.995 358.698 358.579 361.01C358.42 361.187 358.298 361.393 358.219 361.618C358.141 361.842 358.108 362.08 358.122 362.317C358.136 362.554 358.197 362.786 358.301 362.999C358.406 363.213 358.552 363.403 358.731 363.56C360.113 364.973 362.037 362.663 362.552 362.203C364.423 360.646 366.439 359.273 368.572 358.102C370.55 356.867 368.585 353.823 366.626 355.088Z" fill="#452D34"/>
<path d="M648.014 462.522C646.877 461.291 644.103 457.658 641.847 456.937C641.481 455.978 640.399 455.225 639.205 455.954C587.908 473.79 518.354 470.962 464.63 458.255C463.709 457.952 462.683 458.745 462.491 459.636C461.26 462.825 474.911 464.128 477.219 464.987C529.711 473.538 588.793 477.149 639.739 459.496C649.259 465.776 649.991 477.685 652.098 487.895C655.416 497.922 649.453 504.166 641.49 509.223C606.157 533.661 562.25 546.81 519.711 538.067C519.438 537.247 519.192 536.468 518.968 535.729C518.15 533.268 514.516 534.847 515.676 537.173C507.92 535.35 500.34 532.859 493.018 529.728C491.712 529.16 490.535 528.726 489.161 529.441C487.214 530.657 489.1 533.71 491.107 532.455C499.341 536.424 508.026 539.391 516.968 541.29C523.052 558.715 537.314 572.137 536.117 592.041C536.192 594.341 539.778 594.204 539.68 591.873C540.657 571.3 528.135 560.042 521.174 542.119C554.966 548.226 592.454 541.013 622.595 524.797C633.375 518.349 657.639 507.718 656.527 493.363C656.063 487.814 654.42 482.427 653.572 476.951C652.728 471.476 651.187 466.709 648.014 462.522Z" fill="#452D34"/>
<path d="M410.008 427.297C404.004 430.233 394.983 432.729 388.196 432.072C385.889 431.87 383.613 431.388 381.421 430.639C379.358 429.862 377.39 428.855 375.554 427.637C374.331 426.934 370.738 423.618 369.957 422.54C362.624 413.697 359.64 402.728 357.548 391.354C355.456 379.98 354.787 365.851 355.82 354.423C355.611 352.38 357.554 348.776 354.921 347.872C354.017 347.73 352.895 348.24 352.781 349.254C350.277 374.869 351.7 423.1 379.834 433.67C379.826 433.868 379.864 434.062 379.945 434.239C381.221 437.624 382.189 441.114 382.838 444.671L382.835 444.799C365.688 442.976 370.353 439.752 369.929 461.249C315.436 473.077 249.534 475.834 196.512 457.207C195.435 456.664 194.471 457.287 194.1 458.167C185.168 463.38 182.715 473.931 181.124 483.37C180.081 488.699 178.057 494.361 179.64 499.787C183.525 511.028 200.171 518.555 209.872 524.717C249.887 547.602 302.666 554.215 344.159 535.15C344.602 540.928 346.681 546.461 348.571 551.901C359.876 581.709 373.963 610.533 389.887 638.171C393.891 644.635 397.733 651.379 403.156 656.801C404.856 658.309 407.292 655.668 405.525 654.121C389.505 635 378.932 610.228 368.122 588.726C360.614 572.138 352.206 555.019 347.96 537.267C347.662 535.151 347.917 532.042 345.225 531.643C342.535 531.246 340.836 533.111 338.699 533.638C291.993 552.566 237.135 540.42 196.827 512.516C190.088 507.9 180.77 502.132 182.899 492.6C185.569 481.525 185.512 467.683 196.179 460.924C244.593 478.896 319.284 476.656 369.805 464.959C367.488 489.343 398.188 487.752 414.718 484.848C421.025 483.638 427.403 481.612 432.623 477.728C434.552 476.482 432.636 473.449 430.677 474.714C429.124 475.881 427.455 476.887 425.699 477.717C421.564 479.558 417.211 480.862 412.745 481.595C402.883 483.053 387.205 484.168 379.15 479.035C378.024 478.235 376.987 477.315 376.057 476.293C375.506 475.628 375.027 474.907 374.625 474.143C374.226 473.291 373.924 472.4 373.718 471.482C373.459 468.831 373.371 465.984 373.355 463.05C373.374 462.866 373.371 462.683 373.343 462.503C373.306 457.486 373.483 452.205 373.467 447.219C385.41 449.116 397.682 449.474 409.653 447.511C412.072 446.76 424.174 445.862 422.861 442.44C422.715 441.99 422.397 441.617 421.978 441.401C421.558 441.183 421.07 441.142 420.619 441.282C417.24 442.321 413.802 443.157 410.324 443.79C402.445 445.118 394.44 445.545 386.464 445.062C386.048 442.896 385.342 438.099 384.124 434.958C386.101 435.383 388.111 435.643 390.132 435.732C399.056 435.863 407.7 432.716 415.472 428.55C416.294 428.104 416.524 426.805 416.006 426.071C414.305 423.965 411.886 426.766 410.008 427.297Z" fill="#452D34"/>
<path d="M393.352 413.669C391.499 414.852 389.376 415.545 387.182 415.687C378.766 416.211 374.242 408.544 372.699 405.227C372.459 404.741 372.364 404.196 372.425 403.657C372.486 403.118 372.7 402.608 373.042 402.188C373.374 401.766 373.815 401.443 374.318 401.253C374.82 401.064 375.365 401.016 375.893 401.115L377.858 401.512C383.472 402.627 389.284 402.182 394.663 400.225L396.603 399.527C397.108 399.341 397.653 399.297 398.181 399.401C398.708 399.506 399.196 399.753 399.59 400.118C399.981 400.485 400.265 400.952 400.41 401.468C400.555 401.984 400.555 402.529 400.412 403.046C399.699 405.643 397.782 410.809 393.352 413.669ZM377.253 405.404C379.06 408.465 382.182 412.044 386.942 411.744C391.703 411.447 394.668 407.309 395.962 403.957C389.97 406.117 383.506 406.618 377.253 405.404Z" fill="#452D34"/>
<path d="M678.788 502.903C673.473 508.428 659.513 509.028 649.533 507.529C646.646 507.089 645.27 504.56 643.872 502.004C637.042 489.506 634.449 477.685 637.007 464.719C637.456 462.635 637.249 460.464 638.675 458.903C653.079 442.853 672.091 440.356 680.141 440.324C691.594 440.274 695.656 446.363 696.162 449.792L695.756 453.598C704.486 457.529 705.635 469.295 707.456 478.197C709.277 487.099 706.343 499.287 695.695 502.105C658.126 511.976 661.281 466.468 670.732 466.426" fill="#D13535"/>
<path d="M680.13 438.325C674.098 438.374 653.181 439.841 637.22 457.579C635.752 459.208 635.496 461.123 635.313 462.823L635.092 464.332C632.555 477.202 634.763 489.483 642.136 502.953C643.593 505.601 645.375 508.892 649.217 509.486C657.407 510.731 672.795 511.084 679.643 504.827L679.774 504.828L680.12 504.902L680.617 505.009L681.012 505.097L681.539 505.181L681.947 505.219L682.503 505.284L682.88 505.342L683.465 505.389L683.875 505.426L684.541 505.465L684.877 505.46L685.933 505.504L686.092 505.487L687.007 505.451L687.427 505.437L688.134 505.408L688.609 505.354L689.298 505.297L689.778 505.244L690.494 505.165L691.005 505.092L691.732 504.961L692.24 504.89L692.998 504.743L693.518 504.62L694.385 504.446L694.845 504.362L696.164 504.024C697.929 503.555 699.612 502.815 701.152 501.827C704.194 499.862 706.536 496.939 708.073 493.173C709.999 488.282 710.465 482.938 709.414 477.788C709.169 476.752 708.986 475.672 708.764 474.534C707.267 466.663 705.439 456.954 698.05 452.586C698.256 451.573 698.276 450.533 698.114 449.514C697.556 445.605 693.054 438.304 680.13 438.325ZM694.18 449.832L693.832 453.132C693.102 454.771 692.052 456.247 690.743 457.475C686.102 462.055 678.827 464.872 676.394 464.478C676.138 464.431 675.877 464.435 675.624 464.489C675.37 464.547 675.133 464.652 674.923 464.804C674.714 464.957 674.537 465.15 674.404 465.373C674.27 465.596 674.186 465.842 674.15 466.098C674.104 466.351 674.108 466.611 674.164 466.863C674.218 467.116 674.323 467.353 674.471 467.562C674.617 467.772 674.805 467.952 675.024 468.088C675.242 468.225 675.484 468.318 675.739 468.359C678.845 468.873 684.188 466.961 688.799 463.983C690.481 462.908 692.057 461.674 693.51 460.301C694.719 459.12 695.764 457.784 696.621 456.327C702 460.027 703.535 468.09 704.893 475.284C705.114 476.422 705.296 477.499 705.53 478.588C706.973 485.515 705.402 497.501 695.193 500.209C684.986 502.914 676.42 501.357 671.482 495.492C665.459 488.28 665.741 476.483 668.247 471.105L668.492 470.563L668.574 470.424L668.809 470.061L668.861 469.941L669.155 469.536L669.244 469.478L669.457 469.214L669.578 469.136L669.841 468.881L670.503 468.453L670.775 468.407C671.051 468.438 671.33 468.408 671.594 468.324C671.858 468.239 672.102 468.098 672.309 467.914C672.517 467.728 672.682 467.501 672.793 467.248C672.906 466.994 672.964 466.717 672.963 466.44C672.962 466.163 672.903 465.886 672.789 465.635C672.675 465.379 672.509 465.154 672.301 464.97C672.093 464.786 671.846 464.647 671.584 464.564C671.317 464.479 671.037 464.454 670.76 464.486C668.324 464.48 666.177 466.25 664.678 469.482C663.177 472.714 662.293 478.154 662.746 483.156C663.133 487.261 664.4 493.189 668.49 498.065C668.615 498.196 668.714 498.348 668.839 498.479C668.898 498.506 668.945 498.552 668.968 498.609C669.056 498.682 669.134 498.803 669.243 498.903C669.349 499.003 669.33 498.974 669.369 499.034L669.734 499.398L669.773 499.458C669.899 499.589 670.076 499.732 670.204 499.861C670.249 499.904 670.29 499.946 670.33 499.992L670.656 500.295C670.704 500.306 670.743 500.366 670.811 500.408L671.184 500.721C671.205 500.753 671.255 500.761 671.294 500.822L671.787 501.188C671.826 501.249 671.874 501.259 671.944 501.299C672.012 501.341 672.19 501.483 672.297 501.585L672.506 501.707C672.629 501.819 672.764 501.917 672.908 502.002C672.959 502.01 672.998 502.071 673.047 502.083L673.619 502.44C673.673 502.453 673.718 502.482 673.758 502.522L674.221 502.777L674.43 502.899L674.922 503.136C674.972 503.145 675.011 503.205 675.06 503.218C675.11 503.227 675.11 503.227 675.129 503.256C669.481 506.478 658.737 506.968 649.84 505.625C648.064 505.32 647.081 503.733 645.628 501.085C638.718 488.464 636.636 477.042 638.971 465.115C639.094 464.526 639.178 463.93 639.224 463.328C639.416 461.838 639.559 460.934 640.177 460.237C655.045 443.719 674.536 442.362 680.152 442.324C690.084 442.232 693.632 447.07 694.18 449.832Z" fill="#452D34"/>
<path d="M657.634 370.094C652.864 360.193 645.652 350.674 635.073 346.657C633.007 345.642 631.359 348.843 633.425 349.858C638.847 351.907 642.891 355.062 646.737 359.496C649.545 362.72 652.596 367.711 654.621 372.04C655.837 373.987 658.871 372.073 657.634 370.094Z" fill="#CE9C5C"/>
<path d="M648.622 379.543C639.62 382.069 628.575 387.448 628.498 398.174C628.933 401.095 632.661 399.927 632.103 397.213C632.089 396.067 633.29 393.032 634.039 392.076C636.023 389.13 639.126 387.127 641.982 385.796C643.994 384.282 651.873 383.72 650.881 380.731C650.728 380.282 650.407 379.911 649.986 379.69C649.567 379.47 649.077 379.417 648.622 379.543Z" fill="#CE9C5C"/>
<path d="M674.906 375.083C676.609 373.357 678.364 371.71 680.172 370.145C683.885 366.998 687.87 364.181 692.076 361.732C693.877 360.682 695.721 359.704 697.612 358.798C699.579 357.613 697.644 354.548 695.666 355.785C692.275 357.077 668.459 371.644 672.385 375.215C672.743 375.521 673.203 375.676 673.674 375.653C674.141 375.628 674.585 375.424 674.906 375.083Z" fill="#CE9C5C"/>
<path d="M667.192 366.442C666.926 365.775 666.736 365.083 666.624 364.374C666.549 364.125 666.614 364.422 666.622 364.503C666.486 363.556 666.44 362.6 666.485 361.646C666.549 360.752 667.635 357.873 665.48 357.511C661.573 357.347 662.9 365.156 663.771 367.497C664.643 369.838 667.886 368.641 667.192 366.442Z" fill="#CE9C5C"/>
<path d="M681.225 379.115C681.3 379.655 681.163 380.202 680.844 380.641C680.967 380.476 680.907 380.515 680.663 380.758L680.513 380.855C680.913 380.812 681.331 380.669 681.759 380.605C684.132 380.224 686.542 380.116 688.94 380.283C691.286 381.073 692.454 377.329 689.976 376.796C686.248 376.512 682.171 376.412 678.648 377.834C675.208 380.908 681.739 383.481 681.245 379.146L681.225 379.115Z" fill="#CE9C5C"/>
<path d="M643.185 373.576C640.929 372.855 633.798 369.087 632.775 372.398C632.463 375.287 636.326 374.588 638.084 375.459L639.252 375.814C639.521 375.897 639.342 375.886 639.204 375.804C640.718 376.234 642.893 377.949 643.967 375.974C644.356 375.124 644.086 373.973 643.185 373.576Z" fill="#CE9C5C"/>
<path d="M631.529 348.178C630.861 348.603 630.101 348.857 629.315 348.919C628.526 348.98 627.737 348.846 627.014 348.532C626.318 348.218 625.718 347.722 625.277 347.099C624.836 346.473 624.57 345.744 624.51 344.982C624.445 344.394 624.496 343.799 624.661 343.234C624.828 342.664 625.104 342.137 625.473 341.675C625.845 341.216 626.304 340.834 626.822 340.551C627.341 340.267 627.912 340.09 628.499 340.03C629.087 339.969 629.68 340.024 630.247 340.192C630.812 340.361 631.341 340.639 631.799 341.015C632.258 341.386 632.638 341.846 632.917 342.368C633.198 342.889 633.371 343.459 633.429 344.048C633.543 344.796 633.444 345.561 633.147 346.257C632.851 346.955 632.366 347.556 631.748 347.993L631.529 348.178ZM628.702 344.066C628.615 344.122 628.547 344.197 628.5 344.289C628.452 344.378 628.432 344.48 628.435 344.581C628.463 344.82 628.531 344.861 628.601 344.902C628.73 344.948 628.871 344.964 629.007 344.947C629.146 344.934 629.28 344.888 629.398 344.815C629.438 344.745 629.498 344.706 629.471 344.467C629.456 344.322 629.387 344.189 629.281 344.093C629.17 343.996 629.029 343.947 628.881 343.951L628.702 344.066Z" fill="#CE9C5C"/>
<path d="M669.664 355.919C668.998 356.346 668.238 356.601 667.451 356.66C666.665 356.722 665.874 356.589 665.15 356.273C664.458 355.966 663.861 355.475 663.424 354.857C662.985 354.236 662.723 353.512 662.665 352.755C662.564 351.998 662.669 351.228 662.966 350.526C663.261 349.822 663.742 349.214 664.356 348.759C665.031 348.272 665.823 347.973 666.654 347.885C667.481 347.799 668.318 347.933 669.08 348.27C669.773 348.579 670.371 349.066 670.81 349.687C671.244 350.307 671.508 351.034 671.564 351.788C671.667 352.541 671.564 353.305 671.275 354.002C670.983 354.701 670.509 355.309 669.903 355.765L669.664 355.919ZM666.707 351.939L666.678 351.958C666.617 351.997 666.557 352.036 666.603 352.304L666.572 352.324C666.599 352.563 666.667 352.605 666.738 352.645C666.867 352.692 667.006 352.705 667.144 352.691C667.285 352.675 667.416 352.629 667.533 352.556C667.594 352.517 667.654 352.478 667.608 352.21L667.639 352.19C667.593 351.922 667.525 351.88 667.473 351.869C667.348 351.819 667.217 351.801 667.084 351.812C666.95 351.823 666.82 351.866 666.707 351.939Z" fill="#CE9C5C"/>
<path d="M670.245 468.578L660.133 378.986C660.454 382.066 661.518 380.738 662.984 380.559C663.686 380.5 664.385 380.713 664.933 381.153C665.48 381.597 665.836 382.234 665.923 382.931L674.925 466.238L670.245 468.578Z" fill="#CE9C5C"/>
<path d="M684.496 384.776L674.527 380.58C677.111 377.375 674.626 375.774 671.33 376.752C671.379 374.713 671.409 372.643 671.409 370.592C671.409 368.544 669.263 368.266 668.3 369.483C667.338 370.704 666.778 371.49 666.068 372.507C664.627 371.002 663.195 369.448 661.817 367.907C657.95 365.62 658.779 372.259 658.288 374.411C649.023 371.172 644.693 372.602 652.977 381.001C651.083 382.566 649.415 384.411 647.629 386.078C646.334 387.509 648.076 389.676 649.816 388.935C650.07 388.956 650.314 389.038 650.53 389.176C650.744 389.312 650.923 389.498 651.048 389.718L651.08 389.698C651.107 389.81 651.165 389.9 651.195 390.01C651.222 390.12 651.229 390.327 651.241 390.149C651.435 391.903 647.556 395.219 650.264 397.1C652.153 397.973 652.921 395.727 654 394.688C654.907 393.712 655.927 392.851 657.043 392.124C656.867 394.032 656.603 395.87 656.305 397.727C656.218 398.112 656.261 398.518 656.428 398.877C656.596 399.237 656.878 399.531 657.229 399.715C657.581 399.899 657.985 399.957 658.374 399.887C658.764 399.817 659.121 399.617 659.386 399.322C660.817 397.799 662.438 396.465 664.21 395.354C666.021 396.832 673.485 404.097 673.432 398.197C672.347 395.473 671.634 392.612 671.319 389.696L683.809 388.209C685.542 388.114 686.147 385.545 684.496 384.776ZM658.192 375.456L658.111 375.594L658.192 375.456ZM651.229 390.327C651.249 390.4 651.238 390.452 651.197 390.479L651.229 390.327ZM663.691 394.878C663.708 394.884 663.727 394.893 663.743 394.906C663.757 394.918 663.77 394.933 663.779 394.952L663.691 394.878Z" fill="#EFDCC4"/>
<path d="M651.069 389.75C651.134 390.048 651.127 389.839 651.069 389.75V389.75Z" fill="#CE9C5C"/>
<path d="M673.896 393.028L674.862 393.003C674.942 392.993 675.381 393.011 674.942 392.993C675.61 393.068 676.264 393.218 676.895 393.441C676.659 393.336 676.659 393.336 676.827 393.399C677.51 393.673 678.167 394.006 678.793 394.392C678.929 394.476 679.118 394.566 678.861 394.434C679.672 394.894 681.199 396.469 681.444 396.779C683.346 398.202 684.279 403.619 687.206 402.198C689.99 400.23 683.521 393.648 681.789 392.16C679.527 390.374 676.67 389.189 673.76 389.445C671.43 389.539 671.586 393.153 673.896 393.028Z" fill="#CE9C5C"/>
<path d="M650.588 398.857C648.755 402.431 646.237 405.806 645.532 409.806C645.041 412.088 648.56 412.846 649.022 410.586C649.127 409.932 649.284 409.29 649.488 408.662C650.304 406.553 652.419 403.013 653.789 400.505C655.159 397.998 651.652 396.804 650.588 398.857Z" fill="#CE9C5C"/>
<path d="M673.769 503.069L674.736 511.71C674.774 512.059 674.882 512.397 675.056 512.699C675.23 513.004 675.466 513.27 675.75 513.476C676.032 513.685 676.356 513.832 676.698 513.905C677.042 513.981 677.395 513.983 677.74 513.911C678.435 513.763 679.052 513.361 679.468 512.785C679.884 512.211 680.071 511.498 679.995 510.791L679.352 504.97L673.769 503.069Z" fill="#CE9C5C"/>
<path d="M148.68 490.527C152.694 497.074 166.205 500.605 176.315 501.25C179.208 501.432 181.081 499.241 182.984 497.03C192.305 486.27 197.342 475.289 197.546 462.048C197.586 459.929 198.214 457.859 197.167 455.973C186.455 437.269 168.41 430.815 160.555 429.098C149.387 426.616 144.108 431.733 142.897 434.949L142.493 438.754C133.129 440.787 129.542 452.028 125.858 460.342C122.174 468.657 122.508 481.209 132.306 486.198C166.974 503.78 173.476 458.631 164.212 456.585" fill="#D13535"/>
<path d="M156.08 452.655L131.029 366.048C131.891 369.036 130.411 368.198 129.021 368.626C128.34 368.826 127.767 369.286 127.424 369.908C127.081 370.529 126.998 371.26 127.191 371.942L150.911 452.32L156.08 452.655Z" fill="#CE9C5C"/>
<path d="M164.677 480.583L168.548 494.182C168.647 494.52 168.675 494.876 168.63 495.226C168.585 495.576 168.468 495.913 168.286 496.216C168.104 496.518 167.86 496.779 167.572 496.982C167.284 497.186 166.956 497.327 166.61 497.397C165.91 497.525 165.187 497.389 164.582 497.014C163.977 496.639 163.533 496.053 163.336 495.369L159.964 483.071L164.677 480.583Z" fill="#CE9C5C"/>
<path d="M140.232 358.61C139.833 353.231 132.826 359.507 130.971 361.132C126.576 352.142 125.785 354.488 123.053 362.359C121.502 361.61 119.624 359.364 117.913 360.682C117.41 361.092 117.049 361.923 117.348 362.584C118.156 364.496 118.994 366.389 119.802 368.302C116.403 368.66 114.736 371.103 118.359 373.077C116.996 375.067 108.8 380.957 110.613 382.904C111.574 385.186 122.161 380.486 124.811 380.226C125.654 383.001 126.091 385.883 126.109 388.783C128.295 394.417 132.397 384.765 133.541 382.702C135.595 383.031 137.594 383.635 139.485 384.5C141.076 385.31 142.785 383.394 141.782 381.907C140.779 380.42 139.859 378.665 138.949 376.99C141.077 377.36 143.103 378.177 144.894 379.386C146.443 380.264 148.224 378.26 147.24 376.803C146.256 375.346 144.468 374.494 143.564 373.028C143.785 373.568 143.449 372.718 143.5 372.599C143.503 372.603 143.505 372.607 143.506 372.612C143.507 372.617 143.506 372.621 143.505 372.626C143.504 372.631 143.503 372.635 143.5 372.639C143.497 372.643 143.494 372.646 143.49 372.649C143.506 372.638 143.517 372.622 143.521 372.603C143.525 372.585 143.521 372.565 143.511 372.549C143.485 372.31 143.513 372.42 143.522 372.5C143.55 372.25 143.638 372.01 143.778 371.801C143.918 371.592 144.105 371.419 144.325 371.297C144.076 371.373 144.246 371.306 144.416 371.239L144.386 371.259C146.227 371.266 147.021 368.66 145.282 367.819C143.543 366.978 140.762 365.912 138.405 365.171C139.208 363.043 139.82 360.847 140.232 358.61ZM143.852 371.689L143.882 371.669C143.831 371.788 143.65 371.905 143.852 371.689Z" fill="#EFDCC4"/>
<path d="M143.501 372.599L143.522 372.5L143.501 372.599Z" fill="#CE9C5C"/>
<path d="M133.468 357.128C133.477 356.482 133.536 355.846 133.565 355.23C133.594 354.613 133.633 354.673 133.597 355.081C133.916 350.627 134.793 346.23 136.207 341.994C136.207 341.994 136.363 341.509 136.26 341.746C136.157 341.984 136.363 341.509 136.353 341.559C137.343 338.781 138.679 336.14 140.328 333.696C141.535 331.98 142.911 330.39 144.438 328.95C145.124 328.294 144.994 326.968 144.286 326.401C143.927 326.105 143.468 325.957 143.004 325.987C142.539 326.017 142.104 326.223 141.786 326.563C135.33 332.568 131.98 341.136 130.631 349.694C130.246 352.205 130.01 354.749 129.853 357.285C129.697 359.82 133.544 359.428 133.468 357.128Z" fill="#CE9C5C"/>
<path d="M142.099 365.733C145.138 365.478 149.131 365.248 151.705 365.465C153.455 365.609 155.183 365.955 156.854 366.496C158.019 366.953 159.14 367.516 160.203 368.177C161.816 369.24 163.137 370.694 164.041 372.402C164.592 374.908 168.283 374.275 167.644 371.699C166.134 368.104 163.189 365.394 159.67 363.781C154.115 361.261 147.88 361.658 141.962 362.148C139.632 362.244 139.788 365.858 142.099 365.733Z" fill="#CE9C5C"/>
<path d="M122.533 380.929C116.314 382.938 114.123 389.861 113.51 395.723C113.357 396.676 113.889 397.699 114.862 397.882C115.834 398.065 116.868 397.483 117.001 396.5C117.228 394.603 117.768 391.735 118.265 390.389C118.597 389.444 119.027 388.537 119.548 387.682L119.66 387.524C120.757 386.048 121.393 385.38 122.937 384.597C125.238 384.392 125.901 380.59 122.533 380.929Z" fill="#CE9C5C"/>
<path d="M117.473 364.894C108.41 361.038 98.74 358.798 88.9034 358.277C87.9592 358.204 87.0881 359.236 87.2045 360.143C87.1739 362.212 90.443 361.852 91.0684 361.961C97.9947 362.565 104.817 364.042 111.372 366.357C112.914 366.43 116.736 369.769 118.254 367.294C118.615 366.463 118.403 365.276 117.473 364.894Z" fill="#CE9C5C"/>
<path d="M123.262 356.929C123.168 354.47 121.411 346.723 117.866 348.243C115.925 349.668 118.058 351.45 118.723 352.943C118.613 352.729 118.594 352.699 118.665 352.852C119.083 353.773 119.379 354.744 119.548 355.741C119.19 359.089 122.738 360.086 123.262 356.929Z" fill="#CE9C5C"/>
<path d="M145.113 383.429C146.638 384.665 148.192 385.882 149.697 387.088C150.424 387.685 151.102 388.273 151.77 388.909C151.916 389.071 152.094 389.212 152.241 389.374C152.387 389.535 152.426 389.596 152.534 389.697C152.642 389.798 152.368 389.505 152.554 389.727C152.74 389.948 153.12 390.471 153.392 390.893C153.65 391.293 154.057 391.574 154.522 391.674C154.987 391.774 155.473 391.685 155.872 391.427C156.264 391.163 156.539 390.757 156.639 390.295C156.738 389.832 156.655 389.35 156.406 388.947C155.327 387.21 153.785 385.814 152.222 384.518L147.501 380.777C145.782 379.239 143.365 381.91 145.113 383.429Z" fill="#CE9C5C"/>
<path d="M115.171 374.025C114.523 369.319 105.166 374.336 102.672 375.434C100.321 377.679 103.304 379.852 105.671 377.896C107.97 376.855 110.382 376.086 112.859 375.603C113.387 375.561 113.061 375.387 111.873 375.002L111.597 374.112C111.553 376.49 115.275 376.435 115.171 374.025Z" fill="#CE9C5C"/>
<path d="M147.273 356.883C147.97 356.176 148.697 355.451 149.463 354.785L149.644 354.669C150.8 353.715 152.012 352.832 153.275 352.025C155.223 350.81 153.257 347.766 151.329 349.012C149.4 350.257 142.244 354.451 144.773 357.045C145.129 357.35 145.589 357.503 146.056 357.473C146.523 357.442 146.96 357.231 147.273 356.883Z" fill="#CE9C5C"/>
<path d="M172.471 381.093C172.109 381.339 171.71 381.525 171.289 381.643C170.182 381.88 169.026 381.689 168.053 381.11C167.081 380.53 166.364 379.604 166.046 378.517C165.728 377.43 165.833 376.264 166.34 375.251C166.847 374.239 167.717 373.455 168.778 373.059C169.34 372.891 169.93 372.837 170.514 372.9C171.097 372.964 171.662 373.143 172.175 373.427C172.696 373.702 173.155 374.081 173.525 374.54C173.895 374.998 174.167 375.528 174.326 376.095C174.499 376.656 174.556 377.248 174.493 377.832C174.43 378.416 174.247 378.981 173.957 379.493C173.604 380.142 173.093 380.692 172.471 381.093ZM169.766 376.904C169.665 376.955 169.586 377.042 169.544 377.148C169.502 377.253 169.5 377.371 169.539 377.478C169.572 377.615 169.658 377.733 169.778 377.808C169.898 377.882 170.042 377.906 170.18 377.875C170.322 377.824 170.438 377.718 170.503 377.581C170.557 377.463 170.576 377.332 170.558 377.204C170.502 377.069 170.411 376.95 170.294 376.862C170.164 376.816 170.023 376.804 169.887 376.826L169.766 376.904Z" fill="#CE9C5C"/>
<path d="M148.959 326.031C148.597 326.253 148.211 326.431 147.807 326.562C146.668 326.891 145.446 326.757 144.406 326.188C143.367 325.619 142.595 324.662 142.259 323.525C142.091 322.963 142.037 322.373 142.101 321.789C142.164 321.206 142.343 320.641 142.627 320.128C143.189 319.081 144.141 318.298 145.276 317.948C146.414 317.618 147.637 317.752 148.676 318.321C149.716 318.89 150.488 319.847 150.824 320.984C151.101 321.914 151.069 322.908 150.732 323.818C150.396 324.728 149.774 325.505 148.959 326.031ZM146.234 321.812L146.062 322.009C146.004 322.136 145.991 322.28 146.027 322.416C146.07 322.546 146.162 322.655 146.283 322.72C146.404 322.784 146.546 322.8 146.678 322.764C146.813 322.719 146.927 322.625 146.997 322.501C147.066 322.377 147.087 322.232 147.056 322.093C147.038 322.026 147.003 321.964 146.955 321.913C146.907 321.862 146.848 321.823 146.782 321.8C146.668 321.733 146.533 321.713 146.404 321.745L146.234 321.812Z" fill="#CE9C5C"/>
<path d="M161.122 397.772C160.763 398 160.376 398.178 159.97 398.303C159.121 398.568 158.211 398.573 157.359 398.315C156.507 398.058 155.752 397.552 155.191 396.861C154.63 396.171 154.289 395.328 154.213 394.441C154.136 393.554 154.326 392.665 154.76 391.888C155.326 390.85 156.278 390.078 157.411 389.738C158.543 389.399 159.764 389.52 160.807 390.076C161.854 390.638 162.637 391.59 162.987 392.725C163.32 393.87 163.195 395.099 162.638 396.153C162.274 396.809 161.753 397.366 161.122 397.772ZM158.398 393.554C158.307 393.622 158.239 393.716 158.202 393.824C158.165 393.931 158.161 394.048 158.19 394.157C158.207 394.225 158.239 394.287 158.281 394.342C158.324 394.396 158.378 394.441 158.439 394.474C158.501 394.507 158.568 394.526 158.637 394.532C158.707 394.537 158.776 394.528 158.842 394.505C158.908 394.49 158.971 394.46 159.025 394.418C159.079 394.376 159.123 394.322 159.153 394.261C159.188 394.199 159.209 394.131 159.215 394.061C159.221 393.991 159.212 393.92 159.189 393.854C159.141 393.728 159.056 393.619 158.945 393.542C158.883 393.507 158.816 393.487 158.745 393.48C158.675 393.474 158.604 393.483 158.538 393.506L158.398 393.554Z" fill="#CE9C5C"/>
<path d="M116.809 347.731C116.264 348.081 115.654 348.319 115.015 348.431C114.376 348.543 113.721 348.527 113.088 348.382C112.351 348.192 111.678 347.809 111.136 347.273C110.596 346.737 110.206 346.068 110.008 345.333C109.769 344.611 109.731 343.838 109.9 343.096C110.068 342.355 110.437 341.674 110.966 341.128C111.539 340.524 112.261 340.082 113.059 339.844C113.856 339.606 114.702 339.581 115.513 339.771C116.254 339.955 116.931 340.335 117.473 340.872C118.015 341.409 118.402 342.082 118.593 342.821C118.837 343.537 118.879 344.306 118.715 345.044C118.552 345.782 118.189 346.461 117.666 347.007C117.416 347.287 117.128 347.531 116.809 347.731ZM113.932 343.738L113.812 343.816C113.752 343.855 113.711 343.924 113.787 344.174L113.757 344.193C113.833 344.443 113.932 344.464 113.981 344.475C114.115 344.499 114.253 344.491 114.383 344.451C114.514 344.412 114.633 344.342 114.731 344.247C114.791 344.208 114.862 344.12 114.786 343.87C114.71 343.62 114.611 343.599 114.562 343.588C114.341 343.561 114.117 343.615 113.932 343.738Z" fill="#CE9C5C"/>
<path d="M161.001 427.144C148.365 424.373 142.433 430.594 141.046 434.265C140.682 435.23 140.489 436.251 140.474 437.282C132.334 440.019 128.49 449.077 125.367 456.474L124.059 459.54C121.939 464.325 121.2 469.926 122.083 474.864C123.149 480.88 126.376 485.415 131.434 487.957L132.629 488.551L133.005 488.736L133.786 489.086C133.933 489.154 134.085 489.213 134.241 489.261C134.478 489.364 134.685 489.487 134.903 489.559L135.408 489.746L136.05 490.014C136.197 490.086 136.349 490.145 136.506 490.19C136.703 490.27 136.905 490.339 137.11 490.398L137.614 490.584L138.199 490.762L138.684 490.918L139.219 491.086L139.715 491.192L140.25 491.359L140.746 491.466L141.242 491.573L141.707 491.699L142.214 491.756L142.661 491.852L143.187 491.94L143.614 492.006L144.071 492.052L144.528 492.098L144.985 492.145L145.442 492.191L145.879 492.208L146.317 492.224L146.754 492.241L147.173 492.227L147.431 492.231C152.833 499.802 167.905 502.709 176.176 503.218C177.759 503.317 179.329 502.889 180.642 502C182.179 501.008 183.394 499.583 184.467 498.335C194.518 486.721 199.313 475.169 199.535 462.087C199.536 461.574 199.577 461.063 199.657 460.557C199.791 458.847 199.949 456.909 198.882 454.993C187.016 434.301 166.892 428.464 161.001 427.144ZM195.451 456.953C195.896 457.775 195.853 458.7 195.712 460.2L195.586 461.99C195.358 474.136 190.893 484.876 181.489 495.774C179.526 498.024 178.223 499.378 176.403 499.272C167.446 498.693 157.028 495.983 152.176 491.643L152.267 491.585L152.486 491.528L152.876 491.405L153.126 491.329L153.535 491.235L153.746 491.099L154.166 490.956L154.317 490.859L154.907 490.648L154.937 490.629L155.478 490.408L159.637 487.723C164.659 483.796 167.168 478.29 168.38 474.348C169.872 469.583 170.256 464.425 169.397 460.581C168.538 456.738 166.873 454.952 164.522 454.42C164.011 454.303 163.473 454.394 163.029 454.673C162.585 454.952 162.269 455.396 162.152 455.908C162.035 456.42 162.126 456.957 162.405 457.401C162.684 457.846 163.128 458.161 163.64 458.278C164.414 458.419 165.132 459.663 165.554 461.44C166.822 467.24 164.613 478.83 157.195 484.602L153.759 486.821L153.369 486.944L153.158 487.08L152.738 487.224L152.527 487.36L152.138 487.483L151.888 487.559L151.479 487.653L151.229 487.729L150.819 487.822L150.58 487.849L150.121 487.932L149.901 487.988L149.423 488.041L149.233 488.078L148.755 488.13L148.546 488.137L148.018 488.179L147.889 488.177L147.311 488.209C147.292 488.179 147.261 488.198 147.231 488.218C146.326 488.204 145.401 488.161 144.487 488.068L144.388 488.046L143.832 487.979L143.633 487.936L143.107 487.849L142.829 487.815L142.383 487.719L142.036 487.644L141.589 487.548C141.476 487.511 141.36 487.485 141.242 487.473L140.776 487.347C140.664 487.31 140.547 487.284 140.429 487.272L139.993 487.127L139.627 487.022L139.161 486.895L138.775 486.76L138.339 486.615C138.208 486.55 138.072 486.495 137.933 486.45L137.498 486.304L137.073 486.109L136.637 485.963L136.182 485.787L135.807 485.603L135.282 485.386L134.926 485.231L134.363 484.955C134.257 484.915 134.155 484.867 134.057 484.811C133.77 484.697 133.494 484.534 133.187 484.39C123.735 479.605 124.747 467.55 127.618 461.084L128.937 457.969C131.792 451.215 134.997 443.68 141.004 441.21C141.554 442.81 142.307 444.333 143.246 445.741C147.12 451.608 154.542 457.15 158.877 457.382C159.399 457.399 159.908 457.21 160.294 456.857C160.68 456.504 160.914 456.015 160.944 455.492C160.966 454.971 160.784 454.462 160.437 454.072C160.09 453.683 159.605 453.444 159.084 453.405C156.618 453.29 150.143 449.016 146.541 443.57C145.666 442.214 144.746 440.459 144.434 438.653L144.781 435.355C145.903 432.794 150.389 428.83 160.099 430.972C165.643 432.217 184.419 437.686 195.451 456.953Z" fill="#452D34"/>
<path d="M55.5823 799.118C55.8665 801.045 55.426 803.39 54.1548 804.064C50.0911 806.302 45.2726 806.207 40.6214 803.795C40.6013 803.8 40.5833 803.793 40.563 803.778C40.5426 803.763 40.5306 803.738 40.5233 803.71C40.1658 803.806 39.6373 804.392 39.4208 804.45L38.233 805.436L37.2291 806.262L37.0027 806.545L36.3414 807.502C35.6997 808.35 35.0999 809.254 34.5412 810.21C34.5262 810.437 34.2948 810.721 34.2522 810.844L33.9632 811.477L33.0816 813.606C29.2391 823.539 26.0912 837.181 16.3271 838.128C11.78 838.568 6.94973 836.523 3.44949 831.45C2.80978 831.16 2.21269 830.622 1.73607 829.906C-6.3203 817.82 -13.9079 801.49 -12.0466 786.746L-12.1024 786.537C-12.3602 785.364 -12.362 784.177 -12.1085 783.135C-11.8552 782.092 -11.3574 781.245 -10.6829 780.704C-9.4314 777.231 -7.23846 774.714 -4.48326 773.59C-1.52675 772.352 2.05434 773.73 5.05709 776.375C6.53396 777.63 7.91463 779.133 9.15956 780.84C10.6001 782.792 12.096 784.95 12.7206 787.565C13.8262 792.834 11.5493 796.894 8.39074 798.519C5.23215 800.145 0.709253 801.245 -3.43513 798.906L-4.27203 798.351C-4.19869 798.955 -4.08844 799.558 -3.94196 800.155C-3.56357 801.76 -3.11237 803.35 -2.59063 804.912C-2.49007 805.334 -2.35378 805.746 -2.18528 806.139L-2.01817 806.762C-1.65316 807.555 -1.35914 808.366 -0.993933 809.159C-0.312367 810.868 0.46325 812.522 1.32482 814.102C2.17024 815.801 3.07249 817.454 4.02804 819.054C4.16778 819.259 4.28279 819.493 4.36515 819.742C4.55829 819.961 4.7297 820.216 4.87338 820.497L5.79025 821.92C6.75378 822.388 7.62505 823.303 8.23786 824.492C8.2638 824.571 8.3095 824.639 8.36494 824.68C8.51991 824.973 8.51991 824.973 8.42071 824.888C8.32182 824.803 8.51991 824.973 8.5478 825.077L8.97238 825.519C9.07127 825.604 9.07127 825.604 9.09915 825.708C9.12684 825.811 9.29773 825.877 9.17065 825.689C9.04336 825.5 9.8927 826.386 9.96371 826.366L10.1623 826.536L10.7017 826.836L11.5822 827.268C11.483 827.184 11.4115 827.203 11.6532 827.249L11.923 827.4C11.8951 827.296 11.8951 827.296 11.8241 827.315L12.4503 827.369L13.7033 827.479L16.0575 826.848L17.2308 826.089L17.7617 825.502L18.2489 825.037C18.8704 824.287 19.4422 823.464 19.9597 822.575L20.8668 821.108C20.8594 821.08 20.8599 821.052 20.8679 821.029C20.8762 821.006 20.8913 820.99 20.9104 820.985L20.9815 820.966C21.1007 820.507 21.2714 820.086 21.4883 819.717C23.5977 815.034 24.9141 809.674 27.0974 804.97C28.5077 801.793 30.326 799.052 32.4882 796.848C28.1454 791.296 25.0094 784.226 23.5897 776.752C22.5857 772.078 22.1988 767.351 22.4506 762.811C22.8085 758.708 24.2848 754.529 27.0587 752.896C33.2229 749.352 42.2353 758.734 41.3448 768.544C40.8182 775.14 35.7693 778.273 31.123 776.625C31.4137 777.992 31.7764 779.346 32.208 780.675C32.2915 780.986 32.4455 781.279 32.5289 781.59C32.6124 781.902 32.7437 782.089 32.7714 782.193L33.9229 784.778C34.2587 785.467 34.6648 786.137 35.0057 786.825C35.3415 787.514 35.1041 786.91 35.132 787.014L35.2025 786.995C35.4125 787.356 35.6355 787.705 35.866 788.041L37.0542 789.615L37.7326 790.435L38.2242 790.859C38.7079 791.376 39.2147 791.837 39.742 792.234L39.9385 792.403C43.9036 791.368 48.2144 791.946 52.3955 794.074C53.1689 794.482 53.889 795.176 54.4531 796.072C55.0174 796.97 55.4089 798.028 55.5823 799.118ZM-0.246587 783.695L0.16622 783.807L-0.246587 783.695ZM-3.15289 788.258C-3.18077 788.154 -3.28017 788.069 -3.40726 787.881C-3.53403 787.692 -3.28017 788.069 -3.15289 788.258ZM-3.30784 787.966C-3.27096 788.001 -3.23817 788.044 -3.21174 788.095C-3.18482 788.145 -3.16499 788.201 -3.15289 788.258L-2.6852 788.577L-2.2173 788.897L-1.06721 789.479L-0.412662 789.638L0.527107 789.72L4.45106 788.669L4.89485 788.327L3.83545 786.942L3.15703 786.122L3.01401 786.16C2.53423 785.641 2.02663 785.18 1.4987 784.785L1.30059 784.616L0.590308 784.25L0.221799 784.014L-0.261818 783.922L-0.81715 783.847L-1.53073 784.039L-1.97452 784.381L-2.20396 784.664L-2.50546 784.968L-3.05192 785.782L-3.35288 786.085L-3.13886 786.028C-3.39982 786.521 -3.61332 787.063 -3.77623 787.646L-3.45086 788.004C-3.50663 787.796 -3.40723 787.881 -3.30784 787.966ZM30.6099 763.853L30.7806 763.362L30.6099 763.853ZM33.0023 763.656L33.0581 763.864C33.0551 763.793 33.0355 763.72 33.0023 763.656ZM30.9497 765.987L31.0202 765.968C30.9497 765.987 31.0481 766.072 31.2776 766.345C31.376 766.43 31.376 766.43 31.4036 766.533L32.7583 766.17C32.7658 766.198 32.7678 766.226 32.7578 766.249C32.748 766.273 32.7359 766.288 32.7157 766.293C32.7359 766.288 32.748 766.273 32.7578 766.249C32.7678 766.226 32.7658 766.198 32.7583 766.17L32.8993 766.132C33.2568 766.037 33.2718 765.81 33.0882 765.971L33.4604 765.648C33.0177 765.99 33.3274 766.018 33.4604 765.648C33.5885 765.28 33.5309 765.629 33.5309 765.629L33.6015 765.61C33.5738 765.507 33.6442 765.488 33.6919 765.364C33.6844 765.336 33.6824 765.308 33.6924 765.285C33.6972 765.263 33.7144 765.246 33.7345 765.241C33.7068 765.138 33.7216 764.91 33.6937 764.806L33.5546 764.288C33.4933 764.199 33.4398 764.101 33.4007 763.995L33.1712 763.723L32.8206 763.26L32.155 762.77L31.8828 762.621L31.8124 762.64L31.3287 762.547L30.9712 762.643L30.7397 762.927L30.5838 763.191L30.423 763.457L30.1748 764.525L30.3229 763.93L30.2027 764.63C30.1876 764.634 30.1704 764.65 30.1604 764.673C30.1556 764.696 30.1526 764.725 30.1599 764.752L30.9497 765.987Z" fill="#D13535"/>
</g>
<defs>
<clipPath id="clip0_59_4239">
<rect width="575.327" height="575.327" fill="white" transform="translate(0 312.095) rotate(-32.8516)"/>
</clipPath>
</defs>
</svg>
